<svg xmlns="http://www.w3.org/2000/svg" xmlns:xlink="http://www.w3.org/1999/xlink" width="48" height="48" version="1.1"><defs><linearGradient id="f" x1="24" x2="24" y1="5.564" y2="43" gradientTransform="matrix(.89189 0 0 1.1351 2.5946 -4.7432)" gradientUnits="userSpaceOnUse"><stop offset="0" stop-color="#fff"/><stop offset=".036" stop-color="#fff" stop-opacity=".235"/><stop offset=".951" stop-color="#fff" stop-opacity=".157"/><stop offset="1" stop-color="#fff" stop-opacity=".392"/></linearGradient><radialGradient id="b" cx="7.806" cy="9.957" r="12.672" fx="7.276" gradientTransform="matrix(-1.6167e-7 6.6019 -8.0922 -1.9817e-7 197.44 -60.073)" gradientUnits="userSpaceOnUse"><stop offset="0" stop-color="#f8de97"/><stop offset=".262" stop-color="#f6ce68"/><stop offset=".705" stop-color="#f4ba27"/><stop offset="1" stop-color="#d89e0c"/></radialGradient><linearGradient id="e" x1="25" x2="25" y1="44.292" y2=".571" gradientTransform="translate(92.874 -.00046076)" gradientUnits="userSpaceOnUse"><stop offset="0" stop-color="#b98809"/><stop offset="1" stop-color="#dca10b"/></linearGradient><radialGradient id="d" cx="605.71" cy="486.65" r="117.14" gradientTransform="matrix(.023040 0 0 0.0147 26.361 37.04)" gradientUnits="userSpaceOnUse" xlink:href="#a"/><linearGradient id="a"><stop offset="0"/><stop offset="1" stop-opacity="0"/></linearGradient><radialGradient id="c" cx="605.71" cy="486.65" r="117.14" gradientTransform="matrix(-.023040 0 0 0.0147 21.623 37.04)" gradientUnits="userSpaceOnUse" xlink:href="#a"/><linearGradient id="g" x1="302.86" x2="302.86" y1="366.65" y2="609.51" gradientTransform="matrix(.067325 0 0 0.0147 -.34114 37.04)" gradientUnits="userSpaceOnUse"><stop offset="0" stop-opacity="0"/><stop offset=".5"/><stop offset="1" stop-opacity="0"/></linearGradient></defs><rect width="32.508" height="3.57" x="7.738" y="42.43" fill="url(#g)" opacity=".3"/><path fill="url(#c)" d="m7.7378 42.43v3.5699c-1.1865 0.0067-2.8684-0.79982-2.8684-1.7852 0-0.98533 1.324-1.7847 2.8684-1.7847z" opacity=".3"/><path fill="url(#d)" d="m40.246 42.43v3.5699c1.1865 0.0067 2.8684-0.79982 2.8684-1.7852 0-0.98533-1.324-1.7847-2.8684-1.7847z" opacity=".3"/><g><path fill="url(#b)" stroke="url(#e)" stroke-linejoin="round" d="m99.374 0.4972c8.0203 0 35 0.002801 35 0.002801l0.00004 44.003h-35v-44.006z" color="#000" transform="translate(-92.874352,-1e-6)"/></g><path fill="none" stroke="url(#f)" stroke-linecap="round" stroke-linejoin="round" d="m40.5 43.5h-33v-42h33z" opacity=".5"/><path fill="#fff" d="m16 14c-1.662 0-3 1.338-3 3v12c0 1.662 1.338 3 3 3h7.5 1.5 0.5 6.5c1.662 0 3-1.338 3-3v-12c0-1.662-1.338-3-3-3h-6.5-0.5-1.5-7.5zm-1 4h8.5 1.5 0.5 7.5v10h-7.5-0.5-1.5-8.5v-10z"/></svg>