<svg xmlns="http://www.w3.org/2000/svg" xmlns:xlink="http://www.w3.org/1999/xlink" width="48" height="48" version="1.1"><defs><radialGradient id="a" cx="5" cy="41.5" r="5" gradientTransform="matrix(.40120 0 0 1.2 -6.006 -91.8)" gradientUnits="userSpaceOnUse"><stop offset="0"/><stop offset="1" stop-opacity="0"/></radialGradient><linearGradient id="c" x1="17.554" x2="17.554" y1="46" y2="35" gradientTransform="matrix(1.7441 0 0 1.0909 -16.93 -2.1818)" gradientUnits="userSpaceOnUse"><stop offset="0" stop-opacity="0"/><stop offset=".5"/><stop offset="1" stop-opacity="0"/></linearGradient><radialGradient id="b" cx="5" cy="41.5" r="5" gradientTransform="matrix(.40120 0 0 1.2 41.994 -91.8)" gradientUnits="userSpaceOnUse"><stop offset="0"/><stop offset="1" stop-opacity="0"/></radialGradient><linearGradient id="f" x1="24.823" x2="24.997" y1="15.378" y2="37.277" gradientTransform="matrix(1.2822 0 0 1.5573 -6.0702 -15.291)" gradientUnits="userSpaceOnUse"><stop offset="0" stop-color="#6d63fe"/><stop offset=".239" stop-color="#5041eb"/><stop offset=".276" stop-color="#6d63fe"/><stop offset="1" stop-color="#5041eb"/></linearGradient><linearGradient id="e" x1="15.464" x2="15.464" y1="7.976" y2="45.042" gradientUnits="userSpaceOnUse"><stop offset="0" stop-color="#5041eb"/><stop offset=".239" stop-color="#3829a4"/><stop offset=".276" stop-color="#5041eb"/><stop offset="1" stop-color="#3829a4"/></linearGradient><linearGradient id="g" x1="23.452" x2="43.007" y1="30.555" y2="45.934" gradientTransform="matrix(1.2822 0 0 1.1747 -6.0702 -5.3032)" gradientUnits="userSpaceOnUse"><stop offset="0" stop-color="#fff" stop-opacity="0"/><stop offset="1" stop-color="#fff" stop-opacity="0"/></linearGradient><linearGradient id="h" x1="24" x2="24" y1="5.564" y2="43" gradientTransform="matrix(1.0541 0 0 .70270 -1.2973 13.635)" gradientUnits="userSpaceOnUse"><stop offset="0" stop-color="#fff"/><stop offset=".036" stop-color="#fff" stop-opacity=".235"/><stop offset=".951" stop-color="#fff" stop-opacity=".157"/><stop offset="1" stop-color="#fff" stop-opacity=".392"/></linearGradient><linearGradient id="d" x1="24" x2="24" y1="7.347" y2="43" gradientTransform="matrix(1.0541 0 0 .21622 -1.2973 8.3108)" gradientUnits="userSpaceOnUse"><stop offset="0" stop-color="#fff"/><stop offset=".084" stop-color="#fff" stop-opacity=".235"/><stop offset=".951" stop-color="#fff" stop-opacity=".157"/><stop offset="1" stop-color="#fff" stop-opacity=".392"/></linearGradient></defs><rect width="2" height="12" x="-4" y="-48" fill="url(#a)" opacity=".4" transform="scale(-1)"/><rect width="40.115" height="12" x="4" y="36" fill="url(#c)" opacity=".4"/><rect width="2" height="12" x="44" y="-48" fill="url(#b)" opacity=".4" transform="scale(1,-1)"/><path fill="url(#f)" stroke="url(#e)" stroke-linecap="round" stroke-width=".994" d="m9.0107 8.5h29.498c1.722 0 2.4969-0.28655 2.9916 1l3.001 8v25.674c0 1.5533 0.10293 1.316-1.6191 1.316h-37.765c-1.722 0-1.6191 0.23733-1.6191-1.316l-0.0006-25.674 3.0017-8c0.48083-1.2606 0.78873-1 2.5107-1z" display="block"/><path fill="none" stroke="url(#g)" stroke-width=".742" d="m9.9482 9.5129h27.653c1.6143 0 2.6134 0.55654 3.2895 2.086l2.3289 6.4197v23.145c0 1.4607-0.81876 2.1961-2.4331 2.1961h-33.733c-1.6143 0-2.2728-0.80883-2.2728-2.2695v-23.071l2.2538-6.5574c0.4511-1.186 1.2999-1.9491 2.9142-1.9491z" display="block" opacity=".505"/><path fill="none" stroke="url(#h)" stroke-linecap="round" stroke-linejoin="round" d="m43.5 43.5h-39v-26h39z" opacity=".3"/><path fill="none" stroke="url(#d)" stroke-linecap="round" stroke-linejoin="round" d="m4.5 17.5 3.2771-8h32.446l3.277 8" opacity=".2"/><g stroke="#000" stroke-linejoin="round" stroke-width="2" opacity=".05"><path d="m16.631 37-2.1698-6.1414h1.7523l1.0162 3.4991q0.09338 0.31311 0.1593 0.65369 0.07141 0.33508 0.08789 0.60425h0.03296q0.01648-0.29114 0.0824-0.61524 0.07141-0.32959 0.1648-0.6427l1.0107-3.4991h1.7578l-2.168 6.141h-1.725z" transform="translate(0 1.0001)"/><path d="m26.733 37h-1.6754v-3.587q0-0.66467-0.20874-0.99426-0.20325-0.33508-0.63171-0.33508-0.3241 0-0.54382 0.13184-0.21973 0.13184-0.35156 0.39002-0.13184 0.25818-0.18677 0.63721t-0.05493 0.86792v2.8894h-1.6754v-8.5474h1.6754v1.7413q0 0.23071-0.01099 0.48889-0.01099 0.25269-0.02747 0.46692-0.02197 0.25269-0.03845 0.49438h0.08789q0.26916-0.4779 0.68665-0.68664 0.41748-0.21423 0.94482-0.21423 0.45593 0 0.82398 0.13184 0.37354 0.12634 0.63721 0.401t0.40649 0.70312q0.14282 0.42297 0.14282 1.0162v4.0045z" transform="translate(0 1.0001)"/><path d="m30.265 37.11q-0.47241 0-0.86243-0.20325t-0.67017-0.59876q-0.28015-0.401-0.43945-0.99426-0.15381-0.59326-0.15381-1.3733 0-0.79102 0.15381-1.3843 0.1593-0.59876 0.44495-0.99976 0.29114-0.40649 0.69214-0.60974t0.8844-0.20325q0.29663 0 0.54382 0.07141 0.24719 0.06592 0.44495 0.19226 0.19775 0.12085 0.35156 0.28564 0.1593 0.1593 0.28015 0.35156h0.05493q-0.03296-0.21423-0.06042-0.43396-0.02746-0.18677-0.04944-0.39551-0.01648-0.21423-0.01648-0.39551v-1.9666h1.6754v8.5474h-1.2799l-0.3241-0.79651h-0.07141q-0.11536 0.18677-0.26367 0.35706-0.14832 0.1648-0.34607 0.28564-0.19226 0.12085-0.43945 0.19226-0.2417 0.07141-0.54932 0.07141zm0.60974-1.3348q0.29663 0 0.50537-0.09888 0.20874-0.10437 0.33508-0.30762 0.13184-0.20874 0.19226-0.51636 0.06592-0.30762 0.07141-0.7196v-0.18127q0-0.44495-0.05493-0.79102t-0.18127-0.57678q-0.12634-0.23621-0.34058-0.35706-0.21423-0.12085-0.53833-0.12085-0.52734 0-0.77454 0.4779-0.24719 0.47241-0.24719 1.3788 0 0.90637 0.24719 1.3623 0.25269 0.45044 0.78552 0.45044z" transform="translate(0 1.0001)"/></g><g opacity=".15"><path d="m16.631 37-2.1698-6.1414h1.7523l1.0162 3.4991q0.09338 0.31311 0.1593 0.65369 0.07141 0.33508 0.08789 0.60425h0.03296q0.01648-0.29114 0.0824-0.61524 0.07141-0.32959 0.1648-0.6427l1.0107-3.4991h1.7578l-2.168 6.141h-1.725z" transform="translate(0 1.0001)"/><path d="m26.733 37h-1.6754v-3.587q0-0.66467-0.20874-0.99426-0.20325-0.33508-0.63171-0.33508-0.3241 0-0.54382 0.13184-0.21973 0.13184-0.35156 0.39002-0.13184 0.25818-0.18677 0.63721t-0.05493 0.86792v2.8894h-1.6754v-8.5474h1.6754v1.7413q0 0.23071-0.01099 0.48889-0.01099 0.25269-0.02747 0.46692-0.02197 0.25269-0.03845 0.49438h0.08789q0.26916-0.4779 0.68665-0.68664 0.41748-0.21423 0.94482-0.21423 0.45593 0 0.82398 0.13184 0.37354 0.12634 0.63721 0.401t0.40649 0.70312q0.14282 0.42297 0.14282 1.0162v4.0045z" transform="translate(0 1.0001)"/><path d="m30.265 37.11q-0.47241 0-0.86243-0.20325t-0.67017-0.59876q-0.28015-0.401-0.43945-0.99426-0.15381-0.59326-0.15381-1.3733 0-0.79102 0.15381-1.3843 0.1593-0.59876 0.44495-0.99976 0.29114-0.40649 0.69214-0.60974t0.8844-0.20325q0.29663 0 0.54382 0.07141 0.24719 0.06592 0.44495 0.19226 0.19775 0.12085 0.35156 0.28564 0.1593 0.1593 0.28015 0.35156h0.05493q-0.03296-0.21423-0.06042-0.43396-0.02746-0.18677-0.04944-0.39551-0.01648-0.21423-0.01648-0.39551v-1.9666h1.6754v8.5474h-1.2799l-0.3241-0.79651h-0.07141q-0.11536 0.18677-0.26367 0.35706-0.14832 0.1648-0.34607 0.28564-0.19226 0.12085-0.43945 0.19226-0.2417 0.07141-0.54932 0.07141zm0.60974-1.3348q0.29663 0 0.50537-0.09888 0.20874-0.10437 0.33508-0.30762 0.13184-0.20874 0.19226-0.51636 0.06592-0.30762 0.07141-0.7196v-0.18127q0-0.44495-0.05493-0.79102t-0.18127-0.57678q-0.12634-0.23621-0.34058-0.35706-0.21423-0.12085-0.53833-0.12085-0.52734 0-0.77454 0.4779-0.24719 0.47241-0.24719 1.3788 0 0.90637 0.24719 1.3623 0.25269 0.45044 0.78552 0.45044z" transform="translate(0 1.0001)"/></g><g fill="#fff"><path d="m16.631 37-2.1698-6.1414h1.7523l1.0162 3.4991q0.09338 0.31311 0.1593 0.65369 0.07141 0.33508 0.08789 0.60425h0.03296q0.01648-0.29114 0.0824-0.61524 0.07141-0.32959 0.1648-0.6427l1.0107-3.4991h1.7578l-2.168 6.141h-1.725z"/><path d="m26.733 37h-1.6754v-3.587q0-0.66467-0.20874-0.99426-0.20325-0.33508-0.63171-0.33508-0.3241 0-0.54382 0.13184-0.21973 0.13184-0.35156 0.39002-0.13184 0.25818-0.18677 0.63721t-0.05493 0.86792v2.8894h-1.6754v-8.5474h1.6754v1.7413q0 0.23071-0.01099 0.48889-0.01099 0.25269-0.02747 0.46692-0.02197 0.25269-0.03845 0.49438h0.08789q0.26916-0.4779 0.68665-0.68664 0.41748-0.21423 0.94482-0.21423 0.45593 0 0.82398 0.13184 0.37354 0.12634 0.63721 0.401t0.40649 0.70312q0.14282 0.42297 0.14282 1.0162v4.0045z"/><path d="m30.265 37.11q-0.47241 0-0.86243-0.20325t-0.67017-0.59876q-0.28015-0.401-0.43945-0.99426-0.15381-0.59326-0.15381-1.3733 0-0.79102 0.15381-1.3843 0.1593-0.59876 0.44495-0.99976 0.29114-0.40649 0.69214-0.60974t0.8844-0.20325q0.29663 0 0.54382 0.07141 0.24719 0.06592 0.44495 0.19226 0.19775 0.12085 0.35156 0.28564 0.1593 0.1593 0.28015 0.35156h0.05493q-0.03296-0.21423-0.06042-0.43396-0.02746-0.18677-0.04944-0.39551-0.01648-0.21423-0.01648-0.39551v-1.9666h1.6754v8.5474h-1.2799l-0.3241-0.79651h-0.07141q-0.11536 0.18677-0.26367 0.35706-0.14832 0.1648-0.34607 0.28564-0.19226 0.12085-0.43945 0.19226-0.2417 0.07141-0.54932 0.07141zm0.60974-1.3348q0.29663 0 0.50537-0.09888 0.20874-0.10437 0.33508-0.30762 0.13184-0.20874 0.19226-0.51636 0.06592-0.30762 0.07141-0.7196v-0.18127q0-0.44495-0.05493-0.79102t-0.18127-0.57678q-0.12634-0.23621-0.34058-0.35706-0.21423-0.12085-0.53833-0.12085-0.52734 0-0.77454 0.4779-0.24719 0.47241-0.24719 1.3788 0 0.90637 0.24719 1.3623 0.25269 0.45044 0.78552 0.45044z"/></g></svg>