<svg xmlns="http://www.w3.org/2000/svg" width="24" height="24" enable-background="new" version="1.1" viewBox="0 0 24 24"><g transform="translate(0 -1028.4)"><circle cx="12" cy="1040.4" r="6" fill="none" stroke="#fff" stroke-linecap="round" stroke-linejoin="round" stroke-width="2"/><path fill="#fff" d="m6 1031.4a3 3 0 0 0 -3 3 3 3 0 0 0 0.88867 2.1289c0.88843-1.8521 2.3882-3.3516 4.2402-4.2402a3 3 0 0 0 -2.1289 -0.9z"/><path fill="#fff" d="m18 1031.4a3 3 0 0 0 -2.1289 0.8887c1.852 0.8886 3.3518 2.3881 4.2402 4.2402a3 3 0 0 0 0.889 -2.1 3 3 0 0 0 -3 -3z"/><path fill="none" stroke="#fff" stroke-linecap="round" stroke-width="1.5" d="m12.003 1040.4-2.253-2.3"/><path fill="none" stroke="#fff" stroke-linecap="round" stroke-width="1.5" d="m13.25 1039.1-1.2462 1.2476"/><path fill="#fff" d="m6.2969 17.607a1.5 1.5 0 0 0 -0.2969 0.893 1.5 1.5 0 0 0 1.5 1.5 1.5 1.5 0 0 0 1.2617 -0.689 8 8 0 0 1 -2.4648 -1.704z" transform="translate(0 1028.4)"/><path fill="#fff" d="m17.701 17.604a8 8 0 0 1 -2.465 1.701 1.5 1.5 0 0 0 1.264 0.695 1.5 1.5 0 0 0 1.5 -1.5 1.5 1.5 0 0 0 -0.299 -0.896z" transform="translate(0 1028.4)"/></g></svg>