<svg xmlns="http://www.w3.org/2000/svg" width="24" height="24" version="1.1" viewBox="0 0 24 24"><g fill="#d33636"><path fill-rule="evenodd" d="m7 4a2.0002 2.0002 0 0 0 -1.9883 1.7793l-1 8.9997a2.0002 2.0002 0 0 0 1.9883 2.221h12a2.0002 2.0002 0 0 0 1.988 -2.221l-1-8.9997a2.0002 2.0002 0 0 0 -1.988 -1.7793h-10zm4.986 2a0.50005 0.50005 0 0 1 0.496 0.3477l0.87 2.7148h2.851a0.50005 0.50005 0 0 1 0.293 0.9063l-2.314 1.6662 0.88 2.711a0.50005 0.50005 0 0 1 -0.769 0.556l-2.301-1.683-2.3045 1.676a0.50005 0.50005 0 0 1 -0.7695 -0.563l0.8906-2.707-2.3047-1.6758a0.50005 0.50005 0 0 1 0.2949 -0.9043l2.8512 0.0137 0.881-2.7129a0.50005 0.50005 0 0 1 0.455 -0.3457z" color="#000" color-rendering="auto" image-rendering="auto" shape-rendering="auto" transform="translate(0 -1028.4) translate(0 1028.4)" style="text-decoration-color:#000;isolation:auto;mix-blend-mode:normal;solid-color:#000;block-progression:tb;text-decoration-line:none;text-decoration-style:solid;white-space:normal;text-indent:0;text-transform:none"/><path d="m4 17.203v0.547c0 1.212 1.0381 2.25 2.25 2.25h11.5c1.212 0 2.25-1.038 2.25-2.25v-0.547c-0.532 0.485-1.225 0.797-2 0.797h-12c-0.7746 0-1.4684-0.312-2-0.797z" color="#000" color-rendering="auto" image-rendering="auto" shape-rendering="auto" transform="translate(0 -1028.4) translate(0 1028.4)" style="text-decoration-color:#000;isolation:auto;mix-blend-mode:normal;solid-color:#000;block-progression:tb;text-decoration-line:none;text-decoration-style:solid;white-space:normal;text-indent:0;text-transform:none"/></g></svg>