<svg xmlns="http://www.w3.org/2000/svg" xmlns:svg="http://www.w3.org/2000/svg" xmlns:xlink="http://www.w3.org/1999/xlink" id="svg3250" width="24" height="24" version="1.1" viewBox="0 0 24 24"><defs id="defs3252"><linearGradient id="linearGradient3678"><stop id="stop3680" offset="0" stop-color="#fff" stop-opacity="1"/><stop id="stop3682" offset="1" stop-color="#e6e6e6" stop-opacity="1"/></linearGradient><linearGradient id="linearGradient3784" x1="341.317" x2="341.317" y1="267.607" y2="281.362" gradientUnits="userSpaceOnUse" xlink:href="#linearGradient3678"/><linearGradient id="linearGradient3084" x1="341.317" x2="341.317" y1="267.607" y2="281.362" gradientTransform="matrix(1.1034483,0,0,1.1034483,-34.724597,-28.209891)" gradientUnits="userSpaceOnUse" xlink:href="#linearGradient3678"/><linearGradient id="linearGradient3087" x1="341.317" x2="341.317" y1="267.607" y2="281.362" gradientTransform="matrix(1.1034483,0,0,1.1034483,-34.310807,-28.209891)" gradientUnits="userSpaceOnUse" xlink:href="#linearGradient3678"/><linearGradient id="linearGradient3090" x1="341.317" x2="341.317" y1="267.607" y2="281.362" gradientTransform="matrix(1.1034483,0,0,1.1034483,-33.897017,-28.209891)" gradientUnits="userSpaceOnUse" xlink:href="#linearGradient3678"/></defs><metadata id="metadata3255"/><g id="layer1" transform="translate(-331.85715,-259.36218)"><path id="path4158-9" fill="#fff" fill-opacity="1" stroke="none" stroke-width=".586" d="m 342.26299,263.36218 c -3.47812,0 -7.40589,2.05749 -7.40589,5.72571 0,4.41821 0.7125,10.27429 7.40589,10.27429 6.69339,0 7.407,-5.85608 7.407,-10.27429 0,-3.66822 -3.92888,-5.72571 -7.407,-5.72571 z m 0,2.03109 a 5.4826425,3.8444383 0 0 1 5.48251,3.84453 5.4826425,3.8444383 0 0 1 -5.48251,3.84453 5.4826425,3.8444383 0 0 1 -5.48251,-3.84453 5.4826425,3.8444383 0 0 1 5.48251,-3.84453 z" opacity="1"/><path id="path4171" fill="#fff" fill-opacity="1" fill-rule="evenodd" stroke="none" stroke-dasharray="none" stroke-dashoffset="0" stroke-linecap="butt" stroke-linejoin="miter" stroke-miterlimit="4" stroke-opacity="1" stroke-width="2" d="m 348.83784,268.98254 0,2 c 1.25991,0 1.77413,0.32598 1.92188,0.51367 0.14775,0.18769 0.18245,0.43931 -0.041,0.9375 -0.44694,0.99638 -2.05966,2.26758 -3.63086,2.26758 l 0,2 c 2.5062,0 4.62142,-1.58635 5.45703,-3.44922 0.41781,-0.93143 0.48146,-2.10961 -0.21484,-2.99414 -0.69631,-0.88453 -1.89831,-1.27539 -3.49219,-1.27539 z" baseline-shift="baseline" clip-rule="nonzero" color="#000" color-interpolation="sRGB" color-interpolation-filters="linearRGB" color-rendering="auto" direction="ltr" display="inline" enable-background="accumulate" font-family="sans-serif" font-size="medium" font-stretch="normal" font-style="normal" font-variant="normal" font-weight="normal" image-rendering="auto" letter-spacing="normal" opacity="1" overflow="visible" shape-rendering="auto" text-anchor="start" text-decoration="none" text-rendering="auto" visibility="visible" word-spacing="normal" writing-mode="lr-tb" style="line-height:normal;text-indent:0;text-align:start;text-decoration-line:none;text-decoration-style:solid;text-decoration-color:#000;text-transform:none;block-progression:tb;white-space:normal;shape-padding:0;isolation:auto;mix-blend-mode:normal;solid-color:#000;solid-opacity:1"/><path id="path4279" fill="#fff" fill-opacity="1" fill-rule="nonzero" stroke="none" stroke-dasharray="none" stroke-dashoffset="0" stroke-linecap="butt" stroke-linejoin="miter" stroke-miterlimit="4" stroke-opacity="1" stroke-width="2" d="m 342.26367,266.89273 c 1.32451,2e-5 2.50637,0.38687 3.30274,0.94531 0.79637,0.55844 1.17971,1.22415 1.17968,1.90039 3e-5,0.67624 -0.38331,1.34 -1.17968,1.89844 -0.79637,0.55844 -1.97823,0.94529 -3.30274,0.94531 -1.32451,-2e-5 -2.50636,-0.38687 -3.30273,-0.94531 -0.79637,-0.55844 -1.17971,-1.2222 -1.17969,-1.89844 -2e-5,-0.67624 0.38332,-1.34195 1.17969,-1.90039 0.79637,-0.55844 1.97822,-0.94529 3.30273,-0.94531 z" baseline-shift="baseline" clip-rule="nonzero" color="#000" color-interpolation="sRGB" color-interpolation-filters="linearRGB" color-rendering="auto" direction="ltr" display="inline" enable-background="accumulate" font-family="sans-serif" font-size="medium" font-stretch="normal" font-style="normal" font-variant="normal" font-weight="normal" image-rendering="auto" letter-spacing="normal" opacity="1" overflow="visible" shape-rendering="auto" text-anchor="start" text-decoration="none" text-rendering="auto" visibility="visible" word-spacing="normal" writing-mode="lr-tb" style="line-height:normal;text-indent:0;text-align:start;text-decoration-line:none;text-decoration-style:solid;text-decoration-color:#000;text-transform:none;block-progression:tb;white-space:normal;shape-padding:0;isolation:auto;mix-blend-mode:normal;solid-color:#000;solid-opacity:1"/></g></svg>