<svg xmlns="http://www.w3.org/2000/svg" xmlns:svg="http://www.w3.org/2000/svg" id="svg11288" width="24" height="24" version="1.1" viewBox="0 0 24 24"><metadata id="metadata11293"/><g id="layer1" transform="translate(0,-1028.3622)"><path id="path11227" fill="#fff" fill-opacity="1" stroke="none" stroke-dasharray="none" stroke-miterlimit="4" stroke-opacity="1" stroke-width="1.5" d="m 13.322264,1031.4784 a 3.5137256,3.5 71.311255 0 1 4.441341,2.207 3.5137256,3.5 71.311255 0 1 -2.189573,4.4499 3.5137256,3.5 71.311255 0 1 -4.44134,-2.207 3.5137256,3.5 71.311255 0 1 2.189572,-4.4499 z m 0.643353,1.902 a 1.5058823,1.4999999 71.311255 0 0 -0.938379,1.9071 1.5058823,1.4999999 71.311255 0 0 1.903441,0.9458 1.5058823,1.4999999 71.311255 0 0 0.938379,-1.9071 1.5058823,1.4999999 71.311255 0 0 -1.903441,-0.9458 z" opacity="1"/><path id="path11229" fill="#fff" fill-opacity="1" fill-rule="evenodd" stroke="none" stroke-linecap="butt" stroke-linejoin="miter" stroke-opacity="1" stroke-width="1" d="m 13.02314,1036.5432 1.671663,0.9312 -5.6092824,12.3277 c 0,0 -2.6276067,-1.1649 -2.0777211,-4.0394 0.5499177,-2.8744 6.0153405,-9.2195 6.0153405,-9.2195 z m -1.36698,2.4931 a 1.0039215,0.99999994 71.311255 0 0 -0.625597,1.2714 1.0039215,0.99999994 71.311255 0 0 1.26895,0.6305 1.0039215,0.99999994 71.311255 0 0 0.625597,-1.2714 1.0039215,0.99999994 71.311255 0 0 -1.26895,-0.6305 z"/><g id="g11221" transform="matrix(0.94727324,0.32042692,-0.32042692,0.94727324,333.85126,50.985915)"><path id="path11879" fill="#fff" fill-opacity="1" stroke="none" stroke-dasharray="none" stroke-miterlimit="4" stroke-opacity="1" stroke-width="1.5" d="M 9.6035156 2.9335938 A 3.4999998 3.5137254 18.688745 0 0 6.1914062 5.3222656 A 3.4999998 3.5137254 18.688745 0 0 8.3808594 9.7734375 A 3.4999998 3.5137254 18.688745 0 0 9.640625 9.9492188 L 9.8925781 10.505859 C 11.144737 8.8593381 12.265625 7.5292969 12.265625 7.5292969 L 12.796875 6.9121094 L 12.958984 7.0019531 A 3.4999998 3.5137254 18.688745 0 0 10.632812 3.1171875 A 3.4999998 3.5137254 18.688745 0 0 9.6035156 2.9335938 z M 9.4414062 4.9414062 A 1.4999998 1.5058822 18.688745 0 1 9.9902344 5.0175781 A 1.4999998 1.5058822 18.688745 0 1 10.927734 6.9257812 A 1.4999998 1.5058822 18.688745 0 1 9.0234375 7.8710938 A 1.4999998 1.5058822 18.688745 0 1 8.0859375 5.9648438 A 1.4999998 1.5058822 18.688745 0 1 9.4414062 4.9414062 z M 14.265625 12.470703 L 12.527344 16.291016 L 14.869141 21.439453 C 14.869141 21.439453 17.497151 20.27485 16.947266 17.400391 C 16.704536 16.131668 15.517919 14.231426 14.265625 12.470703 z" opacity="1" transform="matrix(0.94727329,-0.32042694,0.32042694,0.94727329,-3.070692,1032.8173)"/></g></g></svg>