<svg xmlns="http://www.w3.org/2000/svg" xmlns:svg="http://www.w3.org/2000/svg" id="svg11288" width="24" height="24" version="1.1" viewBox="0 0 24 24"><metadata id="metadata11293"/><g id="layer1" transform="translate(0,-1028.3622)"><path id="path11879" fill="#fff" fill-opacity="1" stroke="none" stroke-dasharray="none" stroke-miterlimit="4" stroke-opacity="1" stroke-width="1.5" d="M 8 4 A 3.5 3.5 0 0 0 4.5 7.5 A 3.5 3.5 0 0 0 8 11 A 3.5 3.5 0 0 0 11.5 7.5 A 3.5 3.5 0 0 0 8 4 z M 8 6 A 1.4999999 1.4999999 0 0 1 9.5 7.5 A 1.4999999 1.4999999 0 0 1 8 9 A 1.4999999 1.4999999 0 0 1 6.5 7.5 A 1.4999999 1.4999999 0 0 1 8 6 z" opacity="1" transform="translate(0,1028.3622)"/><path id="path11884" fill="#fff" fill-opacity="1" stroke="none" stroke-dasharray="none" stroke-miterlimit="4" stroke-opacity="1" stroke-width="1.5" d="m 16,1032.3622 a 3.5,3.5 0 0 0 -3.5,3.5 3.5,3.5 0 0 0 3.5,3.5 3.5,3.5 0 0 0 3.5,-3.5 3.5,3.5 0 0 0 -3.5,-3.5 z m 0,2 a 1.4999999,1.4999999 0 0 1 1.5,1.5 1.4999999,1.4999999 0 0 1 -1.5,1.5 1.4999999,1.4999999 0 0 1 -1.5,-1.5 1.4999999,1.4999999 0 0 1 1.5,-1.5 z" opacity="1"/><path id="path11890" fill="#fff" fill-opacity="1" fill-rule="evenodd" stroke="none" stroke-linecap="butt" stroke-linejoin="miter" stroke-opacity="1" stroke-width="1" d="M 14.09375 8.6835938 C 14.09375 8.6835938 13.62145 8.9618899 12.90625 9.4101562 C 13.365939 9.7108148 13.751516 9.9482644 14.261719 10.302734 C 14.444282 10.429563 14.628161 10.565591 14.8125 10.695312 L 15.376953 10.095703 L 14.09375 8.6835938 z M 9.0605469 12.023438 C 7.4873062 13.192973 6.0101272 14.458949 5.4394531 15.462891 C 3.9975072 17.99959 6.1132813 19.9375 6.1132812 19.9375 L 11.3125 14.414062 L 9.0605469 12.023438 z" transform="translate(0,1028.3622)"/><path id="path11886" fill="#fff" fill-opacity="1" fill-rule="evenodd" stroke="none" stroke-linecap="butt" stroke-linejoin="miter" stroke-opacity="1" stroke-width="1" d="M 9.90625 8.6835938 L 8.6210938 10.095703 L 17.884766 19.9375 C 17.884766 19.9375 20.00054 17.99959 18.558594 15.462891 C 17.116648 12.926191 9.90625 8.6835938 9.90625 8.6835938 z M 12 10.599609 A 0.99999994 0.99999994 0 0 1 13 11.599609 A 0.99999994 0.99999994 0 0 1 12 12.599609 A 0.99999994 0.99999994 0 0 1 11 11.599609 A 0.99999994 0.99999994 0 0 1 12 10.599609 z" transform="translate(0,1028.3622)"/></g></svg>