<svg xmlns="http://www.w3.org/2000/svg" xmlns:svg="http://www.w3.org/2000/svg" id="svg7384" width="24" height="24" version="1.1" viewBox="0 0 24 24"><metadata id="metadata90"/><title id="title9167">elementary Symbolic Icon Theme</title><defs id="defs7386"><filter id="filter7554" color-interpolation-filters="sRGB"><feBlend id="feBlend7556" in2="BackgroundImage" mode="darken"/></filter><filter id="filter7554-7" color-interpolation-filters="sRGB"><feBlend id="feBlend7556-6" in2="BackgroundImage" mode="darken"/></filter></defs><g id="layer12" display="inline" transform="translate(-373.0006,20)"><path id="path4156" fill="#fff" fill-opacity="1" fill-rule="nonzero" stroke="none" stroke-dasharray="none" stroke-dashoffset="0" stroke-linecap="butt" stroke-linejoin="miter" stroke-miterlimit="4" stroke-opacity="1" stroke-width="1.737" d="m 382.9709,-16.001392 c -3.28772,0 -5.97266,2.682982 -5.97266,5.970703 0,3.2877222 2.68494,5.9726572 5.97266,5.9726572 1.28385,0 2.4716,-0.414518 3.44727,-1.109375 l 4.86328,4.861328 a 1.0000999,1.0000999 0 1 0 1.41406,-1.414063 l -4.86328,-4.861328 c 0.69491,-0.976205 1.10937,-2.164952 1.10937,-3.4492192 0,-3.287721 -2.68298,-5.970703 -5.9707,-5.970703 z m 0,1.736328 c 2.34904,0 4.23438,1.885339 4.23438,4.234375 0,2.3490372 -1.88534,4.2343752 -4.23438,4.2343752 -2.34904,0 -4.23437,-1.885338 -4.23437,-4.2343752 0,-2.349036 1.88533,-4.234375 4.23437,-4.234375 z" baseline-shift="baseline" clip-rule="nonzero" color="#000" color-interpolation="sRGB" color-interpolation-filters="linearRGB" color-rendering="auto" direction="ltr" display="inline" enable-background="accumulate" font-family="sans-serif" font-size="medium" font-stretch="normal" font-style="normal" font-variant="normal" font-weight="normal" image-rendering="auto" letter-spacing="normal" opacity="1" overflow="visible" shape-rendering="auto" text-anchor="start" text-decoration="none" text-rendering="auto" visibility="visible" word-spacing="normal" writing-mode="lr-tb" style="line-height:normal;text-indent:0;text-align:start;text-decoration-line:none;text-decoration-style:solid;text-decoration-color:#000;text-transform:none;block-progression:tb;white-space:normal;shape-padding:0;isolation:auto;mix-blend-mode:normal;solid-color:#000;solid-opacity:1"/></g></svg>