<svg xmlns="http://www.w3.org/2000/svg" width="24" height="24" version="1.1" viewBox="0 0 24 24"><g fill="#fff"><path fill-rule="evenodd" d="m18.457 1032.4a1.498 1.4982 0 0 0 -1.0297 0.4527l-0.64554 0.6455 2.118 2.1183 0.64554-0.6436a1.498 1.4982 0 0 0 -1.0882 -2.5729zm-2.3813 1.8044l-7.076 7v2.1183h2.1199l7.0736-7.0766-2.118-2.1183z" color="#000" color-rendering="auto" image-rendering="auto" shape-rendering="auto" transform="translate(0 -1028.4)" style="text-decoration-color:#000;isolation:auto;mix-blend-mode:normal;solid-color:#000;block-progression:tb;text-decoration-line:none;text-decoration-style:solid;white-space:normal;text-indent:0;text-transform:none"/><path d="m7 1033.4c-1.6447 0-3 1.3553-3 3v9c0 1.6447 1.3553 3 3 3h9c1.6447 0 3-1.3553 3-3v-8.4687l-2 2.0019v6.4668c0 0.5713-0.4287 1-1 1h-9c-0.5713 0-1-0.4287-1-1v-9c0-0.5713 0.4287-1 1-1h6.4668l1.9004-1.9004h0.002l0.09961-0.1h-8.4688z" color="#000" color-rendering="auto" image-rendering="auto" shape-rendering="auto" transform="translate(0 -1028.4)" style="text-decoration-color:#000;isolation:auto;mix-blend-mode:normal;solid-color:#000;block-progression:tb;text-decoration-line:none;text-decoration-style:solid;white-space:normal;text-indent:0;text-transform:none"/></g></svg>