<svg xmlns="http://www.w3.org/2000/svg" width="24" height="24" version="1.1" viewBox="0 0 24 24"><g fill="none" stroke="#fff" stroke-linecap="round"><path stroke-width="1.5" d="m9 1042c2 1.523 4 1.5074 6 0" transform="translate(0 -1028.4)"/><path stroke-linejoin="round" stroke-width="2" d="m12 5a7 6.5 0 0 0 -7 6.5 7 6.5 0 0 0 7 6.5 7 6.5 0 0 0 2.006 -0.277c1.232 0.854 2.528 1.541 3.994 1.277-0.658-0.696-1.286-1.418-1.217-2.76a7 6.5 0 0 0 2.217 -4.74 7 6.5 0 0 0 -7 -6.5z" transform="translate(0 -1028.4) translate(0 1028.4)"/></g></svg>