<svg xmlns="http://www.w3.org/2000/svg" width="24" height="24" version="1.1" viewBox="0 0 24 24"><g transform="translate(0 -1028.4)"><path fill="none" stroke="#fff" stroke-linecap="round" stroke-linejoin="round" stroke-width="2" d="m12 5c-1.108 0-2 0.892-2 2v6.77a3 3 0 0 0 -1 2.23 3 3 0 0 0 3 3 3 3 0 0 0 3 -3 3 3 0 0 0 -1 -2.232v-6.768c0-1.108-0.892-2-2-2z" transform="translate(0 1028.4)"/><rect width="4" height="2" x="14" y="1038.4" fill="#fff" rx="1" ry="1"/><rect width="4" height="2" x="14" y="1035.4" fill="#fff" rx="1" ry="1"/></g></svg>