<svg xmlns="http://www.w3.org/2000/svg" xmlns:svg="http://www.w3.org/2000/svg" id="svg2" width="24" height="24" version="1.1" viewBox="0 0 6.35 6.35"><metadata id="metadata7"/><g id="layer1" transform="translate(0,-290.64998)"><g id="g4176" transform="translate(5.8536479,-0.67818956)"><path id="path4181" fill="#fff" fill-opacity="1" fill-rule="nonzero" stroke="none" stroke-dasharray="none" stroke-dashoffset="0" stroke-linecap="butt" stroke-linejoin="round" stroke-miterlimit="4" stroke-opacity="1" stroke-width="1.999" d="m -10.128906,6.0546875 c -3.301698,0 -5.992196,2.7002712 -5.992188,6.0019535 3.97e-4,1.950762 0.884287,3.811576 2.494141,4.933593 l 0,0 0,0.04883 c 2.8e-5,1.779742 1.685138,2.996094 3.498047,2.996094 1.8127077,0 3.5077843,-1.216012 3.5078122,-2.996094 l 0,-0.05469 0,0 c 1.6104016,-1.120337 2.4921515,-2.978469 2.4941407,-4.927734 8.7e-6,-3.3016445 -2.7002543,-6.0019535 -6.0019529,-6.0019535 z M -12.025391,11.5 c 0.561453,-0.0065 1.018333,0.45027 1.011719,1.011719 0,0.319294 0.166819,0.608082 0.44336,0.767578 0.276537,0.159496 0.6160372,0.159496 0.8925776,0 0.2765382,-0.159647 0.4433602,-0.448208 0.4433594,-0.767578 0.028934,-1.304088 1.9710866,-1.304088 2,0 0,1.030639 -0.5547018,1.986614 -1.4472656,2.501953 -0.1421178,0.08202 -0.2903953,0.147188 -0.4414063,0.203125 l 0,2.539062 c -0.252529,0.164218 -0.5836194,0.28711 -1.0058591,0.28711 -0.420032,0 -0.745509,-0.122308 -0.996094,-0.285157 l 0,-2.541015 c -0.151452,-0.05594 -0.298895,-0.120731 -0.441406,-0.203125 -0.892566,-0.515339 -1.447266,-1.471314 -1.447266,-2.501953 -0.0065,-0.552303 0.436004,-1.00416 0.988281,-1.011719 z" baseline-shift="baseline" clip-rule="nonzero" color="#000" color-interpolation="sRGB" color-interpolation-filters="linearRGB" color-rendering="auto" direction="ltr" display="inline" enable-background="accumulate" font-family="sans-serif" font-size="medium" font-stretch="normal" font-style="normal" font-variant="normal" font-weight="normal" image-rendering="auto" letter-spacing="normal" opacity="1" overflow="visible" shape-rendering="auto" text-anchor="start" text-decoration="none" text-rendering="auto" transform="matrix(0.26458333,0,0,0.26458333,0,290.64998)" visibility="visible" word-spacing="normal" writing-mode="lr-tb" style="line-height:normal;text-indent:0;text-align:start;text-decoration-line:none;text-decoration-style:solid;text-decoration-color:#000;text-transform:none;block-progression:tb;white-space:normal;shape-padding:0;isolation:auto;mix-blend-mode:normal;solid-color:#000;solid-opacity:1"/><path id="path4185" fill="#fff" fill-opacity="1" stroke="none" stroke-dasharray="none" stroke-linecap="butt" stroke-linejoin="miter" stroke-miterlimit="4" stroke-opacity="1" stroke-width=".529" d="m -3.2080539,296.22323 a 0.52916663,0.52916669 0 0 0 0,0.002 0.52916663,0.52916669 0 0 0 0.529166,0.52916 0.52916663,0.52916669 0 0 0 0.529167,-0.52916 0.52916663,0.52916669 0 0 0 0,-0.002 l -1.058333,0 z" opacity="1"/></g></g></svg>