<svg xmlns="http://www.w3.org/2000/svg" width="24" height="24" version="1.1" viewBox="0 0 24 24"><g fill="#fff"><path fill-rule="evenodd" d="m7 4a2.0002 2.0002 0 0 0 -1.9883 1.7793l-1 8.9997a2.0002 2.0002 0 0 0 1.9883 2.221h12a2.0002 2.0002 0 0 0 1.988 -2.221l-1-8.9997a2.0002 2.0002 0 0 0 -1.988 -1.7793h-10zm4 2h2v4h3l-4 5.121-4-5.121h3v-4z" color="#000" color-rendering="auto" image-rendering="auto" shape-rendering="auto" transform="translate(0 -1028.4) translate(0 1028.4)" style="text-decoration-color:#000;isolation:auto;mix-blend-mode:normal;solid-color:#000;block-progression:tb;text-decoration-line:none;text-decoration-style:solid;white-space:normal;text-indent:0;text-transform:none"/><path d="m4 17.203v0.547c0 1.212 1.0381 2.25 2.25 2.25h11.5c1.212 0 2.25-1.038 2.25-2.25v-0.547c-0.532 0.485-1.225 0.797-2 0.797h-12c-0.7746 0-1.4684-0.312-2-0.797z" color="#000" color-rendering="auto" image-rendering="auto" shape-rendering="auto" transform="translate(0 -1028.4) translate(0 1028.4)" style="text-decoration-color:#000;isolation:auto;mix-blend-mode:normal;solid-color:#000;block-progression:tb;text-decoration-line:none;text-decoration-style:solid;white-space:normal;text-indent:0;text-transform:none"/></g></svg>