<svg xmlns="http://www.w3.org/2000/svg" xmlns:svg="http://www.w3.org/2000/svg" id="svg11197" width="24" height="24" version="1.1" viewBox="0 0 24 24"><metadata id="metadata11202"/><g id="layer1" transform="translate(0,-1028.3622)"><path id="rect11755" fill="#fff" fill-opacity="1" stroke="none" stroke-dasharray="none" stroke-miterlimit="4" stroke-opacity="1" stroke-width="2" d="M 6 4 C 4.892 4 4 4.892 4 6 L 4 18 C 4 19.108 4.892 20 6 20 L 18 20 C 19.108 20 20 19.108 20 18 L 20 8.2304688 A 3 3 0 0 1 18 9 A 3 3 0 0 1 15.589844 7.78125 L 14.279297 10.054688 A 3 3 0 0 1 14.826172 11 L 18 11 L 18 13 L 14.824219 13 A 3 3 0 0 1 14.28125 13.949219 L 15.865234 16.695312 L 14.134766 17.695312 L 12.548828 14.947266 A 3 3 0 0 1 12 15 A 3 3 0 0 1 11.453125 14.947266 L 9.8652344 17.695312 L 8.1347656 16.695312 L 9.7207031 13.945312 A 3 3 0 0 1 9.1738281 13 L 6 13 L 6 11 L 9.1757812 11 A 3 3 0 0 1 9.71875 10.050781 L 8.1347656 7.3046875 L 9.8652344 6.3046875 L 11.451172 9.0527344 A 3 3 0 0 1 12 9 A 3 3 0 0 1 12.546875 9.0527344 L 14.134766 6.3046875 L 15.136719 6.8828125 A 3 3 0 0 1 15 6 A 3 3 0 0 1 15.767578 4 L 6 4 z M 12 10 A 2 2 0 0 0 10 12 A 2 2 0 0 0 12 14 A 2 2 0 0 0 14 12 A 2 2 0 0 0 12 10 z" opacity="1" transform="translate(0,1028.3622)"/><path id="path3009" fill="#009dff" fill-opacity="1" fill-rule="nonzero" stroke="none" stroke-width="1" d="m 20,1034.3628 a 2.0000001,2.0000001 0 0 1 -4,0 2.0000001,2.0000001 0 1 1 4,0 z" color="#000" display="inline" enable-background="accumulate" overflow="visible" visibility="visible" style="marker:none"/></g></svg>