<svg xmlns="http://www.w3.org/2000/svg" xmlns:xlink="http://www.w3.org/1999/xlink" width="24" height="24" version="1.1" viewBox="0 0 6.35 6.35"><g><path fill="#fff" d="m11.5 5a5.5 5.5 0 0 0 -5.5 5.5 5.5 5.5 0 0 0 0.2148 1.512 3 3 0 0 0 -0.2148 -0.012 3 3 0 0 0 -3 3 3 3 0 0 0 3 3h11a4 4 0 0 0 4 -4 4 4 0 0 0 -4 -4 4 4 0 0 0 -0.027 0 5.5 5.5 0 0 0 -0.291 -1.3086 3 3 0 0 1 -1.666 -2.4121 5.5 5.5 0 0 0 -3.516 -1.2793z" transform="translate(0 -290.65) matrix(.26458 0 0 .26458 -2.5233e-7 290.65)"/><path fill="#009dff" d="m5.2917 292.24a0.52917 0.52917 0 0 1 -1.0583 0 0.52917 0.52917 0 1 1 1.0583 0z" color="#000" opacity=".99" transform="translate(0 -290.65)"/></g></svg>