<svg xmlns="http://www.w3.org/2000/svg" width="24" height="24" version="1.1" viewBox="0 0 24 24"><g><path fill="none" stroke="#fff" stroke-linecap="round" stroke-width="1.5" d="m10.75 1033.1-3.75 11.3" transform="translate(0 -1028.4)"/><path fill="none" stroke="#fff" stroke-linecap="round" stroke-width="1.5" d="m13.25 1033.1 3.75 11.25" transform="translate(0 -1028.4)"/><path fill="none" stroke="#fff" stroke-linecap="round" stroke-width="2" d="m11 1033.4h2" transform="translate(0 -1028.4)"/><path fill="none" stroke="#fff" stroke-linecap="round" stroke-width="2" d="m17 1044.4c-1.9709 2.7089-7.9696 2.6959-10 0" transform="translate(0 -1028.4)"/><path fill="#fff" d="m9.0528 1036.4-1.0508 4.3s0.998 1.6758 3.998 1.6758c2 0 3.998-1.6758 3.998-1.6758l-1.0508-4.3242s-0.94723 1-2.9472 1-2.9472-1-2.9472-1z" color="#000" color-rendering="auto" image-rendering="auto" shape-rendering="auto" transform="translate(0 -1028.4)" style="text-decoration-color:#000;isolation:auto;mix-blend-mode:normal;solid-color:#000;block-progression:tb;text-decoration-line:none;text-decoration-style:solid;white-space:normal;text-indent:0;text-transform:none"/><path fill="#fff" fill-rule="evenodd" stroke="#fff" stroke-linejoin="round" stroke-width="2" d="m7 1042.4h-1l-1 5h14l-1-5h-1v2.5l-2 1.5h-6l-2-1.5z" transform="translate(0 -1028.4)"/></g></svg>