<svg xmlns="http://www.w3.org/2000/svg" xmlns:xlink="http://www.w3.org/1999/xlink" width="64" height="64" version="1.1"><defs><radialGradient id="b" cx="5" cy="41.5" r="5" gradientTransform="matrix(.53494 0 0 1.6 -7.8516 -121.4)" gradientUnits="userSpaceOnUse"><stop offset="0"/><stop offset="1" stop-opacity="0"/></radialGradient><linearGradient id="c" x1="17.554" x2="17.554" y1="46" y2="35" gradientTransform="matrix(2.3255 0 0 1.4545 -22.729 -3.9092)" gradientUnits="userSpaceOnUse"><stop offset="0" stop-opacity="0"/><stop offset=".5"/><stop offset="1" stop-opacity="0"/></linearGradient><radialGradient id="a" cx="5" cy="41.5" r="5" gradientTransform="matrix(.53494 0 0 1.6 55.836 -121.4)" gradientUnits="userSpaceOnUse"><stop offset="0"/><stop offset="1" stop-opacity="0"/></radialGradient><linearGradient id="f" x1="24.823" x2="24.997" y1="15.378" y2="37.277" gradientTransform="matrix(1.72 0 0 2.0749 -8.3274 -20.165)" gradientUnits="userSpaceOnUse"><stop offset="0" stop-color="#6d63fe"/><stop offset=".239" stop-color="#5041eb"/><stop offset=".276" stop-color="#6d63fe"/><stop offset="1" stop-color="#5041eb"/></linearGradient><linearGradient id="e" x1="15.464" x2="15.464" y1="7.976" y2="45.042" gradientTransform="matrix(1.3414 0 0 1.3324 -.18472 .20813)" gradientUnits="userSpaceOnUse"><stop offset="0" stop-color="#5041eb"/><stop offset=".239" stop-color="#3829a4"/><stop offset=".276" stop-color="#5041eb"/><stop offset="1" stop-color="#3829a4"/></linearGradient><linearGradient id="g" x1="23.452" x2="43.007" y1="30.555" y2="45.934" gradientTransform="matrix(1.7096 0 0 1.5663 -8.2501 -6.9145)" gradientUnits="userSpaceOnUse"><stop offset="0" stop-color="#fff" stop-opacity="0"/><stop offset="1" stop-color="#fff" stop-opacity="0"/></linearGradient><linearGradient id="h" x1="24" x2="24" y1="5.564" y2="43" gradientTransform="matrix(1.4324 0 0 .94595 -2.3784 18.297)" gradientUnits="userSpaceOnUse"><stop offset="0" stop-color="#fff"/><stop offset=".036" stop-color="#fff" stop-opacity=".235"/><stop offset=".951" stop-color="#fff" stop-opacity=".157"/><stop offset="1" stop-color="#fff" stop-opacity=".392"/></linearGradient><linearGradient id="d" x1="24" x2="24" y1="7.347" y2="43" gradientTransform="matrix(1.4324 0 0 .29730 -2.3784 10.865)" gradientUnits="userSpaceOnUse"><stop offset="0" stop-color="#fff"/><stop offset=".084" stop-color="#fff" stop-opacity=".235"/><stop offset=".951" stop-color="#fff" stop-opacity=".157"/><stop offset="1" stop-color="#fff" stop-opacity=".392"/></linearGradient></defs><rect width="2.667" height="16" x="-5.177" y="-63" fill="url(#b)" opacity=".4" transform="scale(-1)"/><rect width="53.487" height="16" x="5.177" y="47" fill="url(#c)" opacity=".4"/><rect width="2.667" height="16" x="58.51" y="-63" fill="url(#a)" opacity=".4" transform="scale(1,-1)"/><path fill="url(#f)" stroke="url(#e)" stroke-linecap="round" stroke-width=".994" d="m11.902 11.533h39.569c2.3099 0 3.3494-0.38179 4.0129 1.3324l4.0266 10.659v34.207c0 2.0696 0.13807 1.7534-2.1718 1.7534h-50.659c-2.3099 0-2.1718 0.31621-2.1718-1.7534v-34.207l4.0266-10.659c0.64499-1.6795 1.058-1.3324 3.3679-1.3324z" display="block"/><path fill="none" stroke="url(#g)" stroke-width=".742" d="m13.108 12.84h36.871c2.1524 0 3.4845 0.74205 4.386 2.7814l3.1053 8.5596v30.859c0 1.9476-1.0917 2.9281-3.2441 2.9281h-44.978c-2.1524 0-3.0304-1.0784-3.0304-3.026v-30.762l3.0051-8.7432c0.60102-1.5805 1.7328-2.5979 3.8852-2.5979z" display="block" opacity=".505"/><path fill="none" stroke="url(#h)" stroke-linecap="round" stroke-linejoin="round" d="m58.5 58.5h-53v-35h53z" opacity=".3"/><path fill="none" stroke="url(#d)" stroke-linecap="round" stroke-linejoin="round" d="m5.5 23.5 4.4535-11h44.093l4.4535 11" opacity=".2"/><g stroke="#000" stroke-linejoin="round" stroke-width="2" opacity=".05"><path d="m23.003 49-2.652-7.5061h2.1417l1.2421 4.2767q0.11414 0.38269 0.1947 0.79895 0.08728 0.40955 0.10742 0.73852h0.04028q0.02014-0.35583 0.10071-0.75195 0.08728-0.40283 0.20142-0.78552l1.2354-4.2767h2.1484l-2.652 7.507h-2.108z" transform="translate(0 .99972)"/><path d="m35.349 49h-2.0477v-4.3842q0-0.81238-0.25513-1.2152-0.24841-0.40955-0.7721-0.40955-0.39612 0-0.66467 0.16113-0.26856 0.16113-0.42969 0.47668t-0.22827 0.77881-0.06714 1.0608v3.5315h-2.0477v-10.447h2.0477v2.1283q0 0.28198-0.01343 0.59753-0.01343 0.30884-0.03357 0.57068-0.02686 0.30884-0.047 0.60425h0.10742q0.32898-0.58411 0.83923-0.83923 0.51025-0.26184 1.1548-0.26184 0.55725 0 1.0071 0.16113 0.45654 0.15442 0.77881 0.49011 0.32226 0.33569 0.49683 0.85938 0.17456 0.51697 0.17456 1.2421v4.8944z" transform="translate(0 .99972)"/><path d="m39.666 49.134q-0.57739 0-1.0541-0.24841-0.47668-0.24841-0.81909-0.73181-0.34241-0.49011-0.53711-1.2152-0.18799-0.7251-0.18799-1.6785 0-0.9668 0.18799-1.6919 0.1947-0.73181 0.54382-1.2219 0.35584-0.49683 0.84595-0.74524t1.0809-0.24841q0.36255 0 0.66467 0.08728 0.30212 0.08057 0.54382 0.23498 0.2417 0.1477 0.42969 0.34912 0.1947 0.1947 0.34241 0.42969h0.06714q-0.04028-0.26184-0.07385-0.5304-0.03357-0.22827-0.06042-0.4834-0.02014-0.26184-0.02014-0.4834v-2.4036h2.0477v10.447h-1.5643l-0.39612-0.97351h-0.08728q-0.14099 0.22827-0.32227 0.4364-0.18128 0.20142-0.42297 0.34912-0.23498 0.1477-0.53711 0.23498-0.29541 0.08728-0.67139 0.08728zm0.74524-1.6315q0.36255 0 0.61768-0.12085 0.25513-0.12756 0.40955-0.37598 0.16113-0.25513 0.23498-0.6311 0.08057-0.37598 0.08728-0.87952v-0.22156q0-0.54382-0.06714-0.9668-0.06714-0.42297-0.22156-0.70496-0.15442-0.2887-0.41626-0.4364t-0.65796-0.1477q-0.64453 0-0.94666 0.58411-0.30212 0.57739-0.30212 1.6852t0.30212 1.665q0.30884 0.55054 0.96008 0.55054z" transform="translate(0 .99972)"/></g><g opacity=".15"><path d="m23.003 49-2.652-7.5061h2.1417l1.2421 4.2767q0.11414 0.38269 0.1947 0.79895 0.08728 0.40955 0.10742 0.73852h0.04028q0.02014-0.35583 0.10071-0.75195 0.08728-0.40283 0.20142-0.78552l1.2354-4.2767h2.1484l-2.652 7.507h-2.108z" transform="translate(0 .99972)"/><path d="m35.349 49h-2.0477v-4.3842q0-0.81238-0.25513-1.2152-0.24841-0.40955-0.7721-0.40955-0.39612 0-0.66467 0.16113-0.26856 0.16113-0.42969 0.47668t-0.22827 0.77881-0.06714 1.0608v3.5315h-2.0477v-10.447h2.0477v2.1283q0 0.28198-0.01343 0.59753-0.01343 0.30884-0.03357 0.57068-0.02686 0.30884-0.047 0.60425h0.10742q0.32898-0.58411 0.83923-0.83923 0.51025-0.26184 1.1548-0.26184 0.55725 0 1.0071 0.16113 0.45654 0.15442 0.77881 0.49011 0.32226 0.33569 0.49683 0.85938 0.17456 0.51697 0.17456 1.2421v4.8944z" transform="translate(0 .99972)"/><path d="m39.666 49.134q-0.57739 0-1.0541-0.24841-0.47668-0.24841-0.81909-0.73181-0.34241-0.49011-0.53711-1.2152-0.18799-0.7251-0.18799-1.6785 0-0.9668 0.18799-1.6919 0.1947-0.73181 0.54382-1.2219 0.35584-0.49683 0.84595-0.74524t1.0809-0.24841q0.36255 0 0.66467 0.08728 0.30212 0.08057 0.54382 0.23498 0.2417 0.1477 0.42969 0.34912 0.1947 0.1947 0.34241 0.42969h0.06714q-0.04028-0.26184-0.07385-0.5304-0.03357-0.22827-0.06042-0.4834-0.02014-0.26184-0.02014-0.4834v-2.4036h2.0477v10.447h-1.5643l-0.39612-0.97351h-0.08728q-0.14099 0.22827-0.32227 0.4364-0.18128 0.20142-0.42297 0.34912-0.23498 0.1477-0.53711 0.23498-0.29541 0.08728-0.67139 0.08728zm0.74524-1.6315q0.36255 0 0.61768-0.12085 0.25513-0.12756 0.40955-0.37598 0.16113-0.25513 0.23498-0.6311 0.08057-0.37598 0.08728-0.87952v-0.22156q0-0.54382-0.06714-0.9668-0.06714-0.42297-0.22156-0.70496-0.15442-0.2887-0.41626-0.4364t-0.65796-0.1477q-0.64453 0-0.94666 0.58411-0.30212 0.57739-0.30212 1.6852t0.30212 1.665q0.30884 0.55054 0.96008 0.55054z" transform="translate(0 .99972)"/></g><g fill="#fff"><path d="m23.003 49-2.652-7.5061h2.1417l1.2421 4.2767q0.11414 0.38269 0.1947 0.79895 0.08728 0.40955 0.10742 0.73852h0.04028q0.02014-0.35583 0.10071-0.75195 0.08728-0.40283 0.20142-0.78552l1.2354-4.2767h2.1484l-2.652 7.507h-2.108z"/><path d="m35.349 49h-2.0477v-4.3842q0-0.81238-0.25513-1.2152-0.24841-0.40955-0.7721-0.40955-0.39612 0-0.66467 0.16113-0.26856 0.16113-0.42969 0.47668t-0.22827 0.77881-0.06714 1.0608v3.5315h-2.0477v-10.447h2.0477v2.1283q0 0.28198-0.01343 0.59753-0.01343 0.30884-0.03357 0.57068-0.02686 0.30884-0.047 0.60425h0.10742q0.32898-0.58411 0.83923-0.83923 0.51025-0.26184 1.1548-0.26184 0.55725 0 1.0071 0.16113 0.45654 0.15442 0.77881 0.49011 0.32226 0.33569 0.49683 0.85938 0.17456 0.51697 0.17456 1.2421v4.8944z"/><path d="m39.666 49.134q-0.57739 0-1.0541-0.24841-0.47668-0.24841-0.81909-0.73181-0.34241-0.49011-0.53711-1.2152-0.18799-0.7251-0.18799-1.6785 0-0.9668 0.18799-1.6919 0.1947-0.73181 0.54382-1.2219 0.35584-0.49683 0.84595-0.74524t1.0809-0.24841q0.36255 0 0.66467 0.08728 0.30212 0.08057 0.54382 0.23498 0.2417 0.1477 0.42969 0.34912 0.1947 0.1947 0.34241 0.42969h0.06714q-0.04028-0.26184-0.07385-0.5304-0.03357-0.22827-0.06042-0.4834-0.02014-0.26184-0.02014-0.4834v-2.4036h2.0477v10.447h-1.5643l-0.39612-0.97351h-0.08728q-0.14099 0.22827-0.32227 0.4364-0.18128 0.20142-0.42297 0.34912-0.23498 0.1477-0.53711 0.23498-0.29541 0.08728-0.67139 0.08728zm0.74524-1.6315q0.36255 0 0.61768-0.12085 0.25513-0.12756 0.40955-0.37598 0.16113-0.25513 0.23498-0.6311 0.08057-0.37598 0.08728-0.87952v-0.22156q0-0.54382-0.06714-0.9668-0.06714-0.42297-0.22156-0.70496-0.15442-0.2887-0.41626-0.4364t-0.65796-0.1477q-0.64453 0-0.94666 0.58411-0.30212 0.57739-0.30212 1.6852t0.30212 1.665q0.30884 0.55054 0.96008 0.55054z"/></g></svg>