<svg xmlns="http://www.w3.org/2000/svg" xmlns:xlink="http://www.w3.org/1999/xlink" width="24" height="24" version="1.1"><defs><linearGradient id="a"><stop offset="0"/><stop offset="1" stop-opacity="0"/></linearGradient><linearGradient id="g" x1="24" x2="24" y1="4.225" y2="43" gradientTransform="matrix(.40541 0 0 .51351 2.2697 -.32432)" gradientUnits="userSpaceOnUse"><stop offset="0" stop-color="#fff"/><stop offset=".074" stop-color="#fff" stop-opacity=".235"/><stop offset=".951" stop-color="#fff" stop-opacity=".157"/><stop offset="1" stop-color="#fff" stop-opacity=".392"/></linearGradient><linearGradient id="f" x1="-35.108" x2="-35.108" y1="4.401" y2="53.002" gradientTransform="matrix(.39221 0 0 .42703 29.199 -.15967)" gradientUnits="userSpaceOnUse"><stop offset="0" stop-color="#1f8753"/><stop offset="1" stop-color="#1a6f44"/></linearGradient><radialGradient id="d" cx="605.71" cy="486.65" r="117.14" gradientTransform="matrix(.012049 0 0 .0082353 13.239 18.981)" gradientUnits="userSpaceOnUse" xlink:href="#a"/><radialGradient id="c" cx="605.71" cy="486.65" r="117.14" gradientTransform="matrix(-.012049 0 0 .0082353 10.761 18.981)" gradientUnits="userSpaceOnUse" xlink:href="#a"/><linearGradient id="e" x1="302.86" x2="302.86" y1="366.65" y2="609.51" gradientTransform="matrix(.035207 0 0 .0082353 -.72485 18.981)" gradientUnits="userSpaceOnUse"><stop offset="0" stop-opacity="0"/><stop offset=".5"/><stop offset="1" stop-opacity="0"/></linearGradient><radialGradient id="b" cx="1.481" cy="-5.694" r="9" gradientTransform="matrix(.015894 3.8766 -3.8976 .015980 -10.781 -8.114)" gradientUnits="userSpaceOnUse"><stop offset="0" stop-color="#4ad58e"/><stop offset=".262" stop-color="#2dc477"/><stop offset=".705" stop-color="#26a464"/><stop offset="1" stop-color="#1d7d4c"/></radialGradient></defs><rect width="17" height="2" x="3.5" y="22" fill="url(#e)" opacity=".15"/><path fill="url(#c)" d="m3.5 22v1.9999c-0.6205 0.004-1.5-0.448-1.5-1s0.6924-1 1.5-1z" opacity=".15"/><path fill="url(#d)" d="m20.5 22v1.9999c0.62047 0.0038 1.5-0.44808 1.5-1.0001 0-0.552-0.6924-0.99982-1.5-0.99982z" opacity=".15"/><path fill="url(#b)" stroke="url(#f)" stroke-linejoin="round" stroke-width="1" d="m3.5 1.5c3.8956 0 17 0.00136 17 0.00136l0.000021 20.999h-17v-21z"/><path fill="none" stroke="url(#g)" stroke-linecap="round" d="m19.5 21.5h-15v-19h15z"/><rect width="16" height="20" x="4" y="2" fill-opacity="0" color="#000" opacity=".4" rx="1" ry="1"/><g fill="#fff" transform="translate(0,6)"><rect width="7" height="1" x="10" y="3"/><rect width="7" height="1" x="10" y="5"/><rect width="7" height="1" x="10" y="7"/><circle cx="7.75" cy="3.5" r=".75"/><circle cx="7.75" cy="5.5" r=".75"/><circle cx="7.75" cy="7.5" r=".75"/></g></svg>