<svg xmlns="http://www.w3.org/2000/svg" xmlns:xlink="http://www.w3.org/1999/xlink" width="24" height="24" version="1.1"><defs><linearGradient id="a"><stop offset="0"/><stop offset="1" stop-opacity="0"/></linearGradient><linearGradient id="f" x1="24" x2="24" y1="5.564" y2="43" gradientTransform="matrix(.40541 0 0 .51351 2.2697 -.32432)" gradientUnits="userSpaceOnUse"><stop offset="0" stop-color="#fff"/><stop offset=".036" stop-color="#fff" stop-opacity=".235"/><stop offset=".951" stop-color="#fff" stop-opacity=".157"/><stop offset="1" stop-color="#fff" stop-opacity=".392"/></linearGradient><linearGradient id="e" x1="25.132" x2="25.132" y1=".985" y2="47.013" gradientTransform="matrix(.48572 0 0 .45630 .34283 .34886)" gradientUnits="userSpaceOnUse"><stop offset="0" stop-color="#f4f4f4"/><stop offset="1" stop-color="#dbdbdb"/></linearGradient><radialGradient id="c" cx="605.71" cy="486.65" r="117.14" gradientTransform="matrix(.012049 0 0 .0082353 13.239 18.981)" gradientUnits="userSpaceOnUse" xlink:href="#a"/><radialGradient id="b" cx="605.71" cy="486.65" r="117.14" gradientTransform="matrix(-.012049 0 0 .0082353 10.761 18.981)" gradientUnits="userSpaceOnUse" xlink:href="#a"/><linearGradient id="d" x1="302.86" x2="302.86" y1="366.65" y2="609.51" gradientTransform="matrix(.035207 0 0 .0082353 -.72485 18.981)" gradientUnits="userSpaceOnUse"><stop offset="0" stop-opacity="0"/><stop offset=".5"/><stop offset="1" stop-opacity="0"/></linearGradient></defs><rect width="17" height="2" x="3.5" y="22" fill="url(#d)" opacity=".15"/><path fill="url(#b)" d="m3.5 22v1.9999c-0.6205 0.004-1.5-0.448-1.5-1s0.6924-1 1.5-1z" opacity=".15"/><path fill="url(#c)" d="m20.5 22v1.9999c0.62047 0.0038 1.5-0.44808 1.5-1.0001 0-0.552-0.6924-0.99982-1.5-0.99982z" opacity=".15"/><path fill="url(#e)" d="m3.5 1.5c3.8956 0 17 0.00136 17 0.00136l0.000021 20.999h-17v-21z"/><path fill="none" stroke="url(#f)" stroke-linecap="round" d="m19.5 21.5h-15v-19h15z"/><path fill="none" stroke="#000" stroke-linejoin="round" stroke-width="1" d="m3.5 1.5c3.8956 0 17 0.00136 17 0.00136l0.000021 20.999h-17v-21z" opacity=".3"/><g fill="#fff" fill-rule="evenodd" clip-rule="evenodd" opacity=".4" transform="translate(0 1)"><polygon points="133160 76894 110960 115340 22194 115340 44385 76894" class="fil0" image-rendering="optimizeQuality" shape-rendering="geometricPrecision" transform="matrix(.000090120 0 0 .000090120 6 6.6055)"/><polygon points="88772 0 44385 0 88772 76894 133160 76894" class="fil1" image-rendering="optimizeQuality" shape-rendering="geometricPrecision" transform="matrix(.000090120 0 0 .000090120 6 6.6055)"/><polygon points="66578 38447 44385 0 0 76894 22194 115340" class="fil2" image-rendering="optimizeQuality" shape-rendering="geometricPrecision" transform="matrix(.000090120 0 0 .000090120 6 6.6055)"/></g><g fill-rule="evenodd" clip-rule="evenodd"><polygon fill="#3777e3" points="44385 76894 133160 76894 110960 115340 22194 115340" class="fil0" image-rendering="optimizeQuality" shape-rendering="geometricPrecision" transform="matrix(.000090120 0 0 .000090120 6 6.6055)"/><polygon fill="#ffcf63" points="133160 76894 88772 0 44385 0 88772 76894" class="fil1" image-rendering="optimizeQuality" shape-rendering="geometricPrecision" transform="matrix(.000090120 0 0 .000090120 6 6.6055)"/><polygon fill="#11a861" points="22194 115340 66578 38447 44385 0 0 76894" class="fil2" image-rendering="optimizeQuality" shape-rendering="geometricPrecision" transform="matrix(.000090120 0 0 .000090120 6 6.6055)"/></g></svg>