<svg xmlns="http://www.w3.org/2000/svg" xmlns:svg="http://www.w3.org/2000/svg" xmlns:xlink="http://www.w3.org/1999/xlink" id="svg6649" width="48" height="48" version="1.1"><defs id="defs6651"><linearGradient id="linearGradient4552"><stop id="stop4554" offset="0" stop-color="#333" stop-opacity="1"/><stop id="stop4556" offset="1" stop-color="#4d4d4d" stop-opacity="1"/></linearGradient><linearGradient id="linearGradient3058" x1="24" x2="24" y1="5" y2="43" gradientTransform="translate(4e-6,1.000006)" gradientUnits="userSpaceOnUse" xlink:href="#linearGradient3924-1"/><linearGradient id="linearGradient3924-1"><stop id="stop3926-3" offset="0" stop-color="#fff" stop-opacity="1"/><stop id="stop3928-91" offset=".063" stop-color="#fff" stop-opacity=".235"/><stop id="stop3930-6" offset=".951" stop-color="#fff" stop-opacity=".157"/><stop id="stop3932-6" offset="1" stop-color="#fff" stop-opacity=".392"/></linearGradient><radialGradient id="radialGradient5521-1" cx="6.73" cy="9.957" r="12.672" fx="6.2" fy="9.957" gradientTransform="matrix(0,9.4975523,-11.65996,0,140.93055,-79.160978)" gradientUnits="userSpaceOnUse" xlink:href="#linearGradient2867-449-88-871-390-598-476-591-434-148-57-177-8-3-3-6-4-8-8-8"/><linearGradient id="linearGradient2867-449-88-871-390-598-476-591-434-148-57-177-8-3-3-6-4-8-8-8"><stop id="stop3750-1-0-7-6-6-1-3-9" offset="0" stop-color="#29abe2" stop-opacity="1"/><stop id="stop3752-3-7-4-0-32-8-923-0" offset=".262" stop-color="#28aae1" stop-opacity="1"/><stop id="stop3754-1-8-5-2-7-6-7-1" offset=".705" stop-color="#1d99d6" stop-opacity="1"/><stop id="stop3756-1-6-2-6-6-1-96-6" offset="1" stop-color="#0274bd" stop-opacity="1"/></linearGradient><radialGradient id="radialGradient3013" cx="4.993" cy="43.5" r="2.5" fx="4.993" fy="43.5" gradientTransform="matrix(2.003784,0,0,1.4,27.98813,-17.4)" gradientUnits="userSpaceOnUse" xlink:href="#linearGradient3688-166-749"/><linearGradient id="linearGradient3688-166-749"><stop id="stop2883" offset="0" stop-color="#181818" stop-opacity="1"/><stop id="stop2885" offset="1" stop-color="#181818" stop-opacity="0"/></linearGradient><radialGradient id="radialGradient3015" cx="4.993" cy="43.5" r="2.5" fx="4.993" fy="43.5" gradientTransform="matrix(2.003784,0,0,1.4,-20.01187,-104.4)" gradientUnits="userSpaceOnUse" xlink:href="#linearGradient3688-464-309"/><linearGradient id="linearGradient3688-464-309"><stop id="stop2889" offset="0" stop-color="#181818" stop-opacity="1"/><stop id="stop2891" offset="1" stop-color="#181818" stop-opacity="0"/></linearGradient><linearGradient id="linearGradient3702-501-757"><stop id="stop2895" offset="0" stop-color="#181818" stop-opacity="0"/><stop id="stop2897" offset=".5" stop-color="#181818" stop-opacity="1"/><stop id="stop2899" offset="1" stop-color="#181818" stop-opacity="0"/></linearGradient><linearGradient id="linearGradient6647" x1="25.058" x2="25.058" y1="47.028" y2="39.999" gradientUnits="userSpaceOnUse" xlink:href="#linearGradient3702-501-757"/><radialGradient id="radialGradient4610" cx="4.993" cy="43.5" r="2.5" fx="4.993" fy="43.5" gradientTransform="matrix(2.003784,0,0,1.4,27.98813,-17.4)" gradientUnits="userSpaceOnUse" xlink:href="#linearGradient3688-166-749"/><radialGradient id="radialGradient4612" cx="4.993" cy="43.5" r="2.5" fx="4.993" fy="43.5" gradientTransform="matrix(2.003784,0,0,1.4,-20.01187,-104.4)" gradientUnits="userSpaceOnUse" xlink:href="#linearGradient3688-464-309"/><linearGradient id="linearGradient4614" x1="25.058" x2="25.058" y1="47.028" y2="39.999" gradientUnits="userSpaceOnUse" xlink:href="#linearGradient3702-501-757"/><radialGradient id="radialGradient4616" cx="6.73" cy="9.957" r="12.672" fx="6.2" fy="9.957" gradientTransform="matrix(0,9.4975523,-11.65996,0,140.93055,-79.160978)" gradientUnits="userSpaceOnUse" xlink:href="#linearGradient2867-449-88-871-390-598-476-591-434-148-57-177-8-3-3-6-4-8-8-8"/><linearGradient id="linearGradient4618" x1="24" x2="24" y1="5" y2="43" gradientTransform="translate(4e-6,1.000006)" gradientUnits="userSpaceOnUse" xlink:href="#linearGradient3924-1"/><linearGradient id="linearGradient4620" x1="20.375" x2="20.375" y1="34.563" y2="15.25" gradientUnits="userSpaceOnUse" xlink:href="#linearGradient4552"/><linearGradient id="linearGradient4624" x1="68.5" x2="68.5" y1="13.375" y2="36.125" gradientTransform="translate(-50.44965,0.17737223)" gradientUnits="userSpaceOnUse" xlink:href="#linearGradient3924-1"/><linearGradient id="linearGradient4253" x1="20.375" x2="20.375" y1="34.563" y2="15.25" gradientUnits="userSpaceOnUse" xlink:href="#linearGradient4552"/><linearGradient id="linearGradient4255" x1="68.5" x2="68.5" y1="13.375" y2="36.125" gradientTransform="translate(-50.44965,0.17737223)" gradientUnits="userSpaceOnUse" xlink:href="#linearGradient3924-1"/></defs><metadata id="metadata6654"/><g id="g4558" opacity=".6" transform="matrix(1.1578952,0,0,0.6428571,-3.789476,16.035716)"><rect id="rect4560" width="5" height="7" x="38" y="40" fill="url(#radialGradient4610)" fill-opacity="1" stroke="none"/><rect id="rect4562" width="5" height="7" x="-10" y="-47" fill="url(#radialGradient4612)" fill-opacity="1" stroke="none" transform="scale(-1,-1)"/><rect id="rect4564" width="28" height="7" x="10" y="40" fill="url(#linearGradient4614)" fill-opacity="1" stroke="none"/></g><rect id="rect4566" width="39" height="39" x="4.5" y="5.5" fill="url(#radialGradient4616)" fill-opacity="1" fill-rule="nonzero" stroke="none" stroke-width="1" color="#000" display="inline" enable-background="accumulate" overflow="visible" rx="2" ry="2" visibility="visible" style="marker:none"/><rect id="rect4568" width="37" height="37" x="5.5" y="6.5" fill="none" stroke="url(#linearGradient4618)" stroke-dasharray="none" stroke-dashoffset="0" stroke-linecap="round" stroke-linejoin="round" stroke-miterlimit="4" stroke-opacity="1" stroke-width="1" opacity=".5" rx="1" ry="1"/><rect id="rect4570" width="39" height="39" x="4.5" y="5.5" fill="none" stroke="#004471" stroke-dasharray="none" stroke-dashoffset="0" stroke-linecap="round" stroke-linejoin="round" stroke-miterlimit="4" stroke-opacity="1" stroke-width="1" color="#000" display="inline" enable-background="accumulate" opacity=".4" overflow="visible" rx="2" ry="2" visibility="visible" style="marker:none"/><path id="rect4572" fill="#fefefe" fill-opacity="1" fill-rule="nonzero" stroke="none" stroke-width="1" d="m 10.089755,9.4999947 27.820513,0 c 0.880717,0 1.589743,0.7090263 1.589743,1.5897443 l 0,27.820513 c 0,0.880717 -0.709026,1.589743 -1.589743,1.589743 l -27.820513,0 c -0.880717,0 -1.589744,-0.709026 -1.589744,-1.589743 l 0,-27.820513 c 0,-0.880718 0.709027,-1.5897443 1.589744,-1.5897443 z" color="#000" display="inline" enable-background="accumulate" overflow="visible" visibility="visible" style="marker:none"/><g id="g4241" transform="matrix(-1,0,0,1,48.001954,0)"><path display="inline" style="line-height:normal;text-indent:0;text-align:start;text-decoration-line:none;text-decoration-style:solid;text-decoration-color:#000;text-transform:none;block-progression:tb;isolation:auto;mix-blend-mode:normal;solid-color:#000;solid-opacity:1" id="path4243" fill="#333" fill-opacity="1" fill-rule="nonzero" stroke="#333" stroke-dasharray="none" stroke-dashoffset="0" stroke-linecap="round" stroke-linejoin="round" stroke-miterlimit="4" stroke-opacity="1" stroke-width="1" d="m 12.509766,15.009532 0,22.980468 9.480468,0 0,-5.914062 -4.568359,0 0,-11.480469 4.568359,0 0,-5.585937 -0.5,0 z" baseline-shift="baseline" clip-rule="nonzero" color="#000" color-interpolation="sRGB" color-interpolation-filters="linearRGB" color-rendering="auto" direction="ltr" enable-background="accumulate" font-family="sans-serif" font-size="medium" font-stretch="normal" font-style="normal" font-variant="normal" font-weight="normal" image-rendering="auto" letter-spacing="normal" opacity=".15" overflow="visible" shape-rendering="auto" text-anchor="start" text-decoration="none" text-rendering="auto" visibility="visible" word-spacing="normal" writing-mode="lr-tb"/><path id="path4245" fill="#333" stroke="#333" d="m 21.490213,15.010188 0,4.585531 -3.568144,0 0,12.481213 3.568144,0 0,4.913068 -8.481213,0 0,-21.979812 z" opacity=".3"/><path id="path4247" fill="url(#linearGradient4253)" fill-opacity="1" d="m 21.490213,14.010188 0,4.585531 -3.568144,0 0,12.481213 3.568144,0 0,4.913068 -8.481213,0 0,-21.979812 z"/><path id="path4249" fill="none" stroke="#000" d="m 21.490213,14.010188 0,4.585531 -3.568144,0 0,12.481213 3.568144,0 0,4.913068 -8.481213,0 0,-21.979812 z" opacity=".3"/><path id="path4251" fill="none" fill-opacity="1" stroke="url(#linearGradient4255)" d="m 14.009336,15.009403 0,19.980469 6.480469,0 0,-2.912109 -3.568359,0 0,-14.482422 3.568359,0 0,-2.585938 z" opacity=".5"/></g><g id="g4588" fill="none" stroke="none" stroke-dasharray="none" stroke-miterlimit="4" stroke-width="1.082" opacity=".3" transform="matrix(0.92382486,0,0,0.92382486,-42.58071,2.0681476)"><g id="g4590" fill="none" stroke="none" stroke-dasharray="none" stroke-miterlimit="4" stroke-width="3.053" transform="matrix(0.35454545,0,0,0.35454545,49.73436,4.4363587)"><g id="g4592" fill="none" stroke="none" stroke-dasharray="none" stroke-miterlimit="4" stroke-width="3.053"><path id="path4594" fill="none" stroke="none" stroke-dasharray="none" stroke-miterlimit="4" stroke-width="3.053" d="m 59,27 0,14 -17,0 0,32 17,0 0,15 -32,0 0,-61 32,0 z"/></g></g><g id="g4596" fill="none" stroke="none" stroke-dasharray="none" stroke-miterlimit="4" stroke-width="3.053" transform="matrix(0.35454545,0,0,0.35454545,49.73436,4.4363587)"><g id="g4598" fill="none" stroke="none" stroke-dasharray="none" stroke-miterlimit="4" stroke-width="3.053"><path id="path4600" fill="none" stroke="none" stroke-dasharray="none" stroke-miterlimit="4" stroke-width="3.053" d="m 99,27 0,61 -32,0 0,-15 18,0 0,-32 -18,0 0,-14 32,0 z"/></g></g></g><g id="g4234"><path id="path4574" fill="#333" fill-opacity="1" fill-rule="nonzero" stroke="#333" stroke-dasharray="none" stroke-dashoffset="0" stroke-linecap="round" stroke-linejoin="round" stroke-miterlimit="4" stroke-opacity="1" stroke-width="1" d="m 12.509766,15.009532 0,22.980468 9.480468,0 0,-5.914062 -4.568359,0 0,-11.480469 4.568359,0 0,-5.585937 -0.5,0 z" baseline-shift="baseline" clip-rule="nonzero" color="#000" color-interpolation="sRGB" color-interpolation-filters="linearRGB" color-rendering="auto" direction="ltr" display="inline" enable-background="accumulate" font-family="sans-serif" font-size="medium" font-stretch="normal" font-style="normal" font-variant="normal" font-weight="normal" image-rendering="auto" letter-spacing="normal" opacity=".15" overflow="visible" shape-rendering="auto" text-anchor="start" text-decoration="none" text-rendering="auto" visibility="visible" word-spacing="normal" writing-mode="lr-tb" style="line-height:normal;text-indent:0;text-align:start;text-decoration-line:none;text-decoration-style:solid;text-decoration-color:#000;text-transform:none;block-progression:tb;isolation:auto;mix-blend-mode:normal;solid-color:#000;solid-opacity:1"/><path id="path4578" fill="#333" stroke="#333" d="m 21.490213,15.010188 0,4.585531 -3.568144,0 0,12.481213 3.568144,0 0,4.913068 -8.481213,0 0,-21.979812 z" opacity=".3"/><path id="path4584" fill="url(#linearGradient4620)" fill-opacity="1" d="m 21.490213,14.010188 0,4.585531 -3.568144,0 0,12.481213 3.568144,0 0,4.913068 -8.481213,0 0,-21.979812 z"/><path id="path4602" fill="none" stroke="#000" d="m 21.490213,14.010188 0,4.585531 -3.568144,0 0,12.481213 3.568144,0 0,4.913068 -8.481213,0 0,-21.979812 z" opacity=".3"/><path id="path4606" fill="none" fill-opacity="1" stroke="url(#linearGradient4624)" d="m 14.009336,15.009403 0,19.980469 6.480469,0 0,-2.912109 -3.568359,0 0,-14.482422 3.568359,0 0,-2.585938 z" opacity=".5"/></g><path id="path4629" fill="none" fill-opacity="1" fill-rule="nonzero" stroke="#004471" stroke-opacity="1" stroke-width="1" d="m 10.089755,9.4999947 27.820513,0 c 0.880717,0 1.589743,0.7090263 1.589743,1.5897443 l 0,27.820513 c 0,0.880717 -0.709026,1.589743 -1.589743,1.589743 l -27.820513,0 c -0.880717,0 -1.589744,-0.709026 -1.589744,-1.589743 l 0,-27.820513 c 0,-0.880718 0.709027,-1.5897443 1.589744,-1.5897443 z" color="#000" display="inline" enable-background="accumulate" opacity=".4" overflow="visible" visibility="visible" style="marker:none"/></svg>