<svg xmlns="http://www.w3.org/2000/svg" xmlns:svg="http://www.w3.org/2000/svg" xmlns:xlink="http://www.w3.org/1999/xlink" id="svg3527" width="48" height="48" version="1.1"><metadata id="metadata3585"/><defs id="defs3529"><linearGradient id="f" x1="24" x2="24" y1="5" y2="43" gradientTransform="translate(0 1)" gradientUnits="userSpaceOnUse"><stop id="stop3532" offset="0" stop-color="#fff"/><stop id="stop3534" offset=".063" stop-color="#fff" stop-opacity=".235"/><stop id="stop3536" offset=".951" stop-color="#fff" stop-opacity=".157"/><stop id="stop3538" offset="1" stop-color="#fff" stop-opacity=".392"/></linearGradient><radialGradient id="e" cx="7.85" cy="9.957" r="12.672" fx="7.32" gradientTransform="matrix(0 5.9186 -11.66 0 140.93 -53.462)" gradientUnits="userSpaceOnUse"><stop id="stop3541" offset="0" stop-color="#90dbec"/><stop id="stop3543" offset=".262" stop-color="#42baea"/><stop id="stop3545" offset=".705" stop-color="#3689e6"/><stop id="stop3547" offset="1" stop-color="#2b63a0"/></radialGradient><radialGradient id="b" cx="4.993" cy="43.5" r="2.5" gradientTransform="matrix(2.0038 0 0 1.4 27.988 -17.4)" gradientUnits="userSpaceOnUse" xlink:href="#a"/><linearGradient id="a"><stop id="stop3551" offset="0" stop-color="#181818"/><stop id="stop3553" offset="1" stop-color="#181818" stop-opacity="0"/></linearGradient><radialGradient id="c" cx="4.993" cy="43.5" r="2.5" gradientTransform="matrix(2.0038 0 0 1.4 -20.012 -104.4)" gradientUnits="userSpaceOnUse" xlink:href="#a"/><linearGradient id="d" x1="25.058" x2="25.058" y1="47.028" y2="39.999" gradientUnits="userSpaceOnUse"><stop id="stop3557" offset="0" stop-color="#181818" stop-opacity="0"/><stop id="stop3559" offset=".5" stop-color="#181818"/><stop id="stop3561" offset="1" stop-color="#181818" stop-opacity="0"/></linearGradient></defs><g id="g3563" opacity=".6"><path id="path3565" fill="url(#b)" d="M38 40h5v7h-5z" transform="matrix(1.1579 0 0 .64286 -3.79 16.036)"/><path id="path3567" fill="url(#c)" d="M-10-47h5v7h-5z" transform="matrix(-1.1579 0 0 -.64286 -3.79 16.036)"/><path id="path3569" fill="url(#d)" d="M10 40h28v7H10z" transform="matrix(1.1579 0 0 .64286 -3.79 16.036)"/></g><rect id="rect3571" width="39" height="39" x="4.5" y="5.5" fill="url(#e)" color="#000" rx="2" ry="2"/><path id="path15-0" fill-opacity="1" stroke="#000" stroke-dasharray="none" stroke-linecap="round" stroke-linejoin="round" stroke-miterlimit="4" stroke-opacity="1" stroke-width="2.84" d="m 26.188662,20.614358 c 1.090106,-1.090107 1.232335,-2.796435 0.09481,-3.933952 -2.227673,-2.227677 -3.507369,-1.990683 -6.0194,-1.990683 3.791727,-1.658865 6.540751,-2.03809 9.289777,-0.758344 1.184928,0.52135 1.658919,0.99534 2.606852,1.943273 l 1.706275,1.706275 c 0.426581,0.426583 0.710934,0.995342 0.805755,1.564098 0.142175,0.900523 -0.09482,1.090107 0.521347,1.753687 0.189586,0.189586 0.473992,0.189586 0.663577,0 0.189588,-0.189585 0.473993,-0.189585 0.663578,0 l 1.658921,1.65892 c 0.379174,0.379172 0.379174,0.94793 0,1.327102 l -3.365196,3.365194 c -0.379172,0.379172 -0.947929,0.379172 -1.327101,0 l -1.564101,-1.611509 c -0.189586,-0.189584 -0.189586,-0.473992 0,-0.663577 0.189588,-0.189587 0.189588,-0.52135 0,-0.710935 -0.663579,-0.663577 -0.853163,-0.426582 -1.753686,-0.52135 -0.616168,-0.09482 -1.120874,-0.356984 -1.547456,-0.783565 M 26.188657,20.614358 28.75647,23.090101 26.188657,20.614358 11.495594,37.06111 c -0.568759,0.568757 -0.616168,1.516687 -0.04742,2.038091 l 0.663582,0.663578 c 0.568757,0.568761 1.46933,0.52135 2.03809,-0.04741 L 28.890331,23.22121" opacity=".05"/><rect id="rect3573" width="37" height="37" x="5.5" y="6.5" fill="none" stroke="url(#f)" stroke-linecap="round" stroke-linejoin="round" opacity=".5" rx="1" ry="1"/><rect id="rect3575" width="39" height="39" x="4.5" y="5.5" fill="none" stroke="#004264" stroke-linecap="round" stroke-linejoin="round" color="#000" opacity=".4" rx="2" ry="2" style="isolation:auto;mix-blend-mode:normal"/><path id="path15-2" fill-opacity="1" d="m 26.125903,20.551601 c 1.090107,-1.090107 1.232336,-2.796436 0.09482,-3.933953 -2.227672,-2.227677 -3.507367,-1.990682 -6.0194,-1.990682 3.791728,-1.658864 6.54075,-2.038089 9.289776,-0.758344 1.18493,0.521349 1.658919,0.995339 2.606852,1.943274 l 1.706275,1.706275 c 0.426582,0.426583 0.710935,0.99534 0.805756,1.564096 0.142174,0.900523 -0.09482,1.090107 0.521347,1.753687 0.189586,0.189587 0.473992,0.189587 0.663577,0 0.189587,-0.189585 0.473994,-0.189585 0.663577,0 l 1.658922,1.65892 c 0.379173,0.379172 0.379173,0.947931 0,1.327102 L 34.75221,27.18717 c -0.379173,0.379173 -0.947929,0.379173 -1.327101,0 l -1.564102,-1.611507 c -0.189585,-0.189584 -0.189585,-0.473994 0,-0.663579 0.189589,-0.189587 0.189589,-0.521349 0,-0.710935 -0.663578,-0.663576 -0.853162,-0.426582 -1.753685,-0.521349 -0.616167,-0.09482 -1.120874,-0.356985 -1.547456,-0.783565 l -2.433957,-2.344634" opacity=".15"/><path id="path15" fill="#fff" fill-opacity="1" d="m 26.078729,19.011063 c 1.090108,-1.090107 1.232336,-2.796435 0.09482,-3.933952 -2.227674,-2.227677 -3.507369,-1.990682 -6.019402,-1.990682 3.791728,-1.658865 6.540751,-2.03809 9.289778,-0.758344 1.184929,0.521349 1.658919,0.995339 2.606851,1.943274 l 1.706275,1.706273 c 0.426582,0.426584 0.710936,0.995342 0.805755,1.564098 0.142175,0.900523 -0.09482,1.090107 0.521347,1.753687 0.189587,0.189587 0.473993,0.189587 0.663578,0 0.189587,-0.189585 0.473993,-0.189585 0.663577,0 l 1.658922,1.65892 c 0.379173,0.379172 0.379173,0.947931 0,1.327102 l -3.365196,3.365194 c -0.379173,0.379172 -0.947929,0.379172 -1.327102,0 l -1.564101,-1.611507 c -0.189585,-0.189585 -0.189585,-0.473994 0,-0.663579 0.189589,-0.189587 0.189589,-0.521349 0,-0.710935 -0.663577,-0.663577 -0.853161,-0.426582 -1.753685,-0.52135 -0.616167,-0.09482 -1.120874,-0.290419 -1.547456,-0.717 l -2.456146,-2.344634" opacity="1"/><path id="path17-7" fill-opacity="1" d="M 26.125903,20.551601 11.432841,36.998352 c -0.568758,0.568758 -0.616167,1.516689 -0.04742,2.038092 l 0.663582,0.663578 c 0.568757,0.56876 1.46933,0.52135 2.038091,-0.0474 L 28.827572,23.158453 Z" opacity=".15"/><path id="path17" fill="#fff" fill-opacity="1" d="M 26.078729,19.011063 11.385666,35.457815 c -0.568758,0.568758 -0.616167,1.516687 -0.04742,2.038092 l 0.663582,0.663578 c 0.568757,0.56876 1.46933,0.521349 2.038091,-0.0474 l 14.740479,-16.49417 z" opacity="1"/></svg>