<svg xmlns="http://www.w3.org/2000/svg" xmlns:xlink="http://www.w3.org/1999/xlink" width="48" height="48" version="1.1"><defs><linearGradient id="d" x1="60.5" x2="60.5" y1="30.577" y2="112.42" gradientTransform="matrix(.46429 0 0 .46429 129.91 -4.1964)" gradientUnits="userSpaceOnUse"><stop offset="0" stop-color="#fff"/><stop offset=".063" stop-color="#fff" stop-opacity=".235"/><stop offset=".951" stop-color="#fff" stop-opacity=".157"/><stop offset="1" stop-color="#fff" stop-opacity=".392"/></linearGradient><linearGradient id="f" x1="48" x2="48" y1="90" y2="5.988" gradientTransform="matrix(.46429 0 0 .46429 223.43 296.79)" gradientUnits="userSpaceOnUse"><stop offset="0" stop-color="#be1e1e"/><stop offset="1" stop-color="#e24a4a"/></linearGradient><linearGradient id="e" x1="52" x2="52" y1="113.5" y2="29.963" gradientTransform="matrix(.46429 0 0 .46429 217.63 285.88)" gradientUnits="userSpaceOnUse"><stop offset="0" stop-color="#560e0e"/><stop offset="1" stop-color="#9b1919"/></linearGradient><radialGradient id="c" cx="4.993" cy="43.5" r="2.5" gradientTransform="matrix(2.0038 0 0 1.4 27.988 -17.4)" gradientUnits="userSpaceOnUse" xlink:href="#a"/><linearGradient id="a"><stop offset="0" stop-color="#181818"/><stop offset="1" stop-color="#181818" stop-opacity="0"/></linearGradient><radialGradient id="b" cx="4.993" cy="43.5" r="2.5" gradientTransform="matrix(2.0038 0 0 1.4 -20.012 -104.4)" gradientUnits="userSpaceOnUse" xlink:href="#a"/><linearGradient id="g" x1="25.058" x2="25.058" y1="47.028" y2="39.999" gradientUnits="userSpaceOnUse"><stop offset="0" stop-color="#181818" stop-opacity="0"/><stop offset=".5" stop-color="#181818"/><stop offset="1" stop-color="#181818" stop-opacity="0"/></linearGradient></defs><g><g opacity=".4" transform="translate(-221.71 -294.08) matrix(1.1579 0 0 .57143 217.92 313.22)"><rect width="5" height="7" x="38" y="40" fill="url(#c)"/><rect width="5" height="7" x="-10" y="-47" fill="url(#b)" transform="scale(-1)"/><rect width="28" height="7" x="10" y="40" fill="url(#g)"/></g><path fill="url(#f)" stroke="url(#e)" d="m229 299.58c-1.4661 0-2.6554 1.1183-2.7712 2.5536 1.1465 0.008 2.0748 0.94091 2.0748 2.0893 0 1.1533-0.936 2.0893-2.0893 2.0893v3.25c1.1533 0 2.0893 0.936 2.0893 2.0893s-0.936 2.0893-2.0893 2.0893v3.25c1.1533 0 2.0893 0.936 2.0893 2.0893s-0.936 2.0893-2.0893 2.0893v3.25c1.1533 0 2.0893 0.936 2.0893 2.0893s-0.936 2.0893-2.0893 2.0893v3.25c1.1533 0 2.0893 0.936 2.0893 2.0893 0 1.1484-0.92827 2.0814-2.0748 2.0893 0.11587 1.4352 1.3051 2.5536 2.7712 2.5536 0-1.1533 0.936-2.0893 2.0893-2.0893s2.0893 0.936 2.0893 2.0893h3.25c0-1.1533 0.936-2.0893 2.0893-2.0893s2.0893 0.936 2.0893 2.0893h3.25c0-1.1533 0.936-2.0893 2.0893-2.0893s2.0893 0.936 2.0893 2.0893h3.25c0-1.1533 0.936-2.0893 2.0893-2.0893s2.0893 0.936 2.0893 2.0893h3.25c-0.00001-1.1533 0.936-2.0893 2.0893-2.0893 1.1385 0 2.0658 0.91284 2.0893 2.0458 1.2483-0.20666 2.2035-1.229 2.3069-2.51-1.1465-0.008-2.0748-0.94092-2.0748-2.0893 0-1.1533 0.93599-2.0893 2.0893-2.0893v-3.25c-1.1533 0-2.0893-0.936-2.0893-2.0893s0.93599-2.0893 2.0893-2.0893v-3.25c-1.1533 0-2.0893-0.936-2.0893-2.0893s0.93599-2.0893 2.0893-2.0893v-3.25c-1.1533 0.00001-2.0893-0.936-2.0893-2.0893s0.93599-2.0893 2.0893-2.0893v-3.25c-1.1533 0-2.0893-0.936-2.0893-2.0893 0-1.1484 0.92827-2.0814 2.0748-2.0893-0.10341-1.2811-1.0587-2.3034-2.3069-2.51-0.0235 1.1329-0.95075 2.0458-2.0893 2.0458-1.1533 0-2.0893-0.936-2.0893-2.0893h-3.25c0 1.1533-0.936 2.0893-2.0893 2.0893s-2.0893-0.936-2.0893-2.0893h-3.25c0 1.1533-0.936 2.0893-2.0893 2.0893s-2.0893-0.936-2.0893-2.0893h-3.25c0 1.1533-0.936 2.0893-2.0893 2.0893s-2.0893-0.936-2.0893-2.0893h-3.25c0 1.1533-0.936 2.0893-2.0893 2.0893s-2.0893-0.936-2.0893-2.0893z" enable-background="new" transform="translate(-221.71 -294.08)"/><path fill="#fff" d="m238.21 306.66-5.1157 22.496h4.1565l2.4145-10.067h11.346l-10.626 9.4292 2.77 3.1619 1.4188-0.72474c2.683-1.3676 3.8083-0.56793 5.844-0.008 1.9804 0.54482 3.8421 1.1279 7.7046-1.0792l-0.76706-3.8957c-4.2154 2.9712-5.549 0.32031-8.5512 0.21508l8.5955-7.2101 0.93267-3.849h-18.005l1.159-4.6194h11.801l0.80931-3.849h-15.888z" enable-background="new" opacity=".95" transform="translate(-221.71 -294.08)"/><path fill="none" stroke="url(#d)" d="m146.22 10.438c-0.39868 1.2067-1.5106 2.0938-2.8438 2.0938-1.2451 0-2.3193-0.75923-2.7812-1.8438-0.37324 0.15848-0.61431 0.40148-0.8125 0.75 1.0257 0.4864 1.75 1.5139 1.75 2.7188 0 1.3247-0.903 2.415-2.0938 2.8125v1.75c1.2067 0.39868 2.0938 1.5106 2.0938 2.8438 0 1.3331-0.88704 2.4451-2.0938 2.8438v1.75c1.2067 0.39868 2.0938 1.5106 2.0938 2.8438s-0.88704 2.4451-2.0938 2.8438v1.75c1.2067 0.39868 2.0938 1.5106 2.0938 2.8438s-0.88704 2.4451-2.0938 2.8438v1.75c1.1908 0.39746 2.0938 1.4878 2.0938 2.8125 0 1.2049-0.7243 2.2324-1.75 2.7188 0.19819 0.34852 0.43926 0.59152 0.8125 0.75 0.46198-1.0845 1.5362-1.8438 2.7812-1.8438 1.3332 0 2.4451 0.88704 2.8438 2.0938h1.75c0.39869-1.2067 1.5106-2.0938 2.8438-2.0938s2.4451 0.88704 2.8438 2.0938h1.75c0.39746-1.1907 1.4878-2.0938 2.8125-2.0938 1.3332 0 2.4451 0.88704 2.8438 2.0938h1.75c0.39868-1.2067 1.5106-2.0938 2.8438-2.0938s2.4451 0.88704 2.8438 2.0938h1.75c0.39868-1.2067 1.5106-2.0938 2.8438-2.0938 1.1767 0 1.9998 0.79335 2.5 1.7812 0.28475-0.1635 0.49218-0.3692 0.65625-0.65625-1.0472-0.47792-1.7812-1.5293-1.7812-2.75 0-1.3247 0.903-2.415 2.0938-2.8125v-1.75c-1.2067-0.39868-2.0938-1.5106-2.0938-2.8438 0-1.3331 0.88704-2.4451 2.0938-2.8438v-1.75c-1.21-0.4-2.1-1.512-2.1-2.845 0-1.3331 0.88704-2.4451 2.0938-2.8438v-1.75c-1.2067-0.39868-2.0938-1.5106-2.0938-2.8438s0.88704-2.4451 2.0938-2.8438v-1.75c-1.1908-0.39746-2.0938-1.4878-2.0938-2.8125 0-1.2207 0.73406-2.2721 1.7812-2.75-0.16407-0.28704-0.3715-0.49275-0.65625-0.65625-0.50025 0.98791-1.3233 1.7812-2.5 1.7812-1.3332 0-2.4451-0.88704-2.8438-2.0938h-1.75c-0.39868 1.2067-1.5106 2.0938-2.8438 2.0938s-2.4451-0.88704-2.8438-2.0938h-1.75c-0.39868 1.2067-1.5106 2.0938-2.8438 2.0938-1.3247 0-2.415-0.903-2.8125-2.0938h-1.75c-0.39868 1.2067-1.5106 2.0938-2.8438 2.0938s-2.4451-0.88704-2.8438-2.0938h-1.75z" enable-background="new" opacity=".5" transform="translate(-221.71 -294.08) translate(87.714 290.08)"/></g></svg>