<svg xmlns="http://www.w3.org/2000/svg" xmlns:svg="http://www.w3.org/2000/svg" xmlns:xlink="http://www.w3.org/1999/xlink" id="svg4031" width="48" height="48" version="1.1"><defs id="defs4033"><linearGradient id="linearGradient4168"><stop id="stop4170" offset="0" stop-color="#f8b17e" stop-opacity="1"/><stop id="stop4172" offset=".232" stop-color="#e35d4f" stop-opacity="1"/><stop id="stop4174" offset=".591" stop-color="#c6262e" stop-opacity="1"/><stop id="stop4176" offset="1" stop-color="#690b54" stop-opacity="1"/></linearGradient><linearGradient id="linearGradient3957"><stop id="stop3959" offset="0" stop-color="#fff" stop-opacity="1"/><stop id="stop3961" offset="1" stop-color="#c1c1c1" stop-opacity="1"/></linearGradient><linearGradient id="linearGradient4011"><stop id="stop4013" offset="0" stop-color="#fff" stop-opacity="1"/><stop id="stop4015" offset=".508" stop-color="#fff" stop-opacity=".235"/><stop id="stop4017" offset=".835" stop-color="#fff" stop-opacity=".157"/><stop id="stop4019" offset="1" stop-color="#fff" stop-opacity=".392"/></linearGradient><linearGradient id="linearGradient2867-449-88-871-390-598-476-591-434-148-57-177-3-8"><stop id="stop3750-8-9" offset="0" stop-color="#bebebe" stop-opacity="1"/><stop id="stop3752-3-2" offset=".262" stop-color="#969696" stop-opacity="1"/><stop id="stop3754-7-2" offset=".705" stop-color="#8e8e8e" stop-opacity="1"/><stop id="stop3756-9-3" offset="1" stop-color="#666" stop-opacity="1"/></linearGradient><linearGradient id="linearGradient3820-7-2-1"><stop id="stop3822-2-6-3" offset="0" stop-color="#3d3d3d" stop-opacity="1"/><stop id="stop3864-8-7-7" offset=".5" stop-color="#686868" stop-opacity=".498"/><stop id="stop3824-1-2-5" offset="1" stop-color="#686868" stop-opacity="0"/></linearGradient><linearGradient id="linearGradient3012" x1="71.204" x2="71.204" y1="6.238" y2="44.341" gradientTransform="matrix(1.054054,0,0,1.054054,-51.611001,-2.7279009)" gradientUnits="userSpaceOnUse" xlink:href="#linearGradient4011"/><radialGradient id="radialGradient3015" cx="3.972" cy="8.45" r="20" fx="3.972" fy="8.45" gradientTransform="matrix(0,2.4988347,-2.6434689,-6.8014435e-8,46.336814,-12.180468)" gradientUnits="userSpaceOnUse" xlink:href="#linearGradient2867-449-88-871-390-598-476-591-434-148-57-177-3-8"/><radialGradient id="radialGradient3018" cx="99.157" cy="186.171" r="62.769" fx="99.157" fy="186.171" gradientTransform="matrix(0.1863448,0,0,0.04820407,5.5226058,35.000694)" gradientUnits="userSpaceOnUse" xlink:href="#linearGradient3820-7-2-1"/><linearGradient id="linearGradient3951" x1="27.925" x2="33.448" y1="15.149" y2="22.986" gradientUnits="userSpaceOnUse" xlink:href="#linearGradient4168"/><linearGradient id="linearGradient3963" x1="24" x2="24" y1="22" y2="26" gradientUnits="userSpaceOnUse" xlink:href="#linearGradient3957"/><linearGradient id="linearGradient3963-7" x1="21.014" x2="22.806" y1="25.434" y2="27.344" gradientUnits="userSpaceOnUse" xlink:href="#linearGradient3957-2"/><linearGradient id="linearGradient3957-2"><stop id="stop3959-62" offset="0" stop-color="#fff" stop-opacity="1"/><stop id="stop3961-5" offset="1" stop-color="#c1c1c1" stop-opacity="1"/></linearGradient><radialGradient id="radialGradient5015" cx="99.157" cy="186.171" r="62.769" fx="99.157" fy="186.171" gradientTransform="matrix(0.33538589,0,0,0.05027819,-68.543999,41.585036)" gradientUnits="userSpaceOnUse" xlink:href="#linearGradient3820-7-2-1"/><radialGradient id="radialGradient4215" cx="29.85" cy="11.826" r="23.875" fx="29.85" fy="11.826" gradientTransform="matrix(0,1.6903398,-2.076783,0,48.559019,-46.169498)" gradientUnits="userSpaceOnUse" xlink:href="#linearGradient4230"/><linearGradient id="linearGradient4230"><stop id="stop4232" offset="0" stop-color="#87deaa" stop-opacity="1"/><stop id="stop4234" offset=".262" stop-color="#37c871" stop-opacity="1"/><stop id="stop4236" offset=".705" stop-color="#2ca05a" stop-opacity="1"/><stop id="stop4238" offset="1" stop-color="#217844" stop-opacity="1"/></linearGradient><linearGradient id="linearGradient4205" x1="32.438" x2="32.438" y1="-5.374" y2="66.123" gradientTransform="matrix(0.69448447,0,0,0.69448447,1.7764952,1.7681698)" gradientUnits="userSpaceOnUse" xlink:href="#linearGradient4806"/><linearGradient id="linearGradient4806"><stop id="stop4808" offset="0" stop-color="#fff" stop-opacity="1"/><stop id="stop4810" offset=".424" stop-color="#fff" stop-opacity=".235"/><stop id="stop4812" offset=".821" stop-color="#fff" stop-opacity=".157"/><stop id="stop4814" offset="1" stop-color="#fff" stop-opacity=".392"/></linearGradient></defs><metadata id="metadata4036"/><g id="g4221"><path id="path3818-0-5" fill="url(#radialGradient3018)" fill-opacity="1" stroke="none" d="m 35.696698,43.974873 a 11.696699,3.0257263 0 1 1 -23.393397,0 11.696699,3.0257263 0 1 1 23.393397,0 z" opacity=".4"/><path id="path4187" fill="url(#radialGradient4215)" fill-opacity="1" fill-rule="evenodd" stroke="none" stroke-linecap="butt" stroke-linejoin="miter" stroke-opacity="1" stroke-width="1.251" d="m 40.580639,20.085021 c 0,4.578618 -1.899999,15.938628 -16.542269,24.392346 0,-4.858629 -0.03837,-5.68094 -0.03837,-7.811705 -9.157236,0 -16.5806414,-7.423406 -16.5806407,-16.580641 0,-9.157234 7.4234057,-16.5806401 16.5806407,-16.58064 9.157234,0 16.580639,7.423406 16.58064,16.58064 z"/><path id="path4197" fill="none" stroke="url(#linearGradient4205)" stroke-width="1" d="m 39.583127,20.084081 c 0,5.864864 -2.461783,15.033672 -14.524434,22.578653 0,-4.53453 -0.04694,-5.410706 -0.04694,-6.962444 C 15.997624,36.23062 8.2699035,28.823167 8.4245832,20.084081 8.5800207,11.302176 15.216718,4.4930448 23.999998,4.4930446 c 8.783281,0 15.583129,6.8077554 15.583129,15.5910364 z" opacity=".5"/><g id="g4215" transform="translate(1.0000035,0)"><path id="rect4241" fill="#fff" fill-opacity="1" stroke="none" stroke-opacity="1" stroke-width="1" d="m 14.934096,15.823485 4.48967,0 c 0.802348,0 1.448281,0.645934 1.448281,1.448282 l 0,4.48967 c 0,2.323042 -3.738761,5.328169 -3.729323,4.525877 l 0.0362,-3.077597 -2.244836,0 c -0.802346,0 -1.44828,-0.645933 -1.44828,-1.44828 l 0,-4.48967 c 0,-0.802348 0.645934,-1.448282 1.448284,-1.448282 z" opacity="1"/><path id="path4244" fill="#fff" fill-opacity="1" stroke="none" stroke-opacity="1" stroke-width="1" d="m 26.576235,15.823485 4.48967,0 c 0.802347,0 1.44828,0.645934 1.44828,1.448282 l 0,4.48967 c 0,2.323042 -3.73876,5.328169 -3.729323,4.525877 l 0.03621,-3.077597 -2.244835,0 c -0.802348,0 -1.448281,-0.645933 -1.448281,-1.44828 l 0,-4.48967 c 0,-0.802348 0.645933,-1.448282 1.448284,-1.448282 z" opacity="1"/><path id="path4252" fill="none" fill-opacity="1" stroke="#052" stroke-opacity="1" stroke-width="1" d="m 14.934096,15.823485 4.48967,0 c 0.802348,0 1.448281,0.645934 1.448281,1.448282 l 0,4.48967 c 0,2.323042 -3.738761,5.328169 -3.729323,4.525877 l 0.0362,-3.077597 -2.244835,0 c -0.802347,0 -1.448281,-0.645933 -1.448281,-1.44828 l 0,-4.48967 c 0,-0.802348 0.645934,-1.448282 1.448285,-1.448282 z" opacity=".5"/><path id="path4254" fill="none" fill-opacity="1" stroke="#16502d" stroke-opacity="1" stroke-width="1" d="m 26.576235,15.823485 4.48967,0 c 0.802347,0 1.44828,0.645934 1.44828,1.448282 l 0,4.48967 c 0,2.323042 -3.73876,5.328169 -3.729322,4.525877 l 0.0362,-3.077597 -2.244835,0 c -0.802347,0 -1.448281,-0.645933 -1.448281,-1.44828 l 0,-4.48967 c 0,-0.802348 0.645934,-1.448282 1.448285,-1.448282 z" opacity=".5"/></g><path id="path4265" fill="none" fill-opacity="1" fill-rule="evenodd" stroke="#16502d" stroke-linecap="butt" stroke-linejoin="miter" stroke-opacity="1" stroke-width="1" d="m 40.580639,20.085021 c 0,4.578618 -1.899999,15.938628 -16.542269,24.392346 0,-4.858629 -0.03837,-5.68094 -0.03837,-7.811705 -9.157236,0 -16.5806414,-7.423406 -16.5806407,-16.580641 0,-9.157234 7.4234057,-16.5806401 16.5806407,-16.58064 9.157234,0 16.580639,7.423406 16.58064,16.58064 z" opacity=".7"/></g></svg>