<svg xmlns="http://www.w3.org/2000/svg" xmlns:svg="http://www.w3.org/2000/svg" xmlns:xlink="http://www.w3.org/1999/xlink" id="svg4369" width="48" height="48" version="1.1"><defs id="defs4371"><linearGradient id="linearGradient3497" x1="24" x2="24" y1="5" y2="43" gradientTransform="translate(2.4e-6,0.9674485)" gradientUnits="userSpaceOnUse" xlink:href="#linearGradient3924-4"/><linearGradient id="linearGradient3924-4"><stop id="stop3926-8" offset="0" stop-color="#fff" stop-opacity="1"/><stop id="stop3928-6" offset=".063" stop-color="#fff" stop-opacity=".235"/><stop id="stop3930-4" offset=".951" stop-color="#fff" stop-opacity=".157"/><stop id="stop3932-4" offset="1" stop-color="#fff" stop-opacity=".392"/></linearGradient><radialGradient id="radialGradient3351-4" cx="7.806" cy="9.957" r="12.672" fx="7.276" fy="9.957" gradientTransform="matrix(-1.6167311e-7,4.3521892,-8.0922115,-1.30641e-7,102.55944,-28.435087)" gradientUnits="userSpaceOnUse" xlink:href="#linearGradient5344-867-2"/><linearGradient id="linearGradient5344-867-2"><stop id="stop5559-5" offset="0" stop-color="#71cc28" stop-opacity="1"/><stop id="stop5561-3" offset=".397" stop-color="#7fbc2f" stop-opacity="1"/><stop id="stop5563-5" offset="1" stop-color="#81a92b" stop-opacity="1"/></linearGradient><linearGradient id="linearGradient3353-8" x1="10.72" x2="10.72" y1="49.805" y2="-7.172" gradientTransform="matrix(1,0,0,0.6592363,-2.0048496,11.166876)" gradientUnits="userSpaceOnUse" xlink:href="#linearGradient4288"/><linearGradient id="linearGradient4288"><stop id="stop4290" offset="0" stop-color="#188c29" stop-opacity="1"/><stop id="stop4292" offset="1" stop-color="#3fa74b" stop-opacity="1"/></linearGradient><linearGradient id="linearGradient3104-5-6"><stop id="stop3106-9-1" offset="0" stop-color="#aaa" stop-opacity="1"/><stop id="stop3108-9" offset="1" stop-color="#c8c8c8" stop-opacity="1"/></linearGradient><linearGradient id="linearGradient3084" x1="24" x2="24" y1="5" y2="43" gradientTransform="translate(2.4e-6,0.9674487)" gradientUnits="userSpaceOnUse" xlink:href="#linearGradient3924"/><linearGradient id="linearGradient3924"><stop id="stop3926" offset="0" stop-color="#fff" stop-opacity="1"/><stop id="stop3928" offset=".063" stop-color="#fff" stop-opacity=".235"/><stop id="stop3930" offset=".951" stop-color="#fff" stop-opacity=".157"/><stop id="stop3932" offset="1" stop-color="#fff" stop-opacity=".392"/></linearGradient><radialGradient id="radialGradient3093" cx="7.496" cy="8.45" r="20" fx="7.496" fy="8.45" gradientTransform="matrix(0,1.9392804,-2.0515274,-5.2784231e-8,41.335037,-8.486255)" gradientUnits="userSpaceOnUse" xlink:href="#linearGradient3600"/><linearGradient id="linearGradient3600"><stop id="stop3602" offset="0" stop-color="#f4f4f4" stop-opacity="1"/><stop id="stop3604" offset="1" stop-color="#dbdbdb" stop-opacity="1"/></linearGradient><linearGradient id="linearGradient3095" x1="24" x2="24" y1="44" y2="3.899" gradientTransform="translate(-6e-7,0.9674387)" gradientUnits="userSpaceOnUse" xlink:href="#linearGradient3104"/><linearGradient id="linearGradient3104"><stop id="stop3106" offset="0" stop-color="#aaa" stop-opacity="1"/><stop id="stop3108" offset="1" stop-color="#c8c8c8" stop-opacity="1"/></linearGradient><linearGradient id="linearGradient3098" x1="20" x2="20" y1="43" y2="3" gradientUnits="userSpaceOnUse" xlink:href="#linearGradient3104-5"/><linearGradient id="linearGradient3104-5"><stop id="stop3106-9" offset="0" stop-color="#aaa" stop-opacity="1"/><stop id="stop3108-8" offset="1" stop-color="#c8c8c8" stop-opacity="1"/></linearGradient><radialGradient id="radialGradient2873-966-168" cx="4.993" cy="43.5" r="2.5" fx="4.993" fy="43.5" gradientTransform="matrix(2.003784,0,0,1.4,27.98813,-17.4)" gradientUnits="userSpaceOnUse" xlink:href="#linearGradient3688-166-749"/><linearGradient id="linearGradient3688-166-749"><stop id="stop2883" offset="0" stop-color="#181818" stop-opacity="1"/><stop id="stop2885" offset="1" stop-color="#181818" stop-opacity="0"/></linearGradient><radialGradient id="radialGradient2875-742-326" cx="4.993" cy="43.5" r="2.5" fx="4.993" fy="43.5" gradientTransform="matrix(2.003784,0,0,1.4,-20.01187,-104.4)" gradientUnits="userSpaceOnUse" xlink:href="#linearGradient3688-464-309"/><linearGradient id="linearGradient3688-464-309"><stop id="stop2889" offset="0" stop-color="#181818" stop-opacity="1"/><stop id="stop2891" offset="1" stop-color="#181818" stop-opacity="0"/></linearGradient><linearGradient id="linearGradient2877-634-617" x1="25.058" x2="25.058" y1="47.028" y2="39.999" gradientUnits="userSpaceOnUse" xlink:href="#linearGradient3702-501-757"/><linearGradient id="linearGradient3702-501-757"><stop id="stop2895" offset="0" stop-color="#181818" stop-opacity="0"/><stop id="stop2897" offset=".5" stop-color="#181818" stop-opacity="1"/><stop id="stop2899" offset="1" stop-color="#181818" stop-opacity="0"/></linearGradient><linearGradient id="linearGradient3853" x1="25" x2="25" y1="-12" y2="68" gradientTransform="translate(-0.52227848,0.09816834)" gradientUnits="userSpaceOnUse" xlink:href="#linearGradient3104-5-6"/><linearGradient id="linearGradient3878" x1="24" x2="24" y1="44" y2="3.899" gradientTransform="translate(-6e-7,0.9674387)" gradientUnits="userSpaceOnUse" xlink:href="#linearGradient4288"/><radialGradient id="radialGradient3881" cx="7.422" cy="1.904" r="20" fx="7.422" fy="1.904" gradientTransform="matrix(0,0.68247344,-0.9243088,0,39.188676,0.84178887)" gradientUnits="userSpaceOnUse" xlink:href="#linearGradient5344-867-2"/><radialGradient id="radialGradient3048" cx="7.422" cy="1.904" r="20" fx="7.422" fy="1.904" gradientTransform="matrix(0,0.68247344,-0.9243088,0,39.188676,0.84178887)" gradientUnits="userSpaceOnUse" xlink:href="#linearGradient5344-867-2"/><linearGradient id="linearGradient3050" x1="24" x2="24" y1="44" y2="3.899" gradientTransform="translate(-6e-7,0.9674387)" gradientUnits="userSpaceOnUse" xlink:href="#linearGradient4288"/><linearGradient id="linearGradient3053" x1="25" x2="25" y1="-12" y2="68" gradientTransform="translate(-0.52227848,0.09816834)" gradientUnits="userSpaceOnUse" xlink:href="#linearGradient3104-5-6"/><linearGradient id="linearGradient3056" x1="24" x2="24" y1="5" y2="43" gradientTransform="translate(2.4e-6,0.9674485)" gradientUnits="userSpaceOnUse" xlink:href="#linearGradient3924-4"/><radialGradient id="radialGradient3059" cx="7.806" cy="9.957" r="12.672" fx="7.276" fy="9.957" gradientTransform="matrix(-1.6167311e-7,4.3521892,-8.0922115,-1.30641e-7,102.55944,-28.435087)" gradientUnits="userSpaceOnUse" xlink:href="#linearGradient5344-867-2"/><linearGradient id="linearGradient3061" x1="10.72" x2="10.72" y1="49.805" y2="-7.172" gradientTransform="matrix(1,0,0,0.6592363,-2.0048496,11.166876)" gradientUnits="userSpaceOnUse" xlink:href="#linearGradient4288"/><linearGradient id="linearGradient3064" x1="24" x2="24" y1="5" y2="43" gradientTransform="translate(2.4e-6,0.9674487)" gradientUnits="userSpaceOnUse" xlink:href="#linearGradient3924"/><radialGradient id="radialGradient3067" cx="7.496" cy="8.45" r="20" fx="7.496" fy="8.45" gradientTransform="matrix(0,1.9392804,-2.0515274,-5.2784231e-8,41.335037,-8.486255)" gradientUnits="userSpaceOnUse" xlink:href="#linearGradient3600"/><linearGradient id="linearGradient3069" x1="24" x2="24" y1="44" y2="3.899" gradientTransform="translate(-6e-7,0.9674387)" gradientUnits="userSpaceOnUse" xlink:href="#linearGradient3104"/><linearGradient id="linearGradient3072" x1="20" x2="20" y1="43" y2="3" gradientUnits="userSpaceOnUse" xlink:href="#linearGradient3104-5"/><linearGradient id="linearGradient3880" x1="-9.807" x2="69.261" y1="-26.094" y2="-26.094" gradientUnits="userSpaceOnUse" xlink:href="#linearGradient3104-5-6"/></defs><metadata id="metadata4374"/><g id="layer1"><g id="g3882"><g id="g2036" display="inline" transform="matrix(1.1,0,0,0.4444449,-2.4000022,25.11107)"><g id="g3712" opacity=".4" transform="matrix(1.052632,0,0,1.285713,-1.263158,-13.42854)"><rect id="rect2801" width="5" height="7" x="38" y="40" fill="url(#radialGradient2873-966-168)" fill-opacity="1" stroke="none"/><rect id="rect3696" width="5" height="7" x="-10" y="-47" fill="url(#radialGradient2875-742-326)" fill-opacity="1" stroke="none" transform="scale(-1,-1)"/><rect id="rect3700" width="28" height="7" x="10" y="40" fill="url(#linearGradient2877-634-617)" fill-opacity="1" stroke="none"/></g></g><path id="path4564-0" fill="url(#linearGradient3072)" fill-opacity="1" fill-rule="nonzero" stroke="none" stroke-width="1" d="m 22.96875,8.1874998 a 2.9359229,2.9359229 0 0 0 -1.40625,0.40625 L 10.53125,14.96875 A 2.9359229,2.9359229 0 0 0 9.125,17 2.9359229,2.9359229 0 0 0 9.09375,17 2.9359229,2.9359229 0 0 0 8.125,19.1875 L 8.0625,31.90625 a 2.9359229,2.9359229 0 0 0 1,2.1875 2.9359229,2.9359229 0 0 0 0,0.03125 2.9359229,2.9359229 0 0 0 1.4375,2.09375 l 11,6.3125 a 2.9359229,2.9359229 0 0 0 2.40625,0.21875 2.9359229,2.9359229 0 0 0 0.03125,0 2.9359229,2.9359229 0 0 0 2.5,-0.1875 l 11,-6.34375 a 2.9359229,2.9359229 0 0 0 1.40625,-2 2.9359229,2.9359229 0 0 0 1.09375,-2.25 l 0,-12.71875 a 2.9359229,2.9359229 0 0 0 -1,-2.1875 A 2.9359229,2.9359229 0 0 0 37.5,14.96875 L 26.46875,8.6249998 a 2.9359229,2.9359229 0 0 0 -2.40625,-0.25 2.9359229,2.9359229 0 0 0 -1.09375,-0.1875 z" color="#000" display="inline" enable-background="accumulate" opacity=".05" overflow="visible" visibility="visible" style="marker:none"/><rect stroke-linejoin="round" style="marker:none" id="rect5505-21" width="39" height="39" x="4.5" y="5.467" fill="url(#radialGradient3067)" fill-opacity="1" fill-rule="nonzero" stroke="url(#linearGradient3069)" stroke-dasharray="none" stroke-dashoffset="0" stroke-linecap="round" stroke-miterlimit="4" stroke-opacity="1" stroke-width="1" color="#000" display="inline" enable-background="accumulate" overflow="visible" rx="2" ry="2" visibility="visible"/><rect id="rect6741-2" width="37" height="37" x="5.5" y="6.467" fill="none" stroke="url(#linearGradient3064)" stroke-dasharray="none" stroke-dashoffset="0" stroke-linecap="round" stroke-linejoin="round" stroke-miterlimit="4" stroke-opacity="1" stroke-width="1" rx="1" ry="1"/><path id="rect5505-21-0" fill="url(#radialGradient3059)" fill-opacity="1" fill-rule="nonzero" stroke="url(#linearGradient3061)" stroke-dasharray="none" stroke-dashoffset="0" stroke-linecap="butt" stroke-linejoin="round" stroke-miterlimit="4" stroke-opacity="1" stroke-width="1" d="m 10,5.4999998 c 0,0 -3.1003072,-0.03125 -3.5,-0.03125 -1.108,0 -2,0.892 -2,2 l 0,35.0000002 c 0,1.108 0.892,2 2,2 l 3.5,0" color="#000" display="inline" enable-background="accumulate" overflow="visible" visibility="visible" style="marker:none"/><path id="rect3855" fill="url(#radialGradient3048)" fill-opacity="1" fill-rule="nonzero" stroke="url(#linearGradient3050)" stroke-dasharray="none" stroke-dashoffset="0" stroke-linecap="round" stroke-linejoin="round" stroke-miterlimit="4" stroke-opacity="1" stroke-width="1" d="m 32.0625,5.46875 11.4375,11.4375 0,-9.4375 c 0,-1.108 -0.892,-2 -2,-2 l -9.4375,0 z" color="#000" display="inline" enable-background="accumulate" overflow="visible" visibility="visible" style="marker:none"/><rect id="rect6741-2-5" width="37" height="37" x="5.5" y="6.467" fill="none" stroke="url(#linearGradient3056)" stroke-dasharray="none" stroke-dashoffset="0" stroke-linecap="round" stroke-linejoin="round" stroke-miterlimit="4" stroke-opacity="1" stroke-width="1" opacity=".4" rx="1" ry="1"/><path id="rect3089" fill="none" fill-opacity="1" stroke="url(#linearGradient3880)" stroke-miterlimit="4" stroke-opacity="1" stroke-width="1" d="m 17.496702,-38.620121 19.762472,0 0,8.427753 -19.762472,0 z m 0,17.125 19.762472,0 0,7.927753 -19.762472,0 z m 9.628298,7.93105 0,-25.059347 4.927753,0 0,25.059347 z m -4.875,0 0,-25.059347 4.927753,0 0,25.059347 z m -4.75,0 0,-25.059347 4.927753,0 0,25.059347 z m 0,0.0016 0,-25.0625 19.75,0 0,25.0625 z" transform="matrix(0,1,-1,0,0,0)"/></g></g></svg>