<svg xmlns="http://www.w3.org/2000/svg" xmlns:svg="http://www.w3.org/2000/svg" xmlns:xlink="http://www.w3.org/1999/xlink" id="svg2" width="100%" height="100%" version="1.1" viewBox="0 0 48 48"><metadata id="metadata490"/><defs id="defs4"><clipPath id="5"><path id="path7" d="m6.5 4c-1.376 0-2.5 1.124-2.5 2.5v35c0 1.376 1.124 2.5 2.5 2.5h35c1.376 0 2.5-1.124 2.5-2.5v-35c0-1.376-1.124-2.5-2.5-2.5z"/></clipPath><linearGradient id="4" x2="0" y1="47.03" y2="39.999" gradientUnits="userSpaceOnUse"><stop id="stop10" stop-color="#181818" stop-opacity="0"/><stop id="stop12" offset=".5" stop-color="#181818"/><stop id="stop14" offset="1" stop-color="#181818" stop-opacity="0"/></linearGradient><linearGradient id="0"><stop id="stop17" stop-color="#181818"/><stop id="stop19" offset="1" stop-color="#181818" stop-opacity="0"/></linearGradient><linearGradient id="1" x2="0" y1="6" y2="44" gradientUnits="userSpaceOnUse"><stop id="stop22" stop-color="#fff"/><stop id="stop24" offset=".053" stop-color="#fff" stop-opacity=".235"/><stop id="stop26" offset=".951" stop-color="#fff" stop-opacity=".157"/><stop id="stop28" offset="1" stop-color="#fff" stop-opacity=".392"/></linearGradient><radialGradient id="3" cx="4.993" cy="43.5" r="2.5" gradientTransform="matrix(2.0038 0 0 1.4-20.01-104.4)" gradientUnits="userSpaceOnUse" xlink:href="#0"/><radialGradient id="2" cx="4.993" cy="43.5" r="2.5" gradientTransform="matrix(2.0038 0 0 1.4 27.988-17.4)" gradientUnits="userSpaceOnUse" xlink:href="#0"/></defs><g id="g32" opacity=".6" transform="matrix(1.1579 0 0 .64286-3.789 16.04)"><path id="path34" fill="url(#2)" d="m38 40h5v7h-5z"/><path id="path36" fill="url(#3)" d="m-10-47h5v7h-5z" transform="scale(-1-1)"/><path id="path38" fill="url(#4)" d="m10 40h28v7h-28z"/></g><g id="g40" clip-path="url(#5)" transform="translate(0 1)"><path id="path42" fill="#583c28" d="m21 27h3v3h-3z"/><path id="path44" fill="#785439" d="m18 27h3v3h-3z"/><path id="path46" fill="#583c28" d="m18 30h3v3h-3z"/><path id="path48" fill="#b8845b" d="m18 33h3v3h-3z"/><path id="path50" fill="#785439" d="m18 36h3v3h-3z"/><path id="path52" fill="#b8845b" d="m18 39h3v3h-3z"/><path id="path54" fill="#956b49" d="m18 42h3v3h-3z"/><path id="path56" fill="#785439" d="m21 30h3v3h-3z"/><g id="g58" fill="#956b49"><path id="path60" d="m21 33h3v3h-3z"/><path id="path62" d="m21 36h3v3h-3z"/></g><path id="path64" fill="#785439" d="m21 39h3v3h-3z"/><path id="path66" fill="#956b49" d="m21 42h3v3h-3z"/><path id="path68" fill="#583c28" d="m21 18h3v3h-3z"/><path id="path70" fill="#b8845b" d="m21 21h3v3h-3z"/><path id="path72" fill="#785439" d="m21 24h3v3h-3z"/><path id="path74" fill="#583c28" d="m3 18h3v3h-3z"/><path id="path76" fill="#785439" d="m3 21h3v3h-3z"/><path id="path78" fill="#956b49" d="m6 18h3v3h-3z"/><path id="path80" fill="#785439" d="m6 21h3v3h-3z"/><path id="path82" fill="#956b49" d="m9 18h3v3h-3z"/><g id="g84" fill="#785439"><path id="path86" d="m9 21h3v3h-3z"/><path id="path88" d="m12 18h3v3h-3z"/></g><path id="path90" fill="#868686" d="m12 21h3v3h-3z"/><path id="path92" fill="#956b49" d="m15 18h3v3h-3z"/><path id="path94" fill="#785439" d="m15 21h3v3h-3z"/><path id="path96" fill="#583c28" d="m18 18h3v3h-3z"/><g id="g98" fill="#785439"><path id="path100" d="m18 21h3v3h-3z"/><path id="path102" d="m3 24h3v3h-3z"/><path id="path104" d="m3 27h3v3h-3z"/></g><g id="g106" fill="#956b49"><path id="path108" d="m3 30h3v3h-3z"/><path id="path110" d="m3 33h3v3h-3z"/></g><path id="path112" fill="#785439" d="m3 36h3v3h-3z"/><path id="path114" fill="#583c28" d="m3 39h3v3h-3z"/><path id="path116" fill="#956b49" d="m3 42h3v3h-.375c0 0-2.625 0-2.625-2.625z"/><path id="path118" fill="#b8845b" d="m6 24h3v3h-3z"/><path id="path120" fill="#785439" d="m6 27h3v3h-3z"/><path id="path122" fill="#583c28" d="m6 30h3v3h-3z"/><g id="g124" fill="#785439"><path id="path126" d="m6 33h3v3h-3z"/><path id="path128" d="m6 36h3v3h-3z"/></g><path id="path130" fill="#956b49" d="m6 39h3v3h-3z"/><path id="path132" fill="#785439" d="m6 42h3v3h-3z"/><path id="path134" fill="#b8845b" d="m9 24h3v3h-3z"/><path id="path136" fill="#956b49" d="m9 27h3v3h-3z"/><path id="path138" fill="#785439" d="m9 30h3v3h-3z"/><path id="path140" fill="#b8845b" d="m9 33h3v3h-3z"/><path id="path142" fill="#956b49" d="m9 36h3v3h-3z"/><g id="g144" fill="#785439"><path id="path146" d="m9 39h3v3h-3z"/><path id="path148" d="m9 42h3v3h-3z"/></g><path id="path150" fill="#956b49" d="m12 24h3v3h-3z"/><g id="g152" fill="#785439"><path id="path154" d="m12 27h3v3h-3z"/><path id="path156" d="m12 30h3v3h-3z"/></g><path id="path158" fill="#b8845b" d="m12 33h3v3h-3z"/><g id="g160" fill="#956b49"><path id="path162" d="m12 36h3v3h-3z"/><path id="path164" d="m12 39h3v3h-3z"/></g><path id="path166" fill="#583c28" d="m12 42h3v3h-3z"/><g id="g168" fill="#956b49"><path id="path170" d="m15 24h3v3h-3z"/><path id="path172" d="m15 27h3v3h-3z"/></g><path id="path174" fill="#583c28" d="m15 30h3v3h-3z"/><path id="path176" fill="#785439" d="m15 33h3v3h-3z"/><path id="path178" fill="#b8845b" d="m15 36h3v3h-3z"/><path id="path180" fill="#956b49" d="m15 39h3v3h-3z"/><g id="g182" fill="#785439"><path id="path184" d="m15 42h3v3h-3z"/><path id="path186" d="m18 24h3v3h-3z"/><path id="path188" d="m24 27h3v3h-3z"/></g><g id="g190" fill="#956b49"><path id="path192" d="m27 27h3v3h-3z"/><path id="path194" d="m30 27h3v3h-3z"/></g><g id="g196" fill="#785439"><path id="path198" d="m33 27h3v3h-3z"/><path id="path200" d="m36 27h3v3h-3z"/><path id="path202" d="m39 27h3v3h-3z"/></g><path id="path204" fill="#583c28" d="m42 27h3v3h-3z"/><path id="path206" fill="#785439" d="m24 30h3v3h-3z"/><path id="path208" fill="#583c28" d="m24 33h3v3h-3z"/><path id="path210" fill="#6b6b6b" d="m24 36h3v3h-3z"/><g id="g212" fill="#785439"><path id="path214" d="m24 39h3v3h-3z"/><path id="path216" d="m24 42h3v3h-3z"/><path id="path218" d="m27 30h3v3h-3z"/></g><path id="path220" fill="#b8845b" d="m27 33h3v3h-3z"/><path id="path222" fill="#956b49" d="m27 36h3v3h-3z"/><path id="path224" fill="#785439" d="m27 39h3v3h-3z"/><path id="path226" fill="#583c28" d="m27 42h3v3h-3z"/><path id="path228" fill="#785439" d="m30 30h3v3h-3z"/><path id="path230" fill="#b8845b" d="m30 33h3v3h-3z"/><path id="path232" fill="#956b49" d="m30 36h3v3h-3z"/><path id="path234" fill="#785439" d="m30 39h3v3h-3z"/><path id="path236" fill="#b8845b" d="m30 42h3v3h-3z"/><path id="path238" fill="#785439" d="m33 30h3v3h-3z"/><path id="path240" fill="#583c28" d="m33 33h3v3h-3z"/><g id="g242" fill="#785439"><path id="path244" d="m33 36h3v3h-3z"/><path id="path246" d="m33 39h3v3h-3z"/></g><path id="path248" fill="#583c28" d="m33 42h3v3h-3z"/><path id="path250" fill="#b8845b" d="m36 30h3v3h-3z"/><path id="path252" fill="#956b49" d="m36 33h3v3h-3z"/><path id="path254" fill="#583c28" d="m36 36h3v3h-3z"/><g id="g256" fill="#785439"><path id="path258" d="m36 39h3v3h-3z"/><path id="path260" d="m36 42h3v3h-3z"/></g><path id="path262" fill="#b8845b" d="m39 30h3v3h-3z"/><g id="g264" fill="#956b49"><path id="path266" d="m39 33h3v3h-3z"/><path id="path268" d="m39 36h3v3h-3z"/></g><path id="path270" fill="#785439" d="m39 39h3v3h-3z"/><path id="path272" fill="#b8845b" d="m39 42h3v3h-3z"/><path id="path274" fill="#785439" d="m42 30h3v3h-3z"/><path id="path276" fill="#868686" d="m42 33h3v3h-3z"/><path id="path278" fill="#785439" d="m42 36h3v3h-3z"/><path id="path280" fill="#b8845b" d="m42 39h3v3h-3z"/><path id="path282" fill="#583c28" d="m42 42h3v.375c0 0 0 2.625-2.625 2.625h-.375z"/><path id="path284" fill="#6bab41" d="m21 3h3v3h-3z"/><path id="path286" fill="#61a137" d="m21 6h3v3h-3z"/><g id="g288" fill="#583c28"><path id="path290" d="m21 9h3v3h-3z"/><path id="path292" d="m21 12h3v3h-3z"/></g><path id="path294" fill="#785439" d="m21 15h3v3h-3z"/><path id="path296" fill="#7dbd53" d="m24 3h3v3h-3z"/><path id="path298" fill="#5e9e34" d="m24 6h3v3h-3z"/><path id="path300" fill="#73b349" d="m24 9h3v3h-3z"/><path id="path302" fill="#5e9e34" d="m24 12h3v3h-3z"/><g id="g304" fill="#583c28"><path id="path306" d="m24 15h3v3h-3z"/><path id="path308" d="m24 18h3v3h-3z"/></g><path id="path310" fill="#b8845b" d="m24 21h3v3h-3z"/><path id="path312" fill="#956b49" d="m24 24h3v3h-3z"/><path id="path314" fill="#75b54b" d="m27 3h3v3h-3z"/><path id="path316" fill="#92c162" d="m27 6h3v3h-3z"/><path id="path318" fill="#7ebe54" d="m27 9h3v3h-3z"/><g id="g320" fill="#583c28"><path id="path322" d="m27 12h3v3h-3z"/><path id="path324" d="m27 15h3v3h-3z"/></g><g id="g326" fill="#785439"><path id="path328" d="m27 18h3v3h-3z"/><path id="path330" d="m27 21h3v3h-3z"/></g><path id="path332" fill="#583c28" d="m27 24h3v3h-3z"/><path id="path334" fill="#69a93f" d="m30 3h3v3h-3z"/><path id="path336" fill="#8fbe5f" d="m30 6h3v3h-3z"/><path id="path338" fill="#91c061" d="m30 9h3v3h-3z"/><path id="path340" fill="#6cac42" d="m30 12h3v3h-3z"/><path id="path342" fill="#583c28" d="m30 15h3v3h-3z"/><path id="path344" fill="#785439" d="m30 18h3v3h-3z"/><path id="path346" fill="#b8845b" d="m30 21h3v3h-3z"/><path id="path348" fill="#956b49" d="m30 24h3v3h-3z"/><path id="path350" fill="#66a63c" d="m33 3h3v3h-3z"/><path id="path352" fill="#72b248" d="m33 6h3v3h-3z"/><path id="path354" fill="#96c566" d="m33 9h3v3h-3z"/><path id="path356" fill="#583c28" d="m33 12h3v3h-3z"/><path id="path358" fill="#6b6b6b" d="m33 15h3v3h-3z"/><path id="path360" fill="#583c28" d="m33 18h3v3h-3z"/><path id="path362" fill="#b8845b" d="m33 21h3v3h-3z"/><path id="path364" fill="#956b49" d="m33 24h3v3h-3z"/><path id="path366" fill="#68a83e" d="m36 3h3v3h-3z"/><path id="path368" fill="#60a036" d="m36 6h3v3h-3z"/><path id="path370" fill="#583c28" d="m36 9h3v3h-3z"/><g id="g372" fill="#785439"><path id="path374" d="m36 12h3v3h-3z"/><path id="path376" d="m36 15h3v3h-3z"/><path id="path378" d="m36 18h3v3h-3z"/><path id="path380" d="m36 21h3v3h-3z"/><path id="path382" d="m36 24h3v3h-3z"/></g><path id="path384" fill="#60a036" d="m39 3h3v3h-3z"/><path id="path386" fill="#6bab41" d="m39 6h3v3h-3z"/><path id="path388" fill="#56962c" d="m39 9h3v3h-3z"/><path id="path390" fill="#583c28" d="m39 12h3v3h-3z"/><path id="path392" fill="#956b49" d="m39 15h3v3h-3z"/><path id="path394" fill="#785439" d="m39 18h3v3h-3z"/><path id="path396" fill="#956b49" d="m39 21h3v3h-3z"/><path id="path398" fill="#785439" d="m39 24h3v3h-3z"/><path id="path400" fill="#4f8f25" d="m42 3h.375c0 0 2.625 0 2.625 2.625v.375h-3z"/><path id="path402" fill="#66a63c" d="m42 6h3v3h-3z"/><path id="path404" fill="#4f8f25" d="m42 9h3v3h-3z"/><g id="g406" fill="#583c28"><path id="path408" d="m42 12h3v3h-3z"/><path id="path410" d="m42 15h3v3h-3z"/></g><g id="g412" fill="#785439"><path id="path414" d="m42 18h3v3h-3z"/><path id="path416" d="m42 21h3v3h-3z"/></g><path id="path418" fill="#956b49" d="m42 24h3v3h-3z"/><path id="path420" fill="#75b54b" d="m3 5.625c0-2.625 2.625-2.625 2.625-2.625h.375v3h-3z"/><path id="path422" fill="#6bab41" d="m3 6h3v3h-3z"/><path id="path424" fill="#583c28" d="m3 9h3v3h-3z"/><path id="path426" fill="#6b6b6b" d="m3 12h3v3h-3z"/><path id="path428" fill="#785439" d="m3 15h3v3h-3z"/><path id="path430" fill="#72b248" d="m6 3h3v3h-3z"/><path id="path432" fill="#89b859" d="m6 6h3v3h-3z"/><path id="path434" fill="#9bca6b" d="m6 9h3v3h-3z"/><path id="path436" fill="#583c28" d="m6 12h3v3h-3z"/><path id="path438" fill="#956b49" d="m6 15h3v3h-3z"/><path id="path440" fill="#65a53b" d="m9 3h3v3h-3z"/><path id="path442" fill="#80af50" d="m9 6h3v3h-3z"/><path id="path444" fill="#63a339" d="m9 9h3v3h-3z"/><path id="path446" fill="#583c28" d="m9 12h3v3h-3z"/><path id="path448" fill="#b8845b" d="m9 15h3v3h-3z"/><path id="path450" fill="#65a53b" d="m12 3h3v3h-3z"/><path id="path452" fill="#82b152" d="m12 6h3v3h-3z"/><path id="path454" fill="#68a83e" d="m12 9h3v3h-3z"/><path id="path456" fill="#70b046" d="m12 12h3v3h-3z"/><path id="path458" fill="#583c28" d="m12 15h3v3h-3z"/><path id="path460" fill="#6eae44" d="m15 3h3v3h-3z"/><g id="g462" fill="#583c28"><path id="path464" d="m15 6h3v3h-3z"/><path id="path466" d="m15 9h3v3h-3z"/><path id="path468" d="m15 12h3v3h-3z"/></g><path id="path470" fill="#956b49" d="m15 15h3v3h-3z"/><path id="path472" fill="#5e9e34" d="m18 3h3v3h-3z"/><path id="path474" fill="#67a73d" d="m18 6h3v3h-3z"/><path id="path476" fill="#6faf45" d="m18 9h3v3h-3z"/><path id="path478" fill="#583c28" d="m18 12h3v3h-3z"/><path id="path480" fill="#785439" d="m18 15h3v3h-3z"/></g><g id="g482" fill="none" stroke-linecap="round" stroke-linejoin="round"><rect id="rect484" width="39" height="39" x="4.5" y="5.5" stroke="#000" color="#000" opacity=".3" rx="2"/><rect id="rect486" width="37" height="37" x="5.5" y="6.5" stroke="url(#1)" opacity=".5" rx="1"/></g></svg>