<svg xmlns="http://www.w3.org/2000/svg" xmlns:xlink="http://www.w3.org/1999/xlink" id="svg4031" width="48" height="48" version="1.1"><defs id="defs4033"><linearGradient id="linearGradient4004" x1="105.43" x2="88.103" y1="75.915" y2="106.74" gradientTransform="matrix(0.3325541,0,0,0.33194371,6.1994245,6.8646624)" gradientUnits="userSpaceOnUse"><stop id="stop4022" offset="0" stop-color="#FFF"/><stop id="stop4028" offset="1" stop-color="#FFF" stop-opacity=".392"/></linearGradient><linearGradient id="linearGradient3962" x1="93.816" x2="86.356" y1="10.463" y2="82.097" gradientTransform="matrix(0.36296358,0,0,0.36274628,0.98665855,0.87067219)" gradientUnits="userSpaceOnUse"><stop id="stop3966" offset="0" stop-color="#FFF"/><stop id="stop3968" offset=".307" stop-color="#FFF" stop-opacity=".235"/><stop id="stop3970" offset=".777" stop-color="#FFF" stop-opacity=".157"/><stop id="stop3972" offset="1" stop-color="#FFF" stop-opacity=".392"/></linearGradient><linearGradient id="linearGradient4062" x1="90.726" x2="89.038" y1="60.429" y2="127.88" gradientTransform="matrix(0.3754169,0,0,0.37505186,0.25269434,0.38304633)" gradientUnits="userSpaceOnUse"><stop id="stop3929" offset="0" stop-color="#6cf46c"/><stop id="stop3935" offset="1" stop-color="#158415"/></linearGradient><linearGradient id="linearGradient4054" x1="45.176" x2="46.816" y1="4.968" y2="126.17" gradientTransform="matrix(0.37539058,0,0,0.37502898,-0.20508654,0.26016414)" gradientUnits="userSpaceOnUse"><stop id="stop3890" offset="0" stop-color="#ff8f6e"/><stop id="stop3896" offset="1" stop-color="#c10500"/></linearGradient><linearGradient id="linearGradient4046" x1="88.09" x2="86.977" y1="82.382" y2="8.542" gradientTransform="matrix(0.3754169,0,0,0.37505186,-0.20531017,0.26003082)" gradientUnits="userSpaceOnUse"><stop id="stop4060" offset="0" stop-color="#2d75db"/><stop id="stop4062" offset="1" stop-color="#9bc5ff"/></linearGradient><radialGradient id="radialGradient3819" cx="99.157" cy="186.17" r="62.769" gradientTransform="matrix(0.22676457,0,0,0.08054098,-0.21706485,25.990734)" gradientUnits="userSpaceOnUse" xlink:href="#linearGradient3820-7-2-8-6"/><linearGradient id="linearGradient3820-7-2-8-6"><stop id="stop3822-2-6-5-0" offset="0" stop-color="#3d3d3d"/><stop id="stop3864-8-7-4-1" offset=".5" stop-color="#686868" stop-opacity=".498"/><stop id="stop3824-1-2-6-7" offset="1" stop-color="#686868" stop-opacity="0"/></linearGradient><radialGradient id="radialGradient4061" cx="99.157" cy="186.17" r="62.769" gradientTransform="matrix(0.08921588,0,0,0.07461595,31.676975,26.875546)" gradientUnits="userSpaceOnUse" xlink:href="#linearGradient3820-7-2-8-6"/><linearGradient id="linearGradient3108" x1="54.32" x2="54.506" y1="11.726" y2="121.18" gradientTransform="matrix(0.36568477,0,0,0.36889161,0.17583327,0.70939684)" gradientUnits="userSpaceOnUse"><stop id="stop3915" offset="0" stop-color="#FFF"/><stop id="stop3917" offset=".405" stop-color="#FFF" stop-opacity=".235"/><stop id="stop3919" offset=".892" stop-color="#FFF" stop-opacity=".157"/><stop id="stop3921" offset="1" stop-color="#FFF" stop-opacity=".392"/></linearGradient></defs><metadata id="metadata4036"/><path id="path3093" fill="url(#radialGradient4061)" d="m46.123,40.767a5.6,4.6836,0,0,1,-11.2,0,5.6,4.6836,0,1,1,11.2,0z" opacity=".317"/><path id="path3818-0-5-0" fill="url(#radialGradient3819)" d="m36.502,40.985a14.234,5.0555,0,1,1,-28.468,0,14.234,5.0555,0,1,1,28.468,0z"/><path id="path2555-5" fill="url(#linearGradient4046)" fill-rule="nonzero" d="m25.511,5.5109,0,19.503,17.774,8.0636c1.1217-2.4593,1.748-5.1875,1.748-8.0636,0-10.761-8.7503-19.503-19.522-19.503z" color="#000" enable-background="accumulate"/><path id="path3828" fill="url(#linearGradient4054)" fill-rule="nonzero" d="m22.506,5.5106c-10.771,0-19.52,8.7412-19.52,19.502,0,10.76,8.7497,19.502,19.52,19.502,4.5106,0,8.6581-1.5412,11.966-4.1136l-11.966-15.388v-19.502z" color="#000" enable-background="accumulate"/><path id="path3852" fill="url(#linearGradient4062)" d="m28.228,28.644,11.966,15.389c2.4797-1.9285,4.4897-4.4365,5.8072-7.3252l-17.773-8.064z"/><path id="path3879" fill="none" stroke="#760300" stroke-width="1" d="m22.506,5.5106c-10.771,0-19.52,8.7412-19.52,19.502,0,10.76,8.7497,19.502,19.52,19.502,4.5106,0,8.6581-1.5412,11.966-4.1136l-11.966-15.388v-19.502z" color="#000" enable-background="accumulate" opacity=".4"/><path id="path3883" fill="none" stroke="#143b73" stroke-width="1" d="m25.511,5.5109,0,19.503,17.774,8.0636c1.1216-2.4593,1.748-5.1875,1.748-8.0636,0-10.761-8.7503-19.503-19.522-19.503z" color="#000" enable-background="accumulate" opacity=".4"/><path id="path3885" fill="none" stroke="#0a410a" stroke-dasharray="none" stroke-linecap="butt" stroke-linejoin="miter" stroke-miterlimit="4.3" stroke-width="1" d="m28.228,28.644,11.966,15.389c2.4797-1.9285,4.4897-4.4365,5.8072-7.3252l-17.773-8.064z" opacity=".4"/><path id="path3887" fill="none" stroke="url(#linearGradient3108)" stroke-width="1" d="M4.0831,23.324c-1.1939,16.561,17.011,25.393,28.95,16.877-3.787-4.954-7.857-9.856-11.541-14.875-0.067-6.25,0.051-12.576,0.015-18.826-10.738,0.6991-17.086,9.711-17.424,16.824z" color="#000" enable-background="accumulate" opacity=".4"/><path id="path3923" fill="none" stroke="url(#linearGradient3962)" stroke-width="1" d="m26.521,24.383c5.5201,2.5166,10.712,4.8281,16.232,7.3447,5.0208-12.244-3.6207-24.755-16.236-25.177,0,6.0798,0.0046,11.753,0.0046,17.832z" color="#000" enable-background="accumulate" opacity=".4"/><path id="path3974" fill="none" stroke="url(#linearGradient4004)" stroke-dasharray="none" stroke-miterlimit="4.2" stroke-width="1" d="m40.36,42.596c1.8545-1.5319,3.2931-3.4081,4.2823-5.3978-4.4754-2.0012-13.116-5.9505-13.116-5.9505s6.2764,8.1218,8.8337,11.348z" opacity=".4"/></svg>