<svg xmlns="http://www.w3.org/2000/svg" xmlns:xlink="http://www.w3.org/1999/xlink" id="svg4031" width="48" height="48" version="1.1"><defs id="defs4033"><linearGradient id="linearGradient3074" x1="71.204" x2="71.204" y1="6.238" y2="44.341" gradientTransform="matrix(1.054054,0,0,1.054054,-51.611001,-2.7279009)" gradientUnits="userSpaceOnUse"><stop id="stop4013" offset="0" stop-color="#FFF"/><stop id="stop4015" offset=".508" stop-color="#FFF" stop-opacity=".235"/><stop id="stop4017" offset=".835" stop-color="#FFF" stop-opacity=".157"/><stop id="stop4019" offset="1" stop-color="#FFF" stop-opacity=".392"/></linearGradient><radialGradient id="radialGradient3077" cx="8.5" cy="8.45" r="20" gradientTransform="matrix(-0.02329746,1.621872,-1.3059683,-0.01875966,35.23327,-4.5679108)" gradientUnits="userSpaceOnUse"><stop id="stop4087" offset="0" stop-color="#06abec"/><stop id="stop4093" offset=".144" stop-color="#0da6f6"/><stop id="stop4091" offset=".326" stop-color="#1e9df5"/><stop id="stop4089" offset="1" stop-color="#1953f1"/></radialGradient><radialGradient id="radialGradient3080" cx="99.157" cy="186.17" r="62.769" gradientTransform="matrix(0.27083381,0,0,0.08762273,-2.855072,25.187228)" gradientUnits="userSpaceOnUse"><stop id="stop3822-2-6-3" offset="0" stop-color="#3d3d3d"/><stop id="stop3864-8-7-7" offset=".5" stop-color="#686868" stop-opacity=".498"/><stop id="stop3824-1-2-5" offset="1" stop-color="#686868" stop-opacity="0"/></radialGradient></defs><metadata id="metadata4036"/><path id="path3818-0-5" fill="url(#radialGradient3080)" d="m41,41.5a17,5.5,0,1,1,-34,0,17,5.5,0,1,1,34,0z"/><path id="path2555" fill="url(#radialGradient3077)" fill-rule="nonzero" d="M24,3.5c-11.311,0-20.5,9.189-20.5,20.5s9.189,20.5,20.5,20.5,20.5-9.189,20.5-20.5-9.189-20.5-20.5-20.5z" color="#000" enable-background="accumulate"/><path id="path8655" fill="none" stroke="url(#linearGradient3074)" stroke-dasharray="none" stroke-dashoffset="0" stroke-linecap="round" stroke-linejoin="round" stroke-miterlimit="4" stroke-width="1" d="m43.5,23.999c0,10.77-8.7311,19.501-19.5,19.501-10.77,0-19.5-8.7309-19.5-19.501,0-10.769,8.7306-19.499,19.5-19.499s19.5,8.73,19.5,19.499z" color="#000" enable-background="accumulate" opacity=".5"/><path id="path2555-6" fill="none" stroke="#00537d" stroke-dasharray="none" stroke-dashoffset="0" stroke-linecap="round" stroke-linejoin="round" stroke-miterlimit="4" stroke-width="1" d="m24,3.5c-11.311,0-20.5,9.1888-20.5,20.5s9.1888,20.5,20.5,20.5,20.5-9.1888,20.5-20.5-9.1888-20.5-20.5-20.5z" color="#000" enable-background="accumulate" opacity=".5"/><path id="path3803" fill="none" stroke="#000" stroke-dasharray="none" stroke-miterlimit="4" stroke-width="2" d="m24.976,13.023,0,20.106,2.2299,0,0-2.3284c1.3013,0.77901,2.8847,1.2065,4.472,1.2073,2.0456-0.0019,4.0778-0.72495,5.5235-1.9654,1.4457-1.2405,2.2872-2.9831,2.2872-4.7365,0.000004-1.7534-0.84149-3.496-2.2872-4.7365s-3.4779-1.9636-5.5235-1.9654c-1.5873,0.000828-3.1707,0.42832-4.472,1.2073v-6.7882zm-4.472,4.4721,0,2.3284c-1.2997-0.78333-2.8832-1.2152-4.472-1.2197-2.0456,0.0019-4.0778,0.72495-5.5235,1.9654-1.4457,1.2405-2.2872,2.9831-2.2872,4.7365s0.84149,3.496,2.2872,4.7365,3.4778,1.9636,5.5235,1.9654c1.5858,0.0028,3.169-0.42032,4.472-1.195v6.7882h2.2299v-20.106zm-4.472,3.351c1.73,0.0017,3.4384,0.68877,4.472,1.7987v5.3344c-1.0336,1.1099-2.742,1.797-4.472,1.7987-1.4623-0.000864-2.9152-0.48336-3.9483-1.3112-1.0331-0.82789-1.6339-1.991-1.6325-3.1608,0.003-1.1678,0.60521-2.3276,1.638-3.1528,1.0328-0.8253,2.4831-1.306,3.9429-1.3069zm15.646,0c1.4597,0.000869,2.9101,0.48159,3.9428,1.3069,1.0328,0.8253,1.6353,1.9851,1.638,3.1528,0.0013,1.1698-0.59937,2.3329-1.6325,3.1608-1.0331,0.82789-2.486,1.3104-3.9483,1.3112-1.7301-0.0017-3.4385-0.68877-4.472-1.7987v-5.3344c1.0336-1.1099,2.742-1.797,4.472-1.7987z" opacity=".15"/><path id="path3033" fill="#000" d="m24.976,13.023,0,20.106,2.2299,0,0-2.3284c1.3013,0.77901,2.8847,1.2065,4.472,1.2073,2.0456-0.0019,4.0778-0.72495,5.5235-1.9654,1.4457-1.2405,2.2872-2.9831,2.2872-4.7365,0.000004-1.7534-0.84149-3.496-2.2872-4.7365s-3.4779-1.9636-5.5235-1.9654c-1.5873,0.000827-3.1707,0.42832-4.472,1.2073v-6.7882zm-4.472,4.4721,0,2.3284c-1.2997-0.78334-2.8832-1.2152-4.472-1.2196-2.0456,0.0019-4.0778,0.72495-5.5235,1.9654-1.4457,1.2405-2.2872,2.9831-2.2872,4.7365s0.84149,3.496,2.2872,4.7365,3.4778,1.9636,5.5235,1.9654c1.5858,0.0028,3.169-0.42033,4.472-1.195v6.7882h2.2299v-20.106zm-4.472,3.351c1.73,0.0017,3.4384,0.68877,4.472,1.7987v5.3344c-1.0336,1.1099-2.742,1.797-4.472,1.7987-1.4623-0.000865-2.9152-0.48336-3.9483-1.3112-1.0331-0.82789-1.6338-1.991-1.6325-3.1608,0.003-1.1678,0.60521-2.3276,1.638-3.1528,1.0328-0.8253,2.4831-1.306,3.9429-1.3069zm15.646,0c1.4597,0.000867,2.9101,0.48159,3.9428,1.3069,1.0328,0.8253,1.6353,1.9851,1.638,3.1528,0.0013,1.1698-0.59937,2.3329-1.6325,3.1608-1.0331,0.82789-2.486,1.3104-3.9483,1.3112-1.7301-0.0017-3.4385-0.68877-4.472-1.7987v-5.3344c1.0336-1.1099,2.742-1.797,4.472-1.7987z" opacity=".15"/><path id="path3060" fill="#FFF" d="m24.976,12.023,0,20.106,2.2299,0,0-2.3284c1.3013,0.77901,2.8847,1.2065,4.472,1.2073,2.0456-0.0019,4.0778-0.72495,5.5235-1.9654,1.4457-1.2405,2.2872-2.9831,2.2872-4.7365,0.000004-1.7534-0.84149-3.496-2.2872-4.7365s-3.4779-1.9636-5.5235-1.9654c-1.5873,0.000828-3.1707,0.42832-4.472,1.2073v-6.7882zm-4.472,4.4721,0,2.3284c-1.2997-0.78333-2.8832-1.2152-4.472-1.2197-2.0456,0.0019-4.0778,0.72495-5.5235,1.9654-1.4457,1.2405-2.2872,2.9831-2.2872,4.7365s0.84149,3.496,2.2872,4.7365,3.4778,1.9636,5.5235,1.9654c1.5858,0.0028,3.169-0.42032,4.472-1.195v6.7882h2.2299v-20.106zm-4.472,3.351c1.73,0.0017,3.4384,0.68877,4.472,1.7987v5.3344c-1.0336,1.1099-2.742,1.797-4.472,1.7987-1.4623-0.000866-2.9152-0.48336-3.9483-1.3112-1.0331-0.82789-1.6338-1.991-1.6325-3.1608,0.003-1.1678,0.60521-2.3276,1.638-3.1528,1.0328-0.8253,2.4831-1.306,3.9429-1.3069zm15.646,0c1.4597,0.000867,2.9101,0.48159,3.9428,1.3069,1.0328,0.8253,1.6353,1.9851,1.638,3.1528,0.0013,1.1698-0.59937,2.3329-1.6325,3.1608-1.0331,0.82789-2.486,1.3104-3.9483,1.3112-1.7301-0.0017-3.4385-0.68877-4.472-1.7987v-5.3344c1.0336-1.1099,2.742-1.797,4.472-1.7987z"/></svg>