<svg xmlns="http://www.w3.org/2000/svg" xmlns:xlink="http://www.w3.org/1999/xlink" width="48" height="48" version="1.1"><defs><linearGradient id="f"><stop offset="0" stop-color="#3465a4" stop-opacity="0"/><stop offset=".265" stop-color="#3465a4"/><stop offset=".688" stop-color="#3465a4"/><stop offset="1" stop-color="#3465a4" stop-opacity="0"/></linearGradient><linearGradient id="g"><stop offset="0"/><stop offset="1" stop-opacity="0"/></linearGradient><linearGradient id="e" x1="-33.684" x2="-33.35" y1="34.661" y2="15.605" gradientUnits="userSpaceOnUse" xlink:href="#f"/><linearGradient id="d" x1="-34.357" x2="-34.247" y1="34.111" y2="16.024" gradientUnits="userSpaceOnUse" xlink:href="#f"/><radialGradient id="h" cx="25.812" cy="26.375" r="3.063" gradientTransform="matrix(1 0 0 .97959 0 .53827)" gradientUnits="userSpaceOnUse"><stop offset="0" stop-color="#fff"/><stop offset="1" stop-color="#fff" stop-opacity="0"/></radialGradient><linearGradient id="c" x1="23.544" x2="27.572" y1="14.335" y2="27.696" gradientUnits="userSpaceOnUse"><stop offset="0" stop-color="#747474"/><stop offset="1" stop-color="#cbcbcb"/></linearGradient><linearGradient id="b" x1="23.869" x2="26.22" y1="17.664" y2="21.333" gradientUnits="userSpaceOnUse"><stop offset="0" stop-color="#fff"/><stop offset="1" stop-color="#b0b0b0"/></linearGradient><linearGradient id="a" x1="27.544" x2="20.053" y1="29.849" y2="10.326" gradientUnits="userSpaceOnUse"><stop offset="0" stop-color="#fff"/><stop offset="1" stop-color="#fff" stop-opacity="0"/></linearGradient><linearGradient id="k" x1="23.062" x2="23.438" y1="8.469" y2="43.844" gradientUnits="userSpaceOnUse"><stop offset="0" stop-color="#b3b3b3"/><stop offset="1" stop-color="#d3d3d3"/></linearGradient><linearGradient id="o" x1="10.877" x2="36.936" y1="6.5" y2="6.5" gradientTransform="matrix(1.0001 0 0 1.0001 -.000052518 -1.005)" gradientUnits="userSpaceOnUse"><stop offset="0" stop-color="#fff" stop-opacity="0"/><stop offset=".245" stop-color="#fff"/><stop offset=".773" stop-color="#fff"/><stop offset="1" stop-color="#fff" stop-opacity="0"/></linearGradient><linearGradient id="n" x1="25.271" x2="25.511" y1="1.8" y2="44.401" gradientTransform="matrix(1.0449 0 0 1.019 -2.3976 -1.249)" gradientUnits="userSpaceOnUse"><stop offset="0" stop-color="#b5b5b5"/><stop offset=".128" stop-color="#e9e9e9"/><stop offset=".15" stop-color="#fff"/><stop offset="1" stop-color="#b5b5b5"/></linearGradient><linearGradient id="m" x1="22.429" x2="22.615" y1="1.757" y2="44.307" gradientTransform="matrix(1.0449 0 0 1.019 -2.3976 -1.249)" gradientUnits="userSpaceOnUse"><stop offset="0" stop-color="#969696"/><stop offset=".129" stop-color="#555753"/><stop offset=".153" stop-color="#a0a0a0"/><stop offset="1" stop-color="#555753"/></linearGradient><radialGradient id="j" cx="5" cy="41.5" r="5" gradientTransform="matrix(.58947 0 0 1.5 34.739 -102.81)" gradientUnits="userSpaceOnUse" xlink:href="#g"/><linearGradient id="l" x1="17.554" x2="17.554" y1="46" y2="35" gradientTransform="matrix(1.7441 0 0 1.3636 -58.616 -14.665)" gradientUnits="userSpaceOnUse"><stop offset="0" stop-opacity="0"/><stop offset=".5"/><stop offset="1" stop-opacity="0"/></linearGradient><radialGradient id="i" cx="5" cy="41.5" r="5" gradientTransform="matrix(.58947 0 0 1.5 -.51080 -102.81)" gradientUnits="userSpaceOnUse" xlink:href="#g"/></defs><g transform="matrix(.68983 0 0 .74818 36.161 11.041)"><rect width="2.938" height="15" x="37.687" y="-48.062" fill="url(#j)" opacity=".4" transform="scale(-1)"/><rect width="40.115" height="15" x="-37.687" y="33.062" fill="url(#l)" opacity=".4"/><rect width="2.938" height="15" x="2.437" y="-48.062" fill="url(#i)" opacity=".4" transform="scale(1,-1)"/></g><path fill="url(#n)" stroke="url(#m)" stroke-linecap="round" stroke-linejoin="round" d="m14.424 1.5265c-1.327 0-2.093 0.4948-2.407 1.2502l-2.4848 4.2192c0.0141 0.3381-0.0623 0.6643-0.0938 1.0001l0.0938 34.097c0 1.33 1.0458 2.407 2.3748 2.407h24.253c1.329 0 2.406-1.077 2.406-2.407v-34.097l-0.093-1.0001-2.595-4.2192c-0.446-0.7716-1.049-1.2502-2.375-1.2502h-19.079v0z"/><path fill="url(#c)" fill-rule="evenodd" stroke="#5a5a5a" stroke-linecap="round" stroke-linejoin="round" stroke-width=".929" d="m33.941 19.665a9.0409 9.0409 0 1 1 -18.082 0 9.0409 9.0409 0 1 1 18.082 0z" transform="matrix(1.0766 0 0 1.0766 -2.805 -1.1081)"/><path fill="url(#b)" fill-rule="evenodd" stroke="#696969" stroke-linecap="round" stroke-linejoin="round" stroke-width=".969" d="m24.906 16.75c-1.683 0-2.906 1.223-2.906 2.906 0 1.684 1.248 2.938 2.906 2.938s2.906-1.254 2.906-2.938c0-1.683-1.222-2.906-2.906-2.906z" transform="matrix(1.0319 0 0 1.0319 -1.6976 -.23543)"/><path fill="none" stroke="url(#a)" stroke-linecap="round" stroke-linejoin="round" stroke-width=".969" d="m24.906 9.1562c-5.779 0-10.5 4.7208-10.5 10.5 0 5.779 4.715 10.532 10.5 10.532 5.786 0 10.5-4.753 10.5-10.532s-4.721-10.5-10.5-10.5z" transform="matrix(1.0319 0 0 1.0319 -1.6976 -.23543)"/><path fill="none" stroke="url(#k)" stroke-linecap="round" stroke-linejoin="round" stroke-width="1" d="m11.844 6.625c-0.79 0-1.406 0.6199-1.406 1.4062l0.093 34.094c0 0.786 0.608 1.437 1.407 1.437h24.218c0.799 0 1.406-0.651 1.406-1.437v-34.094c0-0.7861-0.616-1.406-1.406-1.406h-24.312z" transform="matrix(1.0001 0 0 1.0001 -.000052518 -.0048650)"/><g stroke-linecap="round" stroke-linejoin="round" stroke-width="2.571"><path fill="url(#c)" fill-rule="evenodd" stroke="#5a5a5a" d="m33.941 19.665a9.0409 9.0409 0 1 1 -18.082 0 9.0409 9.0409 0 1 1 18.082 0z" transform="matrix(.37705 0 0 .37705 13.416 10.147) matrix(1.0318 0 0 1.0318 -13.126 51.132)"/><path fill="url(#b)" fill-rule="evenodd" stroke="#696969" d="m24.906 15.969c-2.111 0-3.687 1.576-3.687 3.687 0 2.112 1.598 3.719 3.687 3.719s3.688-1.607 3.688-3.719c0-2.111-1.576-3.687-3.688-3.687z" transform="matrix(.37705 0 0 .37705 13.416 10.147) matrix(1.0318 0 0 1.0318 -13.126 51.132)"/><path fill="none" stroke="url(#a)" d="m24.906 7.9688c-6.424 0-11.687 5.2632-11.687 11.687 0 6.424 5.252 11.719 11.687 11.719s11.688-5.295 11.688-11.719-5.264-11.687-11.688-11.687z" transform="matrix(.37705 0 0 .37705 13.416 10.147) matrix(1.0318 0 0 1.0318 -13.126 51.132)"/></g><g stroke-linecap="round" stroke-linejoin="round" stroke-width="2.571"><path fill="url(#c)" fill-rule="evenodd" stroke="#5a5a5a" d="m33.941 19.665a9.0409 9.0409 0 1 1 -18.082 0 9.0409 9.0409 0 1 1 18.082 0z" transform="matrix(.37705 0 0 .37705 25.109 10.147) matrix(1.0318 0 0 1.0318 -13.126 51.132)"/><path fill="url(#b)" fill-rule="evenodd" stroke="#696969" d="m24.906 15.969c-2.111 0-3.687 1.576-3.687 3.687 0 2.112 1.598 3.719 3.687 3.719s3.688-1.607 3.688-3.719c0-2.111-1.576-3.687-3.688-3.687z" transform="matrix(.37705 0 0 .37705 25.109 10.147) matrix(1.0318 0 0 1.0318 -13.126 51.132)"/><path fill="none" stroke="url(#a)" d="m24.906 7.9688c-6.424 0-11.687 5.2632-11.687 11.687 0 6.424 5.252 11.719 11.687 11.719s11.688-5.295 11.688-11.719-5.264-11.687-11.688-11.687z" transform="matrix(.37705 0 0 .37705 25.109 10.147) matrix(1.0318 0 0 1.0318 -13.126 51.132)"/></g><path fill="url(#h)" d="m28.875 26.375a3.0625 3 0 1 1 -6.125 0 3.0625 3 0 1 1 6.125 0z" opacity=".4" transform="matrix(1.2654 0 0 1.2293 -6.6615 -6.7373)"/><path fill="none" stroke="url(#o)" stroke-linecap="round" stroke-width="1" d="m11.378 5.4957h25.062" opacity=".4"/><g fill="none" stroke-linecap="round" stroke-linejoin="round"><path stroke="url(#e)" stroke-width=".816" d="m-29.85 33.8a11 11 0 0 1 -0.047 -17.565" transform="matrix(1.0001 0 0 1.0001 -.72286 -.0048650) matrix(1.1484 0 0 1.3075 47.524 -12.881)"/><path stroke="url(#d)" stroke-width=".59" d="m-29.85 33.8a11 11 0 0 1 -0.047 -17.565" transform="matrix(1.0001 0 0 1.0001 -.72286 -.0048650) matrix(1.5892 0 0 1.8093 55.653 -25.435)"/></g><g fill="none" stroke-linecap="round" stroke-linejoin="round"><path stroke="url(#e)" stroke-width=".816" d="m-29.85 33.8a11 11 0 0 1 -0.047 -17.565" transform="matrix(-1.0001 0 0 1.0001 48.728 -.0048651) matrix(1.1484 0 0 1.3075 47.524 -12.881)"/><path stroke="url(#d)" stroke-width=".59" d="m-29.85 33.8a11 11 0 0 1 -0.047 -17.565" transform="matrix(-1.0001 0 0 1.0001 48.728 -.0048651) matrix(1.5892 0 0 1.8093 55.653 -25.435)"/></g></svg>