<svg xmlns="http://www.w3.org/2000/svg" xmlns:svg="http://www.w3.org/2000/svg" xmlns:xlink="http://www.w3.org/1999/xlink" id="svg4031" width="48" height="48" version="1.1"><defs id="defs4033"><linearGradient id="linearGradient4168"><stop id="stop4170" offset="0" stop-color="#f8b17e" stop-opacity="1"/><stop id="stop4172" offset=".232" stop-color="#e35d4f" stop-opacity="1"/><stop id="stop4174" offset=".591" stop-color="#c6262e" stop-opacity="1"/><stop id="stop4176" offset="1" stop-color="#690b54" stop-opacity="1"/></linearGradient><linearGradient id="linearGradient3957"><stop id="stop3959" offset="0" stop-color="#fff" stop-opacity="1"/><stop id="stop3961" offset="1" stop-color="#c1c1c1" stop-opacity="1"/></linearGradient><linearGradient id="linearGradient4011"><stop id="stop4013" offset="0" stop-color="#fff" stop-opacity="1"/><stop id="stop4015" offset=".508" stop-color="#fff" stop-opacity=".235"/><stop id="stop4017" offset=".835" stop-color="#fff" stop-opacity=".157"/><stop id="stop4019" offset="1" stop-color="#fff" stop-opacity=".392"/></linearGradient><linearGradient id="linearGradient2867-449-88-871-390-598-476-591-434-148-57-177-3-8"><stop id="stop3750-8-9" offset="0" stop-color="#bebebe" stop-opacity="1"/><stop id="stop3752-3-2" offset=".262" stop-color="#969696" stop-opacity="1"/><stop id="stop3754-7-2" offset=".705" stop-color="#8e8e8e" stop-opacity="1"/><stop id="stop3756-9-3" offset="1" stop-color="#666" stop-opacity="1"/></linearGradient><linearGradient id="linearGradient3820-7-2-1"><stop id="stop3822-2-6-3" offset="0" stop-color="#3d3d3d" stop-opacity="1"/><stop id="stop3864-8-7-7" offset=".5" stop-color="#686868" stop-opacity=".498"/><stop id="stop3824-1-2-5" offset="1" stop-color="#686868" stop-opacity="0"/></linearGradient><linearGradient id="linearGradient3012" x1="71.204" x2="71.204" y1="6.238" y2="44.341" gradientTransform="matrix(1.054054,0,0,1.054054,-51.611001,-2.7279009)" gradientUnits="userSpaceOnUse" xlink:href="#linearGradient4011"/><radialGradient id="radialGradient3015" cx="3.972" cy="8.45" r="20" fx="3.972" fy="8.45" gradientTransform="matrix(0,2.4988347,-2.6434689,-6.8014435e-8,46.336814,-12.180468)" gradientUnits="userSpaceOnUse" xlink:href="#linearGradient2867-449-88-871-390-598-476-591-434-148-57-177-3-8-9"/><radialGradient id="radialGradient3018" cx="99.157" cy="186.171" r="62.769" fx="99.157" fy="186.171" gradientTransform="matrix(0.27083381,0,0,0.08762273,-2.855072,25.187228)" gradientUnits="userSpaceOnUse" xlink:href="#linearGradient3820-7-2-1"/><linearGradient id="linearGradient3951" x1="27.925" x2="33.448" y1="15.149" y2="22.986" gradientUnits="userSpaceOnUse" xlink:href="#linearGradient4168"/><linearGradient id="linearGradient3963" x1="24" x2="24" y1="22" y2="26" gradientUnits="userSpaceOnUse" xlink:href="#linearGradient3957"/><linearGradient id="linearGradient3963-7" x1="21.014" x2="22.806" y1="25.434" y2="27.344" gradientUnits="userSpaceOnUse" xlink:href="#linearGradient3957-2"/><linearGradient id="linearGradient3957-2"><stop id="stop3959-62" offset="0" stop-color="#fff" stop-opacity="1"/><stop id="stop3961-5" offset="1" stop-color="#c1c1c1" stop-opacity="1"/></linearGradient><linearGradient id="linearGradient3801" x1="16.416" x2="16.416" y1="-2.6" y2="37.601" gradientUnits="userSpaceOnUse" xlink:href="#linearGradient4011"/><radialGradient id="radialGradient5015" cx="99.157" cy="186.171" r="62.769" fx="99.157" fy="186.171" gradientTransform="matrix(1,0,0,0.1666667,0,155.14216)" gradientUnits="userSpaceOnUse" xlink:href="#linearGradient3820-7-2"/><linearGradient id="linearGradient3820-7-2"><stop id="stop3822-2-6" offset="0" stop-color="#3d3d3d" stop-opacity="1"/><stop id="stop3864-8-7" offset=".5" stop-color="#686868" stop-opacity=".498"/><stop id="stop3824-1-2" offset="1" stop-color="#686868" stop-opacity="0"/></linearGradient><radialGradient id="radialGradient5007" cx="15.645" cy="8.45" r="20" fx="-.223" fy="8.45" gradientTransform="matrix(-9.6613255e-8,1.5876869,-1.495831,-1.0935756e-7,44.6396,2.8743392)" gradientUnits="userSpaceOnUse" xlink:href="#linearGradient2867-449-88-871-390-598-476-591-434-148-57-177-3-8-9"/><linearGradient id="linearGradient2867-449-88-871-390-598-476-591-434-148-57-177-3-8-9"><stop id="stop3750-8-9-2" offset="0" stop-color="#8de53e" stop-opacity="1"/><stop id="stop3752-3-2-1" offset=".262" stop-color="#95de55" stop-opacity="1"/><stop id="stop3754-7-2-0" offset=".705" stop-color="#82de31" stop-opacity="1"/><stop id="stop3756-9-3-4" offset="1" stop-color="#60cc00" stop-opacity="1"/></linearGradient><linearGradient id="linearGradient3796" x1="31.972" x2="31.972" y1="3.884" y2="61.89" gradientUnits="userSpaceOnUse" xlink:href="#linearGradient4806"/><linearGradient id="linearGradient4806"><stop id="stop4808" offset="0" stop-color="#fff" stop-opacity="1"/><stop id="stop4810" offset=".424" stop-color="#fff" stop-opacity=".235"/><stop id="stop4812" offset=".821" stop-color="#fff" stop-opacity=".157"/><stop id="stop4814" offset="1" stop-color="#fff" stop-opacity=".392"/></linearGradient></defs><metadata id="metadata4036"/><g id="g3872"><g id="g3803"><path id="path3818-0-5" fill="url(#radialGradient3018)" fill-opacity="1" stroke="none" d="m 40.999999,41.499999 a 17,5.4999999 0 1 1 -33.999999,0 17,5.4999999 0 1 1 33.999999,0 z"/><path d="M 24.000003,3.4999982 C 12.68881,3.4999982 3.4999996,12.688804 3.4999996,23.999998 3.4999996,35.311192 12.68881,44.500003 24.000003,44.5 35.311191,44.5 44.500011,35.311192 44.5,23.999998 44.5,12.688804 35.311191,3.4999982 24.000003,3.4999982 z" style="marker:none" id="path2555" fill="url(#radialGradient3015)" fill-opacity="1" fill-rule="nonzero" stroke="none" stroke-width="1" color="#000" display="inline" enable-background="accumulate" overflow="visible" visibility="visible"/><path id="path2555-6" fill="none" fill-opacity="0" fill-rule="nonzero" stroke="#000" stroke-dasharray="none" stroke-dashoffset="0" stroke-linecap="round" stroke-linejoin="round" stroke-miterlimit="4" stroke-opacity="1" stroke-width="1" d="m 24.000003,3.499998 c -11.311193,0 -20.5000034,9.188806 -20.5000034,20.5 0,11.311194 9.1888104,20.500005 20.5000034,20.500002 11.311188,0 20.500008,-9.188808 20.499997,-20.500002 0,-11.311194 -9.188809,-20.5 -20.499997,-20.5 z" color="#000" display="inline" enable-background="accumulate" opacity=".4" overflow="visible" visibility="visible" style="marker:none"/><path id="path3025" fill="none" stroke="url(#linearGradient3801)" stroke-dasharray="none" stroke-miterlimit="4" stroke-opacity="1" stroke-width="1" d="m 36.026491,17.510515 a 19.487383,19.487383 0 1 1 -38.9747656,0 19.487383,19.487383 0 1 1 38.9747656,0 z" opacity=".4" transform="translate(7.4608917,6.4894848)"/></g><g id="g3882" transform="matrix(0.7,0,0,0.7,1.4207116,1.7052129)"><g id="g3869"><path id="rect3883" fill="#1a1a1a" fill-opacity="1" stroke="none" d="m 17.298088,40.902181 c 0.5927,-2.211986 2.511307,-2.908051 4.505133,-2.908051 3.046229,0 6.075666,0.293311 8.946667,1.062595 2.871,0.769281 5.750306,2.092963 8.279337,3.553099 1.726704,0.996913 2.991573,2.740627 2.412776,4.900726 -0.44672,1.667187 -2.298784,2.114913 -4.025488,1.117998 -2.504852,-1.446176 -5.408337,-2.783817 -8.279338,-3.553099 -2.871001,-0.769284 -5.985761,-1.062595 -8.946666,-1.062595 -1.993826,0 -3.339143,-1.443486 -2.892421,-3.110673 z" opacity=".9"/><path id="path3895" fill="#1a1a1a" fill-opacity="1" stroke="none" d="m 14.48274,30.10568 c 0.592699,-2.211984 2.511306,-2.90805 4.505132,-2.908051 3.046229,1e-6 8.414615,0.369513 14.734347,2.06288 5.80609,1.555737 10.715029,3.816484 13.24406,5.276623 1.726704,0.996912 2.991575,2.740624 2.412777,4.900724 -0.446721,1.667187 -2.298785,2.114913 -4.025488,1.118 C 42.848715,39.10968 38.062352,36.874294 32.109506,35.279234 26.523547,33.78248 20.336065,33.216355 17.37516,33.216355 c -1.993826,0 -3.339141,-1.443488 -2.89242,-3.110675 z" opacity=".9"/><path id="path3897" fill="#1a1a1a" fill-opacity="1" stroke="none" d="m 12.346123,19.69258 c 0.592699,-2.211986 2.511306,-2.908051 4.505132,-2.908051 3.046229,0 11.800505,0.647594 19.147517,2.61622 9.3282,2.499482 14.192548,5.220155 16.72158,6.680294 1.726704,0.996912 2.991572,2.740624 2.412776,4.900724 -0.446721,1.667186 -2.298785,2.114913 -4.02549,1.117999 C 48.602789,30.653589 40.045396,26.935888 34.38606,25.419475 27.99295,23.706446 18.199449,22.803253 15.238543,22.803253 c -1.993826,0 -3.339141,-1.443488 -2.89242,-3.110673 z" opacity=".9"/></g><g id="g3874" fill="#fff" opacity=".2" transform="translate(0,1.4142136)"><path id="path3876" fill="#fff" fill-opacity="1" stroke="none" d="m 17.298088,40.902181 c 0.5927,-2.211986 2.511307,-2.908051 4.505133,-2.908051 3.046229,0 6.075666,0.293311 8.946667,1.062595 2.871,0.769281 5.750306,2.092963 8.279337,3.553099 1.726704,0.996913 2.991573,2.740627 2.412776,4.900726 -0.44672,1.667187 -2.298784,2.114913 -4.025488,1.117998 -2.504852,-1.446176 -5.408337,-2.783817 -8.279338,-3.553099 -2.871001,-0.769284 -5.985761,-1.062595 -8.946666,-1.062595 -1.993826,0 -3.339143,-1.443486 -2.892421,-3.110673 z" opacity=".9"/><path id="path3878" fill="#fff" fill-opacity="1" stroke="none" d="m 14.48274,30.10568 c 0.592699,-2.211984 2.511306,-2.90805 4.505132,-2.908051 3.046229,1e-6 8.414615,0.369513 14.734347,2.06288 5.80609,1.555737 10.715029,3.816484 13.24406,5.276623 1.726704,0.996912 2.991575,2.740624 2.412777,4.900724 -0.446721,1.667187 -2.298785,2.114913 -4.025488,1.118 C 42.848715,39.10968 38.062352,36.874294 32.109506,35.279234 26.523547,33.78248 20.336065,33.216355 17.37516,33.216355 c -1.993826,0 -3.339141,-1.443488 -2.89242,-3.110675 z" opacity=".9"/><path id="path3880" fill="#fff" fill-opacity="1" stroke="none" d="m 12.346123,19.69258 c 0.592699,-2.211986 2.511306,-2.908051 4.505132,-2.908051 3.046229,0 11.800505,0.647594 19.147517,2.61622 9.3282,2.499482 14.192548,5.220155 16.72158,6.680294 1.726704,0.996912 2.991572,2.740624 2.412776,4.900724 -0.446721,1.667186 -2.298785,2.114913 -4.02549,1.117999 C 48.602789,30.653589 40.045396,26.935888 34.38606,25.419475 27.99295,23.706446 18.199449,22.803253 15.238543,22.803253 c -1.993826,0 -3.339141,-1.443488 -2.89242,-3.110673 z" opacity=".9"/></g></g></g></svg>