<svg xmlns="http://www.w3.org/2000/svg" xmlns:svg="http://www.w3.org/2000/svg" xmlns:xlink="http://www.w3.org/1999/xlink" id="svg6649" width="48" height="48" version="1.1"><defs id="defs6651"><linearGradient id="linearGradient6369"><stop id="stop6371" offset="0" stop-color="#fff" stop-opacity="1"/><stop id="stop6373" offset=".063" stop-color="#fff" stop-opacity=".235"/><stop id="stop6375" offset=".901" stop-color="#fff" stop-opacity=".157"/><stop id="stop6377" offset="1" stop-color="#fff" stop-opacity=".392"/></linearGradient><linearGradient id="linearGradient5721"><stop id="stop5723" offset="0" stop-color="#848484" stop-opacity="1"/><stop id="stop5725" offset="1" stop-color="#595959" stop-opacity="1"/></linearGradient><linearGradient id="linearGradient3688-464-309"><stop id="stop2889" offset="0" stop-color="#181818" stop-opacity="1"/><stop id="stop2891" offset="1" stop-color="#181818" stop-opacity="0"/></linearGradient><linearGradient id="linearGradient4418-4"><stop id="stop4420-7" offset="0" stop-color="#ff7a00" stop-opacity="1"/><stop id="stop4423-7" offset="1" stop-color="#ffd062" stop-opacity="1"/></linearGradient><linearGradient id="linearGradient3924-2-2-5-8"><stop id="stop3926-9-4-9-6" offset="0" stop-color="#fff" stop-opacity="1"/><stop id="stop3928-9-8-6-5" offset=".063" stop-color="#fff" stop-opacity=".235"/><stop id="stop3930-3-5-1-7" offset=".951" stop-color="#fff" stop-opacity=".157"/><stop id="stop3932-8-0-4-8" offset="1" stop-color="#fff" stop-opacity=".392"/></linearGradient><linearGradient id="linearGradient3702-501-757-68"><stop id="stop2895-2" offset="0" stop-color="#181818" stop-opacity="0"/><stop id="stop2897-8" offset=".5" stop-color="#181818" stop-opacity="1"/><stop id="stop2899-2" offset="1" stop-color="#181818" stop-opacity="0"/></linearGradient><linearGradient id="linearGradient3688-464-309-7"><stop id="stop2889-2" offset="0" stop-color="#181818" stop-opacity="1"/><stop id="stop2891-65" offset="1" stop-color="#181818" stop-opacity="0"/></linearGradient><linearGradient id="linearGradient3688-166-749-2"><stop id="stop2883-46" offset="0" stop-color="#181818" stop-opacity="1"/><stop id="stop2885-96" offset="1" stop-color="#181818" stop-opacity="0"/></linearGradient><linearGradient id="linearGradient4632-92-3-0-8-1-6"><stop id="stop4634-68-8-0-2-9-1" offset="0" stop-color="#fafafa" stop-opacity="1"/><stop id="stop4636-8-21-7-1-4-9" offset="1" stop-color="#e1e1e1" stop-opacity="1"/></linearGradient><linearGradient id="linearGradient3924-1-0"><stop id="stop3926-3-1" offset="0" stop-color="#fff" stop-opacity="1"/><stop id="stop3928-91-6" offset=".063" stop-color="#fff" stop-opacity=".235"/><stop id="stop3930-6-2" offset=".951" stop-color="#fff" stop-opacity=".157"/><stop id="stop3932-6-1" offset="1" stop-color="#fff" stop-opacity=".392"/></linearGradient><linearGradient id="linearGradient3705" x1="-50.691" x2="-50.691" y1="13.838" y2="35.116" gradientTransform="translate(74.599765,0)" gradientUnits="userSpaceOnUse" xlink:href="#linearGradient6369"/><linearGradient id="linearGradient3709" x1="-15.91" x2="-15.91" y1="38.492" y2="11.198" gradientTransform="translate(39.683497,-0.0056527)" gradientUnits="userSpaceOnUse" xlink:href="#linearGradient4418-4"/><linearGradient id="linearGradient3712" x1="131.875" x2="131.875" y1="10.063" y2="40.377" gradientTransform="translate(-111.25002,1e-6)" gradientUnits="userSpaceOnUse" xlink:href="#linearGradient3924-2-2-5-8"/><linearGradient id="linearGradient3715" x1="24" x2="24" y1="5" y2="43" gradientTransform="translate(0,1.000005)" gradientUnits="userSpaceOnUse" xlink:href="#linearGradient3924-1-0"/><radialGradient id="radialGradient3721" cx="135.625" cy="9" r="15.5" fx="135.625" fy="9" gradientTransform="matrix(0,2.1962037,-2.3362081,1.4593256e-5,45.40085,-288.86027)" gradientUnits="userSpaceOnUse" xlink:href="#linearGradient5721"/><radialGradient id="radialGradient3727" cx="139.133" cy="8.375" r="19.5" fx="139.133" fy="8.375" gradientTransform="matrix(0,2.2632405,-2.1630352,0,40.2404,-308.51644)" gradientUnits="userSpaceOnUse" xlink:href="#linearGradient4632-92-3-0-8-1-6"/><radialGradient id="radialGradient3730" cx="4.993" cy="43.5" r="2.5" fx="4.993" fy="43.5" gradientTransform="matrix(2.3201719,0,0,0.89999994,-51.11357,-78.907357)" gradientUnits="userSpaceOnUse" xlink:href="#linearGradient3688-464-309"/><linearGradient id="linearGradient3743" x1="25.058" x2="25.058" y1="47.028" y2="39.999" gradientTransform="matrix(1.1578952,0,0,0.6428571,-3.78948,16.035715)" gradientUnits="userSpaceOnUse" xlink:href="#linearGradient3702-501-757-68"/><radialGradient id="radialGradient3746" cx="4.993" cy="43.5" r="2.5" fx="4.993" fy="43.5" gradientTransform="matrix(2.3201719,0,0,0.89999994,-19.382168,-83.149996)" gradientUnits="userSpaceOnUse" xlink:href="#linearGradient3688-464-309-7"/><radialGradient id="radialGradient3749" cx="4.993" cy="43.5" r="2.5" fx="4.993" fy="43.5" gradientTransform="matrix(2.3201719,0,0,0.89999994,28.617841,4.8500015)" gradientUnits="userSpaceOnUse" xlink:href="#linearGradient3688-166-749-2"/></defs><metadata id="metadata6654"/><rect id="rect6282" width="5.789" height="4.5" x="40.211" y="41.75" fill="url(#radialGradient3749)" fill-opacity="1" stroke="none" opacity=".4"/><rect id="rect6284" width="5.789" height="4.5" x="-7.789" y="-46.25" fill="url(#radialGradient3746)" fill-opacity="1" stroke="none" opacity=".4" transform="scale(-1,-1)"/><rect id="rect6286" width="32.421" height="4.5" x="7.789" y="41.75" fill="url(#linearGradient3743)" fill-opacity="1" stroke="none" opacity=".4"/><rect id="rect6288" width="5.789" height="4.5" x="-39.521" y="-42.007" fill="url(#radialGradient3730)" fill-opacity="1" stroke="none" opacity=".6" transform="scale(-1,-1)"/><rect stroke-width="1" style="marker:none" id="rect6290" width="39" height="39" x="4.5" y="5.5" fill="url(#radialGradient3727)" fill-opacity="1" fill-rule="nonzero" stroke="none" color="#000" display="inline" enable-background="accumulate" overflow="visible" rx="2" ry="2" visibility="visible"/><path id="path6292" fill="#333" fill-opacity="1" stroke="#333" stroke-width="1" d="m 10.09373,10.500001 c -1.14907,0 -2.09375,0.944679 -2.09375,2.09375 l 0,27.8125 c 0,1.14907 0.94468,2.09375 2.09375,2.09375 l 27.8125,0 c 1.14907,0 2.09375,-0.944683 2.09375,-2.09375 l 0,-27.8125 c 0,-1.149067 -0.94468,-2.09375 -2.09375,-2.09375 z" baseline-shift="baseline" color="#000" direction="ltr" display="inline" enable-background="accumulate" font-family="Sans" font-size="medium" font-stretch="normal" font-style="normal" font-variant="normal" font-weight="normal" letter-spacing="normal" opacity=".15" overflow="visible" text-anchor="start" text-decoration="none" visibility="visible" word-spacing="normal" writing-mode="lr-tb" style="text-indent:0;text-align:start;line-height:normal;text-transform:none;block-progression:tb;marker:none;-inkscape-font-specification:Sans"/><path id="path6294" fill="#333" fill-opacity="1" stroke="none" stroke-width="1" d="m 10.09373,10.000001 c -1.14907,0 -2.09375,0.944679 -2.09375,2.09375 l 0,27.8125 c 0,1.14907 0.94468,2.09375 2.09375,2.09375 l 27.8125,0 c 1.14907,0 2.09375,-0.944683 2.09375,-2.09375 l 0,-27.8125 c 0,-1.149067 -0.94468,-2.09375 -2.09375,-2.09375 z" baseline-shift="baseline" color="#000" direction="ltr" display="inline" enable-background="accumulate" font-family="Sans" font-size="medium" font-stretch="normal" font-style="normal" font-variant="normal" font-weight="normal" letter-spacing="normal" opacity=".3" overflow="visible" text-anchor="start" text-decoration="none" visibility="visible" word-spacing="normal" writing-mode="lr-tb" style="text-indent:0;text-align:start;line-height:normal;text-transform:none;block-progression:tb;marker:none;-inkscape-font-specification:Sans"/><rect stroke-miterlimit="4" style="marker:none" id="rect6296" width="39" height="39" x="4.5" y="5.5" fill="none" stroke="#333" stroke-dasharray="none" stroke-dashoffset="0" stroke-linecap="round" stroke-linejoin="round" stroke-opacity="1" stroke-width="1" color="#000" display="inline" enable-background="accumulate" opacity=".3" overflow="visible" rx="2" ry="2" visibility="visible"/><path d="m 10.08974,9.499996 27.82051,0 c 0.88072,0 1.58974,0.709026 1.58974,1.589744 l 0,27.820513 c 0,0.880717 -0.70902,1.589743 -1.58974,1.589743 l -27.82051,0 c -0.88072,0 -1.58975,-0.709026 -1.58975,-1.589743 l 0,-27.820513 c 0,-0.880718 0.70903,-1.589744 1.58975,-1.589744 z" style="marker:none" id="path6298" fill="url(#radialGradient3721)" fill-opacity="1" fill-rule="nonzero" stroke="none" stroke-width="1" color="#000" display="inline" enable-background="accumulate" overflow="visible" visibility="visible"/><path font-size="medium" style="text-indent:0;text-align:start;line-height:normal;text-transform:none;block-progression:tb;marker:none;-inkscape-font-specification:sans-serif" id="path6340" fill="#333" fill-opacity="1" fill-rule="nonzero" stroke="#333" stroke-width="1" d="m 24.787265,15.593606 c -1.94571,-0.260314 -4.085668,0.105972 -5.8125,1.5 -0.870463,0.702694 -1.610019,1.621011 -2.03125,2.75 -0.424324,1.137341 -0.515069,2.427725 -0.1875,3.65625 0.248505,0.932041 0.693959,1.716884 1.25,2.375 0.550983,0.65209 1.20198,1.167358 1.84375,1.5625 1.258817,0.775043 2.499966,1.141338 3.5,1.4375 1.000338,0.296247 1.840043,0.556459 2.34375,0.84375 0.229233,0.130745 0.442927,0.305627 0.59375,0.46875 0.150823,0.163123 0.243901,0.325806 0.25,0.34375 0.0218,0.06412 0.01114,0.300992 -0.03125,0.4375 -0.05097,0.164703 -0.193351,0.430019 -0.375,0.59375 -0.356279,0.321132 -1.224608,0.61797 -2.03125,0.5625 -1.176202,-0.08087 -2.471473,-0.801368 -3.15625,-1.75 l 0,0.03125 c -0.0054,-0.0077 -0.02575,0.0076 -0.03125,0 -0.850873,-1.17598 -2.5312,-1.514242 -3.71875,-0.65625 -1.191535,0.860872 -1.471357,2.560071 -0.59375,3.75 1.666555,2.308689 4.31919,3.773677 7.15625,3.96875 2.02251,0.13908 4.215947,-0.35453 5.9375,-1.90625 0.864432,-0.779169 1.569994,-1.781198 1.9375,-2.96875 0.370185,-1.1962 0.395906,-2.524926 -0.03125,-3.78125 -0.608221,-1.789343 -1.915924,-3.006925 -3.21875,-3.75 -1.264171,-0.721026 -2.53629,-1.058352 -3.5,-1.34375 -0.963375,-0.285309 -1.741351,-0.549816 -2.21875,-0.84375 -0.228149,-0.140475 -0.410049,-0.32531 -0.53125,-0.46875 -0.128744,-0.152379 -0.226455,-0.310149 -0.21875,-0.28125 0.0039,0.01472 0.01895,-0.289491 0.0625,-0.40625 0.05217,-0.139827 0.186223,-0.341585 0.34375,-0.46875 0.298529,-0.240997 1.087005,-0.44198 1.78125,-0.34375 0.846199,0.119732 1.753155,0.618844 2.28125,1.28125 0.912682,1.143591 2.637493,1.318137 3.78125,0.40625 1.144281,-0.912304 1.317378,-2.606029 0.40625,-3.75 -1.418605,-1.779386 -3.472566,-2.932189 -5.71875,-3.25 -0.158986,-0.02269 -0.177491,-0.01524 -0.0625,0 z" baseline-shift="baseline" color="#000" direction="ltr" display="inline" enable-background="new" font-family="sans-serif" font-stretch="normal" font-style="normal" font-variant="normal" font-weight="normal" letter-spacing="normal" opacity=".15" overflow="visible" text-anchor="start" text-decoration="none" visibility="visible" word-spacing="normal" writing-mode="lr-tb"/><path font-size="medium" style="text-indent:0;text-align:start;line-height:normal;text-transform:none;block-progression:tb;marker:none;-inkscape-font-specification:sans-serif" id="path6338" fill="#333" fill-opacity="1" fill-rule="nonzero" stroke="#333" stroke-width="1" d="m 24.714747,15.587781 c -1.835279,-0.24554 -3.833661,0.111511 -5.4375,1.40625 -0.813339,0.65658 -1.489639,1.4984 -1.875,2.53125 -0.387851,1.039581 -0.456571,2.217416 -0.15625,3.34375 0.227835,0.854517 0.64092,1.577569 1.15625,2.1875 0.511694,0.605591 1.118087,1.098918 1.71875,1.46875 1.192746,0.734364 2.373311,1.078348 3.375,1.375 0.997568,0.295427 1.844713,0.536902 2.4375,0.875 0.561036,0.319991 0.967905,0.815447 1.0625,1.09375 0.06543,0.192444 0.08005,0.492199 0,0.75 -0.08283,0.267652 -0.2747,0.581257 -0.53125,0.8125 -0.510387,0.460038 -1.472736,0.751694 -2.40625,0.6875 -1.339269,-0.09208 -2.745193,-0.848564 -3.53125,-1.9375 -0.687378,-0.971338 -2.066703,-1.228125 -3.03125,-0.53125 -0.964547,0.696875 -1.206305,2.104836 -0.5,3.0625 1.577379,2.185152 4.092792,3.565145 6.78125,3.75 1.916889,0.131817 3.991668,-0.337215 5.59375,-1.78125 0.804079,-0.724769 1.442538,-1.655492 1.78125,-2.75 0.340974,-1.10181 0.359726,-2.318836 -0.03125,-3.46875 -0.55959,-1.646273 -1.773897,-2.769434 -3,-3.46875 -1.195524,-0.681873 -2.397443,-0.991751 -3.375,-1.28125 -0.973363,-0.288267 -1.783423,-0.561258 -2.34375,-0.90625 -0.280535,-0.17273 -0.502962,-0.381085 -0.65625,-0.5625 -0.150094,-0.177648 -0.275742,-0.362125 -0.3125,-0.5 -0.04518,-0.169362 -0.02041,-0.465202 0.0625,-0.6875 0.08626,-0.231177 0.261822,-0.495228 0.5,-0.6875 0.47041,-0.379754 1.362986,-0.585412 2.1875,-0.46875 0.98242,0.139007 1.975372,0.6931 2.59375,1.46875 0.737204,0.923717 2.138418,1.080496 3.0625,0.34375 0.924082,-0.736746 1.080037,-2.138052 0.34375,-3.0625 -1.336659,-1.6766 -3.283551,-2.762161 -5.40625,-3.0625 -0.02032,-0.0029 -0.04213,0.0027 -0.0625,0 z" baseline-shift="baseline" color="#000" direction="ltr" display="inline" enable-background="new" font-family="sans-serif" font-stretch="normal" font-style="normal" font-variant="normal" font-weight="normal" letter-spacing="normal" opacity=".3" overflow="visible" text-anchor="start" text-decoration="none" visibility="visible" word-spacing="normal" writing-mode="lr-tb"/><path color="#000" style="marker:none" id="path6304" fill="none" stroke="#000" stroke-opacity="1" stroke-width="1" d="m 10.08974,9.499996 27.82051,0 c 0.88072,0 1.58974,0.709026 1.58974,1.589744 l 0,27.820513 c 0,0.880717 -0.70902,1.589743 -1.58974,1.589743 l -27.82051,0 c -0.88072,0 -1.58975,-0.709026 -1.58975,-1.589743 l 0,-27.820513 c 0,-0.880718 0.70903,-1.589744 1.58975,-1.589744 z" display="inline" enable-background="accumulate" opacity=".4" overflow="visible" visibility="visible"/><rect id="rect6312" width="37" height="37" x="5.5" y="6.5" fill="none" stroke="url(#linearGradient3715)" stroke-dasharray="none" stroke-dashoffset="0" stroke-linecap="round" stroke-linejoin="round" stroke-miterlimit="4" stroke-opacity="1" stroke-width="1" rx="1" ry="1"/><path id="path6314" fill="url(#linearGradient3712)" fill-opacity="1" stroke="none" stroke-width="1" d="m 10.09373,10.000001 c -0.61237,0 -1.09375,0.481385 -1.09375,1.09375 l 0,27.8125 c 0,0.612364 0.48138,1.09375 1.09375,1.09375 l 27.8125,0 c 0.61237,0 1.09375,-0.481383 1.09375,-1.09375 l 0,-27.8125 c 0,-0.612369 -0.48138,-1.09375 -1.09375,-1.09375 l -27.8125,0 z m 0,1 27.8125,0 c 0.0757,0 0.0937,0.01808 0.0937,0.09375 l 0,27.8125 c 0,0.07567 -0.0181,0.09375 -0.0937,0.09375 l -27.8125,0 c -0.0757,0 -0.0937,-0.01809 -0.0937,-0.09375 l 0,-27.8125 c -5e-5,-0.07566 0.0181,-0.09375 0.0937,-0.09375 z" baseline-shift="baseline" color="#000" direction="ltr" display="inline" enable-background="accumulate" font-family="Sans" font-size="medium" font-stretch="normal" font-style="normal" font-variant="normal" font-weight="normal" letter-spacing="normal" opacity=".4" overflow="visible" text-anchor="start" text-decoration="none" visibility="visible" word-spacing="normal" writing-mode="lr-tb" style="text-indent:0;text-align:start;line-height:normal;text-transform:none;block-progression:tb;marker:none;-inkscape-font-specification:Sans"/><path id="path6256" fill="url(#linearGradient3709)" fill-opacity="1" fill-rule="nonzero" stroke="none" stroke-width="1" d="m 24.714747,14.588097 c -1.835279,-0.24554 -3.833661,0.111511 -5.4375,1.40625 -0.813339,0.65658 -1.489639,1.4984 -1.875,2.53125 -0.387851,1.039581 -0.456571,2.217416 -0.15625,3.34375 0.227835,0.854517 0.64092,1.577569 1.15625,2.1875 0.511694,0.605591 1.118087,1.098918 1.71875,1.46875 1.192746,0.734364 2.373311,1.078348 3.375,1.375 0.997568,0.295427 1.844713,0.536902 2.4375,0.875 0.561036,0.319991 0.967905,0.815447 1.0625,1.09375 0.06543,0.192444 0.08005,0.492199 0,0.75 -0.08283,0.267652 -0.2747,0.581257 -0.53125,0.8125 -0.510387,0.460038 -1.472736,0.751694 -2.40625,0.6875 -1.339269,-0.09208 -2.745193,-0.848564 -3.53125,-1.9375 -0.687378,-0.971338 -2.066703,-1.228125 -3.03125,-0.53125 -0.964547,0.696875 -1.206305,2.104836 -0.5,3.0625 1.577379,2.185152 4.092792,3.565145 6.78125,3.75 1.916889,0.131817 3.991668,-0.337215 5.59375,-1.78125 0.804079,-0.724769 1.442538,-1.655492 1.78125,-2.75 0.340974,-1.10181 0.359726,-2.318836 -0.03125,-3.46875 -0.55959,-1.646273 -1.773897,-2.769434 -3,-3.46875 -1.195524,-0.681873 -2.397443,-0.991751 -3.375,-1.28125 -0.973363,-0.288267 -1.783423,-0.561258 -2.34375,-0.90625 -0.280535,-0.17273 -0.502962,-0.381085 -0.65625,-0.5625 -0.150094,-0.177648 -0.275742,-0.362125 -0.3125,-0.5 -0.04518,-0.169362 -0.02041,-0.465202 0.0625,-0.6875 0.08626,-0.231177 0.261822,-0.495228 0.5,-0.6875 0.47041,-0.379754 1.362986,-0.585412 2.1875,-0.46875 0.98242,0.139007 1.975372,0.6931 2.59375,1.46875 0.737204,0.923717 2.138418,1.080496 3.0625,0.34375 0.924082,-0.736746 1.080037,-2.138052 0.34375,-3.0625 -1.336659,-1.6766 -3.283551,-2.762161 -5.40625,-3.0625 -0.02032,-0.0029 -0.04213,0.0027 -0.0625,0 z" baseline-shift="baseline" color="#000" direction="ltr" display="inline" enable-background="new" font-family="sans-serif" font-size="medium" font-stretch="normal" font-style="normal" font-variant="normal" font-weight="normal" letter-spacing="normal" overflow="visible" text-anchor="start" text-decoration="none" visibility="visible" word-spacing="normal" writing-mode="lr-tb" style="text-indent:0;text-align:start;line-height:normal;text-transform:none;block-progression:tb;marker:none;-inkscape-font-specification:sans-serif"/><path font-stretch="normal" style="text-indent:0;text-align:start;line-height:normal;text-transform:none;block-progression:tb;marker:none;-inkscape-font-specification:sans-serif" id="path6336" fill="none" stroke="#000" stroke-width="1" d="m 24.714747,14.588097 c -1.835279,-0.24554 -3.833661,0.111511 -5.4375,1.40625 -0.813339,0.65658 -1.489639,1.4984 -1.875,2.53125 -0.387851,1.039581 -0.456571,2.217416 -0.15625,3.34375 0.227835,0.854517 0.64092,1.577569 1.15625,2.1875 0.511694,0.605591 1.118087,1.098918 1.71875,1.46875 1.192746,0.734364 2.373311,1.078348 3.375,1.375 0.997568,0.295427 1.844713,0.536902 2.4375,0.875 0.561036,0.319991 0.967905,0.815447 1.0625,1.09375 0.06543,0.192444 0.08005,0.492199 0,0.75 -0.08283,0.267652 -0.2747,0.581257 -0.53125,0.8125 -0.510387,0.460038 -1.472736,0.751694 -2.40625,0.6875 -1.339269,-0.09208 -2.745193,-0.848564 -3.53125,-1.9375 -0.687378,-0.971338 -2.066703,-1.228125 -3.03125,-0.53125 -0.964547,0.696875 -1.206305,2.104836 -0.5,3.0625 1.577379,2.185152 4.092792,3.565145 6.78125,3.75 1.916889,0.131817 3.991668,-0.337215 5.59375,-1.78125 0.804079,-0.724769 1.442538,-1.655492 1.78125,-2.75 0.340974,-1.10181 0.359726,-2.318836 -0.03125,-3.46875 -0.55959,-1.646273 -1.773897,-2.769434 -3,-3.46875 -1.195524,-0.681873 -2.397443,-0.991751 -3.375,-1.28125 -0.973363,-0.288267 -1.783423,-0.561258 -2.34375,-0.90625 -0.280535,-0.17273 -0.502962,-0.381085 -0.65625,-0.5625 -0.150094,-0.177648 -0.275742,-0.362125 -0.3125,-0.5 -0.04518,-0.169362 -0.02041,-0.465202 0.0625,-0.6875 0.08626,-0.231177 0.261822,-0.495228 0.5,-0.6875 0.47041,-0.379754 1.362986,-0.585412 2.1875,-0.46875 0.98242,0.139007 1.975372,0.6931 2.59375,1.46875 0.737204,0.923717 2.138418,1.080496 3.0625,0.34375 0.924082,-0.736746 1.080037,-2.138052 0.34375,-3.0625 -1.336659,-1.6766 -3.283551,-2.762161 -5.40625,-3.0625 -0.02032,-0.0029 -0.04213,0.0027 -0.0625,0 z" baseline-shift="baseline" color="#000" direction="ltr" display="inline" enable-background="new" font-family="sans-serif" font-size="medium" font-style="normal" font-variant="normal" font-weight="normal" letter-spacing="normal" opacity=".3" overflow="visible" text-anchor="start" text-decoration="none" visibility="visible" word-spacing="normal" writing-mode="lr-tb"/><path font-size="medium" style="text-indent:0;text-align:start;line-height:normal;text-transform:none;block-progression:tb;marker:none;-inkscape-font-specification:sans-serif" id="path6346" fill="url(#linearGradient3705)" fill-opacity="1" stroke="none" stroke-width="3" d="m 23.349765,15.03125 c -1.319312,0.04772 -2.639365,0.447163 -3.75,1.34375 -0.756215,0.610466 -1.369259,1.375789 -1.71875,2.3125 -0.351378,0.941821 -0.429323,2.038357 -0.15625,3.0625 0.207165,0.776993 0.587881,1.407004 1.0625,1.96875 0.472405,0.559092 1.034194,1.030478 1.59375,1.375 1.126675,0.693685 2.246656,1.015358 3.25,1.3125 0.994798,0.294607 1.880633,0.548595 2.5625,0.9375 0.331803,0.189246 0.59598,0.422072 0.8125,0.65625 0.21652,0.234178 0.38025,0.458391 0.46875,0.71875 0.109059,0.320767 0.117713,0.683406 0,1.0625 -0.11469,0.370601 -0.356049,0.732495 -0.6875,1.03125 -0.664495,0.598944 -1.689614,0.88542 -2.75,0.8125 -1.502336,-0.103291 -3.018913,-0.92701 -3.90625,-2.15625 -0.529191,-0.747803 -1.60988,-0.936463 -2.34375,-0.40625 -0.737559,0.532878 -0.910003,1.618351 -0.375,2.34375 1.488203,2.061615 3.866394,3.387863 6.40625,3.5625 1.811268,0.124554 3.736139,-0.3199 5.21875,-1.65625 0.743726,-0.670369 1.315082,-1.529786 1.625,-2.53125 0.311763,-1.00742 0.354796,-2.112746 0,-3.15625 -0.510959,-1.503203 -1.63187,-2.531943 -2.78125,-3.1875 -1.126877,-0.64272 -2.289846,-0.9564 -3.28125,-1.25 -0.983351,-0.291225 -1.825495,-0.5727 -2.46875,-0.96875 -0.332921,-0.204985 -0.595875,-0.43686 -0.78125,-0.65625 -0.171444,-0.202917 -0.32503,-0.382851 -0.40625,-0.6875 -0.09429,-0.353446 -0.02852,-0.672163 0.09375,-1 0.120346,-0.322527 0.337421,-0.648871 0.65625,-0.90625 0.642291,-0.51851 1.607717,-0.697594 2.5625,-0.5625 1.118641,0.158282 2.197589,0.767356 2.90625,1.65625 0.561726,0.703843 1.670593,0.811605 2.375,0.25 0.703883,-0.561188 0.811446,-1.638825 0.25,-2.34375 -1.254713,-1.573814 -3.094536,-2.592133 -5.09375,-2.875 0.118346,0.01689 0.124481,0.02064 -0.03125,0 -0.431212,-0.05769 -0.872729,-0.07841 -1.3125,-0.0625 z M 23.381015,16 c 0.375393,-0.01523 0.749004,0.0122 1.125,0.0625 0.0769,0.01019 0.07396,-0.0065 0.125,0 1.728485,0.2602 3.296709,1.178727 4.375,2.53125 0.211763,0.26588 0.169736,0.727429 -0.09375,0.9375 -0.265058,0.211323 -0.757979,0.170346 -0.96875,-0.09375 -0.889226,-1.115383 -2.171417,-1.834419 -3.5625,-2.03125 -1.215321,-0.171958 -2.326446,-0.01478 -3.3125,0.78125 -0.480132,0.387592 -0.780233,0.838523 -0.96875,1.34375 -0.200998,0.538915 -0.317502,0.872136 -0.125,1.59375 0.170146,0.638197 0.410856,0.840294 0.625,1.09375 0.24955,0.29534 0.593558,0.605506 1.03125,0.875 0.80911,0.498167 1.684172,0.765359 2.6875,1.0625 1.019097,0.301801 2.072917,0.591836 3.0625,1.15625 0.995935,0.568038 1.898804,1.407937 2.3125,2.625 0.282437,0.830685 0.284592,1.743861 0.03125,2.5625 -0.252331,0.815377 -0.720729,1.500931 -1.34375,2.0625 -1.24367,1.120981 -2.899975,1.516277 -4.5,1.40625 -2.242653,-0.154202 -4.3464,-1.310458 -5.65625,-3.125 l -0.03125,0 0,-0.03125 c -0.192398,-0.260869 -0.09608,-0.732615 0.1875,-0.9375 0.272516,-0.19689 0.693433,-0.113233 0.90625,0.1875 l 0.03125,0 c 1.089897,1.509849 2.796531,2.436786 4.625,2.5625 1.314129,0.09037 2.558538,-0.216995 3.53125,-1.09375 0.481252,-0.43378 0.790341,-0.89225 0.96875,-1.46875 0.193038,-0.621679 0.165067,-1.110087 -0.03125,-1.6875 -0.170893,-0.502775 -0.374033,-0.757266 -0.65625,-1.0625 -0.282217,-0.305234 -0.659377,-0.596002 -1.09375,-0.84375 -0.860026,-0.490519 -1.760743,-0.707034 -2.75,-1 -1.006655,-0.298123 -2.005467,-0.606424 -3,-1.21875 -0.477341,-0.293902 -0.981174,-0.690156 -1.375,-1.15625 -0.393196,-0.465377 -0.677925,-1.003056 -0.84375,-1.625 -0.218578,-0.819762 -0.153433,-1.659949 0.125,-2.40625 0.277751,-0.744432 0.764282,-1.388012 1.40625,-1.90625 C 21.15091,16.408596 22.254836,16.045679 23.381015,16 z" baseline-shift="baseline" color="#000" direction="ltr" display="inline" enable-background="new" font-family="sans-serif" font-stretch="normal" font-style="normal" font-variant="normal" font-weight="normal" letter-spacing="normal" overflow="visible" text-anchor="start" text-decoration="none" visibility="visible" word-spacing="normal" writing-mode="lr-tb"/><rect id="rect24x24" width="24" height="24" x="910.172" y="15.255" fill="#b3b3b3" fill-opacity="1" stroke="none" display="none"/><rect id="rect48x48" width="48" height="48" x="791.172" y="133.842" fill="#e6e6e6" fill-opacity="1" stroke="none" display="none"/><rect id="rect64x64" width="64" height="64" x="791.172" y="59.393" fill="#e6e6e6" fill-opacity="1" stroke="none" display="none"/><rect id="rect96x96" width="96" height="96" x="791.172" y="-47.206" fill="#e6e6e6" fill-opacity="1" stroke="none" display="none"/><rect id="rect256x256" width="256" height="256" x="511.172" y="-62.206" fill="#e6e6e6" fill-opacity="1" stroke="none" display="none"/><rect id="rect32x32" width="32" height="32" x="911.172" y="-33.206" fill="#e6e6e6" fill-opacity="1" stroke="none" display="none"/><rect id="rect22x22" width="22" height="22" x="911.172" y="16.255" fill="#e6e6e6" fill-opacity="1" stroke="none" display="none"/><rect id="rect16x16" width="16" height="16" x="911.172" y="56.097" fill="#e6e6e6" fill-opacity="1" stroke="none" display="none"/><text id="icon-name" x="712.891" y="-67.762" fill="#fff" fill-opacity="1" stroke="none" display="none" font-family="Sans" font-size="15.425" font-style="normal" font-weight="normal" letter-spacing="0" word-spacing="0" xml:space="preserve" style="line-height:125%"><tspan id="tspan4675" x="712.891" y="-67.762" fill="#fff" font-size="15">sublime-text</tspan></text><text id="context" x="510.344" y="-68.194" fill="#fff" fill-opacity="1" stroke="none" display="none" font-family="Sans" font-size="40" font-style="normal" font-weight="normal" letter-spacing="0" word-spacing="0" xml:space="preserve" style="line-height:125%"><tspan id="tspan4531" x="510.344" y="-68.194" fill="#fff" font-size="15">apps</tspan></text></svg>