<svg xmlns="http://www.w3.org/2000/svg" xmlns:svg="http://www.w3.org/2000/svg" xmlns:xlink="http://www.w3.org/1999/xlink" id="svg3167" width="48" height="48" version="1.1"><defs id="defs3169"><linearGradient id="linearGradient4801"><stop id="stop4803" offset="0" stop-color="silver" stop-opacity="1"/><stop id="stop4805" offset=".25" stop-color="#fff" stop-opacity="1"/><stop id="stop4807" offset=".499" stop-color="#d2d2d2" stop-opacity="1"/><stop id="stop4809" offset="1" stop-color="#c8c8c8" stop-opacity="1"/></linearGradient><linearGradient id="linearGradient4526"><stop id="stop4528" offset="0" stop-color="#fff" stop-opacity="1"/><stop id="stop4530" offset="1" stop-color="#fff" stop-opacity="0"/></linearGradient><linearGradient id="linearGradient4426"><stop id="stop4428" offset="0" stop-color="#cc4f00" stop-opacity="1"/><stop id="stop4436" offset=".25" stop-color="#ff8636" stop-opacity="1"/><stop id="stop4434" offset=".499" stop-color="#ef6000" stop-opacity="1"/><stop id="stop4430" offset="1" stop-color="#da5700" stop-opacity="1"/></linearGradient><linearGradient id="linearGradient4019"><stop id="stop4021" offset="0" stop-color="#cc5506" stop-opacity="1"/><stop id="stop4023" offset="1" stop-color="#f98b41" stop-opacity="1"/></linearGradient><linearGradient id="linearGradient4005"><stop id="stop4007" offset="0" stop-color="#fff" stop-opacity="1"/><stop id="stop4009" offset="1" stop-color="#fff" stop-opacity="0"/></linearGradient><linearGradient id="linearGradient5048"><stop id="stop5050" offset="0" stop-color="#000" stop-opacity="0"/><stop id="stop5056" offset=".5" stop-color="#000" stop-opacity="1"/><stop id="stop5052" offset="1" stop-color="#000" stop-opacity="0"/></linearGradient><linearGradient id="linearGradient5060"><stop id="stop5062" offset="0" stop-color="#000" stop-opacity="1"/><stop id="stop5064" offset="1" stop-color="#000" stop-opacity="0"/></linearGradient><linearGradient id="linearGradient4847" x1="302.857" x2="302.857" y1="366.648" y2="609.505" gradientTransform="matrix(2.774389,0,0,1.969706,-1892.179,-910.66032)" gradientUnits="userSpaceOnUse" xlink:href="#linearGradient5048"/><radialGradient id="radialGradient4849" cx="605.714" cy="486.648" r="117.143" fx="605.714" fy="486.648" gradientTransform="matrix(2.774389,0,0,1.969706,-1891.633,-910.66032)" gradientUnits="userSpaceOnUse" xlink:href="#linearGradient5060"/><radialGradient id="radialGradient4851" cx="605.714" cy="486.648" r="117.143" fx="605.714" fy="486.648" gradientTransform="matrix(-2.774389,0,0,1.969706,112.7623,-910.66032)" gradientUnits="userSpaceOnUse" xlink:href="#linearGradient5060"/><linearGradient id="linearGradient4853" x1="24.286" x2="24.286" y1="27.643" y2="44.643" gradientTransform="matrix(1,0,0,0.96484375,0,0.98939735)" gradientUnits="userSpaceOnUse" xlink:href="#linearGradient4019"/><linearGradient id="linearGradient4855" x1="24.286" x2="24.286" y1="47.332" y2="36.143" gradientUnits="userSpaceOnUse" xlink:href="#linearGradient4005"/><linearGradient id="linearGradient4857" x1="13.915" x2="33.148" y1="20.563" y2="23.063" gradientTransform="matrix(1,0,0,0.98581946,0,0.00738065)" gradientUnits="userSpaceOnUse" xlink:href="#linearGradient4426"/><linearGradient id="linearGradient4859" x1="24.406" x2="24.406" y1="44.438" y2="34.688" gradientTransform="translate(0,0.40019516)" gradientUnits="userSpaceOnUse" xlink:href="#linearGradient4526"/><linearGradient id="linearGradient4861" x1="13.915" x2="33.148" y1="20.563" y2="23.063" gradientTransform="matrix(0.98618993,0,0,1,0.36967533,0)" gradientUnits="userSpaceOnUse" xlink:href="#linearGradient4801"/><linearGradient id="linearGradient4863" x1="13.915" x2="33.148" y1="20.563" y2="23.063" gradientTransform="matrix(0.98618993,0,0,1,0.36967533,0)" gradientUnits="userSpaceOnUse" xlink:href="#linearGradient4801"/></defs><metadata id="metadata3172"/><g id="layer1"><g id="g4833" transform="translate(-0.28571359,-0.04572413)"><g id="g8875" transform="matrix(0.02232353,0,0,0.01202587,44.141055,44.0596)"><rect id="rect8877" width="1339.633" height="478.357" x="-1559.252" y="-188.472" fill="url(#linearGradient4847)" fill-opacity="1" fill-rule="nonzero" stroke="none" stroke-width="1" display="inline" opacity=".402" overflow="visible" visibility="visible" style="marker:none"/><path id="path8879" fill="url(#radialGradient4849)" fill-opacity="1" fill-rule="nonzero" stroke="none" stroke-width="1" d="m -219.61876,-188.4553 c 0,0 0,478.33079 0,478.33079 142.874166,0.90045 345.40022,-107.16966 345.40014,-239.19618 0,-132.026537 -159.436816,-239.13459 -345.40014,-239.13461 z" display="inline" opacity=".402" overflow="visible" visibility="visible" style="marker:none"/><path id="path8881" fill="url(#radialGradient4851)" fill-opacity="1" fill-rule="nonzero" stroke="none" stroke-width="1" d="m -1559.2523,-188.4553 c 0,0 0,478.33079 0,478.33079 -142.8742,0.90045 -345.4002,-107.16966 -345.4002,-239.19618 0,-132.026537 159.4368,-239.13459 345.4002,-239.13461 z" display="inline" opacity=".402" overflow="visible" visibility="visible" style="marker:none"/></g><path id="rect3186-2" fill="#c85100" fill-opacity="1" stroke="#c85100" stroke-dashoffset=".45" stroke-linecap="square" stroke-linejoin="round" stroke-miterlimit="4" stroke-opacity="1" stroke-width="1" d="m 9.571605,29.143 29.71393,0 c 0.633241,0 1.143035,0.533311 1.143035,1.195764 l 4,13.135258 c 0,0.662452 -0.509794,1.195764 -1.143035,1.195764 l -37.999644,0 c -0.633241,0 -1.143034,-0.533312 -1.143034,-1.195764 L 8.428571,30.338764 c 0,-0.662453 0.509793,-1.195764 1.143034,-1.195764 z" color="#000" display="inline" enable-background="accumulate" overflow="visible" visibility="visible" style="marker:none"/><path id="rect3186" fill="url(#linearGradient4853)" fill-opacity="1" stroke="#c85100" stroke-dashoffset=".45" stroke-linecap="square" stroke-linejoin="round" stroke-miterlimit="4" stroke-opacity="1" stroke-width="1" d="m 9.571605,28.142858 29.71393,0 c 0.633241,0 1.143035,0.530244 1.143035,1.188888 l 4,13.059724 c 0,0.658644 -0.509794,1.188888 -1.143035,1.188888 l -37.999644,0 c -0.633241,0 -1.143034,-0.530244 -1.143034,-1.188888 L 8.428571,29.331746 c 0,-0.658644 0.509793,-1.188888 1.143034,-1.188888 z" color="#000" display="inline" enable-background="accumulate" overflow="visible" visibility="visible" style="marker:none"/><path id="path4015" fill="none" stroke="url(#linearGradient4855)" stroke-dasharray="none" stroke-dashoffset=".45" stroke-linecap="square" stroke-linejoin="round" stroke-miterlimit="4" stroke-opacity="1" stroke-width="1.025" d="m 9.5625,29.09375 c -0.1091502,0 -0.1875,0.04455 -0.1875,0.28125 A 0.92866426,0.92866426 0 0 1 9.3125,29.65625 L 5.125,42.9375 c 0.022545,0.178121 0.086896,0.28125 0.15625,0.28125 l 38,0 c 0.0786,0 0.21875,-0.104142 0.21875,-0.3125 L 39.5625,29.625 A 0.92866426,0.92866426 0 0 1 39.5,29.375 c 0,-0.208358 -0.1096,-0.28125 -0.21875,-0.28125 l -29.71875,0 z" color="#000" display="inline" enable-background="accumulate" overflow="visible" transform="matrix(1,0,0,0.95132743,0,1.4160675)" visibility="visible" style="marker:none"/><g id="g4819" transform="translate(-0.1205365,0)"><path id="path4421" fill="url(#linearGradient4857)" fill-opacity="1" stroke="#c85100" stroke-dasharray="none" stroke-miterlimit="4" stroke-opacity="1" stroke-width="1" d="M 26.4375,0.93158641 C 25.049067,0.34827984 23.915257,0.40173516 22.625,0.9902128 22.291366,1.1423809 22.032645,1.4902464 21.9375,1.8402954 19.059874,12.427451 12.25,32.355328 12.25,32.355328 c -0.419963,0.549582 -0.65625,1.118843 -0.65625,1.729479 0,3.067933 5.734247,5.540193 12.8125,5.540193 7.078253,0 12.8125,-2.47226 12.8125,-5.540193 0,-0.554986 -0.212985,-1.077228 -0.5625,-1.582912 -0.01275,-0.01845 -0.01807,-0.04026 -0.03125,-0.05863 0,0 -6.640927,-20.604873 -9.40625,-30.7788518 C 27.12571,1.3221209 26.768191,1.0705158 26.4375,0.93158641 z" color="#000" display="inline" enable-background="accumulate" overflow="visible" visibility="visible" style="marker:none"/><path d="M 26.4375,1.3376953 22.625,1.397165 21.9375,2.2594755 12.25,33.213452 c -0.419963,0.557488 -0.65625,1.134937 -0.65625,1.754357 0,3.112064 5.734247,5.619886 12.8125,5.619886 7.078253,0 12.8125,-2.507822 12.8125,-5.619886 0,-0.562969 -0.212985,-1.092724 -0.5625,-1.605682 -0.01275,-0.01872 -0.01807,-0.04084 -0.03125,-0.05947 L 27.21875,2.0810664 26.4375,1.3376953 z" style="marker:none" id="path4421-4" fill="none" stroke="url(#linearGradient4859)" stroke-dasharray="none" stroke-miterlimit="4" stroke-opacity="1" stroke-width="1" color="#000" display="inline" enable-background="accumulate" overflow="visible" visibility="visible"/><path id="path4421-2-8" fill="url(#linearGradient4861)" fill-opacity="1" stroke="none" stroke-width=".858" d="m 15.872169,23.09375 c -1.27336,4.216103 -2.201176,7.155705 -2.493187,8.09375 1.665979,2.154974 6.031299,3.6875 11.161358,3.6875 4.924857,0 9.350599,-1.417835 11.154552,-3.4375 -0.135066,-0.458813 -1.436302,-4.240466 -2.602342,-8.28125 -2.162614,1.057009 -5.188064,1.71875 -8.55221,1.71875 -3.428215,0 -6.501075,-0.68375 -8.668171,-1.78125 z" color="#000" display="inline" enable-background="accumulate" overflow="visible" visibility="visible" style="marker:none"/><path id="path4421-2-8-4" fill="url(#linearGradient4863)" fill-opacity="1" stroke="none" stroke-width=".858" d="m 21.109207,6.5625 c -0.762662,2.9660386 -1.93909,6.150587 -2.821896,9.34375 1.691954,0.611275 4.047115,0.96875 6.249118,0.96875 2.227691,0 4.647611,-0.374202 6.353164,-1 -0.852907,-3.207851 -2.048344,-6.3784253 -2.788851,-9.3125 -1.10821,0.210286 -2.317907,0.3125 -3.564313,0.3125 -1.20559,0 -2.35067,-0.1155042 -3.427222,-0.3125 z" color="#000" display="inline" enable-background="accumulate" overflow="visible" visibility="visible" style="marker:none"/></g></g></g></svg>