<svg xmlns="http://www.w3.org/2000/svg" xmlns:svg="http://www.w3.org/2000/svg" xmlns:xlink="http://www.w3.org/1999/xlink" id="svg4834" width="48" height="48" version="1.1"><defs id="defs4836"><linearGradient id="linearGradient4219" x1="68.323" x2="68.323" y1="38.827" y2="81.978" gradientUnits="userSpaceOnUse" xlink:href="#linearGradient3922"/><linearGradient id="linearGradient3922"><stop id="stop3924" offset="0" stop-color="#000" stop-opacity="1"/><stop id="stop3926" offset="1" stop-color="#000" stop-opacity="0"/></linearGradient><linearGradient id="linearGradient3892" x1="23.185" x2="23.185" y1="4.024" y2="42.351" gradientTransform="translate(204.57144,162.6479)" gradientUnits="userSpaceOnUse" xlink:href="#linearGradient3882"/><linearGradient id="linearGradient3882"><stop id="stop3884" offset="0" stop-color="#fff" stop-opacity="1"/><stop id="stop3886" offset=".439" stop-color="#fff" stop-opacity=".235"/><stop id="stop3888" offset=".835" stop-color="#fff" stop-opacity=".157"/><stop id="stop3890" offset="1" stop-color="#fff" stop-opacity=".392"/></linearGradient><radialGradient id="radialGradient2889" cx="90.747" cy="32.164" r="23" fx="90.747" fy="32.164" gradientTransform="matrix(0.32729625,-0.22730582,0.12062179,0.17368257,179.44778,216.78653)" gradientUnits="userSpaceOnUse" xlink:href="#linearGradient4183"/><linearGradient id="linearGradient4183"><stop id="stop4185" offset="0" stop-color="#fa9654" stop-opacity="1"/><stop id="stop4187" offset="1" stop-color="#4e2002" stop-opacity="0"/></linearGradient><radialGradient id="radialGradient2897-6" cx="20.249" cy="4.912" r="23" fx="20.249" fy="4.912" gradientTransform="matrix(0,1.7703635,-1.4881952,0,234.73795,129.78885)" gradientUnits="userSpaceOnUse" xlink:href="#linearGradient4189"/><linearGradient id="linearGradient4189"><stop id="stop4191" offset="0" stop-color="#f0d000" stop-opacity="1"/><stop id="stop4193" offset=".262" stop-color="#f09c18" stop-opacity="1"/><stop id="stop4195" offset=".705" stop-color="#f07018" stop-opacity="1"/><stop id="stop4197" offset="1" stop-color="#e82818" stop-opacity="1"/></linearGradient><linearGradient id="linearGradient2899-9" x1="18.139" x2="18.139" y1="45.218" y2="3" gradientTransform="translate(204.57144,162.6479)" gradientUnits="userSpaceOnUse" xlink:href="#linearGradient4199"/><linearGradient id="linearGradient4199"><stop id="stop4201" offset="0" stop-color="#505050" stop-opacity="1"/><stop id="stop4203" offset="1" stop-color="#878787" stop-opacity="1"/></linearGradient><radialGradient id="radialGradient3080" cx="62.625" cy="4.625" r="10.625" fx="62.625" fy="4.625" gradientTransform="matrix(2.1647059,0,0,0.7529402,93.006719,199.16555)" gradientUnits="userSpaceOnUse" xlink:href="#linearGradient4205"/><linearGradient id="linearGradient4205"><stop id="stop4207" offset="0" stop-color="#0a0a0a" stop-opacity="1"/><stop id="stop4209" offset="1" stop-color="#0a0a0a" stop-opacity="0"/></linearGradient></defs><metadata id="metadata4839"/><g id="layer1" transform="translate(-204.57143,-162.64789)"><path id="path8836-3" fill="url(#radialGradient3080)" fill-opacity="1" fill-rule="evenodd" stroke="none" stroke-width="1" d="m 251.57143,202.6479 c 0,4.41828 -10.29745,8 -23,8 -12.70254,0 -23,-3.58172 -23,-8 0,-4.41828 10.29746,-8 23,-8 12.70255,0 23,3.58172 23,8 l 0,0 z" display="inline" enable-background="new" opacity=".3" overflow="visible" visibility="visible" style="marker:none"/><path id="path6145-5" fill="url(#radialGradient2897-6)" fill-opacity="1" fill-rule="evenodd" stroke="url(#linearGradient2899-9)" stroke-dasharray="none" stroke-dashoffset="0" stroke-linecap="butt" stroke-linejoin="round" stroke-miterlimit="4" stroke-opacity="1" stroke-width=".995" d="m 225.38412,166.43124 c -11.51798,1.69811 -20.04059,9.63396 -19.26622,18.22638 0.50144,5.56394 4.77193,10.14354 10.8789,12.5598 l -2.05632,8.01257 c 0,0 -0.21942,0.75015 0.0955,1.01514 0.31495,0.265 1.07352,-0.29675 1.07352,-0.29675 l 9.61532,-6.95402 0.078,-0.007 c 1.39169,0.0665 2.78983,0.0886 4.24071,-0.0438 12.38077,-1.12956 21.79387,-9.36788 20.98141,-18.38288 -0.81246,-9.01499 -11.54484,-15.41537 -23.92561,-14.28582 -0.58035,0.053 -1.14874,0.073 -1.7152,0.15648 z" display="inline" enable-background="new" overflow="visible" visibility="visible" style="marker:none"/><path id="path3845" fill="url(#radialGradient2889)" fill-opacity="1" fill-rule="evenodd" stroke="none" stroke-width=".995" d="m 231.60269,166.61665 c -1.45513,-0.0831 -2.94032,-0.0457 -4.46875,0.0937 -0.59689,0.0545 -1.15413,0.0776 -1.6875,0.15625 -5.6749,0.83666 -10.5996,3.21021 -14,6.40625 -3.4004,3.19603 -5.27906,7.2071 -4.90625,11.34375 0.48279,5.35701 4.63184,9.81627 10.625,12.1875 a 0.45001441,0.45001441 0 0 1 0.28125,0.53125 l -2.25,8.71875 10.28125,-7.4375 a 0.45001441,0.45001441 0 0 1 0.25,-0.0625 l 0.0625,0 a 0.45001441,0.45001441 0 0 1 0.0312,0 c 1.37795,0.0659 2.76353,0.0674 4.1875,-0.0625 6.1022,-0.55673 11.46522,-2.87073 15.1875,-6.125 3.72227,-3.25427 5.79741,-7.44098 5.40625,-11.78125 -0.34224,-3.79745 -2.52015,-7.11964 -5.90625,-9.59375 -3.3861,-2.47412 -7.99208,-4.08365 -13.09375,-4.375 z" display="inline" enable-background="new" overflow="visible" visibility="visible" style="marker:none"/><path id="path6179" fill="none" stroke="url(#linearGradient3892)" stroke-dasharray="none" stroke-dashoffset="0" stroke-linecap="butt" stroke-linejoin="miter" stroke-miterlimit="4" stroke-opacity="1" stroke-width=".995" d="m 225.66608,167.41022 c -10.22887,1.48975 -19.2481,8.12026 -18.53669,17.09826 0.47782,6.03024 5.18238,10.12225 11.01627,12.02456 l -1.96029,8.05769 9.15759,-6.58386 c 1.23524,0.0537 3.13577,0.14938 4.42406,0.0319 9.74087,-0.8887 21.09304,-8.12339 20.27734,-17.11837 -0.86913,-9.52606 -12.21474,-14.61985 -22.85529,-13.64908 -0.51531,0.047 -1.01993,0.0657 -1.52299,0.13895 z" display="inline" enable-background="new" opacity=".4" overflow="visible" visibility="visible" style="marker:none"/><g id="g4211" display="inline" transform="matrix(0.40886081,0,0,0.40886081,200.96065,158.42927)"><path id="path4213" fill="#505050" fill-opacity="1" fill-rule="nonzero" stroke="none" stroke-width="1" d="m 80.777658,34.812075 -13.25825,13.25825 -13.23616,-13.23616 -9.50174,9.50175 13.23615,13.23615 -13.23615,13.23616 9.50174,9.50175 13.23616,-13.23616 13.25825,13.25825 9.50175,-9.50174 -13.25825,-13.25826 13.25825,-13.25825 -9.50175,-9.50174 z" color="#000" display="inline" enable-background="accumulate" overflow="visible" visibility="visible" style="marker:none"/><path d="m 80.777658,37.28036 -13.25825,13.25825 -13.23616,-13.23616 -9.50174,9.50175 13.23615,13.23615 -13.23615,13.23616 9.50174,9.50175 13.23616,-13.23616 13.25825,13.25825 9.50175,-9.50174 -13.25825,-13.25826 13.25825,-13.25825 -9.50175,-9.50174 z" style="marker:none" id="path4215" fill="#fff" fill-opacity="1" fill-rule="nonzero" stroke="none" stroke-width="1" color="#000" display="inline" enable-background="accumulate" overflow="visible" visibility="visible"/><path id="path4217" fill="none" stroke="url(#linearGradient4219)" stroke-dasharray="none" stroke-dashoffset="0" stroke-linecap="square" stroke-linejoin="miter" stroke-miterlimit="4" stroke-opacity="1" stroke-width="2.446" d="m 80.78125,39.03125 -12.375,12.375 a 1.2302964,1.2302964 0 0 1 -1.75,0 l -12.375,-12.34375 -7.75,7.75 12.375,12.34375 a 1.2302964,1.2302964 0 0 1 0,1.75 l -12.375,12.375 7.75,7.75 12.375,-12.375 a 1.2302964,1.2302964 0 0 1 1.75,0 l 12.375,12.40625 7.75,-7.75 -12.375,-12.40625 a 1.2302964,1.2302964 0 0 1 0,-1.75 l 12.375,-12.375 -7.75,-7.75 z" color="#000" display="inline" enable-background="accumulate" opacity=".07" overflow="visible" visibility="visible" style="marker:none"/></g></g></svg>