<svg xmlns="http://www.w3.org/2000/svg" xmlns:xlink="http://www.w3.org/1999/xlink" width="16" height="16.004" version="1.1"><defs><linearGradient id="l" x1="143.53" x2="143.03" y1="93.437" y2="79.181" gradientTransform="translate(-135 91.5)" gradientUnits="userSpaceOnUse" xlink:href="#b"/><linearGradient id="b"><stop offset="0" stop-color="#52769e"/><stop offset="1" stop-color="#d1dbe7"/></linearGradient><linearGradient id="k" x1="151.34" x2="151.16" y1="90.278" y2="84.321" gradientTransform="translate(-137.68 87.412)" gradientUnits="userSpaceOnUse" xlink:href="#c"/><linearGradient id="c"><stop offset="0" stop-color="#1d446f"/><stop offset="1" stop-color="#5892d4"/></linearGradient><radialGradient id="d" cx="166.19" cy="46.834" r="24.266" gradientTransform="matrix(-.44285 .45283 -.46485 -.45460 130.45 82.393)" gradientUnits="userSpaceOnUse"><stop offset="0" stop-color="#5892d4"/><stop offset="1" stop-color="#1d446f"/></radialGradient><linearGradient id="j" x1="145.86" x2="146.04" y1="92.855" y2="82.354" gradientTransform="translate(-137.16 86.459)" gradientUnits="userSpaceOnUse" xlink:href="#a"/><linearGradient id="a"><stop offset="0" stop-color="#102640"/><stop offset="1" stop-color="#77a6dd"/></linearGradient><linearGradient id="i" x1="143.53" x2="143.03" y1="93.437" y2="79.181" gradientTransform="matrix(-1 0 0 1 205.59 91.5)" gradientUnits="userSpaceOnUse" xlink:href="#b"/><linearGradient id="h" x1="151.34" x2="151.16" y1="90.278" y2="84.321" gradientTransform="translate(-208.24 85.295)" gradientUnits="userSpaceOnUse" xlink:href="#c"/><linearGradient id="g" x1="145.86" x2="146.04" y1="92.855" y2="82.354" gradientTransform="translate(-207.73 83.852)" gradientUnits="userSpaceOnUse" xlink:href="#a"/><linearGradient id="f" x1="36.164" x2="36.164" y1="133.54" y2="156" gradientUnits="userSpaceOnUse"><stop offset="0" stop-color="#fff"/><stop offset="1" stop-color="#fff" stop-opacity="0"/></linearGradient><linearGradient id="e" x1="35.601" x2="35.601" y1="158.73" y2="190.48" gradientTransform="matrix(.73042 0 0 .73053 132.19 -95.708)" gradientUnits="userSpaceOnUse"><stop offset="0" stop-color="#bd1717"/><stop offset="1" stop-color="#bdb317"/></linearGradient></defs><g><g><g transform="translate(-312 -321.5) matrix(.34883 0 0 .34883 264.97 320.13) matrix(.73042 0 0 .73053 131.98 -95.541)"><path fill="url(#l)" stroke="#456283" stroke-width="3.925" d="m11.875 170.72c-2.2909 0-4.3088 1.9892-5.5625 5.0312l0.34375 15.188c1.2639 2.5658 3.144 4.1875 5.2187 4.1875 3.8076 0 6.875-5.451 6.875-12.188 0-6.7365-3.0674-12.219-6.875-12.219z" color="#000" enable-background="accumulate"/><rect width="5.834" height="24.572" x="9.616" y="170.87" fill="url(#k)" stroke="#1d446f" stroke-width="3.925" color="#000" enable-background="accumulate" rx=".955" ry=".955" transform="rotate(-1.718)"/><path fill="#193a5f" stroke="#0c1d30" stroke-width="3.925" d="m35.313 142.19c-6.8585 0-12.972 3.292-17 8.4688l1.1875 2.0312c3.9942-4.2012 9.5838-6.8125 15.812-6.8125 6.2632 0 11.9 2.6329 15.906 6.875l1.1562-2c-4.0357-5.228-10.165-8.5625-17.062-8.5625z" color="#000" enable-background="accumulate"/><path fill="url(#d)" stroke="#1d446f" stroke-width="3.925" d="m35.313 138.12c-13.172 0-23.75 10.843-23.75 24.344v7.625h1.75v-4.5938c0-12.919 9.8072-23.312 22-23.312s22.031 10.393 22.031 23.312v4.5938h1.75v-7.625c0-13.501-10.609-24.344-23.781-24.344z" color="#000" enable-background="accumulate"/><path fill="#102640" stroke="#102640" stroke-linecap="round" stroke-linejoin="round" stroke-width="3.925" d="m11.018 169.4h3.182l-0.70711-3.7123h-2.1213z"/><rect width="5.827" height="28.077" x="6.279" y="169.24" fill="url(#j)" stroke="#102640" stroke-width="3.925" color="#000" enable-background="accumulate" rx=".954" ry="1.091" transform="matrix(.99932 -.036930 .023903 .99971 0 0)"/><path fill="url(#i)" stroke="#456283" stroke-width="3.925" d="m58.711 170.72c2.2909 0 4.3088 1.9892 5.5625 5.0312l-0.34375 15.188c-1.2639 2.5658-3.144 4.1875-5.2188 4.1875-3.8076 0-6.875-5.451-6.875-12.188 0-6.7365 3.0674-12.219 6.875-12.219z" color="#000" enable-background="accumulate"/><rect width="5.834" height="24.572" x="-60.938" y="168.75" fill="url(#h)" stroke="#1d446f" stroke-width="3.925" color="#000" enable-background="accumulate" rx=".955" ry=".955" transform="matrix(-.99955 -.029980 -.029980 .99955 0 0)"/><path fill="#102640" stroke="#102640" stroke-linecap="round" stroke-linejoin="round" stroke-width="3.925" d="m59.569 169.4h-3.182l0.70711-3.7123h2.1213z" enable-background="new"/><rect width="5.827" height="28.077" x="-64.294" y="166.63" fill="url(#g)" stroke="#102640" stroke-width="3.925" color="#000" enable-background="accumulate" rx=".954" ry="1.091" transform="matrix(-.99932 -.036930 -.023903 .99971 0 0)"/><path fill="none" stroke="url(#f)" stroke-width="3.925" d="m35.312 140.06c-12.114 0-21.812 9.9127-21.812 22.406v5.6875h43.656v-5.6875c0-12.491-9.7299-22.406-21.844-22.406z" color="#000" enable-background="accumulate"/></g><path fill="none" stroke="url(#e)" stroke-linecap="round" stroke-linejoin="round" stroke-width=".955" d="m148.88 38.068 2.4533-12.139 1.8077 16.917 2.195-21.179 1.9368 16.013 2.0659-12.01 2.1951 14.076 1.5494-18.725 3.4863 17.434" enable-background="new" transform="translate(-312 -321.5) matrix(.34883 0 0 .34883 264.97 320.13)"/></g></g></svg>