<svg xmlns="http://www.w3.org/2000/svg" xmlns:svg="http://www.w3.org/2000/svg" xmlns:xlink="http://www.w3.org/1999/xlink" id="svg7357" width="16" height="16" version="1.1"><defs id="defs7359"><linearGradient id="linearGradient4224" x1="24" x2="24" y1="5" y2="43" gradientTransform="matrix(0.2972973,0,0,0.2972973,0.86486973,0.86486734)" gradientUnits="userSpaceOnUse" xlink:href="#linearGradient3924-4-8"/><linearGradient id="linearGradient3924-4-8"><stop id="stop3926-0-4" offset="0" stop-color="#fff" stop-opacity="1"/><stop id="stop3928-6-8" offset=".063" stop-color="#fff" stop-opacity=".235"/><stop id="stop3930-2-1" offset=".951" stop-color="#fff" stop-opacity=".157"/><stop id="stop3932-9-0" offset="1" stop-color="#fff" stop-opacity=".392"/></linearGradient><linearGradient id="linearGradient5882-7" x1="223.217" x2="223.217" y1="38.035" y2="47.987" gradientTransform="translate(-215,-35.000003)" gradientUnits="userSpaceOnUse" xlink:href="#linearGradient5803-0"/><linearGradient id="linearGradient5803-0"><stop id="stop5805-3" offset="0" stop-color="#fff5ef" stop-opacity="1"/><stop id="stop5807-4" offset="1" stop-color="#fef8dd" stop-opacity="1"/></linearGradient><linearGradient id="linearGradient2867-449-88-871-390-598-476-591-434-148-57-177-8-3-3-6-4-8-8-8"><stop id="stop3750-1-0-7-6-6-1-3-9" offset="0" stop-color="#ffcd7d" stop-opacity="1"/><stop id="stop3752-3-7-4-0-32-8-923-0" offset=".262" stop-color="#fc8f36" stop-opacity="1"/><stop id="stop3754-1-8-5-2-7-6-7-1" offset=".705" stop-color="#e23a0e" stop-opacity="1"/><stop id="stop3756-1-6-2-6-6-1-96-6" offset="1" stop-color="#ac441f" stop-opacity="1"/></linearGradient><radialGradient id="radialGradient7347" cx="6.73" cy="9.957" r="12.672" fx="6.2" fy="9.957" gradientTransform="matrix(0,3.1658508,-3.8866533,0,46.97684,-26.720326)" gradientUnits="userSpaceOnUse" xlink:href="#linearGradient2867-449-88-871-390-598-476-591-434-148-57-177-8-3-3-6-4-8-8-8"/><linearGradient id="linearGradient2867-449-88-871-390-598-476-591-434-148-57-177-8-3-3-6-4-8-8-8-6"><stop id="stop3750-1-0-7-6-6-1-3-9-2" offset="0" stop-color="#29abe2" stop-opacity="1"/><stop id="stop3752-3-7-4-0-32-8-923-0-2" offset=".262" stop-color="#28aae1" stop-opacity="1"/><stop id="stop3754-1-8-5-2-7-6-7-1-8" offset=".705" stop-color="#1d99d6" stop-opacity="1"/><stop id="stop3756-1-6-2-6-6-1-96-6-1" offset="1" stop-color="#0274bd" stop-opacity="1"/></linearGradient><radialGradient id="radialGradient4616" cx="6.73" cy="9.957" r="12.672" fx="6.2" fy="9.957" gradientTransform="matrix(0,3.1658508,-3.8866534,0,31.909052,-26.838969)" gradientUnits="userSpaceOnUse" xlink:href="#linearGradient2867-449-88-871-390-598-476-591-434-148-57-177-8-3-3-6-4-8-8-8-6"/><linearGradient id="linearGradient4267" x1="20.375" x2="20.375" y1="34.563" y2="15.25" gradientTransform="matrix(-0.33333334,0,0,0.33333334,0.93285166,-0.45197611)" gradientUnits="userSpaceOnUse" xlink:href="#linearGradient4552"/><linearGradient id="linearGradient4552"><stop id="stop4554" offset="0" stop-color="#333" stop-opacity="1"/><stop id="stop4556" offset="1" stop-color="#4d4d4d" stop-opacity="1"/></linearGradient><linearGradient id="linearGradient4620" x1="20.375" x2="20.375" y1="34.563" y2="15.25" gradientTransform="matrix(0.33333334,0,0,0.33333334,-15.0678,-0.45197611)" gradientUnits="userSpaceOnUse" xlink:href="#linearGradient4552"/><linearGradient id="linearGradient4411" x1="24" x2="24" y1="5" y2="43" gradientTransform="matrix(0.2972973,0,0,0.2972973,-14.202927,0.74622584)" gradientUnits="userSpaceOnUse" xlink:href="#linearGradient3924-4-8"/></defs><metadata id="metadata7362"/><g id="g4425" transform="translate(15.067798,0.11864293)"><rect id="rect4566" width="13" height="13" x="-13.568" y="1.381" fill="url(#radialGradient4616)" fill-opacity="1" fill-rule="nonzero" stroke="none" stroke-width="1" color="#000" display="inline" enable-background="accumulate" overflow="visible" rx=".667" ry=".667" visibility="visible" style="marker:none"/><rect id="rect4409" width="11" height="11" x="-12.568" y="2.381" fill="none" stroke="url(#linearGradient4411)" stroke-dasharray="none" stroke-dashoffset="0" stroke-linecap="round" stroke-linejoin="round" stroke-miterlimit="4" stroke-opacity="1" stroke-width="1" opacity=".5"/><rect id="rect4570" width="13" height="13" x="-13.568" y="1.381" fill="none" stroke="#004471" stroke-dasharray="none" stroke-dashoffset="0" stroke-linecap="round" stroke-linejoin="round" stroke-miterlimit="4" stroke-opacity="1" stroke-width="1" color="#000" display="inline" enable-background="accumulate" opacity=".4" overflow="visible" rx=".667" ry=".667" visibility="visible" style="marker:none"/><path id="rect4572" fill="#fefefe" fill-opacity="1" fill-rule="nonzero" stroke="none" stroke-width="1" d="m -11.704548,2.7146889 9.2735043,0 c 0.2935723,0 0.5299143,0.2363421 0.5299143,0.5299148 l 0,9.2735043 c 0,0.293572 -0.236342,0.529915 -0.5299143,0.529915 l -9.2735043,0 c -0.293573,0 -0.529915,-0.236343 -0.529915,-0.529915 l 0,-9.2735043 c 0,-0.2935727 0.236342,-0.5299148 0.529915,-0.5299148 z" color="#000" display="inline" enable-background="accumulate" overflow="visible" visibility="visible" style="marker:none"/><g id="g4421"><path id="path4413" fill="#333" fill-opacity="1" fill-rule="nonzero" stroke="#333" stroke-dasharray="none" stroke-dashoffset="0" stroke-linecap="round" stroke-linejoin="round" stroke-miterlimit="4" stroke-opacity="1" stroke-width="1" d="m -6.7304688,5.1938284 0,0.5 0,2.0292968 1.1894532,0 0,3.1601558 -1.1894532,0 0,2.636719 3.8261719,0 0,-8.3261716 z" baseline-shift="baseline" clip-rule="nonzero" color="#000" color-interpolation="sRGB" color-interpolation-filters="linearRGB" color-rendering="auto" direction="ltr" display="inline" enable-background="accumulate" font-family="sans-serif" font-size="medium" font-stretch="normal" font-style="normal" font-variant="normal" font-weight="normal" image-rendering="auto" letter-spacing="normal" opacity=".15" overflow="visible" shape-rendering="auto" text-anchor="start" text-decoration="none" text-rendering="auto" visibility="visible" word-spacing="normal" writing-mode="lr-tb" style="line-height:normal;text-indent:0;text-align:start;text-decoration-line:none;text-decoration-style:solid;text-decoration-color:#000;text-transform:none;block-progression:tb;isolation:auto;mix-blend-mode:normal;solid-color:#000;solid-opacity:1"/><path id="path4415" fill="#333" fill-opacity="1" fill-rule="nonzero" stroke="#333" stroke-dasharray="none" stroke-dashoffset="0" stroke-linecap="round" stroke-linejoin="round" stroke-miterlimit="4" stroke-opacity="1" stroke-width="1" d="m -11.232422,5.1938284 0,8.3261716 3.8281251,0 0,-2.636719 -1.1894531,0 0,-3.1601558 1.1894531,0 0,-2.5292968 -0.5,0 z" baseline-shift="baseline" clip-rule="nonzero" color="#000" color-interpolation="sRGB" color-interpolation-filters="linearRGB" color-rendering="auto" direction="ltr" display="inline" enable-background="accumulate" font-family="sans-serif" font-size="medium" font-stretch="normal" font-style="normal" font-variant="normal" font-weight="normal" image-rendering="auto" letter-spacing="normal" opacity=".15" overflow="visible" shape-rendering="auto" text-anchor="start" text-decoration="none" text-rendering="auto" visibility="visible" word-spacing="normal" writing-mode="lr-tb" style="line-height:normal;text-indent:0;text-align:start;text-decoration-line:none;text-decoration-style:solid;text-decoration-color:#000;text-transform:none;block-progression:tb;isolation:auto;mix-blend-mode:normal;solid-color:#000;solid-opacity:1"/></g><path id="path4629" fill="none" fill-opacity="1" fill-rule="nonzero" stroke="#004471" stroke-opacity="1" stroke-width="1" d="m -11.704548,2.7146889 9.2735043,0 c 0.2935723,0 0.5299143,0.2363421 0.5299143,0.5299148 l 0,9.2735043 c 0,0.293572 -0.236342,0.529915 -0.5299143,0.529915 l -9.2735043,0 c -0.293573,0 -0.529915,-0.236343 -0.529915,-0.529915 l 0,-9.2735043 c 0,-0.2935727 0.236342,-0.5299148 0.529915,-0.5299148 z" color="#000" display="inline" enable-background="accumulate" opacity=".4" overflow="visible" visibility="visible" style="marker:none"/><path id="path4245" fill="#333" stroke="#333" stroke-width="1" d="m -6.2305528,5.1933965 0,1.5285104 1.1893814,0 0,4.1604041 -1.1893814,0 0,1.637689 2.8270711,0 0,-7.3266035 z" opacity=".3"/><path id="path4247" fill="url(#linearGradient4267)" fill-opacity="1" d="m -6.2305528,4.2180866 0,1.5285104 1.1893814,0 0,4.1604045 -1.1893814,0 0,1.6376895 2.8270711,0 0,-7.3266044 z"/><path id="path4249" fill="none" stroke="#000" stroke-width="1" d="m -6.2305528,4.2180866 0,1.5285104 1.1893814,0 0,4.1604045 -1.1893814,0 0,1.6376895 2.8270711,0 0,-7.3266044 z" opacity=".3"/><g id="g4588" fill="none" stroke="none" stroke-dasharray="none" stroke-miterlimit="4" stroke-width="1.082" opacity=".3" transform="matrix(0.30794162,0,0,0.30794162,-29.26137,0.2374065)"><g id="g4590" fill="none" stroke="none" stroke-dasharray="none" stroke-miterlimit="4" stroke-width="3.053" transform="matrix(0.35454545,0,0,0.35454545,49.73436,4.4363587)"><g id="g4592" fill="none" stroke="none" stroke-dasharray="none" stroke-miterlimit="4" stroke-width="3.053"><path id="path4594" fill="none" stroke="none" stroke-dasharray="none" stroke-miterlimit="4" stroke-width="3.053" d="m 59,27 0,14 -17,0 0,32 17,0 0,15 -32,0 0,-61 32,0 z"/></g></g><g id="g4596" fill="none" stroke="none" stroke-dasharray="none" stroke-miterlimit="4" stroke-width="3.053" transform="matrix(0.35454545,0,0,0.35454545,49.73436,4.4363587)"><g id="g4598" fill="none" stroke="none" stroke-dasharray="none" stroke-miterlimit="4" stroke-width="3.053"><path id="path4600" fill="none" stroke="none" stroke-dasharray="none" stroke-miterlimit="4" stroke-width="3.053" d="m 99,27 0,61 -32,0 0,-15 18,0 0,-32 -18,0 0,-14 32,0 z"/></g></g></g><path id="path4578" fill="#333" stroke="#333" stroke-width="1" d="m -7.9043954,5.1933965 0,1.5285104 -1.1893816,0 0,4.1604041 1.1893816,0 0,1.637689 -2.8270706,0 0,-7.3266035 z" opacity=".3"/><path id="path4584" fill="url(#linearGradient4620)" fill-opacity="1" d="m -7.9043954,4.2180866 0,1.5285104 -1.1893816,0 0,4.1604045 1.1893816,0 0,1.6376895 -2.8270706,0 0,-7.3266044 z"/><path id="path4602" fill="none" stroke="#000" stroke-width="1" d="m -7.9043954,4.2180866 0,1.5285104 -1.1893816,0 0,4.1604045 1.1893816,0 0,1.6376895 -2.8270706,0 0,-7.3266044 z" opacity=".3"/></g></svg>