<svg xmlns="http://www.w3.org/2000/svg" xmlns:xlink="http://www.w3.org/1999/xlink" width="16" height="16" version="1.1"><defs><linearGradient id="b" x1="24" x2="24" y1="5" y2="43" gradientTransform="matrix(.29730 0 0 .29730 .86487 .86487)" gradientUnits="userSpaceOnUse"><stop offset="0" stop-color="#fff"/><stop offset=".063" stop-color="#fff" stop-opacity=".235"/><stop offset=".951" stop-color="#fff" stop-opacity=".157"/><stop offset="1" stop-color="#fff" stop-opacity=".392"/></linearGradient><radialGradient id="a" cx="6.73" cy="9.957" r="12.672" fx="6.2" gradientTransform="matrix(0 3.1659 -3.8867 0 46.977 -26.72)" gradientUnits="userSpaceOnUse"><stop offset="0" stop-color="#fafafa"/><stop offset="1" stop-color="#e1e1e1"/></radialGradient></defs><path fill="url(#a)" d="m2.5 2c-0.2856 0-0.5 0.2144-0.5 0.5v11c0 0.286 0.2144 0.5 0.5 0.5h11c0.286 0 0.5-0.214 0.5-0.5v-11c0-0.2856-0.214-0.5-0.5-0.5h-11z" color="#000"/><rect width="11" height="11" x="2.5" y="2.5" fill="none" stroke="url(#b)" stroke-linecap="round" stroke-linejoin="round" opacity=".5"/><rect width="13" height="13" x="1.5" y="1.5" fill="none" stroke="#000" stroke-linecap="round" stroke-linejoin="round" color="#000" opacity=".4" rx="1" ry="1"/><rect width="2" height="2" x="4" y="5" opacity=".15" rx=".5" ry=".5"/><rect width="2" height="2" x="7" y="5" opacity=".15" rx=".5" ry=".5"/><rect width="2" height="2" x="10" y="5" opacity=".15" rx=".5" ry=".5"/><rect width="2" height="2" x="4" y="8" opacity=".15" rx=".5" ry=".5"/><rect width="2" height="2" x="7" y="8" opacity=".15" rx=".5" ry=".5"/><rect width="2" height="2" x="10" y="8" opacity=".15" rx=".5" ry=".5"/><rect width="2" height="2" x="4" y="11" opacity=".15" rx=".5" ry=".5"/><rect width="2" height="2" x="7" y="11" opacity=".15" rx=".5" ry=".5"/><rect width="2" height="2" x="10" y="11" opacity=".15" rx=".5" ry=".5"/><rect width="2" height="2" x="4" y="4" fill="#fe3932" rx=".5" ry=".5"/><rect width="2" height="2" x="7" y="4" fill="#fe3932" rx=".5" ry=".5"/><rect width="2" height="2" x="10" y="4" fill="#fe3932" rx=".5" ry=".5"/><rect width="2" height="2" x="4" y="7" fill="#009d5a" rx=".5" ry=".5"/><rect width="2" height="2" x="7" y="7" fill="#008bf4" rx=".5" ry=".5"/><rect width="2" height="2" x="10" y="7" fill="#ffb000" rx=".5" ry=".5"/><rect width="2" height="2" x="4" y="10" fill="#009d5a" rx=".5" ry=".5"/><rect width="2" height="2" x="7" y="10" fill="#ffb000" rx=".5" ry=".5"/><rect width="2" height="2" x="10" y="10" fill="#ffb000" rx=".5" ry=".5"/></svg>