<svg xmlns="http://www.w3.org/2000/svg" xmlns:xlink="http://www.w3.org/1999/xlink" width="16" height="16" version="1.1"><defs><linearGradient id="c" x1="24" x2="24" y1="5" y2="43" gradientTransform="matrix(.29730 0 0 .29730 .86487 .86487)" gradientUnits="userSpaceOnUse"><stop offset="0" stop-color="#fff"/><stop offset=".063" stop-color="#fff" stop-opacity=".235"/><stop offset=".951" stop-color="#fff" stop-opacity=".157"/><stop offset="1" stop-color="#fff" stop-opacity=".392"/></linearGradient><radialGradient id="a" cx="7.496" cy="8.45" r="20" gradientTransform="matrix(-.0000019081 .71529 -.82409 -.0000022115 14.963 -3.6674)" gradientUnits="userSpaceOnUse"><stop offset="0" stop-color="#f8de97"/><stop offset=".262" stop-color="#f6ce68"/><stop offset=".705" stop-color="#f4ba27"/><stop offset="1" stop-color="#d89e0c"/></radialGradient><linearGradient id="b" x1="24" x2="24" y1="44" y2="3.899" gradientTransform="matrix(.33333 0 0 .33333 1.5e-7 -.00000292)" gradientUnits="userSpaceOnUse"><stop offset="0" stop-color="#b98809"/><stop offset="1" stop-color="#dca10b"/></linearGradient></defs><rect width="13" height="13" x="1.5" y="1.5" fill="url(#a)" stroke="url(#b)" stroke-linecap="round" stroke-linejoin="round" color="#000" rx="1" ry="1"/><rect width="11" height="11" x="2.5" y="2.5" fill="none" stroke="url(#c)" stroke-linecap="round" stroke-linejoin="round" opacity=".5"/><path d="m8 4c-1.6509 0-3 1.3491-3 3 0.0013 0.8358 0.3947 1.5951 1 2.1582v0.8418 2h1v1h2v-1h1v-2-0.83984c0.606-0.5637 0.999-1.3234 1-2.1602 0-1.6509-1.3491-3-3-3zm0 1c1.1105 0 2 0.8895 2 2-0.0005 0.6294-0.2973 1.22-0.8008 1.5977l-0.1992 0.1503v0.252h-2v-0.2539l-0.1992-0.1504c-0.5031-0.3773-0.7998-0.9669-0.8008-1.5957 0-1.1105 0.8895-2 2-2zm-1 5h2v1h-2v-1z" color="#000" color-rendering="auto" image-rendering="auto" opacity=".15" shape-rendering="auto" style="text-decoration-color:#000;isolation:auto;mix-blend-mode:normal;solid-color:#000;block-progression:tb;text-decoration-line:none;text-decoration-style:solid;white-space:normal;text-indent:0;text-transform:none"/><path fill="#fff" d="m8 3c-1.6509 0-3 1.3491-3 3 0.0013 0.8358 0.3947 1.5951 1 2.1582v0.8418 2h1v1h2v-1h1v-2-0.83984c0.606-0.5637 0.999-1.3234 1-2.1602 0-1.6509-1.3491-3-3-3zm0 1c1.1105 0 2 0.8895 2 2-0.0005 0.6294-0.2973 1.22-0.8008 1.5977l-0.1992 0.1503v0.252h-2v-0.2539l-0.1992-0.1504c-0.5031-0.3773-0.7998-0.9669-0.8008-1.5957 0-1.1105 0.8895-2 2-2zm-1 5h2v1h-2v-1z" color="#000" color-rendering="auto" image-rendering="auto" shape-rendering="auto" style="text-decoration-color:#000;isolation:auto;mix-blend-mode:normal;solid-color:#000;block-progression:tb;text-decoration-line:none;text-decoration-style:solid;white-space:normal;text-indent:0;text-transform:none"/></svg>