<svg xmlns="http://www.w3.org/2000/svg" xmlns:svg="http://www.w3.org/2000/svg" xmlns:xlink="http://www.w3.org/1999/xlink" id="svg2" width="16" height="16" version="1.1"><defs id="defs4"><linearGradient id="linearGradient3880"><stop id="stop3882" offset="0" stop-color="#000" stop-opacity=".196"/><stop id="stop3884" offset="1" stop-color="#000" stop-opacity="0"/></linearGradient><linearGradient id="linearGradient3830"><stop id="stop3832" offset="0" stop-color="gray" stop-opacity=".51"/><stop id="stop3848" offset=".05" stop-color="gray" stop-opacity=".392"/><stop id="stop3846" offset=".904" stop-color="gray" stop-opacity=".471"/><stop id="stop3834" offset="1" stop-color="gray" stop-opacity=".588"/></linearGradient><linearGradient id="linearGradient3775"><stop id="stop3777" offset="0" stop-color="#fff" stop-opacity=".588"/><stop id="stop3779" offset="1" stop-color="#fff" stop-opacity="1"/></linearGradient><linearGradient id="linearGradient3765"><stop id="stop3767" offset="0" stop-color="#fff" stop-opacity="1"/><stop id="stop3769" offset="1" stop-color="#e4e4e4" stop-opacity="1"/></linearGradient><radialGradient id="radialGradient3899" cx="32.629" cy="60.415" r="26.29" fx="32.629" fy="60.415" gradientTransform="matrix(1,0,0,0.10474308,0,54.086896)" gradientUnits="userSpaceOnUse" xlink:href="#linearGradient3880"/><radialGradient id="radialGradient3914" cx="14.892" cy="-17.681" r="25.571" fx="14.892" fy="-17.681" gradientTransform="matrix(-1.7922484,4.7450628e-8,-3.529013e-8,-1.3329366,41.58142,-41.248313)" gradientUnits="userSpaceOnUse" xlink:href="#linearGradient3765"/><linearGradient id="linearGradient4056" x1="29.462" x2="29.462" y1="1008.808" y2="1033.228" gradientTransform="matrix(0.35963684,0,0,0.35963684,0.67143943,672.96484)" gradientUnits="userSpaceOnUse" xlink:href="#linearGradient3830"/><linearGradient id="linearGradient4060" x1="29.462" x2="29.462" y1="1008.808" y2="1033.228" gradientTransform="matrix(0.35963684,0,0,0.35963684,0.67143943,672.96484)" gradientUnits="userSpaceOnUse" xlink:href="#linearGradient3830"/><linearGradient id="linearGradient4066" x1="15.124" x2="15.124" y1="-18.801" y2="32.568" gradientUnits="userSpaceOnUse" xlink:href="#linearGradient3775"/><linearGradient id="linearGradient4099" x1="29.462" x2="29.462" y1="1008.808" y2="1033.228" gradientTransform="matrix(0.22654829,0,0,0.22654829,0.86372869,812.96062)" gradientUnits="userSpaceOnUse" xlink:href="#linearGradient3830"/><linearGradient id="linearGradient4103" x1="29.462" x2="29.462" y1="1008.808" y2="1033.228" gradientTransform="matrix(0.22654829,0,0,0.22654829,0.86372869,812.96062)" gradientUnits="userSpaceOnUse" xlink:href="#linearGradient3830"/><linearGradient id="linearGradient4109" x1="15.124" x2="15.124" y1="-18.801" y2="32.568" gradientUnits="userSpaceOnUse" xlink:href="#linearGradient3775"/><linearGradient id="linearGradient3785" x1="29.462" x2="29.462" y1="1008.808" y2="1033.228" gradientTransform="matrix(0.22654829,0,0,0.22654829,0.86372869,812.96062)" gradientUnits="userSpaceOnUse" xlink:href="#linearGradient3830"/><linearGradient id="linearGradient3789" x1="29.462" x2="29.462" y1="1008.808" y2="1033.228" gradientTransform="matrix(0.22654829,0,0,0.22654829,0.86372869,812.96062)" gradientUnits="userSpaceOnUse" xlink:href="#linearGradient3830"/></defs><metadata id="metadata7"/><g id="layer1" transform="translate(0,-1036.3622)"><g id="g3795"><path id="path3878" fill="url(#radialGradient3899)" fill-opacity="1" stroke="none" d="m 58.919613,60.414944 a 26.290409,2.7537384 0 1 1 -52.5808183,0 26.290409,2.7537384 0 1 1 52.5808183,0 z" transform="matrix(0.22654829,0,0,0.22654829,0.86372869,1037.1784)"/><path id="path2985" fill="url(#radialGradient3914)" fill-opacity="1" stroke="none" d="m 40.780711,6.8335247 a 25.570608,25.570608 0 1 1 -51.141216,0 25.570608,25.570608 0 1 1 51.141216,0 z" transform="matrix(0.26143421,0,0,0.26143421,4.0235587,1042.4487)"/><path id="path3755" fill="none" stroke="#828282" stroke-dasharray="none" stroke-miterlimit="4" stroke-opacity=".588" stroke-width="3.825" d="m 40.780711,6.8335247 a 25.570608,25.570608 0 1 1 -51.141216,0 25.570608,25.570608 0 1 1 51.141216,0 z" transform="matrix(0.26143421,0,0,0.26143421,4.0235587,1042.4487)"/><path id="path3773" fill="none" stroke="url(#linearGradient4109)" stroke-dasharray="none" stroke-miterlimit="4" stroke-opacity=".588" stroke-width="4.23" d="m 40.780711,6.8335247 a 25.570608,25.570608 0 1 1 -51.141216,0 25.570608,25.570608 0 1 1 51.141216,0 z" transform="matrix(0.22256754,0,0,0.22256754,4.6147245,1042.7142)"/><path id="rect3789" fill="url(#linearGradient3789)" fill-opacity="1" stroke="none" d="m 5.7345171,1041.4954 c -1.5170909,0 -2.7398186,1.2227 -2.7398186,2.7398 0,1.5171 1.2227277,2.7398 2.7398186,2.7398 l 4.5309659,0 c 1.51709,0 2.739818,-1.2227 2.739818,-2.7398 0,-1.5171 -1.222728,-2.7398 -2.739818,-2.7398 l -4.5309659,0 z m 5.3663629,0.9415 c 0.02145,-0.01 0.04096,0 0.06372,0 0.182024,0 0.332743,0.1437 0.332743,0.3258 0,0.182 -0.150719,0.3326 -0.332743,0.3326 -0.182023,0 -0.325663,-0.1506 -0.325663,-0.3326 0,-0.1593 0.111761,-0.295 0.261947,-0.3258 z m -6.4070691,0.071 0.2831852,0 c 0.084774,0 0.1557516,0.064 0.1557516,0.1488 l 0,0.4388 0.4318581,0 c 0.084773,0 0.1557521,0.071 0.1557521,0.1558 l 0,0.2761 c 0,0.085 -0.070979,0.1557 -0.1557521,0.1557 l -0.4318581,0 0,0.439 c 0,0.085 -0.070978,0.1486 -0.1557516,0.1486 l -0.2831852,0 c -0.084774,0 -0.1557523,-0.064 -0.1557523,-0.1486 l 0,-0.439 -0.4318577,0 c -0.084773,0 -0.1557518,-0.071 -0.1557518,-0.1557 l 0,-0.2761 c 0,-0.085 0.070978,-0.1558 0.1557518,-0.1558 l 0.4318577,0 0,-0.4388 c 0,-0.085 0.070978,-0.1488 0.1557523,-0.1488 z m 5.8053001,0.5876 c 0.182024,0 0.325662,0.1437 0.325662,0.3257 0,0.1821 -0.143638,0.3328 -0.325662,0.3328 -0.182025,0 -0.332743,-0.1507 -0.332743,-0.3328 0,-0.182 0.150718,-0.3257 0.332743,-0.3257 z m 1.338051,0 c 0.182024,0 0.332742,0.1437 0.332742,0.3257 0,0.1821 -0.150718,0.3328 -0.332742,0.3328 -0.182025,0 -0.325663,-0.1507 -0.325663,-0.3328 0,-0.182 0.143638,-0.3257 0.325663,-0.3257 z m -4.722116,0.2691 0.3539813,0 c 0.084774,0 0.1557518,0.064 0.1557518,0.1487 l 0,0.028 c 0,0.085 -0.070978,0.1486 -0.1557518,0.1486 l -0.3539813,0 c -0.084774,0 -0.1486725,-0.064 -0.1486725,-0.1486 l 0,-0.028 c 0,-0.085 0.063898,-0.1487 0.1486725,-0.1487 z m 1.4654837,0 0.3539814,0 c 0.084774,0 0.1486731,0.064 0.1486731,0.1487 l 0,0.028 c 0,0.085 -0.063899,0.1486 -0.1486731,0.1486 l -0.3539814,0 c -0.084774,0 -0.1557517,-0.064 -0.1557517,-0.1486 l 0,-0.028 c 0,-0.085 0.070978,-0.1487 0.1557517,-0.1487 z m 2.5840663,0.3185 c 0.182024,0 0.332743,0.1437 0.332743,0.3258 0,0.182 -0.150719,0.3327 -0.332743,0.3327 -0.182023,0 -0.325663,-0.1507 -0.325663,-0.3327 0,-0.1821 0.14364,-0.3258 0.325663,-0.3258 z m -4.7150359,1.1187 c 0.4290563,0 0.7716805,0.3425 0.7716805,0.7717 0,0.429 -0.3426242,0.7787 -0.7716805,0.7787 -0.4290569,0 -0.7787601,-0.3497 -0.7787601,-0.7787 0,-0.4292 0.3497032,-0.7717 0.7787601,-0.7717 z m 3.1291982,0 c 0.4290567,0 0.7787597,0.3425 0.7787597,0.7717 0,0.429 -0.349703,0.7787 -0.7787597,0.7787 -0.4290572,0 -0.7787594,-0.3497 -0.7787594,-0.7787 0,-0.4292 0.3497022,-0.7717 0.7787594,-0.7717 z"/><path id="path3859" fill="#fff" fill-opacity=".196" stroke="none" d="m 8,1037.552 c -3.6920412,0 -6.6831747,2.9912 -6.6831747,6.6832 0,2.3315 1.1923999,4.3825 3.001765,5.5787 -0.230904,-2.7054 0.8502401,-5.4695 3.1291981,-7.3132 1.8184125,-1.4712 4.0474146,-2.0673 6.1946796,-1.8477 -1.186183,-1.8648 -3.268806,-3.101 -5.642468,-3.101 z"/><path id="path3927" fill="url(#linearGradient3785)" fill-opacity="1" stroke="none" d="m 5.7345171,1041.4954 c -1.5170909,0 -2.7398186,1.2227 -2.7398186,2.7398 0,1.5171 1.2227277,2.7398 2.7398186,2.7398 l 4.5309659,0 c 1.51709,0 2.739818,-1.2227 2.739818,-2.7398 0,-1.5171 -1.222728,-2.7398 -2.739818,-2.7398 l -4.5309659,0 z m 5.3663629,0.9415 c 0.02145,-0.01 0.04096,0 0.06372,0 0.182024,0 0.332743,0.1437 0.332743,0.3258 0,0.182 -0.150719,0.3326 -0.332743,0.3326 -0.182023,0 -0.325663,-0.1506 -0.325663,-0.3326 0,-0.1593 0.111761,-0.295 0.261947,-0.3258 z m -6.4070691,0.071 0.2831852,0 c 0.084774,0 0.1557516,0.064 0.1557516,0.1488 l 0,0.4388 0.4318581,0 c 0.084773,0 0.1557521,0.071 0.1557521,0.1558 l 0,0.2761 c 0,0.085 -0.070979,0.1557 -0.1557521,0.1557 l -0.4318581,0 0,0.439 c 0,0.085 -0.070978,0.1486 -0.1557516,0.1486 l -0.2831852,0 c -0.084774,0 -0.1557523,-0.064 -0.1557523,-0.1486 l 0,-0.439 -0.4318577,0 c -0.084773,0 -0.1557518,-0.071 -0.1557518,-0.1557 l 0,-0.2761 c 0,-0.085 0.070978,-0.1558 0.1557518,-0.1558 l 0.4318577,0 0,-0.4388 c 0,-0.085 0.070978,-0.1488 0.1557523,-0.1488 z m 5.8053001,0.5876 c 0.182024,0 0.325662,0.1437 0.325662,0.3257 0,0.1821 -0.143638,0.3328 -0.325662,0.3328 -0.182025,0 -0.332743,-0.1507 -0.332743,-0.3328 0,-0.182 0.150718,-0.3257 0.332743,-0.3257 z m 1.338051,0 c 0.182024,0 0.332742,0.1437 0.332742,0.3257 0,0.1821 -0.150718,0.3328 -0.332742,0.3328 -0.182025,0 -0.325663,-0.1507 -0.325663,-0.3328 0,-0.182 0.143638,-0.3257 0.325663,-0.3257 z m -4.722116,0.2691 0.3539813,0 c 0.084774,0 0.1557518,0.064 0.1557518,0.1487 l 0,0.028 c 0,0.085 -0.070978,0.1486 -0.1557518,0.1486 l -0.3539813,0 c -0.084774,0 -0.1486725,-0.064 -0.1486725,-0.1486 l 0,-0.028 c 0,-0.085 0.063898,-0.1487 0.1486725,-0.1487 z m 1.4654837,0 0.3539814,0 c 0.084774,0 0.1486731,0.064 0.1486731,0.1487 l 0,0.028 c 0,0.085 -0.063899,0.1486 -0.1486731,0.1486 l -0.3539814,0 c -0.084774,0 -0.1557517,-0.064 -0.1557517,-0.1486 l 0,-0.028 c 0,-0.085 0.070978,-0.1487 0.1557517,-0.1487 z m 2.5840663,0.3185 c 0.182024,0 0.332743,0.1437 0.332743,0.3258 0,0.182 -0.150719,0.3327 -0.332743,0.3327 -0.182023,0 -0.325663,-0.1507 -0.325663,-0.3327 0,-0.1821 0.14364,-0.3258 0.325663,-0.3258 z m -4.7150359,1.1187 c 0.4290563,0 0.7716805,0.3425 0.7716805,0.7717 0,0.429 -0.3426242,0.7787 -0.7716805,0.7787 -0.4290569,0 -0.7787601,-0.3497 -0.7787601,-0.7787 0,-0.4292 0.3497032,-0.7717 0.7787601,-0.7717 z m 3.1291982,0 c 0.4290567,0 0.7787597,0.3425 0.7787597,0.7717 0,0.429 -0.349703,0.7787 -0.7787597,0.7787 -0.4290572,0 -0.7787594,-0.3497 -0.7787594,-0.7787 0,-0.4292 0.3497022,-0.7717 0.7787594,-0.7717 z"/><rect id="rect3933" width="10.015" height="5.51" x="2.998" y="1041.473" fill="none" stroke="#b4b4b4" stroke-dasharray="none" stroke-miterlimit="4" stroke-opacity=".588" stroke-width="1" rx="2.755" ry="2.755"/></g></g></svg>