<svg xmlns="http://www.w3.org/2000/svg" id="svg4276" width="16" height="16" version="1.1"><defs id="defs4278"><linearGradient id="linearGradient3104" x1="24" x2="24" y1="5" y2="43" gradientTransform="matrix(0.2972973,0,0,0.2972973,0.8648665,0.86486712)" gradientUnits="userSpaceOnUse"><stop id="stop3314" offset="0" stop-color="#FFF"/><stop id="stop3316" offset=".063" stop-color="#FFF" stop-opacity=".235"/><stop id="stop3318" offset=".951" stop-color="#FFF" stop-opacity=".157"/><stop id="stop3320" offset="1" stop-color="#FFF" stop-opacity=".392"/></linearGradient><radialGradient id="radialGradient3107" cx="1.593" cy="8.45" r="20" gradientTransform="matrix(0,1.4133722,-1.5647111,-9.3009404e-8,21.221483,-4.1195879)" gradientUnits="userSpaceOnUse"><stop id="stop4199" offset="0" stop-color="#f8ca7e"/><stop id="stop4201" offset=".262" stop-color="#e3ab4f"/><stop id="stop4203" offset=".661" stop-color="#c67926"/><stop id="stop4205" offset="1" stop-color="#69390b"/></radialGradient></defs><metadata id="metadata4281"/><rect id="rect5505-21" width="13" height="13" x="1.5" y="1.5" fill="url(#radialGradient3107)" fill-rule="nonzero" color="#000" enable-background="accumulate" rx="1" ry="1"/><rect id="rect6741-0-3" width="11" height="11" x="2.5" y="2.5" fill="none" stroke="url(#linearGradient3104)" stroke-dasharray="none" stroke-dashoffset="0" stroke-linecap="round" stroke-linejoin="round" stroke-miterlimit="4" stroke-width="1" opacity=".5"/><rect id="rect4159" width="13" height="13" x="1.5" y="1.5" fill="none" stroke="#8c5e16" stroke-dasharray="none" stroke-dashoffset="0" stroke-linecap="round" stroke-linejoin="round" stroke-miterlimit="4" stroke-width="1" color="#000" enable-background="accumulate" opacity=".4" rx="1" ry="1"/><g id="g3797" fill="#000" stroke="#000" stroke-dasharray="none" stroke-miterlimit="4" stroke-width="20.319" opacity=".07" transform="matrix(0.04950708,0,0,0.04892675,3.0012134,4.0589992)"><path id="path3799" fill="#000" stroke="#000" stroke-dasharray="none" stroke-miterlimit="4" stroke-width="20.319" d="m-73.136-54.888c-5.7042,8.4045-11.983,1.6481-22.008,15.477-4.485,5.687-9.57,12.133-16.832,12.133-13.042-1.0158-10.213-15.562-16.471-26.56,5.4636-8.7302-0.50645-15.621-8.0215-8.2423-5.3185-0.82134-11.465,2.0692-19.775,1.8692-6.4447-0.05514-11.26-0.08354-14.057,6.3125-9.7002,7.1716-0.71648,21.024,6.662,15.146,2.5452-2.893,7.0202,0.4075,12.533,2.0957,5.7818,5.314,7.062,15.334,11.89,21.839,8.4989,11.45,20.051,22.034,39.564,19.798-1.2062,5.2194-1.632,10.601-2.3886,16.138-4.0562,6.7957-5.6433,12.771-6.0977,21.019l-5.2305,15.992c-3.0304,1.7658-3.886,4.9049-3.6445,8.168-4.7876,1.3801-6.8267,4.6278-8.0372,8.7383-0.22639,2.2372,0.66906,2.7041,2.4043,3.1875h15c1.076,0,2.0301-0.68994,2.3711-1.7109,1.8402-5.215,4.4162-10.927,2.5918-15.242,2.0758-6.0722,4.4557-11.065,7.5215-16.701,9.0448-15.978,2.8826-17.182,12.215-34.537,3.3628,10.604,5.5027,30.914,10.902,33.641l2.9258,14.922c-1.4435,2.1592-1.2573,4.8495-1.1465,7.1074-3.5793,2.1179-5.7499,5.2939-7.4434,9.3028-0.18105,2.1913,0.51091,2.8578,2.3946,3.2187h15.668c1.034,0,1.961-0.63838,2.334-1.6094,7.5161-16.298,0.40207-14.378-0.66793-28.959-1.2444-19.422-6.733-20.254-5.3554-38.286,13.346-1.576,22.122-1.1571,32.03-9.3789-4.0791,14.731,5.9197,23.536,5.0039,31.72l-5.1641,23.35c-2.5088,2.2407-3.3011,4.7466-3.2793,8.0156-4.9941,1.7258-6.3006,6.1115-7.0586,11.277,0.11624,1.9291,0.90684,2.4955,2.4922,2.6973h13.668c0.942,0,1.8025-0.52819,2.2285-1.3672l5.25-10.334c0.21691-0.83646,0.19085-1.6344-0.0634-2.5916-2.6954-10.148,2.5468-19.268,6.0028-26.182,3.2598-7.6693-1.1281-9.9704-0.23639-23.476,5.7659,5.5705,11.555,11.148,17.332,16.719,1.4269,0.58326,4.1206,15.243,6.1895,22.725-2.5464,3.2484-2.3832,6.4836-1.9023,10.648-5.317,2.048-6.8881,5.694-6.9551,11.615,0.131,1.275,1.2063,2.2441,2.4883,2.2441h15.5c0.987,0,1.8822-0.58042,2.2832-1.4824l4.8125-10.812c0.261-0.589,0.28636-1.2573,0.06836-1.8633-3.9836-10.656-5.4239-32.107-5.4239-32.107,0.232-6.264-8.455-12.557-13.179-24.833-3.1362-8.1496-2.5001-20.088-3.3956-29.835,0,0,3.1208,4.021,3.6758,6.082,1.3923,3.433,5.6767,1.3088,4.8281-1.2989-1.678-6.234-8.4082-11.85-10.533-13.498-3.6377-11.055-23.945-20.716-35.977-31.224-17.21-15.884-28.296-4.9816-40.482,8.9311z" transform="translate(174.49,97.713)"/></g><g id="g3021" fill="#000" opacity=".15" transform="matrix(0.04950708,0,0,0.04892675,3.0012134,4.0589992)"><path id="path3023" fill="#000" d="m-73.136-54.888c-5.7042,8.4045-11.983,1.6481-22.008,15.477-4.485,5.687-9.57,12.133-16.832,12.133-13.042-1.0158-10.213-15.562-16.471-26.56,5.4636-8.7302-0.50645-15.621-8.0215-8.2423-5.3185-0.82134-11.465,2.0692-19.775,1.8692-6.4447-0.05514-11.26-0.08354-14.057,6.3125-9.7002,7.1716-0.71648,21.024,6.662,15.146,2.5452-2.893,7.0202,0.4075,12.533,2.0957,5.7818,5.314,7.062,15.334,11.89,21.839,8.4989,11.45,20.051,22.034,39.564,19.798-1.2062,5.2194-1.632,10.601-2.3886,16.138-4.0562,6.7957-5.6433,12.771-6.0977,21.019l-5.2305,15.992c-3.0304,1.7658-3.886,4.9049-3.6445,8.168-4.7876,1.3801-6.8267,4.6278-8.0372,8.7383-0.22639,2.2372,0.66906,2.7041,2.4043,3.1875h15c1.076,0,2.0301-0.68994,2.3711-1.7109,1.8402-5.215,4.4162-10.927,2.5918-15.242,2.0758-6.0722,4.4557-11.065,7.5215-16.701,9.0448-15.978,2.8826-17.182,12.215-34.537,3.3628,10.604,5.5027,30.914,10.902,33.641l2.9258,14.922c-1.4435,2.1592-1.2573,4.8495-1.1465,7.1074-3.5793,2.1179-5.7499,5.2939-7.4434,9.3028-0.18105,2.1913,0.51091,2.8578,2.3946,3.2187h15.668c1.034,0,1.961-0.63838,2.334-1.6094,7.5161-16.298,0.40207-14.378-0.66793-28.959-1.2444-19.422-6.733-20.254-5.3554-38.286,13.346-1.576,22.122-1.1571,32.03-9.3789-4.0791,14.731,5.9197,23.536,5.0039,31.72l-5.1641,23.35c-2.5088,2.2407-3.3011,4.7466-3.2793,8.0156-4.9941,1.7258-6.3006,6.1115-7.0586,11.277,0.11624,1.9291,0.90684,2.4955,2.4922,2.6973h13.668c0.942,0,1.8025-0.52819,2.2285-1.3672l5.25-10.334c0.21691-0.83646,0.19085-1.6344-0.0634-2.5916-2.6954-10.148,2.5468-19.268,6.0028-26.182,3.2598-7.6693-1.1281-9.9704-0.23639-23.476,5.7659,5.5705,11.555,11.148,17.332,16.719,1.4269,0.58326,4.1206,15.243,6.1895,22.725-2.5464,3.2484-2.3832,6.4836-1.9023,10.648-5.317,2.048-6.8881,5.694-6.9551,11.615,0.131,1.275,1.2063,2.2441,2.4883,2.2441h15.5c0.987,0,1.8822-0.58042,2.2832-1.4824l4.8125-10.812c0.261-0.589,0.28636-1.2573,0.06836-1.8633-3.9836-10.656-5.4239-32.107-5.4239-32.107,0.232-6.264-8.455-12.557-13.179-24.833-3.1362-8.1496-2.5001-20.088-3.3956-29.835,0,0,3.1208,4.021,3.6758,6.082,1.3923,3.433,5.6767,1.3088,4.8281-1.2989-1.678-6.234-8.4082-11.85-10.533-13.498-3.6377-11.055-23.945-20.716-35.977-31.224-17.21-15.884-28.296-4.9816-40.482,8.9311z" transform="translate(174.49,97.713)"/></g><g id="g3793" fill="#1c1c1c" transform="matrix(0.04950708,0,0,0.04892675,3.0012397,3.0589782)"><path id="path3795" fill="#1c1c1c" d="m-73.136-54.888c-5.7042,8.4045-11.983,1.6481-22.008,15.477-4.485,5.687-9.57,12.133-16.832,12.133-13.042-1.0158-10.213-15.562-16.471-26.56,5.4636-8.7302-0.50645-15.621-8.0215-8.2423-5.3185-0.82134-11.465,2.0692-19.775,1.8692-6.4447-0.05514-11.26-0.08354-14.057,6.3125-9.7002,7.1716-0.71648,21.024,6.662,15.146,2.5452-2.893,7.0202,0.4075,12.533,2.0957,5.7818,5.314,7.062,15.334,11.89,21.839,8.4989,11.45,20.051,22.034,39.564,19.798-1.2062,5.2194-1.632,10.601-2.3886,16.138-4.0562,6.7957-5.6433,12.771-6.0977,21.019l-5.2305,15.992c-3.0304,1.7658-3.886,4.9049-3.6445,8.168-4.7876,1.3801-6.8267,4.6278-8.0372,8.7383-0.22639,2.2372,0.66906,2.7041,2.4043,3.1875h15c1.076,0,2.0301-0.68994,2.3711-1.7109,1.8402-5.215,4.4162-10.927,2.5918-15.242,2.0758-6.0722,4.4557-11.065,7.5215-16.701,9.0448-15.978,2.8826-17.182,12.215-34.537,3.3628,10.604,5.5027,30.914,10.902,33.641l2.9258,14.922c-1.4435,2.1592-1.2573,4.8495-1.1465,7.1074-3.5793,2.1179-5.7499,5.2939-7.4434,9.3028-0.18105,2.1913,0.51091,2.8578,2.3946,3.2187h15.668c1.034,0,1.961-0.63838,2.334-1.6094,7.5161-16.298,0.40207-14.378-0.66793-28.959-1.2444-19.422-6.733-20.254-5.3554-38.286,13.346-1.576,22.122-1.1571,32.03-9.3789-4.0791,14.731,5.9197,23.536,5.0039,31.72l-5.1641,23.35c-2.5088,2.2407-3.3011,4.7466-3.2793,8.0156-4.9941,1.7258-6.3006,6.1115-7.0586,11.277,0.11624,1.9291,0.90684,2.4955,2.4922,2.6973h13.668c0.942,0,1.8025-0.52819,2.2285-1.3672l5.25-10.334c0.21691-0.83646,0.19085-1.6344-0.0634-2.5916-2.6954-10.148,2.5468-19.268,6.0028-26.182,3.2598-7.6693-1.1281-9.9704-0.23639-23.476,5.7659,5.5705,11.555,11.148,17.332,16.719,1.4269,0.58326,4.1206,15.243,6.1895,22.725-2.5464,3.2484-2.3832,6.4836-1.9023,10.648-5.317,2.048-6.8881,5.694-6.9551,11.615,0.131,1.275,1.2063,2.2441,2.4883,2.2441h15.5c0.987,0,1.8822-0.58042,2.2832-1.4824l4.8125-10.812c0.261-0.589,0.28636-1.2573,0.06836-1.8633-3.9836-10.656-5.4239-32.107-5.4239-32.107,0.232-6.264-8.455-12.557-13.179-24.833-3.1362-8.1496-2.5001-20.088-3.3956-29.835,0,0,3.1208,4.021,3.6758,6.082,1.3923,3.433,5.6767,1.3088,4.8281-1.2989-1.678-6.234-8.4082-11.85-10.533-13.498-3.6377-11.055-23.945-20.716-35.977-31.224-17.21-15.884-28.296-4.9816-40.482,8.9311z" transform="translate(174.49,97.713)"/></g></svg>