<svg xmlns="http://www.w3.org/2000/svg" xmlns:svg="http://www.w3.org/2000/svg" xmlns:xlink="http://www.w3.org/1999/xlink" id="svg2985" width="16" height="16" enable-background="new" version="1.1"><defs id="defs2987"><linearGradient id="linearGradient3800"><stop id="stop3802" offset="0" stop-color="#fea" stop-opacity=".522"/><stop id="stop3810" offset=".367" stop-color="#fd5" stop-opacity=".53"/><stop id="stop3808" offset=".954" stop-color="#ffd42a" stop-opacity=".496"/><stop id="stop3804" offset="1" stop-color="#c8ab37" stop-opacity="1"/></linearGradient><linearGradient id="linearGradient3012"><stop id="stop3016" offset="0" stop-color="#fc0" stop-opacity="1"/><stop id="stop3014" offset="1" stop-color="#d45500" stop-opacity="1"/></linearGradient><linearGradient id="linearGradient3806" x1="7.105" x2="7.195" y1="989.878" y2="1053.002" gradientTransform="matrix(0.20962462,0,0,0.20962552,1.2920131,830.46831)" gradientUnits="userSpaceOnUse" xlink:href="#linearGradient3800"/><radialGradient id="radialGradient3877" cx="30.973" cy="978.302" r="27.563" fx="30.973" fy="978.302" gradientTransform="matrix(-1.0844801,0.01174566,-0.01298172,-1.1985993,54.465857,2206.6156)" gradientUnits="userSpaceOnUse" xlink:href="#linearGradient3012"/></defs><metadata id="metadata2990"/><g id="layer1" display="inline" transform="translate(0,-1036.3622)"><rect id="rect2999" width="15" height="15" x=".5" y="1036.862" fill="url(#radialGradient3877)" fill-opacity="1" stroke="none" rx="2.437" ry="2.378"/><rect id="rect2997" width="14.992" height="15.006" x=".508" y="1036.862" fill="none" stroke="#520" stroke-dasharray="none" stroke-miterlimit="4" stroke-width="1" opacity=".608" rx="2.437" ry="2.378"/><rect id="rect3790" width="13" height="13" x="1.5" y="1037.862" fill="none" stroke="url(#linearGradient3806)" stroke-dasharray="none" stroke-miterlimit="4" stroke-width=".993" rx="1.462" ry="1.427"/><rect id="rect3107" width=".023" height=".183" x="15.5" y="1037.594" fill="#000" fill-opacity="1" stroke="none" opacity=".11" rx="2.437" ry=".476"/></g><g id="layer5" opacity=".9" transform="translate(0,-48)"><path id="path4002" fill="none" stroke="#000" stroke-dasharray="none" stroke-linecap="butt" stroke-linejoin="miter" stroke-miterlimit="4" stroke-opacity="1" stroke-width="3.3" d="m 7.3495407,51.958813 -3.831641,3.812959 c -0.5960328,0.67786 -0.2554424,0.932057 0,1.01679 l 1.3623611,0.508395 c 0.2554429,0.08474 0.5108858,0.338929 0.1702955,0.508395 0,0 -0.5960333,0.169465 -0.5108853,0.33893 0.085147,0.169464 1.958394,0.932055 1.958394,0.932055 0.1702951,0.08474 0.2554425,0.254198 0.085148,0.423663 0,0 -0.3405906,0.423663 -0.2554429,0.593127 0.085147,0.169465 0.6923454,0.228306 0.9366232,0.423662 0.2442782,0.195356 0.1184145,0.555859 0.5108855,0.67786 0.3924708,0.122001 1.4475083,-0.33893 1.532656,-0.508396 C 9.3930822,60.516789 8.9673442,60.347324 9.0524913,60.093127 9.1376397,59.83893 10.5,59.245803 10.5,59.245803 c 0.255443,-0.08474 0.264818,-0.306988 0,-0.508396 L 10.074262,58.483211 C 9.8830161,58.35664 9.8000125,58.062247 10.159412,57.974817 l 2.213837,-1.016791 c 0.510886,-0.254197 0.510886,-0.677858 0,-1.186254 L 8.7119017,51.958813 c -0.4257381,-0.423663 -0.9366232,-0.423663 -1.362361,0 z" display="inline" opacity=".11"/></g><g id="layer2" display="inline" transform="translate(0,-48)"><path id="path4091" fill="#000" fill-opacity="1" stroke="none" d="m 7.196789,50.242304 -4.6011778,4.844144 c -0.7157384,0.861181 -0.3067447,1.184124 0,1.291772 l 1.6359745,0.645885 c 0.3067451,0.107647 0.6134905,0.430591 0.204497,0.645887 0,0 -0.7157391,0.215294 -0.6134907,0.43059 0.1022482,0.215294 2.3517131,1.184124 2.3517131,1.184124 0.2044969,0.107646 0.3067455,0.322942 0.1022485,0.538238 0,0 -0.4089935,0.538238 -0.3067454,0.753533 0.1022485,0.215294 0.831394,0.290049 1.1247325,0.538238 0.2933379,0.248189 0.1421965,0.706186 0.6134903,0.861181 0.4712935,0.154995 1.7382221,-0.43059 1.840471,-0.645886 C 9.6507506,61.114715 9.1395085,60.89942 9.241757,60.576477 9.3440047,60.253534 10.97998,59.5 10.97998,59.5 c 0.306745,-0.107648 0.318003,-0.390008 0,-0.645885 l -0.511243,-0.322942 c -0.229655,-0.1608 -0.329329,-0.534811 0.102249,-0.645887 l 2.658458,-1.291771 c 0.61349,-0.322943 0.61349,-0.861182 0,-1.507067 L 8.832763,50.242304 c -0.5112416,-0.538238 -1.124732,-0.538238 -1.635974,0 z" display="inline"/></g></svg>