<svg xmlns="http://www.w3.org/2000/svg" xmlns:xlink="http://www.w3.org/1999/xlink" width="16" height="16" version="1.1"><defs><linearGradient id="c" x1="24" x2="24" y1="5" y2="43" gradientTransform="matrix(.29730 0 0 .29730 .86487 .86487)" gradientUnits="userSpaceOnUse"><stop offset="0" stop-color="#fff"/><stop offset=".063" stop-color="#fff" stop-opacity=".235"/><stop offset=".951" stop-color="#fff" stop-opacity=".157"/><stop offset="1" stop-color="#fff" stop-opacity=".392"/></linearGradient><radialGradient id="a" cx="7.496" cy="8.45" r="20" gradientTransform="matrix(0 0.779 -.82409 -1.4352e-8 14.963 -4.1449)" gradientUnits="userSpaceOnUse"><stop offset="0" stop-color="#73baff"/><stop offset=".262" stop-color="#5aa7f3"/><stop offset=".705" stop-color="#1977d4"/><stop offset="1" stop-color="#0065c8"/></radialGradient><linearGradient id="b" x1="24" x2="24" y1="44" y2="3.899" gradientTransform="matrix(.33333 0 0 .33333 1.5e-7 -.00000292)" gradientUnits="userSpaceOnUse"><stop offset="0" stop-color="#00478b"/><stop offset="1" stop-color="#0065c8"/></linearGradient><linearGradient id="d" x1="8" x2="8" y1="3" y2="12" gradientUnits="userSpaceOnUse"><stop offset="0" stop-color="#fff"/><stop offset="1" stop-color="#c4e0fa"/></linearGradient></defs><rect width="13" height="13" x="1.5" y="1.5" fill="url(#a)" stroke="url(#b)" stroke-linecap="round" stroke-linejoin="round" color="#000" rx="1" ry="1"/><rect width="11" height="11" x="2.5" y="2.5" fill="none" stroke="url(#c)" stroke-linecap="round" stroke-linejoin="round" opacity=".5"/><g><path stroke="#000" stroke-linejoin="round" stroke-width="2" d="m10 4c-2.7555 0-5 2.2445-5 5 0 0.3424 0.0356 0.6767 0.1016 1h1.039c-0.0827-0.3212-0.1406-0.6524-0.1406-1 0-2.2151 1.7849-4 4-4 0.34762 0 0.6788 0.05794 1 0.14062v-1.039c-0.323-0.066-0.658-0.1016-1-0.1016zm0 2c-1.6509 0-3 1.3491-3 3 0 0.3517 0.0712 0.6858 0.1836 1h1.0918c-0.1703-0.2947-0.2754-0.6329-0.2754-1 0-1.1105 0.8895-2 2-2 0.36714 0 0.70533 0.1051 1 0.27539v-1.0918c-0.314-0.1124-0.648-0.1836-1-0.1836zm0 2a1 1 0 0 0 -1 1 1 1 0 0 0 1 1 1 1 0 0 0 1 -1 1 1 0 0 0 -1 -1zm-0.75 3c-0.1385 0-0.25 0.112-0.25 0.25v1.5c0 0.138 0.1115 0.25 0.25 0.25h1.5c0.138 0 0.25-0.112 0.25-0.25v-1.5c0-0.138-0.112-0.25-0.25-0.25h-1.5z" opacity=".05"/><path d="m10 4c-2.7555 0-5 2.2445-5 5 0 0.3424 0.0356 0.6767 0.1016 1h1.039c-0.0827-0.3212-0.1406-0.6524-0.1406-1 0-2.2151 1.7849-4 4-4 0.34762 0 0.6788 0.05794 1 0.14062v-1.039c-0.323-0.066-0.658-0.1016-1-0.1016zm0 2c-1.6509 0-3 1.3491-3 3 0 0.3517 0.0712 0.6858 0.1836 1h1.0918c-0.1703-0.2947-0.2754-0.6329-0.2754-1 0-1.1105 0.8895-2 2-2 0.36714 0 0.70533 0.1051 1 0.27539v-1.0918c-0.314-0.1124-0.648-0.1836-1-0.1836zm0 2a1 1 0 0 0 -1 1 1 1 0 0 0 1 1 1 1 0 0 0 1 -1 1 1 0 0 0 -1 -1zm-0.75 3c-0.1385 0-0.25 0.112-0.25 0.25v1.5c0 0.138 0.1115 0.25 0.25 0.25h1.5c0.138 0 0.25-0.112 0.25-0.25v-1.5c0-0.138-0.112-0.25-0.25-0.25h-1.5z" opacity=".15"/><path fill="url(#d)" d="m10 3c-2.7555 0-5 2.2445-5 5 0 0.3424 0.0356 0.6767 0.1016 1h1.039c-0.0827-0.3212-0.1406-0.6524-0.1406-1 0-2.2151 1.7849-4 4-4 0.348 0 0.679 0.0579 1 0.1406v-1.039c-0.323-0.066-0.658-0.1016-1-0.1016zm0 2c-1.6509 0-3 1.3491-3 3 0 0.3517 0.0712 0.6858 0.1836 1h1.0918c-0.1703-0.2947-0.2754-0.6329-0.2754-1 0-1.1105 0.8895-2 2-2 0.367 0 0.705 0.1051 1 0.2754v-1.0918c-0.314-0.1124-0.648-0.1836-1-0.1836zm0 2a1 1 0 0 0 -1 1 1 1 0 0 0 1 1 1 1 0 0 0 1 -1 1 1 0 0 0 -1 -1zm-0.75 3c-0.1385 0-0.25 0.112-0.25 0.25v1.5c0 0.138 0.1115 0.25 0.25 0.25h1.5c0.138 0 0.25-0.112 0.25-0.25v-1.5c0-0.138-0.112-0.25-0.25-0.25h-1.5z"/></g></svg>