<svg xmlns="http://www.w3.org/2000/svg" xmlns:svg="http://www.w3.org/2000/svg" id="svg2" width="100%" height="100%" version="1.1" viewBox="0 0 16 16"><metadata id="metadata468"/><defs id="defs4"><clipPath id="1"><path id="path7" d="m4.059 3.237c-.822 0-1.5.678-1.5 1.5v11c0 .822.678 1.5 1.5 1.5h11c.822 0 1.5-.678 1.5-1.5v-11c0-.822-.678-1.5-1.5-1.5z"/></clipPath><linearGradient id="0" x2="0" y1="2.351" y2="13.649" gradientUnits="userSpaceOnUse"><stop id="stop10" stop-color="#fff"/><stop id="stop12" offset=".063" stop-color="#fff" stop-opacity=".235"/><stop id="stop14" offset=".951" stop-color="#fff" stop-opacity=".157"/><stop id="stop16" offset="1" stop-color="#fff" stop-opacity=".392"/></linearGradient></defs><g id="g18" clip-path="url(#1)" transform="translate(-1.559-2.237)"><path id="path20" fill="#583c28" d="m8.559 11.237h1v1h-1z"/><path id="path22" fill="#785439" d="m7.559 11.237h1v1h-1z"/><path id="path24" fill="#583c28" d="m7.559 12.237h1v1h-1z"/><path id="path26" fill="#b8845b" d="m7.559 13.237h1v1h-1z"/><path id="path28" fill="#785439" d="m7.559 14.237h1v1h-1z"/><path id="path30" fill="#b8845b" d="m7.559 15.237h1v1h-1z"/><path id="path32" fill="#956b49" d="m7.559 16.237h1v1h-1z"/><path id="path34" fill="#785439" d="m8.559 12.237h1v1h-1z"/><g id="g36" fill="#956b49"><path id="path38" d="m8.559 13.237h1v1h-1z"/><path id="path40" d="m8.559 14.237h1v1h-1z"/></g><path id="path42" fill="#785439" d="m8.559 15.237h1v1h-1z"/><path id="path44" fill="#956b49" d="m8.559 16.237h1v1h-1z"/><path id="path46" fill="#583c28" d="m8.559 8.237h1v1h-1z"/><path id="path48" fill="#b8845b" d="m8.559 9.237h1v1h-1z"/><path id="path50" fill="#785439" d="m8.559 10.237h1v1h-1z"/><path id="path52" fill="#583c28" d="m2.559 8.237h1v1h-1z"/><path id="path54" fill="#785439" d="m2.559 9.237h1v1h-1z"/><path id="path56" fill="#956b49" d="m3.559 8.237h1v1h-1z"/><path id="path58" fill="#785439" d="m3.559 9.237h1v1h-1z"/><path id="path60" fill="#956b49" d="m4.559 8.237h1v1h-1z"/><g id="g62" fill="#785439"><path id="path64" d="m4.559 9.237h1v1h-1z"/><path id="path66" d="m5.559 8.237h1v1h-1z"/></g><path id="path68" fill="#868686" d="m5.559 9.237h1v1h-1z"/><path id="path70" fill="#956b49" d="m6.559 8.237h1v1h-1z"/><path id="path72" fill="#785439" d="m6.559 9.237h1v1h-1z"/><path id="path74" fill="#583c28" d="m7.559 8.237h1v1h-1z"/><g id="g76" fill="#785439"><path id="path78" d="m7.559 9.237h1v1h-1z"/><path id="path80" d="m2.559 10.237h1v1h-1z"/><path id="path82" d="m2.559 11.237h1v1h-1z"/></g><g id="g84" fill="#956b49"><path id="path86" d="m2.559 12.237h1v1h-1z"/><path id="path88" d="m2.559 13.237h1v1h-1z"/></g><path id="path90" fill="#785439" d="m2.559 14.237h1v1h-1z"/><path id="path92" fill="#583c28" d="m2.559 15.237h1v1h-1z"/><path id="path94" fill="#956b49" d="m2.559 16.237h1v1h-.125c0 0-.875 0-.875-.875z"/><path id="path96" fill="#b8845b" d="m3.559 10.237h1v1h-1z"/><path id="path98" fill="#785439" d="m3.559 11.237h1v1h-1z"/><path id="path100" fill="#583c28" d="m3.559 12.237h1v1h-1z"/><g id="g102" fill="#785439"><path id="path104" d="m3.559 13.237h1v1h-1z"/><path id="path106" d="m3.559 14.237h1v1h-1z"/></g><path id="path108" fill="#956b49" d="m3.559 15.237h1v1h-1z"/><path id="path110" fill="#785439" d="m3.559 16.237h1v1h-1z"/><path id="path112" fill="#b8845b" d="m4.559 10.237h1v1h-1z"/><path id="path114" fill="#956b49" d="m4.559 11.237h1v1h-1z"/><path id="path116" fill="#785439" d="m4.559 12.237h1v1h-1z"/><path id="path118" fill="#b8845b" d="m4.559 13.237h1v1h-1z"/><path id="path120" fill="#956b49" d="m4.559 14.237h1v1h-1z"/><g id="g122" fill="#785439"><path id="path124" d="m4.559 15.237h1v1h-1z"/><path id="path126" d="m4.559 16.237h1v1h-1z"/></g><path id="path128" fill="#956b49" d="m5.559 10.237h1v1h-1z"/><g id="g130" fill="#785439"><path id="path132" d="m5.559 11.237h1v1h-1z"/><path id="path134" d="m5.559 12.237h1v1h-1z"/></g><path id="path136" fill="#b8845b" d="m5.559 13.237h1v1h-1z"/><g id="g138" fill="#956b49"><path id="path140" d="m5.559 14.237h1v1h-1z"/><path id="path142" d="m5.559 15.237h1v1h-1z"/></g><path id="path144" fill="#583c28" d="m5.559 16.237h1v1h-1z"/><g id="g146" fill="#956b49"><path id="path148" d="m6.559 10.237h1v1h-1z"/><path id="path150" d="m6.559 11.237h1v1h-1z"/></g><path id="path152" fill="#583c28" d="m6.559 12.237h1v1h-1z"/><path id="path154" fill="#785439" d="m6.559 13.237h1v1h-1z"/><path id="path156" fill="#b8845b" d="m6.559 14.237h1v1h-1z"/><path id="path158" fill="#956b49" d="m6.559 15.237h1v1h-1z"/><g id="g160" fill="#785439"><path id="path162" d="m6.559 16.237h1v1h-1z"/><path id="path164" d="m7.559 10.237h1v1h-1z"/><path id="path166" d="m9.559 11.237h1v1h-1z"/></g><g id="g168" fill="#956b49"><path id="path170" d="m10.559 11.237h1v1h-1z"/><path id="path172" d="m11.559 11.237h1v1h-1z"/></g><g id="g174" fill="#785439"><path id="path176" d="m12.559 11.237h1v1h-1z"/><path id="path178" d="m13.559 11.237h1v1h-1z"/><path id="path180" d="m14.559 11.237h1v1h-1z"/></g><path id="path182" fill="#583c28" d="m15.559 11.237h1v1h-1z"/><path id="path184" fill="#785439" d="m9.559 12.237h1v1h-1z"/><path id="path186" fill="#583c28" d="m9.559 13.237h1v1h-1z"/><path id="path188" fill="#6b6b6b" d="m9.559 14.237h1v1h-1z"/><g id="g190" fill="#785439"><path id="path192" d="m9.559 15.237h1v1h-1z"/><path id="path194" d="m9.559 16.237h1v1h-1z"/><path id="path196" d="m10.559 12.237h1v1h-1z"/></g><path id="path198" fill="#b8845b" d="m10.559 13.237h1v1h-1z"/><path id="path200" fill="#956b49" d="m10.559 14.237h1v1h-1z"/><path id="path202" fill="#785439" d="m10.559 15.237h1v1h-1z"/><path id="path204" fill="#583c28" d="m10.559 16.237h1v1h-1z"/><path id="path206" fill="#785439" d="m11.559 12.237h1v1h-1z"/><path id="path208" fill="#b8845b" d="m11.559 13.237h1v1h-1z"/><path id="path210" fill="#956b49" d="m11.559 14.237h1v1h-1z"/><path id="path212" fill="#785439" d="m11.559 15.237h1v1h-1z"/><path id="path214" fill="#b8845b" d="m11.559 16.237h1v1h-1z"/><path id="path216" fill="#785439" d="m12.559 12.237h1v1h-1z"/><path id="path218" fill="#583c28" d="m12.559 13.237h1v1h-1z"/><g id="g220" fill="#785439"><path id="path222" d="m12.559 14.237h1v1h-1z"/><path id="path224" d="m12.559 15.237h1v1h-1z"/></g><path id="path226" fill="#583c28" d="m12.559 16.237h1v1h-1z"/><path id="path228" fill="#b8845b" d="m13.559 12.237h1v1h-1z"/><path id="path230" fill="#956b49" d="m13.559 13.237h1v1h-1z"/><path id="path232" fill="#583c28" d="m13.559 14.237h1v1h-1z"/><g id="g234" fill="#785439"><path id="path236" d="m13.559 15.237h1v1h-1z"/><path id="path238" d="m13.559 16.237h1v1h-1z"/></g><path id="path240" fill="#b8845b" d="m14.559 12.237h1v1h-1z"/><g id="g242" fill="#956b49"><path id="path244" d="m14.559 13.237h1v1h-1z"/><path id="path246" d="m14.559 14.237h1v1h-1z"/></g><path id="path248" fill="#785439" d="m14.559 15.237h1v1h-1z"/><path id="path250" fill="#b8845b" d="m14.559 16.237h1v1h-1z"/><path id="path252" fill="#785439" d="m15.559 12.237h1v1h-1z"/><path id="path254" fill="#868686" d="m15.559 13.237h1v1h-1z"/><path id="path256" fill="#785439" d="m15.559 14.237h1v1h-1z"/><path id="path258" fill="#b8845b" d="m15.559 15.237h1v1h-1z"/><path id="path260" fill="#583c28" d="m15.559 16.237h1v.125c0 0 0 .875-.875.875h-.125z"/><path id="path262" fill="#6bab41" d="m8.559 3.237h1v1h-1z"/><path id="path264" fill="#61a137" d="m8.559 4.237h1v1h-1z"/><g id="g266" fill="#583c28"><path id="path268" d="m8.559 5.237h1v1h-1z"/><path id="path270" d="m8.559 6.237h1v1h-1z"/></g><path id="path272" fill="#785439" d="m8.559 7.237h1v1h-1z"/><path id="path274" fill="#7dbd53" d="m9.559 3.237h1v1h-1z"/><path id="path276" fill="#5e9e34" d="m9.559 4.237h1v1h-1z"/><path id="path278" fill="#73b349" d="m9.559 5.237h1v1h-1z"/><path id="path280" fill="#5e9e34" d="m9.559 6.237h1v1h-1z"/><g id="g282" fill="#583c28"><path id="path284" d="m9.559 7.237h1v1h-1z"/><path id="path286" d="m9.559 8.237h1v1h-1z"/></g><path id="path288" fill="#b8845b" d="m9.559 9.237h1v1h-1z"/><path id="path290" fill="#956b49" d="m9.559 10.237h1v1h-1z"/><path id="path292" fill="#75b54b" d="m10.559 3.237h1v1h-1z"/><path id="path294" fill="#92c162" d="m10.559 4.237h1v1h-1z"/><path id="path296" fill="#7ebe54" d="m10.559 5.237h1v1h-1z"/><g id="g298" fill="#583c28"><path id="path300" d="m10.559 6.237h1v1h-1z"/><path id="path302" d="m10.559 7.237h1v1h-1z"/></g><g id="g304" fill="#785439"><path id="path306" d="m10.559 8.237h1v1h-1z"/><path id="path308" d="m10.559 9.237h1v1h-1z"/></g><path id="path310" fill="#583c28" d="m10.559 10.237h1v1h-1z"/><path id="path312" fill="#69a93f" d="m11.559 3.237h1v1h-1z"/><path id="path314" fill="#8fbe5f" d="m11.559 4.237h1v1h-1z"/><path id="path316" fill="#91c061" d="m11.559 5.237h1v1h-1z"/><path id="path318" fill="#6cac42" d="m11.559 6.237h1v1h-1z"/><path id="path320" fill="#583c28" d="m11.559 7.237h1v1h-1z"/><path id="path322" fill="#785439" d="m11.559 8.237h1v1h-1z"/><path id="path324" fill="#b8845b" d="m11.559 9.237h1v1h-1z"/><path id="path326" fill="#956b49" d="m11.559 10.237h1v1h-1z"/><path id="path328" fill="#66a63c" d="m12.559 3.237h1v1h-1z"/><path id="path330" fill="#72b248" d="m12.559 4.237h1v1h-1z"/><path id="path332" fill="#96c566" d="m12.559 5.237h1v1h-1z"/><path id="path334" fill="#583c28" d="m12.559 6.237h1v1h-1z"/><path id="path336" fill="#6b6b6b" d="m12.559 7.237h1v1h-1z"/><path id="path338" fill="#583c28" d="m12.559 8.237h1v1h-1z"/><path id="path340" fill="#b8845b" d="m12.559 9.237h1v1h-1z"/><path id="path342" fill="#956b49" d="m12.559 10.237h1v1h-1z"/><path id="path344" fill="#68a83e" d="m13.559 3.237h1v1h-1z"/><path id="path346" fill="#60a036" d="m13.559 4.237h1v1h-1z"/><path id="path348" fill="#583c28" d="m13.559 5.237h1v1h-1z"/><g id="g350" fill="#785439"><path id="path352" d="m13.559 6.237h1v1h-1z"/><path id="path354" d="m13.559 7.237h1v1h-1z"/><path id="path356" d="m13.559 8.237h1v1h-1z"/><path id="path358" d="m13.559 9.237h1v1h-1z"/><path id="path360" d="m13.559 10.237h1v1h-1z"/></g><path id="path362" fill="#60a036" d="m14.559 3.237h1v1h-1z"/><path id="path364" fill="#6bab41" d="m14.559 4.237h1v1h-1z"/><path id="path366" fill="#56962c" d="m14.559 5.237h1v1h-1z"/><path id="path368" fill="#583c28" d="m14.559 6.237h1v1h-1z"/><path id="path370" fill="#956b49" d="m14.559 7.237h1v1h-1z"/><path id="path372" fill="#785439" d="m14.559 8.237h1v1h-1z"/><path id="path374" fill="#956b49" d="m14.559 9.237h1v1h-1z"/><path id="path376" fill="#785439" d="m14.559 10.237h1v1h-1z"/><path id="path378" fill="#4f8f25" d="m15.559 3.237h.125c0 0 .875 0 .875.875v.125h-1z"/><path id="path380" fill="#66a63c" d="m15.559 4.237h1v1h-1z"/><path id="path382" fill="#4f8f25" d="m15.559 5.237h1v1h-1z"/><g id="g384" fill="#583c28"><path id="path386" d="m15.559 6.237h1v1h-1z"/><path id="path388" d="m15.559 7.237h1v1h-1z"/></g><g id="g390" fill="#785439"><path id="path392" d="m15.559 8.237h1v1h-1z"/><path id="path394" d="m15.559 9.237h1v1h-1z"/></g><path id="path396" fill="#956b49" d="m15.559 10.237h1v1h-1z"/><path id="path398" fill="#75b54b" d="m2.559 4.112c0-.875.875-.875.875-.875h.125v1h-1z"/><path id="path400" fill="#6bab41" d="m2.559 4.237h1v1h-1z"/><path id="path402" fill="#583c28" d="m2.559 5.237h1v1h-1z"/><path id="path404" fill="#6b6b6b" d="m2.559 6.237h1v1h-1z"/><path id="path406" fill="#785439" d="m2.559 7.237h1v1h-1z"/><path id="path408" fill="#72b248" d="m3.559 3.237h1v1h-1z"/><path id="path410" fill="#89b859" d="m3.559 4.237h1v1h-1z"/><path id="path412" fill="#9bca6b" d="m3.559 5.237h1v1h-1z"/><path id="path414" fill="#583c28" d="m3.559 6.237h1v1h-1z"/><path id="path416" fill="#956b49" d="m3.559 7.237h1v1h-1z"/><path id="path418" fill="#65a53b" d="m4.559 3.237h1v1h-1z"/><path id="path420" fill="#80af50" d="m4.559 4.237h1v1h-1z"/><path id="path422" fill="#63a339" d="m4.559 5.237h1v1h-1z"/><path id="path424" fill="#583c28" d="m4.559 6.237h1v1h-1z"/><path id="path426" fill="#b8845b" d="m4.559 7.237h1v1h-1z"/><path id="path428" fill="#65a53b" d="m5.559 3.237h1v1h-1z"/><path id="path430" fill="#82b152" d="m5.559 4.237h1v1h-1z"/><path id="path432" fill="#68a83e" d="m5.559 5.237h1v1h-1z"/><path id="path434" fill="#70b046" d="m5.559 6.237h1v1h-1z"/><path id="path436" fill="#583c28" d="m5.559 7.237h1v1h-1z"/><path id="path438" fill="#6eae44" d="m6.559 3.237h1v1h-1z"/><g id="g440" fill="#583c28"><path id="path442" d="m6.559 4.237h1v1h-1z"/><path id="path444" d="m6.559 5.237h1v1h-1z"/><path id="path446" d="m6.559 6.237h1v1h-1z"/></g><path id="path448" fill="#956b49" d="m6.559 7.237h1v1h-1z"/><path id="path450" fill="#5e9e34" d="m7.559 3.237h1v1h-1z"/><path id="path452" fill="#67a73d" d="m7.559 4.237h1v1h-1z"/><path id="path454" fill="#6faf45" d="m7.559 5.237h1v1h-1z"/><path id="path456" fill="#583c28" d="m7.559 6.237h1v1h-1z"/><path id="path458" fill="#785439" d="m7.559 7.237h1v1h-1z"/></g><g id="g460" fill="none" stroke-linecap="round" stroke-linejoin="round"><path id="path462" stroke="url(#0)" d="m2.5 2.5h11v11h-11z" opacity=".3"/><rect id="rect464" width="13" height="13" x="1.5" y="1.5" stroke="#000" color="#000" opacity=".3" rx="1"/></g></svg>