<svg xmlns="http://www.w3.org/2000/svg" xmlns:svg="http://www.w3.org/2000/svg" xmlns:xlink="http://www.w3.org/1999/xlink" id="svg4276" width="16" height="16" version="1.1"><defs id="defs4278"><linearGradient id="linearGradient4233" x1="7.694" x2="7.694" y1="15.073" y2="1.061" gradientUnits="userSpaceOnUse" xlink:href="#linearGradient3707-319-631-407-324-6-290"/><linearGradient id="linearGradient3707-319-631-407-324-6-290"><stop id="stop3308" offset="0" stop-color="#505050" stop-opacity="1"/><stop id="stop3310" offset="1" stop-color="#8e8e8e" stop-opacity="1"/></linearGradient><linearGradient id="linearGradient3079-9-111" x1="24" x2="24" y1="5" y2="43" gradientTransform="matrix(0.2972973,0,0,0.2972973,0.8648665,0.86486712)" gradientUnits="userSpaceOnUse" xlink:href="#linearGradient3924-4-8-282"/><linearGradient id="linearGradient3924-4-8-282"><stop id="stop3314" offset="0" stop-color="#fff" stop-opacity="1"/><stop id="stop3316" offset=".063" stop-color="#fff" stop-opacity=".235"/><stop id="stop3318" offset=".951" stop-color="#fff" stop-opacity=".157"/><stop id="stop3320" offset="1" stop-color="#fff" stop-opacity=".392"/></linearGradient><linearGradient id="linearGradient2867-449-88-871-390-598-476-591-434-148-57-177-0-454"><stop id="stop3298" offset="0" stop-color="#c7c7c7" stop-opacity="1"/><stop id="stop3300" offset=".262" stop-color="#a6a6a6" stop-opacity="1"/><stop id="stop3302" offset=".705" stop-color="#7b7b7b" stop-opacity="1"/><stop id="stop3304" offset="1" stop-color="#595959" stop-opacity="1"/></linearGradient><radialGradient id="radialGradient4272" cx="1.593" cy="8.45" r="20" fx="1.593" fy="8.45" gradientTransform="matrix(0,1.4133722,-1.5647111,-9.3009404e-8,21.221483,-4.1195879)" gradientUnits="userSpaceOnUse" xlink:href="#linearGradient2867-449-88-871-390-598-476-591-434-148-57-177-8-3-3-6-4-8-8-8-4"/><linearGradient id="linearGradient4274" x1="24" x2="24" y1="44" y2="3.899" gradientTransform="matrix(0.33333341,0,0,0.33333341,1.5e-7,-2.92e-6)" gradientUnits="userSpaceOnUse" xlink:href="#linearGradient3707-319-631-407-324-6-290"/><radialGradient id="radialGradient3082-6" cx="4.993" cy="43.5" r="2.5" fx="4.993" fy="43.5" gradientTransform="matrix(2.003784,0,0,1.4,27.98813,-17.4)" gradientUnits="userSpaceOnUse" xlink:href="#linearGradient3688-166-749-9"/><linearGradient id="linearGradient3688-166-749-9"><stop id="stop2883-2" offset="0" stop-color="#181818" stop-opacity="1"/><stop id="stop2885-2" offset="1" stop-color="#181818" stop-opacity="0"/></linearGradient><radialGradient id="radialGradient3084-4" cx="4.993" cy="43.5" r="2.5" fx="4.993" fy="43.5" gradientTransform="matrix(2.003784,0,0,1.4,-20.01187,-104.4)" gradientUnits="userSpaceOnUse" xlink:href="#linearGradient3688-166-749-9"/><linearGradient id="linearGradient3086-8" x1="25.058" x2="25.058" y1="47.028" y2="39.999" gradientUnits="userSpaceOnUse" xlink:href="#linearGradient3702-501-757-1"/><linearGradient id="linearGradient3702-501-757-1"><stop id="stop2895-2" offset="0" stop-color="#181818" stop-opacity="0"/><stop id="stop2897-89" offset=".5" stop-color="#181818" stop-opacity="1"/><stop id="stop2899-36" offset="1" stop-color="#181818" stop-opacity="0"/></linearGradient><radialGradient id="radialGradient5679-7" cx="6.73" cy="9.957" r="12.672" fx="6.2" fy="9.957" gradientTransform="matrix(0,4.6270127,-5.6804933,0,68.966159,-30.745064)" gradientUnits="userSpaceOnUse" xlink:href="#linearGradient2867-449-88-871-390-598-476-591-434-148-57-177-8-3-3-6-4-8-8-8"/><linearGradient id="linearGradient2867-449-88-871-390-598-476-591-434-148-57-177-8-3-3-6-4-8-8-8"><stop id="stop3750-1-0-7-6-6-1-3-9" offset="0" stop-color="#bebebe" stop-opacity="1"/><stop id="stop3752-3-7-4-0-32-8-923-0" offset=".262" stop-color="#999" stop-opacity="1"/><stop id="stop3754-1-8-5-2-7-6-7-1" offset=".705" stop-color="#787878" stop-opacity="1"/><stop id="stop3756-1-6-2-6-6-1-96-6" offset="1" stop-color="#666" stop-opacity="1"/></linearGradient><linearGradient id="linearGradient5397" x1="24" x2="24" y1="5" y2="43" gradientTransform="matrix(0.45945947,0,0,0.45945947,0.9742189,8.9717503)" gradientUnits="userSpaceOnUse" xlink:href="#linearGradient3924-4-8-282"/><radialGradient id="radialGradient2976" cx="4.993" cy="43.5" r="2.5" fx="4.993" fy="43.5" gradientTransform="matrix(2.003784,0,0,1.4,27.98813,-17.4)" gradientUnits="userSpaceOnUse" xlink:href="#linearGradient3688-166-749-9"/><radialGradient id="radialGradient2978" cx="4.993" cy="43.5" r="2.5" fx="4.993" fy="43.5" gradientTransform="matrix(2.003784,0,0,1.4,-20.01187,-104.4)" gradientUnits="userSpaceOnUse" xlink:href="#linearGradient3688-166-749-9"/><linearGradient id="linearGradient2867-449-88-871-390-598-476-591-434-148-57-177-8-3-3-6-4-8-8-8-4"><stop id="stop3750-1-0-7-6-6-1-3-9-7" offset="0" stop-color="#505050" stop-opacity="1"/><stop id="stop3752-3-7-4-0-32-8-923-0-7" offset=".262" stop-color="#3c3c3c" stop-opacity="1"/><stop id="stop3754-1-8-5-2-7-6-7-1-5" offset=".705" stop-color="#282828" stop-opacity="1"/><stop id="stop3756-1-6-2-6-6-1-96-6-2" offset="1" stop-color="#141414" stop-opacity="1"/></linearGradient><radialGradient id="radialGradient3877" cx="28.268" cy="7.594" r="25" fx="28.268" fy="7.594" gradientTransform="matrix(0,0.50527271,-0.53884691,0,11.020526,-12.42054)" gradientUnits="userSpaceOnUse" xlink:href="#linearGradient3833"/><linearGradient id="linearGradient3833"><stop id="stop3835" offset="0" stop-color="#96d625" stop-opacity="1"/><stop id="stop3841" offset=".5" stop-color="#97eb00" stop-opacity="1"/><stop id="stop3843" offset=".75" stop-color="#87d200" stop-opacity="1"/><stop id="stop3837" offset="1" stop-color="#6eab00" stop-opacity="1"/></linearGradient></defs><metadata id="metadata4281"/><g id="g4255"><rect id="rect5505-21" width="13" height="13" x="1.5" y="1.5" fill="url(#radialGradient4272)" fill-opacity="1" fill-rule="nonzero" stroke="none" stroke-dasharray="none" stroke-dashoffset="0" stroke-linecap="round" stroke-linejoin="round" stroke-miterlimit="4" stroke-opacity="1" stroke-width="1" color="#000" display="inline" enable-background="accumulate" overflow="visible" rx="1" ry="1" visibility="visible" style="marker:none"/><path id="path21" fill="url(#radialGradient3877)" fill-opacity="1" d="M 6.9746094 1.5 L 6.9746094 5.0683594 C 7.0430894 5.0631094 7.1088774 5.0707094 7.1777344 5.0683594 C 9.8299021 4.9789724 11.568359 7.2402344 11.568359 7.2402344 C 11.568359 7.2402344 9.5736141 9.6464844 7.5058594 9.6464844 C 7.3163514 9.6464844 7.1412434 9.6291344 6.9746094 9.5996094 L 6.9746094 10.240234 C 7.1171034 10.258334 7.2735684 10.271484 7.4277344 10.271484 C 9.3519174 10.271484 10.73657 9.2939189 12.083984 8.1308594 C 12.307379 8.3097734 13.224101 8.7371949 13.412109 8.9277344 C 12.130974 10.000329 9.1517084 10.865234 7.4589844 10.865234 C 7.2958194 10.865234 7.1286344 10.864439 6.9746094 10.849609 L 6.9746094 14.5 L 13.5 14.5 C 14.054 14.5 14.5 14.054 14.5 13.5 L 14.5 2.5 C 14.5 1.946 14.054 1.5 13.5 1.5 L 6.9746094 1.5 z M 6.9746094 10.849609 L 6.9746094 10.240234 C 4.6198494 9.9439977 3.8183594 7.3496094 3.8183594 7.3496094 C 3.8183594 7.3496094 4.8684634 5.8074934 6.9746094 5.6464844 L 6.9746094 5.0683594 C 4.6417854 5.2557114 2.6308594 7.2402344 2.6308594 7.2402344 C 2.6308594 7.2402344 3.7658234 10.546763 6.9746094 10.849609 z M 6.9746094 5.6464844 L 6.9746094 6.3339844 C 7.0993854 6.3206244 7.2324424 6.3026894 7.3652344 6.3027344 C 8.5868844 6.3027344 9.3183594 7.2714844 9.3183594 7.2714844 L 8.3183594 8.0996094 C 7.8719864 7.3554999 7.7170784 7.0330745 6.9746094 6.9433594 L 6.9746094 9.0527344 C 7.1428834 9.1093094 7.3285714 9.1464844 7.5371094 9.1464844 C 8.9861404 9.1464844 10.349609 7.2714844 10.349609 7.2714844 C 10.349609 7.2714844 9.0849024 5.5709554 7.1777344 5.6308594 C 7.1079844 5.6330594 7.0423874 5.6417494 6.9746094 5.6464844 z M 6.9746094 9.0527344 C 5.9712924 8.7156229 5.6464844 7.5371094 5.6464844 7.5371094 C 5.6464844 7.5371094 6.2297504 6.8539724 6.9746094 6.9433594 L 6.9746094 6.3339844 C 5.5554354 6.4874934 4.7089844 7.4277344 4.7089844 7.4277344 C 4.7089844 7.4277344 5.1949344 9.2823254 6.9746094 9.5996094 L 6.9746094 9.0527344 z" clip-path="none"/><rect id="rect6741-0-3" width="11" height="11" x="2.5" y="2.5" fill="none" stroke="url(#linearGradient3079-9-111)" stroke-dasharray="none" stroke-dashoffset="0" stroke-linecap="round" stroke-linejoin="round" stroke-miterlimit="4" stroke-opacity="1" stroke-width="1" opacity=".5"/><rect stroke-linejoin="round" style="marker:none" id="rect4159" width="13" height="13" x="1.5" y="1.5" fill="none" fill-opacity="1" fill-rule="nonzero" stroke="#000" stroke-dasharray="none" stroke-dashoffset="0" stroke-linecap="round" stroke-miterlimit="4" stroke-opacity="1" stroke-width="1" color="#000" display="inline" enable-background="accumulate" opacity=".7" overflow="visible" rx="1" ry="1" visibility="visible"/></g></svg>