<svg xmlns="http://www.w3.org/2000/svg" xmlns:svg="http://www.w3.org/2000/svg" xmlns:xlink="http://www.w3.org/1999/xlink" id="svg6839" width="16" height="16" version="1.1"><defs id="defs6841"><linearGradient id="linearGradient4202" x1="24" x2="24" y1="5" y2="43" gradientTransform="matrix(0.2972973,0,0,0.2972973,0.86486955,0.86486463)" gradientUnits="userSpaceOnUse" xlink:href="#linearGradient3924-4"/><linearGradient id="linearGradient3924-4"><stop id="stop3926-0-6" offset="0" stop-color="#fff" stop-opacity="1"/><stop id="stop3928-6" offset=".063" stop-color="#fff" stop-opacity=".235"/><stop id="stop3930-2-7" offset=".951" stop-color="#fff" stop-opacity=".157"/><stop id="stop3932-9" offset="1" stop-color="#fff" stop-opacity=".392"/></linearGradient><linearGradient id="linearGradient5075-1-8" x1="167.983" x2="167.983" y1="8.508" y2="54.78" gradientTransform="matrix(0.22222222,0,0,0.22222222,-12.00001,0.89800163)" gradientUnits="userSpaceOnUse" xlink:href="#linearGradient5803-2-7"/><linearGradient id="linearGradient5803-2-7"><stop id="stop5805-3-6" offset="0" stop-color="#fffdf3" stop-opacity="1"/><stop id="stop5807-0-0" offset="1" stop-color="#fbebeb" stop-opacity="1"/></linearGradient><linearGradient id="linearGradient3242"><stop id="stop3244" offset="0" stop-color="#f89b7e" stop-opacity="1"/><stop id="stop3246" offset=".262" stop-color="#e35d4f" stop-opacity="1"/><stop id="stop3248" offset=".661" stop-color="#c6262e" stop-opacity="1"/><stop id="stop3250" offset="1" stop-color="#690b2c" stop-opacity="1"/></linearGradient><radialGradient id="radialGradient6837" cx="8.276" cy="9.994" r="12.672" fx="8.276" fy="9.994" gradientTransform="matrix(0,2.2225861,-2.7286255,0,35.2943,-20.154259)" gradientUnits="userSpaceOnUse" xlink:href="#linearGradient3242"/></defs><metadata id="metadata6844"/><g id="layer1"><rect id="rect5505-1" width="13" height="13" x="1.5" y="1.5" fill="url(#radialGradient6837)" fill-opacity="1" fill-rule="nonzero" stroke="none" stroke-width="1" color="#000" display="inline" enable-background="accumulate" overflow="visible" rx="1" ry="1" visibility="visible" style="marker:none"/><path id="path6711-8-9" fill="#661215" fill-opacity="1" fill-rule="evenodd" stroke="none" stroke-width="1" d="m 9.2187496,2.9999975 c -4.09018,3.509597 -6.44156,4.007873 -7.21875,4.0625 l 0,1.25 c 0.58663,-0.08191 2.0546,-0.360154 3.625,-1.34375 2.01368,-1.26124 4.4375004,-3.65625 4.4375004,-3.65625 -0.6414904,1.258316 -0.8524704,5.530548 -0.8750004,11.1874995 l 4.3125004,0 c 0.1782,0 0.32415,-0.07521 0.46875,-0.15625 -0.76658,-1.611273 -1.277,-3.910266 -1.65625,-5.9687495 -0.32764,-2.486232 0.16439,-4.674653 0.34375,-5.375 l -3.4375004,0 z m -7.21875,6.125 0,1.3750005 c 1.5847,0 3.9442,1.786104 5.28125,3.999999 l 1.15625,0 c -1.06154,-2.220937 -5.23363,-5.3749995 -6.4375,-5.3749995 z" color="#000" display="inline" enable-background="accumulate" opacity=".2" overflow="visible" visibility="visible" style="marker:none"/><path d="m 9.2039496,1.9999975 c -4.09018,3.509597 -6.42676,4.004991 -7.20395,4.059618 l 0,1.26124 c 0.58663,-0.08191 2.06118,-0.366325 3.63158,-1.349921 2.01368,-1.26124 4.4210504,-3.655627 4.4210504,-3.655627 -0.6602404,1.2951 -0.8525004,5.760981 -0.8652604,11.6664755 l 4.2205204,0 C 13.73834,13.981783 14,13.72052 14,13.390576 13.21757,11.776846 12.70624,9.4438475 12.32237,7.3602695 c -0.32764,-2.486232 0.15616,-4.659925 0.33552,-5.360272 l -3.4539404,0 z m -7.20395,6.11501 0,1.396895 c 1.69805,0 4.30855,2.0376275 5.57139,4.4698805 l 1.06073,0 c -0.59338,-2.211156 -5.33664,-5.8667755 -6.63212,-5.8667755 z" style="marker:none" id="path6711-8" fill="url(#linearGradient5075-1-8)" fill-opacity="1" fill-rule="nonzero" stroke="none" stroke-width="1" color="#000" display="inline" enable-background="accumulate" overflow="visible" visibility="visible"/><path id="path6713-1" fill="#000" fill-opacity="1" fill-rule="evenodd" stroke="none" d="m 12.84375,2.0312475 c -1.60765,0.979406 -6.8697004,3.940406 -10.8437504,3.5625 l 0,2.71875 c 0,0 8.8367504,1.297463 12.0000004,-1.3125 l 0,-4.34375 c 0,-0.349365 -0.2751,-0.625 -0.625,-0.625 l -0.53125,0 z M 14,8.1562475 c -1.59033,1.583945 -3.22481,3.6770755 -4.3125004,5.8437495 l 1.2812504,0 C 11.84918,12.512634 12.98878,10.882572 14,9.8749975 l 0,-1.71875 z" opacity=".05"/><rect id="rect6741-0-3" width="11" height="11" x="2.5" y="2.5" fill="none" stroke="url(#linearGradient4202)" stroke-dasharray="none" stroke-dashoffset="0" stroke-linecap="round" stroke-linejoin="round" stroke-miterlimit="4" stroke-opacity="1" stroke-width="1" opacity=".5"/><rect id="rect5505-1-9" width="13" height="13" x="1.5" y="1.5" fill="none" stroke="#410000" stroke-dasharray="none" stroke-dashoffset="0" stroke-linecap="round" stroke-linejoin="round" stroke-miterlimit="4" stroke-opacity="1" stroke-width="1" color="#000" display="inline" enable-background="accumulate" opacity=".35" overflow="visible" rx="1" ry="1" visibility="visible" style="marker:none"/></g></svg>