<svg xmlns="http://www.w3.org/2000/svg" xmlns:xlink="http://www.w3.org/1999/xlink" id="svg2" width="16" height="16" version="1.1"><metadata id="metadata43"/><defs id="defs4"><linearGradient id="linearGradient3823" x1="71.204" x2="71.204" y1="6.238" y2="44.341" gradientTransform="matrix(0.35135,0,0,0.35135,-17.204,-0.9093)" gradientUnits="userSpaceOnUse"><stop id="stop7" offset="0" stop-color="#fff"/><stop id="stop9" offset=".508" stop-color="#fff" stop-opacity=".235"/><stop id="stop11" offset=".835" stop-color="#fff" stop-opacity=".157"/><stop id="stop13" offset="1" stop-color="#fff" stop-opacity=".392"/></linearGradient><radialGradient id="radialGradient3826" cx="3.773" cy="8.45" r="20" gradientTransform="matrix(-0.02420385,0.56897685,-0.45076173,-0.01917507,11.90025,-1.6965132)" gradientUnits="userSpaceOnUse"><stop id="stop3780" offset="0" stop-color="#409ee4"/><stop id="stop3782" offset=".262" stop-color="#478def"/><stop id="stop3784" offset=".705" stop-color="#3e76e0"/><stop id="stop3786" offset="1" stop-color="#3f70de"/></radialGradient></defs><path id="path31" fill="url(#radialGradient3826)" stroke="#000" stroke-linecap="round" stroke-linejoin="round" stroke-opacity=".388" d="M8,0.5c-4.1382,0-7.5,3.3618-7.5,7.5,0,4.138,3.3618,7.5,7.5,7.5,4.138,0,7.5-3.362,7.5-7.5,0-4.1382-3.362-7.5-7.5-7.5z" color="#000"/><path id="path3852" fill="none" stroke="#000" stroke-dasharray="none" stroke-miterlimit="4" stroke-opacity=".471" stroke-width="2" d="m11.178,8.8308c0,0.55715-4.3423,3.0643-4.825,2.7858-0.4825-0.27858-0.4825-5.293,0-5.5715,0.4825-0.27858,4.825,2.2285,4.825,2.7857z" opacity=".15"/><path id="path33" fill="none" stroke="url(#linearGradient3823)" stroke-linecap="round" stroke-linejoin="round" d="M14.5,7.9998c0,3.5902-2.91,6.5002-6.4999,6.5002s-6.5001-2.91-6.5001-6.5002c0-3.5898,2.9102-6.4998,6.5001-6.4998s6.4999,2.91,6.4999,6.4998z" color="#000" opacity=".5"/><path id="path4996-2" fill="#00008c" fill-rule="evenodd" d="m11.178,8.8308c0,0.55715-4.3423,3.0643-4.825,2.7858-0.4825-0.27858-0.4825-5.293,0-5.5715,0.4825-0.27858,4.825,2.2285,4.825,2.7857z" opacity=".15"/><path id="path4224-2" fill="#fafafa" fill-rule="evenodd" d="m11.178,7.8308c0,0.55715-4.3423,3.0643-4.825,2.7858-0.4825-0.27858-0.4825-5.293,0-5.5715,0.4825-0.27858,4.825,2.2285,4.825,2.7857z"/></svg>