<svg xmlns="http://www.w3.org/2000/svg" xmlns:xlink="http://www.w3.org/1999/xlink" id="svg3935" width="16" height="16" version="1.1"><defs id="defs3937"><linearGradient id="linearGradient4004" x1="95.411" x2="93.052" y1="81.266" y2="88.222" gradientTransform="matrix(0.0128012,0,0,0.0109352,12.38781,11.491375)" gradientUnits="userSpaceOnUse"><stop id="stop4022" offset="0" stop-color="#FFF"/><stop id="stop4028" offset="1" stop-color="#FFF" stop-opacity=".392"/></linearGradient><linearGradient id="linearGradient3962" x1="91.069" x2="80.983" y1="12.637" y2="132.59" gradientTransform="matrix(0.09269282,0,0,0.08588864,2.7080286,0.95172425)" gradientUnits="userSpaceOnUse"><stop id="stop3966" offset="0" stop-color="#FFF"/><stop id="stop3968" offset=".257" stop-color="#FFF" stop-opacity=".235"/><stop id="stop3970" offset=".777" stop-color="#FFF" stop-opacity=".157"/><stop id="stop3972" offset="1" stop-color="#FFF" stop-opacity=".392"/></linearGradient><linearGradient id="linearGradient3911" x1="54.32" x2="53.698" y1="11.726" y2="160.42" gradientTransform="matrix(0.10372893,0,0,0.11323773,0.08521053,0.53664785)" gradientUnits="userSpaceOnUse"><stop id="stop3915" offset="0" stop-color="#FFF"/><stop id="stop3917" offset=".371" stop-color="#FFF" stop-opacity=".235"/><stop id="stop3919" offset=".892" stop-color="#FFF" stop-opacity=".157"/><stop id="stop3921" offset="1" stop-color="#FFF" stop-opacity=".392"/></linearGradient><linearGradient id="linearGradient4062" x1="90.726" x2="89.038" y1="60.429" y2="127.88" gradientTransform="matrix(0.11084211,0,0,0.10995573,1.8155272,1.3399686)" gradientUnits="userSpaceOnUse"><stop id="stop3929" offset="0" stop-color="#6cf46c"/><stop id="stop3935" offset="1" stop-color="#158415"/></linearGradient><linearGradient id="linearGradient4054" x1="45.176" x2="46.816" y1="4.968" y2="126.17" gradientTransform="matrix(0.115684,0,0,0.12492517,-0.48331394,-0.24895249)" gradientUnits="userSpaceOnUse"><stop id="stop3890" offset="0" stop-color="#ff8f6e"/><stop id="stop3896" offset="1" stop-color="#c10500"/></linearGradient><linearGradient id="linearGradient4046" x1="88.09" x2="86.977" y1="82.382" y2="8.542" gradientTransform="matrix(0.11538468,0,0,0.10597744,0.58532936,0.01182748)" gradientUnits="userSpaceOnUse"><stop id="stop4060" offset="0" stop-color="#2d75db"/><stop id="stop4062" offset="1" stop-color="#9bc5ff"/></linearGradient><radialGradient id="radialGradient3819" cx="99.157" cy="186.17" r="62.769" gradientTransform="matrix(0.06988196,0,0,0.02682884,-0.48700619,8.3221073)" gradientUnits="userSpaceOnUse" xlink:href="#linearGradient3820-7-2-8-6"/><linearGradient id="linearGradient3820-7-2-8-6"><stop id="stop3822-2-6-5-0" offset="0" stop-color="#3d3d3d"/><stop id="stop3864-8-7-4-1" offset=".5" stop-color="#686868" stop-opacity=".498"/><stop id="stop3824-1-2-6-7" offset="1" stop-color="#686868" stop-opacity="0"/></linearGradient><radialGradient id="radialGradient4309" cx="99.157" cy="186.17" r="62.769" gradientTransform="matrix(0.02634104,0,0,0.02187552,11.093568,9.1069006)" gradientUnits="userSpaceOnUse" xlink:href="#linearGradient3820-7-2-8-6"/></defs><metadata id="metadata3940"/><g id="layer1"><path id="path3093" fill="url(#radialGradient4309)" d="m15.359,13.179a1.6534,1.3731,0,0,1,-3.3068,0,1.6534,1.3731,0,1,1,3.3068,0z" opacity=".317"/><path id="path3818-0-5-0" fill="url(#radialGradient3819)" d="m10.829,13.317a4.3864,1.684,0,0,1,-8.7729,0,4.3864,1.684,0,1,1,8.7729,0z"/><path id="path2555-5" fill="url(#linearGradient4046)" fill-rule="nonzero" d="m8.4892,1.4956,0,5.5108,5.4627,2.2785c0.34474-0.6949,0.53726-1.4658,0.53726-2.2785,0-3.0407-2.6894-5.5108-6-5.5108z" color="#000" enable-background="accumulate"/><path id="path3828" fill="url(#linearGradient4054)" fill-rule="nonzero" d="m6.5156,1.5c-3.3192,0-6.0156,2.9118-6.0156,6.4961s2.6964,6.4961,6.0156,6.4961c1.39,0,2.6682-0.5134,3.6874-1.3703l-3.6874-5.1258v-6.4961z" color="#000" enable-background="accumulate"/><path id="path3852" fill="url(#linearGradient4062)" d="m10.075,9.6253,3.5331,4.5116c0.73213-0.56539,1.3256-1.3007,1.7146-2.1476l-5.2477-2.364z"/><path id="path3879" fill="none" stroke="#760300" stroke-width="1" d="m6.5156,1.5c-3.3192,0-6.0156,2.9118-6.0156,6.4961s2.6964,6.4961,6.0156,6.4961c1.39,0,2.6682-0.5134,3.6874-1.3703l-3.6874-5.1258v-6.4961z" color="#000" enable-background="accumulate" opacity=".4"/><path id="path3883" fill="none" stroke="#143b73" stroke-width="1" d="m8.5,1.4956,0,5.5108,5.4627,2.2785c0.344-0.6949,0.537-1.4658,0.537-2.2785,0-3.0407-2.689-5.5108-6-5.5108z" color="#000" enable-background="accumulate" opacity=".4"/><path id="path3885" fill="none" stroke="#0a410a" stroke-dasharray="none" stroke-linecap="butt" stroke-linejoin="miter" stroke-miterlimit="4.3" stroke-width="1" d="m10.075,9.6253,3.5331,4.5116c0.73213-0.56539,1.3256-1.3007,1.7146-2.1476l-5.248-2.3637z" opacity=".4"/><path id="path3887" fill="none" stroke="url(#linearGradient3911)" stroke-width="1" d="M1.4952,8.2145c0.3708,4.2175,4.0727,6.5085,7.3405,4.6525-1.0862-1.53-3.35-4.5019-3.35-4.5019s0.020223-3.7811,0.020223-5.7203c-1.9824,0.33386-3.9453,2.3428-4.0107,5.5698z" color="#000" enable-background="accumulate" opacity=".4"/><path id="path3923" fill="none" stroke="url(#linearGradient3962)" stroke-width="1" d="M9.4974,6.3498c1.2256,0.5182,2.6196,1.091,3.8456,1.6092,0.729-2.4669-1.324-5.0356-3.8382-5.3693,0,1.2519-0.00733,2.5082-0.00734,3.7601z" color="#000" enable-background="accumulate" opacity=".4"/><path id="path3974" fill="none" stroke="url(#linearGradient4004)" stroke-dasharray="none" stroke-miterlimit="4.2" stroke-width="1" d="m13.701,12.701c0.07601-0.05373,0.16052-0.16498,0.20107-0.23477-0.18344-0.0702-0.58804-0.26154-0.58804-0.26154s0.28215,0.38313,0.38697,0.49631z" opacity=".4"/></g></svg>