<svg xmlns="http://www.w3.org/2000/svg" xmlns:xlink="http://www.w3.org/1999/xlink" id="svg3935" width="16" height="16" version="1.1"><defs id="defs3937"><linearGradient id="linearGradient3081" x1="71.204" x2="71.204" y1="6.238" y2="44.341" gradientTransform="matrix(0.35135136,0,0,0.35135136,-17.203671,-0.90930013)" gradientUnits="userSpaceOnUse"><stop id="stop4013" offset="0" stop-color="#FFF"/><stop id="stop4015" offset=".508" stop-color="#FFF" stop-opacity=".235"/><stop id="stop4017" offset=".835" stop-color="#FFF" stop-opacity=".157"/><stop id="stop4019" offset="1" stop-color="#FFF" stop-opacity=".392"/></linearGradient><radialGradient id="radialGradient3084" cx="5.78" cy="8.45" r="20" gradientTransform="matrix(0,0.89892574,-0.95095622,-1.6561642e-8,16.035401,-6.0146846)" gradientUnits="userSpaceOnUse"><stop id="stop4087" offset="0" stop-color="#06abec"/><stop id="stop4093" offset=".144" stop-color="#0da6f6"/><stop id="stop4091" offset=".326" stop-color="#1e9df5"/><stop id="stop4089" offset="1" stop-color="#1953f1"/></radialGradient></defs><metadata id="metadata3940"/><g id="layer1"><path id="path2555-7" fill="url(#radialGradient3084)" fill-rule="nonzero" d="m8,0.5c-4.1382,0-7.5,3.3618-7.5,7.5,0,4.138,3.3618,7.5,7.5,7.5,4.138,0,7.5-3.362,7.5-7.5,0-4.1382-3.362-7.5-7.5-7.5z" color="#000" enable-background="accumulate"/><path id="path8655-6" fill="none" stroke="url(#linearGradient3081)" stroke-dasharray="none" stroke-dashoffset="0" stroke-linecap="round" stroke-linejoin="round" stroke-miterlimit="4" stroke-width="1" d="M14.5,7.9998c0,3.5902-2.91,6.5002-6.4999,6.5002s-6.5001-2.91-6.5001-6.5002c0-3.5898,2.9102-6.4998,6.5001-6.4998s6.4999,2.91,6.4999,6.4998z" color="#000" enable-background="accumulate" opacity=".5"/><path id="path3872" fill="none" stroke="#000" stroke-dasharray="none" stroke-linecap="butt" stroke-linejoin="miter" stroke-miterlimit="4" stroke-width="1" d="m6.5,13.5,0-6.9999" opacity=".15"/><path id="path4185" fill="none" stroke="#00537d" stroke-dasharray="none" stroke-dashoffset="0" stroke-linecap="round" stroke-linejoin="round" stroke-miterlimit="4" stroke-width="1" d="m8,0.5c-4.1382,0-7.5,3.3618-7.5,7.5,0,4.138,3.3618,7.5,7.5,7.5,4.138,0,7.5-3.362,7.5-7.5,0-4.1382-3.362-7.5-7.5-7.5z" color="#000" enable-background="accumulate" opacity=".5"/><path id="path3874" fill="none" stroke="#000" stroke-dasharray="none" stroke-linecap="butt" stroke-linejoin="miter" stroke-miterlimit="4" stroke-width="1" d="m6.5204,9.8657c-4.6713,3.1028-4.6926-4.7595,0-1.772" opacity=".15"/><path id="path3864" fill="none" stroke="#FFF" stroke-dasharray="none" stroke-linecap="butt" stroke-linejoin="miter" stroke-miterlimit="4" stroke-width="1" d="m6.5,12.5,0-6.9999"/><path id="path3876" fill="none" stroke="#000" stroke-dasharray="none" stroke-linecap="butt" stroke-linejoin="miter" stroke-miterlimit="4" stroke-width="1" d="m9.5204,4.5001,0,6.9999" opacity=".15"/><path id="path3866" fill="none" stroke="#FFF" stroke-dasharray="none" stroke-linecap="butt" stroke-linejoin="miter" stroke-miterlimit="4" stroke-width="1" d="m6.5204,8.8657c-4.6713,3.1028-4.6926-4.7595,0-1.772"/><path id="path3878" fill="none" stroke="#000" stroke-dasharray="none" stroke-linecap="butt" stroke-linejoin="miter" stroke-miterlimit="4" stroke-width="1" d="m9.5,8.134c4.6713-3.1028,4.6926,4.7595,0,1.772" opacity=".15"/><path id="path3868" fill="none" stroke="#FFF" stroke-dasharray="none" stroke-linecap="butt" stroke-linejoin="miter" stroke-miterlimit="4" stroke-width="1" d="m9.5204,3.5001,0,6.9999"/><path id="path3870" fill="none" stroke="#FFF" stroke-dasharray="none" stroke-linecap="butt" stroke-linejoin="miter" stroke-miterlimit="4" stroke-width="1" d="m9.5,7.134c4.6713-3.1028,4.6926,4.7595,0,1.772"/></g></svg>