<svg xmlns="http://www.w3.org/2000/svg" xmlns:svg="http://www.w3.org/2000/svg" xmlns:xlink="http://www.w3.org/1999/xlink" id="svg3792" width="16" height="16" version="1.1"><defs id="defs3794"><radialGradient id="radialGradient3008" cx="21.385" cy="-19.005" r="20" fx="21.385" fy="-19.005" gradientTransform="matrix(0,1.5000006,-1.5241254,0,-16.959842,-23.077676)" gradientUnits="userSpaceOnUse" xlink:href="#linearGradient2867-449-88-871-390-598-476-591-434-148-57-177-641-289-620-227-114-444-680-744-4"/><linearGradient id="linearGradient2867-449-88-871-390-598-476-591-434-148-57-177-641-289-620-227-114-444-680-744-4"><stop id="stop5430-5" offset="0" stop-color="#737373" stop-opacity="1"/><stop id="stop5432-2" offset=".262" stop-color="#636363" stop-opacity="1"/><stop id="stop5434-9" offset=".705" stop-color="#4b4b4b" stop-opacity="1"/><stop id="stop5436-2" offset="1" stop-color="#3f3f3f" stop-opacity="1"/></linearGradient><radialGradient id="radialGradient2996" cx="21.385" cy="-19.005" r="20" fx="21.385" fy="-19.005" gradientTransform="matrix(0,1.5000006,-1.5241254,0,-16.959842,-31.077676)" gradientUnits="userSpaceOnUse" xlink:href="#linearGradient2867-449-88-871-390-598-476-591-434-148-57-177-641-289-620-227-114-444-680-744-4"/></defs><metadata id="metadata3797"/><path id="path3797" fill="#f9f9f9" fill-opacity="1" fill-rule="nonzero" stroke="none" stroke-width="1" d="M 0.30046574,7.7294213e-4 C 0.12436467,0.04026754 -0.00902023,0.20964194 4.7697153e-4,0.38170444 l 0,15.23725356 C -0.00505303,15.819805 0.18956967,16.005157 0.40046214,15.99989 l 5.59979256,0 c 0.210892,0.0052 0.405515,-0.180085 0.399985,-0.380932 l 0,-15.23725356 c 0.0055,-0.2008464 -0.189093,-0.386198 -0.399985,-0.38093149787 l -5.59979256,0 c -0.016644,-0.00103 -0.033355,-0.00103 -0.049998,0 -0.016644,-0.00103 -0.033355,-0.00103 -0.049998,0 z m 9.59964536,0 C 9.7240101,0.04026694 9.5906251,0.20964194 9.6001221,0.38170444 l 0,15.23725356 c -0.0055,0.200847 0.189093,0.386199 0.3999849,0.380932 l 5.599793,0 c 0.210892,0.0052 0.405515,-0.180085 0.399985,-0.380932 l 0,-15.23725356 c 0.0055,-0.2008464 -0.189093,-0.386198 -0.399985,-0.38093149787 l -5.599793,0 c -0.01664,-0.00103 -0.03336,-0.00103 -0.05,0 -0.01664,-0.00103 -0.03336,-0.00103 -0.05,0 z" color="#000" display="inline" enable-background="accumulate" overflow="visible" visibility="visible" style="marker:none"/></svg>