<svg xmlns="http://www.w3.org/2000/svg" xmlns:svg="http://www.w3.org/2000/svg" xmlns:xlink="http://www.w3.org/1999/xlink" id="svg4276" width="16" height="16" version="1.1"><defs id="defs4278"><linearGradient id="linearGradient4233" x1="7.694" x2="7.694" y1="15.073" y2="1.061" gradientUnits="userSpaceOnUse" xlink:href="#linearGradient3707-319-631-407-324-6-290"/><linearGradient id="linearGradient3707-319-631-407-324-6-290"><stop id="stop3308" offset="0" stop-color="#505050" stop-opacity="1"/><stop id="stop3310" offset="1" stop-color="#8e8e8e" stop-opacity="1"/></linearGradient><linearGradient id="linearGradient3079-9-111" x1="24" x2="24" y1="5" y2="43" gradientTransform="matrix(0.2972973,0,0,0.2972973,0.8648665,0.86486712)" gradientUnits="userSpaceOnUse" xlink:href="#linearGradient3924-4-8-282"/><linearGradient id="linearGradient3924-4-8-282"><stop id="stop3314" offset="0" stop-color="#fff" stop-opacity="1"/><stop id="stop3316" offset=".063" stop-color="#fff" stop-opacity=".235"/><stop id="stop3318" offset=".951" stop-color="#fff" stop-opacity=".157"/><stop id="stop3320" offset="1" stop-color="#fff" stop-opacity=".392"/></linearGradient><linearGradient id="linearGradient2867-449-88-871-390-598-476-591-434-148-57-177-0-454"><stop id="stop3298" offset="0" stop-color="#c7c7c7" stop-opacity="1"/><stop id="stop3300" offset=".262" stop-color="#a6a6a6" stop-opacity="1"/><stop id="stop3302" offset=".705" stop-color="#7b7b7b" stop-opacity="1"/><stop id="stop3304" offset="1" stop-color="#595959" stop-opacity="1"/></linearGradient><radialGradient id="radialGradient4272" cx="1.593" cy="8.45" r="20" fx="1.593" fy="8.45" gradientTransform="matrix(0,1.4133722,-1.5647111,-9.3009404e-8,21.221483,-4.1195879)" gradientUnits="userSpaceOnUse" xlink:href="#linearGradient4644-104-3-3-6-2-0"/><linearGradient id="linearGradient4274" x1="24" x2="24" y1="44" y2="3.899" gradientTransform="matrix(0.33333341,0,0,0.33333341,1.5e-7,-2.92e-6)" gradientUnits="userSpaceOnUse" xlink:href="#linearGradient3707-319-631-407-324-6-290"/><radialGradient id="radialGradient3082-6" cx="4.993" cy="43.5" r="2.5" fx="4.993" fy="43.5" gradientTransform="matrix(2.003784,0,0,1.4,27.98813,-17.4)" gradientUnits="userSpaceOnUse" xlink:href="#linearGradient3688-166-749-9"/><linearGradient id="linearGradient3688-166-749-9"><stop id="stop2883-2" offset="0" stop-color="#181818" stop-opacity="1"/><stop id="stop2885-2" offset="1" stop-color="#181818" stop-opacity="0"/></linearGradient><radialGradient id="radialGradient3084-4" cx="4.993" cy="43.5" r="2.5" fx="4.993" fy="43.5" gradientTransform="matrix(2.003784,0,0,1.4,-20.01187,-104.4)" gradientUnits="userSpaceOnUse" xlink:href="#linearGradient3688-166-749-9"/><linearGradient id="linearGradient3086-8" x1="25.058" x2="25.058" y1="47.028" y2="39.999" gradientUnits="userSpaceOnUse" xlink:href="#linearGradient3702-501-757-1"/><linearGradient id="linearGradient3702-501-757-1"><stop id="stop2895-2" offset="0" stop-color="#181818" stop-opacity="0"/><stop id="stop2897-89" offset=".5" stop-color="#181818" stop-opacity="1"/><stop id="stop2899-36" offset="1" stop-color="#181818" stop-opacity="0"/></linearGradient><radialGradient id="radialGradient5679-7" cx="6.73" cy="9.957" r="12.672" fx="6.2" fy="9.957" gradientTransform="matrix(0,4.6270127,-5.6804933,0,68.966159,-30.745064)" gradientUnits="userSpaceOnUse" xlink:href="#linearGradient2867-449-88-871-390-598-476-591-434-148-57-177-8-3-3-6-4-8-8-8"/><linearGradient id="linearGradient2867-449-88-871-390-598-476-591-434-148-57-177-8-3-3-6-4-8-8-8"><stop id="stop3750-1-0-7-6-6-1-3-9" offset="0" stop-color="#bebebe" stop-opacity="1"/><stop id="stop3752-3-7-4-0-32-8-923-0" offset=".262" stop-color="#999" stop-opacity="1"/><stop id="stop3754-1-8-5-2-7-6-7-1" offset=".705" stop-color="#787878" stop-opacity="1"/><stop id="stop3756-1-6-2-6-6-1-96-6" offset="1" stop-color="#666" stop-opacity="1"/></linearGradient><linearGradient id="linearGradient5397" x1="24" x2="24" y1="5" y2="43" gradientTransform="matrix(0.45945947,0,0,0.45945947,0.9742189,8.9717503)" gradientUnits="userSpaceOnUse" xlink:href="#linearGradient3924-4-8-282"/><radialGradient id="radialGradient2976" cx="4.993" cy="43.5" r="2.5" fx="4.993" fy="43.5" gradientTransform="matrix(2.003784,0,0,1.4,27.98813,-17.4)" gradientUnits="userSpaceOnUse" xlink:href="#linearGradient3688-166-749-9"/><radialGradient id="radialGradient2978" cx="4.993" cy="43.5" r="2.5" fx="4.993" fy="43.5" gradientTransform="matrix(2.003784,0,0,1.4,-20.01187,-104.4)" gradientUnits="userSpaceOnUse" xlink:href="#linearGradient3688-166-749-9"/><linearGradient id="linearGradient4644-104-3-3-6-2-0"><stop id="stop5237-6-5-1-7-8" offset="0" stop-color="#ff7a35" stop-opacity="1"/><stop id="stop5239-4-6-4-8-5" offset="1" stop-color="#f0431a" stop-opacity="1"/></linearGradient><linearGradient id="linearGradient4067-0-2"><stop id="stop4069-2-9" offset="0" stop-color="#ffe452" stop-opacity="1"/><stop id="stop4071-8-9" offset="1" stop-color="#ffeb41" stop-opacity="0"/></linearGradient><radialGradient id="radialGradient3128" cx="32.245" cy="12.464" r="24.264" fx="32.245" fy="12.464" gradientTransform="matrix(1.8239138e-8,1.8233953,-1.4228771,1.4232817e-8,49.979331,-46.891919)" gradientUnits="userSpaceOnUse" xlink:href="#linearGradient5803"/><linearGradient id="linearGradient5803"><stop id="stop5805" offset="0" stop-color="#fff5ef" stop-opacity="1"/><stop id="stop5807" offset="1" stop-color="#fef8dd" stop-opacity="1"/></linearGradient><radialGradient id="radialGradient4256" cx="1.593" cy="8.45" r="20" fx="1.593" fy="8.45" gradientTransform="matrix(0,1.4133722,-1.5647111,-9.3009404e-8,21.221482,-4.1195879)" gradientUnits="userSpaceOnUse" xlink:href="#linearGradient4067-0-2"/></defs><metadata id="metadata4281"/><g id="g4274"><g id="g4225"><rect stroke-linejoin="round" style="marker:none" id="rect5505-21" width="13" height="13" x="1.5" y="1.5" fill="url(#radialGradient4272)" fill-opacity="1" fill-rule="nonzero" stroke="none" stroke-dasharray="none" stroke-dashoffset="0" stroke-linecap="round" stroke-miterlimit="4" stroke-opacity="1" stroke-width="1" color="#000" display="inline" enable-background="accumulate" overflow="visible" rx="1" ry="1" visibility="visible"/><rect stroke-linejoin="round" style="marker:none" id="rect4254" width="13" height="13" x="1.5" y="1.5" fill="url(#radialGradient4256)" fill-opacity="1" fill-rule="nonzero" stroke="none" stroke-dasharray="none" stroke-dashoffset="0" stroke-linecap="round" stroke-miterlimit="4" stroke-opacity="1" stroke-width="1" color="#000" display="inline" enable-background="accumulate" opacity=".4" overflow="visible" rx="1" ry="1" visibility="visible"/><rect id="rect6741-0-3" width="11" height="11" x="2.5" y="2.5" fill="none" stroke="url(#linearGradient3079-9-111)" stroke-dasharray="none" stroke-dashoffset="0" stroke-linecap="round" stroke-linejoin="round" stroke-miterlimit="4" stroke-opacity="1" stroke-width="1" opacity=".5"/><rect id="rect4159" width="13" height="13" x="1.5" y="1.5" fill="none" fill-opacity="1" fill-rule="nonzero" stroke="#ba3d12" stroke-dasharray="none" stroke-dashoffset="0" stroke-linecap="round" stroke-linejoin="round" stroke-miterlimit="4" stroke-opacity="1" stroke-width="1" color="#000" display="inline" enable-background="accumulate" opacity=".6" overflow="visible" rx="1" ry="1" visibility="visible" style="marker:none"/></g><g id="g3186" transform="matrix(0.43116679,0,0,0.45062904,0.93607505,0.75547897)"><g font-style="normal" style="line-height:125%;-inkscape-font-specification:'Ubuntu Medium'" id="g3939" fill="#ba3d12" fill-opacity="1" stroke="none" font-family="Ubuntu" font-size="72" font-stretch="normal" font-variant="normal" font-weight="500" letter-spacing="0" opacity=".3" transform="matrix(0.37036288,0,0,0.36023136,4.7226809,5.4611886)" word-spacing="0"><path id="path3941" fill="#ba3d12" fill-opacity="1" d="m 27.84375,11.4375 c -1.384782,2.927833 -2.725626,5.899362 -4.03125,8.90625 -1.30565,3.006954 -2.623556,6.176583 -3.96875,9.5 -0.414544,1.055203 -0.859331,2.155095 -1.28125,3.25 l -3.03125,0 c -2.283151,0 -4.125,1.754575 -4.125,3.9375 l 0,0.125 c 0,2.182925 1.841849,3.9375 4.125,3.9375 l 0.03125,0 c -1.313378,3.535981 -2.704261,7.336167 -4.15625,11.46875 l 7.78125,0 1.65625,-4.75 c 0.420697,-1.149919 0.817925,-2.330193 1.21875,-3.5 0.200352,-0.646079 0.562978,-1.843227 1,-3.21875 l 16.34375,0 c 0.434873,1.365079 0.800979,2.536055 1,3.1875 0.402094,1.16568 0.796611,2.343108 1.21875,3.46875 0.59344,1.582595 1.164812,3.190345 1.71875,4.8125 l 8.0625,0 c -1.45203,-4.132583 -2.842057,-7.932769 -4.1875,-11.46875 l 0.0625,0 c 2.283151,0 4.125,-1.754575 4.125,-3.9375 l 0,-0.125 c 0,-2.182925 -1.841849,-3.9375 -4.125,-3.9375 l -3.125,0 c -0.430022,-1.092555 -0.855041,-2.196981 -1.28125,-3.25 -1.305668,-3.323417 -2.631891,-6.493046 -3.9375,-9.5 -1.305664,-3.006888 -2.646506,-5.978417 -4.03125,-8.90625 l -7.0625,0 z m 3.375,7.9375 c 0.870406,2.017835 1.906784,4.57854 3.09375,7.625 0.748311,1.920719 1.526142,3.978649 2.3125,6.09375 l -10.78125,0 c 0.766791,-2.087828 1.535767,-4.190728 2.25,-6.0625 1.186925,-3.006895 2.214992,-5.559285 3.125,-7.65625 z m -15.5,15.71875 24.6875,0 0,4 -24.6875,0 c -1.639233,0 -2.3125,-0.892 -2.3125,-2 0,-1.108 0.673267,-2 2.3125,-2 z" transform="matrix(1.2132,0,0,1.2132,-6.6178368,-6.4668438)"/></g><g font-style="normal" style="line-height:125%;-inkscape-font-specification:'Ubuntu Medium'" id="g3947" fill="#ba3d12" fill-opacity="1" stroke="#ba3d12" font-family="Ubuntu" font-size="72" font-stretch="normal" font-variant="normal" font-weight="500" letter-spacing="0" opacity=".15" transform="matrix(0.37036288,0,0,0.36023136,4.7226809,5.4611886)" word-spacing="0"><path id="path3949" fill="#ba3d12" fill-opacity="1" stroke="#ba3d12" stroke-width="5.12" d="m 27.84375,11.4375 c -1.384782,2.927833 -2.725626,5.899362 -4.03125,8.90625 -1.30565,3.006954 -2.623556,6.176583 -3.96875,9.5 -0.414544,1.055203 -0.859331,2.155095 -1.28125,3.25 l -3.03125,0 c -2.283151,0 -4.125,1.754575 -4.125,3.9375 l 0,0.125 c 0,2.182925 1.841849,3.9375 4.125,3.9375 l 0.03125,0 c -1.313378,3.535981 -2.704261,7.336167 -4.15625,11.46875 l 7.78125,0 1.65625,-4.75 c 0.420697,-1.149919 0.817925,-2.330193 1.21875,-3.5 0.200352,-0.646079 0.562978,-1.843227 1,-3.21875 l 16.34375,0 c 0.434873,1.365079 0.800979,2.536055 1,3.1875 0.402094,1.16568 0.796611,2.343108 1.21875,3.46875 0.59344,1.582595 1.164812,3.190345 1.71875,4.8125 l 8.0625,0 c -1.45203,-4.132583 -2.842057,-7.932769 -4.1875,-11.46875 l 0.0625,0 c 2.283151,0 4.125,-1.754575 4.125,-3.9375 l 0,-0.125 c 0,-2.182925 -1.841849,-3.9375 -4.125,-3.9375 l -3.125,0 c -0.430022,-1.092555 -0.855041,-2.196981 -1.28125,-3.25 -1.305668,-3.323417 -2.631891,-6.493046 -3.9375,-9.5 -1.305664,-3.006888 -2.646506,-5.978417 -4.03125,-8.90625 l -7.0625,0 z m 3.375,7.9375 c 0.870406,2.017835 1.906784,4.57854 3.09375,7.625 0.748311,1.920719 1.526142,3.978649 2.3125,6.09375 l -10.78125,0 c 0.766791,-2.087828 1.535767,-4.190728 2.25,-6.0625 1.186925,-3.006895 2.214992,-5.559285 3.125,-7.65625 z m -15.5,15.71875 24.6875,0 0,4 -24.6875,0 c -1.639233,0 -2.3125,-0.892 -2.3125,-2 0,-1.108 0.673267,-2 2.3125,-2 z" transform="matrix(1.2132,0,0,1.2132,-6.6178368,-6.4668438)"/></g><g font-style="normal" style="line-height:125%;-inkscape-font-specification:'Ubuntu Medium'" id="text3033" fill="url(#radialGradient3128)" fill-opacity="1" stroke="none" font-family="Ubuntu" font-size="72" font-stretch="normal" font-variant="normal" font-weight="500" letter-spacing="0" transform="matrix(0.37091988,0,0,0.36077312,4.7186592,4.6024418)" word-spacing="0"><path id="path3038" fill="#fff" fill-opacity="1" d="m 27.84375,11.4375 c -1.384782,2.927833 -2.725626,5.899362 -4.03125,8.90625 -1.30565,3.006954 -2.623556,6.176583 -3.96875,9.5 -0.414544,1.055203 -0.859331,2.155095 -1.28125,3.25 l -3.03125,0 c -2.283151,0 -4.125,1.754575 -4.125,3.9375 l 0,0.125 c 0,2.182925 1.841849,3.9375 4.125,3.9375 l 0.03125,0 c -1.313378,3.535981 -2.704261,7.336167 -4.15625,11.46875 l 7.78125,0 1.65625,-4.75 c 0.420697,-1.149919 0.817925,-2.330193 1.21875,-3.5 0.200352,-0.646079 0.562978,-1.843227 1,-3.21875 l 16.34375,0 c 0.434873,1.365079 0.800979,2.536055 1,3.1875 0.402094,1.16568 0.796611,2.343108 1.21875,3.46875 0.59344,1.582595 1.164812,3.190345 1.71875,4.8125 l 8.0625,0 c -1.45203,-4.132583 -2.842057,-7.932769 -4.1875,-11.46875 l 0.0625,0 c 2.283151,0 4.125,-1.754575 4.125,-3.9375 l 0,-0.125 c 0,-2.182925 -1.841849,-3.9375 -4.125,-3.9375 l -3.125,0 c -0.430022,-1.092555 -0.855041,-2.196981 -1.28125,-3.25 -1.305668,-3.323417 -2.631891,-6.493046 -3.9375,-9.5 -1.305664,-3.006888 -2.646506,-5.978417 -4.03125,-8.90625 z m 3.375,7.9375 c 0.870406,2.017835 1.906784,4.57854 3.09375,7.625 0.748311,1.920719 1.526142,3.978649 2.3125,6.09375 l -10.78125,0 c 0.766791,-2.087828 1.535767,-4.190728 2.25,-6.0625 1.186925,-3.006895 2.214992,-5.559285 3.125,-7.65625 z m -15.5,15.71875 10.211405,0 0,4 -10.211405,0 c -1.639233,0 -2.3125,-0.892 -2.3125,-2 0,-1.108 0.673267,-2 2.3125,-2 z" transform="matrix(1.2132,0,0,1.2132,-6.6178368,-6.4668438)"/></g></g></g></svg>