<svg xmlns="http://www.w3.org/2000/svg" xmlns:svg="http://www.w3.org/2000/svg" xmlns:xlink="http://www.w3.org/1999/xlink" id="SVGRoot" width="16" height="16" version="1.1" viewBox="0 0 16 16"><defs id="defs4473"><radialGradient id="radialGradient4761" cx="62.625" cy="4.625" r="10.625" fx="62.625" fy="4.625" gradientTransform="matrix(0.72156863,0,0,0.25098006,-18.18824,50.721653)" gradientUnits="userSpaceOnUse" xlink:href="#linearGradient8838-561-565"/><linearGradient id="linearGradient8838-561-565"><stop id="stop4621" offset="0" stop-color="#0a0a0a" stop-opacity="1"/><stop id="stop4623" offset="1" stop-color="#0a0a0a" stop-opacity="0"/></linearGradient><linearGradient id="linearGradient4763" x1="-63.855" x2="-63.855" y1="9.025" y2="48.431" gradientTransform="matrix(0.38058193,0,0,0.38658056,51.43163,35.452233)" gradientUnits="userSpaceOnUse" xlink:href="#linearGradient4135-0"/><linearGradient id="linearGradient4135-0"><stop id="stop4137-0" offset="0" stop-color="#08b8fb" stop-opacity="1"/><stop id="stop4139-1" offset="1" stop-color="#007cff" stop-opacity="1"/></linearGradient><linearGradient id="linearGradient5532" x1="27.438" x2="27.438" y1="124.719" y2="136.875" gradientTransform="translate(-1.23239,-84.145707)" gradientUnits="userSpaceOnUse" xlink:href="#linearGradient3924-1"/><linearGradient id="linearGradient3924-1"><stop id="stop3926-3" offset="0" stop-color="#fff" stop-opacity="1"/><stop id="stop3928-91" offset=".063" stop-color="#fff" stop-opacity=".235"/><stop id="stop3930-6" offset=".951" stop-color="#fff" stop-opacity=".157"/><stop id="stop3932-6" offset="1" stop-color="#fff" stop-opacity=".392"/></linearGradient></defs><metadata id="metadata4476"/><g id="layer1"><g id="g5030" display="inline" transform="translate(-18.99999,-38.549103)"><path d="m 34.66666,51.882433 c 0,1.47276 -3.43249,2.66667 -7.66667,2.66667 -4.23418,0 -7.66667,-1.19391 -7.66667,-2.66667 0,-1.47276 3.43249,-2.66667 7.66667,-2.66667 4.23418,0 7.66667,1.19391 7.66667,2.66667 l 0,0 z" style="marker:none" id="path4739" fill="url(#radialGradient4761)" fill-opacity="1" fill-rule="evenodd" stroke="none" stroke-width="1" display="inline" opacity=".2" overflow="visible" visibility="visible"/><path id="path4743" fill="url(#linearGradient4763)" fill-opacity="1" stroke="none" stroke-dasharray="none" stroke-linecap="round" stroke-linejoin="round" stroke-miterlimit="4" stroke-opacity="1" stroke-width=".991" d="m 21.38231,40.232393 c -0.48853,0 -0.88232,0.4 -0.88232,0.89624 l 0,9.69169 c 0,0.49624 0.39379,0.89548 0.88232,0.89548 l 3.759,0 1.89993,1.97292 1.86723,-1.97292 3.70919,0 c 0.48854,0 0.88233,-0.39924 0.88233,-0.89548 l 0,-9.69169 c 0,-0.49624 -0.39379,-0.89624 -0.88233,-0.89624 l -11.23535,0 z"/><path id="path4469" fill="#0b2228" fill-opacity="1" fill-rule="nonzero" stroke="#0b2228" stroke-dasharray="none" stroke-linecap="round" stroke-linejoin="round" stroke-miterlimit="4" stroke-opacity="1" stroke-width="2" d="m 25.282885,50.786173 c -1.072443,0 -2.070649,-0.31438 -2.911075,-0.85319 0.148564,0.0175 0.299733,0.0265 0.453019,0.0265 0.889716,0 1.708558,-0.30361 2.358494,-0.81294 -0.83101,-0.0153 -1.532328,-0.56438 -1.773984,-1.31888 0.115949,0.0222 0.234911,0.0341 0.35729,0.0341 0.173175,0 0.340957,-0.0232 0.500312,-0.0666 -0.868752,-0.17446 -1.523357,-0.94202 -1.523357,-1.86216 0,-0.008 2.4e-5,-0.0159 1.6e-4,-0.0239 0.256059,0.14224 0.548877,0.22767 0.860168,0.23752 -0.509558,-0.34055 -0.844814,-0.92183 -0.844814,-1.58068 0,-0.34806 0.09362,-0.67425 0.257092,-0.95474 0.936656,1.14895 2.335958,1.90501 3.914255,1.98421 -0.03237,-0.13899 -0.0492,-0.28394 -0.0492,-0.43278 0,-1.04877 0.850303,-1.89905 1.899113,-1.89905 0.546192,0 1.039736,0.23064 1.386168,0.59973 0.432566,-0.0852 0.838994,-0.24324 1.205909,-0.46088 -0.141796,0.44348 -0.442892,0.81565 -0.834998,1.0507 0.384149,-0.0459 0.750151,-0.148 1.090726,-0.29904 -0.25461,0.38084 -0.576597,0.71532 -0.94761,0.98308 0.0037,0.0814 0.0055,0.16333 0.0055,0.24567 0,2.50955 -1.910116,5.40333 -5.403157,5.40333" opacity=".15"/><path id="path4467" fill="#0b2228" fill-opacity="1" fill-rule="nonzero" stroke="none" d="m 25.282885,50.786173 c -1.072443,0 -2.070649,-0.31438 -2.911075,-0.85319 0.148564,0.0175 0.299733,0.0265 0.453019,0.0265 0.889716,0 1.708558,-0.30361 2.358494,-0.81294 -0.83101,-0.0153 -1.532328,-0.56438 -1.773984,-1.31888 0.115949,0.0222 0.234911,0.0341 0.35729,0.0341 0.173175,0 0.340957,-0.0232 0.500312,-0.0666 -0.868752,-0.17446 -1.523357,-0.94202 -1.523357,-1.86216 0,-0.008 2.4e-5,-0.0159 1.6e-4,-0.0239 0.256059,0.14224 0.548877,0.22767 0.860168,0.23752 -0.509558,-0.34055 -0.844814,-0.92183 -0.844814,-1.58068 0,-0.34806 0.09362,-0.67425 0.257092,-0.95474 0.936656,1.14895 2.335958,1.90501 3.914255,1.98421 -0.03237,-0.13899 -0.0492,-0.28394 -0.0492,-0.43278 0,-1.04877 0.850303,-1.89905 1.899113,-1.89905 0.546192,0 1.039736,0.23064 1.386168,0.59973 0.432566,-0.0852 0.838994,-0.24324 1.205909,-0.46088 -0.141796,0.44348 -0.442892,0.81565 -0.834998,1.0507 0.384149,-0.0459 0.750151,-0.148 1.090726,-0.29904 -0.25461,0.38084 -0.576597,0.71532 -0.94761,0.98308 0.0037,0.0814 0.0055,0.16333 0.0055,0.24567 0,2.50955 -1.910116,5.40333 -5.403157,5.40333" opacity=".3"/><path id="path5536" fill="#e9faff" fill-opacity="1" fill-rule="nonzero" stroke="none" d="m 25.282885,49.786173 c -1.072443,0 -2.070649,-0.31438 -2.911075,-0.85319 0.148564,0.0175 0.299733,0.0265 0.453019,0.0265 0.889716,0 1.708558,-0.30361 2.358494,-0.81294 -0.83101,-0.0153 -1.532328,-0.56438 -1.773984,-1.31888 0.115949,0.0222 0.234911,0.0341 0.35729,0.0341 0.173175,0 0.340957,-0.0232 0.500312,-0.0666 -0.868752,-0.17446 -1.523357,-0.94202 -1.523357,-1.86216 0,-0.008 2.4e-5,-0.0159 1.6e-4,-0.0239 0.256059,0.14224 0.548877,0.22767 0.860168,0.23752 -0.509558,-0.34055 -0.844814,-0.92183 -0.844814,-1.58068 0,-0.34806 0.09362,-0.67425 0.257092,-0.95474 0.936656,1.14895 2.335958,1.90501 3.914255,1.98421 -0.03237,-0.13899 -0.0492,-0.28394 -0.0492,-0.43278 0,-1.04877 0.850303,-1.89905 1.899113,-1.89905 0.546192,0 1.039736,0.23064 1.386168,0.59973 0.432566,-0.0852 0.838994,-0.24324 1.205909,-0.46088 -0.141796,0.44348 -0.442892,0.81565 -0.834998,1.0507 0.384149,-0.0459 0.750151,-0.148 1.090726,-0.29904 -0.25461,0.38084 -0.576597,0.71532 -0.94761,0.98308 0.0037,0.0814 0.0055,0.16333 0.0055,0.24567 0,2.50955 -1.910116,5.40333 -5.403157,5.40333"/><path id="path4757" fill="none" fill-opacity="1" stroke="#045" stroke-dasharray="none" stroke-linecap="round" stroke-linejoin="round" stroke-miterlimit="4" stroke-opacity="1" stroke-width="1" d="m 21.38231,40.232393 c -0.48853,0 -0.88232,0.4 -0.88232,0.89624 l 0,9.69169 c 0,0.49624 0.39379,0.89548 0.88232,0.89548 l 3.759,0 1.89993,1.97292 1.86723,-1.97292 3.70919,0 c 0.48854,0 0.88233,-0.39924 0.88233,-0.89548 l 0,-9.69169 c 0,-0.49624 -0.39379,-0.89624 -0.88233,-0.89624 l -11.23535,0 z" opacity=".4"/><path id="path5517" fill="none" fill-opacity="1" stroke="url(#linearGradient5532)" stroke-dasharray="none" stroke-linecap="round" stroke-linejoin="round" stroke-miterlimit="4" stroke-opacity="1" stroke-width="1" d="m 21.50003,41.233203 0,9.48242 3.64063,0 a 1.0001,1.0001 0 0 1 0.7207,0.30664 l 1.17383,1.21875 1.14648,-1.21289 a 1.0001,1.0001 0 0 1 0.72657,-0.3125 l 3.59179,0 0,-9.48242 -11,0 z" opacity=".5"/></g></g></svg>