<svg xmlns="http://www.w3.org/2000/svg" xmlns:xlink="http://www.w3.org/1999/xlink" width="16" height="16" version="1.1"><defs><linearGradient id="e" x1="24" x2="24" y1="7.96" y2="43.865" gradientTransform="matrix(.31113 0 0 .29731 -343.47 102.77)" gradientUnits="userSpaceOnUse"><stop offset="0" stop-color="#f0f0f0"/><stop offset=".086" stop-color="#d7d7d8"/><stop offset=".922" stop-color="#b2b2b3"/><stop offset="1" stop-color="#979798"/></linearGradient><linearGradient id="d" x1="23.071" x2="23.071" y1="36.047" y2="33.296" gradientTransform="matrix(.33032 0 0 .32624 -343.93 39.965)" gradientUnits="userSpaceOnUse" xlink:href="#a"/><linearGradient id="a"><stop offset="0" stop-color="#fff"/><stop offset="1" stop-color="#fff" stop-opacity="0"/></linearGradient><linearGradient id="c" x1="12.579" x2="12.213" y1="2.917" y2="47.279" gradientTransform="matrix(.28855 0 0 .25608 -342.93 40.612)" gradientUnits="userSpaceOnUse"><stop offset="0" stop-color="#fff"/><stop offset="1" stop-color="#fff" stop-opacity="0"/></linearGradient><linearGradient id="b" x1="10.014" x2="10.014" y1="44.96" y2="2.877" gradientTransform="matrix(.31912 0 0 .29298 -343.66 39.465)" gradientUnits="userSpaceOnUse"><stop offset="0" stop-color="#595959"/><stop offset="1" stop-color="#b3b3b3"/></linearGradient><filter id="g" width="1.14" height="1.307" x="-.07" y="-.153" color-interpolation-filters="sRGB"><feGaussianBlur stdDeviation="1.023"/></filter><linearGradient id="f" x1="16.626" x2="20.055" y1="15.298" y2="24.628" gradientTransform="matrix(.30476 0 0 .34105 .65717 .91387)" gradientUnits="userSpaceOnUse" xlink:href="#a"/></defs><g transform="translate(344 -38)"><path fill="url(#e)" fill-rule="evenodd" d="m-342 105c-0.554 0-1 0.446-1 1v9c0 0.554 0.446 1 1 1h12c0.554 0 1-0.446 1-1v-9c0-0.554-0.446-1-1-1h-12zm1 1h10c0.554 0 1 0.446 1 1v7c0 0.554-0.446 1-1 1h-10c-0.554 0-1-0.446-1-1v-7c0-0.554 0.446-1 1-1z" transform="translate(0,-64)"/><rect width="11" height="8" x="-341.5" y="42.5" fill-opacity=".8" stroke="#1e1f1f" stroke-linecap="round" stroke-linejoin="round" color="#000" rx="0" ry="0"/><rect width="12.998" height="9.998" x="-342.5" y="41.501" fill="none" stroke="url(#d)" stroke-linecap="round" stroke-linejoin="round" stroke-width="1.002" opacity=".4" rx="0" ry="0"/><rect width="12.996" height="9.996" x="-342.5" y="41.502" fill="none" stroke="url(#c)" stroke-linecap="round" stroke-linejoin="round" stroke-width="1.004" opacity=".8"/><rect width="14.998" height="11.998" x="-343.5" y="40.501" fill="none" stroke="url(#b)" stroke-linecap="round" stroke-linejoin="round" stroke-width="1.002" rx="1" ry="1"/></g><path fill="url(#f)" fill-rule="evenodd" d="m1.6381 2.9495c-0.36824 0-0.66667 0.33397-0.66667 0.74605v5.4568c0.00082727 0.04591 0.018836 0.08932 0.049598 0.1197 0.030768 0.03038 0.071497 0.04495 0.1123 0.04017l13.715-2.43c0.07055-0.012454 0.12282-0.079954 0.12381-0.15987v-3.0268c0-0.41208-0.29843-0.74605-0.66667-0.74605h-12.667z" opacity=".2"/><path fill="none" stroke="#3a7d6b" stroke-linecap="round" stroke-linejoin="round" stroke-width="5.893" d="m-51.076 15.113h5.6235l2-10 4 15 3-9 3 6 3-2h11.635" filter="url(#g)" transform="matrix(.27103 0 0 .23908 17.438 5.4563)"/><path fill="none" stroke="#5ad7b4" stroke-linecap="square" stroke-linejoin="round" stroke-width=".75" d="m3.5946 9.0694h1.5241l0.54205-2.3908 1.0841 3.5862 0.81307-2.1517 0.81308 1.4345 0.81308-0.47816h3.1534"/></svg>