<svg xmlns="http://www.w3.org/2000/svg" xmlns:xlink="http://www.w3.org/1999/xlink" id="svg4276" width="16" height="16" version="1.1"><defs id="defs4278"><linearGradient id="linearGradient3027" x1="84.281" x2="85.153" y1="15.5" y2="120.14" gradientTransform="matrix(0.1262405,0,0,0.12621454,-0.07938958,-0.45637529)" gradientUnits="userSpaceOnUse"><stop id="stop3959" offset="0" stop-color="#e55454"/><stop id="stop3967" offset=".31" stop-color="#e13f3f"/><stop id="stop3965" offset=".596" stop-color="#c71f1f"/><stop id="stop3961" offset="1" stop-color="#c41e1e"/></linearGradient><linearGradient id="linearGradient3103" x1="22.697" x2="21.933" y1="3.949" y2="46.638" gradientTransform="matrix(0.29356391,0,0,0.29729727,0.95667602,0.56756914)" gradientUnits="userSpaceOnUse"><stop id="stop3107" offset="0" stop-color="#FFF"/><stop id="stop3109" offset=".121" stop-color="#FFF" stop-opacity=".235"/><stop id="stop3111" offset=".868" stop-color="#FFF" stop-opacity=".157"/><stop id="stop3113" offset="1" stop-color="#FFF" stop-opacity=".392"/></linearGradient></defs><metadata id="metadata4281"/><path id="path3169" fill="url(#linearGradient3027)" stroke-miterlimit="4" stroke-width="0" d="m1.4355,1.4999,4.5447,13,1.795,0,0.44973,0,1.795,0,0.16784-0.48011c-0.806-0.526-1.0096-1.151-0.015-1.806-1.4023-0.444-1.9059-1.684,0.037-2.082-0.7779-1.3864,0.109-2.1848,1.487-1.1029,0.0064-0.46421-0.24949-1.1563,0.64098-1.1605l2.2264-6.3687h-4.0042l-2.56,8.6771-2.5603-8.6771z"/><path id="path3969" fill="none" stroke="#570404" stroke-dasharray="none" stroke-linecap="butt" stroke-linejoin="miter" stroke-miterlimit="4" stroke-width="1" d="m1.4355,1.4999,4.5446,13,1.795,0,0.44973,0,1.795,0,0.16784-0.48011c-0.806-0.526-1.0096-1.151-0.015-1.806-1.4023-0.444-1.9059-1.684,0.037-2.082-0.7779-1.3864,0.109-2.1848,1.487-1.1029,0.007-0.4642-0.249-1.1563,0.641-1.1604l2.2264-6.3687h-4.0042l-2.56,8.677-2.5603-8.6771z" opacity=".4"/><path style="block-progression:tb;text-indent:0;text-align:start;text-transform:none" id="path3971" fill="url(#linearGradient3103)" d="m2.125,2,4.2188,12,3.0421,0c-0.0346,0.019-0.761-0.871-0.1219-1.636-1.1207-0.804-1.1788-1.934,0.2126-2.5437-0.3113-1.3348,0.5314-2.1407,1.7204-1.6568,0.191-0.6207,0.322-0.504,0.772-0.7573,0.679-1.8593,1.875-5.4062,1.875-5.4062h-2.906l-2.938,9.914-2.9375-9.914zm-5.8859-11,0.8125,0,2.9375,10-0.2188,0zm8.1562,0,0.8125,0s-0.71296,2.0825-1.25,3.5625c-0.314-0.0148-0.538,0.2492-0.718,0.4375z" baseline-shift="baseline" color="#000" direction="ltr" enable-background="accumulate" opacity=".4"/></svg>