<svg xmlns="http://www.w3.org/2000/svg" xmlns:svg="http://www.w3.org/2000/svg" xmlns:xlink="http://www.w3.org/1999/xlink" id="svg5310" width="16" height="16" version="1.1"><defs id="defs5312"><linearGradient id="linearGradient4352" x1="68.323" x2="68.323" y1="38.827" y2="81.978" gradientUnits="userSpaceOnUse" xlink:href="#linearGradient3922"/><linearGradient id="linearGradient3922"><stop id="stop3924" offset="0" stop-color="#000" stop-opacity="1"/><stop id="stop3926" offset="1" stop-color="#000" stop-opacity="0"/></linearGradient><linearGradient id="linearGradient4350" x1="23.185" x2="23.185" y1="4.024" y2="42.351" gradientTransform="matrix(0.46671968,0,0,0.47309918,1.0426046,24.599019)" gradientUnits="userSpaceOnUse" xlink:href="#linearGradient3882-6"/><linearGradient id="linearGradient3882-6"><stop id="stop3884-6" offset="0" stop-color="#fff" stop-opacity="1"/><stop id="stop3886-6" offset=".439" stop-color="#fff" stop-opacity=".235"/><stop id="stop3888-9" offset=".835" stop-color="#fff" stop-opacity=".157"/><stop id="stop3890-06" offset="1" stop-color="#fff" stop-opacity=".392"/></linearGradient><radialGradient id="radialGradient4348" cx="92.34" cy="25.527" r="23" fx="92.34" fy="25.527" gradientTransform="matrix(0.1527556,-0.1075382,0.05629658,0.08216909,-10.683103,50.211965)" gradientUnits="userSpaceOnUse" xlink:href="#linearGradient4183"/><linearGradient id="linearGradient4183"><stop id="stop4185" offset="0" stop-color="#fa9654" stop-opacity="1"/><stop id="stop4187" offset="1" stop-color="#4e2002" stop-opacity="0"/></linearGradient><radialGradient id="radialGradient4344" cx="20.249" cy="4.912" r="23" fx="20.249" fy="4.912" gradientTransform="matrix(0,0.57072993,-0.49616895,0,193.48448,219.90795)" gradientUnits="userSpaceOnUse" xlink:href="#linearGradient4189"/><linearGradient id="linearGradient4189"><stop id="stop4191" offset="0" stop-color="#f0d000" stop-opacity="1"/><stop id="stop4193" offset=".262" stop-color="#f09c18" stop-opacity="1"/><stop id="stop4195" offset=".705" stop-color="#f07018" stop-opacity="1"/><stop id="stop4197" offset="1" stop-color="#e82818" stop-opacity="1"/></linearGradient><linearGradient id="linearGradient4346" x1="18.139" x2="18.139" y1="45.218" y2="3" gradientTransform="matrix(0.33340314,0,0,0.32238008,183.42688,230.50105)" gradientUnits="userSpaceOnUse" xlink:href="#linearGradient4199"/><linearGradient id="linearGradient4199"><stop id="stop4201" offset="0" stop-color="#505050" stop-opacity="1"/><stop id="stop4203" offset="1" stop-color="#878787" stop-opacity="1"/></linearGradient></defs><metadata id="metadata5315"/><g id="layer1" transform="translate(-183.42856,-230.07646)"><path id="path4330" fill="url(#radialGradient4344)" fill-opacity="1" fill-rule="evenodd" stroke="url(#linearGradient4346)" stroke-dasharray="none" stroke-dashoffset="0" stroke-linecap="butt" stroke-linejoin="round" stroke-miterlimit="4" stroke-opacity="1" stroke-width=".995" d="m 190.36589,231.72073 c -3.84013,0.54744 -6.6816,3.10579 -6.42342,5.87582 0.16719,1.7937 1.59098,3.27008 3.62706,4.04903 l -0.68558,2.58309 c 0,0 -0.0732,0.24184 0.0319,0.32727 0.10501,0.0854 0.35791,-0.0957 0.35791,-0.0957 l 3.20578,-2.24183 0.026,-0.002 c 0.46399,0.0215 0.93013,0.0286 1.41386,-0.014 4.12779,-0.36414 7.26615,-3.02002 6.99527,-5.92627 -0.27088,-2.90626 -3.84908,-4.96961 -7.97687,-4.60546 -0.19349,0.0171 -0.383,0.0235 -0.57186,0.0505 z" display="inline" enable-background="new" overflow="visible" visibility="visible" style="marker:none"/><path id="path4332" fill="url(#radialGradient4348)" fill-opacity="1" fill-rule="evenodd" stroke="none" stroke-width=".995" d="m 13.625,26.78125 c -0.655261,-0.03793 -1.326457,-0.0027 -2.03125,0.0625 -0.296653,0.02743 -0.532862,0.03005 -0.75,0.0625 -2.5878229,0.386741 -4.8421979,1.477129 -6.375,2.9375 -1.5320392,1.459646 -2.3515642,3.27966 -2.1875,5.125 0.2125496,2.390675 2.0336612,4.410572 4.75,5.5 A 0.3198148,0.3198148 0 0 1 7.15625,40.5625 0.3198148,0.3198148 0 0 1 7.09375,41 L 7.375,41.09375 6.53125,44.34375 10.625,41.375 a 0.3198148,0.3198148 0 0 1 0.0625,-0.03125 0.3198148,0.3198148 0 0 1 0.03125,-0.03125 0.3198148,0.3198148 0 0 1 0.0625,0 0.3198148,0.3198148 0 0 1 0.03125,0 0.3198148,0.3198148 0 0 1 0.03125,-0.03125 0.3198148,0.3198148 0 0 1 0.0625,0 l 0.03125,0 a 0.3198148,0.3198148 0 0 1 0.03125,0 c 0.02074,0.001 0.0418,-9.36e-4 0.0625,0 0.610817,0.02761 1.218496,0.02658 1.84375,-0.03125 2.783629,-0.257435 5.226592,-1.355205 6.90625,-2.84375 1.680464,-1.489258 2.609556,-3.346034 2.4375,-5.28125 -0.150673,-1.694763 -1.103962,-3.217187 -2.625,-4.34375 -1.520976,-1.12652 -3.643727,-1.865407 -5.96875,-2 z" display="inline" enable-background="new" overflow="visible" transform="matrix(0.71435415,0,0,0.712994,182.68208,212.90983)" visibility="visible" style="marker:none"/><path id="path4334" fill="none" stroke="url(#linearGradient4350)" stroke-dasharray="none" stroke-dashoffset="0" stroke-linecap="butt" stroke-linejoin="miter" stroke-miterlimit="4" stroke-opacity="1" stroke-width="1.424" d="m 11.6875,27.8125 c -0.288108,0.02665 -0.507166,0.04049 -0.65625,0.0625 -2.211749,0.326526 -4.2999639,1.224187 -5.71875,2.46875 -1.4187861,1.244563 -2.1696097,2.730012 -2.03125,4.5 0.1853048,2.370538 1.9448792,3.99893 4.40625,4.8125 A 1.0273125,1.0273125 0 0 1 8.375,40.875 l -0.25,1.09375 2.03125,-1.5 a 1.0273125,1.0273125 0 0 1 0.625,-0.1875 c 0.603171,0.02656 1.497365,0.07196 1.9375,0.03125 2.055453,-0.190091 4.359357,-1.072121 6.03125,-2.375 1.671893,-1.302879 2.650459,-2.911928 2.5,-4.59375 -0.168379,-1.870737 -1.307728,-3.28909 -3.09375,-4.28125 -1.786022,-0.99216 -4.18396,-1.4613 -6.46875,-1.25 z" display="inline" enable-background="new" opacity=".4" overflow="visible" transform="matrix(0.71679774,0,0,0.68142177,182.63658,213.73874)" visibility="visible" style="marker:none"/><g id="g4336" display="inline" transform="matrix(0.13113808,0,0,0.12509249,182.57275,229.81258)"><path id="path4338" fill="#505050" fill-opacity="1" fill-rule="nonzero" stroke="none" stroke-width="1" d="m 80.777658,30.018031 -13.25825,13.25825 -13.23616,-13.23616 -9.50174,9.50175 13.23615,13.23615 -13.23615,13.23616 9.50174,9.50175 13.23616,-13.23616 13.25825,13.25825 9.50175,-9.50174 -13.25825,-13.25826 13.25825,-13.25825 -9.50175,-9.50174 z" color="#000" display="inline" enable-background="accumulate" overflow="visible" visibility="visible" style="marker:none"/><path d="m 80.777658,37.28036 -13.25825,13.25825 -13.23616,-13.23616 -9.50174,9.50175 13.23615,13.23615 -13.23615,13.23616 9.50174,9.50175 13.23616,-13.23616 13.25825,13.25825 9.50175,-9.50174 -13.25825,-13.25826 13.25825,-13.25825 -9.50175,-9.50174 z" style="marker:none" id="path4340" fill="#fff" fill-opacity="1" fill-rule="nonzero" stroke="none" stroke-width="1" color="#000" display="inline" enable-background="accumulate" overflow="visible" visibility="visible"/><path id="path4342" fill="none" stroke="url(#linearGradient4352)" stroke-dasharray="none" stroke-dashoffset="0" stroke-linecap="square" stroke-linejoin="miter" stroke-miterlimit="4" stroke-opacity="1" stroke-width="7.808" d="M 80.78125,41.21875 69.5,52.5 a 2.8025323,2.8025323 0 0 1 -3.9375,0 L 54.28125,41.25 48.71875,46.8125 60,58.0625 A 2.8025323,2.8025323 0 0 1 60,62 l -11.28125,11.28125 5.5625,5.5625 L 65.5625,67.5625 a 2.8025323,2.8025323 0 0 1 3.9375,0 L 80.78125,78.875 86.34375,73.3125 75.0625,62 a 2.8025323,2.8025323 0 0 1 0,-3.9375 l 11.28125,-11.28125 -5.5625,-5.5625 z" color="#000" display="inline" enable-background="accumulate" opacity=".07" overflow="visible" visibility="visible" style="marker:none"/></g></g></svg>