<svg xmlns="http://www.w3.org/2000/svg" xmlns:xlink="http://www.w3.org/1999/xlink" width="64" height="64" version="1.1"><defs><radialGradient id="c" cx="156.37" cy="21.664" r="17.375" gradientTransform="matrix(-2.2973e-7 4.1051 -4.1576 -3.6511e-7 122.6 -505.17)" gradientUnits="userSpaceOnUse"><stop offset="0" stop-color="#8badea"/><stop offset=".262" stop-color="#6396cd"/><stop offset=".661" stop-color="#3b7caf"/><stop offset="1" stop-color="#194c70"/></radialGradient><radialGradient id="b" cx="154.34" cy="18.17" r="14.234" gradientTransform="matrix(0 3.9126 -3.3335 .0000010032 215.15 -598.77)" gradientUnits="userSpaceOnUse"><stop offset="0" stop-color="#487ede"/><stop offset=".262" stop-color="#366eaa"/><stop offset=".661" stop-color="#275273"/><stop offset="1" stop-color="#0a1f2e"/></radialGradient><linearGradient id="f" x1="157.81" x2="157.81" y1="7.297" y2="47.43" gradientUnits="userSpaceOnUse"><stop offset="0" stop-color="#fff"/><stop offset="1" stop-color="#fff" stop-opacity="0"/></linearGradient><linearGradient id="e" x1="152.59" x2="152.59" y1="5.225" y2="48.276" gradientTransform="matrix(1.3744 0 0 1.3701 -184.05 130.77)" gradientUnits="userSpaceOnUse"><stop offset="0" stop-color="#4083c2"/><stop offset="1" stop-color="#1f4b6a"/></linearGradient><radialGradient id="a" cx="159.98" cy="34.237" r="9.723" gradientUnits="userSpaceOnUse"><stop offset="0" stop-color="#fff"/><stop offset="1" stop-color="#fff" stop-opacity="0"/></radialGradient><radialGradient id="d" cx="62.625" cy="4.625" r="10.625" gradientTransform="matrix(2.7212 0 0 .92168 61.016 341.03)" gradientUnits="userSpaceOnUse"><stop offset="0"/><stop offset="1" stop-opacity="0"/></radialGradient></defs><g><path fill="url(#d)" fill-rule="evenodd" d="m260.34 345.29c0 5.4085-12.944 9.7929-28.912 9.7929s-28.912-4.3844-28.912-9.7929 12.944-9.7929 28.912-9.7929 28.912 4.3844 28.912 9.7929z" enable-background="new" opacity=".3" transform="translate(-199.43 -291.79)"/><g><path fill="url(#c)" d="m32.55 138.22c-5.833 8.4036-11.366 17.026-17.008 25.561-1.5256 2.627-2.938 4.9279-3.9085 7.4071-0.61326 1.8203-0.94491 3.7434-0.94491 5.7373 0 11.203 10.378 20.295 23.193 20.295s23.193-9.0918 23.193-20.295c-0.0498-2.4528-0.56124-4.5634-1.1597-6.2939-1.2006-3.2125-3.9706-6.4088-5.6694-9.0341-5.747-7.9-12.082-15.39-17.696-23.38z" color="#000" enable-background="accumulate" transform="translate(-199.43 -291.79) matrix(.96667 0 0 .96667 198.68 160.65)"/><path fill="url(#b)" d="m155.94 16.625c-3.0643 0.12294-5.7308 0.71737-5.875 0.75l-0.0937 0.03125c-0.008 0.01205-0.0234 0.0192-0.0312 0.03125-1.4819 2.2654-2.9456 4.5482-4.4375 6.8125-0.005 0.0083 0.005 0.02301 0 0.03125-1.1014 1.9017-2.1236 3.5562-2.8125 5.3125-0.003 0.0095 0.003 0.02171 0 0.03125-0.42936 1.2882-0.6875 2.6535-0.6875 4.0625 0 7.9769 7.3926 14.5 16.562 14.5 3.7752 0 7.2486-1.1405 10.031-3-4.2395-1.1436-9.3689-2.7568-12.438-4.7188a0.32433 0.32433 0 0 1 0 -0.03125c-5.1527-3.8029-6.4445-8.9433-4.8125-12.844 1.632-3.9005 6.1653-6.4836 12.312-5.2188 1.757 0.3615 3.3923 2.1993 4.6562 3.9062 0.4087 0.55194 0.69069 0.98651 1 1.4688-0.27504-0.93984-0.65382-2.0997-1.2188-3.3438-1.2934-2.8483-3.4351-5.9448-6.75-7.1562-1.5268-0.55797-3.5181-0.70075-5.4062-0.625z" transform="translate(-199.43 -291.79) matrix(.96667 0 0 .96667 198.68 160.65) matrix(1.3744 0 0 1.3721 -184.05 130.67)"/><path fill="none" stroke="url(#f)" stroke-linecap="round" stroke-width=".753" d="m157.62 6.8125c-4.0067 5.8231-7.8438 11.768-11.75 17.688-0.008 0.01208-0.0233 0.01917-0.0312 0.03125-1.1006 1.8972-2.0813 3.5473-2.75 5.25-0.003 0.0097 0.003 0.02158 0 0.03125-0.41465 1.2428-0.65625 2.5476-0.65625 3.9062 0 7.6974 7.1598 14.031 16.125 14.031s16.125-6.3339 16.125-14.031c-0.0342-1.6914-0.39593-3.1371-0.8125-4.3438-0.79517-2.1314-2.744-4.4184-4.0312-6.4062-0.004-0.0066 0.004-0.02461 0-0.03125-3.94-5.428-8.27-10.606-12.22-16.126z" color="#000" enable-background="accumulate" opacity=".4" transform="translate(-199.43 -291.79) matrix(.96667 0 0 .96667 198.68 160.65) matrix(1.3744 0 0 1.3721 -184.05 130.67)"/><path fill="none" stroke="url(#e)" stroke-linecap="round" stroke-linejoin="round" stroke-width="1.034" d="m32.55 138.22c-5.833 8.4036-11.366 17.026-17.008 25.561-1.5256 2.627-2.938 4.9279-3.9085 7.4071-0.61326 1.8203-0.94491 3.7434-0.94491 5.7373 0 11.203 10.378 20.295 23.193 20.295s23.193-9.0919 23.193-20.295c-0.0498-2.4528-0.56124-4.5634-1.1597-6.2939-1.2006-3.2125-3.9706-6.4088-5.6694-9.0341-5.747-7.9-12.082-15.39-17.696-23.38z" color="#000" enable-background="accumulate" transform="translate(-199.43 -291.79) matrix(.96667 0 0 .96667 198.68 160.65)"/><path fill="url(#a)" d="m169.71 34.237c0 5.3697-4.353 9.7227-9.7227 9.7227s-9.7227-4.353-9.7227-9.7227 4.353-9.7227 9.7227-9.7227 9.7227 4.353 9.7227 9.7227z" color="#000" enable-background="accumulate" opacity=".5" transform="translate(-199.43 -291.79) matrix(.96667 0 0 .96667 198.68 160.65) matrix(1.9492 0 0 1.871 -278.19 111.65)"/></g></g></svg>