<svg xmlns="http://www.w3.org/2000/svg" xmlns:svg="http://www.w3.org/2000/svg" xmlns:xlink="http://www.w3.org/1999/xlink" id="svg2" width="64" height="64" version="1.1"><defs id="defs4"><linearGradient id="linearGradient3880"><stop id="stop3882" offset="0" stop-color="#000" stop-opacity=".196"/><stop id="stop3884" offset="1" stop-color="#000" stop-opacity="0"/></linearGradient><linearGradient id="linearGradient3830"><stop id="stop3832" offset="0" stop-color="gray" stop-opacity=".51"/><stop id="stop3848" offset=".05" stop-color="gray" stop-opacity=".392"/><stop id="stop3846" offset=".904" stop-color="gray" stop-opacity=".471"/><stop id="stop3834" offset="1" stop-color="gray" stop-opacity=".588"/></linearGradient><linearGradient id="linearGradient3775"><stop id="stop3777" offset="0" stop-color="#fff" stop-opacity=".588"/><stop id="stop3779" offset="1" stop-color="#fff" stop-opacity="1"/></linearGradient><linearGradient id="linearGradient3765"><stop id="stop3767" offset="0" stop-color="#fff" stop-opacity="1"/><stop id="stop3769" offset="1" stop-color="#e4e4e4" stop-opacity="1"/></linearGradient><radialGradient id="radialGradient3771" cx="14.892" cy="-17.681" r="25.571" fx="14.892" fy="-17.681" gradientTransform="matrix(-1.7922484,4.7450628e-8,-3.529013e-8,-1.3329366,41.58142,-41.248313)" gradientUnits="userSpaceOnUse" xlink:href="#linearGradient3765"/><linearGradient id="linearGradient3781" x1="15.124" x2="15.124" y1="-18.801" y2="32.568" gradientUnits="userSpaceOnUse" xlink:href="#linearGradient3775"/><linearGradient id="linearGradient3836" x1="29.462" x2="29.462" y1="1008.808" y2="1033.228" gradientUnits="userSpaceOnUse" xlink:href="#linearGradient3830"/><radialGradient id="radialGradient3872" cx="14.892" cy="-17.681" r="25.571" fx="14.892" fy="-17.681" gradientTransform="matrix(-1.7922484,4.7450628e-8,-3.529013e-8,-1.3329366,41.58142,-41.248313)" gradientUnits="userSpaceOnUse" xlink:href="#linearGradient3765"/><linearGradient id="linearGradient3874" x1="15.124" x2="15.124" y1="-18.801" y2="32.568" gradientUnits="userSpaceOnUse" xlink:href="#linearGradient3775"/><linearGradient id="linearGradient3876" x1="29.462" x2="29.462" y1="1008.808" y2="1033.228" gradientUnits="userSpaceOnUse" xlink:href="#linearGradient3830"/><radialGradient id="radialGradient3888" cx="32.629" cy="60.415" r="26.29" fx="32.629" fy="60.415" gradientTransform="matrix(1,0,0,0.10474308,0,54.086896)" gradientUnits="userSpaceOnUse" xlink:href="#linearGradient3880"/><radialGradient id="radialGradient3899" cx="32.629" cy="60.415" r="26.29" fx="32.629" fy="60.415" gradientTransform="matrix(1,0,0,0.10474308,0,54.086896)" gradientUnits="userSpaceOnUse" xlink:href="#linearGradient3880"/><radialGradient id="radialGradient3901" cx="14.892" cy="-17.681" r="25.571" fx="14.892" fy="-17.681" gradientTransform="matrix(-1.7922484,4.7450628e-8,-3.529013e-8,-1.3329366,41.58142,-41.248313)" gradientUnits="userSpaceOnUse" xlink:href="#linearGradient3765"/><linearGradient id="linearGradient3903" x1="15.124" x2="15.124" y1="-18.801" y2="32.568" gradientUnits="userSpaceOnUse" xlink:href="#linearGradient3775"/><linearGradient id="linearGradient3905" x1="29.462" x2="29.462" y1="1008.808" y2="1033.228" gradientUnits="userSpaceOnUse" xlink:href="#linearGradient3830"/><radialGradient id="radialGradient3914" cx="14.892" cy="-17.681" r="25.571" fx="14.892" fy="-17.681" gradientTransform="matrix(-1.7922484,4.7450628e-8,-3.529013e-8,-1.3329366,41.58142,-41.248313)" gradientUnits="userSpaceOnUse" xlink:href="#linearGradient3765"/><linearGradient id="linearGradient3916" x1="15.124" x2="15.124" y1="-18.801" y2="32.568" gradientUnits="userSpaceOnUse" xlink:href="#linearGradient3775"/><linearGradient id="linearGradient3918" x1="29.462" x2="29.462" y1="1008.808" y2="1033.228" gradientUnits="userSpaceOnUse" xlink:href="#linearGradient3830"/><linearGradient id="linearGradient3922" x1="29.462" x2="29.462" y1="1008.808" y2="1033.228" gradientTransform="translate(0,-1.3508906)" gradientUnits="userSpaceOnUse" xlink:href="#linearGradient3830"/><linearGradient id="linearGradient3022" x1="29.462" x2="29.462" y1="1008.808" y2="1033.228" gradientTransform="translate(0,-1.3508906)" gradientUnits="userSpaceOnUse" xlink:href="#linearGradient3830"/><linearGradient id="linearGradient3026" x1="29.462" x2="29.462" y1="1008.808" y2="1033.228" gradientTransform="translate(0.49999993,-1.5056485)" gradientUnits="userSpaceOnUse" xlink:href="#linearGradient3830"/><linearGradient id="linearGradient3030" x1="29.462" x2="29.462" y1="1008.808" y2="1033.228" gradientTransform="translate(0.49999993,-1.5056485)" gradientUnits="userSpaceOnUse" xlink:href="#linearGradient3830"/></defs><metadata id="metadata7"/><g id="layer1" transform="translate(0,-988.36218)"><g id="g3804"><path id="path3878" fill="url(#radialGradient3899)" fill-opacity="1" stroke="none" d="m 58.919613,60.414944 a 26.290409,2.7537384 0 1 1 -52.5808183,0 26.290409,2.7537384 0 1 1 52.5808183,0 z" transform="translate(0.49999993,988.20742)"/><path id="path2985" fill="url(#radialGradient3914)" fill-opacity="1" stroke="none" d="m 40.780711,6.8335247 a 25.570608,25.570608 0 1 1 -51.141216,0 25.570608,25.570608 0 1 1 51.141216,0 z" transform="matrix(1.1539889,0,0,1.1539889,14.44771,1011.4706)"/><path id="path3755" fill="none" stroke="#828282" stroke-dasharray="none" stroke-miterlimit="4" stroke-opacity=".588" stroke-width=".867" d="m 40.780711,6.8335247 a 25.570608,25.570608 0 1 1 -51.141216,0 25.570608,25.570608 0 1 1 51.141216,0 z" transform="matrix(1.1539889,0,0,1.1539889,14.44771,1011.4706)"/><path id="path3773" fill="none" stroke="url(#linearGradient3916)" stroke-dasharray="none" stroke-miterlimit="4" stroke-opacity=".588" stroke-width=".867" d="m 40.780711,6.8335247 a 25.570608,25.570608 0 1 1 -51.141216,0 25.570608,25.570608 0 1 1 51.141216,0 z" transform="matrix(1.117255,0,0,1.117255,15.006436,1011.7216)"/><path id="rect3789" fill="url(#linearGradient3030)" fill-opacity="1" stroke="none" d="m 22,1007.2627 c -6.696545,0 -12.0937501,5.3972 -12.0937501,12.0938 0,6.6965 5.3972051,12.0937 12.0937501,12.0937 l 20,0 c 6.696545,0 12.09375,-5.3972 12.09375,-12.0937 0,-6.6966 -5.397205,-12.0938 -12.09375,-12.0938 l -20,0 z m 23.6875,4.1563 c 0.0947,-0.019 0.180817,0 0.28125,0 0.803467,0 1.46875,0.634 1.46875,1.4375 0,0.8034 -0.665283,1.4687 -1.46875,1.4687 -0.803467,0 -1.4375,-0.6653 -1.4375,-1.4687 0,-0.7031 0.49332,-1.3019 1.15625,-1.4375 z m -28.28125,0.3125 1.25,0 c 0.374197,0 0.6875,0.282 0.6875,0.6562 l 0,1.9375 1.90625,0 c 0.374197,0 0.6875,0.3133 0.6875,0.6875 l 0,1.2188 c 0,0.3742 -0.313303,0.6875 -0.6875,0.6875 l -1.90625,0 0,1.9375 c 0,0.3742 -0.313303,0.6562 -0.6875,0.6562 l -1.25,0 c -0.374197,0 -0.6875,-0.282 -0.6875,-0.6562 l 0,-1.9375 -1.90625,0 c -0.374197,0 -0.6875,-0.3133 -0.6875,-0.6875 l 0,-1.2188 c 0,-0.3742 0.313303,-0.6875 0.6875,-0.6875 l 1.90625,0 0,-1.9375 c 0,-0.3742 0.313303,-0.6562 0.6875,-0.6562 z m 25.625,2.5937 c 0.803467,0 1.4375,0.634 1.4375,1.4375 0,0.8035 -0.634033,1.4688 -1.4375,1.4688 -0.803467,0 -1.46875,-0.6653 -1.46875,-1.4688 0,-0.8035 0.665283,-1.4375 1.46875,-1.4375 z m 5.90625,0 c 0.803467,0 1.46875,0.634 1.46875,1.4375 0,0.8035 -0.665283,1.4688 -1.46875,1.4688 -0.803467,0 -1.4375,-0.6653 -1.4375,-1.4688 0,-0.8035 0.634033,-1.4375 1.4375,-1.4375 z m -20.84375,1.1875 1.5625,0 c 0.374197,0 0.6875,0.2821 0.6875,0.6563 l 0,0.125 c 0,0.3742 -0.313303,0.6562 -0.6875,0.6562 l -1.5625,0 c -0.374197,0 -0.65625,-0.282 -0.65625,-0.6562 l 0,-0.125 c 0,-0.3742 0.282053,-0.6563 0.65625,-0.6563 z m 6.46875,0 1.5625,0 c 0.374197,0 0.65625,0.2821 0.65625,0.6563 l 0,0.125 c 0,0.3742 -0.282053,0.6562 -0.65625,0.6562 l -1.5625,0 c -0.374197,0 -0.6875,-0.282 -0.6875,-0.6562 l 0,-0.125 c 0,-0.3742 0.313303,-0.6563 0.6875,-0.6563 z m 11.40625,1.4063 c 0.803467,0 1.46875,0.634 1.46875,1.4375 0,0.8034 -0.665283,1.4687 -1.46875,1.4687 -0.803467,0 -1.4375,-0.6653 -1.4375,-1.4687 0,-0.8035 0.634033,-1.4375 1.4375,-1.4375 z m -20.8125,4.9375 c 1.893886,0 3.40625,1.5123 3.40625,3.4062 0,1.8939 -1.512364,3.4375 -3.40625,3.4375 -1.893886,0 -3.4375,-1.5436 -3.4375,-3.4375 0,-1.8939 1.543614,-3.4062 3.4375,-3.4062 z m 13.8125,0 c 1.893886,0 3.4375,1.5123 3.4375,3.4062 0,1.8939 -1.543614,3.4375 -3.4375,3.4375 -1.893886,0 -3.4375,-1.5436 -3.4375,-3.4375 0,-1.8939 1.543614,-3.4062 3.4375,-3.4062 z"/><path id="path3859" fill="#fff" fill-opacity=".196" stroke="none" d="m 32,989.85653 c -16.296928,0 -29.5000001,13.20307 -29.5000001,29.49997 0,10.2912 5.2633368,19.3445 13.2500001,24.625 -1.019226,-11.9422 3.75302,-24.1429 13.8125,-32.2813 8.0266,-6.4937 17.865572,-9.1249 27.34375,-8.1562 C 51.670356,995.31339 42.477511,989.85653 32,989.85653 z"/><path id="path3927" fill="url(#linearGradient3026)" fill-opacity="1" stroke="none" d="m 22,1007.2627 c -6.696545,0 -12.0937501,5.3972 -12.0937501,12.0938 0,6.6965 5.3972051,12.0937 12.0937501,12.0937 l 20,0 c 6.696545,0 12.09375,-5.3972 12.09375,-12.0937 0,-6.6966 -5.397205,-12.0938 -12.09375,-12.0938 l -20,0 z m 23.6875,4.1563 c 0.0947,-0.019 0.180817,0 0.28125,0 0.803467,0 1.46875,0.634 1.46875,1.4375 0,0.8034 -0.665283,1.4687 -1.46875,1.4687 -0.803467,0 -1.4375,-0.6653 -1.4375,-1.4687 0,-0.7031 0.49332,-1.3019 1.15625,-1.4375 z m -28.28125,0.3125 1.25,0 c 0.374197,0 0.6875,0.282 0.6875,0.6562 l 0,1.9375 1.90625,0 c 0.374197,0 0.6875,0.3133 0.6875,0.6875 l 0,1.2188 c 0,0.3742 -0.313303,0.6875 -0.6875,0.6875 l -1.90625,0 0,1.9375 c 0,0.3742 -0.313303,0.6562 -0.6875,0.6562 l -1.25,0 c -0.374197,0 -0.6875,-0.282 -0.6875,-0.6562 l 0,-1.9375 -1.90625,0 c -0.374197,0 -0.6875,-0.3133 -0.6875,-0.6875 l 0,-1.2188 c 0,-0.3742 0.313303,-0.6875 0.6875,-0.6875 l 1.90625,0 0,-1.9375 c 0,-0.3742 0.313303,-0.6562 0.6875,-0.6562 z m 25.625,2.5937 c 0.803467,0 1.4375,0.634 1.4375,1.4375 0,0.8035 -0.634033,1.4688 -1.4375,1.4688 -0.803467,0 -1.46875,-0.6653 -1.46875,-1.4688 0,-0.8035 0.665283,-1.4375 1.46875,-1.4375 z m 5.90625,0 c 0.803467,0 1.46875,0.634 1.46875,1.4375 0,0.8035 -0.665283,1.4688 -1.46875,1.4688 -0.803467,0 -1.4375,-0.6653 -1.4375,-1.4688 0,-0.8035 0.634033,-1.4375 1.4375,-1.4375 z m -20.84375,1.1875 1.5625,0 c 0.374197,0 0.6875,0.2821 0.6875,0.6563 l 0,0.125 c 0,0.3742 -0.313303,0.6562 -0.6875,0.6562 l -1.5625,0 c -0.374197,0 -0.65625,-0.282 -0.65625,-0.6562 l 0,-0.125 c 0,-0.3742 0.282053,-0.6563 0.65625,-0.6563 z m 6.46875,0 1.5625,0 c 0.374197,0 0.65625,0.2821 0.65625,0.6563 l 0,0.125 c 0,0.3742 -0.282053,0.6562 -0.65625,0.6562 l -1.5625,0 c -0.374197,0 -0.6875,-0.282 -0.6875,-0.6562 l 0,-0.125 c 0,-0.3742 0.313303,-0.6563 0.6875,-0.6563 z m 11.40625,1.4063 c 0.803467,0 1.46875,0.634 1.46875,1.4375 0,0.8034 -0.665283,1.4687 -1.46875,1.4687 -0.803467,0 -1.4375,-0.6653 -1.4375,-1.4687 0,-0.8035 0.634033,-1.4375 1.4375,-1.4375 z m -20.8125,4.9375 c 1.893886,0 3.40625,1.5123 3.40625,3.4062 0,1.8939 -1.512364,3.4375 -3.40625,3.4375 -1.893886,0 -3.4375,-1.5436 -3.4375,-3.4375 0,-1.8939 1.543614,-3.4062 3.4375,-3.4062 z m 13.8125,0 c 1.893886,0 3.4375,1.5123 3.4375,3.4062 0,1.8939 -1.543614,3.4375 -3.4375,3.4375 -1.893886,0 -3.4375,-1.5436 -3.4375,-3.4375 0,-1.8939 1.543614,-3.4062 3.4375,-3.4062 z"/><rect id="rect3933" width="44.207" height="24.321" x="9.919" y="1007.165" fill="none" stroke="#b4b4b4" stroke-opacity=".588" rx="12.161" ry="12.161"/></g></g></svg>