<svg xmlns="http://www.w3.org/2000/svg" id="svg6086" width="64" height="64" version="1.1"><defs id="defs6088"><radialGradient id="radialGradient3337-2-2" cx="4.993" cy="43.5" r="2.5" gradientTransform="matrix(2.003784,0,0,1.4,27.98813,-17.4)" gradientUnits="userSpaceOnUse"><stop id="stop2883-4-0-1-8" offset="0" stop-color="#181818"/><stop id="stop2885-9-2-9-6" offset="1" stop-color="#181818" stop-opacity="0"/></radialGradient><radialGradient id="radialGradient3339-1-4" cx="4.993" cy="43.5" r="2.5" gradientTransform="matrix(2.003784,0,0,1.4,-20.01187,-104.4)" gradientUnits="userSpaceOnUse"><stop id="stop2889-7-9-6-9" offset="0" stop-color="#181818"/><stop id="stop2891-6-6-1-7" offset="1" stop-color="#181818" stop-opacity="0"/></radialGradient><linearGradient id="linearGradient6084" x1="25.058" x2="25.058" y1="47.028" y2="39.999" gradientUnits="userSpaceOnUse"><stop id="stop2895-8-9-9-1" offset="0" stop-color="#181818" stop-opacity="0"/><stop id="stop2897-7-8-7-7" offset=".5" stop-color="#181818"/><stop id="stop2899-4-5-1-5" offset="1" stop-color="#181818" stop-opacity="0"/></linearGradient><linearGradient id="linearGradient3025" x1="24" x2="24" y1="5" y2="43" gradientTransform="matrix(1.4324324,0,0,1.4324324,-2.378381,-2.3783712)" gradientUnits="userSpaceOnUse"><stop id="stop3926-9-4-9-6" offset="0" stop-color="#FFF"/><stop id="stop3928-9-8-6-5" offset=".063" stop-color="#FFF" stop-opacity=".235"/><stop id="stop3930-3-5-1-7" offset=".951" stop-color="#FFF" stop-opacity=".157"/><stop id="stop3932-8-0-4-8" offset="1" stop-color="#FFF" stop-opacity=".392"/></linearGradient><radialGradient id="radialGradient3034" cx="9.632" cy="10.155" r="12.672" gradientTransform="matrix(-0.02361302,5.272912,-7.253465,-0.03248229,105.71856,-47.006935)" gradientUnits="userSpaceOnUse"><stop id="stop3901" offset="0" stop-color="#ff9c44"/><stop id="stop3903" offset=".774" stop-color="#ff7e0c"/><stop id="stop3905" offset="1" stop-color="#cb5f00"/></radialGradient><radialGradient id="radialGradient4031" cx="64" cy="31.427" r="33.942" gradientTransform="matrix(-0.05723719,2.2733124,-1.7287633,-0.04277137,88.760994,-131.14902)" gradientUnits="userSpaceOnUse"><stop id="stop38" offset="0" stop-color="#fafafa"/><stop id="stop40" offset="1" stop-color="#e0e0e0"/></radialGradient></defs><metadata id="metadata6091"/><g id="g3712-8-2-4-4" opacity=".6" transform="matrix(1.5789502,0,0,0.7142857,-5.894751,27.928572)"><rect id="rect2801-5-5-7-9" width="5" height="7" x="38" y="40" fill="url(#radialGradient3337-2-2)"/><rect id="rect3696-3-0-3-7" width="5" height="7" x="-10" y="-47" fill="url(#radialGradient3339-1-4)" transform="scale(-1,-1)"/><rect id="rect3700-5-6-8-4" width="28" height="7" x="10" y="40" fill="url(#linearGradient6084)"/></g><rect id="rect5505-21-3-8-5-2" width="55" height="55" x="4.5" y="4.5" fill="url(#radialGradient3034)" fill-rule="nonzero" color="#000" enable-background="accumulate" rx="3" ry="3"/><rect id="rect6741-5-0-2-3" width="53" height="53" x="5.5" y="5.5" fill="none" stroke="url(#linearGradient3025)" stroke-dasharray="none" stroke-dashoffset="0" stroke-linecap="round" stroke-linejoin="round" stroke-miterlimit="4" stroke-width="1" opacity=".5" rx="2" ry="2"/><rect id="rect5505-21-3-8-9-1-1" width="55" height="55" x="4.5" y="4.5" fill="none" stroke="#410000" stroke-dasharray="none" stroke-dashoffset="0" stroke-linecap="round" stroke-linejoin="round" stroke-miterlimit="4" stroke-width="1" color="#000" enable-background="accumulate" opacity=".35" rx="3" ry="3"/><path id="path3979" fill="#000" d="M44.795,26.349c-22.515-12.802-28.119,27.845-4.823,15.521,2.8647-1.5155-6.2286,0.94151-8.0168-4.0976,5.6123,0.29179,8.8546-2.1138,9.4574-7.9469,0.73078,1.2003,0.96471,2.4006,2.4426,3.601,0.35007-1.4073,0.71413-2.8145,0.25052-4.2218,3.9069,2.1524,3.6046,9.6511-0.82129,15.639-6.3342,8.568-28.67,9.8445-29.049-10.482-0.28716-15.399,28.532-32.244,36.571-7.2671-3.8004-4.727-8.4699-8.787-14.092-7.9469,4.188,1.7245,7.325,3.9914,8.0793,7.2019z" opacity=".3"/><path id="path3967" fill="#000" stroke="#000" stroke-dasharray="none" stroke-linejoin="round" stroke-miterlimit="4" stroke-width="2" d="M44.795,26.349c-22.515-12.802-28.119,27.845-4.823,15.521,2.8647-1.5155-6.2286,0.94151-8.0168-4.0976,5.6123,0.29179,8.8546-2.1138,9.4574-7.9469,0.73078,1.2003,0.96471,2.4006,2.4426,3.601,0.35007-1.4073,0.71413-2.8145,0.25052-4.2218,3.9069,2.1524,3.6046,9.6511-0.82129,15.639-6.3342,8.568-28.67,9.8445-29.049-10.482-0.28716-15.399,28.532-32.244,36.571-7.2671-3.8004-4.727-8.4699-8.787-14.092-7.9469,4.188,1.7245,7.325,3.9914,8.0793,7.2019z" opacity=".15"/><path id="path3977" fill="url(#radialGradient4031)" d="M44.795,25.349c-22.515-12.802-28.119,27.845-4.823,15.521,2.8647-1.5155-6.2286,0.94151-8.0168-4.0976,5.6123,0.29179,8.8546-2.1138,9.4574-7.9469,0.73078,1.2003,0.96471,2.4006,2.4426,3.601,0.35007-1.4073,0.71413-2.8145,0.25052-4.2218,3.9069,2.1524,3.6046,9.6511-0.82129,15.639-6.3342,8.568-28.67,9.8445-29.049-10.482-0.28716-15.399,28.532-32.244,36.571-7.2671-3.8004-4.727-8.4699-8.787-14.092-7.9469,4.188,1.7245,7.325,3.9914,8.0793,7.2019z"/></svg>