<svg xmlns="http://www.w3.org/2000/svg" xmlns:svg="http://www.w3.org/2000/svg" xmlns:xlink="http://www.w3.org/1999/xlink" id="svg2985" width="64" height="64" enable-background="new" version="1.1"><defs id="defs2987"><linearGradient id="linearGradient4266"><stop id="stop4268" offset="0" stop-color="#fff" stop-opacity="1"/><stop id="stop4270" offset="1" stop-color="#000" stop-opacity="0"/></linearGradient><linearGradient id="linearGradient4254"><stop id="stop4256" offset="0" stop-color="#000" stop-opacity="1"/><stop id="stop4258" offset="1" stop-color="#000" stop-opacity="0"/></linearGradient><linearGradient id="linearGradient3800"><stop id="stop3802" offset="0" stop-color="#fea" stop-opacity=".522"/><stop id="stop3810" offset=".367" stop-color="#fd5" stop-opacity=".53"/><stop id="stop3808" offset=".954" stop-color="#ffd42a" stop-opacity=".496"/><stop id="stop3804" offset="1" stop-color="#c8ab37" stop-opacity="1"/></linearGradient><linearGradient id="linearGradient3012"><stop id="stop3016" offset="0" stop-color="#fc0" stop-opacity="1"/><stop id="stop3014" offset="1" stop-color="#d45500" stop-opacity="1"/></linearGradient><linearGradient id="linearGradient3806" x1="7.105" x2="7.195" y1="989.878" y2="1053.002" gradientTransform="matrix(0.85474262,0,0,0.85474226,4.648237,148.21548)" gradientUnits="userSpaceOnUse" xlink:href="#linearGradient3800"/><linearGradient id="linearGradient3688-166-749-4-0-3-8-2-5"><stop id="stop2883-4-0-1-8-4-4" offset="0" stop-color="#181818" stop-opacity="1"/><stop id="stop2885-9-2-9-6-0-4" offset="1" stop-color="#181818" stop-opacity="0"/></linearGradient><radialGradient id="radialGradient3339-1-4-8-7" cx="4.993" cy="43.5" r="2.5" fx="4.993" fy="43.5" gradientTransform="matrix(3.1638751,0,0,0.99999998,-25.808242,-1091.3622)" gradientUnits="userSpaceOnUse" xlink:href="#linearGradient3688-464-309-9-2-4-2-3-5"/><linearGradient id="linearGradient3688-464-309-9-2-4-2-3-5"><stop id="stop2889-7-9-6-9-5-3" offset="0" stop-color="#181818" stop-opacity="1"/><stop id="stop2891-6-6-1-7-6-4" offset="1" stop-color="#181818" stop-opacity="0"/></linearGradient><linearGradient id="linearGradient6394-1-2" x1="25.058" x2="25.058" y1="47.028" y2="39.999" gradientTransform="matrix(1.5789502,0,0,0.7142857,-5.7895045,1016.7907)" gradientUnits="userSpaceOnUse" xlink:href="#linearGradient3702-501-757-8-4-1-1-3-2"/><linearGradient id="linearGradient3702-501-757-8-4-1-1-3-2"><stop id="stop2895-8-9-9-1-4-6" offset="0" stop-color="#181818" stop-opacity="0"/><stop id="stop2897-7-8-7-7-6-7" offset=".5" stop-color="#181818" stop-opacity="1"/><stop id="stop2899-4-5-1-5-7-6" offset="1" stop-color="#181818" stop-opacity="0"/></linearGradient><radialGradient id="radialGradient3646" cx="4.993" cy="43.5" r="2.5" fx="4.993" fy="43.5" gradientTransform="matrix(3.1638751,0,0,0.99999998,38.402359,1004.3622)" gradientUnits="userSpaceOnUse" xlink:href="#linearGradient3688-166-749-4-0-3-8-2-5"/><linearGradient id="linearGradient4260" x1="31.259" x2="31.539" y1="16.501" y2="58.89" gradientTransform="translate(0.53033008,-0.35355339)" gradientUnits="userSpaceOnUse" xlink:href="#linearGradient4254"/><linearGradient id="linearGradient4264" x1="31.82" x2="31.82" y1="10.26" y2="26.435" gradientTransform="translate(0.53033008,-0.35355339)" gradientUnits="userSpaceOnUse" xlink:href="#linearGradient4266"/><radialGradient id="radialGradient3877" cx="30.973" cy="978.302" r="27.563" fx="30.973" fy="978.302" gradientTransform="matrix(-3.9854649,0.04316537,-0.04770781,-4.4048616,202.76202,5291.6517)" gradientUnits="userSpaceOnUse" xlink:href="#linearGradient3012"/></defs><metadata id="metadata2990"/><g id="layer1" display="inline" transform="translate(0,-988.36218)"><rect id="rect2801-5-5-7-9-0" width="7.895" height="5" x="54.211" y="1045.362" fill="url(#radialGradient3646)" fill-opacity="1" stroke="none" opacity=".6"/><rect id="rect3696-3-0-3-7-8" width="7.895" height="5" x="-10" y="-1050.362" fill="url(#radialGradient3339-1-4-8-7)" fill-opacity="1" stroke="none" opacity=".6" transform="scale(-1,-1)"/><rect id="rect3700-5-6-8-4-1" width="44.211" height="5" x="10" y="1045.362" fill="url(#linearGradient6394-1-2)" fill-opacity="1" stroke="none" opacity=".6"/><rect id="rect2999" width="55.125" height="55.125" x="4.438" y="992.8" fill="url(#radialGradient3877)" fill-opacity="1" stroke="none" rx="3.062" ry="3.062"/><rect id="rect2997" width="55.002" height="55.002" x="4.499" y="992.861" fill="none" stroke="#520" stroke-dasharray="none" stroke-miterlimit="4" stroke-width=".998" opacity=".541" rx="3.001" ry="3.001"/><rect id="rect3790" width="53.007" height="53.007" x="5.496" y="993.859" fill="none" stroke="url(#linearGradient3806)" stroke-dasharray="none" stroke-miterlimit="4" stroke-width=".993" rx="2.004" ry="2.004"/></g><g id="layer5" opacity=".9"><path id="path4091-1" fill="none" stroke="#000" stroke-linecap="butt" stroke-linejoin="miter" stroke-opacity="1" stroke-width="1" d="M 28.820781,11.78343 10.891094,29.713116 c -2.7890621,3.1875 -1.1953116,4.382812 0,4.78125 l 6.375,2.390625 c 1.195312,0.398437 2.390625,1.59375 0.796875,2.390625 0,0 -2.789063,0.796875 -2.390625,1.59375 0.398437,0.796875 9.164062,4.382812 9.164062,4.382812 0.796875,0.398438 1.195313,1.195313 0.398438,1.992188 0,0 -1.59375,1.992187 -1.195313,2.789062 0.398438,0.796875 3.239744,1.073562 4.382813,1.992188 1.143069,0.918626 0.554107,2.613816 2.390625,3.1875 1.836518,0.573684 6.773437,-1.59375 7.171875,-2.390625 0.398437,-0.796875 -1.59375,-1.59375 -1.195313,-2.789063 0.398438,-1.195312 6.773438,-3.984375 6.773438,-3.984375 1.195312,-0.398437 1.23918,-1.443546 0,-2.390625 l -1.992188,-1.195312 c -0.894914,-0.595172 -1.283319,-1.9795 0.398438,-2.390625 l 10.359375,-4.78125 c 2.390625,-1.195313 2.390625,-3.1875 0,-5.578125 L 35.195781,11.78343 c -1.992187,-1.9921894 -4.382812,-1.9921894 -6.375,0 z" display="inline" opacity=".248"/><path id="path4002" fill="none" stroke="#000" stroke-dasharray="none" stroke-linecap="butt" stroke-linejoin="miter" stroke-miterlimit="4" stroke-opacity="1" stroke-width="3.3" d="M 28.875156,11.795876 10.89542,29.874913 c -2.7968474,3.21405 -1.1986481,4.419319 0,4.821077 l 6.392795,2.410538 c 1.198649,0.401756 2.397299,1.607025 0.799099,2.410539 0,0 -2.796848,0.803512 -2.397297,1.607025 0.399548,0.803512 9.189642,4.419319 9.189642,4.419319 0.7991,0.401758 1.19865,1.20527 0.39955,2.008783 0,0 -1.598199,2.008782 -1.198649,2.812294 0.39955,0.803513 3.248787,1.082505 4.395047,2.008783 1.146259,0.926278 0.555653,2.635588 2.397297,3.214051 1.841646,0.578462 6.792344,-1.607026 7.191895,-2.410539 0.39955,-0.803512 -1.598198,-1.607025 -1.19865,-2.812295 0.399551,-1.205269 6.792346,-4.017564 6.792346,-4.017564 1.198648,-0.401755 1.242639,-1.45557 0,-2.410538 l -1.99775,-1.205269 c -0.89741,-0.600129 -1.2869,-1.995989 0.399551,-2.410538 l 10.388292,-4.821077 c 2.397299,-1.20527 2.397299,-3.214051 0,-5.624589 L 35.267951,11.795876 c -1.997748,-2.0087834 -4.395047,-2.0087834 -6.392795,0 z" display="inline" opacity=".11"/></g><g id="layer2" display="inline"><path id="path4236" fill="url(#linearGradient4260)" fill-opacity="1" stroke="none" d="M 28.776213,10.782925 10.846526,28.712612 c -2.789062,3.1875 -1.1953115,4.382812 0,4.78125 l 6.375,2.390625 c 1.195312,0.398437 2.390625,1.59375 0.796875,2.390625 0,0 -2.789063,0.796875 -2.390625,1.59375 0.398437,0.796875 9.164062,4.382812 9.164062,4.382812 0.796875,0.398438 1.195313,1.195313 0.398438,1.992188 0,0 -1.59375,1.992187 -1.195313,2.789062 0.398438,0.796875 3.239744,1.073562 4.382813,1.992188 1.143069,0.918626 0.554107,2.613816 2.390625,3.1875 1.836518,0.573684 6.773437,-1.59375 7.171875,-2.390625 0.398437,-0.796875 -1.59375,-1.59375 -1.195313,-2.789063 0.398438,-1.195312 6.773438,-3.984375 6.773438,-3.984375 1.195312,-0.398437 1.23918,-1.443546 0,-2.390625 l -1.992188,-1.195312 c -0.894914,-0.595172 -1.283319,-1.9795 0.398438,-2.390625 l 10.359375,-4.78125 c 2.390625,-1.195313 2.390625,-3.1875 0,-5.578125 L 35.151213,10.782925 c -1.992187,-1.9921887 -4.382812,-1.9921887 -6.375,0 z" display="inline"/><path id="path4262" fill="url(#linearGradient4264)" fill-opacity="1" stroke="none" d="m 28.03033,15.146447 2,-2.09375 c 1,-1 3,-1 4,0 l 7.6875,7.9375 -3.8125,-1.53125 -0.25,4.5 -2.53125,-3 -3.59375,4.09375 -2.3125,-6.4375 -2.71875,5.15625 -6.59375,0 z"/><path id="path4091" fill="none" stroke="#000" stroke-linecap="butt" stroke-linejoin="miter" stroke-opacity="1" stroke-width="1" d="M 28.776213,10.782925 10.846526,28.712612 c -2.789062,3.1875 -1.1953115,4.382812 0,4.78125 l 6.375,2.390625 c 1.195312,0.398437 2.390625,1.59375 0.796875,2.390625 0,0 -2.789063,0.796875 -2.390625,1.59375 0.398437,0.796875 9.164062,4.382812 9.164062,4.382812 0.796875,0.398438 1.195313,1.195313 0.398438,1.992188 0,0 -1.59375,1.992187 -1.195313,2.789062 0.398438,0.796875 3.239744,1.073562 4.382813,1.992188 1.143069,0.918626 0.554107,2.613816 2.390625,3.1875 1.836518,0.573684 6.773437,-1.59375 7.171875,-2.390625 0.398437,-0.796875 -1.59375,-1.59375 -1.195313,-2.789063 0.398438,-1.195312 6.773438,-3.984375 6.773438,-3.984375 1.195312,-0.398437 1.23918,-1.443546 0,-2.390625 l -1.992188,-1.195312 c -0.894914,-0.595172 -1.283319,-1.9795 0.398438,-2.390625 l 10.359375,-4.78125 c 2.390625,-1.195313 2.390625,-3.1875 0,-5.578125 L 35.151213,10.782925 c -1.992187,-1.9921887 -4.382812,-1.9921887 -6.375,0 z" display="inline"/><path id="path4130" fill="none" stroke="#fff" stroke-dasharray="none" stroke-linecap="butt" stroke-linejoin="miter" stroke-miterlimit="10" stroke-opacity="1" stroke-width="1" d="m 28.03033,15.146447 2,-2.09375 c 1,-1 3,-1 4,0 l 7.6875,7.9375 -3.8125,-1.53125 -0.25,4.5 -2.53125,-3 -3.59375,4.09375 -2.3125,-6.4375 -2.71875,5.15625 -6.59375,0 z"/><rect id="rect4138" width="2" height="2" x="26.94" y="10.221" fill="#fff" stroke="#fff" stroke-dasharray="none" stroke-miterlimit="10" stroke-width="1" transform="matrix(0.70710678,0.70710678,-0.70710678,0.70710678,0,0)"/><rect id="rect4140" width="2" height="2" x="31.348" y="14.527" fill="#fff" stroke="#fff" stroke-dasharray="none" stroke-miterlimit="10" stroke-width="1" transform="matrix(0.70710678,0.70710678,-0.70710678,0.70710678,0,0)"/><rect id="rect4142" width="2" height="2" x="55.473" y="-17.598" fill="#fff" stroke="#fff" stroke-dasharray="none" stroke-miterlimit="10" stroke-width="1" transform="matrix(0.70710678,0.70710678,-0.70710678,0.70710678,0,0)"/><rect id="rect4144" width="2" height="2" x="59.785" y="-12.911" fill="#fff" stroke="#fff" stroke-dasharray="none" stroke-miterlimit="10" stroke-width="1" transform="matrix(0.70710678,0.70710678,-0.70710678,0.70710678,0,0)"/><rect id="rect4146" width="2" height="2" x="56.66" y="-4.036" fill="#fff" stroke="#fff" stroke-dasharray="none" stroke-miterlimit="10" stroke-width="1" transform="matrix(0.70710678,0.70710678,-0.70710678,0.70710678,0,0)"/><rect id="rect4150" width="2" height="2" x="60.535" y="3.339" fill="#fff" stroke="#fff" stroke-dasharray="none" stroke-miterlimit="10" stroke-width="1" transform="matrix(0.70710678,0.70710678,-0.70710678,0.70710678,0,0)"/><rect id="rect4156" width="2" height="2" x="43.785" y="14.464" fill="#fff" stroke="#fff" stroke-dasharray="none" stroke-miterlimit="10" stroke-width="1" transform="matrix(0.70710678,0.70710678,-0.70710678,0.70710678,0,0)"/><rect id="rect4160" width="2" height="2" x="55.598" y="15.277" fill="#fff" stroke="#fff" stroke-dasharray="none" stroke-miterlimit="10" stroke-width="1" transform="matrix(0.70710678,0.70710678,-0.70710678,0.70710678,0,0)"/></g></svg>