<svg xmlns="http://www.w3.org/2000/svg" xmlns:svg="http://www.w3.org/2000/svg" xmlns:xlink="http://www.w3.org/1999/xlink" id="svg4369" width="64" height="64" version="1.1"><defs id="defs4371"><linearGradient id="linearGradient3497" x1="24" x2="24" y1="5" y2="43" gradientTransform="translate(2.4e-6,0.9674485)" gradientUnits="userSpaceOnUse" xlink:href="#linearGradient3924-4"/><linearGradient id="linearGradient3924-4"><stop id="stop3926-8" offset="0" stop-color="#fff" stop-opacity="1"/><stop id="stop3928-6" offset=".063" stop-color="#fff" stop-opacity=".235"/><stop id="stop3930-4" offset=".951" stop-color="#fff" stop-opacity=".157"/><stop id="stop3932-4" offset="1" stop-color="#fff" stop-opacity=".392"/></linearGradient><radialGradient id="radialGradient3351-4" cx="7.806" cy="9.957" r="12.672" fx="7.276" fy="9.957" gradientTransform="matrix(-1.6167311e-7,4.3521892,-8.0922115,-1.30641e-7,102.55944,-28.435087)" gradientUnits="userSpaceOnUse" xlink:href="#linearGradient5344-867-2"/><linearGradient id="linearGradient5344-867-2"><stop id="stop5559-5" offset="0" stop-color="#f9c590" stop-opacity="1"/><stop id="stop5561-3" offset=".397" stop-color="#f19860" stop-opacity="1"/><stop id="stop5563-5" offset="1" stop-color="#ce5d36" stop-opacity="1"/></linearGradient><linearGradient id="linearGradient3353-8" x1="10.72" x2="10.72" y1="49.805" y2="-7.172" gradientTransform="matrix(1,0,0,0.6592363,-2.0048496,11.166876)" gradientUnits="userSpaceOnUse" xlink:href="#linearGradient4288"/><linearGradient id="linearGradient4288"><stop id="stop4290" offset="0" stop-color="#b95b20" stop-opacity="1"/><stop id="stop4292" offset="1" stop-color="#ed8137" stop-opacity="1"/></linearGradient><linearGradient id="linearGradient3357" x1="22.004" x2="22.004" y1="63.218" y2="25.647" gradientTransform="matrix(1.3394176,0,0,-1.9826305,-5.3543326,103.86293)" gradientUnits="userSpaceOnUse" xlink:href="#linearGradient3104-5-6"/><linearGradient id="linearGradient3104-5-6"><stop id="stop3106-9-1" offset="0" stop-color="#aaa" stop-opacity="1"/><stop id="stop3108-9" offset="1" stop-color="#c8c8c8" stop-opacity="1"/></linearGradient><linearGradient id="linearGradient3084" x1="24" x2="24" y1="5" y2="43" gradientTransform="translate(2.4e-6,0.9674487)" gradientUnits="userSpaceOnUse" xlink:href="#linearGradient3924"/><linearGradient id="linearGradient3924"><stop id="stop3926" offset="0" stop-color="#fff" stop-opacity="1"/><stop id="stop3928" offset=".063" stop-color="#fff" stop-opacity=".235"/><stop id="stop3930" offset=".951" stop-color="#fff" stop-opacity=".157"/><stop id="stop3932" offset="1" stop-color="#fff" stop-opacity=".392"/></linearGradient><radialGradient id="radialGradient3093" cx="7.496" cy="8.45" r="20" fx="7.496" fy="8.45" gradientTransform="matrix(0,1.9392804,-2.0515274,-5.2784231e-8,41.335037,-8.486255)" gradientUnits="userSpaceOnUse" xlink:href="#linearGradient3600"/><linearGradient id="linearGradient3600"><stop id="stop3602" offset="0" stop-color="#f4f4f4" stop-opacity="1"/><stop id="stop3604" offset="1" stop-color="#dbdbdb" stop-opacity="1"/></linearGradient><linearGradient id="linearGradient3095" x1="24" x2="24" y1="44" y2="3.899" gradientTransform="translate(-6e-7,0.9674387)" gradientUnits="userSpaceOnUse" xlink:href="#linearGradient3104"/><linearGradient id="linearGradient3104"><stop id="stop3106" offset="0" stop-color="#aaa" stop-opacity="1"/><stop id="stop3108" offset="1" stop-color="#c8c8c8" stop-opacity="1"/></linearGradient><linearGradient id="linearGradient3098" x1="20" x2="20" y1="43" y2="3" gradientUnits="userSpaceOnUse" xlink:href="#linearGradient3104-5"/><linearGradient id="linearGradient3104-5"><stop id="stop3106-9" offset="0" stop-color="#aaa" stop-opacity="1"/><stop id="stop3108-8" offset="1" stop-color="#c8c8c8" stop-opacity="1"/></linearGradient><radialGradient id="radialGradient2873-966-168" cx="4.993" cy="43.5" r="2.5" fx="4.993" fy="43.5" gradientTransform="matrix(2.003784,0,0,1.4,27.98813,-17.4)" gradientUnits="userSpaceOnUse" xlink:href="#linearGradient3688-166-749"/><linearGradient id="linearGradient3688-166-749"><stop id="stop2883" offset="0" stop-color="#181818" stop-opacity="1"/><stop id="stop2885" offset="1" stop-color="#181818" stop-opacity="0"/></linearGradient><radialGradient id="radialGradient2875-742-326" cx="4.993" cy="43.5" r="2.5" fx="4.993" fy="43.5" gradientTransform="matrix(2.003784,0,0,1.4,-20.01187,-104.4)" gradientUnits="userSpaceOnUse" xlink:href="#linearGradient3688-464-309"/><linearGradient id="linearGradient3688-464-309"><stop id="stop2889" offset="0" stop-color="#181818" stop-opacity="1"/><stop id="stop2891" offset="1" stop-color="#181818" stop-opacity="0"/></linearGradient><linearGradient id="linearGradient2877-634-617" x1="25.058" x2="25.058" y1="47.028" y2="39.999" gradientUnits="userSpaceOnUse" xlink:href="#linearGradient3702-501-757"/><linearGradient id="linearGradient3702-501-757"><stop id="stop2895" offset="0" stop-color="#181818" stop-opacity="0"/><stop id="stop2897" offset=".5" stop-color="#181818" stop-opacity="1"/><stop id="stop2899" offset="1" stop-color="#181818" stop-opacity="0"/></linearGradient><radialGradient id="radialGradient3049" cx="7.496" cy="8.45" r="20" fx="7.496" fy="8.45" gradientTransform="matrix(0,1.9392804,-2.0515274,-5.2784231e-8,16.650954,1.1715141)" gradientUnits="userSpaceOnUse" xlink:href="#linearGradient3600"/><linearGradient id="linearGradient3051" x1="24" x2="24" y1="44" y2="3.899" gradientTransform="translate(-24.684083,10.625208)" gradientUnits="userSpaceOnUse" xlink:href="#linearGradient3104"/><radialGradient id="radialGradient3843" cx="7.496" cy="8.45" r="20" fx="7.496" fy="8.45" gradientTransform="matrix(0,1.9392804,-2.0515274,-5.2784231e-8,5.7938109,-9.685629)" gradientUnits="userSpaceOnUse" xlink:href="#linearGradient3600"/><linearGradient id="linearGradient3845" x1="24" x2="24" y1="44" y2="3.899" gradientTransform="translate(-35.541226,-0.2319351)" gradientUnits="userSpaceOnUse" xlink:href="#linearGradient3104"/><radialGradient id="radialGradient3849" cx="7.496" cy="8.45" r="20" fx="7.496" fy="8.45" gradientTransform="matrix(0,1.9392804,-2.0515274,-5.2784231e-8,6.0795252,19.600086)" gradientUnits="userSpaceOnUse" xlink:href="#linearGradient3600"/><linearGradient id="linearGradient3851" x1="24" x2="24" y1="44" y2="3.899" gradientTransform="translate(-35.255512,29.05378)" gradientUnits="userSpaceOnUse" xlink:href="#linearGradient3104"/><radialGradient id="radialGradient3853" cx="7.496" cy="8.45" r="20" fx="7.496" fy="8.45" gradientTransform="matrix(1.3712783,1.3712783,-1.450649,1.4506489,12.602388,-10.945617)" gradientUnits="userSpaceOnUse" xlink:href="#linearGradient3600"/><linearGradient id="linearGradient3855" x1="24" x2="24" y1="44" y2="3.899" gradientTransform="matrix(0.70710678,-0.70710678,0.70710678,0.70710678,-9.9411258,24.967439)" gradientUnits="userSpaceOnUse" xlink:href="#linearGradient3104"/><radialGradient id="radialGradient3858" cx="7.496" cy="8.45" r="20" fx="7.496" fy="8.45" gradientTransform="matrix(0,1.9392804,-2.0515274,-5.2784231e-8,41.335037,-8.486255)" gradientUnits="userSpaceOnUse" xlink:href="#linearGradient3600"/><linearGradient id="linearGradient3860" x1="24" x2="24" y1="44" y2="3.899" gradientTransform="translate(-6e-7,0.9674387)" gradientUnits="userSpaceOnUse" xlink:href="#linearGradient3104"/><radialGradient id="radialGradient3863" cx="7.496" cy="8.45" r="20" fx="7.496" fy="8.45" gradientTransform="matrix(0,1.9392804,-2.0515274,-5.2784231e-8,-0.20618885,-15.685629)" gradientUnits="userSpaceOnUse" xlink:href="#linearGradient3600"/><linearGradient id="linearGradient3865" x1="24" x2="24" y1="44" y2="3.899" gradientTransform="translate(-41.541226,-6.2319348)" gradientUnits="userSpaceOnUse" xlink:href="#linearGradient3104"/><linearGradient id="linearGradient3867" x1="24" x2="24" y1="44" y2="3.899" gradientTransform="translate(-6e-7,0.9674387)" gradientUnits="userSpaceOnUse" xlink:href="#linearGradient4288"/><radialGradient id="radialGradient3869" cx="7.496" cy="3.594" r="20" fx="7.496" fy="3.594" gradientTransform="matrix(0,0.96050202,-1.7450426,0,40.233518,-1.1496425)" gradientUnits="userSpaceOnUse" xlink:href="#linearGradient5344-867-2"/></defs><metadata id="metadata4374"/><g id="layer1" transform="translate(0,16)"><g id="g3871" stroke-dasharray="none" stroke-miterlimit="4" stroke-width=".733" transform="matrix(1.3636358,0,0,1.3636358,-0.72727164,-16.120093)"><g id="g2036" stroke-dasharray="none" stroke-miterlimit="4" stroke-width="1.049" display="inline" transform="matrix(1.1,0,0,0.4444449,-2.4000022,25.11107)"><g id="g3712" stroke-dasharray="none" stroke-miterlimit="4" stroke-width=".902" opacity=".4" transform="matrix(1.052632,0,0,1.285713,-1.263158,-13.42854)"><rect id="rect2801" width="5" height="7" x="38" y="40" fill="url(#radialGradient2873-966-168)" fill-opacity="1" stroke="none"/><rect id="rect3696" width="5" height="7" x="-10" y="-47" fill="url(#radialGradient2875-742-326)" fill-opacity="1" stroke="none" transform="scale(-1,-1)"/><rect id="rect3700" width="28" height="7" x="10" y="40" fill="url(#linearGradient2877-634-617)" fill-opacity="1" stroke="none"/></g></g><path id="path4564-0" fill="url(#linearGradient3098)" fill-opacity="1" fill-rule="nonzero" stroke="none" stroke-width=".733" d="m 22.96875,8.1874998 a 2.9359229,2.9359229 0 0 0 -1.40625,0.40625 L 10.53125,14.96875 A 2.9359229,2.9359229 0 0 0 9.125,17 2.9359229,2.9359229 0 0 0 9.09375,17 2.9359229,2.9359229 0 0 0 8.125,19.1875 L 8.0625,31.90625 a 2.9359229,2.9359229 0 0 0 1,2.1875 2.9359229,2.9359229 0 0 0 0,0.03125 2.9359229,2.9359229 0 0 0 1.4375,2.09375 l 11,6.3125 a 2.9359229,2.9359229 0 0 0 2.40625,0.21875 2.9359229,2.9359229 0 0 0 0.03125,0 2.9359229,2.9359229 0 0 0 2.5,-0.1875 l 11,-6.34375 a 2.9359229,2.9359229 0 0 0 1.40625,-2 2.9359229,2.9359229 0 0 0 1.09375,-2.25 l 0,-12.71875 a 2.9359229,2.9359229 0 0 0 -1,-2.1875 A 2.9359229,2.9359229 0 0 0 37.5,14.96875 L 26.46875,8.6249998 a 2.9359229,2.9359229 0 0 0 -2.40625,-0.25 2.9359229,2.9359229 0 0 0 -1.09375,-0.1875 z" color="#000" display="inline" enable-background="accumulate" opacity=".05" overflow="visible" visibility="visible" style="marker:none"/><rect stroke-linejoin="round" style="marker:none" id="rect5505-21" width="39" height="39" x="4.5" y="5.467" fill="url(#radialGradient3093)" fill-opacity="1" fill-rule="nonzero" stroke="url(#linearGradient3095)" stroke-dasharray="none" stroke-dashoffset="0" stroke-linecap="round" stroke-miterlimit="4" stroke-opacity="1" stroke-width=".733" color="#000" display="inline" enable-background="accumulate" overflow="visible" rx="2" ry="2" visibility="visible"/><g id="g3916" stroke-dasharray="none" stroke-miterlimit="4" stroke-width=".642" transform="matrix(1.1415362,0,0,1.1415362,-3.5279416,-9.516111)"><path id="path3035-5" fill="#fff" fill-opacity="1" fill-rule="nonzero" stroke="none" stroke-width=".409" d="m 34.750034,25.812805 a 3.8794575,3.8794575 0 1 1 -2.052187,-3.422173 l -1.82727,3.422173 z" color="#000" display="inline" enable-background="accumulate" opacity=".4" overflow="visible" transform="matrix(1.57008,0,0,1.57008,-16.477866,-6.8527053)" visibility="visible" style="marker:none"/><path id="path3035" fill="#000" fill-opacity="1" fill-rule="nonzero" stroke="none" stroke-width=".409" d="m 34.750034,25.812805 a 3.8794575,3.8794575 0 1 1 -2.052187,-3.422173 l -1.82727,3.422173 z" color="#000" display="inline" enable-background="accumulate" opacity=".15" overflow="visible" transform="matrix(1.57008,0,0,1.57008,-16.477866,-7.6014805)" visibility="visible" style="marker:none"/></g><path id="path3475-4" fill="url(#linearGradient3357)" fill-opacity="1" stroke="none" stroke-width=".733" d="m 13,34 0,-1 2.21875,0 0,1 z m 2.65625,0 0,-1 L 22,33 22,34 z M 13,30 l 0,-1 2.96875,0 0,1 z m 3.71875,0 0,-1 2.34375,0 0,1 z m 2.9375,0 0,-1 1.1875,0 0,1 z m 1.8125,0 0,-1 2.15625,0 0,1 z M 13,26 l 0,-1 3.28125,0 0,1 z m 3.875,0 0,-1 1.65625,0 0,1 z m 2.21875,0 0,-1 3.71875,0 0,1 z M 13,22 l 0,-1 3.28125,0 0,1 z m 3.90625,0 0,-1 2.34375,0 0,1 z m 2.9375,0 0,-1 3.6875,0 0,1 z" baseline-shift="baseline" color="#000" direction="ltr" display="inline" enable-background="accumulate" font-family="Sans" font-size="medium" font-stretch="normal" font-style="normal" font-variant="normal" font-weight="normal" letter-spacing="normal" overflow="visible" text-anchor="start" text-decoration="none" visibility="visible" word-spacing="normal" writing-mode="lr-tb" style="text-indent:0;text-align:start;line-height:normal;text-transform:none;block-progression:tb;marker:none;-inkscape-font-specification:Sans"/><path font-stretch="normal" style="text-indent:0;text-align:start;line-height:normal;text-transform:none;block-progression:tb;marker:none;-inkscape-font-specification:Sans" id="path3475" fill="#000" fill-opacity="1" stroke="none" stroke-width=".733" d="m 18.25,16 0,1 5.734375,0 0,-1 z m 6.390625,0 0,1 2.640625,0 0,-1 z M 28,16 l 0,1 3.75,0 0,-1 z" baseline-shift="baseline" color="#000" direction="ltr" display="inline" enable-background="accumulate" font-family="Sans" font-size="medium" font-style="normal" font-variant="normal" font-weight="normal" letter-spacing="normal" opacity=".28" overflow="visible" text-anchor="start" text-decoration="none" visibility="visible" word-spacing="normal" writing-mode="lr-tb"/><path id="rect5505-21-0" fill="url(#radialGradient3351-4)" fill-opacity="1" fill-rule="nonzero" stroke="url(#linearGradient3353-8)" stroke-dasharray="none" stroke-dashoffset="0" stroke-linecap="butt" stroke-linejoin="round" stroke-miterlimit="4" stroke-opacity="1" stroke-width=".733" d="m 10,5.4999998 c 0,0 -3.1003072,-0.03125 -3.5,-0.03125 -1.108,0 -2,0.892 -2,2 l 0,35.0000002 c 0,1.108 0.892,2 2,2 l 3.5,0" color="#000" display="inline" enable-background="accumulate" overflow="visible" visibility="visible" style="marker:none"/><path id="rect3839" fill="url(#radialGradient3869)" fill-opacity="1" fill-rule="nonzero" stroke="url(#linearGradient3867)" stroke-dasharray="none" stroke-dashoffset="0" stroke-linecap="round" stroke-linejoin="round" stroke-miterlimit="4" stroke-opacity="1" stroke-width=".733" d="m 32.0625,5.46875 11.4375,11.4375 0,-9.4375 c 0,-1.108 -0.892,-2 -2,-2 l -9.4375,0 z" color="#000" display="inline" enable-background="accumulate" overflow="visible" visibility="visible" style="marker:none"/><rect id="rect6741-2-5" width="37.534" height="37.534" x="5.235" y="6.202" fill="none" stroke="url(#linearGradient3497)" stroke-dasharray="none" stroke-dashoffset="0" stroke-linecap="round" stroke-linejoin="round" stroke-miterlimit="4" stroke-opacity="1" stroke-width=".733" opacity=".4" rx="1.255" ry="1.255"/></g></g></svg>