<svg xmlns="http://www.w3.org/2000/svg" xmlns:svg="http://www.w3.org/2000/svg" xmlns:xlink="http://www.w3.org/1999/xlink" id="svg6333" width="64" height="64" version="1.1"><defs id="defs6335"><linearGradient id="linearGradient5809" x1="167.983" x2="167.983" y1="8.508" y2="54.78" gradientTransform="translate(-130,1.759402e-6)" gradientUnits="userSpaceOnUse" xlink:href="#linearGradient5803"/><linearGradient id="linearGradient5803"><stop id="stop5805" offset="0" stop-color="#fff5ef" stop-opacity="1"/><stop id="stop5807" offset="1" stop-color="#fef8dd" stop-opacity="1"/></linearGradient><linearGradient id="linearGradient5801" x1="27.096" x2="27.096" y1="10.881" y2="39.151" gradientTransform="matrix(1.4102564,0,0,1.4102564,0.391129,-2.2559982)" gradientUnits="userSpaceOnUse" xlink:href="#linearGradient3895-9-0-3-5-2-0-4-9"/><linearGradient id="linearGradient3895-9-0-3-5-2-0-4-9"><stop id="stop3897-0-5-7-89-6-6-7-0" offset="0" stop-color="#dc5639" stop-opacity="1"/><stop id="stop3899-8-7-06-3-8-3-8-0" offset="1" stop-color="#9d0f0f" stop-opacity="1"/></linearGradient><linearGradient id="linearGradient3381-5-4" x1="24" x2="24" y1="5" y2="43" gradientTransform="matrix(1.4324324,0,0,1.4362832,-2.378381,-2.4707782)" gradientUnits="userSpaceOnUse" xlink:href="#linearGradient3924-2-2-5-8"/><linearGradient id="linearGradient3924-2-2-5-8"><stop id="stop3926-9-4-9-6" offset="0" stop-color="#fff" stop-opacity="1"/><stop id="stop3928-9-8-6-5" offset=".063" stop-color="#fff" stop-opacity=".235"/><stop id="stop3930-3-5-1-7" offset=".951" stop-color="#fff" stop-opacity=".157"/><stop id="stop3932-8-0-4-8" offset="1" stop-color="#fff" stop-opacity=".392"/></linearGradient><radialGradient id="radialGradient3402-7-1-6" cx="6.73" cy="9.957" r="12.672" fx="6.2" fy="9.957" gradientTransform="matrix(0,13.393984,-16.443533,0,196.90205,-114.89368)" gradientUnits="userSpaceOnUse" xlink:href="#linearGradient2867-449-88-871-390-598-476-591-434-148-57-177-8-3-3-6-4-8-8-8"/><linearGradient id="linearGradient2867-449-88-871-390-598-476-591-434-148-57-177-8-3-3-6-4-8-8-8"><stop id="stop3750-1-0-7-6-6-1-3-9" offset="0" stop-color="#bebebe" stop-opacity="1"/><stop id="stop3752-3-7-4-0-32-8-923-0" offset=".262" stop-color="#999" stop-opacity="1"/><stop id="stop3754-1-8-5-2-7-6-7-1" offset=".705" stop-color="#787878" stop-opacity="1"/><stop id="stop3756-1-6-2-6-6-1-96-6" offset="1" stop-color="#666" stop-opacity="1"/></linearGradient><radialGradient id="radialGradient3337-2-2" cx="4.993" cy="43.5" r="2.5" fx="4.993" fy="43.5" gradientTransform="matrix(2.003784,0,0,1.4,27.98813,-17.4)" gradientUnits="userSpaceOnUse" xlink:href="#linearGradient3688-166-749-4-0-3-8"/><linearGradient id="linearGradient3688-166-749-4-0-3-8"><stop id="stop2883-4-0-1-8" offset="0" stop-color="#181818" stop-opacity="1"/><stop id="stop2885-9-2-9-6" offset="1" stop-color="#181818" stop-opacity="0"/></linearGradient><radialGradient id="radialGradient3339-1-4" cx="4.993" cy="43.5" r="2.5" fx="4.993" fy="43.5" gradientTransform="matrix(2.003784,0,0,1.4,-20.01187,-104.4)" gradientUnits="userSpaceOnUse" xlink:href="#linearGradient3688-464-309-9-2-4-2"/><linearGradient id="linearGradient3688-464-309-9-2-4-2"><stop id="stop2889-7-9-6-9" offset="0" stop-color="#181818" stop-opacity="1"/><stop id="stop2891-6-6-1-7" offset="1" stop-color="#181818" stop-opacity="0"/></linearGradient><linearGradient id="linearGradient3702-501-757-8-4-1-1"><stop id="stop2895-8-9-9-1" offset="0" stop-color="#181818" stop-opacity="0"/><stop id="stop2897-7-8-7-7" offset=".5" stop-color="#181818" stop-opacity="1"/><stop id="stop2899-4-5-1-5" offset="1" stop-color="#181818" stop-opacity="0"/></linearGradient><linearGradient id="linearGradient6394" x1="25.058" x2="25.058" y1="47.028" y2="39.999" gradientUnits="userSpaceOnUse" xlink:href="#linearGradient3702-501-757-8-4-1-1"/><linearGradient id="linearGradient3045" x1="24" x2="24" y1="5" y2="43" gradientTransform="matrix(1.4324324,0,0,1.4362832,-75.327587,-0.50891525)" gradientUnits="userSpaceOnUse" xlink:href="#linearGradient3924-2-2-5-8-8"/><linearGradient id="linearGradient3924-2-2-5-8-8"><stop id="stop3926-9-4-9-6-4" offset="0" stop-color="#fff" stop-opacity="1"/><stop id="stop3928-9-8-6-5-1" offset=".063" stop-color="#fff" stop-opacity=".235"/><stop id="stop3930-3-5-1-7-2" offset=".951" stop-color="#fff" stop-opacity=".157"/><stop id="stop3932-8-0-4-8-4" offset="1" stop-color="#fff" stop-opacity=".392"/></linearGradient><radialGradient id="radialGradient3048" cx="28.268" cy="7.594" r="25" fx="28.268" fy="7.594" gradientTransform="matrix(-1.0366448e-8,2.1654584,-2.3093481,-1.1055274e-8,45.608689,-55.499582)" gradientUnits="userSpaceOnUse" xlink:href="#linearGradient3833"/><linearGradient id="linearGradient3833"><stop id="stop3835" offset="0" stop-color="#96d625" stop-opacity="1"/><stop id="stop3841" offset=".5" stop-color="#97eb00" stop-opacity="1"/><stop id="stop3843" offset=".75" stop-color="#87d200" stop-opacity="1"/><stop id="stop3837" offset="1" stop-color="#6eab00" stop-opacity="1"/></linearGradient><radialGradient id="radialGradient3051" cx="6.73" cy="9.957" r="12.672" fx="6.2" fy="9.957" gradientTransform="matrix(0,13.393984,-16.443533,0,123.95285,-112.93181)" gradientUnits="userSpaceOnUse" xlink:href="#linearGradient2867-449-88-871-390-598-476-591-434-148-57-177-8-3-3-6-4-8-8-8-4"/><linearGradient id="linearGradient2867-449-88-871-390-598-476-591-434-148-57-177-8-3-3-6-4-8-8-8-4"><stop id="stop3750-1-0-7-6-6-1-3-9-7" offset="0" stop-color="#505050" stop-opacity="1"/><stop id="stop3752-3-7-4-0-32-8-923-0-7" offset=".262" stop-color="#3c3c3c" stop-opacity="1"/><stop id="stop3754-1-8-5-2-7-6-7-1-5" offset=".705" stop-color="#282828" stop-opacity="1"/><stop id="stop3756-1-6-2-6-6-1-96-6-2" offset="1" stop-color="#141414" stop-opacity="1"/></linearGradient><radialGradient id="radialGradient3337-2-2-4" cx="4.993" cy="43.5" r="2.5" fx="4.993" fy="43.5" gradientTransform="matrix(2.003784,0,0,1.4,27.98813,-17.4)" gradientUnits="userSpaceOnUse" xlink:href="#linearGradient3688-166-749-4-0-3-8-7"/><linearGradient id="linearGradient3688-166-749-4-0-3-8-7"><stop id="stop2883-4-0-1-8-2" offset="0" stop-color="#181818" stop-opacity="1"/><stop id="stop2885-9-2-9-6-0" offset="1" stop-color="#181818" stop-opacity="0"/></linearGradient><radialGradient id="radialGradient3339-1-4-7" cx="4.993" cy="43.5" r="2.5" fx="4.993" fy="43.5" gradientTransform="matrix(2.003784,0,0,1.4,-20.01187,-104.4)" gradientUnits="userSpaceOnUse" xlink:href="#linearGradient3688-464-309-9-2-4-2-7"/><linearGradient id="linearGradient3688-464-309-9-2-4-2-7"><stop id="stop2889-7-9-6-9-0" offset="0" stop-color="#181818" stop-opacity="1"/><stop id="stop2891-6-6-1-7-0" offset="1" stop-color="#181818" stop-opacity="0"/></linearGradient><linearGradient id="linearGradient6394-3" x1="25.058" x2="25.058" y1="47.028" y2="39.999" gradientUnits="userSpaceOnUse" xlink:href="#linearGradient3702-501-757-8-4-1-1-0"/><linearGradient id="linearGradient3702-501-757-8-4-1-1-0"><stop id="stop2895-8-9-9-1-3" offset="0" stop-color="#181818" stop-opacity="0"/><stop id="stop2897-7-8-7-7-7" offset=".5" stop-color="#181818" stop-opacity="1"/><stop id="stop2899-4-5-1-5-2" offset="1" stop-color="#181818" stop-opacity="0"/></linearGradient><linearGradient id="linearGradient3874" x1="25.058" x2="25.058" y1="47.028" y2="39.999" gradientUnits="userSpaceOnUse" xlink:href="#linearGradient3702-501-757-8-4-1-1-0"/><radialGradient id="radialGradient3133" cx="28.268" cy="7.594" r="25" fx="28.268" fy="7.594" gradientTransform="matrix(-1.0366448e-8,2.1654584,-2.3093481,-1.1055274e-8,45.812079,-56.075853)" gradientUnits="userSpaceOnUse" xlink:href="#linearGradient3833"/><radialGradient id="radialGradient3903" cx="6.73" cy="9.957" r="12.672" fx="6.2" fy="9.957" gradientTransform="matrix(0,13.393984,-16.443533,0,196.90205,-114.89368)" gradientUnits="userSpaceOnUse" xlink:href="#linearGradient2867-449-88-871-390-598-476-591-434-148-57-177-8-3-3-6-4-8-8-8-4"/><linearGradient id="linearGradient3907" x1="24" x2="24" y1="5" y2="43" gradientTransform="matrix(1.4324324,0,0,1.4362832,-2.378381,-2.4707782)" gradientUnits="userSpaceOnUse" xlink:href="#linearGradient3924-2-2-5-8"/><radialGradient id="radialGradient3910" cx="6.73" cy="9.957" r="12.672" fx="6.2" fy="9.957" gradientTransform="matrix(0,13.393984,-16.443533,0,196.90205,-114.89368)" gradientUnits="userSpaceOnUse" xlink:href="#linearGradient2867-449-88-871-390-598-476-591-434-148-57-177-8-3-3-6-4-8-8-8-4"/></defs><metadata id="metadata6338"/><g id="g3916"><g id="g3712-8-2-4-4" opacity=".6" transform="matrix(1.5789502,0,0,0.7142857,-5.894751,27.928572)"><rect id="rect2801-5-5-7-9" width="5" height="7" x="38" y="40" fill="url(#radialGradient3337-2-2)" fill-opacity="1" stroke="none"/><rect id="rect3696-3-0-3-7" width="5" height="7" x="-10" y="-47" fill="url(#radialGradient3339-1-4)" fill-opacity="1" stroke="none" transform="scale(-1,-1)"/><rect id="rect3700-5-6-8-4" width="28" height="7" x="10" y="40" fill="url(#linearGradient6394)" fill-opacity="1" stroke="none"/></g><rect id="rect5505-21-3-8-5-2" width="55" height="55" x="4.5" y="4.5" fill="url(#radialGradient3910)" fill-opacity="1" fill-rule="nonzero" stroke="none" stroke-width="1" color="#000" display="inline" enable-background="accumulate" overflow="visible" rx="3" ry="3" visibility="visible" style="marker:none"/><path id="path21" fill="url(#radialGradient3133)" fill-opacity="1" d="m 28.162185,4.483132 0,14.78125 c 0.293493,-0.0225 0.579901,-0.0212 0.875,-0.03125 11.366454,-0.383087 18.781254,9.3125 18.781254,9.3125 0,0 -8.51318,10.34375 -17.375004,10.34375 -0.812176,0 -1.567105,-0.0922 -2.28125,-0.21875 l 0,2.78125 c 0.610689,0.07758 1.24554,0.125 1.90625,0.125 8.246514,0 14.194114,-4.2342 19.968754,-9.21875 0.95741,0.766775 4.88175,2.65215 5.6875,3.46875 -5.49059,4.596842 -18.27671,8.28125 -25.531254,8.28125 -0.69928,0 -1.371143,-0.0301 -2.03125,-0.09375 l 0,15.46875 28.343754,0 c 1.662,0 2.999999,-1.338 2.999999,-3 l 0,-48.9999997 c 0,-1.6620003 -1.337999,-3.0000003 -2.999999,-3.0000003 l -28.343754,0 z m 0,39.53125 0,-2.5625 c -10.091845,-1.269591 -13.5625,-12.40625 -13.5625,-12.40625 0,0 4.536147,-6.653711 13.5625,-7.34375 l 0,-2.4375 c -9.997831,0.802937 -18.6562509,9.28125 -18.6562509,9.28125 0,0 4.9042869,14.170834 18.6562509,15.46875 z m 0,-22.3125 0,2.96875 c 0.534755,-0.05725 1.087144,-0.09395 1.65625,-0.09375 5.235654,0 8.343754,4.09375 8.343754,4.09375 l -4.25,3.5625 c -1.913029,-3.189047 -2.56799,-4.584257 -5.750004,-4.96875 l 0,9.0625 c 0.721176,0.242466 1.512514,0.375 2.40625,0.375 6.210144,0 12.000004,-8.03125 12.000004,-8.03125 0,0 -5.35766,-7.287981 -13.531254,-7.03125 -0.298915,0.0094 -0.584521,0.04221 -0.875,0.0625 z m 0,14.625 c -4.299937,-1.444767 -5.6875,-6.46875 -5.6875,-6.46875 0,0 2.495241,-2.976837 5.6875,-2.59375 l 0,-2.59375 c -6.082186,0.657898 -9.75,4.71875 -9.75,4.71875 0,0 2.12281,7.921459 9.75,9.28125 l 0,-2.34375 z" clip-path="none"/><rect id="rect6741-5-0-2-3" width="53" height="53.142" x="5.5" y="5.429" fill="none" stroke="url(#linearGradient3907)" stroke-dasharray="none" stroke-dashoffset="0" stroke-linecap="round" stroke-linejoin="round" stroke-miterlimit="4" stroke-opacity="1" stroke-width="1" opacity=".5" rx="2" ry="2"/><rect id="rect5505-21-3-8-9-1-1" width="55" height="55" x="4.5" y="4.5" fill="none" stroke="#000" stroke-dasharray="none" stroke-dashoffset="0" stroke-linecap="round" stroke-linejoin="round" stroke-miterlimit="4" stroke-opacity="1" stroke-width="1" color="#000" display="inline" enable-background="accumulate" opacity=".7" overflow="visible" rx="3" ry="3" visibility="visible" style="marker:none"/></g></svg>