<svg xmlns="http://www.w3.org/2000/svg" xmlns:svg="http://www.w3.org/2000/svg" xmlns:xlink="http://www.w3.org/1999/xlink" id="svg3996" width="64" height="64" version="1.1"><defs id="defs3998"><linearGradient id="linearGradient6784-9" x1="132.341" x2="132.341" y1="2.292" y2="33.333" gradientTransform="matrix(1.1891887,0,0,1.4107063,-126.14094,-11.842585)" gradientUnits="userSpaceOnUse" xlink:href="#linearGradient6786-4"/><linearGradient id="linearGradient6786-4"><stop id="stop6788-2" offset="0" stop-color="#fff" stop-opacity="1"/><stop id="stop6790-0" offset=".464" stop-color="#fff" stop-opacity=".235"/><stop id="stop6792-0" offset=".762" stop-color="#fff" stop-opacity=".157"/><stop id="stop6794-4" offset="1" stop-color="#fff" stop-opacity=".392"/></linearGradient><linearGradient id="linearGradient6883" x1="22.643" x2="22.643" y1="26.967" y2="30.984" gradientTransform="matrix(1.23944,0,0,1.2401758,2.5038689,6.6210943)" gradientUnits="userSpaceOnUse" xlink:href="#linearGradient3922"/><linearGradient id="linearGradient3922"><stop id="stop3924" offset="0" stop-color="#000" stop-opacity="1"/><stop id="stop3926-9" offset="1" stop-color="#000" stop-opacity="0"/></linearGradient><linearGradient id="linearGradient6886" x1="22.643" x2="22.643" y1="26.967" y2="30.984" gradientTransform="matrix(1.3333351,0,0,1.3333351,0.0846107,3.459921)" gradientUnits="userSpaceOnUse" xlink:href="#linearGradient3922"/><linearGradient id="linearGradient3394-3" x1="-51.786" x2="-51.786" y1="53.514" y2="3.634" gradientTransform="matrix(1.0700435,0,0,1.1244505,78.923391,-1.102116)" gradientUnits="userSpaceOnUse" xlink:href="#linearGradient3104-8-8-97-9"/><linearGradient id="linearGradient3104-8-8-97-9"><stop id="stop3106-5-4-3-6" offset="0" stop-color="#000" stop-opacity=".322"/><stop id="stop3108-4-3-7-0" offset="1" stop-color="#000" stop-opacity=".278"/></linearGradient><linearGradient id="linearGradient6654-1" x1="-60.961" x2="-60.914" y1="28.234" y2="104.842" gradientTransform="matrix(0.58378914,3.5977471e-4,-3.5543764e-4,0.59091266,61.565019,-10.157046)" gradientUnits="userSpaceOnUse" xlink:href="#linearGradient3600-8-3"/><linearGradient id="linearGradient3600-8-3"><stop id="stop3828-7-6" offset="0" stop-color="#f4f4f4" stop-opacity="1"/><stop id="stop3604-2-5" offset="1" stop-color="#dbdbdb" stop-opacity="1"/></linearGradient><linearGradient id="linearGradient8838-561-565"><stop id="stop4621" offset="0" stop-color="#0a0a0a" stop-opacity="1"/><stop id="stop4623" offset="1" stop-color="#0a0a0a" stop-opacity="0"/></linearGradient><radialGradient id="radialGradient3994" cx="62.625" cy="4.625" r="10.625" fx="62.625" fy="4.625" gradientTransform="matrix(2.8862785,0,0,1.0039217,-148.75315,46.023509)" gradientUnits="userSpaceOnUse" xlink:href="#linearGradient8838-561-565"/></defs><metadata id="metadata4001"/><g id="layer1"><path id="path8836" fill="url(#radialGradient3994)" fill-opacity="1" fill-rule="evenodd" stroke="none" stroke-width="1" d="m 62.666741,50.666652 c 0,5.891046 -13.729954,10.666683 -30.66671,10.666683 -16.936757,0 -30.6667092,-4.775637 -30.6667092,-10.666683 0,-5.891044 13.7299522,-10.666681 30.6667092,-10.666681 16.936756,0 30.66671,4.775637 30.66671,10.666681 l 0,0 z" display="inline" opacity=".2" overflow="visible" visibility="visible" style="marker:none"/><path d="M 31.953959,6.0176921 C 22.11094,6.3912253 11.858853,10.954952 6.6522526,19.807041 2.7643421,26.136454 3.1646994,34.803814 7.762162,40.649074 c 1.6609601,2.342783 3.941288,4.127204 6.196705,5.803354 1.062471,3.385799 -1.257328,6.624648 -3.206089,9.174322 1.245973,0.518293 4.719469,-0.71692 6.72656,-1.498878 2.40723,-0.927943 4.602881,-2.355586 6.805215,-3.653278 11.107724,2.154163 23.661234,-1.236146 31.066302,-10.255237 4.76862,-5.586768 6.200744,-14.078121 2.731322,-20.717984 C 53.695177,10.849568 43.974632,6.4213387 34.749014,6.0408042 33.818027,6.0017872 32.885388,5.9842212 31.953959,6.0176922 z" style="marker:none" id="path6603" fill="url(#linearGradient6654-1)" fill-opacity="1" fill-rule="nonzero" stroke="none" stroke-width=".985" color="#000" display="inline" enable-background="accumulate" overflow="visible" visibility="visible"/><path id="path4111-6" fill="none" stroke="url(#linearGradient3394-3)" stroke-dasharray="none" stroke-dashoffset="0" stroke-linecap="butt" stroke-linejoin="round" stroke-miterlimit="4" stroke-opacity="1" stroke-width="1" d="M 31.924848,5.510881 C 31.197645,5.538971 30.48112,5.593951 29.745382,5.664212 14.049225,7.1630707 2.3392165,18.653416 3.5917743,31.268994 4.2170812,37.566965 7.9728583,42.958826 13.512108,46.6012 l 0,0.153336 c 0,0 1.723663,2.967939 -4.133472,9.582629 0,0 6.343146,0.401927 14.955654,-5.442933 3.14846,0.61244 6.471137,0.789331 9.920332,0.459968 C 49.950803,49.855349 61.660766,38.441659 60.408228,25.826074 59.273103,14.393206 47.912601,5.883551 34.104316,5.510904 c -0.714216,-0.01937 -1.45229,-0.02808 -2.179468,0 z" color="#000" display="inline" enable-background="accumulate" overflow="visible" visibility="visible" style="marker:none"/><path font-stretch="normal" style="text-align:start;line-height:125%" id="path3925" fill="#fff" fill-opacity="1" stroke="none" d="m 30.40625,15.21875 c -1.248348,0.08633 -2.371371,1.049708 -2.40625,2.0625 5.04e-4,0.01388 5.04e-4,0.01737 0,0.03125 -0.0076,0.09436 0.0088,0.24475 0.03125,0.4375 0.0023,0.01911 -0.0023,0.01082 0,0.03125 1.301034,6.140755 1.765199,12.313766 3.0625,18.34375 0.786543,-0.08408 1.987798,-0.255734 2.8125,-0.34375 -0.178719,-5.95054 -0.709687,-11.862016 -0.78125,-17.875 -5.02e-4,-0.01388 -5.02e-4,-0.01737 0,-0.03125 0.117627,-1.170842 -0.670405,-2.49307 -2.125,-2.625 -0.01388,5.03e-4 -0.01736,5.03e-4 -0.03125,0 -0.180033,-0.02579 -0.384165,-0.04358 -0.5625,-0.03125 z M 33.5,41 C 32.119288,41 31,42.119288 31,43.5 31,44.880712 32.119288,46 33.5,46 34.880712,46 36,44.880712 36,43.5 36,42.119288 34.880712,41 33.5,41 z" font-family="Georgia" font-size="62.458" font-style="normal" font-variant="normal" font-weight="normal" text-anchor="start" writing-mode="lr-tb"/><path font-stretch="normal" style="text-align:start;line-height:125%" id="path3134" fill="gray" fill-opacity="1" stroke="none" d="M 30.40625,14 C 29.157902,14.08633 28.034879,15.049709 28,16.0625 c 5.04e-4,0.01388 5.04e-4,0.04862 0,0.0625 -0.0076,0.09436 0.0088,0.2135 0.03125,0.40625 0.0023,0.01911 -0.0023,0.01082 0,0.03125 1.301034,6.140755 1.765199,12.313765 3.0625,18.34375 0.786543,-0.08409 1.987798,-0.255736 2.8125,-0.34375 -0.178719,-5.95054 -0.709687,-11.862016 -0.78125,-17.875 -5.02e-4,-0.01388 -5.02e-4,-0.01737 0,-0.03125 0.117627,-1.170842 -0.670405,-2.49307 -2.125,-2.625 -0.01388,5.03e-4 -0.01736,5.03e-4 -0.03125,0 C 30.788717,14.005458 30.584585,13.987667 30.40625,14 z M 33.5,40 C 32.119288,40 31,41.119288 31,42.5 31,43.880712 32.119288,45 33.5,45 34.880712,45 36,43.880712 36,42.5 36,41.119288 34.880712,40 33.5,40 z" font-family="Georgia" font-size="62.458" font-style="normal" font-variant="normal" font-weight="normal" text-anchor="start" writing-mode="lr-tb"/><path id="path3935" fill="#fff" fill-opacity="1" stroke="url(#linearGradient6886)" stroke-opacity="1" stroke-width="1" d="m 30.87632,14.626604 c -0.950844,-0.118574 -2.282636,0.513957 -2.278493,1.58439 0.632186,3.293575 1.172703,6.60984 1.634507,9.934091 0.395228,2.710881 0.797859,5.422751 1.35232,8.106545 0.860857,-0.10552 2.100453,0.12304 1.67435,-1.10927 C 33.030662,27.470844 32.590741,21.803956 32.52539,16.128607 32.40811,15.322242 31.713783,14.623519 30.87632,14.626604 z" font-family="Georgia" font-size="62.458" font-stretch="normal" font-style="normal" font-variant="normal" font-weight="normal" opacity=".07" text-anchor="start" writing-mode="lr-tb" style="text-align:start;line-height:125%"/><path id="path3920" fill="#fff" fill-opacity="1" stroke="url(#linearGradient6883)" stroke-opacity="1" stroke-width="1" d="m 33.683533,40.532152 c -1.700178,-0.338612 -2.894132,2.082186 -1.70221,3.273893 0.858989,0.992831 2.73931,0.958539 3.272892,-0.350969 0.65505,-1.137061 -0.06933,-2.654083 -1.344218,-2.887873 l -0.226464,-0.03505 z" font-family="Georgia" font-size="62.458" font-stretch="normal" font-style="normal" font-variant="normal" font-weight="normal" opacity=".1" text-anchor="start" writing-mode="lr-tb" style="text-align:start;line-height:125%"/><path id="path3089" fill="none" stroke="url(#linearGradient6784-9)" stroke-dasharray="none" stroke-dashoffset="0" stroke-linecap="round" stroke-linejoin="miter" stroke-miterlimit="4" stroke-opacity="1" stroke-width="1" d="m 31.96875,-9.5 c -0.699984,0.027039 -1.399306,0.086948 -2.125,0.15625 C 14.580767,-7.8862557 3.4073144,3.2378956 4.59375,15.1875 5.1860014,21.152543 8.6953693,26.241353 14.03125,29.75 A 0.99494797,0.99494797 0 0 1 14.5,30.59375 c 0.0036,0.0085 -0.0038,0.02215 0,0.03125 0.06682,0.160299 0.103026,0.212633 0.15625,0.5 0.09338,0.504205 0.140187,1.224222 -0.03125,2.125 -0.26938,1.415402 -1.320415,3.455471 -3.09375,5.84375 0.66742,-0.05552 0.66621,0.03513 1.875,-0.25 2.556276,-0.602975 6.171728,-1.897458 10.375,-4.75 a 0.99494797,0.99494797 0 0 1 0.75,-0.15625 c 3.050999,0.593482 6.265026,0.727093 9.625,0.40625 15.266915,-1.45786 26.436465,-12.487403 25.25,-24.4375 C 58.330857,-0.92500115 47.477349,-9.1379707 34.0625,-9.5 c -0.704312,-0.019101 -1.399619,-0.026804 -2.09375,0 z" color="#000" display="inline" enable-background="accumulate" overflow="visible" transform="translate(0,16)" visibility="visible" style="marker:none"/></g></svg>