<svg xmlns="http://www.w3.org/2000/svg" xmlns:svg="http://www.w3.org/2000/svg" xmlns:xlink="http://www.w3.org/1999/xlink" id="svg6333" width="64" height="64" version="1.1"><defs id="defs6335"><linearGradient id="linearGradient5809" x1="167.983" x2="167.983" y1="8.508" y2="54.78" gradientTransform="translate(-130,1.759402e-6)" gradientUnits="userSpaceOnUse" xlink:href="#linearGradient5803"/><linearGradient id="linearGradient5803"><stop id="stop5805" offset="0" stop-color="#fff5ef" stop-opacity="1"/><stop id="stop5807" offset="1" stop-color="#fef8dd" stop-opacity="1"/></linearGradient><linearGradient id="linearGradient5801" x1="27.096" x2="27.096" y1="10.881" y2="39.151" gradientTransform="matrix(1.4102564,0,0,1.4102564,0.391129,-2.2559982)" gradientUnits="userSpaceOnUse" xlink:href="#linearGradient3895-9-0-3-5-2-0-4-9"/><linearGradient id="linearGradient3895-9-0-3-5-2-0-4-9"><stop id="stop3897-0-5-7-89-6-6-7-0" offset="0" stop-color="#dc5639" stop-opacity="1"/><stop id="stop3899-8-7-06-3-8-3-8-0" offset="1" stop-color="#9d0f0f" stop-opacity="1"/></linearGradient><linearGradient id="linearGradient3381-5-4" x1="24" x2="24" y1="5" y2="43" gradientTransform="matrix(1.4324324,0,0,1.4362832,-2.378381,-2.4707782)" gradientUnits="userSpaceOnUse" xlink:href="#linearGradient3924-2-2-5-8"/><linearGradient id="linearGradient3924-2-2-5-8"><stop id="stop3926-9-4-9-6" offset="0" stop-color="#fff" stop-opacity="1"/><stop id="stop3928-9-8-6-5" offset=".063" stop-color="#fff" stop-opacity=".235"/><stop id="stop3930-3-5-1-7" offset=".951" stop-color="#fff" stop-opacity=".157"/><stop id="stop3932-8-0-4-8" offset="1" stop-color="#fff" stop-opacity=".392"/></linearGradient><radialGradient id="radialGradient3402-7-1-6" cx="6.73" cy="9.957" r="12.672" fx="6.2" fy="9.957" gradientTransform="matrix(0,13.393984,-16.443533,0,196.90205,-114.89368)" gradientUnits="userSpaceOnUse" xlink:href="#linearGradient2867-449-88-871-390-598-476-591-434-148-57-177-8-3-3-6-4-8-8-8"/><linearGradient id="linearGradient2867-449-88-871-390-598-476-591-434-148-57-177-8-3-3-6-4-8-8-8"><stop id="stop3750-1-0-7-6-6-1-3-9" offset="0" stop-color="#ffcd7d" stop-opacity="1"/><stop id="stop3752-3-7-4-0-32-8-923-0" offset=".262" stop-color="#fc8f36" stop-opacity="1"/><stop id="stop3754-1-8-5-2-7-6-7-1" offset=".705" stop-color="#e23a0e" stop-opacity="1"/><stop id="stop3756-1-6-2-6-6-1-96-6" offset="1" stop-color="#ac441f" stop-opacity="1"/></linearGradient><radialGradient id="radialGradient3337-2-2" cx="4.993" cy="43.5" r="2.5" fx="4.993" fy="43.5" gradientTransform="matrix(2.003784,0,0,1.4,27.98813,-17.4)" gradientUnits="userSpaceOnUse" xlink:href="#linearGradient3688-166-749-4-0-3-8"/><linearGradient id="linearGradient3688-166-749-4-0-3-8"><stop id="stop2883-4-0-1-8" offset="0" stop-color="#181818" stop-opacity="1"/><stop id="stop2885-9-2-9-6" offset="1" stop-color="#181818" stop-opacity="0"/></linearGradient><radialGradient id="radialGradient3339-1-4" cx="4.993" cy="43.5" r="2.5" fx="4.993" fy="43.5" gradientTransform="matrix(2.003784,0,0,1.4,-20.01187,-104.4)" gradientUnits="userSpaceOnUse" xlink:href="#linearGradient3688-464-309-9-2-4-2"/><linearGradient id="linearGradient3688-464-309-9-2-4-2"><stop id="stop2889-7-9-6-9" offset="0" stop-color="#181818" stop-opacity="1"/><stop id="stop2891-6-6-1-7" offset="1" stop-color="#181818" stop-opacity="0"/></linearGradient><linearGradient id="linearGradient3702-501-757-8-4-1-1"><stop id="stop2895-8-9-9-1" offset="0" stop-color="#181818" stop-opacity="0"/><stop id="stop2897-7-8-7-7" offset=".5" stop-color="#181818" stop-opacity="1"/><stop id="stop2899-4-5-1-5" offset="1" stop-color="#181818" stop-opacity="0"/></linearGradient><linearGradient id="linearGradient6394" x1="25.058" x2="25.058" y1="47.028" y2="39.999" gradientUnits="userSpaceOnUse" xlink:href="#linearGradient3702-501-757-8-4-1-1"/><linearGradient id="linearGradient3027" x1="167.983" x2="167.983" y1="8.508" y2="54.78" gradientTransform="translate(-126.77481,1.759402e-6)" gradientUnits="userSpaceOnUse" xlink:href="#linearGradient5803"/><linearGradient id="linearGradient3031" x1="27.096" x2="27.096" y1="10.881" y2="39.151" gradientTransform="matrix(1.4102564,0,0,1.4102564,-63.306509,-2.2559982)" gradientUnits="userSpaceOnUse" xlink:href="#linearGradient3895-9-0-3-5-2-0-4-9"/><linearGradient id="linearGradient3034" x1="24" x2="24" y1="5" y2="43" gradientTransform="matrix(1.4324324,0,0,1.4362832,-2.378381,-2.4707782)" gradientUnits="userSpaceOnUse" xlink:href="#linearGradient3924-2-2-5-8"/><radialGradient id="radialGradient3037" cx="6.73" cy="9.957" r="12.672" fx="6.2" fy="9.957" gradientTransform="matrix(0,13.393984,-16.443533,0,196.90205,-114.89368)" gradientUnits="userSpaceOnUse" xlink:href="#linearGradient2867-449-88-871-390-598-476-591-434-148-57-177-8-3-3-6-4-8-8-8"/><linearGradient id="linearGradient3027-4" x1="167.983" x2="167.983" y1="8.508" y2="54.78" gradientTransform="translate(-163.20879,-0.19175601)" gradientUnits="userSpaceOnUse" xlink:href="#linearGradient5803-0"/><linearGradient id="linearGradient5803-0"><stop id="stop5805-3" offset="0" stop-color="#fff5ef" stop-opacity="1"/><stop id="stop5807-1" offset="1" stop-color="#fef8dd" stop-opacity="1"/></linearGradient><radialGradient id="radialGradient3814" cx="32.245" cy="12.464" r="24.264" fx="32.245" fy="12.464" gradientTransform="matrix(1.8239138e-8,1.8233953,-1.4228771,1.4232817e-8,49.979331,-46.891919)" gradientUnits="userSpaceOnUse" xlink:href="#linearGradient5803"/><radialGradient id="radialGradient3858" cx="32.245" cy="12.464" r="24.264" fx="32.245" fy="12.464" gradientTransform="matrix(1.5033909e-8,1.5029635,-1.1728298,1.1731633e-8,46.651144,-33.321032)" gradientUnits="userSpaceOnUse" xlink:href="#linearGradient5803"/><radialGradient id="radialGradient3877" cx="32.245" cy="12.464" r="24.264" fx="32.245" fy="12.464" gradientTransform="matrix(1.8239138e-8,1.8233953,-1.4228771,1.4232817e-8,49.255794,-46.89192)" gradientUnits="userSpaceOnUse" xlink:href="#linearGradient5803"/><radialGradient id="radialGradient3895" cx="32.245" cy="12.464" r="24.264" fx="32.245" fy="12.464" gradientTransform="matrix(1.5033909e-8,1.5029635,-1.1728298,1.1731633e-8,46.054757,-33.321032)" gradientUnits="userSpaceOnUse" xlink:href="#linearGradient5803"/><radialGradient id="radialGradient3898" cx="32.245" cy="12.464" r="24.264" fx="32.245" fy="12.464" gradientTransform="matrix(1.5033909e-8,1.5029635,-1.1728298,1.1731633e-8,46.054757,-33.321032)" gradientUnits="userSpaceOnUse" xlink:href="#linearGradient5803"/><radialGradient id="radialGradient3901" cx="32.245" cy="12.464" r="24.264" fx="32.245" fy="12.464" gradientTransform="matrix(1.5033909e-8,1.5029635,-1.1728298,1.1731633e-8,46.054757,-33.321032)" gradientUnits="userSpaceOnUse" xlink:href="#linearGradient5803"/><radialGradient id="radialGradient3903" cx="32.245" cy="12.464" r="24.264" fx="32.245" fy="12.464" gradientTransform="matrix(1.8239138e-8,1.8233953,-1.4228771,1.4232817e-8,49.979331,-46.891919)" gradientUnits="userSpaceOnUse" xlink:href="#linearGradient5803"/><radialGradient id="radialGradient3925" cx="32.245" cy="12.464" r="24.264" fx="32.245" fy="12.464" gradientTransform="matrix(1.5033909e-8,1.5029635,-1.1728298,1.1731633e-8,46.054757,-33.321032)" gradientUnits="userSpaceOnUse" xlink:href="#linearGradient5803"/><radialGradient id="radialGradient3927" cx="32.245" cy="12.464" r="24.264" fx="32.245" fy="12.464" gradientTransform="matrix(1.8239138e-8,1.8233953,-1.4228771,1.4232817e-8,49.979331,-46.891919)" gradientUnits="userSpaceOnUse" xlink:href="#linearGradient5803"/><radialGradient id="radialGradient3937" cx="32.245" cy="12.464" r="24.264" fx="32.245" fy="12.464" gradientTransform="matrix(1.8239138e-8,1.8233953,-1.4228771,1.4232817e-8,49.979331,-46.891919)" gradientUnits="userSpaceOnUse" xlink:href="#linearGradient5803"/></defs><metadata id="metadata6338"/><g id="g4213"><g id="g3712-8-2-4-4" opacity=".6" transform="matrix(1.5789502,0,0,0.7142857,-5.894751,27.928572)"><rect id="rect2801-5-5-7-9" width="5" height="7" x="38" y="40" fill="url(#radialGradient3337-2-2)" fill-opacity="1" stroke="none"/><rect id="rect3696-3-0-3-7" width="5" height="7" x="-10" y="-47" fill="url(#radialGradient3339-1-4)" fill-opacity="1" stroke="none" transform="scale(-1,-1)"/><rect id="rect3700-5-6-8-4" width="28" height="7" x="10" y="40" fill="url(#linearGradient6394)" fill-opacity="1" stroke="none"/></g><rect id="rect5505-21-3-8-5-2" width="55" height="55" x="4.5" y="4.5" fill="url(#radialGradient3037)" fill-opacity="1" fill-rule="nonzero" stroke="none" stroke-width="1" color="#000" display="inline" enable-background="accumulate" overflow="visible" rx="3" ry="3" visibility="visible" style="marker:none"/><rect id="rect6741-5-0-2-3" width="53" height="53.142" x="5.5" y="5.429" fill="none" stroke="url(#linearGradient3034)" stroke-dasharray="none" stroke-dashoffset="0" stroke-linecap="round" stroke-linejoin="round" stroke-miterlimit="4" stroke-opacity="1" stroke-width="1" opacity=".5" rx="2" ry="2"/><rect id="rect5505-21-3-8-9-1-1" width="55" height="55" x="4.5" y="4.5" fill="none" stroke="#640000" stroke-dasharray="none" stroke-dashoffset="0" stroke-linecap="round" stroke-linejoin="round" stroke-miterlimit="4" stroke-opacity="1" stroke-width="1" color="#000" display="inline" enable-background="accumulate" opacity=".4" overflow="visible" rx="3" ry="3" visibility="visible" style="marker:none"/><g id="g3951" transform="matrix(0.83206913,0,0,0.83463288,5.373782,4.4628628)"><g font-style="normal" style="line-height:125%;-inkscape-font-specification:'Ubuntu Medium'" id="g3939" fill="#ba3d12" fill-opacity="1" stroke="none" font-family="Ubuntu" font-size="72" font-stretch="normal" font-variant="normal" font-weight="500" letter-spacing="0" opacity=".3" transform="matrix(0.78305308,0,0,0.76163218,7.3461787,8.7319691)" word-spacing="0"><path id="path3941" fill="#ba3d12" fill-opacity="1" d="m 27.84375,11.4375 c -1.384782,2.927833 -2.725626,5.899362 -4.03125,8.90625 -1.30565,3.006954 -2.623556,6.176583 -3.96875,9.5 -0.414544,1.055203 -0.859331,2.155095 -1.28125,3.25 l -3.03125,0 c -2.283151,0 -4.125,1.754575 -4.125,3.9375 l 0,0.125 c 0,2.182925 1.841849,3.9375 4.125,3.9375 l 0.03125,0 c -1.313378,3.535981 -2.704261,7.336167 -4.15625,11.46875 l 7.78125,0 1.65625,-4.75 c 0.420697,-1.149919 0.817925,-2.330193 1.21875,-3.5 0.200352,-0.646079 0.562978,-1.843227 1,-3.21875 l 16.34375,0 c 0.434873,1.365079 0.800979,2.536055 1,3.1875 0.402094,1.16568 0.796611,2.343108 1.21875,3.46875 0.59344,1.582595 1.164812,3.190345 1.71875,4.8125 l 8.0625,0 c -1.45203,-4.132583 -2.842057,-7.932769 -4.1875,-11.46875 l 0.0625,0 c 2.283151,0 4.125,-1.754575 4.125,-3.9375 l 0,-0.125 c 0,-2.182925 -1.841849,-3.9375 -4.125,-3.9375 l -3.125,0 c -0.430022,-1.092555 -0.855041,-2.196981 -1.28125,-3.25 -1.305668,-3.323417 -2.631891,-6.493046 -3.9375,-9.5 -1.305664,-3.006888 -2.646506,-5.978417 -4.03125,-8.90625 l -7.0625,0 z m 3.375,7.9375 c 0.870406,2.017835 1.906784,4.57854 3.09375,7.625 0.748311,1.920719 1.526142,3.978649 2.3125,6.09375 l -10.78125,0 c 0.766791,-2.087828 1.535767,-4.190728 2.25,-6.0625 1.186925,-3.006895 2.214992,-5.559285 3.125,-7.65625 z m -15.5,15.71875 24.6875,0 0,4 -24.6875,0 c -1.639233,0 -2.3125,-0.892 -2.3125,-2 0,-1.108 0.673267,-2 2.3125,-2 z" transform="matrix(1.2132,0,0,1.2132,-6.6178368,-6.4668438)"/></g><g font-style="normal" style="line-height:125%;-inkscape-font-specification:'Ubuntu Medium'" id="g3947" fill="#ba3d12" fill-opacity="1" stroke="#ba3d12" font-family="Ubuntu" font-size="72" font-stretch="normal" font-variant="normal" font-weight="500" letter-spacing="0" opacity=".1" transform="matrix(0.78305308,0,0,0.76163218,7.3461787,8.7319691)" word-spacing="0"><path id="path3949" fill="#ba3d12" fill-opacity="1" stroke="#ba3d12" stroke-width="2.562" d="m 27.84375,11.4375 c -1.384782,2.927833 -2.725626,5.899362 -4.03125,8.90625 -1.30565,3.006954 -2.623556,6.176583 -3.96875,9.5 -0.414544,1.055203 -0.859331,2.155095 -1.28125,3.25 l -3.03125,0 c -2.283151,0 -4.125,1.754575 -4.125,3.9375 l 0,0.125 c 0,2.182925 1.841849,3.9375 4.125,3.9375 l 0.03125,0 c -1.313378,3.535981 -2.704261,7.336167 -4.15625,11.46875 l 7.78125,0 1.65625,-4.75 c 0.420697,-1.149919 0.817925,-2.330193 1.21875,-3.5 0.200352,-0.646079 0.562978,-1.843227 1,-3.21875 l 16.34375,0 c 0.434873,1.365079 0.800979,2.536055 1,3.1875 0.402094,1.16568 0.796611,2.343108 1.21875,3.46875 0.59344,1.582595 1.164812,3.190345 1.71875,4.8125 l 8.0625,0 c -1.45203,-4.132583 -2.842057,-7.932769 -4.1875,-11.46875 l 0.0625,0 c 2.283151,0 4.125,-1.754575 4.125,-3.9375 l 0,-0.125 c 0,-2.182925 -1.841849,-3.9375 -4.125,-3.9375 l -3.125,0 c -0.430022,-1.092555 -0.855041,-2.196981 -1.28125,-3.25 -1.305668,-3.323417 -2.631891,-6.493046 -3.9375,-9.5 -1.305664,-3.006888 -2.646506,-5.978417 -4.03125,-8.90625 l -7.0625,0 z m 3.375,7.9375 c 0.870406,2.017835 1.906784,4.57854 3.09375,7.625 0.748311,1.920719 1.526142,3.978649 2.3125,6.09375 l -10.78125,0 c 0.766791,-2.087828 1.535767,-4.190728 2.25,-6.0625 1.186925,-3.006895 2.214992,-5.559285 3.125,-7.65625 z m -15.5,15.71875 24.6875,0 0,4 -24.6875,0 c -1.639233,0 -2.3125,-0.892 -2.3125,-2 0,-1.108 0.673267,-2 2.3125,-2 z" transform="matrix(1.2132,0,0,1.2132,-6.6178368,-6.4668438)"/></g><g font-style="normal" style="line-height:125%;-inkscape-font-specification:'Ubuntu Medium'" id="text3033" fill="url(#radialGradient3937)" fill-opacity="1" stroke="none" font-family="Ubuntu" font-size="72" font-stretch="normal" font-variant="normal" font-weight="500" letter-spacing="0" transform="matrix(0.78305308,0,0,0.76163218,7.3461787,6.9819691)" word-spacing="0"><path id="path3038" fill="#fff" fill-opacity="1" d="m 27.84375,11.4375 c -1.384782,2.927833 -2.725626,5.899362 -4.03125,8.90625 -1.30565,3.006954 -2.623556,6.176583 -3.96875,9.5 -0.414544,1.055203 -0.859331,2.155095 -1.28125,3.25 l -3.03125,0 c -2.283151,0 -4.125,1.754575 -4.125,3.9375 l 0,0.125 c 0,2.182925 1.841849,3.9375 4.125,3.9375 l 0.03125,0 c -1.313378,3.535981 -2.704261,7.336167 -4.15625,11.46875 l 7.78125,0 1.65625,-4.75 c 0.420697,-1.149919 0.817925,-2.330193 1.21875,-3.5 0.200352,-0.646079 0.562978,-1.843227 1,-3.21875 l 16.34375,0 c 0.434873,1.365079 0.800979,2.536055 1,3.1875 0.402094,1.16568 0.796611,2.343108 1.21875,3.46875 0.59344,1.582595 1.164812,3.190345 1.71875,4.8125 l 8.0625,0 c -1.45203,-4.132583 -2.842057,-7.932769 -4.1875,-11.46875 l 0.0625,0 c 2.283151,0 4.125,-1.754575 4.125,-3.9375 l 0,-0.125 c 0,-2.182925 -1.841849,-3.9375 -4.125,-3.9375 l -3.125,0 c -0.430022,-1.092555 -0.855041,-2.196981 -1.28125,-3.25 -1.305668,-3.323417 -2.631891,-6.493046 -3.9375,-9.5 -1.305664,-3.006888 -2.646506,-5.978417 -4.03125,-8.90625 l -7.0625,0 z m 3.375,7.9375 c 0.870406,2.017835 1.906784,4.57854 3.09375,7.625 0.748311,1.920719 1.526142,3.978649 2.3125,6.09375 l -10.78125,0 c 0.766791,-2.087828 1.535767,-4.190728 2.25,-6.0625 1.186925,-3.006895 2.214992,-5.559285 3.125,-7.65625 z m -15.5,15.71875 24.6875,0 0,4 -24.6875,0 c -1.639233,0 -2.3125,-0.892 -2.3125,-2 0,-1.108 0.673267,-2 2.3125,-2 z" transform="matrix(1.2132,0,0,1.2132,-6.6178368,-6.4668438)"/></g></g></g></svg>