<svg xmlns="http://www.w3.org/2000/svg" xmlns:svg="http://www.w3.org/2000/svg" xmlns:xlink="http://www.w3.org/1999/xlink" id="svg6333" width="64" height="64" version="1.1"><defs id="defs6335"><linearGradient id="linearGradient11263"><stop id="stop11265" offset="0" stop-color="#effffe" stop-opacity="1"/><stop id="stop11267" offset="1" stop-color="#ddfefc" stop-opacity="1"/></linearGradient><linearGradient id="linearGradient5809" x1="167.983" x2="167.983" y1="8.508" y2="54.78" gradientTransform="translate(-130,1.759402e-6)" gradientUnits="userSpaceOnUse" xlink:href="#linearGradient5803"/><linearGradient id="linearGradient5803"><stop id="stop5805" offset="0" stop-color="#fff5ef" stop-opacity="1"/><stop id="stop5807" offset="1" stop-color="#fef8dd" stop-opacity="1"/></linearGradient><linearGradient id="linearGradient5801" x1="27.096" x2="27.096" y1="10.881" y2="39.151" gradientTransform="matrix(1.4102564,0,0,1.4102564,0.391129,-2.2559982)" gradientUnits="userSpaceOnUse" xlink:href="#linearGradient3895-9-0-3-5-2-0-4-9"/><linearGradient id="linearGradient3895-9-0-3-5-2-0-4-9"><stop id="stop3897-0-5-7-89-6-6-7-0" offset="0" stop-color="#dc5639" stop-opacity="1"/><stop id="stop3899-8-7-06-3-8-3-8-0" offset="1" stop-color="#9d0f0f" stop-opacity="1"/></linearGradient><linearGradient id="linearGradient3381-5-4" x1="24" x2="24" y1="5" y2="43" gradientTransform="matrix(1.4324324,0,0,1.4362832,-2.378381,-2.4707782)" gradientUnits="userSpaceOnUse" xlink:href="#linearGradient3924-2-2-5-8"/><linearGradient id="linearGradient3924-2-2-5-8"><stop id="stop3926-9-4-9-6" offset="0" stop-color="#fff" stop-opacity="1"/><stop id="stop3928-9-8-6-5" offset=".063" stop-color="#fff" stop-opacity=".235"/><stop id="stop3930-3-5-1-7" offset=".951" stop-color="#fff" stop-opacity=".157"/><stop id="stop3932-8-0-4-8" offset="1" stop-color="#fff" stop-opacity=".392"/></linearGradient><radialGradient id="radialGradient3402-7-1-6" cx="6.73" cy="9.957" r="12.672" fx="6.2" fy="9.957" gradientTransform="matrix(0,13.393984,-16.443533,0,196.90205,-114.89368)" gradientUnits="userSpaceOnUse" xlink:href="#linearGradient2867-449-88-871-390-598-476-591-434-148-57-177-8-3-3-6-4-8-8-8"/><linearGradient id="linearGradient2867-449-88-871-390-598-476-591-434-148-57-177-8-3-3-6-4-8-8-8"><stop id="stop3750-1-0-7-6-6-1-3-9" offset="0" stop-color="#40e3d6" stop-opacity="1"/><stop id="stop3752-3-7-4-0-32-8-923-0" offset=".262" stop-color="#19afa3" stop-opacity="1"/><stop id="stop3754-1-8-5-2-7-6-7-1" offset=".705" stop-color="#01919a" stop-opacity="1"/><stop id="stop3756-1-6-2-6-6-1-96-6" offset="1" stop-color="#016f7a" stop-opacity="1"/></linearGradient><radialGradient id="radialGradient3337-2-2" cx="4.993" cy="43.5" r="2.5" fx="4.993" fy="43.5" gradientTransform="matrix(2.003784,0,0,1.4,27.98813,-17.4)" gradientUnits="userSpaceOnUse" xlink:href="#linearGradient3688-166-749-4-0-3-8"/><linearGradient id="linearGradient3688-166-749-4-0-3-8"><stop id="stop2883-4-0-1-8" offset="0" stop-color="#181818" stop-opacity="1"/><stop id="stop2885-9-2-9-6" offset="1" stop-color="#181818" stop-opacity="0"/></linearGradient><radialGradient id="radialGradient3339-1-4" cx="4.993" cy="43.5" r="2.5" fx="4.993" fy="43.5" gradientTransform="matrix(2.003784,0,0,1.4,-20.01187,-104.4)" gradientUnits="userSpaceOnUse" xlink:href="#linearGradient3688-464-309-9-2-4-2"/><linearGradient id="linearGradient3688-464-309-9-2-4-2"><stop id="stop2889-7-9-6-9" offset="0" stop-color="#181818" stop-opacity="1"/><stop id="stop2891-6-6-1-7" offset="1" stop-color="#181818" stop-opacity="0"/></linearGradient><linearGradient id="linearGradient3702-501-757-8-4-1-1"><stop id="stop2895-8-9-9-1" offset="0" stop-color="#181818" stop-opacity="0"/><stop id="stop2897-7-8-7-7" offset=".5" stop-color="#181818" stop-opacity="1"/><stop id="stop2899-4-5-1-5" offset="1" stop-color="#181818" stop-opacity="0"/></linearGradient><linearGradient id="linearGradient6394" x1="25.058" x2="25.058" y1="47.028" y2="39.999" gradientUnits="userSpaceOnUse" xlink:href="#linearGradient3702-501-757-8-4-1-1"/><linearGradient id="linearGradient11270" x1="32" x2="32" y1="9" y2="55" gradientUnits="userSpaceOnUse" xlink:href="#linearGradient11263"/></defs><metadata id="metadata6338"/><g id="layer1"><g id="g3712-8-2-4-4" opacity=".6" transform="matrix(1.5789502,0,0,0.7142857,-5.894751,27.928572)"><rect id="rect2801-5-5-7-9" width="5" height="7" x="38" y="40" fill="url(#radialGradient3337-2-2)" fill-opacity="1" stroke="none"/><rect id="rect3696-3-0-3-7" width="5" height="7" x="-10" y="-47" fill="url(#radialGradient3339-1-4)" fill-opacity="1" stroke="none" transform="scale(-1,-1)"/><rect id="rect3700-5-6-8-4" width="28" height="7" x="10" y="40" fill="url(#linearGradient6394)" fill-opacity="1" stroke="none"/></g><rect id="rect5505-21-3-8-5-2" width="55" height="55" x="4.5" y="4.5" fill="url(#radialGradient3402-7-1-6)" fill-opacity="1" fill-rule="nonzero" stroke="none" stroke-width="1" color="#000" display="inline" enable-background="accumulate" overflow="visible" rx="3" ry="3" visibility="visible" style="marker:none"/><rect id="rect6741-5-0-2-3" width="53" height="53.142" x="5.5" y="5.429" fill="none" stroke="url(#linearGradient3381-5-4)" stroke-dasharray="none" stroke-dashoffset="0" stroke-linecap="round" stroke-linejoin="round" stroke-miterlimit="4" stroke-opacity="1" stroke-width="1" opacity=".5" rx="2" ry="2"/><rect id="rect5505-21-3-8-9-1-1" width="55" height="55" x="4.5" y="4.5" fill="none" stroke="#015a60" stroke-dasharray="none" stroke-dashoffset="0" stroke-linecap="round" stroke-linejoin="round" stroke-miterlimit="4" stroke-opacity="1" stroke-width="1" color="#000" display="inline" enable-background="accumulate" opacity=".4" overflow="visible" rx="3" ry="3" visibility="visible" style="marker:none"/><path id="path11274" fill="#000" fill-opacity="1" stroke="#000" stroke-dasharray="none" stroke-linecap="round" stroke-linejoin="round" stroke-miterlimit="4" stroke-opacity="1" stroke-width="2" d="m 23.464844,10.214724 -6.929688,4.000001 6.345703,10.992187 a 12,12 0 0 0 -2.179687,3.792969 l -12.701172,0 0,8 12.701172,0 a 12,12 0 0 0 2.185547,3.785156 l -6.351563,11 6.929688,4 6.347656,-10.99414 A 12,12 0 0 0 32,44.999881 12,12 0 0 0 34.189453,44.79285 l 6.345703,10.992187 6.929688,-4 -6.345703,-10.992187 a 12,12 0 0 0 2.179687,-3.792969 l 12.701172,0 0,-8 -12.701172,0 a 12,12 0 0 0 -2.185547,-3.785156 l 6.351563,-11 L 40.535156,10.214724 34.1875,21.208865 A 12,12 0 0 0 32,20.999881 12,12 0 0 0 29.810547,21.206912 L 23.464844,10.214724 Z M 32,24.999881 a 8,8 0 0 1 8,8 8,8 0 0 1 -8,8 8,8 0 0 1 -8,-8 8,8 0 0 1 8,-8 z" opacity=".05"/><path id="path11272" fill="#000" fill-opacity="1" stroke="none" stroke-dasharray="none" stroke-linecap="round" stroke-linejoin="round" stroke-miterlimit="4" stroke-opacity="1" stroke-width="1.92" d="m 23.464844,10.214688 -6.929688,4 6.345703,10.992187 a 12,12 0 0 0 -2.179687,3.792969 l -12.701172,0 0,8 12.701172,0 A 12,12 0 0 0 22.886719,40.785 l -6.351563,11 6.929688,4 L 29.8125,44.79086 A 12,12 0 0 0 32,44.999844 12,12 0 0 0 34.189453,44.792813 l 6.345703,10.992187 6.929688,-4 -6.345703,-10.992187 a 12,12 0 0 0 2.179687,-3.792969 l 12.701172,0 0,-8 -12.701172,0 a 12,12 0 0 0 -2.185547,-3.785156 l 6.351563,-11 -6.929688,-4 -6.347656,10.99414 A 12,12 0 0 0 32,20.999844 12,12 0 0 0 29.810547,21.206875 L 23.464844,10.214688 Z M 32,24.999844 a 8,8 0 0 1 8,8 8,8 0 0 1 -8,8 8,8 0 0 1 -8,-8 8,8 0 0 1 8,-8 z" opacity=".15"/><path id="path11243" fill="url(#linearGradient11270)" fill-opacity="1" stroke="none" stroke-dasharray="none" stroke-linecap="round" stroke-linejoin="round" stroke-miterlimit="4" stroke-opacity="1" stroke-width="1.92" d="m 23.464844,9.2148438 -6.929688,4.0000002 6.345703,10.992187 A 12,12 0 0 0 20.701172,28 L 8,28 l 0,8 12.701172,0 a 12,12 0 0 0 2.185547,3.785156 l -6.351563,11 6.929688,4 6.347656,-10.99414 A 12,12 0 0 0 32,44 12,12 0 0 0 34.189453,43.792969 l 6.345703,10.992187 6.929688,-4 -6.345703,-10.992187 A 12,12 0 0 0 43.298828,36 L 56,36 56,28 43.298828,28 a 12,12 0 0 0 -2.185547,-3.785156 l 6.351563,-11 L 40.535156,9.2148438 34.1875,20.208984 A 12,12 0 0 0 32,20 12,12 0 0 0 29.810547,20.207031 L 23.464844,9.2148438 Z M 32,24 a 8,8 0 0 1 8,8 8,8 0 0 1 -8,8 8,8 0 0 1 -8,-8 8,8 0 0 1 8,-8 z" opacity="1"/></g></svg>