<svg xmlns="http://www.w3.org/2000/svg" id="svg6086" width="64" height="64" version="1.1"><defs id="defs6088"><radialGradient id="radialGradient3337-2-2" cx="4.993" cy="43.5" r="2.5" gradientTransform="matrix(2.003784,0,0,1.4,27.98813,-17.4)" gradientUnits="userSpaceOnUse"><stop id="stop2883-4-0-1-8" offset="0" stop-color="#181818"/><stop id="stop2885-9-2-9-6" offset="1" stop-color="#181818" stop-opacity="0"/></radialGradient><radialGradient id="radialGradient3339-1-4" cx="4.993" cy="43.5" r="2.5" gradientTransform="matrix(2.003784,0,0,1.4,-20.01187,-104.4)" gradientUnits="userSpaceOnUse"><stop id="stop2889-7-9-6-9" offset="0" stop-color="#181818"/><stop id="stop2891-6-6-1-7" offset="1" stop-color="#181818" stop-opacity="0"/></radialGradient><linearGradient id="linearGradient6084" x1="25.058" x2="25.058" y1="47.028" y2="39.999" gradientUnits="userSpaceOnUse"><stop id="stop2895-8-9-9-1" offset="0" stop-color="#181818" stop-opacity="0"/><stop id="stop2897-7-8-7-7" offset=".5" stop-color="#181818"/><stop id="stop2899-4-5-1-5" offset="1" stop-color="#181818" stop-opacity="0"/></linearGradient><linearGradient id="linearGradient4326" x1="71.123" x2="71.246" y1="29.909" y2="100.71" gradientTransform="matrix(0.5,0,0,0.5,0.17006163,-1.674651)" gradientUnits="userSpaceOnUse"><stop id="stop4336" offset="0" stop-color="#323232"/><stop id="stop4338" offset="1" stop-color="#191919"/></linearGradient><linearGradient id="linearGradient3121" x1="24" x2="24" y1="5" y2="43" gradientTransform="matrix(1.4324324,0,0,1.4324324,-2.378381,-2.3783712)" gradientUnits="userSpaceOnUse"><stop id="stop3926-9-4-9-6" offset="0" stop-color="#FFF"/><stop id="stop3928-9-8-6-5" offset=".063" stop-color="#FFF" stop-opacity=".235"/><stop id="stop3930-3-5-1-7" offset=".951" stop-color="#FFF" stop-opacity=".157"/><stop id="stop3932-8-0-4-8" offset="1" stop-color="#FFF" stop-opacity=".392"/></linearGradient><radialGradient id="radialGradient3130" cx="6.772" cy="10.022" r="12.672" gradientTransform="matrix(0,12.886614,-11.544185,0,147.47589,-110.18913)" gradientUnits="userSpaceOnUse"><stop id="stop3818" offset="0" stop-color="#ff9994"/><stop id="stop3820" offset=".262" stop-color="#fd4d4d"/><stop id="stop3822" offset=".705" stop-color="#e20e0e"/><stop id="stop3824" offset="1" stop-color="#ac301f"/></radialGradient></defs><metadata id="metadata6091"/><g id="g3712-8-2-4-4" opacity=".6" transform="matrix(1.5789502,0,0,0.7142857,-5.894751,27.928572)"><rect id="rect2801-5-5-7-9" width="5" height="7" x="38" y="40" fill="url(#radialGradient3337-2-2)"/><rect id="rect3696-3-0-3-7" width="5" height="7" x="-10" y="-47" fill="url(#radialGradient3339-1-4)" transform="scale(-1,-1)"/><rect id="rect3700-5-6-8-4" width="28" height="7" x="10" y="40" fill="url(#linearGradient6084)"/></g><rect id="rect5505-21-3-8-5-2" width="55" height="55" x="4.5" y="4.5" fill="url(#radialGradient3130)" fill-rule="nonzero" color="#000" enable-background="accumulate" rx="3" ry="3"/><rect id="rect6741-5-0-2-3" width="53" height="53" x="5.5" y="5.5" fill="none" stroke="url(#linearGradient3121)" stroke-dasharray="none" stroke-dashoffset="0" stroke-linecap="round" stroke-linejoin="round" stroke-miterlimit="4" stroke-width="1" opacity=".5" rx="2" ry="2"/><rect id="rect5505-21-3-8-9-1-1" width="55" height="55" x="4.5" y="4.5" fill="none" stroke="#640000" stroke-dasharray="none" stroke-dashoffset="0" stroke-linecap="round" stroke-linejoin="round" stroke-miterlimit="4" stroke-width="1" color="#000" enable-background="accumulate" opacity=".4" rx="3" ry="3"/><path id="path3039" fill="#000" d="m48.511,19.026c-6.4381,4.7048-15.833,0.6106-23.817-1.3831-2.7395-0.68407-5.5062-0.61852-6.9678,0.32149-9.206,5.921-1.6312,16.166,9.6469,14.231,0.81828-0.04548-4.105,5.0299-2.0079,12.117,3.0519,10.313,16.842,7.1499,19.335-1.0878,0.81922-2.7075,1.0218-10.67-6.848-7.4894-1.5637,0.63192-4.7599,3.2034-5.7342,6.9818-0.41367,1.6043,1.5925,1.4516,1.9678,0.84665,6.6836-10.772,9.6876-5.4333,7.4638-0.52979-2.0615,4.5457-10.615,9.7631-12.77,0.13963-0.7768-3.4688,3.5087-11.535,3.7311-11.571,2.8973-0.47263,5.4165-1.0666,6.9601-1.2929,1.1985-0.53526,1.1418-2.2475-0.76191-2.1068-1.4158,0.23892-2.9211,0.58318-4.4863,0.92-0.38585,0.08303,1.3769-1.8366,1.8021-2.6046,0.69714-1.2592,0.48346-1.7294-0.99619-1.4862-5.2899,0.86949-5.3775,4.9407-6.1921,5.0298-3.6561,0.39971-7.9715,0.2909-10.812-1.4263-2.8407-1.7173-2.6333-7.0355,1.0772-7.6708,3.4824-0.59621,19.656,7.9293,30.784,0.12313,1.1645-0.81686,0.14348-3.1703-1.3738-2.0616z" opacity=".15"/><path id="path4313" fill="#000" d="m48.511,18.026c-6.4381,4.7048-15.833,0.6106-23.817-1.3831-2.7395-0.68407-5.5062-0.61852-6.9678,0.32149-9.206,5.921-1.6312,16.166,9.6469,14.231,0.81828-0.04548-4.105,5.0299-2.0079,12.117,3.0519,10.313,16.842,7.1499,19.335-1.0878,0.81922-2.7075,1.0218-10.67-6.848-7.4894-1.5637,0.63192-4.7599,3.2034-5.7342,6.9818-0.41367,1.6043,1.5925,1.4516,1.9678,0.84665,6.6836-10.772,9.6876-5.4333,7.4638-0.52979-2.0615,4.5457-10.615,9.7631-12.77,0.13963-0.7768-3.4688,3.5087-11.535,3.7311-11.571,2.8973-0.47263,5.4165-1.0666,6.9601-1.2929,1.1985-0.53526,1.1418-2.2475-0.76191-2.1068-1.4158,0.23892-2.9211,0.58318-4.4863,0.92-0.38585,0.08303,1.3769-1.8366,1.8021-2.6046,0.69714-1.2592,0.48346-1.7294-0.99619-1.4862-5.2899,0.86949-5.3775,4.9407-6.1921,5.0298-3.6561,0.39971-7.9715,0.2909-10.812-1.4263-2.8407-1.7173-2.6333-7.0355,1.0772-7.6708,3.4824-0.59621,19.656,7.9293,30.784,0.12313,1.1645-0.81686,0.14348-3.1703-1.3738-2.0616z" opacity=".3"/><path id="path4324" fill="url(#linearGradient4326)" d="m48.511,17.026c-6.4381,4.7048-15.833,0.6106-23.817-1.3831-2.7395-0.68407-5.5062-0.61852-6.9678,0.32149-9.206,5.921-1.6312,16.166,9.6469,14.231,0.81828-0.04548-4.105,5.0299-2.0079,12.117,3.0519,10.313,16.842,7.1499,19.335-1.0878,0.81922-2.7075,1.0218-10.67-6.848-7.4894-1.5637,0.63192-4.7599,3.2034-5.7342,6.9818-0.41367,1.6043,1.5925,1.4516,1.9678,0.84665,6.6836-10.772,9.6876-5.4333,7.4638-0.52979-2.0615,4.5457-10.615,9.7631-12.77,0.13963-0.7768-3.4688,3.5087-11.535,3.7311-11.571,2.8973-0.47263,5.4165-1.0666,6.9601-1.2929,1.1985-0.53526,1.1418-2.2475-0.76191-2.1068-1.4158,0.23892-2.9211,0.58318-4.4863,0.92-0.38585,0.08303,1.3769-1.8366,1.8021-2.6046,0.69714-1.2592,0.48346-1.7294-0.99619-1.4862-5.2899,0.86949-5.3775,4.9407-6.1921,5.0298-3.6561,0.39971-7.9715,0.2909-10.812-1.4263-2.8407-1.7173-2.6333-7.0355,1.0772-7.6708,3.4824-0.59621,19.656,7.9293,30.784,0.12313,1.1645-0.81686,0.14348-3.1703-1.3738-2.0616z"/></svg>