<svg xmlns="http://www.w3.org/2000/svg" xmlns:svg="http://www.w3.org/2000/svg" xmlns:xlink="http://www.w3.org/1999/xlink" id="SVGRoot" width="64" height="64" version="1.1" viewBox="0 0 64 64"><defs id="defs7947"><radialGradient id="radialGradient4727" cx="62.625" cy="4.625" r="10.625" fx="62.625" fy="4.625" gradientTransform="matrix(2.8862745,0,0,1.0039202,30.24707,38.323733)" gradientUnits="userSpaceOnUse" xlink:href="#linearGradient8838-561-565"/><linearGradient id="linearGradient8838-561-565"><stop id="stop4621" offset="0" stop-color="#0a0a0a" stop-opacity="1"/><stop id="stop4623" offset="1" stop-color="#0a0a0a" stop-opacity="0"/></linearGradient><linearGradient id="linearGradient4729" x1="-63.855" x2="-63.855" y1="9.025" y2="48.431" gradientTransform="matrix(1.5223277,0,0,1.5463222,308.72655,-22.753927)" gradientUnits="userSpaceOnUse" xlink:href="#linearGradient4135-0"/><linearGradient id="linearGradient4135-0"><stop id="stop4137-0" offset="0" stop-color="#08b8fb" stop-opacity="1"/><stop id="stop4139-1" offset="1" stop-color="#007cff" stop-opacity="1"/></linearGradient><linearGradient id="linearGradient4940" x1="284.257" x2="284.257" y1="-12.9" y2="39.426" gradientTransform="translate(-69.15096,9.854293)" gradientUnits="userSpaceOnUse" xlink:href="#linearGradient3924-1"/><linearGradient id="linearGradient3924-1"><stop id="stop3926-3" offset="0" stop-color="#fff" stop-opacity="1"/><stop id="stop3928-91" offset=".063" stop-color="#fff" stop-opacity=".235"/><stop id="stop3930-6" offset=".951" stop-color="#fff" stop-opacity=".157"/><stop id="stop3932-6" offset="1" stop-color="#fff" stop-opacity=".392"/></linearGradient></defs><metadata id="metadata7950"/><g id="layer1"><g id="g5066" display="inline" transform="translate(-179,10.366457)"><path id="path4705" fill="url(#radialGradient4727)" fill-opacity="1" fill-rule="evenodd" stroke="none" stroke-width="1" d="m 241.66666,42.966873 c 0,5.89104 -13.72993,10.66667 -30.66666,10.66667 -16.93674,0 -30.66667,-4.77563 -30.66667,-10.66667 0,-5.89104 13.72993,-10.66666 30.66667,-10.66666 16.93673,0 30.66666,4.77562 30.66666,10.66666 l 0,0 z" display="inline" opacity=".2" overflow="visible" visibility="visible" style="marker:none"/><path id="path4709" fill="url(#linearGradient4729)" fill-opacity="1" stroke="none" stroke-dasharray="none" stroke-linecap="round" stroke-linejoin="round" stroke-miterlimit="4" stroke-opacity="1" stroke-width=".991" d="m 188.5293,-3.633292 c -1.95415,0 -3.52929,1.599983 -3.52929,3.58493302 l 0,38.76678198 c 0,1.98495 1.57514,3.58191 3.52929,3.58191 l 15.03597,0 7.59972,7.89168 7.46892,-7.89168 14.83679,0 c 1.95415,0 3.52931,-1.59696 3.52931,-3.58191 l 0,-38.76678198 c 0,-1.98495002 -1.57516,-3.58493302 -3.52931,-3.58493302 l -44.9414,0 z"/><path id="path4453" fill="#0b2228" fill-opacity="1" fill-rule="nonzero" stroke="#0b2228" stroke-dasharray="none" stroke-linecap="round" stroke-linejoin="round" stroke-miterlimit="4" stroke-opacity="1" stroke-width="2" d="m 204.13157,36.581813 c -4.28977,0 -8.2826,-1.25752 -11.6443,-3.41277 0.59426,0.0701 1.19893,0.10602 1.81208,0.10602 3.55886,0 6.83423,-1.21446 9.43397,-3.25179 -3.32404,-0.0613 -6.12931,-2.2575 -7.09594,-5.27551 0.4638,0.0887 0.93965,0.13624 1.42916,0.13624 0.69271,0 1.36383,-0.0928 2.00125,-0.26638 -3.475,-0.6978 -6.09342,-3.76806 -6.09342,-7.44861 0,-0.0321 9e-5,-0.0638 6.3e-4,-0.0955 1.02424,0.56896 2.19551,0.91066 3.44068,0.95007 -2.03824,-1.362191 -3.37926,-3.687317 -3.37926,-6.322721 0,-1.392259 0.3745,-2.697027 1.02837,-3.81896 3.74662,4.595807 9.34383,7.620042 15.65702,7.936821 -0.12947,-0.555955 -0.19678,-1.135747 -0.19678,-1.731113 0,-4.195059 3.40121,-7.596206 7.59645,-7.596206 2.18477,0 4.15894,0.922575 5.54467,2.398938 1.73026,-0.340752 3.35597,-0.972956 4.82364,-1.843524 -0.56719,1.773911 -1.77157,3.262598 -3.34,4.202779 1.5366,-0.183649 3.00061,-0.591981 4.36291,-1.196151 -1.01844,1.523358 -2.30639,2.861308 -3.79044,3.932318 0.0146,0.325718 0.0219,0.653332 0.0219,0.982707 0,10.038182 -7.64047,21.613322 -21.61263,21.613322" opacity=".15"/><path id="path4451" fill="#0b2228" fill-opacity="1" fill-rule="nonzero" stroke="none" d="m 204.13157,36.581813 c -4.28977,0 -8.2826,-1.25752 -11.6443,-3.41277 0.59426,0.0701 1.19893,0.10602 1.81208,0.10602 3.55886,0 6.83423,-1.21446 9.43397,-3.25179 -3.32404,-0.0613 -6.12931,-2.2575 -7.09594,-5.27551 0.4638,0.0887 0.93965,0.13624 1.42916,0.13624 0.69271,0 1.36383,-0.0928 2.00125,-0.26638 -3.475,-0.6978 -6.09342,-3.76806 -6.09342,-7.44861 0,-0.0321 9e-5,-0.0638 6.3e-4,-0.0955 1.02424,0.56896 2.19551,0.91066 3.44068,0.95007 -2.03824,-1.362191 -3.37926,-3.687317 -3.37926,-6.322721 0,-1.392259 0.3745,-2.697027 1.02837,-3.81896 3.74662,4.595807 9.34383,7.620042 15.65702,7.936821 -0.12947,-0.555955 -0.19678,-1.135747 -0.19678,-1.731113 0,-4.195059 3.40121,-7.596206 7.59645,-7.596206 2.18477,0 4.15894,0.922575 5.54467,2.398938 1.73026,-0.340752 3.35597,-0.972956 4.82364,-1.843524 -0.56719,1.773911 -1.77157,3.262598 -3.34,4.202779 1.5366,-0.183649 3.00061,-0.591981 4.36291,-1.196151 -1.01844,1.523358 -2.30639,2.861308 -3.79044,3.932318 0.0146,0.325718 0.0219,0.653332 0.0219,0.982707 0,10.038182 -7.64047,21.613322 -21.61263,21.613322" opacity=".3"/><path id="path4713" fill="#e9faff" fill-opacity="1" fill-rule="nonzero" stroke="none" d="m 204.13157,35.581813 c -4.28977,0 -8.2826,-1.25752 -11.6443,-3.41277 0.59426,0.0701 1.19893,0.10602 1.81208,0.10602 3.55886,0 6.83423,-1.21446 9.43397,-3.25179 -3.32404,-0.0613 -6.12931,-2.2575 -7.09594,-5.27551 0.4638,0.0887 0.93965,0.13624 1.42916,0.13624 0.69271,0 1.36383,-0.0928 2.00125,-0.26638 -3.475,-0.6978 -6.09342,-3.76806 -6.09342,-7.44861 0,-0.0321 9e-5,-0.0638 6.3e-4,-0.0955 1.02424,0.56896 2.19551,0.91066 3.44068,0.95007 -2.03824,-1.362191 -3.37926,-3.687317 -3.37926,-6.322721 0,-1.392259 0.3745,-2.697027 1.02837,-3.81896 3.74662,4.595807 9.34383,7.620042 15.65702,7.936821 -0.12947,-0.555955 -0.19678,-1.135747 -0.19678,-1.731113 0,-4.195059 3.40121,-7.596206 7.59645,-7.596206 2.18477,0 4.15894,0.922575 5.54467,2.398938 1.73026,-0.340752 3.35597,-0.972956 4.82364,-1.843524 -0.56719,1.773911 -1.77157,3.262598 -3.34,4.202779 1.5366,-0.183649 3.00061,-0.591981 4.36291,-1.196151 -1.01844,1.523358 -2.30639,2.861308 -3.79044,3.932318 0.0146,0.325718 0.0219,0.653332 0.0219,0.982707 0,10.038182 -7.64047,21.613322 -21.61263,21.613322"/><path id="path4723" fill="none" fill-opacity="1" stroke="#045" stroke-dasharray="none" stroke-linecap="round" stroke-linejoin="round" stroke-miterlimit="4" stroke-opacity="1" stroke-width="1" d="m 188.5293,-3.633292 c -1.95415,0 -3.52929,1.599983 -3.52929,3.58493302 l 0,38.76678198 c 0,1.98495 1.57514,3.58191 3.52929,3.58191 l 15.03597,0 7.59972,7.89168 7.46892,-7.89168 14.83679,0 c 1.95415,0 3.52931,-1.59696 3.52931,-3.58191 l 0,-38.76678198 c 0,-1.98495002 -1.57516,-3.58493302 -3.52931,-3.58493302 l -44.9414,0 z" opacity=".4"/><path id="path4915" fill="none" fill-opacity="1" stroke="url(#linearGradient4940)" stroke-dasharray="none" stroke-linecap="round" stroke-linejoin="round" stroke-miterlimit="4" stroke-opacity="1" stroke-width="1" d="m 188.52873,-2.633988 c -1.40831,0 -2.5293,1.130015 -2.5293,2.58593702 l 0,38.76562398 c 0,1.45592 1.11996,2.58203 2.5293,2.58203 l 15.03711,0 a 1.0001,1.0001 0 0 1 0.7207,0.30664 l 6.87305,7.13672 6.74804,-7.13086 a 1.0001,1.0001 0 0 1 0.72657,-0.3125 l 14.83593,0 c 1.40934,0 2.5293,-1.12611 2.5293,-2.58203 l 0,-38.76562398 c 0,-1.45591602 -1.12099,-2.58593702 -2.5293,-2.58593702 l -44.9414,0 z" opacity=".5"/></g></g></svg>