<svg xmlns="http://www.w3.org/2000/svg" xmlns:svg="http://www.w3.org/2000/svg" xmlns:xlink="http://www.w3.org/1999/xlink" id="svg3264" width="64" height="64" version="1.1"><defs id="defs3266"><linearGradient id="linearGradient2490-3"><stop id="stop2492-3" offset="0" stop-color="#365f0e" stop-opacity="1"/><stop id="stop2494-8" offset="1" stop-color="#84a718" stop-opacity="1"/></linearGradient><linearGradient id="linearGradient2490-3-7"><stop id="stop2492-3-7" offset="0" stop-color="#365f0e" stop-opacity="1"/><stop id="stop2494-8-5" offset="1" stop-color="#84a718" stop-opacity="1"/></linearGradient><linearGradient id="linearGradient2490-3-1"><stop id="stop2492-3-3" offset="0" stop-color="#365f0e" stop-opacity="1"/><stop id="stop2494-8-0" offset="1" stop-color="#84a718" stop-opacity="1"/></linearGradient><radialGradient id="radialGradient3067-8" cx="7.496" cy="8.45" r="20" fx="7.496" fy="8.45" gradientTransform="matrix(0,3.2432598,-4.3410584,-1.3685269e-7,68.681088,-18.988922)" gradientUnits="userSpaceOnUse" xlink:href="#linearGradient3242-7-2"/><linearGradient id="linearGradient3242-7-2"><stop id="stop3244-5-9" offset="0" stop-color="#eef87e" stop-opacity="1"/><stop id="stop3246-9-9" offset=".262" stop-color="#cde34f" stop-opacity="1"/><stop id="stop3248-7-6" offset=".661" stop-color="#93b723" stop-opacity="1"/><stop id="stop3250-8-0" offset="1" stop-color="#5a7e0d" stop-opacity="1"/></linearGradient><linearGradient id="linearGradient3069-2" x1="24" x2="24" y1="44" y2="3.899" gradientTransform="matrix(1.4102564,0,0,1.4102564,-1.846152,-1.8461545)" gradientUnits="userSpaceOnUse" xlink:href="#linearGradient2490-3-76"/><linearGradient id="linearGradient2490-3-76"><stop id="stop2492-3-1" offset="0" stop-color="#365f0e" stop-opacity="1"/><stop id="stop2494-8-3" offset="1" stop-color="#84a718" stop-opacity="1"/></linearGradient><radialGradient id="radialGradient2873-966-168" cx="4.993" cy="43.5" r="2.5" fx="4.993" fy="43.5" gradientTransform="matrix(2.003784,0,0,1.4,27.98813,-17.4)" gradientUnits="userSpaceOnUse" xlink:href="#linearGradient3688-166-749"/><linearGradient id="linearGradient3688-166-749"><stop id="stop2883" offset="0" stop-color="#181818" stop-opacity="1"/><stop id="stop2885" offset="1" stop-color="#181818" stop-opacity="0"/></linearGradient><radialGradient id="radialGradient2875-742-326" cx="4.993" cy="43.5" r="2.5" fx="4.993" fy="43.5" gradientTransform="matrix(2.003784,0,0,1.4,-20.01187,-104.4)" gradientUnits="userSpaceOnUse" xlink:href="#linearGradient3688-464-309"/><linearGradient id="linearGradient3688-464-309"><stop id="stop2889" offset="0" stop-color="#181818" stop-opacity="1"/><stop id="stop2891" offset="1" stop-color="#181818" stop-opacity="0"/></linearGradient><linearGradient id="linearGradient2877-634-617" x1="25.058" x2="25.058" y1="47.028" y2="39.999" gradientUnits="userSpaceOnUse" xlink:href="#linearGradient3702-501-757"/><linearGradient id="linearGradient3702-501-757"><stop id="stop2895" offset="0" stop-color="#181818" stop-opacity="0"/><stop id="stop2897" offset=".5" stop-color="#181818" stop-opacity="1"/><stop id="stop2899" offset="1" stop-color="#181818" stop-opacity="0"/></linearGradient><linearGradient id="linearGradient3924"><stop id="stop3926" offset="0" stop-color="#fff" stop-opacity="1"/><stop id="stop3928" offset=".063" stop-color="#fff" stop-opacity=".235"/><stop id="stop3930" offset=".951" stop-color="#fff" stop-opacity=".157"/><stop id="stop3932" offset="1" stop-color="#fff" stop-opacity=".392"/></linearGradient><linearGradient id="linearGradient3259" x1="24" x2="24" y1="5" y2="43" gradientTransform="matrix(1.4324324,0,0,1.4362832,-2.3783747,-2.4707827)" gradientUnits="userSpaceOnUse" xlink:href="#linearGradient3924"/><radialGradient id="radialGradient3117" cx="7.496" cy="8.45" r="20" fx="7.496" fy="8.45" gradientTransform="matrix(1.9428467e-8,2.33699,-2.4722567,-4.3056275e-8,44.890102,-11.46736)" gradientUnits="userSpaceOnUse" xlink:href="#linearGradient3242-7"/><linearGradient id="linearGradient3242-7"><stop id="stop3244-5" offset="0" stop-color="#92e1f4" stop-opacity="1"/><stop id="stop3246-9" offset=".262" stop-color="#8cd9f0" stop-opacity="1"/><stop id="stop3248-7" offset=".661" stop-color="#38a4cd" stop-opacity="1"/><stop id="stop3250-8" offset="1" stop-color="#37a4cd" stop-opacity="1"/></linearGradient><linearGradient id="linearGradient3119" x1="24" x2="24" y1="44" y2="3.899" gradientTransform="translate(-6e-7,0.9674391)" gradientUnits="userSpaceOnUse" xlink:href="#linearGradient2490-3-9"/><linearGradient id="linearGradient2490-3-9"><stop id="stop2492-3-78" offset="0" stop-color="#136283" stop-opacity="1"/><stop id="stop2494-8-00" offset="1" stop-color="#46a9d2" stop-opacity="1"/></linearGradient><radialGradient id="radialGradient4043" cx="7.496" cy="8.45" r="20" fx="7.496" fy="8.45" gradientTransform="matrix(2.739912e-8,3.2957551,-3.4865158,-6.0720387e-8,61.460401,-19.382408)" gradientUnits="userSpaceOnUse" xlink:href="#linearGradient3242-7"/><linearGradient id="linearGradient4045" x1="24" x2="24" y1="44" y2="3.899" gradientTransform="matrix(1.4102564,0,0,1.4102564,-1.8461539,-1.846154)" gradientUnits="userSpaceOnUse" xlink:href="#linearGradient2490-3-9"/></defs><metadata id="metadata3269"/><g id="layer1"><g id="g2036" display="inline" transform="matrix(1.5000021,0,0,0.5555561,-4.0000114,35.888881)"><g id="g3712" opacity=".4" transform="matrix(1.052632,0,0,1.285713,-1.263158,-13.42854)"><rect id="rect2801" width="5" height="7" x="38" y="40" fill="url(#radialGradient2873-966-168)" fill-opacity="1" stroke="none"/><rect id="rect3696" width="5" height="7" x="-10" y="-47" fill="url(#radialGradient2875-742-326)" fill-opacity="1" stroke="none" transform="scale(-1,-1)"/><rect id="rect3700" width="28" height="7" x="10" y="40" fill="url(#linearGradient2877-634-617)" fill-opacity="1" stroke="none"/></g></g><rect stroke-linejoin="round" style="marker:none" id="rect5505-21" width="55" height="55" x="4.5" y="4.5" fill="url(#radialGradient4043)" fill-opacity="1" fill-rule="nonzero" stroke="url(#linearGradient4045)" stroke-dasharray="none" stroke-dashoffset="0" stroke-linecap="round" stroke-miterlimit="4" stroke-opacity="1" stroke-width="1" color="#000" display="inline" enable-background="accumulate" overflow="visible" rx="3" ry="3" visibility="visible"/><rect id="rect6741" width="53" height="53.142" x="5.5" y="5.429" fill="none" stroke="url(#linearGradient3259)" stroke-dasharray="none" stroke-dashoffset="0" stroke-linecap="round" stroke-linejoin="round" stroke-miterlimit="4" stroke-opacity="1" stroke-width="1" opacity=".5" rx="2" ry="2"/><path id="path3908-9-9-5" fill="none" stroke="#000" stroke-dasharray="none" stroke-linejoin="round" stroke-miterlimit="4" stroke-opacity=".039" stroke-width="3" d="m 17,29 7,20 7,-23 4,14 5,-14 5,14 7,0 0,-3 -5,0 -7,-19 -5,14 -4,-15 -7,23 -5,-14 -7,0 0,3 z" display="inline"/><path id="path3908-9-9" fill="none" stroke="#000" stroke-dasharray="none" stroke-linejoin="round" stroke-miterlimit="4" stroke-opacity=".039" stroke-width="2" d="m 17,29 7,20 7,-23 4,14 5,-14 5,14 7,0 0,-3 -5,0 -7,-19 -5,14 -4,-15 -7,23 -5,-14 -7,0 0,3 z" display="inline"/><path id="path3908-9" fill="none" stroke="#000" stroke-linejoin="round" stroke-opacity=".078" stroke-width="1" d="m 17,29 7,20 7,-23 4,14 5,-14 5,14 7,0 0,-3 -5,0 -7,-19 -5,14 -4,-15 -7,23 -5,-14 -7,0 0,3 z" display="inline"/><path id="path3908" fill="#fff" fill-opacity="1" stroke="none" d="m 12,29 5,0 7,20 7,-23 4,14 5,-14 5,14 7,0 0,-3 -5,0 -7,-19 -5,14 -4,-15 -7,23 -5,-14 -7,0 0,3" display="inline"/></g></svg>