<svg xmlns="http://www.w3.org/2000/svg" xmlns:xlink="http://www.w3.org/1999/xlink" width="32" height="32" version="1.1"><defs><linearGradient id="h" x1="156.09" x2="156.09" y1="24.324" y2="29.866" gradientUnits="userSpaceOnUse"><stop offset="0" stop-color="#fff"/><stop offset="1" stop-color="#fff" stop-opacity="0"/></linearGradient><linearGradient id="i" x1="158.08" x2="158.08" y1="38.954" y2="40.501" gradientUnits="userSpaceOnUse"><stop offset="0" stop-color="#fff"/><stop offset="1" stop-color="#fff" stop-opacity="0"/></linearGradient><radialGradient id="d" cx="152.93" cy="27.458" r="3.953" gradientTransform="matrix(-1.113 2.064 -1.4826 -.79932 366.94 -268.44)" gradientUnits="userSpaceOnUse"><stop offset="0" stop-color="#f0f0f0"/><stop offset="1" stop-color="#969696"/></radialGradient><linearGradient id="j" x1="157" x2="157" y1="14" y2="48" gradientTransform="matrix(.69565 0 0 .70685 193.35 424.04)" gradientUnits="userSpaceOnUse" xlink:href="#b"/><linearGradient id="b"><stop offset="0" stop-color="#fff"/><stop offset="1" stop-color="#fff" stop-opacity="0"/></linearGradient><radialGradient id="e" cx="157.02" cy="8.462" r="19.5" gradientTransform="matrix(-.70529 .73406 -.72053 -.69963 419.35 321.59)" gradientUnits="userSpaceOnUse" xlink:href="#c"/><linearGradient id="c"><stop offset="0" stop-color="#a0a0a0"/><stop offset="1" stop-color="#646464"/></linearGradient><linearGradient id="m" x1="157" x2="157" y1="14" y2="48" gradientTransform="matrix(.64654 0 0 .70685 201.08 422.04)" gradientUnits="userSpaceOnUse" xlink:href="#b"/><linearGradient id="k" x1="157.3" x2="157.3" y1="16.457" y2="7.326" gradientTransform="matrix(.68860 0 0 .80310 194.18 423.87)" gradientUnits="userSpaceOnUse" xlink:href="#c"/><radialGradient id="g" cx="4.993" cy="43.5" r="2.5" gradientTransform="matrix(2.0038 0 0 1.4 27.988 -17.4)" gradientUnits="userSpaceOnUse" xlink:href="#a"/><linearGradient id="a"><stop offset="0" stop-color="#181818"/><stop offset="1" stop-color="#181818" stop-opacity="0"/></linearGradient><radialGradient id="f" cx="4.993" cy="43.5" r="2.5" gradientTransform="matrix(2.0038 0 0 1.4 -20.012 -104.4)" gradientUnits="userSpaceOnUse" xlink:href="#a"/><linearGradient id="l" x1="25.058" x2="25.058" y1="47.028" y2="39.999" gradientUnits="userSpaceOnUse"><stop offset="0" stop-color="#181818" stop-opacity="0"/><stop offset=".5" stop-color="#181818"/><stop offset="1" stop-color="#181818" stop-opacity="0"/></linearGradient></defs><g transform="translate(-286.86 -427.79)"><g opacity=".4" transform="matrix(.84210 0 0 .39742 282.65 441.11)"><rect width="5" height="7" x="38" y="40" fill="url(#g)"/><rect width="5" height="7" x="-10" y="-47" fill="url(#f)" transform="scale(-1)"/><rect width="28" height="7" x="10" y="40" fill="url(#l)"/></g><path fill="url(#k)" stroke="#505050" stroke-linejoin="round" d="m289.36 434.29 2.6314-6h21.737l2.6314 6h-27" enable-background="new"/><rect width="23.275" height="23.326" x="291.27" y="432.29" fill="none" stroke="url(#m)" stroke-linecap="round" color="#000" opacity=".4" rx=".659" ry=".721"/><rect width="27" height="25" x="289.36" y="433.29" fill="url(#e)" stroke="#505050" stroke-linecap="round" color="#000" opacity=".99" rx="1.466" ry="1.473"/><path stroke="#000" stroke-linecap="round" stroke-linejoin="round" stroke-width="1.438" d="m162.03 30.531c-0.34173 0.08362-0.60653 0.25322-0.8125 0.40625l-2.4062 1.7812c-0.42842-0.1513-0.82549-0.375-1.3125-0.375-0.85325 0-1.5918 0.3143-2.25 0.75l-2.47-1.093c-1.1675-0.51358-2.5291 0.04598-3.0312 1.1875-0.49029 1.1146 0.0346 2.507 1.1562 3l2.5312 1.125c0.26972 1.4159 1.1952 2.5615 2.5 3.0938l0.46875 2.4375c0.22283 1.2047 1.4116 2.0369 2.625 1.8125 1.2047-0.22282 2.037-1.4115 1.8125-2.625l-0.5-2.5625c0.7807-0.76847 1.375-1.7325 1.375-2.9062 0-0.13231-0.0486-0.19421-0.0625-0.3125l2.25-1.6875c0.98743-0.7336 1.2048-2.1655 0.46875-3.1562-0.54541-0.73411-1.4631-1.0905-2.3438-0.875z" color="#000" opacity=".2" transform="matrix(.69565 0 0 .69549 193.35 424.79)"/><rect width="20.869" height="18.935" x="292.48" y="437.29" fill="none" stroke="#fff" stroke-linecap="round" color="#000" opacity=".4" rx="1.584" ry="1.548"/><rect width="20.869" height="19" x="292.48" y="436.29" fill="none" stroke="#505050" stroke-linecap="round" color="#000" rx="1.584" ry="1.553"/><rect width="25.043" height="23.326" x="290.39" y="434.29" fill="none" stroke="url(#j)" stroke-linecap="round" color="#000" opacity=".4" rx=".709" ry=".721"/><path fill="url(#d)" stroke="#505050" stroke-linecap="round" stroke-linejoin="round" stroke-width="1.033" d="m160.37 27.156c0 1.9848-1.609 3.5938-3.5938 3.5938s-3.5938-1.609-3.5938-3.5938 1.609-3.5937 3.5938-3.5937 3.5938 1.609 3.5938 3.5937z" color="#000" opacity=".99" transform="matrix(.96785 0 0 .96764 151.17 415.54)"/><path fill="#282828" stroke="#505050" stroke-width="2.56" d="m160.37 27.156c0 1.9848-1.609 3.5938-3.5938 3.5938s-3.5938-1.609-3.5938-3.5938 1.609-3.5937 3.5938-3.5937 3.5938 1.609 3.5938 3.5937z" color="#000" opacity=".99" transform="matrix(.39072 0 0 .39063 241.65 431.59)"/><rect width="1.47" height="4.189" x="541.12" y="20.133" fill="#b4b4b4" stroke="#3c3c3c" stroke-linecap="round" stroke-linejoin="round" color="#000" opacity=".99" rx=".735" ry=".735" transform="matrix(.59645 .80265 -.80277 .59628 0 0)"/><rect width="1.47" height="4.19" x="-290.74" y="453.47" fill="#b4b4b4" stroke="#3c3c3c" stroke-linecap="round" stroke-linejoin="round" color="#000" opacity=".99" rx=".735" ry=".735" transform="matrix(.40273 -.91532 .91538 .40258 0 0)"/><rect width="1.47" height="4.189" x="215.28" y="-502.49" fill="#b4b4b4" stroke="#3c3c3c" stroke-linecap="round" stroke-linejoin="round" color="#000" opacity=".99" rx=".735" ry=".735" transform="matrix(.98333 -.18184 -.18191 -.98331 0 0)"/><path fill="none" stroke="#b3b3b3" stroke-linecap="round" stroke-width="1" d="m306.25 447.49-2.5633 1.9887" enable-background="new"/><path fill="none" stroke="#b3b3b3" stroke-linecap="round" stroke-width="1" d="m299.15 448.42 2.4749 0.99436" enable-background="new"/><path fill="none" stroke="#b3b3b3" stroke-linecap="round" stroke-width="1" d="m303.26 451.73 0.37565 2.1434" enable-background="new"/><path fill="#b4b4b4" stroke="#505050" stroke-linecap="round" stroke-linejoin="round" stroke-width=".741" d="m159.36 39.762c0 0.85427-0.69252 1.5468-1.5468 1.5468-0.85427 0-1.5468-0.69252-1.5468-1.5468 0-0.85427 0.69253-1.5468 1.5468-1.5468s1.5468 0.69252 1.5468 1.5468z" color="#000" transform="matrix(1.3492 0 0 1.3489 89.984 396.38)"/><path fill="none" stroke="url(#i)" stroke-linecap="round" stroke-linejoin="round" stroke-width="1.01" d="m157.81 38.719c-0.59496 0-1.0312 0.43629-1.0312 1.0312 0 0.59496 0.44826 1.0625 1.0312 1.0625 0.58299 0 1.0625-0.47951 1.0625-1.0625s-0.46754-1.0312-1.0625-1.0312z" color="#000" transform="matrix(.99037 0 0 .99014 146.62 410.64)"/><path fill="none" stroke="url(#h)" stroke-width="1.458" d="m156.78 26.625c-0.3711 0-0.53125 0.16015-0.53125 0.53125s0.16015 0.53125 0.53125 0.53125 0.53125-0.16015 0.53125-0.53125-0.16015-0.53125-0.53125-0.53125z" color="#000" opacity=".6" transform="matrix(.68571 0 0 .68571 195.4 423.57)"/></g></svg>