<svg xmlns="http://www.w3.org/2000/svg" xmlns:svg="http://www.w3.org/2000/svg" xmlns:xlink="http://www.w3.org/1999/xlink" id="svg2" width="32" height="32" version="1.1"><defs id="defs4"><linearGradient id="linearGradient3880"><stop id="stop3882" offset="0" stop-color="#000" stop-opacity=".196"/><stop id="stop3884" offset="1" stop-color="#000" stop-opacity="0"/></linearGradient><linearGradient id="linearGradient3830"><stop id="stop3832" offset="0" stop-color="gray" stop-opacity=".51"/><stop id="stop3848" offset=".05" stop-color="gray" stop-opacity=".392"/><stop id="stop3846" offset=".904" stop-color="gray" stop-opacity=".471"/><stop id="stop3834" offset="1" stop-color="gray" stop-opacity=".588"/></linearGradient><linearGradient id="linearGradient3775"><stop id="stop3777" offset="0" stop-color="#fff" stop-opacity=".588"/><stop id="stop3779" offset="1" stop-color="#fff" stop-opacity="1"/></linearGradient><linearGradient id="linearGradient3765"><stop id="stop3767" offset="0" stop-color="#fff" stop-opacity="1"/><stop id="stop3769" offset="1" stop-color="#e4e4e4" stop-opacity="1"/></linearGradient><radialGradient id="radialGradient3899" cx="32.629" cy="60.415" r="26.29" fx="32.629" fy="60.415" gradientTransform="matrix(1,0,0,0.10474308,0,54.086896)" gradientUnits="userSpaceOnUse" xlink:href="#linearGradient3880"/><radialGradient id="radialGradient3914" cx="14.892" cy="-17.681" r="25.571" fx="14.892" fy="-17.681" gradientTransform="matrix(-1.7922484,4.7450628e-8,-3.529013e-8,-1.3329366,41.58142,-41.248313)" gradientUnits="userSpaceOnUse" xlink:href="#linearGradient3765"/><linearGradient id="linearGradient3970" x1="29.462" x2="29.462" y1="1008.808" y2="1033.228" gradientTransform="matrix(0.73339959,0,0,0.73339959,0.89791286,278.92476)" gradientUnits="userSpaceOnUse" xlink:href="#linearGradient3830"/><linearGradient id="linearGradient3974" x1="29.462" x2="29.462" y1="1008.808" y2="1033.228" gradientTransform="matrix(0.73339959,0,0,0.73339959,0.89791286,278.92476)" gradientUnits="userSpaceOnUse" xlink:href="#linearGradient3830"/><linearGradient id="linearGradient3980" x1="15.124" x2="15.124" y1="-18.801" y2="32.568" gradientUnits="userSpaceOnUse" xlink:href="#linearGradient3775"/><linearGradient id="linearGradient4013" x1="29.462" x2="29.462" y1="1008.808" y2="1033.228" gradientTransform="matrix(0.46373041,0,0,0.46373041,1.3924918,562.53315)" gradientUnits="userSpaceOnUse" xlink:href="#linearGradient3830"/><linearGradient id="linearGradient4017" x1="29.462" x2="29.462" y1="1008.808" y2="1033.228" gradientTransform="matrix(0.46373041,0,0,0.46373041,1.3924918,562.53315)" gradientUnits="userSpaceOnUse" xlink:href="#linearGradient3830"/><linearGradient id="linearGradient4023" x1="15.124" x2="15.124" y1="-18.801" y2="32.568" gradientUnits="userSpaceOnUse" xlink:href="#linearGradient3775"/><linearGradient id="linearGradient3785" x1="29.462" x2="29.462" y1="1008.808" y2="1033.228" gradientTransform="matrix(0.46373041,0,0,0.46373041,1.3924918,562.53315)" gradientUnits="userSpaceOnUse" xlink:href="#linearGradient3830"/><linearGradient id="linearGradient3789" x1="29.462" x2="29.462" y1="1008.808" y2="1033.228" gradientTransform="matrix(0.46373041,0,0,0.46373041,1.3924918,562.53315)" gradientUnits="userSpaceOnUse" xlink:href="#linearGradient3830"/></defs><metadata id="metadata7"/><g id="layer1" transform="translate(0,-1020.3622)"><g id="g3795"><path id="path3878" fill="url(#radialGradient3899)" fill-opacity="1" stroke="none" d="m 58.919613,60.414944 a 26.290409,2.7537384 0 1 1 -52.5808183,0 26.290409,2.7537384 0 1 1 52.5808183,0 z" transform="matrix(0.46373041,0,0,0.46373041,1.3924918,1021.4932)"/><path id="path2985" fill="url(#radialGradient3914)" fill-opacity="1" stroke="none" d="m 40.780711,6.8335247 a 25.570608,25.570608 0 1 1 -51.141216,0 25.570608,25.570608 0 1 1 51.141216,0 z" transform="matrix(0.53513975,0,0,0.53513975,7.8604693,1032.2811)"/><path id="path3755" fill="none" stroke="#828282" stroke-dasharray="none" stroke-miterlimit="4" stroke-opacity=".588" stroke-width="1.869" d="m 40.780711,6.8335247 a 25.570608,25.570608 0 1 1 -51.141216,0 25.570608,25.570608 0 1 1 51.141216,0 z" transform="matrix(0.53513975,0,0,0.53513975,7.8604693,1032.2811)"/><path id="path3773" fill="none" stroke="url(#linearGradient4023)" stroke-dasharray="none" stroke-miterlimit="4" stroke-opacity=".588" stroke-width="1.963" d="m 40.780711,6.8335247 a 25.570608,25.570608 0 1 1 -51.141216,0 25.570608,25.570608 0 1 1 51.141216,0 z" transform="matrix(0.49519345,0,0,0.49519345,8.4680558,1032.5539)"/><path id="rect3789" fill="url(#linearGradient3789)" fill-opacity="1" stroke="none" d="m 11.362696,1030.3297 c -3.1053917,0 -5.60824,2.5029 -5.60824,5.6083 0,3.1054 2.5028483,5.6082 5.60824,5.6082 l 9.274608,0 c 3.105391,0 5.608239,-2.5028 5.608239,-5.6082 0,-3.1054 -2.502848,-5.6083 -5.608239,-5.6083 l -9.274608,0 z m 10.984614,1.9274 c 0.04391,-0.01 0.08385,0 0.130424,0 0.372592,0 0.681104,0.294 0.681104,0.6667 0,0.3725 -0.308512,0.681 -0.681104,0.681 -0.372592,0 -0.666612,-0.3085 -0.666612,-0.681 0,-0.3261 0.228767,-0.6038 0.536188,-0.6667 z m -13.1148757,0.1449 0.5796627,0 c 0.1735265,0 0.318814,0.1308 0.318814,0.3044 l 0,0.8984 0.883987,0 c 0.173526,0 0.318815,0.1453 0.318815,0.3188 l 0,0.5652 c 0,0.1735 -0.145289,0.3188 -0.318815,0.3188 l -0.883987,0 0,0.8985 c 0,0.1735 -0.1452875,0.3043 -0.318814,0.3043 l -0.5796627,0 c -0.1735266,0 -0.3188152,-0.1308 -0.3188152,-0.3043 l 0,-0.8985 -0.8839861,0 c -0.1735259,0 -0.3188145,-0.1453 -0.3188145,-0.3188 l 0,-0.5652 c 0,-0.1735 0.1452886,-0.3188 0.3188145,-0.3188 l 0.8839861,0 0,-0.8984 c 0,-0.1736 0.1452886,-0.3044 0.3188152,-0.3044 z m 11.8830917,1.2028 c 0.372592,0 0.666612,0.294 0.666612,0.6666 0,0.3727 -0.29402,0.6812 -0.666612,0.6812 -0.372592,0 -0.681104,-0.3085 -0.681104,-0.6812 0,-0.3726 0.308512,-0.6666 0.681104,-0.6666 z m 2.738908,0 c 0.372592,0 0.681103,0.294 0.681103,0.6666 0,0.3727 -0.308511,0.6812 -0.681103,0.6812 -0.372593,0 -0.666613,-0.3085 -0.666613,-0.6812 0,-0.3726 0.29402,-0.6666 0.666613,-0.6666 z m -9.665881,0.5507 0.724579,0 c 0.173526,0 0.318814,0.1308 0.318814,0.3044 l 0,0.058 c 0,0.1736 -0.145288,0.3044 -0.318814,0.3044 l -0.724579,0 c -0.173527,0 -0.304323,-0.1308 -0.304323,-0.3044 l 0,-0.058 c 0,-0.1736 0.130796,-0.3044 0.304323,-0.3044 z m 2.999756,0 0.724578,0 c 0.173527,0 0.304324,0.1308 0.304324,0.3044 l 0,0.058 c 0,0.1736 -0.130797,0.3044 -0.304324,0.3044 l -0.724578,0 c -0.173527,0 -0.318815,-0.1308 -0.318815,-0.3044 l 0,-0.058 c 0,-0.1736 0.145288,-0.3044 0.318815,-0.3044 z m 5.289425,0.6521 c 0.372592,0 0.681104,0.2941 0.681104,0.6667 0,0.3725 -0.308512,0.681 -0.681104,0.681 -0.372592,0 -0.666612,-0.3085 -0.666612,-0.681 0,-0.3726 0.29402,-0.6667 0.666612,-0.6667 z m -9.651389,2.2897 c 0.878252,0 1.579582,0.7013 1.579582,1.5796 0,0.8783 -0.70133,1.594 -1.579582,1.594 -0.878253,0 -1.594074,-0.7157 -1.594074,-1.594 0,-0.8783 0.715821,-1.5796 1.594074,-1.5796 z m 6.405276,0 c 0.878253,0 1.594073,0.7013 1.594073,1.5796 0,0.8783 -0.71582,1.594 -1.594073,1.594 -0.878253,0 -1.594073,-0.7157 -1.594073,-1.594 0,-0.8783 0.71582,-1.5796 1.594073,-1.5796 z"/><path id="path3859" fill="#fff" fill-opacity=".196" stroke="none" d="m 16,1022.258 c -7.5573811,0 -13.6800474,6.1226 -13.6800474,13.68 0,4.7723 2.4407694,8.9706 6.1444282,11.4193 -0.4726461,-5.5379 1.7403892,-11.1958 6.4052762,-14.9698 3.722179,-3.0113 8.284809,-4.2315 12.680128,-3.7822 C 25.121742,1024.7884 20.85874,1022.258 16,1022.258 z"/><path id="path3927" fill="url(#linearGradient3785)" fill-opacity="1" stroke="none" d="m 11.362696,1030.3297 c -3.1053917,0 -5.60824,2.5029 -5.60824,5.6083 0,3.1054 2.5028483,5.6082 5.60824,5.6082 l 9.274608,0 c 3.105391,0 5.608239,-2.5028 5.608239,-5.6082 0,-3.1054 -2.502848,-5.6083 -5.608239,-5.6083 l -9.274608,0 z m 10.984614,1.9274 c 0.04391,-0.01 0.08385,0 0.130424,0 0.372592,0 0.681104,0.294 0.681104,0.6667 0,0.3725 -0.308512,0.681 -0.681104,0.681 -0.372592,0 -0.666612,-0.3085 -0.666612,-0.681 0,-0.3261 0.228767,-0.6038 0.536188,-0.6667 z m -13.1148757,0.1449 0.5796627,0 c 0.1735265,0 0.318814,0.1308 0.318814,0.3044 l 0,0.8984 0.883987,0 c 0.173526,0 0.318815,0.1453 0.318815,0.3188 l 0,0.5652 c 0,0.1735 -0.145289,0.3188 -0.318815,0.3188 l -0.883987,0 0,0.8985 c 0,0.1735 -0.1452875,0.3043 -0.318814,0.3043 l -0.5796627,0 c -0.1735266,0 -0.3188152,-0.1308 -0.3188152,-0.3043 l 0,-0.8985 -0.8839861,0 c -0.1735259,0 -0.3188145,-0.1453 -0.3188145,-0.3188 l 0,-0.5652 c 0,-0.1735 0.1452886,-0.3188 0.3188145,-0.3188 l 0.8839861,0 0,-0.8984 c 0,-0.1736 0.1452886,-0.3044 0.3188152,-0.3044 z m 11.8830917,1.2028 c 0.372592,0 0.666612,0.294 0.666612,0.6666 0,0.3727 -0.29402,0.6812 -0.666612,0.6812 -0.372592,0 -0.681104,-0.3085 -0.681104,-0.6812 0,-0.3726 0.308512,-0.6666 0.681104,-0.6666 z m 2.738908,0 c 0.372592,0 0.681103,0.294 0.681103,0.6666 0,0.3727 -0.308511,0.6812 -0.681103,0.6812 -0.372593,0 -0.666613,-0.3085 -0.666613,-0.6812 0,-0.3726 0.29402,-0.6666 0.666613,-0.6666 z m -9.665881,0.5507 0.724579,0 c 0.173526,0 0.318814,0.1308 0.318814,0.3044 l 0,0.058 c 0,0.1736 -0.145288,0.3044 -0.318814,0.3044 l -0.724579,0 c -0.173527,0 -0.304323,-0.1308 -0.304323,-0.3044 l 0,-0.058 c 0,-0.1736 0.130796,-0.3044 0.304323,-0.3044 z m 2.999756,0 0.724578,0 c 0.173527,0 0.304324,0.1308 0.304324,0.3044 l 0,0.058 c 0,0.1736 -0.130797,0.3044 -0.304324,0.3044 l -0.724578,0 c -0.173527,0 -0.318815,-0.1308 -0.318815,-0.3044 l 0,-0.058 c 0,-0.1736 0.145288,-0.3044 0.318815,-0.3044 z m 5.289425,0.6521 c 0.372592,0 0.681104,0.2941 0.681104,0.6667 0,0.3725 -0.308512,0.681 -0.681104,0.681 -0.372592,0 -0.666612,-0.3085 -0.666612,-0.681 0,-0.3726 0.29402,-0.6667 0.666612,-0.6667 z m -9.651389,2.2897 c 0.878252,0 1.579582,0.7013 1.579582,1.5796 0,0.8783 -0.70133,1.594 -1.579582,1.594 -0.878253,0 -1.594074,-0.7157 -1.594074,-1.594 0,-0.8783 0.715821,-1.5796 1.594074,-1.5796 z m 6.405276,0 c 0.878253,0 1.594073,0.7013 1.594073,1.5796 0,0.8783 -0.71582,1.594 -1.594073,1.594 -0.878253,0 -1.594073,-0.7157 -1.594073,-1.594 0,-0.8783 0.71582,-1.5796 1.594073,-1.5796 z"/><rect id="rect3933" width="20.5" height="11.279" x="5.76" y="1030.284" fill="none" stroke="#b4b4b4" stroke-dasharray="none" stroke-miterlimit="4" stroke-opacity=".588" stroke-width="1" rx="5.639" ry="5.639"/></g></g></svg>