<svg xmlns="http://www.w3.org/2000/svg" xmlns:svg="http://www.w3.org/2000/svg" xmlns:xlink="http://www.w3.org/1999/xlink" id="svg6333" width="32" height="32" version="1.1"><defs id="defs6335"><linearGradient id="linearGradient5809" x1="167.983" x2="167.983" y1="8.508" y2="54.78" gradientTransform="translate(-130,1.759402e-6)" gradientUnits="userSpaceOnUse" xlink:href="#linearGradient5803"/><linearGradient id="linearGradient5803"><stop id="stop5805" offset="0" stop-color="#fff5ef" stop-opacity="1"/><stop id="stop5807" offset="1" stop-color="#fef8dd" stop-opacity="1"/></linearGradient><linearGradient id="linearGradient5801" x1="27.096" x2="27.096" y1="10.881" y2="39.151" gradientTransform="matrix(1.4102564,0,0,1.4102564,0.391129,-2.2559982)" gradientUnits="userSpaceOnUse" xlink:href="#linearGradient3895-9-0-3-5-2-0-4-9"/><linearGradient id="linearGradient3895-9-0-3-5-2-0-4-9"><stop id="stop3897-0-5-7-89-6-6-7-0" offset="0" stop-color="#dc5639" stop-opacity="1"/><stop id="stop3899-8-7-06-3-8-3-8-0" offset="1" stop-color="#9d0f0f" stop-opacity="1"/></linearGradient><linearGradient id="linearGradient3381-5-4" x1="24" x2="24" y1="5" y2="43" gradientTransform="matrix(1.4324324,0,0,1.4362832,-2.378381,-2.4707782)" gradientUnits="userSpaceOnUse" xlink:href="#linearGradient3924-2-2-5-8"/><linearGradient id="linearGradient3924-2-2-5-8"><stop id="stop3926-9-4-9-6" offset="0" stop-color="#fff" stop-opacity="1"/><stop id="stop3928-9-8-6-5" offset=".063" stop-color="#fff" stop-opacity=".235"/><stop id="stop3930-3-5-1-7" offset=".951" stop-color="#fff" stop-opacity=".157"/><stop id="stop3932-8-0-4-8" offset="1" stop-color="#fff" stop-opacity=".392"/></linearGradient><radialGradient id="radialGradient3402-7-1-6" cx="6.73" cy="9.957" r="12.672" fx="6.2" fy="9.957" gradientTransform="matrix(0,13.393984,-16.443533,0,196.90205,-114.89368)" gradientUnits="userSpaceOnUse" xlink:href="#linearGradient2867-449-88-871-390-598-476-591-434-148-57-177-8-3-3-6-4-8-8-8"/><linearGradient id="linearGradient2867-449-88-871-390-598-476-591-434-148-57-177-8-3-3-6-4-8-8-8"><stop id="stop3750-1-0-7-6-6-1-3-9" offset="0" stop-color="#6db9ff" stop-opacity="1"/><stop id="stop3752-3-7-4-0-32-8-923-0" offset=".262" stop-color="#0988ff" stop-opacity="1"/><stop id="stop3754-1-8-5-2-7-6-7-1" offset=".705" stop-color="#007ef4" stop-opacity="1"/><stop id="stop3756-1-6-2-6-6-1-96-6" offset="1" stop-color="#005fb8" stop-opacity="1"/></linearGradient><radialGradient id="radialGradient3337-2-2" cx="4.993" cy="43.5" r="2.5" fx="4.993" fy="43.5" gradientTransform="matrix(2.003784,0,0,1.4,27.98813,-17.4)" gradientUnits="userSpaceOnUse" xlink:href="#linearGradient3688-166-749-4-0-3-8"/><linearGradient id="linearGradient3688-166-749-4-0-3-8"><stop id="stop2883-4-0-1-8" offset="0" stop-color="#181818" stop-opacity="1"/><stop id="stop2885-9-2-9-6" offset="1" stop-color="#181818" stop-opacity="0"/></linearGradient><radialGradient id="radialGradient3339-1-4" cx="4.993" cy="43.5" r="2.5" fx="4.993" fy="43.5" gradientTransform="matrix(2.003784,0,0,1.4,-20.01187,-104.4)" gradientUnits="userSpaceOnUse" xlink:href="#linearGradient3688-464-309-9-2-4-2"/><linearGradient id="linearGradient3688-464-309-9-2-4-2"><stop id="stop2889-7-9-6-9" offset="0" stop-color="#181818" stop-opacity="1"/><stop id="stop2891-6-6-1-7" offset="1" stop-color="#181818" stop-opacity="0"/></linearGradient><linearGradient id="linearGradient3702-501-757-8-4-1-1"><stop id="stop2895-8-9-9-1" offset="0" stop-color="#181818" stop-opacity="0"/><stop id="stop2897-7-8-7-7" offset=".5" stop-color="#181818" stop-opacity="1"/><stop id="stop2899-4-5-1-5" offset="1" stop-color="#181818" stop-opacity="0"/></linearGradient><linearGradient id="linearGradient6394" x1="25.058" x2="25.058" y1="47.028" y2="39.999" gradientUnits="userSpaceOnUse" xlink:href="#linearGradient3702-501-757-8-4-1-1"/><linearGradient id="linearGradient3028" x1="167.983" x2="167.983" y1="8.508" y2="54.78" gradientTransform="translate(-130,1.759402e-6)" gradientUnits="userSpaceOnUse" xlink:href="#linearGradient5803"/><linearGradient id="linearGradient3032" x1="27.096" x2="27.096" y1="10.881" y2="39.151" gradientTransform="matrix(1.4102564,0,0,1.4102564,0.391129,-2.2559982)" gradientUnits="userSpaceOnUse" xlink:href="#linearGradient3895-9-0-3-5-2-0-4-9"/><linearGradient id="linearGradient3796" x1="24" x2="24" y1="5" y2="43" gradientTransform="matrix(1.4324324,0,0,1.4362832,-2.378381,-2.4707782)" gradientUnits="userSpaceOnUse" xlink:href="#linearGradient3924-2-2-5-8"/><radialGradient id="radialGradient3799" cx="6.73" cy="9.957" r="12.672" fx="6.2" fy="9.957" gradientTransform="matrix(0,13.393984,-16.443533,0,196.90205,-114.89368)" gradientUnits="userSpaceOnUse" xlink:href="#linearGradient2867-449-88-871-390-598-476-591-434-148-57-177-8-3-3-6-4-8-8-8"/></defs><metadata id="metadata6338"/><g id="g3806"><g id="g3864" stroke-dasharray="none" stroke-miterlimit="4" stroke-width="2" transform="matrix(0.4999991,0,0,0.4999991,1.9000484e-6,-0.249945)"><g id="g3712-8-2-4-4" stroke-dasharray="none" stroke-miterlimit="4" stroke-width="1.883" opacity=".6" transform="matrix(1.5789502,0,0,0.7142857,-5.894751,27.928572)"><rect id="rect2801-5-5-7-9" width="5" height="7" x="38" y="40" fill="url(#radialGradient3337-2-2)" fill-opacity="1" stroke="none"/><rect id="rect3696-3-0-3-7" width="5" height="7" x="-10" y="-47" fill="url(#radialGradient3339-1-4)" fill-opacity="1" stroke="none" transform="scale(-1,-1)"/><rect id="rect3700-5-6-8-4" width="28" height="7" x="10" y="40" fill="url(#linearGradient6394)" fill-opacity="1" stroke="none"/></g><rect id="rect5505-21-3-8-5-2" width="55" height="55" x="4.5" y="4.5" fill="url(#radialGradient3799)" fill-opacity="1" fill-rule="nonzero" stroke="none" stroke-width="2" color="#000" display="inline" enable-background="accumulate" overflow="visible" rx="3" ry="3" visibility="visible" style="marker:none"/><rect id="rect6741-5-0-2-3" width="51.025" height="51.039" x="6.483" y="6.477" fill="none" stroke="url(#linearGradient3796)" stroke-dasharray="none" stroke-dashoffset="0" stroke-linecap="round" stroke-linejoin="round" stroke-miterlimit="4" stroke-opacity="1" stroke-width="2" opacity=".5" rx="1.039" ry="1.039"/><rect id="rect5505-21-3-8-9-1-1" width="55" height="55" x="4.5" y="4.5" fill="none" stroke="#003465" stroke-dasharray="none" stroke-dashoffset="0" stroke-linecap="round" stroke-linejoin="round" stroke-miterlimit="4" stroke-opacity="1" stroke-width="2" color="#000" display="inline" enable-background="accumulate" opacity=".4" overflow="visible" rx="3" ry="3" visibility="visible" style="marker:none"/></g><path font-stretch="normal" style="line-height:125%;-inkscape-font-specification:URW Gothic L Semi-Bold" id="path3034" fill="#000" fill-opacity="1" stroke="none" d="M 15.03125,3.84375 C 7.3486174,4.0475488 4.1726808,14.046799 8.875,19.5 3.4637577,17.901015 7.474468,23.281069 9,25.28125 c 5.082815,5.741168 16.395629,2.445844 16.21875,-5.6875 0.246242,-5.295991 0.01334,-10.1369096 0.09375,-15.4375 -3.503274,0.1279942 -6.852234,-0.030636 -10.28125,-0.3125 z m 1.1875,6.75 c 3.734532,0.591036 0.811594,7.510055 -1.875,3.875 -0.640414,-1.447446 -0.243039,-4.240497 1.875,-3.875 z" font-family="URW Gothic L" font-size="51.519" font-style="normal" font-variant="normal" font-weight="600" letter-spacing="0" opacity=".1" word-spacing="0"/><path id="path3800" fill="#f9f9f9" fill-opacity="1" stroke="none" d="m 20.113294,5.7011606 0,1.846248 c -1.031474,-1.476997 -2.540953,-2.189123 -4.553585,-2.189123 -3.949791,0 -6.8681151,3.217751 -6.8681151,7.5432444 0,4.510116 2.8680081,7.754243 6.8429561,7.754243 1.962317,0 3.270533,-0.659376 4.578744,-2.268248 -0.12579,3.13862 -1.408847,4.668371 -3.899479,4.668371 -1.55979,0 -2.515794,-0.422 -3.496952,-1.556123 l -3.7988481,0 c 1.1321061,2.927619 3.7485351,4.641996 7.1700101,4.641996 2.51579,0 4.503271,-0.923126 5.811482,-2.663873 0.981158,-1.345122 1.408844,-3.138625 1.408844,-5.93437 l 0,-11.8423654 -3.195057,0 m -4.176216,2.874872 c 2.39,0 4.025268,1.8198764 4.025268,4.4837474 0,2.637495 -1.584952,4.378246 -3.974953,4.378246 -2.39,0 -3.924637,-1.714376 -3.924637,-4.378246 0,-2.690245 1.534636,-4.4837474 3.874322,-4.4837474" font-family="URW Gothic L" font-size="51.519" font-stretch="normal" font-style="normal" font-variant="normal" font-weight="600" letter-spacing="0" word-spacing="0" style="line-height:125%;-inkscape-font-specification:URW Gothic L Semi-Bold"/></g></svg>