<svg xmlns="http://www.w3.org/2000/svg" xmlns:svg="http://www.w3.org/2000/svg" xmlns:xlink="http://www.w3.org/1999/xlink" id="svg4505" width="32" height="32" version="1.1"><defs id="defs4507"><linearGradient id="linearGradient4456" x1="71.204" x2="71.204" y1="15.369" y2="40.496" gradientTransform="matrix(1.1022033,0,0,1.1022038,-111.2554,-14.715001)" gradientUnits="userSpaceOnUse" xlink:href="#linearGradient4806-9"/><linearGradient id="linearGradient4806-9"><stop id="stop4808-49" offset="0" stop-color="#fff" stop-opacity="1"/><stop id="stop4810-05" offset=".424" stop-color="#fff" stop-opacity=".235"/><stop id="stop4812-6" offset=".821" stop-color="#fff" stop-opacity=".157"/><stop id="stop4814-7" offset="1" stop-color="#fff" stop-opacity=".392"/></linearGradient><radialGradient id="radialGradient3126-7-25-1" cx="18.164" cy="8.45" r="20" fx="8.895" fy="8.599" gradientTransform="matrix(0,0.97674024,-0.9227132,-1.1278942e-8,-23.90585,-1.8504794)" gradientUnits="userSpaceOnUse" xlink:href="#linearGradient3242-7-3-8-9-94"/><linearGradient id="linearGradient3242-7-3-8-9-94"><stop id="stop3244-5-8-5-3-7" offset="0" stop-color="#eef87e" stop-opacity="1"/><stop id="stop3246-9-5-1-2-9" offset=".262" stop-color="#cde34f" stop-opacity="1"/><stop id="stop3248-7-2-0-84-9" offset=".661" stop-color="#93b723" stop-opacity="1"/><stop id="stop3250-8-2-8-3-2" offset="1" stop-color="#5a7e0d" stop-opacity="1"/></linearGradient><linearGradient id="linearGradient3510" x1="-1085.959" x2="-474.685" y1="539.41" y2="375.619" gradientTransform="matrix(0.04972374,0,0,0.04180683,10.91005,-2.4805984)" gradientUnits="userSpaceOnUse" xlink:href="#XMLID_2_-8-6-1-2"/><radialGradient id="XMLID_2_-8-6-1-2" cx="299.448" cy="-290.592" r="17.153" fx="297.45" fy="-289.913" gradientTransform="matrix(0.8232,0.2312,0.2703,-0.9626,-96.2274,-315.3433)" gradientUnits="userSpaceOnUse"><stop id="stop228-2-7-9-0" offset="0" stop-color="#000" stop-opacity="1"/><stop id="stop230-7-5-7-7" offset="1" stop-color="#000" stop-opacity="0"/></radialGradient><radialGradient id="radialGradient3126-9" cx="15.645" cy="8.45" r="20" fx="-12.361" fy="8.45" gradientTransform="matrix(-4.7487871e-8,0.78038851,-0.73523897,-5.3752024e-8,-25.48997,1.6839966)" gradientUnits="userSpaceOnUse" xlink:href="#linearGradient2867-449-88-871-390-598-476-591-434-148-57-177-3-8-7"/><linearGradient id="linearGradient2867-449-88-871-390-598-476-591-434-148-57-177-3-8-7"><stop id="stop3750-8-9-6" offset="0" stop-color="#bebebe" stop-opacity="1"/><stop id="stop3752-3-2-2" offset=".262" stop-color="#969696" stop-opacity="1"/><stop id="stop3754-7-2-00" offset=".705" stop-color="#8e8e8e" stop-opacity="1"/><stop id="stop3756-9-3-69" offset="1" stop-color="#666" stop-opacity="1"/></linearGradient><linearGradient id="linearGradient3820-7-2-2"><stop id="stop3822-2-6-36" offset="0" stop-color="#3d3d3d" stop-opacity="1"/><stop id="stop3864-8-7-6" offset=".5" stop-color="#686868" stop-opacity=".498"/><stop id="stop3824-1-2-4" offset="1" stop-color="#686868" stop-opacity="0"/></linearGradient><radialGradient id="radialGradient4503" cx="99.157" cy="186.171" r="62.769" fx="99.157" fy="186.171" gradientTransform="matrix(1,0,0,0.1666667,0,155.14216)" gradientUnits="userSpaceOnUse" xlink:href="#linearGradient3820-7-2-2"/><radialGradient id="radialGradient4600" cx="99.157" cy="186.171" r="62.769" fx="99.157" fy="186.171" gradientTransform="matrix(1,0,0,0.1666667,0,155.14216)" gradientUnits="userSpaceOnUse" xlink:href="#linearGradient3820-7-2-2"/><radialGradient id="radialGradient4602" cx="15.645" cy="8.45" r="20" fx="-12.361" fy="8.45" gradientTransform="matrix(-4.7487871e-8,0.78038851,-0.73523897,-5.3752024e-8,-25.48997,1.6839966)" gradientUnits="userSpaceOnUse" xlink:href="#linearGradient2867-449-88-871-390-598-476-591-434-148-57-177-3-8-7"/><linearGradient id="linearGradient4604" x1="-1085.959" x2="-474.685" y1="539.41" y2="375.619" gradientTransform="matrix(0.04972374,0,0,0.04180683,10.91005,-2.4805984)" gradientUnits="userSpaceOnUse" xlink:href="#XMLID_2_-8-6-1-2"/><radialGradient id="radialGradient4606" cx="18.164" cy="8.45" r="20" fx="8.895" fy="8.599" gradientTransform="matrix(0,0.97674024,-0.9227132,-1.1278942e-8,-23.90585,-1.8504794)" gradientUnits="userSpaceOnUse" xlink:href="#linearGradient3242-7-3-8-9-94"/><linearGradient id="linearGradient4608" x1="71.204" x2="71.204" y1="15.369" y2="40.496" gradientTransform="matrix(1.1022033,0,0,1.1022038,-111.2554,-14.715001)" gradientUnits="userSpaceOnUse" xlink:href="#linearGradient4806-9"/><linearGradient id="linearGradient4611" x1="71.204" x2="71.204" y1="15.369" y2="40.496" gradientTransform="matrix(1.1022033,0,0,1.1022038,-63.55275,-14.715001)" gradientUnits="userSpaceOnUse" xlink:href="#linearGradient4806-9"/><radialGradient id="radialGradient4615" cx="18.164" cy="8.45" r="20" fx="8.895" fy="8.599" gradientTransform="matrix(0,0.97674024,-0.9227132,-1.1278942e-8,23.7968,-1.8504794)" gradientUnits="userSpaceOnUse" xlink:href="#linearGradient3242-7-3-8-9-94"/><linearGradient id="linearGradient4618" x1="-1085.959" x2="-474.685" y1="539.41" y2="375.619" gradientTransform="matrix(0.04972374,0,0,0.04180683,58.6127,-2.4805984)" gradientUnits="userSpaceOnUse" xlink:href="#XMLID_2_-8-6-1-2"/><radialGradient id="radialGradient4623" cx="15.645" cy="8.45" r="20" fx="-12.361" fy="8.45" gradientTransform="matrix(-4.7487871e-8,0.78038851,-0.73523897,-5.3752024e-8,22.21268,1.6839966)" gradientUnits="userSpaceOnUse" xlink:href="#linearGradient2867-449-88-871-390-598-476-591-434-148-57-177-3-8-7"/><linearGradient id="linearGradient3028" x1="71.204" x2="71.204" y1="15.369" y2="40.496" gradientTransform="matrix(1.1022033,0,0,1.1022038,-63.55275,-14.715001)" gradientUnits="userSpaceOnUse" xlink:href="#linearGradient4806-9"/><radialGradient id="radialGradient3032" cx="18.164" cy="8.45" r="20" fx="8.895" fy="8.599" gradientTransform="matrix(0,0.97674024,-0.9227132,-1.1278942e-8,23.7968,-1.8504794)" gradientUnits="userSpaceOnUse" xlink:href="#linearGradient3242-7-3-8-9-94"/><linearGradient id="linearGradient3035" x1="-1085.959" x2="-474.685" y1="539.41" y2="375.619" gradientTransform="matrix(0.04972374,0,0,0.04180683,58.6127,-2.4805984)" gradientUnits="userSpaceOnUse" xlink:href="#XMLID_2_-8-6-1-2"/><radialGradient id="radialGradient3040" cx="15.645" cy="8.45" r="20" fx="-.025" fy="8.45" gradientTransform="matrix(-4.7487871e-8,0.78038851,-0.73523897,-5.3752024e-8,22.21268,1.6839966)" gradientUnits="userSpaceOnUse" xlink:href="#linearGradient2867-449-88-871-390-598-476-591-434-148-57-177-3-8-7"/><radialGradient id="radialGradient3043" cx="99.157" cy="186.171" r="62.769" fx="99.157" fy="186.171" gradientTransform="matrix(0.14622705,0,0,0.02292717,1.5005636,26.29291)" gradientUnits="userSpaceOnUse" xlink:href="#linearGradient3820-7-2-2"/><radialGradient id="radialGradient5015" cx="99.157" cy="186.171" r="62.769" fx="99.157" fy="186.171" gradientTransform="matrix(0.33538589,0,0,0.05027819,-86.191673,26.279967)" gradientUnits="userSpaceOnUse" xlink:href="#linearGradient3820-7-2-2"/><radialGradient id="radialGradient4215" cx="29.85" cy="11.826" r="23.875" fx="29.85" fy="11.826" gradientTransform="matrix(0,1.1956622,-1.469013,0,33.371827,-33.627955)" gradientUnits="userSpaceOnUse" xlink:href="#linearGradient4230"/><linearGradient id="linearGradient4230"><stop id="stop4232" offset="0" stop-color="#87deaa" stop-opacity="1"/><stop id="stop4234" offset=".262" stop-color="#37c871" stop-opacity="1"/><stop id="stop4236" offset=".705" stop-color="#2ca05a" stop-opacity="1"/><stop id="stop4238" offset="1" stop-color="#217844" stop-opacity="1"/></linearGradient><linearGradient id="linearGradient4205" x1="32.438" x2="32.438" y1="-5.374" y2="66.123" gradientTransform="matrix(0.49124375,0,0,0.49124375,0.28019868,0.28076478)" gradientUnits="userSpaceOnUse" xlink:href="#linearGradient4806-9"/></defs><metadata id="metadata4510"/><g id="g4216"><path id="path3818-0-2" fill="url(#radialGradient3043)" fill-opacity="1" stroke="none" stroke-dasharray="none" stroke-miterlimit="4" stroke-width="1.707" d="m 25.178544,30.561274 a 9.1785433,1.4391179 0 1 1 -18.3570859,0 9.1785433,1.4391179 0 1 1 18.3570859,0 z"/><path id="path4187" fill="url(#radialGradient4215)" fill-opacity="1" fill-rule="evenodd" stroke="none" stroke-dasharray="none" stroke-linecap="butt" stroke-linejoin="miter" stroke-miterlimit="4" stroke-opacity="1" stroke-width="2.036" d="m 27.728318,13.237194 c 0,3.238686 -1.343964,11.274192 -11.701177,17.253932 C 16.027141,27.054373 16,26.472711 16,24.965514 9.5226271,24.965514 4.2716794,19.714566 4.2716799,13.237194 4.2716799,6.7598218 9.5226276,1.5088742 16,1.5088742 c 6.477372,0 11.728319,5.2509476 11.728319,11.7283198 z"/><path id="path4197" fill="none" stroke="url(#linearGradient4205)" stroke-dasharray="none" stroke-miterlimit="4" stroke-width="1" d="m 26.73402,13.236529 c 0.0124,4.148494 -2.091514,10.398199 -9.742676,15.480906 0,-3.207501 -0.0332,-3.657739 -0.0332,-4.755362 C 10.457341,24.351904 5.2590975,19.449384 5.2591005,13.236529 5.2591029,7.9050292 9.2764422,2.7547739 15.48465,2.5144924 22.053437,2.2602551 26.717071,7.5660462 26.73402,13.236529 Z" opacity=".5"/><g id="g4258" stroke-dasharray="none" stroke-miterlimit="4" stroke-width="2.036" transform="matrix(0.49124375,0,0,0.49124375,0.3523222,1.3246578)"><g id="g4246" stroke-dasharray="none" stroke-miterlimit="4" stroke-width="2.056" transform="matrix(0.9902094,0,0,0.9902094,2.2569,0.25203339)"><path id="rect4241" fill="#fff" fill-opacity="1" stroke="none" stroke-dasharray="none" stroke-miterlimit="4" stroke-opacity="1" stroke-width="2.056" d="m 17.887791,18.038058 6.528672,0 c 1.166737,0 2.106023,0.939287 2.106023,2.106024 l 0,6.528672 c 0,3.378061 -5.436734,7.747979 -5.42301,6.581323 l 0.05265,-4.4753 -3.264336,0 c -1.166737,0 -2.106023,-0.939286 -2.106023,-2.106023 l 0,-6.528672 c 0,-1.166737 0.939286,-2.106024 2.106028,-2.106024 z" opacity="1"/><path id="path4244" fill="#fff" fill-opacity="1" stroke="none" stroke-dasharray="none" stroke-miterlimit="4" stroke-opacity="1" stroke-width="2.056" d="m 35.361373,18.038058 6.528672,0 c 1.166737,0 2.106023,0.939287 2.106023,2.106024 l 0,6.528672 c 0,3.378061 -5.436734,7.747979 -5.42301,6.581323 l 0.05265,-4.4753 -3.264336,0 c -1.166737,0 -2.106023,-0.939286 -2.106023,-2.106023 l 0,-6.528672 c 0,-1.166737 0.939286,-2.106024 2.106028,-2.106024 z" opacity="1"/></g><path id="path4252" fill="none" fill-opacity="1" stroke="#052" stroke-dasharray="none" stroke-miterlimit="4" stroke-opacity="1" stroke-width="2.036" d="m 19.969559,18.113488 6.464752,0 c 1.155314,0 2.085404,0.930091 2.085404,2.085405 l 0,6.464752 c 0,3.344988 -5.383505,7.672122 -5.369916,6.516888 l 0.05213,-4.431484 -3.232376,0 c -1.155314,0 -2.085404,-0.93009 -2.085404,-2.085404 l 0,-6.464752 c 0,-1.155314 0.93009,-2.085405 2.085409,-2.085405 z" opacity=".5"/><path id="path4254" fill="none" fill-opacity="1" stroke="#16502d" stroke-dasharray="none" stroke-miterlimit="4" stroke-opacity="1" stroke-width="2.036" d="m 37.272064,18.113488 6.464752,0 c 1.155314,0 2.085404,0.930091 2.085404,2.085405 l 0,6.464752 c 0,3.344988 -5.383505,7.672122 -5.369915,6.516888 l 0.05213,-4.431484 -3.232376,0 c -1.155314,0 -2.085404,-0.93009 -2.085404,-2.085404 l 0,-6.464752 c 0,-1.155314 0.93009,-2.085405 2.085409,-2.085405 z" opacity=".5"/></g><path id="path4267" fill="none" fill-opacity="1" fill-rule="evenodd" stroke="#16502d" stroke-dasharray="none" stroke-linecap="butt" stroke-linejoin="miter" stroke-miterlimit="4" stroke-opacity="1" stroke-width="1" d="m 27.728318,13.237194 c 0,3.238686 -1.343964,11.274192 -11.701177,17.253932 C 16.027141,27.054373 16,26.472711 16,24.965514 9.5226271,24.965514 4.2716794,19.714566 4.2716799,13.237194 4.2716799,6.7598218 9.5226276,1.5088742 16,1.5088742 c 6.477372,0 11.728319,5.2509476 11.728319,11.7283198 z" opacity=".7"/></g></svg>