<svg xmlns="http://www.w3.org/2000/svg" xmlns:svg="http://www.w3.org/2000/svg" xmlns:xlink="http://www.w3.org/1999/xlink" id="svg6955" width="32" height="32" version="1.1"><defs id="defs6957"><linearGradient id="linearGradient6883" x1="22.643" x2="22.643" y1="26.967" y2="30.984" gradientTransform="translate(-0.2938755,2.5949995)" gradientUnits="userSpaceOnUse" xlink:href="#linearGradient3922"/><linearGradient id="linearGradient3922"><stop id="stop3924" offset="0" stop-color="#000" stop-opacity="1"/><stop id="stop3926-9" offset="1" stop-color="#000" stop-opacity="0"/></linearGradient><linearGradient id="linearGradient6886" x1="22.643" x2="22.643" y1="26.967" y2="30.984" gradientTransform="translate(-0.2938755,2.5949995)" gradientUnits="userSpaceOnUse" xlink:href="#linearGradient3922"/><linearGradient id="linearGradient6784" x1="132.341" x2="132.341" y1="2.292" y2="33.333" gradientTransform="matrix(0.86503711,0,0,1.0140235,-91.244634,3.7436765)" gradientUnits="userSpaceOnUse" xlink:href="#linearGradient6786"/><linearGradient id="linearGradient6786"><stop id="stop6788" offset="0" stop-color="#fff" stop-opacity="1"/><stop id="stop6790" offset=".464" stop-color="#fff" stop-opacity=".235"/><stop id="stop6792" offset=".762" stop-color="#fff" stop-opacity=".157"/><stop id="stop6794" offset="1" stop-color="#fff" stop-opacity=".392"/></linearGradient><linearGradient id="linearGradient3394-3" x1="-51.786" x2="-51.786" y1="53.514" y2="3.634" gradientTransform="matrix(0.80749834,0,0,0.83374395,59.410297,-0.3364531)" gradientUnits="userSpaceOnUse" xlink:href="#linearGradient3104-8-8-97-9"/><linearGradient id="linearGradient3104-8-8-97-9"><stop id="stop3106-5-4-3-6" offset="0" stop-color="#000" stop-opacity=".322"/><stop id="stop3108-4-3-7-0" offset="1" stop-color="#000" stop-opacity=".278"/></linearGradient><linearGradient id="linearGradient3600-8-3"><stop id="stop3828-7-6" offset="0" stop-color="#f4f4f4" stop-opacity="1"/><stop id="stop3794" offset=".696" stop-color="#e9e9e9" stop-opacity="1"/><stop id="stop3604-2-5" offset="1" stop-color="#dbdbdb" stop-opacity="1"/></linearGradient><linearGradient id="linearGradient8838-561-565"><stop id="stop4621" offset="0" stop-color="#0a0a0a" stop-opacity="1"/><stop id="stop4623" offset="1" stop-color="#0a0a0a" stop-opacity="0"/></linearGradient><radialGradient id="radialGradient6953" cx="62.625" cy="4.625" r="10.625" fx="62.625" fy="4.625" gradientTransform="matrix(2.1647059,0,0,0.7529402,-111.56471,34.517647)" gradientUnits="userSpaceOnUse" xlink:href="#linearGradient8838-561-565"/><radialGradient id="radialGradient3792" cx="24.003" cy="3.04" r="20.984" fx="24.003" fy="3.04" gradientTransform="matrix(0,1.7177641,-1.500366,0,28.565093,-35.624161)" gradientUnits="userSpaceOnUse" xlink:href="#linearGradient3600-8-3"/><linearGradient id="linearGradient3020" x1="22.643" x2="22.643" y1="26.967" y2="30.984" gradientTransform="matrix(0.65217391,0,0,0.65217391,0.15616468,2.2227214)" gradientUnits="userSpaceOnUse" xlink:href="#linearGradient3922"/><linearGradient id="linearGradient3023" x1="22.643" x2="22.643" y1="26.967" y2="30.984" gradientTransform="matrix(0.65217391,0,0,0.65217391,0.15616468,2.2227214)" gradientUnits="userSpaceOnUse" xlink:href="#linearGradient3922"/><linearGradient id="linearGradient3028" x1="132.341" x2="132.341" y1="2.292" y2="33.333" gradientTransform="matrix(0.56415463,0,0,0.66131967,-59.159547,2.9718585)" gradientUnits="userSpaceOnUse" xlink:href="#linearGradient6786"/><linearGradient id="linearGradient3031" x1="-51.786" x2="-51.786" y1="53.514" y2="3.634" gradientTransform="matrix(0.52662935,0,0,0.54374605,39.093668,0.31090423)" gradientUnits="userSpaceOnUse" xlink:href="#linearGradient3104-8-8-97-9"/><radialGradient id="radialGradient3034" cx="24.003" cy="3.04" r="20.984" fx="24.003" fy="3.04" gradientTransform="matrix(0,1.1202809,-0.97849956,0,18.977231,-22.70282)" gradientUnits="userSpaceOnUse" xlink:href="#linearGradient3600-8-3"/><radialGradient id="radialGradient3037" cx="62.625" cy="4.625" r="10.625" fx="62.625" fy="4.625" gradientTransform="matrix(1.4117647,0,0,0.49104795,-72.411771,23.041837)" gradientUnits="userSpaceOnUse" xlink:href="#linearGradient8838-561-565"/><radialGradient id="radialGradient3813" cx="24.003" cy="3.04" r="20.984" fx="24.003" fy="3.04" gradientTransform="matrix(0,1.1202809,-0.97849956,0,18.977231,-22.70282)" gradientUnits="userSpaceOnUse" xlink:href="#linearGradient3600-8-3"/><radialGradient id="radialGradient3816" cx="24.003" cy="3.04" r="20.984" fx="24.003" fy="3.04" gradientTransform="matrix(0,1.1202809,-0.97849956,0,18.977231,-22.70282)" gradientUnits="userSpaceOnUse" xlink:href="#linearGradient3600-8-3"/></defs><metadata id="metadata6960"/><path id="path8836" fill="url(#radialGradient3037)" fill-opacity="1" fill-rule="evenodd" stroke="none" stroke-width="1" d="m 30.99999,25.312937 c 0,2.881485 -6.715728,5.217391 -15,5.217391 -8.2842718,0 -15,-2.335906 -15,-5.217391 0,-2.881486 6.7157282,-5.217392 15,-5.217392 8.284272,0 15,2.335906 15,5.217392 l 0,0 z" display="inline" opacity=".2" overflow="visible" visibility="visible" style="marker:none"/><path id="path6603" fill="url(#radialGradient3816)" fill-opacity="1" fill-rule="nonzero" stroke="none" stroke-width=".985" d="M 15.96875 3.59375 C 11.102391 3.7753157 6.0261132 5.9854971 3.4375 10.3125 C 1.4905011 13.428815 1.6962346 17.682765 4 20.5625 C 4.8167896 21.695191 5.9172236 22.550731 7 23.34375 C 7.213978 24.077446 7.097136 24.802347 6.78125 25.5 C 6.4562985 26.217675 5.9434037 26.920685 5.46875 27.53125 L 5.3125 27.71875 L 5.53125 27.8125 C 5.9475374 27.982751 6.5515886 27.88633 7.1875 27.71875 C 7.8234114 27.551165 8.4751173 27.282832 8.96875 27.09375 C 10.162416 26.641358 11.248908 25.960851 12.3125 25.34375 C 12.32265 25.34565 12.3336 25.34195 12.34375 25.34375 C 17.800004 26.332507 23.921597 24.73485 27.5625 20.375 C 29.945986 17.629579 30.677081 13.460721 28.9375 10.1875 C 26.750885 5.9477534 21.909948 3.8101748 17.34375 3.625 C 16.885698 3.6061267 16.431172 3.5774121 15.96875 3.59375 z" color="#000" display="inline" enable-background="accumulate" overflow="visible" visibility="visible" style="marker:none"/><path id="path4111-6" fill="none" stroke="url(#linearGradient3031)" stroke-dasharray="none" stroke-dashoffset="0" stroke-linecap="butt" stroke-linejoin="round" stroke-miterlimit="4" stroke-opacity="1" stroke-width="1" d="m 15.96301,3.5087255 c -0.357898,0.013582 -0.710541,0.04017 -1.072639,0.074146 C 7.1653982,4.3076682 1.4022365,9.8640086 2.0186915,15.964472 c 0.3077491,3.045484 2.1561808,5.652805 4.8823611,7.414133 l 0,0.07415 c 0,0 0.8483126,1.435194 -2.034317,4.633834 0,0 3.1218228,0.194358 7.3605284,-2.632017 1.549537,0.296155 3.184815,0.381694 4.882361,0.222424 7.724984,-0.724793 13.488123,-6.244065 12.871678,-12.344534 -0.55866,-5.5285442 -6.149809,-9.6435242 -12.945652,-9.8237239 -0.351507,-0.00937 -0.714755,-0.013582 -1.072641,0 z" color="#000" display="inline" enable-background="accumulate" overflow="visible" visibility="visible" style="marker:none"/><path id="path6779" fill="none" stroke="url(#linearGradient3028)" stroke-dasharray="none" stroke-dashoffset="0" stroke-linecap="round" stroke-linejoin="miter" stroke-miterlimit="4" stroke-opacity="1" stroke-width="1" d="M 15.843233,4.4997164 C 11.290497,4.6791662 6.551176,6.7003663 4.1300834,10.669182 2.3456199,13.467393 2.520832,17.30655 4.6194091,19.896966 c 0.7753239,1.124103 2.2251098,1.867558 3.2452754,2.721419 0.6094631,1.427303 -0.053687,3.136752 -0.8605924,4.27714 2.0181274,-0.27454 3.3113429,-1.551193 5.0181659,-2.592525 1.022276,0.01362 2.053994,0.307691 3.093821,0.266925 4.725361,0.06451 9.735337,-1.90038 12.35858,-5.936181 C 29.343874,15.86484 29.267453,11.994278 27.216663,9.3397293 24.640627,5.8638208 20.077409,4.3573326 15.843233,4.4997164 z" color="#000" display="inline" enable-background="accumulate" overflow="visible" visibility="visible" style="marker:none"/><path font-stretch="normal" style="text-align:start;line-height:125%" id="path3393-4" fill="#fff" fill-opacity="1" stroke="none" d="m 15.258066,8.0468486 c -0.704475,-0.1009239 -1.427513,0.4324852 -1.44701,0.9986413 2.45e-4,0.00679 2.45e-4,0.013591 0,0.02038 -0.0037,0.046154 0.0094,0.1095247 0.02038,0.2038043 0.0011,0.00935 -0.0011,0.010389 0,0.02038 0.636374,3.0036238 0.853223,6.0179448 1.487772,8.9673898 0.384722,-0.04113 0.982483,-0.119993 1.385869,-0.163044 -0.08741,-2.910586 -0.352224,-5.802077 -0.387228,-8.7432045 -2.46e-4,-0.00679 -2.46e-4,-0.013591 0,-0.02038 0.05754,-0.5726935 -0.327916,-1.2194367 -1.039402,-1.2839674 -0.0068,2.459e-4 -0.01359,2.459e-4 -0.02038,0 l 0,0 z m 1.324729,12.3709224 c -0.401677,-0.04137 -0.798883,0.06539 -1.059783,0.366848 2.46e-4,0.0068 2.46e-4,0.01359 0,0.02038 -0.279964,0.290977 -0.440826,0.709414 -0.387228,1.100543 2.46e-4,0.0068 2.46e-4,0.01359 0,0.02038 0.0649,0.849888 1.103883,1.411562 1.854619,1.059783 0.0068,-2.46e-4 0.01359,-2.46e-4 0.02038,0 0.73123,-0.276452 1.038853,-1.328225 0.570652,-1.976903 -0.0071,-0.0065 -0.01394,-0.01325 -0.02038,-0.02038 -0.214688,-0.337796 -0.579962,-0.529631 -0.978261,-0.570652 z" font-family="Georgia" font-size="62.458" font-style="normal" font-variant="normal" font-weight="normal" text-anchor="start" writing-mode="lr-tb"/><path font-stretch="normal" style="text-align:start;line-height:125%" id="path3393" fill="#878787" fill-opacity="1" stroke="none" d="m 15.258066,7.3946754 c -0.704475,-0.1009239 -1.427513,0.4324852 -1.44701,0.9986406 2.45e-4,0.00679 2.45e-4,0.013591 0,0.02038 -0.0037,0.046154 0.0094,0.1095247 0.02038,0.2038043 0.0011,0.00935 -0.0011,0.010389 0,0.02038 0.636374,3.0036237 0.853223,6.0179447 1.487772,8.9673897 0.384722,-0.04113 0.982483,-0.119993 1.385869,-0.163044 -0.08741,-2.910586 -0.352224,-5.802077 -0.387228,-8.7432044 -2.46e-4,-0.00679 -2.46e-4,-0.013591 0,-0.02038 0.05754,-0.5726935 -0.327916,-1.2194361 -1.039402,-1.2839667 -0.0068,2.458e-4 -0.01359,2.458e-4 -0.02038,0 l 0,0 z m 1.324729,12.3709216 c -0.401677,-0.04137 -0.798883,0.06539 -1.059783,0.366848 2.46e-4,0.0068 2.46e-4,0.01359 0,0.02038 -0.279964,0.290977 -0.440826,0.709414 -0.387228,1.100544 2.46e-4,0.0068 2.46e-4,0.01359 0,0.02038 0.0649,0.849888 1.103883,1.411562 1.854619,1.059783 0.0068,-2.46e-4 0.01359,-2.46e-4 0.02038,0 0.73123,-0.276452 1.038853,-1.328225 0.570652,-1.976903 -0.0071,-0.0065 -0.01394,-0.01325 -0.02038,-0.02038 -0.214688,-0.337795 -0.579962,-0.52963 -0.978261,-0.570652 z" font-family="Georgia" font-size="62.458" font-style="normal" font-variant="normal" font-weight="normal" text-anchor="start" writing-mode="lr-tb"/><path id="path3920" fill="#fff" fill-opacity="1" stroke="url(#linearGradient3020)" stroke-opacity="1" stroke-width="1" d="m 16.562414,20.0556 c -0.894607,-0.178067 -1.522847,1.094964 -0.895676,1.721649 0.451987,0.522102 1.441382,0.504068 1.722144,-0.184565 0.344677,-0.597949 -0.03648,-1.395709 -0.707306,-1.518652 l -0.119162,-0.01843 z" font-family="Georgia" font-size="62.458" font-stretch="normal" font-style="normal" font-variant="normal" font-weight="normal" opacity=".1" text-anchor="start" writing-mode="lr-tb" style="text-align:start;line-height:125%"/><path id="path3796" fill="#fff" fill-opacity="1" stroke="none" d="m 7.1915387,23.230716 c 1.0749671,0.783 2.356845,0.974226 2.356845,0.974226 0,0 -1.0206757,1.964741 -3.5627138,3.013769 2.1559662,-3.157942 1.2058688,-3.987995 1.2058688,-3.987995 z" opacity=".3"/></svg>