<svg xmlns="http://www.w3.org/2000/svg" xmlns:xlink="http://www.w3.org/1999/xlink" id="svg4505" width="32" height="32" version="1.1"><defs id="defs4507"><linearGradient id="linearGradient4004" x1="101.19" x2="94.997" y1="76.118" y2="91.872" gradientTransform="matrix(0.14102683,0,0,0.13971485,12.603996,12.90079)" gradientUnits="userSpaceOnUse"><stop id="stop4022" offset="0" stop-color="#FFF"/><stop id="stop4028" offset="1" stop-color="#FFF" stop-opacity="0"/></linearGradient><linearGradient id="linearGradient3962" x1="93.816" x2="85.47" y1="10.463" y2="89.139" gradientTransform="matrix(0.21141715,0,0,0.20411832,2.7188994,2.6441913)" gradientUnits="userSpaceOnUse"><stop id="stop3966" offset="0" stop-color="#FFF"/><stop id="stop3968" offset=".296" stop-color="#FFF" stop-opacity=".235"/><stop id="stop3970" offset=".889" stop-color="#FFF" stop-opacity=".157"/><stop id="stop3972" offset="1" stop-color="#FFF" stop-opacity=".392"/></linearGradient><linearGradient id="linearGradient3911" x1="54.32" x2="54.506" y1="11.726" y2="121.18" gradientTransform="matrix(0.22030368,0,0,0.22218665,0.9008933,2.3551768)" gradientUnits="userSpaceOnUse"><stop id="stop3915" offset="0" stop-color="#FFF"/><stop id="stop3917" offset=".405" stop-color="#FFF" stop-opacity=".235"/><stop id="stop3919" offset=".892" stop-color="#FFF" stop-opacity=".157"/><stop id="stop3921" offset="1" stop-color="#FFF" stop-opacity=".392"/></linearGradient><linearGradient id="linearGradient4062" x1="90.726" x2="89.038" y1="60.429" y2="127.88" gradientTransform="matrix(0.21888573,0,0,0.21828587,3.6437048,4.0569598)" gradientUnits="userSpaceOnUse"><stop id="stop3929" offset="0" stop-color="#6cf46c"/><stop id="stop3935" offset="1" stop-color="#158415"/></linearGradient><linearGradient id="linearGradient4054" x1="45.176" x2="46.816" y1="4.968" y2="126.17" gradientTransform="matrix(0.24065103,0,0,0.24020629,-0.05416415,1.1382947)" gradientUnits="userSpaceOnUse"><stop id="stop3890" offset="0" stop-color="#ff8f6e"/><stop id="stop3896" offset="1" stop-color="#c10500"/></linearGradient><linearGradient id="linearGradient4046" x1="88.09" x2="86.977" y1="82.382" y2="8.542" gradientTransform="matrix(0.2406679,0,0,0.23171755,-0.05430752,1.2572612)" gradientUnits="userSpaceOnUse"><stop id="stop4060" offset="0" stop-color="#2d75db"/><stop id="stop4062" offset="1" stop-color="#9bc5ff"/></linearGradient><radialGradient id="radialGradient3819" cx="99.157" cy="186.17" r="62.769" gradientTransform="matrix(0.14537159,0,0,0.05158655,-0.06184307,17.618741)" gradientUnits="userSpaceOnUse" xlink:href="#linearGradient3820-7-2-8-6"/><linearGradient id="linearGradient3820-7-2-8-6"><stop id="stop3822-2-6-5-0" offset="0" stop-color="#3d3d3d"/><stop id="stop3864-8-7-4-1" offset=".5" stop-color="#686868" stop-opacity=".498"/><stop id="stop3824-1-2-6-7" offset="1" stop-color="#686868" stop-opacity="0"/></linearGradient><radialGradient id="radialGradient3183" cx="99.157" cy="186.17" r="62.769" gradientTransform="matrix(0.05201706,0,0,0.04342761,21.96554,19.475997)" gradientUnits="userSpaceOnUse" xlink:href="#linearGradient3820-7-2-8-6"/></defs><metadata id="metadata4510"/><path id="path3093" fill="url(#radialGradient3183)" d="m30.388,27.561a3.2651,2.7259,0,0,1,-6.5301,0,3.2651,2.7259,0,1,1,6.5301,0z" opacity=".317"/><path id="path3818-0-5-0" fill="url(#radialGradient3819)" d="m23.478,27.223a9.1248,3.238,0,1,1,-18.25,0,9.1248,3.238,0,1,1,18.25,0z"/><path id="path2555-5" fill="url(#linearGradient4046)" fill-rule="nonzero" d="m16.431,4.5014,0,12.049,11.394,4.9819c0.71906-1.5194,1.1206-3.205,1.1206-4.9819,0-6.6484-5.6095-12.049-12.515-12.049z" color="#000" enable-background="accumulate"/><path id="path3828" fill="url(#linearGradient4054)" fill-rule="nonzero" d="m14.505,4.5012c-6.9047,0-12.514,5.5988-12.514,12.491,0,6.892,5.6091,12.491,12.514,12.491,2.8916,0,5.5504-0.98716,7.6708-2.6348l-7.6708-9.856v-12.491z" color="#000" enable-background="accumulate"/><path id="path3852" fill="url(#linearGradient4062)" d="m19.954,20.505,6.977,8.9565c1.4458-1.1224,2.6177-2.5821,3.3859-4.2634l-10.363-4.694z"/><path id="path3879" fill="none" stroke="#760300" stroke-width="1" d="m14.505,4.5012c-6.9047,0-12.514,5.5988-12.514,12.491,0,6.892,5.6091,12.491,12.514,12.491,2.8916,0,5.5504-0.98716,7.6708-2.6348l-7.6708-9.856v-12.491z" color="#000" enable-background="accumulate" opacity=".4"/><path id="path3883" fill="none" stroke="#143b73" stroke-width="1" d="m16.431,4.5014,0,12.049,11.394,4.9819c0.71905-1.5194,1.1206-3.205,1.1206-4.9819,0-6.6484-5.6095-12.049-12.515-12.049z" color="#000" enable-background="accumulate" opacity=".4"/><path id="path3885" fill="none" stroke="#0a410a" stroke-dasharray="none" stroke-linecap="butt" stroke-linejoin="miter" stroke-miterlimit="4.3" stroke-width="1" d="m19.954,20.505,6.977,8.9565c1.4458-1.1224,2.6177-2.5821,3.3859-4.2634l-10.363-4.694z" opacity=".4"/><path id="path3887" fill="none" stroke="url(#linearGradient3911)" stroke-width="1" d="m3.0046,17.476c0.53906,9.1843,10.37,13.857,17.733,9.1762-2.3068-3.0036-7.2303-9.2979-7.2303-9.2979s0.0044-7.9818,0.0044-11.787c-6.0655,0.6035-10.635,5.43-10.507,11.909z" color="#000" enable-background="accumulate" opacity=".4"/><path id="path3923" fill="none" stroke="url(#linearGradient3962)" stroke-width="1" d="m17.419,15.938c3.2153,1.4161,6.6629,2.8942,9.8782,4.3103,2.5257-6.8815-2.6073-14.207-9.8599-14.708,0,3.4211-0.01826,6.9769-0.01826,10.398z" color="#000" enable-background="accumulate" opacity=".4"/><path id="path3974" fill="none" stroke="url(#linearGradient4004)" stroke-dasharray="none" stroke-miterlimit="4.2" stroke-width="1" d="m27.069,28.16c0.79627-0.7688,1.5242-1.7052,2.0054-2.5279-2.0209-0.89689-6.1017-2.7717-6.1017-2.7717s2.9415,3.8536,4.0963,5.2996z" opacity=".4"/></svg>