<svg xmlns="http://www.w3.org/2000/svg" xmlns:xlink="http://www.w3.org/1999/xlink" id="svg4505" width="32" height="32" version="1.1"><defs id="defs4507"><linearGradient id="linearGradient3071" x1="71.204" x2="71.204" y1="6.238" y2="44.341" gradientTransform="matrix(0.72972969,0,0,0.72972969,-36.346077,-2.5039312)" gradientUnits="userSpaceOnUse"><stop id="stop4013" offset="0" stop-color="#FFF"/><stop id="stop4015" offset=".508" stop-color="#FFF" stop-opacity=".235"/><stop id="stop4017" offset=".835" stop-color="#FFF" stop-opacity=".157"/><stop id="stop4019" offset="1" stop-color="#FFF" stop-opacity=".392"/></linearGradient><radialGradient id="radialGradient3074" cx="8.776" cy="8.45" r="20" gradientTransform="matrix(-1.5991318e-8,1.0999415,-1.0529944,-1.5308786e-8,24.897641,-3.7330646)" gradientUnits="userSpaceOnUse"><stop id="stop4087" offset="0" stop-color="#06abec"/><stop id="stop4093" offset=".144" stop-color="#0da6f6"/><stop id="stop4091" offset=".326" stop-color="#1e9df5"/><stop id="stop4089" offset="1" stop-color="#1953f1"/></radialGradient><radialGradient id="radialGradient3077" cx="99.157" cy="186.17" r="62.769" gradientTransform="matrix(0.17524541,0,0,0.05575992,-1.37681,18.119145)" gradientUnits="userSpaceOnUse"><stop id="stop3822-2-6-36" offset="0" stop-color="#3d3d3d"/><stop id="stop3864-8-7-6" offset=".5" stop-color="#686868" stop-opacity=".498"/><stop id="stop3824-1-2-4" offset="1" stop-color="#686868" stop-opacity="0"/></radialGradient></defs><metadata id="metadata4510"/><path id="path3818-0-2" fill="url(#radialGradient3077)" d="m27,28.5a11,3.5,0,1,1,-22,0,11,3.5,0,1,1,22,0z"/><path id="path2555" fill="url(#radialGradient3074)" fill-rule="nonzero" d="M16,1.5c-8.0006,0-14.5,6.4994-14.5,14.5,0,8.001,6.4994,14.5,14.5,14.5,8.001,0,14.5-6.499,14.5-14.5,0-8.0006-6.499-14.5-14.5-14.5z" color="#000" enable-background="accumulate"/><path id="path8655" fill="none" stroke="url(#linearGradient3071)" stroke-dasharray="none" stroke-dashoffset="0" stroke-linecap="round" stroke-linejoin="round" stroke-miterlimit="4" stroke-width="1" d="m29.5,16c0,7.4561-6.0446,13.5-13.5,13.5-7.4557,0-13.5-6.044-13.5-13.5,0-7.4562,6.0443-13.5,13.5-13.5,7.455,0,13.5,6.0438,13.5,13.5z" color="#000" enable-background="accumulate" opacity=".5"/><path id="path2555-6" fill="none" stroke="#00537d" stroke-dasharray="none" stroke-dashoffset="0" stroke-linecap="round" stroke-linejoin="round" stroke-miterlimit="4" stroke-width="1" d="M16,1.5c-8.0006,0-14.5,6.4994-14.5,14.5,0,8.001,6.4994,14.5,14.5,14.5,8.001,0,14.5-6.499,14.5-14.5,0-8.0006-6.499-14.5-14.5-14.5z" color="#000" enable-background="accumulate" opacity=".5"/><path id="path3803" fill="none" stroke="#000" stroke-dasharray="none" stroke-miterlimit="4" stroke-width="2" d="m16.69,8.5286,0,14.221,1.5772,0,0-1.6469c0.92046,0.551,2.0404,0.85337,3.1632,0.85396,1.4469-0.0013,2.8843-0.51277,3.9068-1.3902,1.0226-0.87741,1.6178-2.11,1.6178-3.3502s-0.5952-2.4728-1.6178-3.3502c-1.0226-0.87741-2.46-1.3889-3.9068-1.3902-1.1227,0.000585-2.2427,0.30296-3.1632,0.85396v-4.8014zm-3.1632,3.1632,0,1.6469c-0.91928-0.55407-2.0394-0.85955-3.1632-0.86268-1.4469,0.0013-2.8843,0.51277-3.9068,1.3902-1.0226,0.87741-1.6178,2.11-1.6178,3.3502s0.59521,2.4728,1.6178,3.3502c1.0226,0.87741,2.46,1.3889,3.9068,1.3902,1.1217,0.002,2.2415-0.2973,3.1632-0.84525v4.8014h1.5772v-14.221zm-3.1632,2.3702c1.2237,0.0012,2.4321,0.48718,3.1632,1.2722v3.7731c-0.73108,0.78506-1.9395,1.2711-3.1632,1.2722-1.0343-0.000615-2.0619-0.34189-2.7927-0.92747-0.73076-0.58558-1.1557-1.4082-1.1547-2.2357,0.002-0.826,0.42807-1.6463,1.1586-2.2301,0.7305-0.58374,1.7563-0.92378,2.7888-0.92438zm11.067,0c1.0325,0.000614,2.0584,0.34064,2.7888,0.92438,0.73048,0.58375,1.1566,1.4041,1.1586,2.2301,0.00094,0.82745-0.42394,1.6501-1.1547,2.2357-0.73075,0.58558-1.7584,0.92686-2.7927,0.92747-1.2237-0.0012-2.4321-0.48718-3.1632-1.2722v-3.7731c0.73106-0.78505,1.9394-1.2711,3.1632-1.2722z" opacity=".15"/><path id="path3033" fill="#000" d="m16.69,8.5286,0,14.221,1.5772,0,0-1.6469c0.92046,0.55101,2.0404,0.85337,3.1632,0.85397,1.4469-0.0013,2.8843-0.51277,3.9068-1.3902,1.0226-0.87742,1.6178-2.11,1.6178-3.3502s-0.59521-2.4728-1.6178-3.3502c-1.0226-0.87741-2.46-1.3889-3.9068-1.3902-1.1227,0.000586-2.2427,0.30296-3.1632,0.85397v-4.8014zm-3.1631,3.1632,0,1.6469c-0.91928-0.55407-2.0394-0.85955-3.1632-0.86268-1.4469,0.0013-2.8843,0.51277-3.9069,1.3902-1.0226,0.87741-1.6178,2.11-1.6178,3.3502s0.59518,2.4728,1.6178,3.3502c1.0226,0.87741,2.46,1.3889,3.9069,1.3902,1.1216,0.002,2.2415-0.2973,3.1632-0.84525v4.8014h1.5772v-14.221zm-3.1632,2.3702c1.2237,0.0012,2.4321,0.48718,3.1632,1.2722v3.7731c-0.73108,0.78505-1.9395,1.2711-3.1632,1.2722-1.0343-0.000613-2.0619-0.34189-2.7927-0.92746-0.73076-0.58558-1.1557-1.4082-1.1547-2.2357,0.002-0.826,0.42807-1.6463,1.1586-2.2301,0.7305-0.58375,1.7564-0.92378,2.7889-0.92438zm11.067,0c1.0325,0.000614,2.0584,0.34064,2.7888,0.92438,0.73049,0.58375,1.1567,1.4041,1.1586,2.2301,0.00095,0.82745-0.42394,1.6501-1.1547,2.2357-0.73075,0.58558-1.7584,0.92686-2.7927,0.92746-1.2237-0.0012-2.4321-0.48718-3.1632-1.2722v-3.7731c0.73107-0.78505,1.9394-1.2711,3.1632-1.2722z" opacity=".15"/><path id="path3060" fill="#FFF" d="m16.69,7.5286,0,14.221,1.5772,0,0-1.6469c0.92046,0.551,2.0404,0.85337,3.1632,0.85396,1.4469-0.0013,2.8843-0.51277,3.9068-1.3902,1.0226-0.87741,1.6178-2.11,1.6178-3.3502s-0.59521-2.4728-1.6178-3.3502c-1.0226-0.87741-2.46-1.3889-3.9068-1.3902-1.1227,0.000586-2.2427,0.30296-3.1632,0.85396v-4.8014zm-3.1631,3.1632,0,1.6469c-0.91928-0.55407-2.0394-0.85955-3.1632-0.86268-1.4469,0.0013-2.8843,0.51277-3.9069,1.3902-1.0226,0.87742-1.6178,2.11-1.6178,3.3502s0.59518,2.4728,1.6178,3.3502c1.0226,0.87741,2.46,1.3889,3.9069,1.3902,1.1216,0.002,2.2415-0.2973,3.1632-0.84525v4.8014h1.5772v-14.221zm-3.1632,2.3702c1.2237,0.0012,2.4321,0.48718,3.1632,1.2722v3.7731c-0.73108,0.78505-1.9395,1.2711-3.1632,1.2722-1.0343-0.000612-2.0619-0.34189-2.7927-0.92746-0.73076-0.58558-1.1557-1.4082-1.1547-2.2357,0.002-0.826,0.42807-1.6463,1.1586-2.2301,0.7305-0.58375,1.7564-0.92378,2.7889-0.92438zm11.067,0c1.0325,0.000614,2.0584,0.34064,2.7888,0.92438,0.73049,0.58374,1.1567,1.4041,1.1586,2.2301,0.00095,0.82745-0.42394,1.6501-1.1547,2.2357-0.73075,0.58558-1.7584,0.92686-2.7927,0.92746-1.2237-0.0012-2.4321-0.48718-3.1632-1.2722v-3.7731c0.73107-0.78506,1.9394-1.2711,3.1632-1.2722z"/></svg>