<svg xmlns="http://www.w3.org/2000/svg" width="22" height="22" version="1.1" viewBox="0 0 22 22"><g><g fill="#fff"><path d="m12.906 1034.3a1.0001 1.0001 0 0 0 -0.90625 1v13a1.0001 1.0001 0 1 0 2 0v-12h1a1.0001 1.0001 0 1 0 0 -2h-2a1.0001 1.0001 0 0 0 -0.0937 0z" color="#000" transform="translate(0 -1030.4) matrix(-1 0 0 1 16.014 0)" style="text-indent:0;block-progression:tb;text-decoration-line:none;text-transform:none"/><path d="m13 1039.3v0.5 2 0.5h0.5 2 0.5v-0.5-2-0.5h-0.5-2-0.5zm1 1h1v1h-1v-1z" color="#000" enable-background="new" transform="translate(0 -1030.4) matrix(-1 0 0 1 16.014 0)" style="text-indent:0;block-progression:tb;text-decoration-line:none;text-transform:none"/><path d="m13 1043.3v0.5 2 0.5h0.5 2 0.5v-0.5-2-0.5h-0.5-2-0.5zm1 1h1v1h-1v-1z" color="#000" enable-background="new" transform="translate(0 -1030.4) matrix(-1 0 0 1 16.014 0)" style="text-indent:0;block-progression:tb;text-decoration-line:none;text-transform:none"/><path d="m0 1037.3v1 10 1h1 8 1v-1-1h1v-2h-1-1-1v1 1h-6v-8h2 1 5 0.5 0.5v-2h-0.5-0.5-5-1-3-1z" color="#000" transform="translate(0 -1030.4) matrix(-1 0 0 1 16.014 0)" style="text-indent:0;block-progression:tb;text-decoration-line:none;text-transform:none"/><path d="m3 1040.4v4h1v-4h-1zm2 0v4h1v-4h-1zm2 0v4h1v-4h-1zm2 0v4h1v-4h-1z" transform="translate(0 -1030.4) matrix(-1 0 0 1 16.014 0)"/></g></g></svg>