<svg xmlns="http://www.w3.org/2000/svg" xmlns:svg="http://www.w3.org/2000/svg" id="Layer_1" width="24" height="24" x="0" y="0" enable-background="new 0 0 512 512" version="1.1" viewBox="0 0 24 24" xml:space="preserve"><metadata id="metadata9"/><defs id="defs7"><filter id="filter4254" color-interpolation-filters="sRGB"><feBlend id="feBlend4256" in2="BackgroundImage" mode="lighten"/></filter></defs><g id="g4169" display="none"><path id="path4171" fill="#fff" fill-opacity="1" stroke="none" stroke-opacity="1" d="M 8.5,4 A 4.5,4.5 0 0 0 4,8.5 4.5,4.5 0 0 0 5.03125,11.361328 7,7 0 0 0 5,12 7,7 0 0 0 12,19 7,7 0 0 0 12.632812,18.964844 4.5,4.5 0 0 0 15.5,20 4.5,4.5 0 0 0 20,15.5 4.5,4.5 0 0 0 18.96875,12.638672 7,7 0 0 0 19,12 7,7 0 0 0 18.306641,8.9804688 3,3 0 0 1 18,9 3,3 0 0 1 15,6 3,3 0 0 1 15.017578,5.6914062 7,7 0 0 0 12,5 7,7 0 0 0 11.367188,5.0351562 4.5,4.5 0 0 0 8.5,4 Z m 0,2 A 2.5,2.5 0 0 1 10.628906,7.1933594 5,5 0 0 1 12,7 5,5 0 0 1 17,12 5,5 0 0 1 16.804688,13.371094 2.5,2.5 0 0 1 18,15.5 2.5,2.5 0 0 1 15.5,18 2.5,2.5 0 0 1 13.371094,16.806641 5,5 0 0 1 12,17 5,5 0 0 1 7,12 5,5 0 0 1 7.1953125,10.628906 2.5,2.5 0 0 1 6,8.5 2.5,2.5 0 0 1 8.5,6 Z" opacity=".96"/></g><g id="g4273" display="none"><path id="path4275" fill="#fff" fill-opacity="1" stroke="none" stroke-opacity="1" d="M 8.5,4 A 4.5,4.5 0 0 0 4,8.5 4.5,4.5 0 0 0 5.03125,11.361328 7,7 0 0 0 5,12 7,7 0 0 0 12,19 7,7 0 0 0 12.632812,18.964844 4.5,4.5 0 0 0 15.5,20 4.5,4.5 0 0 0 20,15.5 4.5,4.5 0 0 0 18.96875,12.638672 7,7 0 0 0 19,12 7,7 0 0 0 18.306641,8.9804688 3,3 0 0 1 15,6 3,3 0 0 1 15.017578,5.6914062 7,7 0 0 0 12,5 7,7 0 0 0 11.367188,5.0351562 4.5,4.5 0 0 0 8.5,4 Z" opacity=".96"/></g><g id="layer9" display="none"><path id="path3009" fill="#009dff" fill-opacity="1" fill-rule="nonzero" stroke="none" stroke-width="1" d="m 20,6 a 2,2 0 0 1 -4,0 2,2 0 1 1 4,0 z" color="#000" display="inline" enable-background="accumulate" overflow="visible" visibility="visible" style="marker:none"/></g><g id="g4157" display="none"><path id="path4159" fill="#fff" fill-opacity="1" stroke="none" stroke-opacity="1" d="M 8.5,4 A 4.5,4.5 0 0 0 4,8.5 4.5,4.5 0 0 0 5.03125,11.361328 7,7 0 0 0 5,12 7,7 0 0 0 12,19 7,7 0 0 0 12.632812,18.964844 4.5,4.5 0 0 0 15.5,20 4.5,4.5 0 0 0 20,15.5 4.5,4.5 0 0 0 18.96875,12.638672 7,7 0 0 0 19,12 7,7 0 0 0 12,5 7,7 0 0 0 11.367188,5.0351562 4.5,4.5 0 0 0 8.5,4 Z m 0,2 A 2.5,2.5 0 0 1 10.628906,7.1933594 5,5 0 0 1 12,7 5,5 0 0 1 17,12 5,5 0 0 1 16.804688,13.371094 2.5,2.5 0 0 1 18,15.5 2.5,2.5 0 0 1 15.5,18 2.5,2.5 0 0 1 13.371094,16.806641 5,5 0 0 1 12,17 5,5 0 0 1 7,12 5,5 0 0 1 7.1953125,10.628906 2.5,2.5 0 0 1 6,8.5 2.5,2.5 0 0 1 8.5,6 Z" opacity=".96"/></g><g id="layer1" display="inline"><path id="path4142" fill="#fff" fill-opacity="1" stroke="none" stroke-opacity="1" d="M 8.5,4 A 4.5,4.5 0 0 0 4,8.5 4.5,4.5 0 0 0 5.03125,11.361328 7,7 0 0 0 5,12 7,7 0 0 0 12,19 7,7 0 0 0 12.632812,18.964844 4.5,4.5 0 0 0 15.5,20 4.5,4.5 0 0 0 20,15.5 4.5,4.5 0 0 0 18.96875,12.638672 7,7 0 0 0 19,12 7,7 0 0 0 12,5 7,7 0 0 0 11.367188,5.0351562 4.5,4.5 0 0 0 8.5,4 Z" opacity=".96"/></g><g id="layer3" display="inline"><path id="rect4154" fill="#999" fill-opacity="1" stroke="none" stroke-dasharray="none" stroke-miterlimit="4" stroke-opacity="1" stroke-width="2" d="M 15.181981,8.4644662 10.93934,12.707107 8.8180196,10.585787 7.403806,12 9.5251261,14.121321 10.93934,15.535534 12.353553,14.121321 16.596194,9.8786797 15.181981,8.4644662 Z" opacity=".96"/></g><g id="layer5" display="none"><path id="rect4160" fill="#999" fill-opacity="1" stroke="none" stroke-dasharray="none" stroke-miterlimit="4" stroke-opacity="1" stroke-width="2" d="M 14.12132,8.464466 12,10.585786 9.8786796,8.464466 8.464466,9.8786796 10.585786,12 8.464466,14.12132 9.8786796,15.535534 12,13.414214 14.12132,15.535534 15.535534,14.12132 13.414214,12 15.535534,9.8786796 14.12132,8.464466 Z"/></g><g id="layer6" display="none"><rect id="rect4166" width="2" height="2" x="8" y="11" fill="#999" fill-opacity="1" stroke="none" stroke-dasharray="none" stroke-miterlimit="4" stroke-opacity="1" stroke-width="2" opacity=".96"/><rect id="rect4168" width="2" height="2" x="11" y="11" fill="#999" fill-opacity="1" stroke="none" stroke-dasharray="none" stroke-miterlimit="4" stroke-opacity="1" stroke-width="2" opacity=".96"/><rect id="rect4170" width="2" height="2" x="14" y="11" fill="#999" fill-opacity="1" stroke="none" stroke-dasharray="none" stroke-miterlimit="4" stroke-opacity="1" stroke-width="2" opacity=".96"/></g><g id="layer7" display="none"><rect id="rect4173" width="8" height="2" x="8" y="11" fill="#999" fill-opacity="1" stroke="none" stroke-dasharray="none" stroke-miterlimit="4" stroke-opacity="1" stroke-width="2" opacity=".96"/></g><g id="layer8" display="none" filter="url(#filter4254)"><path id="rect4240" fill="gray" fill-opacity="1" stroke="none" stroke-dasharray="none" stroke-miterlimit="4" stroke-opacity="1" stroke-width="2" d="m 11,8 0,5 0.02148,0 L 11,13.021484 13.828125,15.849609 15.242188,14.435547 13,12.193359 13,8 11,8 Z" opacity=".96"/></g></svg>