<svg xmlns="http://www.w3.org/2000/svg" xmlns:xlink="http://www.w3.org/1999/xlink" width="16" height="16" version="1.1"><defs><linearGradient id="b" x1="24.823" x2="24.997" y1="15.378" y2="37.277" gradientTransform="matrix(.46923 0 0 .56213 -3.0042 -7.0808)" gradientUnits="userSpaceOnUse"><stop offset="0" stop-color="#6d63fe"/><stop offset=".284" stop-color="#5041eb"/><stop offset=".36" stop-color="#6d63fe"/><stop offset="1" stop-color="#5041eb"/></linearGradient><linearGradient id="a" x1="15.464" x2="15.464" y1="7.976" y2="45.042" gradientTransform="matrix(.36595 0 0 .36097 -.78280 -1.5613)" gradientUnits="userSpaceOnUse"><stop offset="0" stop-color="#5041eb"/><stop offset=".28" stop-color="#3829a4"/><stop offset=".357" stop-color="#5041eb"/><stop offset="1" stop-color="#3829a4"/></linearGradient><linearGradient id="c" x1="23.452" x2="43.007" y1="30.555" y2="45.934" gradientTransform="matrix(.46923 0 0 .42403 -3.0042 -3.4756)" gradientUnits="userSpaceOnUse"><stop offset="0" stop-color="#fff" stop-opacity="0"/><stop offset="1" stop-color="#fff" stop-opacity="0"/></linearGradient><linearGradient id="d" x1="44.995" x2="3.005" y1="17.5" y2="17.5" gradientTransform="matrix(.36595 0 0 .36097 -.78280 -.81698)" gradientUnits="userSpaceOnUse" spreadMethod="reflect"><stop offset="0" stop-color="#fff" stop-opacity="0"/><stop offset=".245" stop-color="#fff"/><stop offset=".773" stop-color="#fff"/><stop offset="1" stop-color="#fff" stop-opacity="0"/></linearGradient></defs><g><path fill="url(#b)" stroke="url(#a)" stroke-linecap="round" stroke-width=".994" d="m2.5147 1.5069h10.795c0.63016 0 0.91375-0.10344 1.0948 0.36097l1.098 3.6321v8.5232c0 0.5607 0.03767 0.47503-0.5925 0.47503h-13.82c-0.63016 0-0.5925 0.08566-0.5925-0.47503v-8.5232l1.0985-3.6321c0.17596-0.45503 0.28864-0.36097 0.9188-0.36097z" display="block"/><path fill="none" stroke="url(#c)" stroke-width=".742" d="m2.8577 1.8726h10.12c0.59075 0 0.95637 0.2009 1.2038 0.753l0.85228 2.3173v8.3545c0 0.52726-0.29962 0.79272-0.89038 0.79272h-12.345c-0.59075 0-0.83172-0.29196-0.83172-0.81922v-8.328l0.82478-2.367c0.16496-0.42789 0.47559-0.70331 1.0663-0.70331z" display="block" opacity=".505"/><path fill="none" stroke="url(#d)" stroke-linecap="square" stroke-width="1" d="m0.49994 5.5h15" opacity=".4"/></g></svg>