<svg xmlns="http://www.w3.org/2000/svg" xmlns:xlink="http://www.w3.org/1999/xlink" width="24" height="24" version="1.1" viewBox="0 0 24 24"><defs><linearGradient id="e" x1="24" x2="24" y1="5" y2="43" gradientTransform="matrix(.45946 0 0 .45946 .97422 1029.3)" gradientUnits="userSpaceOnUse"><stop offset="0" stop-color="#fff"/><stop offset=".063" stop-color="#fff" stop-opacity=".235"/><stop offset=".951" stop-color="#fff" stop-opacity=".157"/><stop offset="1" stop-color="#fff" stop-opacity=".392"/></linearGradient><radialGradient id="b" cx="7.496" cy="8.45" r="20" gradientTransform="matrix(0 1.1385 -1.2044 -2.0976e-8 22.177 1022.6)" gradientUnits="userSpaceOnUse"><stop offset="0" stop-color="#f4f4f4"/><stop offset="1" stop-color="#d0d0d0"/></radialGradient><radialGradient id="d" cx="4.993" cy="43.5" r="2.5" gradientTransform="matrix(2.0038 0 0 1.4 27.988 -17.4)" gradientUnits="userSpaceOnUse" xlink:href="#a"/><linearGradient id="a"><stop offset="0" stop-color="#181818"/><stop offset="1" stop-color="#181818" stop-opacity="0"/></linearGradient><radialGradient id="c" cx="4.993" cy="43.5" r="2.5" gradientTransform="matrix(2.0038 0 0 1.4 -20.012 -104.4)" gradientUnits="userSpaceOnUse" xlink:href="#a"/><linearGradient id="f" x1="25.058" x2="25.058" y1="47.028" y2="39.999" gradientUnits="userSpaceOnUse"><stop offset="0" stop-color="#181818" stop-opacity="0"/><stop offset=".5" stop-color="#181818"/><stop offset="1" stop-color="#181818" stop-opacity="0"/></linearGradient></defs><g transform="translate(0 -1028.4)"><g><g opacity=".4" transform="matrix(.55 0 0 .33333 -1.2 1035.7) matrix(1.0526 0 0 1.2857 -1.2632 -13.429)"><rect width="5" height="7" x="38" y="40" fill="url(#d)"/><rect width="5" height="7" x="-10" y="-47" fill="url(#c)" transform="scale(-1)"/><rect width="28" height="7" x="10" y="40" fill="url(#f)"/></g></g><rect width="19" height="19" x="2.5" y="1030.9" fill="url(#b)" stroke="#000" stroke-linecap="round" stroke-linejoin="round" stroke-opacity=".239" color="#000" rx="1" ry="1"/><path d="m15.5 1035.4c-0.8137 0-1.5 0.6863-1.5 1.5v1c0 0.8137 0.6863 1.5 1.5 1.5h1c0.8137 0 1.5-0.6863 1.5-1.5v-1c0-0.8137-0.6863-1.5-1.5-1.5h-1z" color="#000" color-rendering="auto" image-rendering="auto" opacity=".05" shape-rendering="auto" style="text-decoration-color:#000;isolation:auto;mix-blend-mode:normal;solid-color:#000;block-progression:tb;text-decoration-line:none;text-decoration-style:solid;white-space:normal;text-indent:0;text-transform:none"/><path d="m11.5 1035.4c-0.8137 0-1.5 0.6863-1.5 1.5v1c0 0.8137 0.6863 1.5 1.5 1.5h1c0.8137 0 1.5-0.6863 1.5-1.5v-1c0-0.8137-0.6863-1.5-1.5-1.5h-1z" color="#000" color-rendering="auto" image-rendering="auto" opacity=".05" shape-rendering="auto" style="text-decoration-color:#000;isolation:auto;mix-blend-mode:normal;solid-color:#000;block-progression:tb;text-decoration-line:none;text-decoration-style:solid;white-space:normal;text-indent:0;text-transform:none"/><path d="m7.5 1035.4c-0.8137 0-1.5 0.6863-1.5 1.5v1c0 0.8137 0.6863 1.5 1.5 1.5h1c0.8137 0 1.5-0.6863 1.5-1.5v-1c0-0.8137-0.6863-1.5-1.5-1.5h-1z" color="#000" color-rendering="auto" image-rendering="auto" opacity=".05" shape-rendering="auto" style="text-decoration-color:#000;isolation:auto;mix-blend-mode:normal;solid-color:#000;block-progression:tb;text-decoration-line:none;text-decoration-style:solid;white-space:normal;text-indent:0;text-transform:none"/><path d="m15.5 1039.4c-0.8137 0-1.5 0.6863-1.5 1.5v1c0 0.8137 0.6863 1.5 1.5 1.5h1c0.8137 0 1.5-0.6863 1.5-1.5v-1c0-0.8137-0.6863-1.5-1.5-1.5h-1z" color="#000" color-rendering="auto" image-rendering="auto" opacity=".05" shape-rendering="auto" style="text-decoration-color:#000;isolation:auto;mix-blend-mode:normal;solid-color:#000;block-progression:tb;text-decoration-line:none;text-decoration-style:solid;white-space:normal;text-indent:0;text-transform:none"/><path d="m11.5 1039.4c-0.8137 0-1.5 0.6863-1.5 1.5v1c0 0.8137 0.6863 1.5 1.5 1.5h1c0.8137 0 1.5-0.6863 1.5-1.5v-1c0-0.8137-0.6863-1.5-1.5-1.5h-1z" color="#000" color-rendering="auto" image-rendering="auto" opacity=".05" shape-rendering="auto" style="text-decoration-color:#000;isolation:auto;mix-blend-mode:normal;solid-color:#000;block-progression:tb;text-decoration-line:none;text-decoration-style:solid;white-space:normal;text-indent:0;text-transform:none"/><path d="m7.5 1039.4c-0.8137 0-1.5 0.6863-1.5 1.5v1c0 0.8137 0.6863 1.5 1.5 1.5h1c0.8137 0 1.5-0.6863 1.5-1.5v-1c0-0.8137-0.6863-1.5-1.5-1.5h-1z" color="#000" color-rendering="auto" image-rendering="auto" opacity=".05" shape-rendering="auto" style="text-decoration-color:#000;isolation:auto;mix-blend-mode:normal;solid-color:#000;block-progression:tb;text-decoration-line:none;text-decoration-style:solid;white-space:normal;text-indent:0;text-transform:none"/><path d="m15.5 1043.4c-0.8137 0-1.5 0.6863-1.5 1.5v1c0 0.8137 0.6863 1.5 1.5 1.5h1c0.8137 0 1.5-0.6863 1.5-1.5v-1c0-0.8137-0.6863-1.5-1.5-1.5h-1z" color="#000" color-rendering="auto" image-rendering="auto" opacity=".05" shape-rendering="auto" style="text-decoration-color:#000;isolation:auto;mix-blend-mode:normal;solid-color:#000;block-progression:tb;text-decoration-line:none;text-decoration-style:solid;white-space:normal;text-indent:0;text-transform:none"/><path d="m11.5 1043.4c-0.8137 0-1.5 0.6863-1.5 1.5v1c0 0.8137 0.6863 1.5 1.5 1.5h1c0.8137 0 1.5-0.6863 1.5-1.5v-1c0-0.8137-0.6863-1.5-1.5-1.5h-1z" color="#000" color-rendering="auto" image-rendering="auto" opacity=".05" shape-rendering="auto" style="text-decoration-color:#000;isolation:auto;mix-blend-mode:normal;solid-color:#000;block-progression:tb;text-decoration-line:none;text-decoration-style:solid;white-space:normal;text-indent:0;text-transform:none"/><path d="m7.5 1043.4c-0.8137 0-1.5 0.6863-1.5 1.5v1c0 0.8137 0.6863 1.5 1.5 1.5h1c0.8137 0 1.5-0.6863 1.5-1.5v-1c0-0.8137-0.6863-1.5-1.5-1.5h-1z" color="#000" color-rendering="auto" image-rendering="auto" opacity=".05" shape-rendering="auto" style="text-decoration-color:#000;isolation:auto;mix-blend-mode:normal;solid-color:#000;block-progression:tb;text-decoration-line:none;text-decoration-style:solid;white-space:normal;text-indent:0;text-transform:none"/><rect width="17" height="17" x="3.501" y="1031.9" fill="none" stroke="url(#e)" stroke-linecap="round" stroke-linejoin="round" opacity=".5"/><rect width="2" height="2" x="15" y="1036.4" opacity=".15" rx=".5" ry=".5"/><rect width="2" height="2" x="11" y="1036.4" opacity=".15" rx=".5" ry=".5"/><rect width="2" height="2" x="7" y="1036.4" opacity=".15" rx=".5" ry=".5"/><rect width="2" height="2" x="15" y="1040.4" opacity=".15" rx=".5" ry=".5"/><rect width="2" height="2" x="11" y="1040.4" opacity=".15" rx=".5" ry=".5"/><rect width="2" height="2" x="7" y="1040.4" opacity=".15" rx=".5" ry=".5"/><rect width="2" height="2" x="15" y="1044.4" opacity=".15" rx=".5" ry=".5"/><rect width="2" height="2" x="11" y="1044.4" opacity=".15" rx=".5" ry=".5"/><rect width="2" height="2" x="7" y="1044.4" opacity=".15" rx=".5" ry=".5"/><rect width="2" height="2" x="15" y="1035.4" fill="#fe3932" rx=".5" ry=".5"/><rect width="2" height="2" x="11" y="1035.4" fill="#fe3932" rx=".5" ry=".5"/><rect width="2" height="2" x="7" y="1035.4" fill="#fe3932" rx=".5" ry=".5"/><rect width="2" height="2" x="15" y="1039.4" fill="#ffb000" rx=".5" ry=".5"/><rect width="2" height="2" x="11" y="1039.4" fill="#008bf4" rx=".5" ry=".5"/><rect width="2" height="2" x="7" y="1039.4" fill="#009d5a" rx=".5" ry=".5"/><rect width="2" height="2" x="15" y="1043.4" fill="#ffb000" rx=".5" ry=".5"/><rect width="2" height="2" x="11" y="1043.4" fill="#ffb000" rx=".5" ry=".5"/><rect width="2" height="2" x="7" y="1043.4" fill="#009d5a" rx=".5" ry=".5"/></g></svg>