<svg xmlns="http://www.w3.org/2000/svg" xmlns:xlink="http://www.w3.org/1999/xlink" width="24" height="24" version="1.1"><defs><radialGradient id="c" cx="4.993" cy="43.5" r="2.5" gradientTransform="matrix(2.0038 0 0 1.4 27.988 -17.4)" gradientUnits="userSpaceOnUse"><stop offset="0" stop-color="#181818"/><stop offset="1" stop-color="#181818" stop-opacity="0"/></radialGradient><radialGradient id="b" cx="4.993" cy="43.5" r="2.5" gradientTransform="matrix(2.0038 0 0 1.4 -20.012 -104.4)" gradientUnits="userSpaceOnUse"><stop offset="0" stop-color="#181818"/><stop offset="1" stop-color="#181818" stop-opacity="0"/></radialGradient><linearGradient id="e" x1="25.058" x2="25.058" y1="47.028" y2="39.999" gradientUnits="userSpaceOnUse"><stop offset="0" stop-color="#181818" stop-opacity="0"/><stop offset=".5" stop-color="#181818"/><stop offset="1" stop-color="#181818" stop-opacity="0"/></linearGradient><linearGradient id="d" x1="24" x2="24" y1="5" y2="43" gradientTransform="matrix(.45946 0 0 .45946 .97422 .97173)" gradientUnits="userSpaceOnUse"><stop offset="0" stop-color="#fff"/><stop offset=".063" stop-color="#fff" stop-opacity=".235"/><stop offset=".951" stop-color="#fff" stop-opacity=".157"/><stop offset="1" stop-color="#fff" stop-opacity=".392"/></linearGradient><radialGradient id="a" cx="7.496" cy="8.45" r="20" gradientTransform="matrix(0 1.1385 -1.2044 -2.0976e-8 22.177 -5.7503)" gradientUnits="userSpaceOnUse"><stop offset="0" stop-color="#f4f4f4"/><stop offset="1" stop-color="#d0d0d0"/></radialGradient><linearGradient id="f" x1="12" x2="12" y1="14" y2="26" gradientTransform="translate(9.8e-7 -8)" gradientUnits="userSpaceOnUse"><stop offset="0" stop-color="#008fef"/><stop offset="1" stop-color="#007acc"/></linearGradient></defs><g><g opacity=".4" transform="matrix(.55 0 0 .33333 -1.2 7.3333) matrix(1.0526 0 0 1.2857 -1.2632 -13.429)"><rect width="5" height="7" x="38" y="40" fill="url(#c)"/><rect width="5" height="7" x="-10" y="-47" fill="url(#b)" transform="scale(-1)"/><rect width="28" height="7" x="10" y="40" fill="url(#e)"/></g></g><rect width="19" height="19" x="2.5" y="2.5" fill="url(#a)" stroke="#000" stroke-linecap="round" stroke-linejoin="round" stroke-opacity=".239" color="#000" rx="1" ry="1"/><rect width="17" height="17" x="3.501" y="3.499" fill="none" stroke="url(#d)" stroke-linecap="round" stroke-linejoin="round" opacity=".5"/><g fill-rule="evenodd"><path fill="#fff" d="m15.5 7-5.5 5-3-2.5-1 0.5v6l1 0.5 3-2.5 5.5 5 2.5-1v-10zm-0.5 3.5c0.0008 1.6623 0 3.3511 0 5l-3-2.5zm-8 1 1.5 1.5-1.5 1.5z" opacity=".2"/><path fill="url(#f)" d="m15.5 6-5.5 5-3-2.5-1 0.5v6l1 0.5 3-2.5 5.5 5 2.5-1v-10zm-0.5 3.5c0.0008 1.6623 0 3.3511 0 5l-3-2.5zm-8 1 1.5 1.5-1.5 1.5z"/><path fill="#002d4a" d="m15.5 6-5.5 5-3-2.5-1 0.5v1l1-0.5 3 2.5 5.5-5 2.5 1v-1l-2.5-1zm-7.5 6.5-1 1v1l1.5-1.5-0.5-0.5zm4.5996 0l-0.6 0.5 3 2.5c0-0.32979-0.000045-0.66756 0-1l-2.4004-2z" opacity=".3"/></g></svg>