<svg xmlns="http://www.w3.org/2000/svg" xmlns:xlink="http://www.w3.org/1999/xlink" width="24" height="24" version="1.1"><defs><linearGradient id="h" x1="156.09" x2="156.09" y1="24.324" y2="29.866" gradientUnits="userSpaceOnUse"><stop offset="0" stop-color="#fff"/><stop offset="1" stop-color="#fff" stop-opacity="0"/></linearGradient><radialGradient id="d" cx="152.01" cy="28.006" r="3.953" gradientTransform="matrix(-.56186 1.4654 -1.1586 -.44422 273.75 -186.65)" gradientUnits="userSpaceOnUse"><stop offset="0" stop-color="#f0f0f0"/><stop offset="1" stop-color="#969696"/></radialGradient><linearGradient id="i" x1="157" x2="157" y1="14" y2="48" gradientTransform="matrix(.52778 0 0 .51355 -3.125 166.99)" gradientUnits="userSpaceOnUse" xlink:href="#b"/><linearGradient id="b"><stop offset="0" stop-color="#fff"/><stop offset="1" stop-color="#fff" stop-opacity="0"/></linearGradient><radialGradient id="e" cx="157.02" cy="8.462" r="19.5" gradientTransform="matrix(-.54856 .52852 -.56041 -.50373 170.61 93.011)" gradientUnits="userSpaceOnUse" xlink:href="#c"/><linearGradient id="c"><stop offset="0" stop-color="#a0a0a0"/><stop offset="1" stop-color="#646464"/></linearGradient><linearGradient id="l" x1="157" x2="157" y1="14" y2="48" gradientTransform="matrix(.47622 0 0 .51355 4.9956 164.99)" gradientUnits="userSpaceOnUse" xlink:href="#b"/><linearGradient id="j" x1="157.3" x2="157.3" y1="16.457" y2="7.326" gradientTransform="matrix(.53558 0 0 .53539 -4.5236 167.49)" gradientUnits="userSpaceOnUse" xlink:href="#c"/><radialGradient id="g" cx="4.993" cy="43.5" r="2.5" gradientTransform="matrix(2.0038 0 0 1.4 27.988 -17.4)" gradientUnits="userSpaceOnUse" xlink:href="#a"/><linearGradient id="a"><stop offset="0" stop-color="#181818"/><stop offset="1" stop-color="#181818" stop-opacity="0"/></linearGradient><radialGradient id="f" cx="4.993" cy="43.5" r="2.5" gradientTransform="matrix(2.0038 0 0 1.4 -20.012 -104.4)" gradientUnits="userSpaceOnUse" xlink:href="#a"/><linearGradient id="k" x1="25.058" x2="25.058" y1="47.028" y2="39.999" gradientUnits="userSpaceOnUse"><stop offset="0" stop-color="#181818" stop-opacity="0"/><stop offset=".5" stop-color="#181818"/><stop offset="1" stop-color="#181818" stop-opacity="0"/></linearGradient></defs><g transform="translate(-68 -168.93)"><g opacity=".4" transform="matrix(.63158 0 0 .28387 64.842 179.59)"><rect width="5" height="7" x="38" y="40" fill="url(#g)"/><rect width="5" height="7" x="-10" y="-47" fill="url(#f)" transform="scale(-1)"/><rect width="28" height="7" x="10" y="40" fill="url(#k)"/></g><path fill="url(#j)" stroke="#505050" stroke-linejoin="round" d="m69.5 174.43 2.0466-3.9999h16.907l2.0466 3.9999h-21" enable-background="new"/><rect width="17.144" height="16.947" x="71.428" y="172.43" fill="none" stroke="url(#l)" stroke-linecap="round" color="#000" opacity=".4" rx=".153" ry=".17"/><rect width="21" height="18" x="69.5" y="173.43" fill="url(#e)" stroke="#505050" stroke-linecap="round" color="#000" opacity=".99" rx="1.14" ry="1.061"/><rect width="15.652" height="12" x="72.213" y="177.43" fill="none" stroke="#fff" stroke-linecap="round" color="#000" opacity=".4" rx="1.188" ry=".981"/><rect width="15.652" height="12" x="72.213" y="176.43" fill="none" stroke="#505050" stroke-linecap="round" color="#000" rx="1.188" ry=".981"/><rect width="19" height="16.947" x="70.5" y="174.43" fill="none" stroke="url(#i)" stroke-linecap="round" color="#000" opacity=".4" rx=".17" ry=".17"/><path fill="url(#d)" stroke="#505050" stroke-linecap="round" stroke-linejoin="round" stroke-width=".719" d="m160.37 27.156c0 1.9848-1.609 3.5938-3.5938 3.5938s-3.5938-1.609-3.5938-3.5938 1.609-3.5937 3.5938-3.5937 3.5938 1.609 3.5938 3.5937z" color="#000" opacity=".99" transform="matrix(1.3913 0 0 1.3913 -138.13 145.69)"/><path fill="#282828" stroke="#505050" stroke-width="1.438" d="m160.37 27.156c0 1.9848-1.609 3.5938-3.5938 3.5938s-3.5938-1.609-3.5938-3.5938 1.609-3.5937 3.5938-3.5937 3.5938 1.609 3.5938 3.5937z" color="#000" opacity=".99" transform="matrix(.69565 0 0 .69565 -29.065 165.12)"/><path fill="none" stroke="url(#h)" stroke-width="1.458" d="m156.78 24.969c-1.2273 0-2.1875 0.96016-2.1875 2.1875s0.96016 2.1875 2.1875 2.1875 2.1875-0.96016 2.1875-2.1875-0.96016-2.1875-2.1875-2.1875z" color="#000" opacity=".6" transform="matrix(.68571 0 0 .68571 -27.507 165.39)"/></g></svg>