<svg xmlns="http://www.w3.org/2000/svg" xmlns:svg="http://www.w3.org/2000/svg" xmlns:xlink="http://www.w3.org/1999/xlink" id="svg2" width="24" height="24" version="1.1"><defs id="defs4"><linearGradient id="linearGradient3880"><stop id="stop3882" offset="0" stop-color="#000" stop-opacity=".196"/><stop id="stop3884" offset="1" stop-color="#000" stop-opacity="0"/></linearGradient><linearGradient id="linearGradient3830"><stop id="stop3832" offset="0" stop-color="gray" stop-opacity=".51"/><stop id="stop3848" offset=".05" stop-color="gray" stop-opacity=".392"/><stop id="stop3846" offset=".904" stop-color="gray" stop-opacity=".471"/><stop id="stop3834" offset="1" stop-color="gray" stop-opacity=".588"/></linearGradient><linearGradient id="linearGradient3775"><stop id="stop3777" offset="0" stop-color="#fff" stop-opacity=".588"/><stop id="stop3779" offset="1" stop-color="#fff" stop-opacity="1"/></linearGradient><linearGradient id="linearGradient3765"><stop id="stop3767" offset="0" stop-color="#fff" stop-opacity="1"/><stop id="stop3769" offset="1" stop-color="#e4e4e4" stop-opacity="1"/></linearGradient><radialGradient id="radialGradient3899" cx="32.629" cy="60.415" r="26.29" fx="32.629" fy="60.415" gradientTransform="matrix(1,0,0,0.10474308,0,54.086896)" gradientUnits="userSpaceOnUse" xlink:href="#linearGradient3880"/><radialGradient id="radialGradient3914" cx="14.892" cy="-17.681" r="25.571" fx="14.892" fy="-17.681" gradientTransform="matrix(-1.7922484,4.7450628e-8,-3.529013e-8,-1.3329366,41.58142,-41.248313)" gradientUnits="userSpaceOnUse" xlink:href="#linearGradient3765"/><linearGradient id="linearGradient4013" x1="29.462" x2="29.462" y1="1008.808" y2="1033.228" gradientTransform="matrix(0.46373041,0,0,0.46373041,1.3924918,562.53315)" gradientUnits="userSpaceOnUse" xlink:href="#linearGradient3830"/><linearGradient id="linearGradient4017" x1="29.462" x2="29.462" y1="1008.808" y2="1033.228" gradientTransform="matrix(0.46373041,0,0,0.46373041,1.3924918,562.53315)" gradientUnits="userSpaceOnUse" xlink:href="#linearGradient3830"/><linearGradient id="linearGradient4023" x1="15.124" x2="15.124" y1="-18.801" y2="32.568" gradientUnits="userSpaceOnUse" xlink:href="#linearGradient3775"/><linearGradient id="linearGradient4056" x1="29.462" x2="29.462" y1="1008.808" y2="1033.228" gradientTransform="matrix(0.35963684,0,0,0.35963684,0.67143943,672.96484)" gradientUnits="userSpaceOnUse" xlink:href="#linearGradient3830"/><linearGradient id="linearGradient4060" x1="29.462" x2="29.462" y1="1008.808" y2="1033.228" gradientTransform="matrix(0.35963684,0,0,0.35963684,0.67143943,672.96484)" gradientUnits="userSpaceOnUse" xlink:href="#linearGradient3830"/><linearGradient id="linearGradient4066" x1="15.124" x2="15.124" y1="-18.801" y2="32.568" gradientUnits="userSpaceOnUse" xlink:href="#linearGradient3775"/><linearGradient id="linearGradient3785" x1="29.462" x2="29.462" y1="1008.808" y2="1033.228" gradientTransform="matrix(0.35963684,0,0,0.35963684,0.67143943,672.96484)" gradientUnits="userSpaceOnUse" xlink:href="#linearGradient3830"/><linearGradient id="linearGradient3789" x1="29.462" x2="29.462" y1="1008.808" y2="1033.228" gradientTransform="matrix(0.35963684,0,0,0.35963684,0.67143943,672.96484)" gradientUnits="userSpaceOnUse" xlink:href="#linearGradient3830"/></defs><metadata id="metadata7"/><g id="layer1" transform="translate(0,-1028.3622)"><g id="g3795"><path id="path3878" fill="url(#radialGradient3899)" fill-opacity="1" stroke="none" d="m 58.919613,60.414944 a 26.290409,2.7537384 0 1 1 -52.5808183,0 26.290409,2.7537384 0 1 1 52.5808183,0 z" transform="matrix(0.35963684,0,0,0.35963684,0.67143943,1028.9021)"/><path id="path2985" fill="url(#radialGradient3914)" fill-opacity="1" stroke="none" d="m 40.780711,6.8335247 a 25.570608,25.570608 0 1 1 -51.141216,0 25.570608,25.570608 0 1 1 51.141216,0 z" transform="matrix(0.41501692,0,0,0.41501692,5.6875499,1037.2685)"/><path id="path3755" fill="none" stroke="#828282" stroke-dasharray="none" stroke-miterlimit="4" stroke-opacity=".588" stroke-width="2.41" d="m 40.780711,6.8335247 a 25.570608,25.570608 0 1 1 -51.141216,0 25.570608,25.570608 0 1 1 51.141216,0 z" transform="matrix(0.41501692,0,0,0.41501692,5.6875499,1037.2685)"/><path id="path3773" fill="none" stroke="url(#linearGradient4066)" stroke-dasharray="none" stroke-miterlimit="4" stroke-opacity=".588" stroke-width="2.604" d="m 40.780711,6.8335247 a 25.570608,25.570608 0 1 1 -51.141216,0 25.570608,25.570608 0 1 1 51.141216,0 z" transform="matrix(0.37526644,0,0,0.37526644,6.2921582,1037.5399)"/><path id="rect3789" fill="url(#linearGradient3789)" fill-opacity="1" stroke="none" d="m 8.4036317,1035.7551 c -2.4083244,0 -4.3493583,1.9411 -4.3493583,4.3494 0,2.4083 1.9410339,4.3493 4.3493583,4.3493 l 7.1927363,0 c 2.408324,0 4.349358,-1.941 4.349358,-4.3493 0,-2.4083 -1.941034,-4.3494 -4.349358,-4.3494 l -7.1927363,0 z m 8.5188973,1.4947 c 0.03405,-0.01 0.06503,0 0.101148,0 0.288956,0 0.528216,0.2281 0.528216,0.5171 0,0.2889 -0.23926,0.5281 -0.528216,0.5281 -0.288956,0 -0.516978,-0.2392 -0.516978,-0.5281 0,-0.2529 0.177416,-0.4683 0.41583,-0.5171 z m -10.1709791,0.1124 0.4495458,0 c 0.134575,0 0.2472498,0.1015 0.2472498,0.2361 l 0,0.6967 0.6855584,0 c 0.1345746,0 0.2472506,0.1127 0.2472506,0.2473 l 0,0.4383 c 0,0.1346 -0.112676,0.2472 -0.2472506,0.2472 l -0.6855584,0 0,0.6969 c 0,0.1345 -0.1126748,0.2359 -0.2472498,0.2359 l -0.4495458,0 c -0.1345751,0 -0.2472508,-0.1014 -0.2472508,-0.2359 l 0,-0.6969 -0.6855577,0 c -0.1345745,0 -0.2472502,-0.1126 -0.2472502,-0.2472 l 0,-0.4383 c 0,-0.1346 0.1126757,-0.2473 0.2472502,-0.2473 l 0.6855577,0 0,-0.6967 c 0,-0.1346 0.1126757,-0.2361 0.2472508,-0.2361 z m 9.2156941,0.9328 c 0.288956,0 0.516977,0.228 0.516977,0.517 0,0.289 -0.228021,0.5283 -0.516977,0.5283 -0.288957,0 -0.528217,-0.2393 -0.528217,-0.5283 0,-0.289 0.23926,-0.517 0.528217,-0.517 z m 2.124105,0 c 0.288956,0 0.528216,0.228 0.528216,0.517 0,0.289 -0.23926,0.5283 -0.528216,0.5283 -0.288957,0 -0.516978,-0.2393 -0.516978,-0.5283 0,-0.289 0.228021,-0.517 0.516978,-0.517 z m -7.49618,0.4271 0.561932,0 c 0.134575,0 0.24725,0.1015 0.24725,0.2361 l 0,0.045 c 0,0.1346 -0.112675,0.236 -0.24725,0.236 l -0.561932,0 c -0.134576,0 -0.236012,-0.1014 -0.236012,-0.236 l 0,-0.045 c 0,-0.1346 0.101436,-0.2361 0.236012,-0.2361 z m 2.3264,0 0.561932,0 c 0.134576,0 0.236013,0.1015 0.236013,0.2361 l 0,0.045 c 0,0.1346 -0.101437,0.236 -0.236013,0.236 l -0.561932,0 c -0.134575,0 -0.24725,-0.1014 -0.24725,-0.236 l 0,-0.045 c 0,-0.1346 0.112675,-0.2361 0.24725,-0.2361 z m 4.102108,0.5057 c 0.288956,0 0.528216,0.2281 0.528216,0.5171 0,0.2889 -0.23926,0.5281 -0.528216,0.5281 -0.288956,0 -0.516978,-0.2392 -0.516978,-0.5281 0,-0.289 0.228022,-0.5171 0.516978,-0.5171 z m -7.4849416,1.7758 c 0.6811106,0 1.2250136,0.5438 1.2250136,1.225 0,0.6811 -0.543903,1.2362 -1.2250136,1.2362 -0.6811116,0 -1.2362522,-0.5551 -1.2362522,-1.2362 0,-0.6812 0.5551406,-1.225 1.2362522,-1.225 z m 4.9674836,0 c 0.681111,0 1.236251,0.5438 1.236251,1.225 0,0.6811 -0.55514,1.2362 -1.236251,1.2362 -0.681112,0 -1.236251,-0.5551 -1.236251,-1.2362 0,-0.6812 0.555139,-1.225 1.236251,-1.225 z"/><path id="path3859" fill="#fff" fill-opacity=".196" stroke="none" d="m 12,1029.4952 c -5.8609756,0 -10.6092869,4.7483 -10.6092869,10.6093 0,3.7011 1.8928898,6.957 4.7651883,8.856 -0.3665513,-4.2948 1.349724,-8.6827 4.9674836,-11.6095 2.886661,-2.3354 6.425118,-3.2817 9.83382,-2.9332 -1.883021,-2.9602 -5.189106,-4.9226 -8.957205,-4.9226 z"/><path id="path3927" fill="url(#linearGradient3785)" fill-opacity="1" stroke="none" d="m 8.4036317,1035.7551 c -2.4083244,0 -4.3493583,1.9411 -4.3493583,4.3494 0,2.4083 1.9410339,4.3493 4.3493583,4.3493 l 7.1927363,0 c 2.408324,0 4.349358,-1.941 4.349358,-4.3493 0,-2.4083 -1.941034,-4.3494 -4.349358,-4.3494 l -7.1927363,0 z m 8.5188973,1.4947 c 0.03405,-0.01 0.06503,0 0.101148,0 0.288956,0 0.528216,0.2281 0.528216,0.5171 0,0.2889 -0.23926,0.5281 -0.528216,0.5281 -0.288956,0 -0.516978,-0.2392 -0.516978,-0.5281 0,-0.2529 0.177416,-0.4683 0.41583,-0.5171 z m -10.1709791,0.1124 0.4495458,0 c 0.134575,0 0.2472498,0.1015 0.2472498,0.2361 l 0,0.6967 0.6855584,0 c 0.1345746,0 0.2472506,0.1127 0.2472506,0.2473 l 0,0.4383 c 0,0.1346 -0.112676,0.2472 -0.2472506,0.2472 l -0.6855584,0 0,0.6969 c 0,0.1345 -0.1126748,0.2359 -0.2472498,0.2359 l -0.4495458,0 c -0.1345751,0 -0.2472508,-0.1014 -0.2472508,-0.2359 l 0,-0.6969 -0.6855577,0 c -0.1345745,0 -0.2472502,-0.1126 -0.2472502,-0.2472 l 0,-0.4383 c 0,-0.1346 0.1126757,-0.2473 0.2472502,-0.2473 l 0.6855577,0 0,-0.6967 c 0,-0.1346 0.1126757,-0.2361 0.2472508,-0.2361 z m 9.2156941,0.9328 c 0.288956,0 0.516977,0.228 0.516977,0.517 0,0.289 -0.228021,0.5283 -0.516977,0.5283 -0.288957,0 -0.528217,-0.2393 -0.528217,-0.5283 0,-0.289 0.23926,-0.517 0.528217,-0.517 z m 2.124105,0 c 0.288956,0 0.528216,0.228 0.528216,0.517 0,0.289 -0.23926,0.5283 -0.528216,0.5283 -0.288957,0 -0.516978,-0.2393 -0.516978,-0.5283 0,-0.289 0.228021,-0.517 0.516978,-0.517 z m -7.49618,0.4271 0.561932,0 c 0.134575,0 0.24725,0.1015 0.24725,0.2361 l 0,0.045 c 0,0.1346 -0.112675,0.236 -0.24725,0.236 l -0.561932,0 c -0.134576,0 -0.236012,-0.1014 -0.236012,-0.236 l 0,-0.045 c 0,-0.1346 0.101436,-0.2361 0.236012,-0.2361 z m 2.3264,0 0.561932,0 c 0.134576,0 0.236013,0.1015 0.236013,0.2361 l 0,0.045 c 0,0.1346 -0.101437,0.236 -0.236013,0.236 l -0.561932,0 c -0.134575,0 -0.24725,-0.1014 -0.24725,-0.236 l 0,-0.045 c 0,-0.1346 0.112675,-0.2361 0.24725,-0.2361 z m 4.102108,0.5057 c 0.288956,0 0.528216,0.2281 0.528216,0.5171 0,0.2889 -0.23926,0.5281 -0.528216,0.5281 -0.288956,0 -0.516978,-0.2392 -0.516978,-0.5281 0,-0.289 0.228022,-0.5171 0.516978,-0.5171 z m -7.4849416,1.7758 c 0.6811106,0 1.2250136,0.5438 1.2250136,1.225 0,0.6811 -0.543903,1.2362 -1.2250136,1.2362 -0.6811116,0 -1.2362522,-0.5551 -1.2362522,-1.2362 0,-0.6812 0.5551406,-1.225 1.2362522,-1.225 z m 4.9674836,0 c 0.681111,0 1.236251,0.5438 1.236251,1.225 0,0.6811 -0.55514,1.2362 -1.236251,1.2362 -0.681112,0 -1.236251,-0.5551 -1.236251,-1.2362 0,-0.6812 0.555139,-1.225 1.236251,-1.225 z"/><rect id="rect3933" width="15.899" height="8.747" x="4.059" y="1035.72" fill="none" stroke="#b4b4b4" stroke-dasharray="none" stroke-miterlimit="4" stroke-opacity=".588" stroke-width="1" rx="4.373" ry="4.373"/></g></g></svg>