<svg xmlns="http://www.w3.org/2000/svg" xmlns:svg="http://www.w3.org/2000/svg" xmlns:xlink="http://www.w3.org/1999/xlink" id="svg2" width="24" height="24" version="1.1" viewBox="0 0 24 24"><metadata id="metadata106"/><defs id="defs4"><linearGradient id="e" x1="24" x2="24" y1="5" y2="43" gradientTransform="matrix(.45946 0 0 .45946 .97422 1029.3)" gradientUnits="userSpaceOnUse"><stop id="stop7" offset="0" stop-color="#fff"/><stop id="stop9" offset=".063" stop-color="#fff" stop-opacity=".235"/><stop id="stop11" offset=".951" stop-color="#fff" stop-opacity=".157"/><stop id="stop13" offset="1" stop-color="#fff" stop-opacity=".392"/></linearGradient><radialGradient id="b" cx="7.496" cy="8.45" r="20" gradientTransform="matrix(0 1.1385 -1.2044 -2.0976e-8 22.177 1022.6)" gradientUnits="userSpaceOnUse"><stop id="stop16" offset="0" stop-color="#f4f4f4"/><stop id="stop18" offset="1" stop-color="#d0d0d0"/></radialGradient><radialGradient id="d" cx="4.993" cy="43.5" r="2.5" gradientTransform="matrix(2.0038 0 0 1.4 27.988 -17.4)" gradientUnits="userSpaceOnUse" xlink:href="#a"/><linearGradient id="a"><stop id="stop22" offset="0" stop-color="#181818"/><stop id="stop24" offset="1" stop-color="#181818" stop-opacity="0"/></linearGradient><radialGradient id="c" cx="4.993" cy="43.5" r="2.5" gradientTransform="matrix(2.0038 0 0 1.4 -20.012 -104.4)" gradientUnits="userSpaceOnUse" xlink:href="#a"/><linearGradient id="f" x1="25.058" x2="25.058" y1="47.028" y2="39.999" gradientUnits="userSpaceOnUse"><stop id="stop28" offset="0" stop-color="#181818" stop-opacity="0"/><stop id="stop30" offset=".5" stop-color="#181818"/><stop id="stop32" offset="1" stop-color="#181818" stop-opacity="0"/></linearGradient></defs><g id="g34" transform="translate(0 -1028.4)"><g id="g36" transform="matrix(.55 0 0 .33333 -1.2 1035.7)"><g id="g38" opacity=".4" transform="matrix(1.0526 0 0 1.2857 -1.2632 -13.429)"><rect id="rect40" width="5" height="7" x="38" y="40" fill="url(#d)"/><rect id="rect42" width="5" height="7" x="-10" y="-47" fill="url(#c)" transform="scale(-1)"/><rect id="rect44" width="28" height="7" x="10" y="40" fill="url(#f)"/></g></g><rect id="rect46" width="19" height="19" x="2.5" y="1030.9" fill="url(#b)" stroke="#000" stroke-linecap="round" stroke-linejoin="round" stroke-opacity=".239" color="#000" rx="1" ry="1"/><rect id="rect66" width="17" height="17" x="3.501" y="1031.9" fill="none" stroke="url(#e)" stroke-linecap="round" stroke-linejoin="round" opacity=".5"/></g><g id="text4176" fill="#e50914" fill-opacity="1" stroke="none" stroke-linecap="butt" stroke-linejoin="miter" stroke-opacity="1" stroke-width="1" font-family="Sans" font-size="21.412" font-style="normal" font-weight="normal" letter-spacing="0" transform="scale(1.0705755,0.93407705)" word-spacing="0" style="line-height:125%"><path style="-inkscape-font-specification:'Bebas Neue'" id="path4161" fill="#e50914" fill-opacity="1" d="m 12.525732,20.340935 2.419501,0 0,-14.9880562 -2.098328,0 0,8.9714222 -0.04282,0 -2.376677,-8.9714222 -2.9547886,0 0,14.9880562 2.1197393,0 0,-10.8556351 0.042823,0 2.8905533,10.8556351 z" font-family="Bebas Neue" font-stretch="normal" font-style="normal" font-variant="normal" font-weight="normal"/></g></svg>