<svg xmlns="http://www.w3.org/2000/svg" xmlns:xlink="http://www.w3.org/1999/xlink" id="svg2" width="24" height="24" version="1.1"><metadata id="metadata50"/><defs id="defs4"><linearGradient id="linearGradient3082" x1="71.204" x2="71.204" y1="6.238" y2="44.341" gradientTransform="matrix(0.51351,0,0,0.51351,-24.836,-1.0213)" gradientUnits="userSpaceOnUse"><stop id="stop4013" offset="0" stop-color="#FFF"/><stop id="stop4015" offset=".508" stop-color="#FFF" stop-opacity=".235"/><stop id="stop4017" offset=".835" stop-color="#FFF" stop-opacity=".157"/><stop id="stop4019" offset="1" stop-color="#FFF" stop-opacity=".392"/></linearGradient><radialGradient id="radialGradient3085" cx="5.22" cy="8.043" r="20" gradientTransform="matrix(-0.02052191,0.83675824,-0.78992592,-0.01937333,18.663589,-0.12782722)" gradientUnits="userSpaceOnUse"><stop id="stop3780" offset="0" stop-color="#409ee4"/><stop id="stop3782" offset=".262" stop-color="#478def"/><stop id="stop3784" offset=".705" stop-color="#3e76e0"/><stop id="stop3786" offset="1" stop-color="#3f70de"/></radialGradient><radialGradient id="radialGradient3088" cx="62.625" cy="4.625" r="10.625" gradientTransform="matrix(1.0353,0,0,0.28235,-52.835,19.694)" gradientUnits="userSpaceOnUse"><stop id="stop25" offset="0"/><stop id="stop27" offset="1" stop-opacity="0"/></radialGradient></defs><path id="path36" fill="url(#radialGradient3088)" fill-rule="evenodd" d="m23,21c0,1.6568-4.9249,3-11,3s-11-1.3432-11-3,4.9249-3,11-3,11,1.3432,11,3z" opacity=".3"/><path id="path38" fill="url(#radialGradient3085)" stroke="#000" stroke-linecap="round" stroke-linejoin="round" stroke-opacity=".388" d="M12,1.5c-5.7935,0-10.5,4.7065-10.5,10.5,0,5.794,4.7065,10.5,10.5,10.5,5.794,0,10.5-4.706,10.5-10.5,0-5.7935-4.706-10.5-10.5-10.5z" color="#000"/><path id="path40" fill="none" stroke="url(#linearGradient3082)" stroke-linecap="round" stroke-linejoin="round" d="M21.5,12c0,5.246-4.254,9.5-9.5,9.5-5.2466,0-9.5-4.254-9.5-9.5,0-5.2469,4.2534-9.5,9.5-9.5,5.246,0,9.5,4.253,9.5,9.5z" color="#000" opacity=".5"/><path id="path4996" fill="#00008c" fill-rule="evenodd" d="m16.632,12.738c0,0.76845-5.9895,4.2266-6.655,3.8424-0.6655-0.38424-0.6655-7.3005,0-7.6845,0.6655-0.38424,6.655,3.0738,6.655,3.8424z" opacity=".15"/><path id="path3858" fill="none" stroke="#000" stroke-dasharray="none" stroke-miterlimit="4" stroke-opacity=".49" stroke-width="2" d="m16.632,12.738c0,0.76845-5.9895,4.2266-6.655,3.8424-0.6655-0.38424-0.6655-7.3005,0-7.6845,0.6655-0.38424,6.655,3.0738,6.655,3.8424z" opacity=".15"/><path id="path4224" fill="#fafafa" fill-rule="evenodd" d="m16.632,11.738c0,0.76845-5.9895,4.2266-6.655,3.8424-0.6655-0.38424-0.6655-7.3005,0-7.6845,0.6655-0.38424,6.655,3.0738,6.655,3.8424z"/></svg>