<svg xmlns="http://www.w3.org/2000/svg" xmlns:xlink="http://www.w3.org/1999/xlink" width="24" height="24" version="1.0"><defs><linearGradient id="f"><stop offset="0" stop-color="#3465a4" stop-opacity="0"/><stop offset=".265" stop-color="#3465a4"/><stop offset=".688" stop-color="#3465a4"/><stop offset="1" stop-color="#3465a4" stop-opacity="0"/></linearGradient><linearGradient id="g"><stop offset="0"/><stop offset="1" stop-opacity="0"/></linearGradient><radialGradient id="h" cx="25.812" cy="26.375" r="3.063" gradientTransform="matrix(1 0 0 .97959 0 .53827)" gradientUnits="userSpaceOnUse"><stop offset="0" stop-color="#fff"/><stop offset="1" stop-color="#fff" stop-opacity="0"/></radialGradient><linearGradient id="b" x1="23.544" x2="27.572" y1="14.335" y2="27.696" gradientUnits="userSpaceOnUse"><stop offset="0" stop-color="#747474"/><stop offset="1" stop-color="#cbcbcb"/></linearGradient><linearGradient id="c" x1="23.869" x2="26.22" y1="17.664" y2="21.333" gradientUnits="userSpaceOnUse"><stop offset="0" stop-color="#fff"/><stop offset="1" stop-color="#b0b0b0"/></linearGradient><linearGradient id="a" x1="27.544" x2="20.053" y1="29.849" y2="10.326" gradientUnits="userSpaceOnUse"><stop offset="0" stop-color="#fff"/><stop offset="1" stop-color="#fff" stop-opacity="0"/></linearGradient><radialGradient id="j" cx="5" cy="41.5" r="5" gradientTransform="matrix(.58947 0 0 1.5 34.739 -102.81)" gradientUnits="userSpaceOnUse" xlink:href="#g"/><linearGradient id="p" x1="17.554" x2="17.554" y1="46" y2="35" gradientTransform="matrix(1.7441 0 0 1.3636 -58.616 -14.665)" gradientUnits="userSpaceOnUse"><stop offset="0" stop-opacity="0"/><stop offset=".5"/><stop offset="1" stop-opacity="0"/></linearGradient><radialGradient id="i" cx="5" cy="41.5" r="5" gradientTransform="matrix(.58947 0 0 1.5 -.51080 -102.81)" gradientUnits="userSpaceOnUse" xlink:href="#g"/><linearGradient id="e" x1="-33.684" x2="-33.35" y1="34.661" y2="15.605" gradientUnits="userSpaceOnUse" xlink:href="#f"/><linearGradient id="d" x1="-34.357" x2="-34.247" y1="34.111" y2="16.024" gradientUnits="userSpaceOnUse" xlink:href="#f"/><linearGradient id="o" x1="10.877" x2="36.936" y1="6.5" y2="6.5" gradientTransform="matrix(.50005 0 0 .50005 .063088 -.70497)" gradientUnits="userSpaceOnUse"><stop offset="0" stop-color="#fff" stop-opacity="0"/><stop offset=".245" stop-color="#fff"/><stop offset=".773" stop-color="#fff"/><stop offset="1" stop-color="#fff" stop-opacity="0"/></linearGradient><linearGradient id="n" x1="25.271" x2="25.511" y1="1.8" y2="44.401" gradientTransform="matrix(.53532 0 0 .51851 -1.5239 -.82980)" gradientUnits="userSpaceOnUse"><stop offset="0" stop-color="#b5b5b5"/><stop offset=".128" stop-color="#e9e9e9"/><stop offset=".15" stop-color="#fff"/><stop offset="1" stop-color="#b5b5b5"/></linearGradient><linearGradient id="m" x1="22.429" x2="22.615" y1="1.757" y2="44.307" gradientTransform="matrix(.53532 0 0 .51851 -1.5239 -.82980)" gradientUnits="userSpaceOnUse"><stop offset="0" stop-color="#969696"/><stop offset=".129" stop-color="#555753"/><stop offset=".153" stop-color="#a0a0a0"/><stop offset="1" stop-color="#555753"/></linearGradient><linearGradient id="l" x1="23.062" x2="23.438" y1="8.469" y2="43.844" gradientUnits="userSpaceOnUse"><stop offset="0" stop-color="#848484"/><stop offset="1" stop-color="#d3d3d3"/></linearGradient><linearGradient id="k" x1="25.02" x2="26.22" y1="19.223" y2="21.333" gradientUnits="userSpaceOnUse"><stop offset="0" stop-color="#fff"/><stop offset="1" stop-color="#b0b0b0"/></linearGradient></defs><g transform="matrix(.37616 0 0 .39076 18.632 5.1695)"><rect width="2.938" height="15" x="37.687" y="-48.062" fill="url(#j)" opacity=".4" transform="scale(-1)"/><rect width="40.115" height="15" x="-37.687" y="33.062" fill="url(#p)" opacity=".4"/><rect width="2.938" height="15" x="2.437" y="-48.062" fill="url(#i)" opacity=".4" transform="scale(1,-1)"/></g><path fill="url(#n)" stroke="url(#m)" stroke-linecap="round" stroke-linejoin="round" d="m7.0943 0.58256c-0.6797 0-1.0724 0.25175-1.2329 0.63614l-1.2733 2.147c0.0073 0.172-0.0319 0.338-0.048 0.5089l0.048 17.35c0 0.677 0.5359 1.225 1.217 1.225h12.426c0.681 0 1.233-0.548 1.233-1.225v-17.35l-0.048-0.5093-1.33-2.147c-0.228-0.39264-0.537-0.63614-1.217-0.63614h-9.7747v0z"/><path fill="url(#b)" fill-rule="evenodd" stroke="#5a5a5a" stroke-linecap="round" stroke-linejoin="round" stroke-width="1.858" d="m33.941 19.665a9.0409 9.0409 0 1 1 -18.082 0 9.0409 9.0409 0 1 1 18.082 0z" transform="matrix(.53830 0 0 .53830 -1.4019 -.35406)"/><path fill="url(#k)" fill-rule="evenodd" stroke="#696969" stroke-linecap="round" stroke-linejoin="round" stroke-width="1.938" d="m24.906 16.75c-1.683 0-2.906 1.223-2.906 2.906 0 1.684 1.248 2.938 2.906 2.938s2.906-1.254 2.906-2.938c0-1.683-1.222-2.906-2.906-2.906z" transform="matrix(.51594 0 0 .51594 -.84817 .082257)"/><path fill="none" stroke="url(#a)" stroke-linecap="round" stroke-linejoin="round" stroke-width="1.938" d="m24.906 8.4062c-6.188 0-11.25 5.0618-11.25 11.25 0 6.189 5.053 11.282 11.25 11.282 6.198 0 11.25-5.093 11.25-11.282 0-6.188-5.061-11.25-11.25-11.25z" transform="matrix(.51594 0 0 .51594 -.84817 .082257)"/><path fill="none" stroke="url(#l)" stroke-linecap="round" stroke-linejoin="round" stroke-width="2.025" d="m11.844 6.9375c-0.638 0-1.094 0.459-1.094 1.0937l0.094 34.094c0 0.635 0.457 1.125 1.094 1.125h24.218c0.637 0 1.094-0.49 1.094-1.125v-34.094c0-0.6345-0.456-1.0935-1.094-1.0935h-24.312z" transform="matrix(.48951 0 0 .49802 .25366 .020832)"/><g stroke-width="2.767"><path fill="url(#b)" fill-rule="evenodd" stroke="#5a5a5a" stroke-linecap="round" stroke-linejoin="round" stroke-width="5.141" d="m33.941 19.665a9.0409 9.0409 0 1 1 -18.082 0 9.0409 9.0409 0 1 1 18.082 0z" transform="matrix(.18852 0 0 .18852 6.7086 5.2736) matrix(1.0318 0 0 1.0318 -13.126 51.132)"/><path fill="url(#c)" fill-rule="evenodd" d="m24.906 15.969c-2.111 0-3.687 1.576-3.687 3.687 0 2.112 1.598 3.719 3.687 3.719s3.688-1.607 3.688-3.719c0-2.111-1.576-3.687-3.688-3.687z" transform="matrix(.18852 0 0 .18852 6.7086 5.2736) matrix(1.0318 0 0 1.0318 -13.126 51.132)"/><path fill="none" stroke="url(#a)" stroke-linecap="round" stroke-linejoin="round" stroke-width="5.141" d="m24.906 4.9688c-8.048 0-14.687 6.6392-14.687 14.687 0 8.049 6.615 14.719 14.687 14.719s14.688-6.67 14.688-14.719c0-8.048-6.639-14.687-14.688-14.687z" transform="matrix(.18852 0 0 .18852 6.7086 5.2736) matrix(1.0318 0 0 1.0318 -13.126 51.132)"/></g><g stroke-width="2.767"><path fill="url(#b)" fill-rule="evenodd" stroke="#5a5a5a" stroke-linecap="round" stroke-linejoin="round" stroke-width="5.141" d="m33.941 19.665a9.0409 9.0409 0 1 1 -18.082 0 9.0409 9.0409 0 1 1 18.082 0z" transform="matrix(.18852 0 0 .18852 12.555 5.2736) matrix(1.0318 0 0 1.0318 -13.126 51.132)"/><path fill="url(#c)" fill-rule="evenodd" d="m24.906 15.969c-2.111 0-3.687 1.576-3.687 3.687 0 2.112 1.598 3.719 3.687 3.719s3.688-1.607 3.688-3.719c0-2.111-1.576-3.687-3.688-3.687z" transform="matrix(.18852 0 0 .18852 12.555 5.2736) matrix(1.0318 0 0 1.0318 -13.126 51.132)"/><path fill="none" stroke="url(#a)" stroke-linecap="round" stroke-linejoin="round" stroke-width="5.141" d="m24.906 5.0625c-7.999 0-14.594 6.5945-14.594 14.594 0 8 6.572 14.625 14.594 14.625 8.023 0 14.594-6.625 14.594-14.625 0-7.999-6.594-14.594-14.594-14.594z" transform="matrix(.18852 0 0 .18852 12.555 5.2736) matrix(1.0318 0 0 1.0318 -13.126 51.132)"/></g><path fill="url(#h)" d="m28.875 26.375a3.0625 3 0 1 1 -6.125 0 3.0625 3 0 1 1 6.125 0z" opacity=".4" transform="matrix(.63272 0 0 .61465 -3.3301 -3.1687)"/><path fill="none" stroke="url(#o)" stroke-linecap="round" stroke-width="1" d="m5.7519 2.5454h12.531" opacity=".4"/><g fill="none" stroke-linecap="round" stroke-linejoin="round"><path stroke="url(#e)" stroke-width="1.632" d="m-29.85 33.8a11 11 0 0 1 -0.047 -17.565" transform="matrix(.50005 0 0 .50005 -.11266 .19754) matrix(1.1484 0 0 1.3075 47.524 -12.881)"/><path stroke="url(#d)" stroke-width="1.179" d="m-29.85 33.8a11 11 0 0 1 -0.047 -17.565" transform="matrix(.50005 0 0 .50005 -.11266 .19754) matrix(1.5892 0 0 1.8093 55.653 -25.435)"/></g><g fill="none" stroke-linecap="round" stroke-linejoin="round"><path stroke="url(#e)" stroke-width="1.632" d="m-29.85 33.8a11 11 0 0 1 -0.047 -17.565" transform="matrix(-.50005 0 0 .50005 24.113 .19754) matrix(1.1484 0 0 1.3075 47.524 -12.881)"/><path stroke="url(#d)" stroke-width="1.179" d="m-29.85 33.8a11 11 0 0 1 -0.047 -17.565" transform="matrix(-.50005 0 0 .50005 24.113 .19754) matrix(1.5892 0 0 1.8093 55.653 -25.435)"/></g></svg>