<svg xmlns="http://www.w3.org/2000/svg" xmlns:svg="http://www.w3.org/2000/svg" xmlns:xlink="http://www.w3.org/1999/xlink" id="svg2890" width="24" height="24" version="1.0"><metadata id="metadata38397"/><defs id="defs2892"><linearGradient id="linearGradient4222"><stop id="stop4224" offset="0" stop-color="#fff" stop-opacity="1"/><stop id="stop4226" offset="1" stop-color="#fff" stop-opacity="0"/></linearGradient><linearGradient id="linearGradient3134" x1="13.472" x2="57.726" y1="25.411" y2="25.411" gradientTransform="matrix(0,0.3704967,-0.3617496,0,-4.130239,3.3844037)" gradientUnits="userSpaceOnUse" xlink:href="#linearGradient4222"/><linearGradient id="linearGradient2264"><stop id="stop2266" offset="0" stop-color="#d7e866" stop-opacity="1"/><stop id="stop2268" offset="1" stop-color="#8cab2a" stop-opacity="1"/></linearGradient><linearGradient id="linearGradient3132" x1="28.315" x2=".816" y1="20.71" y2="20.71" gradientTransform="matrix(0,-0.319447,-0.313352,0,-6.152273,19.802328)" gradientUnits="userSpaceOnUse" xlink:href="#linearGradient2264"/><linearGradient id="linearGradient23419"><stop id="stop23421" offset="0" stop-color="#000" stop-opacity="1"/><stop id="stop23423" offset="1" stop-color="#000" stop-opacity="0"/></linearGradient><radialGradient id="radialGradient2888" cx="23.335" cy="41.636" r="22.627" fx="23.335" fy="41.636" gradientTransform="matrix(0.4861359,0,0,0.1546652,0.6562496,13.060353)" gradientUnits="userSpaceOnUse" xlink:href="#linearGradient23419"/><linearGradient id="linearGradient3772"><stop id="stop3774" offset="0" stop-color="#b4b4b4" stop-opacity="1"/><stop id="stop3776" offset="1" stop-color="#969696" stop-opacity="1"/></linearGradient><linearGradient id="linearGradient2885" x1="-21.916" x2="-21.916" y1="3" y2="45.033" gradientTransform="matrix(0.5121951,0,0,0.5121951,25.452835,-0.2926833)" gradientUnits="userSpaceOnUse" xlink:href="#linearGradient3772"/><linearGradient id="linearGradient3263" x1="12.274" x2="35.391" y1="32.416" y2="14.203" gradientUnits="userSpaceOnUse"><stop id="stop3265" offset="0" stop-color="#ddd" stop-opacity="1"/><stop id="stop3267" offset=".5" stop-color="#c3c3c3" stop-opacity="1"/><stop id="stop3908" offset=".75" stop-color="#a4a4a4" stop-opacity="1"/><stop id="stop3269" offset="1" stop-color="#979797" stop-opacity="1"/></linearGradient><linearGradient id="linearGradient2883" x1="12.274" x2="35.391" y1="32.416" y2="14.203" gradientTransform="matrix(0,0.6000053,-0.6000053,0,25.860125,-2.4001307)" gradientUnits="userSpaceOnUse" xlink:href="#linearGradient3263"/><linearGradient id="linearGradient3428"><stop id="stop3430" offset="0" stop-color="#aaa" stop-opacity="1"/><stop id="stop3432" offset="1" stop-color="#d4d4d4" stop-opacity="1"/></linearGradient><linearGradient id="linearGradient2879" x1="21.448" x2="21.448" y1="15.5" y2="32.509" gradientTransform="matrix(0.4374999,0,0,0.4374999,1.5000004,1.5000003)" gradientUnits="userSpaceOnUse" xlink:href="#linearGradient3428"/><linearGradient id="linearGradient2876" x1="18.776" x2="18.203" y1="4.038" y2="45.962" gradientTransform="matrix(0.2272999,0,0,0.2272999,6.4659273,6.3175018)" gradientUnits="userSpaceOnUse" xlink:href="#linearGradient6036"/><linearGradient id="linearGradient2488" x1="10.609" x2="9.73" y1="17.886" y2="20.613" gradientUnits="userSpaceOnUse" spreadMethod="reflect" xlink:href="#linearGradient3519"/><linearGradient id="linearGradient2486" x1="12.372" x2="14.609" y1="16.188" y2="13.462" gradientUnits="userSpaceOnUse" spreadMethod="reflect" xlink:href="#linearGradient3511"/><linearGradient id="linearGradient2484" x1="14.085" x2="16.994" y1="13.046" y2="10.732" gradientUnits="userSpaceOnUse" spreadMethod="reflect" xlink:href="#linearGradient3503"/><linearGradient id="linearGradient2482" x1="17.495" x2="21.047" y1="11.2" y2="9.796" gradientUnits="userSpaceOnUse" spreadMethod="reflect" xlink:href="#linearGradient3495"/><linearGradient id="linearGradient2480" x1="20.58" x2="24.274" y1="10.775" y2="9.862" gradientUnits="userSpaceOnUse" spreadMethod="reflect" xlink:href="#linearGradient3487"/><linearGradient id="linearGradient6036"><stop id="stop6038" offset="0" stop-color="#fff" stop-opacity="1"/><stop id="stop6040" offset="1" stop-color="#fff" stop-opacity="0"/></linearGradient><linearGradient id="linearGradient2867" x1="10.502" x2="48.799" y1="3.61" y2="54.698" gradientTransform="matrix(0.4820056,0,0,0.4820056,0.2646087,-0.05013717)" gradientUnits="userSpaceOnUse" xlink:href="#linearGradient6036"/><linearGradient id="linearGradient3519"><stop id="stop3521" offset="0" stop-color="#fcd9cd" stop-opacity="1"/><stop id="stop3523" offset="1" stop-color="#fcd9cd" stop-opacity="0"/></linearGradient><linearGradient id="linearGradient2500" x1="10.609" x2="9.73" y1="17.886" y2="20.613" gradientUnits="userSpaceOnUse" spreadMethod="reflect" xlink:href="#linearGradient3519"/><linearGradient id="linearGradient3511"><stop id="stop3513" offset="0" stop-color="#ebeec7" stop-opacity="1"/><stop id="stop3515" offset="1" stop-color="#ebeec7" stop-opacity="0"/></linearGradient><linearGradient id="linearGradient2498" x1="12.372" x2="14.609" y1="16.188" y2="13.462" gradientUnits="userSpaceOnUse" spreadMethod="reflect" xlink:href="#linearGradient3511"/><linearGradient id="linearGradient3503"><stop id="stop3505" offset="0" stop-color="#c4ebdd" stop-opacity="1"/><stop id="stop3507" offset="1" stop-color="#c4ebdd" stop-opacity="0"/></linearGradient><linearGradient id="linearGradient2496" x1="14.085" x2="16.994" y1="13.046" y2="10.732" gradientUnits="userSpaceOnUse" spreadMethod="reflect" xlink:href="#linearGradient3503"/><linearGradient id="linearGradient3495"><stop id="stop3497" offset="0" stop-color="#c1cbe4" stop-opacity="1"/><stop id="stop3499" offset="1" stop-color="#c1cbe4" stop-opacity="0"/></linearGradient><linearGradient id="linearGradient2494" x1="17.495" x2="21.047" y1="11.2" y2="9.796" gradientUnits="userSpaceOnUse" spreadMethod="reflect" xlink:href="#linearGradient3495"/><linearGradient id="linearGradient3487"><stop id="stop3489" offset="0" stop-color="#e6cde2" stop-opacity="1"/><stop id="stop3491" offset="1" stop-color="#e6cde2" stop-opacity="0"/></linearGradient><linearGradient id="linearGradient2492" x1="20.58" x2="24.274" y1="10.775" y2="9.862" gradientUnits="userSpaceOnUse" spreadMethod="reflect" xlink:href="#linearGradient3487"/><linearGradient id="linearGradient3121" x1="24" x2="24" y1="44" y2="3.899" gradientTransform="matrix(0.38465107,0,0,0.38465106,-1.231625,-1.2316257)" gradientUnits="userSpaceOnUse" xlink:href="#linearGradient3707-319-631-407-324-3-8"/><radialGradient id="radialGradient3119" cx="5.78" cy="8.45" r="20" fx="5.78" fy="8.45" gradientTransform="matrix(0,0.89892574,-0.95095622,-1.6561642e-8,16.035401,-6.0146846)" gradientUnits="userSpaceOnUse" xlink:href="#linearGradient2867-449-88-871-390-598-476-591-434-148-57-177-3-8"/><linearGradient id="linearGradient3707-319-631-407-324-3-8"><stop id="stop3760-7-3" offset="0" stop-color="#185f9a" stop-opacity="1"/><stop id="stop3762-8-4" offset="1" stop-color="#599ec9" stop-opacity="1"/></linearGradient><linearGradient id="linearGradient2867-449-88-871-390-598-476-591-434-148-57-177-3-8"><stop id="stop3750-8-9" offset="0" stop-color="#90dbec" stop-opacity="1"/><stop id="stop3752-3-2" offset=".262" stop-color="#55c1ec" stop-opacity="1"/><stop id="stop3754-7-2" offset=".705" stop-color="#3689e6" stop-opacity="1"/><stop id="stop3756-9-3" offset="1" stop-color="#2b63a0" stop-opacity="1"/></linearGradient><linearGradient id="linearGradient4011"><stop id="stop4013" offset="0" stop-color="#fff" stop-opacity="1"/><stop id="stop4015" offset=".508" stop-color="#fff" stop-opacity=".235"/><stop id="stop4017" offset=".835" stop-color="#fff" stop-opacity=".157"/><stop id="stop4019" offset="1" stop-color="#fff" stop-opacity=".392"/></linearGradient><linearGradient id="linearGradient3071" x1="71.204" x2="71.204" y1="6.238" y2="44.341" gradientTransform="matrix(0.35135136,0,0,0.35135136,-17.203671,-0.90930013)" gradientUnits="userSpaceOnUse" xlink:href="#linearGradient4011"/><linearGradient id="linearGradient3707-319-631-407-324-3-8-2"><stop id="stop3760-7-3-6" offset="0" stop-color="#185f9a" stop-opacity="1"/><stop id="stop3762-8-4-8" offset="1" stop-color="#599ec9" stop-opacity="1"/></linearGradient><linearGradient id="linearGradient4037-4" x1="7.856" x2="7.856" y1="15.856" y2="-.122" gradientTransform="translate(0,1.155436)" gradientUnits="userSpaceOnUse" xlink:href="#linearGradient3707-319-631-407-324-3-8-2"/><linearGradient id="linearGradient3115" x1="7.856" x2="7.856" y1="15.856" y2="-.122" gradientTransform="translate(9,10.155436)" gradientUnits="userSpaceOnUse" xlink:href="#linearGradient3707-319-631-407-324-3-8-2"/><linearGradient id="linearGradient3118" x1="71.204" x2="71.204" y1="6.238" y2="44.341" gradientTransform="matrix(0.29729731,0,0,0.29729731,-4.3261833,9.4613611)" gradientUnits="userSpaceOnUse" xlink:href="#linearGradient4011"/><radialGradient id="radialGradient3121" cx="5.78" cy="8.45" r="20" fx="5.78" fy="8.45" gradientTransform="matrix(0,0.77906898,-0.82416206,-1.4353423e-8,23.964014,4.8539399)" gradientUnits="userSpaceOnUse" xlink:href="#linearGradient2867-449-88-871-390-598-476-591-434-148-57-177-3-8"/><linearGradient id="linearGradient3123" x1="24" x2="24" y1="44" y2="3.899" gradientTransform="matrix(0.33336426,0,0,0.33336425,8.9992583,8.9992576)" gradientUnits="userSpaceOnUse" xlink:href="#linearGradient3707-319-631-407-324-3-8"/><radialGradient id="radialGradient3084" cx="23.335" cy="41.636" r="22.627" fx="23.335" fy="41.636" gradientTransform="matrix(0.4861359,0,0,0.1546652,0.6562496,13.060353)" gradientUnits="userSpaceOnUse" xlink:href="#linearGradient23419"/><linearGradient id="linearGradient3086" x1="12.274" x2="35.391" y1="32.416" y2="14.203" gradientTransform="matrix(0,0.6000053,-0.6000053,0,25.860125,-2.4001307)" gradientUnits="userSpaceOnUse" xlink:href="#linearGradient3263"/><linearGradient id="linearGradient3088" x1="-21.916" x2="-21.916" y1="3" y2="45.033" gradientTransform="matrix(0.5121951,0,0,0.5121951,25.452835,-0.2926833)" gradientUnits="userSpaceOnUse" xlink:href="#linearGradient3772"/><linearGradient id="linearGradient3090" x1="21.448" x2="21.448" y1="15.5" y2="32.509" gradientTransform="matrix(0.4374999,0,0,0.4374999,1.5000004,1.5000003)" gradientUnits="userSpaceOnUse" xlink:href="#linearGradient3428"/><linearGradient id="linearGradient3092" x1="18.776" x2="18.203" y1="4.038" y2="45.962" gradientTransform="matrix(0.2272999,0,0,0.2272999,6.4659273,6.3175018)" gradientUnits="userSpaceOnUse" xlink:href="#linearGradient6036"/><linearGradient id="linearGradient3094" x1="20.58" x2="24.274" y1="10.775" y2="9.862" gradientUnits="userSpaceOnUse" spreadMethod="reflect" xlink:href="#linearGradient3487"/><linearGradient id="linearGradient3096" x1="17.495" x2="21.047" y1="11.2" y2="9.796" gradientUnits="userSpaceOnUse" spreadMethod="reflect" xlink:href="#linearGradient3495"/><linearGradient id="linearGradient3098" x1="14.085" x2="16.994" y1="13.046" y2="10.732" gradientUnits="userSpaceOnUse" spreadMethod="reflect" xlink:href="#linearGradient3503"/><linearGradient id="linearGradient3100" x1="12.372" x2="14.609" y1="16.188" y2="13.462" gradientUnits="userSpaceOnUse" spreadMethod="reflect" xlink:href="#linearGradient3511"/><linearGradient id="linearGradient3102" x1="10.609" x2="9.73" y1="17.886" y2="20.613" gradientUnits="userSpaceOnUse" spreadMethod="reflect" xlink:href="#linearGradient3519"/><linearGradient id="linearGradient3104" x1="10.502" x2="48.799" y1="3.61" y2="54.698" gradientTransform="matrix(0.4820056,0,0,0.4820056,0.2646087,-0.05013717)" gradientUnits="userSpaceOnUse" xlink:href="#linearGradient6036"/><linearGradient id="linearGradient3106" x1="20.58" x2="24.274" y1="10.775" y2="9.862" gradientUnits="userSpaceOnUse" spreadMethod="reflect" xlink:href="#linearGradient3487"/><linearGradient id="linearGradient3108" x1="12.372" x2="14.609" y1="16.188" y2="13.462" gradientUnits="userSpaceOnUse" spreadMethod="reflect" xlink:href="#linearGradient3511"/><linearGradient id="linearGradient3110" x1="10.609" x2="9.73" y1="17.886" y2="20.613" gradientUnits="userSpaceOnUse" spreadMethod="reflect" xlink:href="#linearGradient3519"/><linearGradient id="linearGradient3117" x1="10.502" x2="48.799" y1="3.61" y2="54.698" gradientTransform="matrix(0.4820056,0,0,0.4820056,0.2646087,-0.05013717)" gradientUnits="userSpaceOnUse" xlink:href="#linearGradient6036"/><linearGradient id="linearGradient3126" x1="18.776" x2="18.203" y1="4.038" y2="45.962" gradientTransform="matrix(0.2272999,0,0,0.2272999,6.4659273,6.3175018)" gradientUnits="userSpaceOnUse" xlink:href="#linearGradient6036"/><linearGradient id="linearGradient3129" x1="21.448" x2="21.448" y1="15.5" y2="32.509" gradientTransform="matrix(0.4374999,0,0,0.4374999,1.5000004,1.5000003)" gradientUnits="userSpaceOnUse" xlink:href="#linearGradient3428"/><linearGradient id="linearGradient3133" x1="12.274" x2="35.391" y1="32.416" y2="14.203" gradientTransform="matrix(0,0.6000053,-0.6000053,0,25.860125,-2.4001307)" gradientUnits="userSpaceOnUse" xlink:href="#linearGradient3263"/><radialGradient id="radialGradient3138" cx="23.335" cy="41.636" r="22.627" fx="23.335" fy="41.636" gradientTransform="matrix(0.4861359,0,0,0.1546652,0.6562496,13.060353)" gradientUnits="userSpaceOnUse" xlink:href="#linearGradient23419"/><radialGradient id="radialGradient3914" cx="17.115" cy="1.35" r="10.5" fx="17.115" fy="1.35" gradientTransform="matrix(-1.0549333e-8,0.9427021,-0.98120682,-1.0980221e-8,13.338331,-3.7266572)" gradientUnits="userSpaceOnUse" xlink:href="#linearGradient2867-449-88-871-390-598-476-591-434-148-57-177-3-8-7"/><radialGradient id="radialGradient3043" cx="99.157" cy="186.171" r="62.769" fx="99.157" fy="186.171" gradientTransform="matrix(0.17524541,0,0,0.05575992,-1.37681,18.119145)" gradientUnits="userSpaceOnUse" xlink:href="#linearGradient3820-7-2-2"/><linearGradient id="linearGradient3820-7-2-2"><stop id="stop3822-2-6-36" offset="0" stop-color="#3d3d3d" stop-opacity="1"/><stop id="stop3864-8-7-6" offset=".5" stop-color="#686868" stop-opacity=".498"/><stop id="stop3824-1-2-4" offset="1" stop-color="#686868" stop-opacity="0"/></linearGradient><radialGradient id="radialGradient3040" cx="17.811" cy="9.066" r="20" fx="2.14" fy="9.066" gradientTransform="matrix(-3.4387769e-8,0.56510892,-0.53241443,-3.8923879e-8,-14.626163,4.6332389)" gradientUnits="userSpaceOnUse" xlink:href="#linearGradient2867-449-88-871-390-598-476-591-434-148-57-177-3-8-7"/><linearGradient id="linearGradient2867-449-88-871-390-598-476-591-434-148-57-177-3-8-7"><stop id="stop3750-8-9-6" offset="0" stop-color="#bebebe" stop-opacity="1"/><stop id="stop3752-3-2-2" offset=".262" stop-color="#969696" stop-opacity="1"/><stop id="stop3754-7-2-00" offset=".705" stop-color="#8e8e8e" stop-opacity="1"/><stop id="stop3756-9-3-69" offset="1" stop-color="#666" stop-opacity="1"/></linearGradient><radialGradient id="radialGradient3894" cx="17.811" cy="9.066" r="20" fx="2.14" fy="9.066" gradientTransform="matrix(-3.4387769e-8,0.56510892,-0.53241443,-3.8923879e-8,16.498837,1.6332388)" gradientUnits="userSpaceOnUse" xlink:href="#linearGradient2867-449-88-871-390-598-476-591-434-148-57-177-3-8-9"/><radialGradient id="radialGradient3897" cx="99.157" cy="186.171" r="62.769" fx="99.157" fy="186.171" gradientTransform="matrix(0.17524541,0,0,0.05575992,33.145159,15.839165)" gradientUnits="userSpaceOnUse" xlink:href="#linearGradient3820-7-2-2"/><linearGradient id="linearGradient3900" x1="10.502" x2="48.799" y1="3.61" y2="54.698" gradientTransform="matrix(0.4820056,0,0,0.4820056,0.2646087,-0.05013717)" gradientUnits="userSpaceOnUse" xlink:href="#linearGradient6036"/><radialGradient id="radialGradient3904" cx="23.335" cy="41.636" r="22.627" fx="23.335" fy="41.636" gradientTransform="matrix(0.4861359,0,0,0.1546652,0.6562496,13.060353)" gradientUnits="userSpaceOnUse" xlink:href="#linearGradient23419"/><radialGradient id="radialGradient3018" cx="99.157" cy="186.171" r="62.769" fx="99.157" fy="186.171" gradientTransform="matrix(0.27083381,0,0,0.08762273,-2.855072,25.187228)" gradientUnits="userSpaceOnUse" xlink:href="#linearGradient3820-7-2-1"/><linearGradient id="linearGradient3820-7-2-1"><stop id="stop3822-2-6-3" offset="0" stop-color="#3d3d3d" stop-opacity="1"/><stop id="stop3864-8-7-7" offset=".5" stop-color="#686868" stop-opacity=".498"/><stop id="stop3824-1-2-5" offset="1" stop-color="#686868" stop-opacity="0"/></linearGradient><radialGradient id="radialGradient3015" cx="3.972" cy="8.45" r="20" fx="3.972" fy="8.45" gradientTransform="matrix(0,2.4988347,-2.6434689,-6.8014435e-8,46.336814,-12.180468)" gradientUnits="userSpaceOnUse" xlink:href="#linearGradient2867-449-88-871-390-598-476-591-434-148-57-177-3-8-9"/><linearGradient id="linearGradient2867-449-88-871-390-598-476-591-434-148-57-177-3-8-9"><stop id="stop3750-8-9-2" offset="0" stop-color="#8de53e" stop-opacity="1"/><stop id="stop3752-3-2-1" offset=".262" stop-color="#95de55" stop-opacity="1"/><stop id="stop3754-7-2-0" offset=".705" stop-color="#82de31" stop-opacity="1"/><stop id="stop3756-9-3-4" offset="1" stop-color="#60cc00" stop-opacity="1"/></linearGradient><linearGradient id="linearGradient3801" x1="16.416" x2="16.416" y1="-2.6" y2="37.601" gradientUnits="userSpaceOnUse" xlink:href="#linearGradient4011-5"/><linearGradient id="linearGradient4011-5"><stop id="stop4013-1" offset="0" stop-color="#fff" stop-opacity="1"/><stop id="stop4015-7" offset=".508" stop-color="#fff" stop-opacity=".235"/><stop id="stop4017-2" offset=".835" stop-color="#fff" stop-opacity=".157"/><stop id="stop4019-7" offset="1" stop-color="#fff" stop-opacity=".392"/></linearGradient></defs><g id="g3952"><g id="g3906"><path id="path23417" fill="url(#radialGradient3904)" fill-opacity="1" fill-rule="evenodd" stroke="none" stroke-width="2" d="M 23,19.499999 C 23.000566,21.432943 18.075533,23 12,23 5.924467,23 0.9994335,21.432943 1,19.499999 0.9994335,17.567056 5.924467,16 12,16 c 6.075533,0 11.000566,1.567056 11,3.499999 z" display="inline" opacity=".3" overflow="visible" visibility="visible" style="marker:none"/><path d="M 12,1.4999996 C 6.2064623,1.4999996 1.5000003,6.2064609 1.5000003,11.999999 1.5000003,17.793538 6.2064623,22.500002 12,22.5 17.793538,22.5 22.500007,17.793538 22.5,11.999999 22.5,6.2064609 17.793538,1.4999996 12,1.4999996 z" style="marker:none" id="path2555-7-66" fill="url(#radialGradient3894)" fill-opacity="1" fill-rule="nonzero" stroke="none" stroke-width="1" color="#000" display="inline" enable-background="accumulate" overflow="visible" visibility="visible"/><path id="path2781" fill="none" stroke="#000" stroke-miterlimit="4" stroke-opacity="1" stroke-width="1" d="M 22.5,12 C 22.5,6.1799465 17.820052,1.4999997 12,1.4999997 6.1799464,1.4999997 1.5000001,6.179947 1.5000001,12 1.499999,17.820053 6.1799469,22.5 12,22.5 c 5.820052,-1e-6 10.5,-4.679947 10.5,-10.5 z" opacity=".4"/><path id="path3272" fill="none" stroke="url(#linearGradient3900)" stroke-miterlimit="4" stroke-opacity="1" stroke-width="1" d="m 12,2.4574317 c -5.2893093,0 -9.542569,4.25326 -9.542569,9.5425683 0,5.28931 4.2532597,9.542568 9.542569,9.542568 5.28931,0 9.542569,-4.253258 9.542569,-9.542568 C 21.542569,6.7106917 17.28931,2.4574317 12,2.4574317 l 0,0 0,0 z" opacity=".5"/></g><g id="g3882" transform="matrix(0.35,0,0,0.35,0.88196817,0.76938545)"><g id="g3869"><path id="rect3883" fill="#1a1a1a" fill-opacity="1" stroke="none" d="m 17.298088,40.902181 c 0.5927,-2.211986 2.511307,-2.908051 4.505133,-2.908051 3.046229,0 6.075666,0.293311 8.946667,1.062595 2.871,0.769281 5.750306,2.092963 8.279337,3.553099 1.726704,0.996913 2.991573,2.740627 2.412776,4.900726 -0.44672,1.667187 -2.298784,2.114913 -4.025488,1.117998 -2.504852,-1.446176 -5.408337,-2.783817 -8.279338,-3.553099 -2.871001,-0.769284 -5.985761,-1.062595 -8.946666,-1.062595 -1.993826,0 -3.339143,-1.443486 -2.892421,-3.110673 z" opacity=".9"/><path id="path3895" fill="#1a1a1a" fill-opacity="1" stroke="none" d="m 14.48274,30.10568 c 0.592699,-2.211984 2.511306,-2.90805 4.505132,-2.908051 3.046229,1e-6 8.414615,0.369513 14.734347,2.06288 5.80609,1.555737 10.715029,3.816484 13.24406,5.276623 1.726704,0.996912 2.991575,2.740624 2.412777,4.900724 -0.446721,1.667187 -2.298785,2.114913 -4.025488,1.118 C 42.848715,39.10968 38.062352,36.874294 32.109506,35.279234 26.523547,33.78248 20.336065,33.216355 17.37516,33.216355 c -1.993826,0 -3.339141,-1.443488 -2.89242,-3.110675 z" opacity=".9"/><path id="path3897" fill="#1a1a1a" fill-opacity="1" stroke="none" d="m 12.346123,19.69258 c 0.592699,-2.211986 2.511306,-2.908051 4.505132,-2.908051 3.046229,0 11.800505,0.647594 19.147517,2.61622 9.3282,2.499482 14.192548,5.220155 16.72158,6.680294 1.726704,0.996912 2.991572,2.740624 2.412776,4.900724 -0.446721,1.667186 -2.298785,2.114913 -4.02549,1.117999 C 48.602789,30.653589 40.045396,26.935888 34.38606,25.419475 27.99295,23.706446 18.199449,22.803253 15.238543,22.803253 c -1.993826,0 -3.339141,-1.443488 -2.89242,-3.110673 z" opacity=".9"/></g><g id="g3874" fill="#fff" opacity=".2" transform="translate(0,1.4142136)"><path id="path3876" fill="#fff" fill-opacity="1" stroke="none" d="m 17.298088,40.902181 c 0.5927,-2.211986 2.511307,-2.908051 4.505133,-2.908051 3.046229,0 6.075666,0.293311 8.946667,1.062595 2.871,0.769281 5.750306,2.092963 8.279337,3.553099 1.726704,0.996913 2.991573,2.740627 2.412776,4.900726 -0.44672,1.667187 -2.298784,2.114913 -4.025488,1.117998 -2.504852,-1.446176 -5.408337,-2.783817 -8.279338,-3.553099 -2.871001,-0.769284 -5.985761,-1.062595 -8.946666,-1.062595 -1.993826,0 -3.339143,-1.443486 -2.892421,-3.110673 z" opacity=".9"/><path id="path3878" fill="#fff" fill-opacity="1" stroke="none" d="m 14.48274,30.10568 c 0.592699,-2.211984 2.511306,-2.90805 4.505132,-2.908051 3.046229,1e-6 8.414615,0.369513 14.734347,2.06288 5.80609,1.555737 10.715029,3.816484 13.24406,5.276623 1.726704,0.996912 2.991575,2.740624 2.412777,4.900724 -0.446721,1.667187 -2.298785,2.114913 -4.025488,1.118 C 42.848715,39.10968 38.062352,36.874294 32.109506,35.279234 26.523547,33.78248 20.336065,33.216355 17.37516,33.216355 c -1.993826,0 -3.339141,-1.443488 -2.89242,-3.110675 z" opacity=".9"/><path id="path3880" fill="#fff" fill-opacity="1" stroke="none" d="m 12.346123,19.69258 c 0.592699,-2.211986 2.511306,-2.908051 4.505132,-2.908051 3.046229,0 11.800505,0.647594 19.147517,2.61622 9.3282,2.499482 14.192548,5.220155 16.72158,6.680294 1.726704,0.996912 2.991572,2.740624 2.412776,4.900724 -0.446721,1.667186 -2.298785,2.114913 -4.02549,1.117999 C 48.602789,30.653589 40.045396,26.935888 34.38606,25.419475 27.99295,23.706446 18.199449,22.803253 15.238543,22.803253 c -1.993826,0 -3.339141,-1.443488 -2.89242,-3.110673 z" opacity=".9"/></g></g></g></svg>