<svg xmlns="http://www.w3.org/2000/svg" xmlns:svg="http://www.w3.org/2000/svg" xmlns:xlink="http://www.w3.org/1999/xlink" id="svg3167" width="24" height="24" version="1.1"><defs id="defs3169"><linearGradient id="linearGradient4801"><stop id="stop4803" offset="0" stop-color="silver" stop-opacity="1"/><stop id="stop4805" offset=".25" stop-color="#fff" stop-opacity="1"/><stop id="stop4807" offset=".499" stop-color="#d2d2d2" stop-opacity="1"/><stop id="stop4809" offset="1" stop-color="#c8c8c8" stop-opacity="1"/></linearGradient><linearGradient id="linearGradient4526"><stop id="stop4528" offset="0" stop-color="#fff" stop-opacity="1"/><stop id="stop4530" offset="1" stop-color="#fff" stop-opacity="0"/></linearGradient><linearGradient id="linearGradient4426"><stop id="stop4428" offset="0" stop-color="#cc4f00" stop-opacity="1"/><stop id="stop4436" offset=".25" stop-color="#ff8636" stop-opacity="1"/><stop id="stop4434" offset=".499" stop-color="#ef6000" stop-opacity="1"/><stop id="stop4430" offset="1" stop-color="#da5700" stop-opacity="1"/></linearGradient><linearGradient id="linearGradient4019"><stop id="stop4021" offset="0" stop-color="#cc5506" stop-opacity="1"/><stop id="stop4023" offset="1" stop-color="#f98b41" stop-opacity="1"/></linearGradient><linearGradient id="linearGradient4005"><stop id="stop4007" offset="0" stop-color="#fff" stop-opacity="1"/><stop id="stop4009" offset="1" stop-color="#fff" stop-opacity="0"/></linearGradient><linearGradient id="linearGradient5048"><stop id="stop5050" offset="0" stop-color="#000" stop-opacity="0"/><stop id="stop5056" offset=".5" stop-color="#000" stop-opacity="1"/><stop id="stop5052" offset="1" stop-color="#000" stop-opacity="0"/></linearGradient><linearGradient id="linearGradient5060"><stop id="stop5062" offset="0" stop-color="#000" stop-opacity="1"/><stop id="stop5064" offset="1" stop-color="#000" stop-opacity="0"/></linearGradient><linearGradient id="linearGradient4847" x1="302.857" x2="302.857" y1="366.648" y2="609.505" gradientTransform="matrix(2.8616876,0,0,1.4402304,-1923.7312,-587.94232)" gradientUnits="userSpaceOnUse" xlink:href="#linearGradient5048"/><radialGradient id="radialGradient4849" cx="605.714" cy="486.648" r="117.143" fx="605.714" fy="486.648" gradientTransform="matrix(2.8616876,0,0,1.4402304,-1923.168,-587.94232)" gradientUnits="userSpaceOnUse" xlink:href="#linearGradient5060"/><radialGradient id="radialGradient4851" cx="605.714" cy="486.648" r="117.143" fx="605.714" fy="486.648" gradientTransform="matrix(-2.8616876,0,0,1.4402304,144.29733,-587.94232)" gradientUnits="userSpaceOnUse" xlink:href="#linearGradient5060"/><linearGradient id="linearGradient4853" x1="24.286" x2="24.286" y1="27.643" y2="44.643" gradientTransform="matrix(1.0314659,0,0,0.86775226,-0.76417107,4.0632662)" gradientUnits="userSpaceOnUse" xlink:href="#linearGradient4019"/><linearGradient id="linearGradient4855" x1="24.286" x2="24.286" y1="55.619" y2="36.143" gradientUnits="userSpaceOnUse" xlink:href="#linearGradient4005"/><linearGradient id="linearGradient4857" x1="13.915" x2="33.148" y1="20.563" y2="23.063" gradientTransform="matrix(0.98976974,0,0,0.90052166,0.24968218,0.31844845)" gradientUnits="userSpaceOnUse" xlink:href="#linearGradient4426"/><linearGradient id="linearGradient4861" x1="13.915" x2="33.148" y1="20.563" y2="23.063" gradientTransform="matrix(0.91352058,0,0,0.9336409,1.9899855,0.30121064)" gradientUnits="userSpaceOnUse" xlink:href="#linearGradient4801"/><linearGradient id="linearGradient4863" x1="13.915" x2="33.148" y1="20.563" y2="23.063" gradientTransform="matrix(0.91352058,0,0,0.91347522,1.9899855,0.31170641)" gradientUnits="userSpaceOnUse" xlink:href="#linearGradient4801"/><linearGradient id="linearGradient3034" x1="24.406" x2="24.406" y1="44.438" y2="34.688" gradientTransform="translate(0,0.40019516)" gradientUnits="userSpaceOnUse" xlink:href="#linearGradient4526"/></defs><metadata id="metadata3172"/><g id="layer1" transform="translate(0,-24)"><g id="g4833" transform="matrix(0.50410015,0,0,0.50410015,-0.24243187,24.102053)"><g id="g8875" transform="matrix(0.02232353,0,0,0.01202587,44.141055,44.0596)"><rect id="rect8877" width="1381.786" height="349.77" x="-1580.329" y="-59.885" fill="url(#linearGradient4847)" fill-opacity="1" fill-rule="nonzero" stroke="none" stroke-width="1" display="inline" opacity=".402" overflow="visible" visibility="visible" style="marker:none"/><path id="path8879" fill="url(#radialGradient4849)" fill-opacity="1" fill-rule="nonzero" stroke="none" stroke-width="1" d="m -198.54239,-59.872812 c 0,0 0,349.750962 0,349.750962 147.369823,0.6584 356.26854,-78.36144 356.26845,-174.89799 0,-96.536558 -164.453631,-174.852957 -356.26845,-174.852972 z" display="inline" opacity=".402" overflow="visible" visibility="visible" style="marker:none"/><path id="path8881" fill="url(#radialGradient4851)" fill-opacity="1" fill-rule="nonzero" stroke="none" stroke-width="1" d="m -1580.3287,-59.872812 c 0,0 0,349.750962 0,349.750962 -147.3698,0.6584 -356.2685,-78.36144 -356.2685,-174.89799 0,-96.536558 164.4536,-174.852957 356.2685,-174.852972 z" display="inline" opacity=".402" overflow="visible" visibility="visible" style="marker:none"/></g><path id="rect3186-2" fill="#c85100" fill-opacity="1" stroke="#c85100" stroke-dashoffset=".45" stroke-linecap="square" stroke-linejoin="round" stroke-miterlimit="4" stroke-opacity="1" stroke-width="1.984" d="m 9.1086131,29.143 30.6489059,0 c 0.653166,0 1.179001,0.530241 1.179001,1.18888 l 4.125864,13.059641 c 0,0.658638 -0.525835,1.18888 -1.179002,1.18888 l -39.1953368,0 c -0.6531665,0 -1.1790005,-0.530242 -1.1790005,-1.18888 L 7.9296125,30.33188 c 0,-0.658639 0.5258341,-1.18888 1.1790006,-1.18888 z" color="#000" display="inline" enable-background="accumulate" overflow="visible" visibility="visible" style="marker:none"/><path id="rect3186" fill="url(#linearGradient4853)" fill-opacity="1" stroke="#c85100" stroke-dashoffset=".45" stroke-linecap="square" stroke-linejoin="round" stroke-miterlimit="4" stroke-opacity="1" stroke-width="1.984" d="m 9.1086131,28.484295 30.6489059,0 c 0.653166,0 1.179001,0.476886 1.179001,1.069251 l 4.125864,11.745534 c 0,0.592365 -0.525835,1.069251 -1.179002,1.069251 l -39.1953368,0 c -0.6531665,0 -1.1790005,-0.476886 -1.1790005,-1.069251 L 7.9296125,29.553546 c 0,-0.592365 0.5258341,-1.069251 1.1790006,-1.069251 z" color="#000" display="inline" enable-background="accumulate" overflow="visible" visibility="visible" style="marker:none"/><path id="path4015" fill="none" stroke="url(#linearGradient4855)" stroke-dasharray="none" stroke-dashoffset=".45" stroke-linecap="square" stroke-linejoin="round" stroke-miterlimit="4" stroke-opacity="1" stroke-width="2.139" d="m 10.28125,30.15625 -3.78125,12 35.65625,0 -3.5625,-12 -28.3125,0 z" color="#000" display="inline" enable-background="accumulate" overflow="visible" transform="matrix(1.0314659,0,0,0.83412771,-0.76417107,5.2408982)" visibility="visible" style="marker:none"/><g id="g4819" transform="translate(-0.1205365,0)"><path id="path4421" fill="url(#linearGradient4857)" fill-opacity="1" stroke="#c85100" stroke-dasharray="none" stroke-miterlimit="4" stroke-opacity="1" stroke-width="1.984" d="M 26.416719,1.1626875 C 25.04249,0.62985141 23.92028,0.67868153 22.643223,1.2162413 22.313001,1.355243 22.056928,1.6730095 21.962756,1.9927706 19.114569,11.663875 12.374361,29.867497 12.374361,29.867497 c -0.415667,0.502029 -0.649536,1.022036 -0.649536,1.579836 0,2.802481 5.675585,5.060827 12.681425,5.060827 7.00584,0 12.681425,-2.258346 12.681425,-5.060827 0,-0.506966 -0.210807,-0.984021 -0.556746,-1.445951 -0.01262,-0.01685 -0.01789,-0.03678 -0.03093,-0.05355 0,0 -6.572989,-18.822041 -9.310022,-28.1157187 C 27.097897,1.519431 26.744028,1.2895961 26.416719,1.1626875 z" color="#000" display="inline" enable-background="accumulate" overflow="visible" visibility="visible" style="marker:none"/><path id="path3026" fill="none" stroke="url(#linearGradient3034)" stroke-dasharray="none" stroke-miterlimit="4" stroke-opacity="1" stroke-width="2.031" d="m 26.34375,1.59375 -3.59375,0.0625 -0.625,0.75 -9.65625,30.875 A 0.24173588,0.24173588 0 0 1 12.4375,33.375 c -0.398279,0.528703 -0.59375,1.0358 -0.59375,1.59375 0,0.703787 0.319869,1.389761 0.9375,2.03125 0.617631,0.641489 1.51782,1.21923 2.65625,1.71875 2.27686,0.99904 5.458228,1.625 8.96875,1.625 3.510522,0 6.69189,-0.62596 8.96875,-1.625 1.13843,-0.49952 2.038619,-1.077261 2.65625,-1.71875 0.617631,-0.641489 0.9375,-1.327463 0.9375,-2.03125 0,-0.502005 -0.167379,-0.980586 -0.5,-1.46875 -0.05184,-0.07611 -0.05959,-0.102565 -0.03125,-0.0625 A 0.24173588,0.24173588 0 0 1 36.40625,33.375 L 27.03125,2.25 26.34375,1.59375 z" color="#000" display="inline" enable-background="accumulate" overflow="visible" transform="matrix(1,0,0,0.95408901,0,0.02291412)" visibility="visible" style="marker:none"/><path id="path4421-2-8" fill="url(#linearGradient4861)" fill-opacity="1" stroke="none" stroke-width=".858" d="m 16.350147,21.86248 c -1.17953,3.936327 -2.402137,6.680859 -2.67263,7.556656 1.543217,2.011972 5.95003,3.442801 10.70207,3.442801 4.56196,0 9.099411,-1.323749 10.770438,-3.20939 -0.125114,-0.428367 -1.490586,-3.959074 -2.570704,-7.731714 -2.003257,0.986867 -5.083483,1.604696 -8.199734,1.604696 -3.175601,0 -6.02203,-0.638378 -8.02944,-1.663049 z" color="#000" display="inline" enable-background="accumulate" overflow="visible" visibility="visible" style="marker:none"/><path id="path4421-2-8-4" fill="url(#linearGradient4863)" fill-opacity="1" stroke="none" stroke-width=".858" d="m 21.543082,6.3063874 c -0.706465,2.7094029 -1.920659,5.6184076 -2.738414,8.5352846 1.56728,0.558384 3.531553,0.884928 5.571296,0.884928 2.063539,0 4.302599,-0.341823 5.882476,-0.913474 -0.790061,-2.930294 -2.001676,-5.826534 -2.68762,-8.5067386 -1.026547,0.1920912 -2.040294,0.2854611 -3.194856,0.2854611 -1.116754,0 -1.835659,-0.1055102 -2.832882,-0.2854611 z" color="#000" display="inline" enable-background="accumulate" overflow="visible" visibility="visible" style="marker:none"/></g></g></g></svg>