<svg xmlns="http://www.w3.org/2000/svg" xmlns:xlink="http://www.w3.org/1999/xlink" width="32" height="32" version="1.1"><defs><linearGradient id="g" x1="24" x2="24" y1="5.564" y2="43" gradientTransform="matrix(.56757 0 0 .72973 2.3784 -2.5135)" gradientUnits="userSpaceOnUse"><stop offset="0" stop-color="#fff"/><stop offset=".036" stop-color="#fff" stop-opacity=".235"/><stop offset=".951" stop-color="#fff" stop-opacity=".157"/><stop offset="1" stop-color="#fff" stop-opacity=".392"/></linearGradient><radialGradient id="b" cx="7.806" cy="9.957" r="12.672" fx="7.276" gradientTransform="matrix(-1.0624e-7 4.3507 -5.3177 -1.306e-7 68.942 -39.416)" gradientUnits="userSpaceOnUse"><stop offset="0" stop-color="#4ad58e"/><stop offset=".262" stop-color="#2dc477"/><stop offset=".705" stop-color="#26a464"/><stop offset="1" stop-color="#1d7d4c"/></radialGradient><linearGradient id="f" x1="25" x2="25" y1="47.935" y2=".918" gradientTransform="matrix(.65714 0 0 .65901 .22860 .17204)" gradientUnits="userSpaceOnUse"><stop offset="0" stop-color="#1a6f44"/><stop offset="1" stop-color="#1f8753"/></linearGradient><radialGradient id="d" cx="605.71" cy="486.65" r="117.14" gradientTransform="matrix(.015663 0 0 .0082353 17.61 25.981)" gradientUnits="userSpaceOnUse" xlink:href="#a"/><linearGradient id="a"><stop offset="0"/><stop offset="1" stop-opacity="0"/></linearGradient><radialGradient id="c" cx="605.71" cy="486.65" r="117.14" gradientTransform="matrix(-.015663 0 0 .0082353 14.39 25.981)" gradientUnits="userSpaceOnUse" xlink:href="#a"/><linearGradient id="e" x1="302.86" x2="302.86" y1="366.65" y2="609.51" gradientTransform="matrix(.045769 0 0 .0082353 -.54232 25.981)" gradientUnits="userSpaceOnUse"><stop offset="0" stop-opacity="0"/><stop offset=".5"/><stop offset="1" stop-opacity="0"/></linearGradient></defs><rect width="22.1" height="2" x="4.95" y="29" fill="url(#e)" opacity=".15"/><path fill="url(#c)" d="m4.95 29v1.9999c-0.80662 0.0038-1.95-0.44807-1.95-1.0001 0-0.552 0.90012-0.99982 1.95-0.99982z" opacity=".15"/><path fill="url(#d)" d="m27.05 29v1.9999c0.80661 0.0038 1.95-0.44807 1.95-1.0001 0-0.552-0.90012-0.99982-1.95-0.99982z" opacity=".15"/><path fill="url(#b)" stroke="url(#f)" stroke-linejoin="round" d="m4.5 0.5c5.2705 0 23 0.00185 23 0.00185l0.000028 28.998h-23v-29z" color="#000"/><path fill="none" stroke="url(#g)" stroke-linecap="round" stroke-linejoin="round" d="m26.5 28.5h-21v-27h21z" opacity=".5"/><circle cx="11" cy="11.25" r="1" fill="#fff"/><circle cx="11" cy="15.25" r="1" fill="#fff"/><circle cx="11" cy="19.25" r="1" fill="#fff"/><rect width="8" height="1.5" x="14" y="10.5" fill="#fff"/><rect width="8" height="1.5" x="14" y="14.5" fill="#fff"/><rect width="8" height="1.5" x="14" y="18.5" fill="#fff"/></svg>