<svg xmlns="http://www.w3.org/2000/svg" xmlns:xlink="http://www.w3.org/1999/xlink" width="32" height="32" version="1.1"><defs><linearGradient id="a"><stop offset="0"/><stop offset="1" stop-opacity="0"/></linearGradient><linearGradient id="g" x1="24" x2="24" y1="5.564" y2="43" gradientTransform="matrix(.56757 0 0 .72973 2.3784 -2.5135)" gradientUnits="userSpaceOnUse"><stop offset="0" stop-color="#fff"/><stop offset=".036" stop-color="#fff" stop-opacity=".235"/><stop offset=".951" stop-color="#fff" stop-opacity=".157"/><stop offset="1" stop-color="#fff" stop-opacity=".392"/></linearGradient><linearGradient id="f" x1="25.132" x2="25.132" y1=".985" y2="47.013" gradientTransform="matrix(.62857 0 0 .60839 .91432 -.53479)" gradientUnits="userSpaceOnUse"><stop offset="0" stop-color="#f4f4f4"/><stop offset="1" stop-color="#dbdbdb"/></linearGradient><radialGradient id="c" cx="605.71" cy="486.65" r="117.14" gradientTransform="matrix(.015663 0 0 .0082353 17.61 25.981)" gradientUnits="userSpaceOnUse" xlink:href="#a"/><radialGradient id="b" cx="605.71" cy="486.65" r="117.14" gradientTransform="matrix(-.015663 0 0 .0082353 14.39 25.981)" gradientUnits="userSpaceOnUse" xlink:href="#a"/><linearGradient id="e" x1="302.86" x2="302.86" y1="366.65" y2="609.51" gradientTransform="matrix(.045769 0 0 .0082353 -.54232 25.981)" gradientUnits="userSpaceOnUse"><stop offset="0" stop-opacity="0"/><stop offset=".5"/><stop offset="1" stop-opacity="0"/></linearGradient><linearGradient id="d" x1="-51.786" x2="-51.786" y1="50.786" y2="2.906" gradientTransform="matrix(.53064 0 0 .58970 39.27 -1.7919)" gradientUnits="userSpaceOnUse"><stop offset="0" stop-opacity=".318"/><stop offset="1" stop-opacity=".24"/></linearGradient></defs><rect width="22.1" height="2" x="4.95" y="29" fill="url(#e)" opacity=".15"/><path fill="url(#b)" d="m4.95 29v1.9999c-0.80662 0.0038-1.95-0.44807-1.95-1.0001 0-0.552 0.90012-0.99982 1.95-0.99982z" opacity=".15"/><path fill="url(#c)" d="m27.05 29v1.9999c0.80661 0.0038 1.95-0.44807 1.95-1.0001 0-0.552-0.90012-0.99982-1.95-0.99982z" opacity=".15"/><path fill="url(#f)" d="m5 1c5.0413 0 22 0.00179 22 0.00179v27.998h-22v-28z"/><path fill="none" stroke="url(#g)" stroke-linecap="round" stroke-linejoin="round" d="m26.5 28.5h-21v-27h21z"/><path fill="none" stroke="url(#d)" stroke-linejoin="round" stroke-width="1" d="m4.5 0.49994c5.2705 0 23 0.002 23 0.002l0.000024 28.998h-23v-29z"/><path fill="#fff" fill-rule="evenodd" d="m13.334 9.1406l-5.334 9.2404 2.666 4.619h10.668l2.666-4.619-5.334-9.2404h-5.332zm2.666 4.6194l2.666 4.621h-5.332l2.666-4.621z" clip-rule="evenodd" image-rendering="optimizeQuality" opacity=".4" shape-rendering="geometricPrecision"/><polygon fill="#3777e3" fill-rule="evenodd" points="22194 115340 44385 76894 133160 76894 110960 115340" class="fil0" clip-rule="evenodd" image-rendering="optimizeQuality" shape-rendering="geometricPrecision" transform="matrix(.00012016 0 0 .00012016 8 8.1406)"/><polygon fill="#ffcf63" fill-rule="evenodd" points="88772 76894 133160 76894 88772 0 44385 0" class="fil1" clip-rule="evenodd" image-rendering="optimizeQuality" shape-rendering="geometricPrecision" transform="matrix(.00012016 0 0 .00012016 8 8.1406)"/><polygon fill="#11a861" fill-rule="evenodd" points="0 76894 22194 115340 66578 38447 44385 0" class="fil2" clip-rule="evenodd" image-rendering="optimizeQuality" shape-rendering="geometricPrecision" transform="matrix(.00012016 0 0 .00012016 8 8.1406)"/></svg>