<svg xmlns="http://www.w3.org/2000/svg" xmlns:xlink="http://www.w3.org/1999/xlink" width="32" height="32" version="1.1"><defs><radialGradient id="b" cx="5" cy="41.5" r="5" gradientTransform="matrix(.59382 0 0 1.5367 -6.6595 -103.94)" gradientUnits="userSpaceOnUse"><stop offset="0"/><stop offset="1" stop-opacity="0"/></radialGradient><linearGradient id="c" x1="17.554" x2="17.554" y1="46" y2="35" gradientTransform="matrix(1.757 0 0 1.397 -17.394 -16.412)" gradientUnits="userSpaceOnUse"><stop offset="0" stop-opacity="0"/><stop offset=".5"/><stop offset="1" stop-opacity="0"/></linearGradient><radialGradient id="a" cx="5" cy="41.5" r="5" gradientTransform="matrix(.59382 0 0 1.5367 41.141 -103.94)" gradientUnits="userSpaceOnUse"><stop offset="0"/><stop offset="1" stop-opacity="0"/></radialGradient><linearGradient id="e" x1="24.823" x2="24.997" y1="15.378" y2="37.277" gradientTransform="matrix(.90695 0 0 1.0808 -5.2694 -11.995)" gradientUnits="userSpaceOnUse"><stop offset="0" stop-color="#ff8639"/><stop offset=".239" stop-color="#cb5314"/><stop offset=".276" stop-color="#ff8639"/><stop offset="1" stop-color="#cb5314"/></linearGradient><linearGradient id="d" x1="15.464" x2="15.464" y1="7.976" y2="45.042" gradientTransform="matrix(.70732 0 0 .69403 -.97579 -1.3833)" gradientUnits="userSpaceOnUse"><stop offset="0" stop-color="#cb5314"/><stop offset=".239" stop-color="#9e410f"/><stop offset=".276" stop-color="#cb5314"/><stop offset="1" stop-color="#9e410f"/></linearGradient><linearGradient id="f" x1="23.452" x2="43.007" y1="30.555" y2="45.934" gradientTransform="matrix(.90695 0 0 .81527 -5.2694 -5.0638)" gradientUnits="userSpaceOnUse"><stop offset="0" stop-color="#fff" stop-opacity="0"/><stop offset="1" stop-color="#fff" stop-opacity="0"/></linearGradient><linearGradient id="g" x1="44.995" x2="3.005" y1="17.5" y2="17.5" gradientTransform="matrix(.70749 0 0 .69403 -.97980 -1.6455)" gradientUnits="userSpaceOnUse" spreadMethod="reflect"><stop offset="0" stop-color="#fff" stop-opacity="0"/><stop offset=".245" stop-color="#fff"/><stop offset=".773" stop-color="#fff"/><stop offset="1" stop-color="#fff" stop-opacity="0"/></linearGradient></defs><g opacity=".4" transform="matrix(.69054 0 0 .67815 -.50409 -.44851)"><rect width="2.96" height="15.367" x="-3.69" y="-47.848" fill="url(#b)" transform="scale(-1)"/><rect width="40.412" height="15.367" x="3.69" y="32.482" fill="url(#c)"/><rect width="2.96" height="15.367" x="44.11" y="-47.848" fill="url(#a)" transform="scale(1,-1)"/></g><path fill="url(#e)" stroke="url(#d)" stroke-linecap="round" stroke-width=".994" d="m5.3977 4.5159h20.864c1.218 0 1.7661-0.19887 2.116 0.69403l2.1232 5.29v18.081c0 1.078 0.0728 0.91332-1.1452 0.91332h-26.712c-1.218 0-1.1452 0.16471-1.1452-0.91332v-18.081l2.1232-5.29c0.3401-0.87486 0.55789-0.69403 1.7759-0.69403z" display="block"/><path fill="none" stroke="url(#f)" stroke-width=".742" d="m6.0608 5.219h19.56c1.1418 0 1.8485 0.38625 2.3268 1.4478l1.6473 4.4555v16.063c0 1.0137-0.57913 1.5241-1.721 1.5241h-23.86c-1.1418 0-1.6076-0.56135-1.6076-1.5751v-16.012l1.5942-4.551c0.31884-0.82269 0.91924-1.3522 2.0611-1.3522z" display="block" opacity=".505"/><path fill="none" stroke="url(#g)" stroke-linecap="square" stroke-width="1" d="m1.5001 10.5h29" opacity=".4"/></svg>