<svg xmlns="http://www.w3.org/2000/svg" xmlns:xlink="http://www.w3.org/1999/xlink" width="128" height="128" version="1.1"><defs><linearGradient id="y" x1="156.09" x2="156.09" y1="24.324" y2="29.866" gradientUnits="userSpaceOnUse"><stop offset="0" stop-color="#fff"/><stop offset="1" stop-color="#fff" stop-opacity="0"/></linearGradient><linearGradient id="j" x1="68.524" x2="68.524" y1="72.81" y2="49.248" gradientTransform="matrix(-.86603 0.5 -0.5 -.86603 362.73 372.26)" gradientUnits="userSpaceOnUse" xlink:href="#a"/><linearGradient id="a"><stop offset="0"/><stop offset=".13" stop-opacity="0"/><stop offset=".875" stop-opacity="0"/><stop offset="1"/></linearGradient><linearGradient id="i" x1="68.524" x2="68.524" y1="72.81" y2="49.248" gradientTransform="matrix(-.96593 .25882 -.25882 -.96593 354.9 394.87)" gradientUnits="userSpaceOnUse" xlink:href="#a"/><linearGradient id="l" x1="68.524" x2="68.524" y1="72.81" y2="49.248" gradientTransform="matrix(-.5 .86603 -.86603 -.5 359.93 324.9)" gradientUnits="userSpaceOnUse" xlink:href="#a"/><linearGradient id="k" x1="68.524" x2="68.524" y1="72.81" y2="49.248" gradientTransform="matrix(-.70711 .70711 -.70711 -.70711 364.45 348.4)" gradientUnits="userSpaceOnUse" xlink:href="#a"/><linearGradient id="m" x1="68.524" x2="68.524" y1="72.81" y2="49.248" gradientTransform="matrix(.96593 .25882 -.25882 .96593 222.52 277.27)" gradientUnits="userSpaceOnUse" xlink:href="#a"/><linearGradient id="n" x1="68.524" x2="68.524" y1="72.81" y2="49.248" gradientTransform="matrix(.86603 .5 -.5 .86603 244.05 266.83)" gradientUnits="userSpaceOnUse" xlink:href="#a"/><linearGradient id="o" x1="68.524" x2="68.524" y1="72.81" y2="49.248" gradientTransform="matrix(.70711 .70711 -.70711 .70711 267.54 262.31)" gradientUnits="userSpaceOnUse" xlink:href="#a"/><linearGradient id="r" x1="68.524" x2="68.524" y1="72.81" y2="49.248" gradientTransform="matrix(.25882 .96593 -.96593 .25882 314.02 271.86)" gradientUnits="userSpaceOnUse" xlink:href="#a"/><linearGradient id="p" x1="68.524" x2="68.524" y1="72.81" y2="49.248" gradientTransform="matrix(0.5 .86603 -.86603 0.5 291.41 264.03)" gradientUnits="userSpaceOnUse" xlink:href="#a"/><linearGradient id="q" x1="68.524" x2="68.524" y1="72.81" y2="49.248" gradientTransform="matrix(-.25882 .96593 -.96593 -.25882 349.49 303.37)" gradientUnits="userSpaceOnUse" xlink:href="#a"/><linearGradient id="s" x1="68.524" x2="68.524" y1="72.81" y2="49.248" gradientTransform="matrix(0 1 -1 0 333.83 285.28)" gradientUnits="userSpaceOnUse" xlink:href="#a"/><linearGradient id="t" x1="68.524" x2="68.524" y1="72.81" y2="49.248" gradientTransform="translate(204.43 292.93)" gradientUnits="userSpaceOnUse"><stop offset="0"/><stop offset=".098" stop-opacity="0"/><stop offset=".865" stop-opacity="0"/><stop offset="1"/></linearGradient><linearGradient id="x" x1="158.08" x2="158.08" y1="38.954" y2="40.501" gradientUnits="userSpaceOnUse"><stop offset="0" stop-color="#fff"/><stop offset="1" stop-color="#fff" stop-opacity="0"/></linearGradient><linearGradient id="u" x1="50.459" x2="50.524" y1="-110.36" y2="-119.25" gradientUnits="userSpaceOnUse" xlink:href="#b"/><linearGradient id="b"><stop offset="0" stop-color="#fff"/><stop offset="1" stop-color="#fff" stop-opacity="0"/></linearGradient><linearGradient id="v" x1="111.35" x2="115.31" y1="-12.596" y2="-12.698" gradientUnits="userSpaceOnUse" xlink:href="#b"/><linearGradient id="w" x1="-54.576" x2="-57.669" y1="86.1" y2="86.115" gradientUnits="userSpaceOnUse" xlink:href="#b"/><radialGradient id="f" cx="152.01" cy="28.006" r="3.953" gradientTransform="matrix(-.56186 1.4654 -1.1586 -.44422 273.75 -186.65)" gradientUnits="userSpaceOnUse"><stop offset="0" stop-color="#f0f0f0"/><stop offset="1" stop-color="#969696"/></radialGradient><linearGradient id="aa" x1="157" x2="157" y1="14" y2="48" gradientTransform="matrix(2.8056 0 0 2.7862 -170.51 282.07)" gradientUnits="userSpaceOnUse"><stop offset="0" stop-color="#fff"/><stop offset="1" stop-color="#fff" stop-opacity="0"/></linearGradient><radialGradient id="e" cx="157.02" cy="8.462" r="19.5" gradientTransform="matrix(-2.6873 2.7573 -2.7453 -2.6279 715.29 -98.028)" gradientUnits="userSpaceOnUse" xlink:href="#d"/><linearGradient id="d"><stop offset="0" stop-color="#a0a0a0"/><stop offset="1" stop-color="#646464"/></linearGradient><linearGradient id="z" x1="157.3" x2="157.3" y1="16.457" y2="7.326" gradientTransform="matrix(2.6014 0 0 3.1431 -139.18 284.24)" gradientUnits="userSpaceOnUse" xlink:href="#d"/><radialGradient id="h" cx="4.993" cy="43.5" r="2.5" gradientTransform="matrix(2.0038 0 0 1.4 27.988 -17.4)" gradientUnits="userSpaceOnUse" xlink:href="#c"/><linearGradient id="c"><stop offset="0" stop-color="#181818"/><stop offset="1" stop-color="#181818" stop-opacity="0"/></linearGradient><radialGradient id="g" cx="4.993" cy="43.5" r="2.5" gradientTransform="matrix(2.0038 0 0 1.4 -20.012 -104.4)" gradientUnits="userSpaceOnUse" xlink:href="#c"/><linearGradient id="ab" x1="25.058" x2="25.058" y1="47.028" y2="39.999" gradientUnits="userSpaceOnUse"><stop offset="0" stop-color="#181818" stop-opacity="0"/><stop offset=".5" stop-color="#181818"/><stop offset="1" stop-color="#181818" stop-opacity="0"/></linearGradient></defs><g transform="translate(-207.43 -296.93)"><g opacity=".4" transform="matrix(3.2105 0 0 1.5408 194.38 347.52)"><rect width="5" height="7" x="38" y="40" fill="url(#h)"/><rect width="5" height="7" x="-10" y="-47" fill="url(#g)" transform="scale(-1)"/><rect width="28" height="7" x="10" y="40" fill="url(#ab)"/></g><path fill="url(#z)" stroke="#505050" stroke-linejoin="round" d="m220.37 325.01 9.9407-23.482h82.119l9.9407 23.482h-102" enable-background="new"/><rect width="101.37" height="93.904" x="220.74" y="320.53" fill="none" stroke="#fff" stroke-linecap="round" color="#000" opacity=".4" rx="5.502" ry="5.534"/><rect width="102.87" height="93.904" x="219.99" y="321.53" fill="url(#e)" stroke="#505050" stroke-linecap="round" color="#000" opacity=".99" rx="5.584" ry="5.534"/><path stroke="#000" stroke-linecap="round" stroke-linejoin="round" stroke-width=".371" d="m162.03 30.531c-0.34173 0.08362-0.60653 0.25322-0.8125 0.40625l-2.4062 1.7812c-0.42842-0.1513-0.82549-0.375-1.3125-0.375-0.85325 0-1.5918 0.3143-2.25 0.75l-2.47-1.093c-1.1675-0.51358-2.5291 0.04598-3.0312 1.1875-0.49029 1.1146 0.0346 2.507 1.1562 3l2.5312 1.125c0.26972 1.4159 1.1952 2.5615 2.5 3.0938l0.46875 2.4375c0.22283 1.2047 1.4116 2.0369 2.625 1.8125 1.2047-0.22282 2.037-1.4115 1.8125-2.625l-0.5-2.5625c0.7807-0.76847 1.375-1.7325 1.375-2.9062 0-0.13231-0.0486-0.19421-0.0625-0.3125l2.25-1.6875c0.98743-0.7336 1.2048-2.1655 0.46875-3.1562-0.54541-0.73411-1.4631-1.0905-2.3438-0.875z" color="#000" opacity=".15" transform="matrix(2.6957 0 0 2.6964 -152.48 285.93)"/><rect width="80.87" height="72.206" x="230.99" y="332.49" fill="none" stroke="#fff" stroke-linecap="round" color="#000" opacity=".4" rx="6.137" ry="5.902"/><rect width="80.87" height="71.902" x="230.99" y="331.49" fill="none" stroke="#505050" stroke-linecap="round" color="#000" rx="6.137" ry="5.877"/><rect width="101" height="91.946" x="220.87" y="322.47" fill="none" stroke="url(#aa)" stroke-linecap="round" color="#000" opacity=".4" rx="4.938" ry="4.859"/><path fill="url(#f)" stroke="#505050" stroke-linecap="round" stroke-linejoin="round" stroke-width=".257" d="m160.37 27.156c0 1.9848-1.609 3.5938-3.5938 3.5938s-3.5938-1.609-3.5938-3.5938 1.609-3.5937 3.5938-3.5937 3.5938 1.609 3.5938 3.5937z" color="#000" opacity=".99" transform="matrix(3.8714 0 0 3.8962 -334.02 247.63)"/><rect width="5.698" height="16.237" x="467.58" y="-9.934" fill="#b4b4b4" stroke="#3c3c3c" stroke-linecap="round" stroke-linejoin="round" color="#000" opacity=".99" rx="2.849" ry="2.849" transform="matrix(.59626 .80279 -.80264 .59647 0 0)"/><rect width="5.698" height="16.236" x="-244.35" y="384.45" fill="#b4b4b4" stroke="#3c3c3c" stroke-linecap="round" stroke-linejoin="round" color="#000" opacity=".99" rx="2.849" ry="2.849" transform="matrix(.40257 -.91539 .91531 .40275 0 0)"/><rect width="5.697" height="16.24" x="195.45" y="-445.85" fill="#b4b4b4" stroke="#3c3c3c" stroke-linecap="round" stroke-linejoin="round" color="#000" opacity=".99" rx="2.848" ry="2.849" transform="matrix(.98331 -.18192 -.18183 -.98333 0 0)"/><path fill="none" stroke="url(#w)" stroke-linecap="round" stroke-linejoin="round" d="m-55.875 79.906c-1.0922 0-1.9375 0.84551-1.9375 1.9375v10.531c0 1.092 0.84525 1.9375 1.9375 1.9375s1.9375-0.84551 1.9375-1.9375v-10.531c0-1.092-0.84525-1.9375-1.9375-1.9375z" color="#000" opacity=".99" transform="matrix(.40257 -.91539 .91531 .40275 204.96 293.02)"/><path fill="#b4b4b4" stroke="url(#v)" stroke-linecap="round" stroke-linejoin="round" d="m113.38-19.5c-1.0292 0-1.8438 0.83265-1.8438 1.875v10.531c0 1.0423 0.80129 1.8438 1.8438 1.8438s1.8438-0.8014 1.8438-1.8438v-10.531c0-1.0423-0.81452-1.875-1.8438-1.875z" color="#000" opacity=".99" transform="matrix(.59626 .80279 -.80264 .59647 204.43 292.93)"/><path fill="#b4b4b4" stroke="url(#u)" stroke-linecap="round" stroke-linejoin="round" d="m50.531-119.59c-1.0307 0-1.8125 0.78147-1.8125 1.8125v10.562c0 1.031 0.78182 1.8125 1.8125 1.8125s1.8125-0.78147 1.8125-1.8125v-10.562c0-1.031-0.78182-1.8125-1.8125-1.8125z" color="#000" opacity=".99" transform="matrix(.98331 -.18192 -.18183 -.98333 204.43 292.93)"/><path fill="#b4b4b4" stroke="#505050" stroke-linecap="round" stroke-linejoin="round" stroke-width=".191" d="m159.36 39.762c0 0.85427-0.69252 1.5468-1.5468 1.5468-0.85427 0-1.5468-0.69252-1.5468-1.5468 0-0.85427 0.69253-1.5468 1.5468-1.5468s1.5468 0.69252 1.5468 1.5468z" color="#000" transform="matrix(5.2282 0 0 5.2296 -552.58 175.76)"/><path fill="none" stroke="url(#x)" stroke-linecap="round" stroke-linejoin="round" stroke-width=".191" d="m157.81 38.406c-0.75818 0-1.3438 0.58557-1.3438 1.3438 0 0.75818 0.59 1.375 1.3438 1.375 0.75375 0 1.375-0.62125 1.375-1.375s-0.61682-1.3438-1.375-1.3438z" color="#000" transform="matrix(5.2282 0 0 5.2296 -552.64 175.76)"/><path fill="none" stroke="url(#t)" stroke-width="1" d="m272.95 365.93v-24.25" enable-background="new" opacity=".7"/><path fill="none" stroke="url(#s)" stroke-width="1" d="m260.83 353.81h24.25" enable-background="new" opacity=".7"/><path fill="none" stroke="url(#q)" stroke-width="1" d="m261.24 350.67 23.424 6.2764" enable-background="new" opacity=".7"/><path fill="none" stroke="url(#p)" stroke-width="1" d="m262.45 359.87 21.001-12.125" enable-background="new" opacity=".7"/><path fill="none" stroke="url(#r)" stroke-width="1" d="m261.24 356.94 23.424-6.2764" enable-background="new" opacity=".7"/><path fill="none" stroke="url(#o)" stroke-width="1" d="m264.38 362.38 17.147-17.147" enable-background="new" opacity=".7"/><path fill="none" stroke="url(#n)" stroke-width="1" d="m266.89 364.31 12.125-21.001" enable-background="new" opacity=".7"/><path fill="none" stroke="url(#m)" stroke-width="1" d="m269.81 365.52 6.2764-23.424" enable-background="new" opacity=".7"/><path fill="none" stroke="url(#k)" stroke-width="1" d="m264.38 345.23 17.147 17.147" enable-background="new" opacity=".7"/><path fill="none" stroke="url(#l)" stroke-width="1" d="m262.45 347.74 21.001 12.125" enable-background="new" opacity=".7"/><path fill="none" stroke="url(#i)" stroke-width="1" d="m269.81 342.09 6.2764 23.424" enable-background="new" opacity=".7"/><path fill="none" stroke="url(#j)" stroke-width="1" d="m266.89 343.31 12.125 21.001" enable-background="new" opacity=".7"/><path fill="#282828" stroke="#505050" stroke-width=".449" d="m160.37 27.156c0 1.9848-1.609 3.5938-3.5938 3.5938s-3.5938-1.609-3.5938-3.5938 1.609-3.5937 3.5938-3.5937 3.5938 1.609 3.5938 3.5937z" color="#000" opacity=".99" transform="matrix(2.2261 0 0 2.2264 -76.142 294.97)"/><path fill="none" stroke="url(#y)" stroke-width=".427" d="m156.78 24.156c-1.6621 0-3 1.3379-3 3s1.3379 3 3 3 3-1.3379 3-3-1.3379-3-3-3z" color="#000" opacity=".6" transform="matrix(2.3415 0 0 2.3418 -94.232 291.84)"/></g></svg>