<svg xmlns="http://www.w3.org/2000/svg" xmlns:svg="http://www.w3.org/2000/svg" xmlns:xlink="http://www.w3.org/1999/xlink" id="svg2" width="128" height="128" version="1.1"><defs id="defs4"><linearGradient id="linearGradient3880"><stop id="stop3882" offset="0" stop-color="#000" stop-opacity=".196"/><stop id="stop3884" offset="1" stop-color="#000" stop-opacity="0"/></linearGradient><linearGradient id="linearGradient3830"><stop id="stop3832" offset="0" stop-color="gray" stop-opacity=".51"/><stop id="stop3848" offset=".05" stop-color="gray" stop-opacity=".392"/><stop id="stop3846" offset=".904" stop-color="gray" stop-opacity=".471"/><stop id="stop3834" offset="1" stop-color="gray" stop-opacity=".588"/></linearGradient><linearGradient id="linearGradient3775"><stop id="stop3777" offset="0" stop-color="#fff" stop-opacity=".588"/><stop id="stop3779" offset="1" stop-color="#fff" stop-opacity="1"/></linearGradient><linearGradient id="linearGradient3765"><stop id="stop3767" offset="0" stop-color="#fff" stop-opacity="1"/><stop id="stop3769" offset="1" stop-color="#e4e4e4" stop-opacity="1"/></linearGradient><radialGradient id="radialGradient3771" cx="14.892" cy="-17.681" r="25.571" fx="14.892" fy="-17.681" gradientTransform="matrix(-1.7922484,4.7450628e-8,-3.529013e-8,-1.3329366,41.58142,-41.248313)" gradientUnits="userSpaceOnUse" xlink:href="#linearGradient3765"/><linearGradient id="linearGradient3781" x1="15.124" x2="15.124" y1="-18.801" y2="32.568" gradientUnits="userSpaceOnUse" xlink:href="#linearGradient3775"/><linearGradient id="linearGradient3836" x1="29.462" x2="29.462" y1="1008.808" y2="1033.228" gradientUnits="userSpaceOnUse" xlink:href="#linearGradient3830"/><radialGradient id="radialGradient3872" cx="14.892" cy="-17.681" r="25.571" fx="14.892" fy="-17.681" gradientTransform="matrix(-1.7922484,4.7450628e-8,-3.529013e-8,-1.3329366,41.58142,-41.248313)" gradientUnits="userSpaceOnUse" xlink:href="#linearGradient3765"/><linearGradient id="linearGradient3874" x1="15.124" x2="15.124" y1="-18.801" y2="32.568" gradientUnits="userSpaceOnUse" xlink:href="#linearGradient3775"/><linearGradient id="linearGradient3876" x1="29.462" x2="29.462" y1="1008.808" y2="1033.228" gradientUnits="userSpaceOnUse" xlink:href="#linearGradient3830"/><radialGradient id="radialGradient3888" cx="32.629" cy="60.415" r="26.29" fx="32.629" fy="60.415" gradientTransform="matrix(1,0,0,0.10474308,0,54.086896)" gradientUnits="userSpaceOnUse" xlink:href="#linearGradient3880"/><radialGradient id="radialGradient3899" cx="32.629" cy="60.415" r="26.29" fx="32.629" fy="60.415" gradientTransform="matrix(1,0,0,0.10474308,0,54.086896)" gradientUnits="userSpaceOnUse" xlink:href="#linearGradient3880"/><radialGradient id="radialGradient3901" cx="14.892" cy="-17.681" r="25.571" fx="14.892" fy="-17.681" gradientTransform="matrix(-1.7922484,4.7450628e-8,-3.529013e-8,-1.3329366,41.58142,-41.248313)" gradientUnits="userSpaceOnUse" xlink:href="#linearGradient3765"/><linearGradient id="linearGradient3903" x1="15.124" x2="15.124" y1="-18.801" y2="32.568" gradientUnits="userSpaceOnUse" xlink:href="#linearGradient3775"/><linearGradient id="linearGradient3905" x1="29.462" x2="29.462" y1="1008.808" y2="1033.228" gradientUnits="userSpaceOnUse" xlink:href="#linearGradient3830"/><radialGradient id="radialGradient3914" cx="14.892" cy="-17.681" r="25.571" fx="14.892" fy="-17.681" gradientTransform="matrix(-1.7922484,4.7450628e-8,-3.529013e-8,-1.3329366,41.58142,-41.248313)" gradientUnits="userSpaceOnUse" xlink:href="#linearGradient3765"/><linearGradient id="linearGradient3916" x1="15.124" x2="15.124" y1="-18.801" y2="32.568" gradientUnits="userSpaceOnUse" xlink:href="#linearGradient3775"/><linearGradient id="linearGradient3918" x1="29.462" x2="29.462" y1="1008.808" y2="1033.228" gradientUnits="userSpaceOnUse" xlink:href="#linearGradient3830"/><linearGradient id="linearGradient3922" x1="29.462" x2="29.462" y1="1008.808" y2="1033.228" gradientTransform="translate(0,-1.3508906)" gradientUnits="userSpaceOnUse" xlink:href="#linearGradient3830"/><linearGradient id="linearGradient3022" x1="29.462" x2="29.462" y1="1008.808" y2="1033.228" gradientTransform="translate(0,-1.3508906)" gradientUnits="userSpaceOnUse" xlink:href="#linearGradient3830"/><linearGradient id="linearGradient3794" x1="29.462" x2="29.462" y1="1008.808" y2="1033.228" gradientTransform="matrix(2.0661021,0,0,2.0661021,-1.0822163,-1122.9211)" gradientUnits="userSpaceOnUse" xlink:href="#linearGradient3830"/><linearGradient id="linearGradient3798" x1="29.462" x2="29.462" y1="1008.808" y2="1033.228" gradientTransform="matrix(2.0661021,0,0,2.0661021,-1.0822163,-1122.9211)" gradientUnits="userSpaceOnUse" xlink:href="#linearGradient3830"/><linearGradient id="linearGradient3804" x1="15.124" x2="15.124" y1="-18.801" y2="32.568" gradientUnits="userSpaceOnUse" xlink:href="#linearGradient3775"/><linearGradient id="linearGradient3028" x1="29.462" x2="29.462" y1="1008.808" y2="1033.228" gradientTransform="matrix(2.0661021,0,0,2.0661021,-1.0822163,-1122.9211)" gradientUnits="userSpaceOnUse" xlink:href="#linearGradient3830"/><linearGradient id="linearGradient3032" x1="29.462" x2="29.462" y1="1008.808" y2="1033.228" gradientTransform="matrix(2.0661021,0,0,2.0661021,-1.0822163,-1122.9211)" gradientUnits="userSpaceOnUse" xlink:href="#linearGradient3830"/></defs><metadata id="metadata7"/><g id="layer1" transform="translate(0,-924.36218)"><g id="g3806"><path id="path3878" fill="url(#radialGradient3899)" fill-opacity="1" stroke="none" d="m 58.919613,60.414944 a 26.290409,2.7537384 0 1 1 -52.5808183,0 26.290409,2.7537384 0 1 1 52.5808183,0 z" transform="matrix(2.0661021,0,0,2.0661021,-1.0822163,921.92718)"/><path id="path2985" fill="url(#radialGradient3914)" fill-opacity="1" stroke="none" d="m 40.780711,6.8335247 a 25.570608,25.570608 0 1 1 -51.141216,0 25.570608,25.570608 0 1 1 51.141216,0 z" transform="matrix(2.3842589,0,0,2.3842589,27.735177,969.99136)"/><path id="path3755" fill="none" stroke="#828282" stroke-dasharray="none" stroke-miterlimit="4" stroke-opacity=".588" stroke-width=".419" d="m 40.780711,6.8335247 a 25.570608,25.570608 0 1 1 -51.141216,0 25.570608,25.570608 0 1 1 51.141216,0 z" transform="matrix(2.3842589,0,0,2.3842589,27.735177,969.99136)"/><path id="path3773" fill="none" stroke="url(#linearGradient3804)" stroke-dasharray="none" stroke-miterlimit="4" stroke-opacity=".588" stroke-width=".433" d="m 40.780711,6.8335247 a 25.570608,25.570608 0 1 1 -51.141216,0 25.570608,25.570608 0 1 1 51.141216,0 z" transform="matrix(2.3441719,0,0,2.3441719,28.344903,970.26525)"/><path id="rect3789" fill="url(#linearGradient3032)" fill-opacity="1" stroke="none" d="m 43.338979,961.29741 c -13.835746,0 -24.986922,11.15117 -24.986922,24.98703 0,13.83566 11.151176,24.98686 24.986922,24.98686 l 41.322042,0 c 13.835746,0 24.986919,-11.1512 24.986919,-24.98686 0,-13.83586 -11.151173,-24.98703 -24.986919,-24.98703 l -41.322042,0 z m 48.940793,8.58734 c 0.19566,-0.0393 0.373587,0 0.581092,0 1.660044,0 3.034587,1.30991 3.034587,2.97002 0,1.65991 -1.374543,3.03449 -3.034587,3.03449 -1.660045,0 -2.970022,-1.37458 -2.970022,-3.03449 0,-1.45267 1.019249,-2.68985 2.38893,-2.97002 z m -58.43195,0.64566 2.582628,0 c 0.773129,0 1.420445,0.58264 1.420445,1.35578 l 0,4.00307 3.938507,0 c 0.773129,0 1.420445,0.64731 1.420445,1.42044 l 0,2.51817 c 0,0.77313 -0.647316,1.42044 -1.420445,1.42044 l -3.938507,0 0,4.00308 c 0,0.77313 -0.647316,1.35577 -1.420445,1.35577 l -2.582628,0 c -0.773129,0 -1.420445,-0.58264 -1.420445,-1.35577 l 0,-4.00308 -3.938507,0 c -0.773129,0 -1.420445,-0.64731 -1.420445,-1.42044 l 0,-2.51817 c 0,-0.77313 0.647316,-1.42044 1.420445,-1.42044 l 3.938507,0 0,-4.00307 c 0,-0.77314 0.647316,-1.35578 1.420445,-1.35578 z m 52.943867,5.35885 c 1.660044,0 2.970021,1.30991 2.970021,2.97002 0,1.66011 -1.309977,3.03469 -2.970021,3.03469 -1.660045,0 -3.034588,-1.37458 -3.034588,-3.03469 0,-1.66011 1.374543,-2.97002 3.034588,-2.97002 z m 12.202915,0 c 1.660046,0 3.034586,1.30991 3.034586,2.97002 0,1.66011 -1.37454,3.03469 -3.034586,3.03469 -1.660045,0 -2.970022,-1.37458 -2.970022,-3.03469 0,-1.66011 1.309977,-2.97002 2.970022,-2.97002 z m -43.065315,2.45349 3.228284,0 c 0.773129,0 1.420445,0.58285 1.420445,1.35599 l 0,0.25826 c 0,0.77314 -0.647316,1.35578 -1.420445,1.35578 l -3.228284,0 c -0.77313,0 -1.35588,-0.58264 -1.35588,-1.35578 l 0,-0.25826 c 0,-0.77314 0.58275,-1.35599 1.35588,-1.35599 z m 13.365097,0 3.228285,0 c 0.773129,0 1.35588,0.58285 1.35588,1.35599 l 0,0.25826 c 0,0.77314 -0.582751,1.35578 -1.35588,1.35578 l -3.228285,0 c -0.773129,0 -1.420445,-0.58264 -1.420445,-1.35578 l 0,-0.25826 c 0,-0.77314 0.647316,-1.35599 1.420445,-1.35599 z m 23.566478,2.90556 c 1.660044,0 3.034587,1.30991 3.034587,2.97003 0,1.6599 -1.374543,3.03448 -3.034587,3.03448 -1.660045,0 -2.970022,-1.37458 -2.970022,-3.03448 0,-1.66012 1.309977,-2.97003 2.970022,-2.97003 z m -43.00075,10.20138 c 3.912961,0 7.03766,3.12457 7.03766,7.03756 0,3.91295 -3.124699,7.10225 -7.03766,7.10225 -3.912962,0 -7.102226,-3.1893 -7.102226,-7.10225 0,-3.91299 3.189264,-7.03756 7.102226,-7.03756 z m 28.538035,0 c 3.912962,0 7.102226,3.12457 7.102226,7.03756 0,3.91295 -3.189264,7.10225 -7.102226,7.10225 -3.912962,0 -7.102226,-3.1893 -7.102226,-7.10225 0,-3.91299 3.189264,-7.03756 7.102226,-7.03756 z"/><path id="path3859" fill="#fff" fill-opacity=".196" stroke="none" d="m 64,925.33441 c -33.671117,0 -60.9500121,27.27897 -60.9500121,60.95003 0,21.26266 10.8745911,39.96766 27.3758531,50.87776 -2.105825,-24.6738 7.754122,-49.88169 28.538035,-66.69646 C 75.547651,957.04909 95.875972,951.61277 115.45886,953.6142 104.64096,936.60884 85.647607,925.33441 64,925.33441 z"/><path id="path3927" fill="url(#linearGradient3028)" fill-opacity="1" stroke="none" d="m 43.338979,961.29741 c -13.835746,0 -24.986922,11.15117 -24.986922,24.98703 0,13.83566 11.151176,24.98686 24.986922,24.98686 l 41.322042,0 c 13.835746,0 24.986919,-11.1512 24.986919,-24.98686 0,-13.83586 -11.151173,-24.98703 -24.986919,-24.98703 l -41.322042,0 z m 48.940793,8.58734 c 0.19566,-0.0393 0.373587,0 0.581092,0 1.660044,0 3.034587,1.30991 3.034587,2.97002 0,1.65991 -1.374543,3.03449 -3.034587,3.03449 -1.660045,0 -2.970022,-1.37458 -2.970022,-3.03449 0,-1.45267 1.019249,-2.68985 2.38893,-2.97002 z m -58.43195,0.64566 2.582628,0 c 0.773129,0 1.420445,0.58264 1.420445,1.35578 l 0,4.00307 3.938507,0 c 0.773129,0 1.420445,0.64731 1.420445,1.42044 l 0,2.51817 c 0,0.77313 -0.647316,1.42044 -1.420445,1.42044 l -3.938507,0 0,4.00308 c 0,0.77313 -0.647316,1.35577 -1.420445,1.35577 l -2.582628,0 c -0.773129,0 -1.420445,-0.58264 -1.420445,-1.35577 l 0,-4.00308 -3.938507,0 c -0.773129,0 -1.420445,-0.64731 -1.420445,-1.42044 l 0,-2.51817 c 0,-0.77313 0.647316,-1.42044 1.420445,-1.42044 l 3.938507,0 0,-4.00307 c 0,-0.77314 0.647316,-1.35578 1.420445,-1.35578 z m 52.943867,5.35885 c 1.660044,0 2.970021,1.30991 2.970021,2.97002 0,1.66011 -1.309977,3.03469 -2.970021,3.03469 -1.660045,0 -3.034588,-1.37458 -3.034588,-3.03469 0,-1.66011 1.374543,-2.97002 3.034588,-2.97002 z m 12.202915,0 c 1.660046,0 3.034586,1.30991 3.034586,2.97002 0,1.66011 -1.37454,3.03469 -3.034586,3.03469 -1.660045,0 -2.970022,-1.37458 -2.970022,-3.03469 0,-1.66011 1.309977,-2.97002 2.970022,-2.97002 z m -43.065315,2.45349 3.228284,0 c 0.773129,0 1.420445,0.58285 1.420445,1.35599 l 0,0.25826 c 0,0.77314 -0.647316,1.35578 -1.420445,1.35578 l -3.228284,0 c -0.77313,0 -1.35588,-0.58264 -1.35588,-1.35578 l 0,-0.25826 c 0,-0.77314 0.58275,-1.35599 1.35588,-1.35599 z m 13.365097,0 3.228285,0 c 0.773129,0 1.35588,0.58285 1.35588,1.35599 l 0,0.25826 c 0,0.77314 -0.582751,1.35578 -1.35588,1.35578 l -3.228285,0 c -0.773129,0 -1.420445,-0.58264 -1.420445,-1.35578 l 0,-0.25826 c 0,-0.77314 0.647316,-1.35599 1.420445,-1.35599 z m 23.566478,2.90556 c 1.660044,0 3.034587,1.30991 3.034587,2.97003 0,1.6599 -1.374543,3.03448 -3.034587,3.03448 -1.660045,0 -2.970022,-1.37458 -2.970022,-3.03448 0,-1.66012 1.309977,-2.97003 2.970022,-2.97003 z m -43.00075,10.20138 c 3.912961,0 7.03766,3.12457 7.03766,7.03756 0,3.91295 -3.124699,7.10225 -7.03766,7.10225 -3.912962,0 -7.102226,-3.1893 -7.102226,-7.10225 0,-3.91299 3.189264,-7.03756 7.102226,-7.03756 z m 28.538035,0 c 3.912962,0 7.102226,3.12457 7.102226,7.03756 0,3.91295 -3.189264,7.10225 -7.102226,7.10225 -3.912962,0 -7.102226,-3.1893 -7.102226,-7.10225 0,-3.91299 3.189264,-7.03756 7.102226,-7.03756 z"/><rect id="rect3933" width="91.337" height="50.251" x="18.378" y="961.096" fill="none" stroke="#b4b4b4" stroke-dasharray="none" stroke-miterlimit="4" stroke-opacity=".588" stroke-width="1" rx="25.125" ry="25.125"/></g></g></svg>