<svg xmlns="http://www.w3.org/2000/svg" xmlns:xlink="http://www.w3.org/1999/xlink" width="128" height="128" version="1.1"><defs><linearGradient id="e" x1=".857" x2=".857" y1="5.714" y2="44.858" gradientTransform="matrix(2.641 0 0 2.641 109.65 -63.026)" gradientUnits="userSpaceOnUse"><stop offset="0" stop-color="#0065c8"/><stop offset="1" stop-color="#00478b"/></linearGradient><linearGradient id="f" x1="24" x2="24" y1="5" y2="43" gradientTransform="matrix(2.7297 0 0 2.7297 -1.5135 -62.513)" gradientUnits="userSpaceOnUse"><stop offset="0" stop-color="#fff"/><stop offset=".063" stop-color="#fff" stop-opacity=".235"/><stop offset=".951" stop-color="#fff" stop-opacity=".157"/><stop offset="1" stop-color="#fff" stop-opacity=".392"/></linearGradient><radialGradient id="b" cx="7.496" cy="8.45" r="20" gradientTransform="matrix(5.0813e-8 6.1121 -6.4659 -1.1261e-7 118.64 -92.291)" gradientUnits="userSpaceOnUse"><stop offset="0" stop-color="#73baff"/><stop offset=".262" stop-color="#5aa7f3"/><stop offset=".705" stop-color="#1977d4"/><stop offset="1" stop-color="#0065c8"/></radialGradient><radialGradient id="d" cx="4.993" cy="43.5" r="2.5" gradientTransform="matrix(2.0038 0 0 1.4 27.988 -17.4)" gradientUnits="userSpaceOnUse"><stop offset="0" stop-color="#181818"/><stop offset="1" stop-color="#181818" stop-opacity="0"/></radialGradient><radialGradient id="c" cx="4.993" cy="43.5" r="2.5" gradientTransform="matrix(2.0038 0 0 1.4 -20.012 -104.4)" gradientUnits="userSpaceOnUse"><stop offset="0" stop-color="#181818"/><stop offset="1" stop-color="#181818" stop-opacity="0"/></radialGradient><linearGradient id="g" x1="25.058" x2="25.058" y1="47.028" y2="39.999" gradientUnits="userSpaceOnUse"><stop offset="0" stop-color="#181818" stop-opacity="0"/><stop offset=".5" stop-color="#181818"/><stop offset="1" stop-color="#181818" stop-opacity="0"/></linearGradient><radialGradient id="a" cx="-4.029" cy="93.468" r="35.338" gradientTransform="matrix(1 0 0 .43648 0 52.671)" gradientUnits="userSpaceOnUse"><stop offset="0"/><stop offset="1" stop-opacity="0"/></radialGradient><linearGradient id="h" x1="30" x2="30" y1="14" y2="50" gradientTransform="matrix(2 0 0 2 .0000011959 5)" gradientUnits="userSpaceOnUse"><stop offset="0" stop-color="#fff"/><stop offset="1" stop-color="#c4e0fa"/></linearGradient></defs><g transform="translate(0,64)"><path fill="url(#a)" d="m31.309 93.468a35.338 15.424 0 1 1 -70.676 0 35.338 15.424 0 1 1 70.676 0z" color="#000" opacity=".2" transform="matrix(1.5564 0 0 .38899 70.27 17.642)"/><g><g opacity=".4" transform="matrix(2.7 0 0 .55556 -0.8 30.889) matrix(1.0526 0 0 1.2857 -1.2632 -13.429)"><rect width="5" height="7" x="38" y="40" fill="url(#d)"/><rect width="5" height="7" x="-10" y="-47" fill="url(#c)" transform="scale(-1)"/><rect width="28" height="7" x="10" y="40" fill="url(#g)"/></g></g><rect width="102" height="102" x="13" y="-48" fill="url(#b)" color="#000" rx="5.5" ry="5.5"/><rect width="101" height="101" x="13.5" y="-47.5" fill="none" stroke="url(#f)" stroke-linecap="round" stroke-linejoin="round" opacity=".5" rx="5" ry="5"/><rect width="103" height="103" x="12.5" y="-48.5" fill="none" stroke="url(#e)" stroke-linecap="round" stroke-linejoin="round" color="#000" rx="6" ry="6"/></g><g><path stroke="#000" stroke-linejoin="round" stroke-width="2" d="m82 34c-23.149 0-42 18.851-42 42 0 2.037 0.15156 4.0395 0.43359 6h8.1211c-0.346-1.95-0.555-3.949-0.555-6 0-18.825 15.175-34 34-34 2.0514 0 4.0502 0.20919 6 0.55469v-8.1211c-1.9605-0.28203-3.963-0.43359-6-0.43359zm0 12c-16.521 0-30 13.479-30 30 0 2.0543 0.21262 4.0598 0.60938 6h8.2305c-0.536-1.908-0.84-3.915-0.84-6 0-12.198 9.8024-22 22-22 2.085 0 4.092 0.304 6 0.83984v-8.2305c-1.9402-0.39675-3.9457-0.60938-6-0.60938zm0 12c-9.8937 0-18 8.1063-18 18 0 2.1037 0.38633 4.1186 1.0586 6h8.9531c-1.25-1.669-2.012-3.729-2.012-6 0-5.5702 4.4298-10 10-10 2.2708 0 4.3311 0.7622 6 2.0117v-8.9531c-1.8814-0.67227-3.8963-1.0586-6-1.0586zm0 12a6 6 0 0 0 -6 6 6 6 0 0 0 6 6 6 6 0 0 0 6 -6 6 6 0 0 0 -6 -6zm-4 16c-1.108 0-2 0.892-2 2v16c0 1.108 0.892 2 2 2h8c1.108 0 2-0.892 2-2v-16c0-1.108-0.892-2-2-2h-8z" opacity=".05"/><path d="m82 34c-23.149 0-42 18.851-42 42 0 2.037 0.15156 4.0395 0.43359 6h8.1211c-0.346-1.95-0.555-3.949-0.555-6 0-18.825 15.175-34 34-34 2.0514 0 4.0502 0.20919 6 0.55469v-8.1211c-1.9605-0.28203-3.963-0.43359-6-0.43359zm0 12c-16.521 0-30 13.479-30 30 0 2.0543 0.21262 4.0598 0.60938 6h8.2305c-0.536-1.908-0.84-3.915-0.84-6 0-12.198 9.8024-22 22-22 2.085 0 4.092 0.304 6 0.83984v-8.2305c-1.9402-0.39675-3.9457-0.60938-6-0.60938zm0 12c-9.8937 0-18 8.1063-18 18 0 2.1037 0.38633 4.1186 1.0586 6h8.9531c-1.25-1.669-2.012-3.729-2.012-6 0-5.5702 4.4298-10 10-10 2.2708 0 4.3311 0.7622 6 2.0117v-8.9531c-1.8814-0.67227-3.8963-1.0586-6-1.0586zm0 12a6 6 0 0 0 -6 6 6 6 0 0 0 6 6 6 6 0 0 0 6 -6 6 6 0 0 0 -6 -6zm-4 16c-1.108 0-2 0.892-2 2v16c0 1.108 0.892 2 2 2h8c1.108 0 2-0.892 2-2v-16c0-1.108-0.892-2-2-2h-8z" opacity=".15"/><path fill="url(#h)" d="m82 33c-23.149 0-42 18.851-42 42 0 2.037 0.15156 4.0395 0.43359 6h8.1211c-0.346-1.95-0.555-3.949-0.555-6 0-18.825 15.175-34 34-34 2.0514 0 4.0502 0.20919 6 0.55469v-8.1211c-1.9605-0.28203-3.963-0.43359-6-0.43359zm0 12c-16.521 0-30 13.479-30 30 0 2.0543 0.21262 4.0598 0.60938 6h8.2305c-0.536-1.908-0.84-3.915-0.84-6 0-12.198 9.8024-22 22-22 2.085 0 4.092 0.304 6 0.83984v-8.2305c-1.9402-0.39675-3.9457-0.60938-6-0.60938zm0 12c-9.8937 0-18 8.1063-18 18 0 2.1037 0.38633 4.1186 1.0586 6h8.9531c-1.25-1.669-2.012-3.729-2.012-6 0-5.5702 4.4298-10 10-10 2.2708 0 4.3311 0.7622 6 2.0117v-8.9531c-1.8814-0.67227-3.8963-1.0586-6-1.0586zm0 12a6 6 0 0 0 -6 6 6 6 0 0 0 6 6 6 6 0 0 0 6 -6 6 6 0 0 0 -6 -6zm-4 16c-1.108 0-2 0.892-2 2v16c0 1.108 0.892 2 2 2h8c1.108 0 2-0.892 2-2v-16c0-1.108-0.892-2-2-2h-8z"/></g></svg>