<svg xmlns="http://www.w3.org/2000/svg" xmlns:svg="http://www.w3.org/2000/svg" xmlns:xlink="http://www.w3.org/1999/xlink" id="svg3049" width="128" height="128" version="1.1"><defs id="defs3051"><linearGradient id="linearGradient5228" x1="167.983" x2="167.983" y1="8.508" y2="54.78" gradientTransform="matrix(1.832495,0,0,1.8439152,-232.17581,-55.441403)" gradientUnits="userSpaceOnUse" xlink:href="#linearGradient5803"/><linearGradient id="linearGradient5803"><stop id="stop5805" offset="0" stop-color="#fff5ef" stop-opacity="1"/><stop id="stop5807" offset="1" stop-color="#fef8dd" stop-opacity="1"/></linearGradient><linearGradient id="linearGradient4136" x1="24" x2="24" y1="5" y2="43" gradientTransform="matrix(2.7297298,0,0,2.7297298,-1.5135175,-62.511681)" gradientUnits="userSpaceOnUse" xlink:href="#linearGradient3924"/><linearGradient id="linearGradient3924"><stop id="stop3926" offset="0" stop-color="#fff" stop-opacity="1"/><stop id="stop3928" offset=".063" stop-color="#fff" stop-opacity=".235"/><stop id="stop3930" offset=".951" stop-color="#fff" stop-opacity=".157"/><stop id="stop3932" offset="1" stop-color="#fff" stop-opacity=".392"/></linearGradient><radialGradient id="radialGradient5264-4" cx="6.73" cy="9.957" r="12.672" fx="6.2" fy="9.957" gradientTransform="matrix(0,25.083279,-30.794253,0,372.81656,-272.08999)" gradientUnits="userSpaceOnUse" xlink:href="#linearGradient2867-449-88-871-390-598-476-591-434-148-57-177-8-3-3-6-4-8-8-8-4"/><linearGradient id="linearGradient2867-449-88-871-390-598-476-591-434-148-57-177-8-3-3-6-4-8-8-8"><stop id="stop3750-1-0-7-6-6-1-3-9" offset="0" stop-color="#bebebe" stop-opacity="1"/><stop id="stop3752-3-7-4-0-32-8-923-0" offset=".262" stop-color="#999" stop-opacity="1"/><stop id="stop3754-1-8-5-2-7-6-7-1" offset=".705" stop-color="#787878" stop-opacity="1"/><stop id="stop3756-1-6-2-6-6-1-96-6" offset="1" stop-color="#666" stop-opacity="1"/></linearGradient><radialGradient id="radialGradient4093" cx="4.993" cy="43.5" r="2.5" fx="4.993" fy="43.5" gradientTransform="matrix(2.003784,0,0,1.4,27.98813,-17.4)" gradientUnits="userSpaceOnUse" xlink:href="#linearGradient3688-166-749-5"/><linearGradient id="linearGradient3688-166-749-5"><stop id="stop2883-0" offset="0" stop-color="#181818" stop-opacity="1"/><stop id="stop2885-5" offset="1" stop-color="#181818" stop-opacity="0"/></linearGradient><radialGradient id="radialGradient4095" cx="4.993" cy="43.5" r="2.5" fx="4.993" fy="43.5" gradientTransform="matrix(2.003784,0,0,1.4,-20.01187,-104.4)" gradientUnits="userSpaceOnUse" xlink:href="#linearGradient3688-464-309-8"/><linearGradient id="linearGradient3688-464-309-8"><stop id="stop2889-9" offset="0" stop-color="#181818" stop-opacity="1"/><stop id="stop2891-4" offset="1" stop-color="#181818" stop-opacity="0"/></linearGradient><linearGradient id="linearGradient4097" x1="25.058" x2="25.058" y1="47.028" y2="39.999" gradientUnits="userSpaceOnUse" xlink:href="#linearGradient3702-501-757-0"/><linearGradient id="linearGradient3702-501-757-0"><stop id="stop2895-0" offset="0" stop-color="#181818" stop-opacity="0"/><stop id="stop2897-2" offset=".5" stop-color="#181818" stop-opacity="1"/><stop id="stop2899-6" offset="1" stop-color="#181818" stop-opacity="0"/></linearGradient><linearGradient id="linearGradient3811"><stop id="stop3813" offset="0" stop-color="#000" stop-opacity="1"/><stop id="stop3815" offset="1" stop-color="#000" stop-opacity="0"/></linearGradient><radialGradient id="radialGradient6276" cx="-4.029" cy="93.468" r="35.338" fx="-4.029" fy="93.468" gradientTransform="matrix(1.5563924,0,0,0.16978827,70.270355,38.132099)" gradientUnits="userSpaceOnUse" xlink:href="#linearGradient3811"/><radialGradient id="radialGradient3337-2-2" cx="4.993" cy="43.5" r="2.5" fx="4.993" fy="43.5" gradientTransform="matrix(2.003784,0,0,1.4,27.98813,-17.4)" gradientUnits="userSpaceOnUse" xlink:href="#linearGradient3688-166-749-4-0-3-8"/><linearGradient id="linearGradient3688-166-749-4-0-3-8"><stop id="stop2883-4-0-1-8" offset="0" stop-color="#181818" stop-opacity="1"/><stop id="stop2885-9-2-9-6" offset="1" stop-color="#181818" stop-opacity="0"/></linearGradient><radialGradient id="radialGradient3339-1-4" cx="4.993" cy="43.5" r="2.5" fx="4.993" fy="43.5" gradientTransform="matrix(2.003784,0,0,1.4,-20.01187,-104.4)" gradientUnits="userSpaceOnUse" xlink:href="#linearGradient3688-464-309-9-2-4-2"/><linearGradient id="linearGradient3688-464-309-9-2-4-2"><stop id="stop2889-7-9-6-9" offset="0" stop-color="#181818" stop-opacity="1"/><stop id="stop2891-6-6-1-7" offset="1" stop-color="#181818" stop-opacity="0"/></linearGradient><linearGradient id="linearGradient6394" x1="25.058" x2="25.058" y1="47.028" y2="39.999" gradientUnits="userSpaceOnUse" xlink:href="#linearGradient3702-501-757-8-4-1-1"/><linearGradient id="linearGradient3702-501-757-8-4-1-1"><stop id="stop2895-8-9-9-1" offset="0" stop-color="#181818" stop-opacity="0"/><stop id="stop2897-7-8-7-7" offset=".5" stop-color="#181818" stop-opacity="1"/><stop id="stop2899-4-5-1-5" offset="1" stop-color="#181818" stop-opacity="0"/></linearGradient><linearGradient id="linearGradient2867-449-88-871-390-598-476-591-434-148-57-177-8-3-3-6-4-8-8-8-4"><stop id="stop3750-1-0-7-6-6-1-3-9-7" offset="0" stop-color="#505050" stop-opacity="1"/><stop id="stop3752-3-7-4-0-32-8-923-0-7" offset=".262" stop-color="#3c3c3c" stop-opacity="1"/><stop id="stop3754-1-8-5-2-7-6-7-1-5" offset=".705" stop-color="#282828" stop-opacity="1"/><stop id="stop3756-1-6-2-6-6-1-96-6-2" offset="1" stop-color="#141414" stop-opacity="1"/></linearGradient><linearGradient id="linearGradient3833"><stop id="stop3835" offset="0" stop-color="#96d625" stop-opacity="1"/><stop id="stop3841" offset=".5" stop-color="#97eb00" stop-opacity="1"/><stop id="stop3843" offset=".75" stop-color="#87d200" stop-opacity="1"/><stop id="stop3837" offset="1" stop-color="#6eab00" stop-opacity="1"/></linearGradient><linearGradient id="linearGradient3924-2-2-5-8"><stop id="stop3926-9-4-9-6" offset="0" stop-color="#fff" stop-opacity="1"/><stop id="stop3928-9-8-6-5" offset=".063" stop-color="#fff" stop-opacity=".235"/><stop id="stop3930-3-5-1-7" offset=".951" stop-color="#fff" stop-opacity=".157"/><stop id="stop3932-8-0-4-8" offset="1" stop-color="#fff" stop-opacity=".392"/></linearGradient><linearGradient id="linearGradient3879" x1="24" x2="24" y1="5" y2="43" gradientTransform="matrix(2.7297298,0,0,2.7297298,-1.5135175,1.488319)" gradientUnits="userSpaceOnUse" xlink:href="#linearGradient3924"/><radialGradient id="radialGradient3882" cx="6.73" cy="9.957" r="12.672" fx="6.2" fy="9.957" gradientTransform="matrix(0,25.083279,-30.794253,0,372.81656,-208.08999)" gradientUnits="userSpaceOnUse" xlink:href="#linearGradient2867-449-88-871-390-598-476-591-434-148-57-177-8-3-3-6-4-8-8-8-4"/><radialGradient id="radialGradient3890" cx="-4.029" cy="93.468" r="35.338" fx="-4.029" fy="93.468" gradientTransform="matrix(1.5563924,0,0,0.16978827,70.270355,102.1321)" gradientUnits="userSpaceOnUse" xlink:href="#linearGradient3811"/><radialGradient id="radialGradient3897" cx="28.268" cy="7.594" r="25" fx="28.268" fy="7.594" gradientTransform="matrix(-1.900512e-8,3.9699998,-4.2337972,-2.0267965e-8,90.469629,-94.439371)" gradientUnits="userSpaceOnUse" xlink:href="#linearGradient3833"/></defs><metadata id="metadata3054"/><g id="g3911"><path id="path3041" fill="url(#radialGradient3890)" fill-opacity="1" fill-rule="nonzero" stroke="none" stroke-width="1" d="m 119,118.00181 a 55,6 0 0 1 -109.9999975,0 55,6 0 1 1 109.9999975,0 z" color="#000" display="inline" enable-background="accumulate" opacity=".2" overflow="visible" visibility="visible" style="marker:none"/><g id="g2036" display="inline" transform="matrix(2.6999989,0,0,0.55555607,-0.8000075,94.890689)"><g id="g3712" opacity=".4" transform="matrix(1.052632,0,0,1.285713,-1.263158,-13.42854)"><rect id="rect2801" width="5" height="7" x="38" y="40" fill="url(#radialGradient4093)" fill-opacity="1" stroke="none"/><rect id="rect3696" width="5" height="7" x="-10" y="-47" fill="url(#radialGradient4095)" fill-opacity="1" stroke="none" transform="scale(-1,-1)"/><rect id="rect3700" width="28" height="7" x="10" y="40" fill="url(#linearGradient4097)" fill-opacity="1" stroke="none"/></g></g><rect id="rect5505-21-3" width="103" height="103" x="12.5" y="15.502" fill="url(#radialGradient3882)" fill-opacity="1" fill-rule="nonzero" stroke="none" stroke-width="1" color="#000" display="inline" enable-background="accumulate" overflow="visible" rx="6.055" ry="6.055" visibility="visible" style="marker:none"/><path id="path21" fill="url(#radialGradient3897)" fill-opacity="1" d="m 57.565678,15.5 0,28.1875 c 0.538069,-0.04125 1.052737,-0.04408 1.59375,-0.0625 20.838461,-0.702325 34.4375,17.0625 34.4375,17.0625 0,0 -15.597103,18.96875 -31.84375,18.96875 -1.488987,0 -2.878237,-0.174242 -4.1875,-0.40625 l 0,5.125 c 1.119594,0.14223 2.2887,0.21875 3.5,0.21875 15.118581,0 26.006929,-7.767925 36.59375,-16.90625 1.755248,1.405752 8.960292,4.877902 10.437502,6.375 -10.066072,8.427528 -33.512529,15.15625 -46.812502,15.15625 -1.282011,0 -2.508556,-0.03955 -3.71875,-0.15625 l 0,29.4375 51.871822,0 c 3.35422,0 6.0625,-2.70828 6.0625,-6.0625 l 0,-90.875 c 0,-3.354216 -2.70828,-6.0625 -6.0625,-6.0625 z m 0,73.5625 0,-4.6875 c -18.501683,-2.327579 -24.875,-22.75 -24.875,-22.75 0,0 8.326716,-12.20368 24.875,-13.46875 l 0,-4.46875 c -18.329324,1.472049 -34.1875,17 -34.1875,17 0,0 8.975611,25.995492 34.1875,28.375 z m 0,-40.90625 0,5.4375 c 0.980382,-0.104958 1.987891,-0.156617 3.03125,-0.15625 9.598682,0 15.3125,7.5 15.3125,7.5 l -7.8125,6.53125 c -3.507213,-5.846576 -4.697569,-8.420097 -10.53125,-9.125 l 0,16.625 c 1.322153,0.44452 2.767737,0.6875 4.40625,0.6875 11.385243,0 22,-14.71875 22,-14.71875 0,0 -9.827605,-13.376922 -24.8125,-12.90625 -0.548009,0.01723 -1.061207,0.0878 -1.59375,0.125 z m 0,26.8125 c -7.883204,-2.648735 -10.4375,-11.875 -10.4375,-11.875 0,0 4.585035,-5.452324 10.4375,-4.75 l 0,-4.75 c -11.150654,1.206144 -17.875,8.65625 -17.875,8.65625 0,0 3.891843,14.507054 17.875,17 z" clip-path="none"/><rect id="rect6741-7" width="101" height="101" x="13.5" y="16.502" fill="none" stroke="url(#linearGradient3879)" stroke-dasharray="none" stroke-dashoffset="0" stroke-linecap="round" stroke-linejoin="round" stroke-miterlimit="4" stroke-opacity="1" stroke-width="1" opacity=".5" rx="5" ry="5"/><rect id="rect5505-21-3-1" width="103" height="103" x="12.5" y="15.502" fill="none" stroke="#000" stroke-dasharray="none" stroke-dashoffset="0" stroke-linecap="round" stroke-linejoin="round" stroke-miterlimit="4" stroke-opacity="1" stroke-width="1" color="#000" display="inline" enable-background="accumulate" opacity=".7" overflow="visible" rx="6.055" ry="6.055" visibility="visible" style="marker:none"/></g></svg>