<svg xmlns="http://www.w3.org/2000/svg" xmlns:svg="http://www.w3.org/2000/svg" xmlns:xlink="http://www.w3.org/1999/xlink" id="svg6333" width="128" height="128" version="1.1"><defs id="defs6335"><linearGradient id="linearGradient5809" x1="167.983" x2="167.983" y1="8.508" y2="54.78" gradientTransform="translate(-130,1.759402e-6)" gradientUnits="userSpaceOnUse" xlink:href="#linearGradient5803"/><linearGradient id="linearGradient5803"><stop id="stop5805" offset="0" stop-color="#fff5ef" stop-opacity="1"/><stop id="stop5807" offset="1" stop-color="#fef8dd" stop-opacity="1"/></linearGradient><linearGradient id="linearGradient5801" x1="27.096" x2="27.096" y1="10.881" y2="39.151" gradientTransform="matrix(1.4102564,0,0,1.4102564,0.391129,-2.2559982)" gradientUnits="userSpaceOnUse" xlink:href="#linearGradient3895-9-0-3-5-2-0-4-9"/><linearGradient id="linearGradient3895-9-0-3-5-2-0-4-9"><stop id="stop3897-0-5-7-89-6-6-7-0" offset="0" stop-color="#dc5639" stop-opacity="1"/><stop id="stop3899-8-7-06-3-8-3-8-0" offset="1" stop-color="#9d0f0f" stop-opacity="1"/></linearGradient><linearGradient id="linearGradient3381-5-4" x1="24" x2="24" y1="5" y2="43" gradientTransform="matrix(1.4324324,0,0,1.4362832,-2.378381,-2.4707782)" gradientUnits="userSpaceOnUse" xlink:href="#linearGradient3924-2-2-5-8"/><linearGradient id="linearGradient3924-2-2-5-8"><stop id="stop3926-9-4-9-6" offset="0" stop-color="#fff" stop-opacity="1"/><stop id="stop3928-9-8-6-5" offset=".063" stop-color="#fff" stop-opacity=".235"/><stop id="stop3930-3-5-1-7" offset=".951" stop-color="#fff" stop-opacity=".157"/><stop id="stop3932-8-0-4-8" offset="1" stop-color="#fff" stop-opacity=".392"/></linearGradient><radialGradient id="radialGradient3402-7-1-6" cx="6.73" cy="9.957" r="12.672" fx="6.2" fy="9.957" gradientTransform="matrix(0,13.393984,-16.443533,0,196.90205,-114.89368)" gradientUnits="userSpaceOnUse" xlink:href="#linearGradient2867-449-88-871-390-598-476-591-434-148-57-177-8-3-3-6-4-8-8-8"/><linearGradient id="linearGradient2867-449-88-871-390-598-476-591-434-148-57-177-8-3-3-6-4-8-8-8"><stop id="stop3750-1-0-7-6-6-1-3-9" offset="0" stop-color="#bebebe" stop-opacity="1"/><stop id="stop3752-3-7-4-0-32-8-923-0" offset=".262" stop-color="#999" stop-opacity="1"/><stop id="stop3754-1-8-5-2-7-6-7-1" offset=".705" stop-color="#787878" stop-opacity="1"/><stop id="stop3756-1-6-2-6-6-1-96-6" offset="1" stop-color="#666" stop-opacity="1"/></linearGradient><radialGradient id="radialGradient3337-2-2" cx="4.993" cy="43.5" r="2.5" fx="4.993" fy="43.5" gradientTransform="matrix(2.003784,0,0,1.4,27.98813,-17.4)" gradientUnits="userSpaceOnUse" xlink:href="#linearGradient3688-166-749-4-0-3-8"/><linearGradient id="linearGradient3688-166-749-4-0-3-8"><stop id="stop2883-4-0-1-8" offset="0" stop-color="#181818" stop-opacity="1"/><stop id="stop2885-9-2-9-6" offset="1" stop-color="#181818" stop-opacity="0"/></linearGradient><radialGradient id="radialGradient3339-1-4" cx="4.993" cy="43.5" r="2.5" fx="4.993" fy="43.5" gradientTransform="matrix(2.003784,0,0,1.4,-20.01187,-104.4)" gradientUnits="userSpaceOnUse" xlink:href="#linearGradient3688-464-309-9-2-4-2"/><linearGradient id="linearGradient3688-464-309-9-2-4-2"><stop id="stop2889-7-9-6-9" offset="0" stop-color="#181818" stop-opacity="1"/><stop id="stop2891-6-6-1-7" offset="1" stop-color="#181818" stop-opacity="0"/></linearGradient><linearGradient id="linearGradient3702-501-757-8-4-1-1"><stop id="stop2895-8-9-9-1" offset="0" stop-color="#181818" stop-opacity="0"/><stop id="stop2897-7-8-7-7" offset=".5" stop-color="#181818" stop-opacity="1"/><stop id="stop2899-4-5-1-5" offset="1" stop-color="#181818" stop-opacity="0"/></linearGradient><linearGradient id="linearGradient6394" x1="25.058" x2="25.058" y1="47.028" y2="39.999" gradientUnits="userSpaceOnUse" xlink:href="#linearGradient3702-501-757-8-4-1-1"/><linearGradient id="linearGradient3028" x1="167.983" x2="167.983" y1="8.508" y2="54.78" gradientTransform="translate(-130,1.759402e-6)" gradientUnits="userSpaceOnUse" xlink:href="#linearGradient5803"/><linearGradient id="linearGradient3032" x1="27.096" x2="27.096" y1="10.881" y2="39.151" gradientTransform="matrix(1.4102564,0,0,1.4102564,0.391129,-2.2559982)" gradientUnits="userSpaceOnUse" xlink:href="#linearGradient3895-9-0-3-5-2-0-4-9"/><linearGradient id="linearGradient3035" x1="24" x2="24" y1="5" y2="43" gradientTransform="matrix(1.4324324,0,0,1.4362832,-2.378381,-2.4707782)" gradientUnits="userSpaceOnUse" xlink:href="#linearGradient3924-2-2-5-8"/><radialGradient id="radialGradient3038" cx="6.73" cy="9.957" r="12.672" fx="6.2" fy="9.957" gradientTransform="matrix(0,13.393984,-16.443533,0,196.90205,-114.89368)" gradientUnits="userSpaceOnUse" xlink:href="#linearGradient2867-449-88-871-390-598-476-591-434-148-57-177-8-3-3-6-4-8-8-8"/><radialGradient id="radialGradient4058" cx="21.051" cy="10.006" r="13.11" fx="21.051" fy="10.006" gradientTransform="matrix(-5.5939348e-8,1.2962808,-1.6110623,-6.9523343e-8,37.17116,-17.281796)" gradientUnits="userSpaceOnUse" xlink:href="#linearGradient3702-501-757"/><linearGradient id="linearGradient3702-501-757"><stop id="stop2895" offset="0" stop-color="#e3e3e3" stop-opacity="1"/><stop id="stop2897" offset=".5" stop-color="#cdcdcd" stop-opacity="1"/><stop id="stop2899" offset="1" stop-color="#c7c7c7" stop-opacity="1"/></linearGradient><radialGradient id="radialGradient4071" cx="23.558" cy="6.35" r="19.5" fx="23.558" fy="6.35" gradientTransform="matrix(0,2.9524361,-2.732804,0,51.20695,-58.265324)" gradientUnits="userSpaceOnUse" xlink:href="#linearGradient3974"/><linearGradient id="linearGradient3974"><stop id="stop3976" offset="0" stop-color="#e3e3e3" stop-opacity="1"/><stop id="stop3978" offset=".6" stop-color="#cdcdcd" stop-opacity="1"/><stop id="stop3980" offset="1" stop-color="#c7c7c7" stop-opacity="1"/></linearGradient><radialGradient id="radialGradient3085" cx="23.558" cy="6.35" r="19.5" fx="23.558" fy="6.35" gradientTransform="matrix(0,2.9524361,-2.732804,0,51.20695,-58.265324)" gradientUnits="userSpaceOnUse" xlink:href="#linearGradient3974"/><radialGradient id="radialGradient3087" cx="21.051" cy="10.006" r="13.11" fx="21.051" fy="10.006" gradientTransform="matrix(-5.5939348e-8,1.2962808,-1.6110623,-6.9523343e-8,37.17116,-17.281796)" gradientUnits="userSpaceOnUse" xlink:href="#linearGradient3702-501-757"/><linearGradient id="linearGradient3091" x1="24" x2="24" y1="5" y2="43" gradientTransform="matrix(1.4324324,0,0,1.4362832,-2.378381,-2.4707782)" gradientUnits="userSpaceOnUse" xlink:href="#linearGradient3924-2-2-5-8"/><radialGradient id="radialGradient3094" cx="6.73" cy="9.957" r="12.672" fx="6.2" fy="9.957" gradientTransform="matrix(0,13.393984,-16.443533,0,196.80586,-114.89336)" gradientUnits="userSpaceOnUse" xlink:href="#linearGradient2867-449-88-871-390-598-476-591-434-148-57-177-8-3-3-6-4-8-8-8"/><radialGradient id="radialGradient3105" cx="23.558" cy="6.35" r="19.5" fx="23.558" fy="6.35" gradientTransform="matrix(0,2.7757946,-2.5693029,0,47.595775,-59.693212)" gradientUnits="userSpaceOnUse" xlink:href="#linearGradient3974"/></defs><metadata id="metadata6338"/><g id="g3821"><g id="g3878" stroke-dasharray="none" stroke-miterlimit="4" stroke-width=".5" transform="matrix(1.9999964,0,0,1.9999964,7.6001937e-6,3.524078)"><g id="g3712-8-2-4-4" stroke-dasharray="none" stroke-miterlimit="4" stroke-width=".471" opacity=".6" transform="matrix(1.5789502,0,0,0.7142857,-5.894751,27.928572)"><rect id="rect2801-5-5-7-9" width="5" height="7" x="38" y="40" fill="url(#radialGradient3337-2-2)" fill-opacity="1" stroke="none"/><rect id="rect3696-3-0-3-7" width="5" height="7" x="-10" y="-47" fill="url(#radialGradient3339-1-4)" fill-opacity="1" stroke="none" transform="scale(-1,-1)"/><rect id="rect3700-5-6-8-4" width="28" height="7" x="10" y="40" fill="url(#linearGradient6394)" fill-opacity="1" stroke="none"/></g><rect id="rect5505-21-3-8-5-2" width="55" height="55" x="4.404" y="4.5" fill="url(#radialGradient3094)" fill-opacity="1" fill-rule="nonzero" stroke="none" stroke-width=".5" color="#000" display="inline" enable-background="accumulate" overflow="visible" rx="3" ry="3" visibility="visible" style="marker:none"/><g id="g3824" fill="#ff80e5" stroke-dasharray="none" stroke-miterlimit="4" stroke-width=".355" transform="matrix(1.4102564,0,0,1.4102564,-1.9423496,-3.2560934)"><rect id="rect3820" width="38" height="1.405" x="5" y="24.298" fill="#ff80e5" fill-opacity="1" stroke="none" rx="0" ry="0"/><rect id="rect3822" width="38" height="1.405" x="6" y="-24.702" fill="#ff80e5" fill-opacity="1" stroke="none" rx="0" ry="0" transform="matrix(0,1,-1,0,0,0)"/></g><path id="rect3899" fill="url(#radialGradient3105)" fill-opacity="1" fill-rule="nonzero" stroke="none" stroke-width=".5" d="m 7.2243173,4.5003173 c -1.5625641,0 -2.8205128,1.2579487 -2.8205128,2.8205128 l 0,12.3397439 7.4479165,0 c 1.934167,-3.135383 4.576957,-5.778173 7.71234,-7.71234 l 0,-7.4479167 -12.3397437,0 z m 18.6858977,0 0,4.7155449 c 1.91639,-0.5027912 3.919199,-0.7932693 5.993589,-0.7932693 2.07439,0 4.077199,0.2904781 5.99359,0.7932693 l 0,-4.7155449 -11.987179,0 z m 18.333333,0 0,7.4479167 c 3.135382,1.934167 5.778173,4.576957 7.71234,7.71234 l 7.447916,0 0,-12.3397439 c 0,-1.5625641 -1.257948,-2.8205128 -2.820512,-2.8205128 l -12.339744,0 z M 4.4038045,26.006728 l 0,11.987179 4.7155447,0 c -0.5027911,-1.916391 -0.7932691,-3.9192 -0.7932691,-5.99359 0,-2.074389 0.290478,-4.0772 0.7932691,-5.993589 l -4.7155447,0 z m 50.2844545,0 c 0.502791,1.916389 0.79327,3.9192 0.79327,5.993589 0,2.07439 -0.290479,4.077199 -0.79327,5.99359 l 4.715545,0 0,-11.987179 -4.715545,0 z m -50.2844545,18.333333 0,12.339743 c 0,1.562565 1.2579487,2.820513 2.8205128,2.820513 l 12.3397437,0 0,-7.447916 c -3.135383,-1.934167 -5.778173,-4.576958 -7.71234,-7.71234 l -7.4479165,0 z m 47.5520835,0 c -1.934167,3.135382 -4.576958,5.778173 -7.71234,7.71234 l 0,7.447916 12.339744,0 c 1.562564,0 2.820512,-1.257948 2.820512,-2.820513 l 0,-12.339743 -7.447916,0 z m -26.045673,10.444711 0,4.715545 11.987179,0 0,-4.715545 c -1.916391,0.502791 -3.9192,0.79327 -5.99359,0.79327 -2.07439,0 -4.077199,-0.290479 -5.993589,-0.79327 z" color="#000" display="inline" enable-background="accumulate" overflow="visible" visibility="visible" style="marker:none"/><path id="path3021" fill="url(#radialGradient3087)" fill-opacity="1" stroke="none" d="m 33.661017,19.423729 c 0,6.964404 -5.645765,12.610169 -12.610169,12.610169 -6.964404,0 -12.6101694,-5.645765 -12.6101694,-12.610169 0,-6.964404 5.6457654,-12.6101695 12.6101694,-12.6101695 6.964404,0 12.610169,5.6457655 12.610169,12.6101695 z" transform="matrix(1.0383206,0,0,1.0383206,10.046292,11.832252)"/><path id="path3818" fill="none" stroke="#adadad" stroke-dasharray="none" stroke-miterlimit="4" stroke-opacity=".718" stroke-width=".482" d="m 33.661017,19.423729 c 0,6.964404 -5.645765,12.610169 -12.610169,12.610169 -6.964404,0 -12.6101694,-5.645765 -12.6101694,-12.610169 0,-6.964404 5.6457654,-12.6101695 12.6101694,-12.6101695 6.964404,0 12.610169,5.6457655 12.610169,12.6101695 z" transform="matrix(1.0383206,0,0,1.0383206,10.046292,11.832252)"/><path id="path3828" fill="#ff80e5" fill-opacity="1" stroke="none" d="m 28.679908,26.212597 c -2.612515,0 -4.720517,1.352367 -4.720517,4.771275 0,3.41891 3.04784,4.46907 7.816771,9.238 3.670585,-3.670582 8.003081,-5.701829 8.07056,-9.238 0.06748,-3.536171 -2.107999,-4.771275 -4.720516,-4.771275 -1.242866,0 -2.353578,0.535839 -3.19777,1.319714 -0.846573,-0.796489 -1.994435,-1.319714 -3.248528,-1.319714 z"/><path id="path3837" fill="none" stroke="#adadad" stroke-dasharray="none" stroke-miterlimit="4" stroke-opacity=".196" stroke-width=".5" d="m 28.679908,26.212597 c -2.612515,0 -4.720517,1.352367 -4.720517,4.771275 0,3.41891 3.04784,4.46907 7.816771,9.238 3.670585,-3.670582 8.003081,-5.701829 8.07056,-9.238 0.06748,-3.536171 -2.107999,-4.771275 -4.720516,-4.771275 -1.242866,0 -2.353578,0.535839 -3.19777,1.319714 -0.846573,-0.796489 -1.994435,-1.319714 -3.248528,-1.319714 z"/><rect id="rect6741-5-0-2-3" width="53.976" height="54.003" x="4.899" y="4.999" fill="none" stroke="url(#linearGradient3091)" stroke-dasharray="none" stroke-dashoffset="0" stroke-linecap="round" stroke-linejoin="round" stroke-miterlimit="4" stroke-opacity="1" stroke-width=".5" opacity=".5" rx="2.406" ry="2.406"/><rect id="rect5505-21-3-8-9-1-1" width="54.98" height="55" x="4.401" y="4.5" fill="none" stroke="#323232" stroke-dasharray="none" stroke-dashoffset="0" stroke-linecap="round" stroke-linejoin="round" stroke-miterlimit="4" stroke-opacity="1" stroke-width=".5" color="#000" display="inline" enable-background="accumulate" opacity=".4" overflow="visible" rx="2.922" ry="2.922" visibility="visible" style="marker:none"/></g></g></svg>