<svg xmlns="http://www.w3.org/2000/svg" xmlns:xlink="http://www.w3.org/1999/xlink" id="svg5157" width="128" height="128" version="1.1"><defs id="defs5159"><linearGradient id="linearGradient3820-7-2-8-6"><stop id="stop3822-2-6-5-0" offset="0" stop-color="#3d3d3d"/><stop id="stop3864-8-7-4-1" offset=".5" stop-color="#686868" stop-opacity=".498"/><stop id="stop3824-1-2-6-7" offset="1" stop-color="#686868" stop-opacity="0"/></linearGradient><radialGradient id="radialGradient3819" cx="99.157" cy="186.17" r="62.769" gradientTransform="matrix(0.59764065,0,0,0.21247187,-0.33462646,69.558249)" gradientUnits="userSpaceOnUse" xlink:href="#linearGradient3820-7-2-8-6"/><linearGradient id="linearGradient3911" x1="54.32" x2="54.506" y1="11.726" y2="121.18" gradientTransform="matrix(0.99001085,0,0,0.99000516,-0.34280798,1.6702983)" gradientUnits="userSpaceOnUse"><stop id="stop3915" offset="0" stop-color="#FFF"/><stop id="stop3917" offset=".405" stop-color="#FFF" stop-opacity=".235"/><stop id="stop3919" offset=".892" stop-color="#FFF" stop-opacity=".157"/><stop id="stop3921" offset="1" stop-color="#FFF" stop-opacity=".392"/></linearGradient><linearGradient id="linearGradient3962" x1="93.816" x2="86.356" y1="10.463" y2="82.097" gradientTransform="matrix(0.99001085,0,0,0.99000516,-0.34280798,1.6707933)" gradientUnits="userSpaceOnUse"><stop id="stop3966" offset="0" stop-color="#FFF"/><stop id="stop3968" offset=".307" stop-color="#FFF" stop-opacity=".235"/><stop id="stop3970" offset=".777" stop-color="#FFF" stop-opacity=".157"/><stop id="stop3972" offset="1" stop-color="#FFF" stop-opacity=".392"/></linearGradient><linearGradient id="linearGradient4004" x1="109.16" x2="96.904" y1="85.795" y2="113.15" gradientTransform="matrix(0.99001085,0,0,0.99000516,1.5741732,3.4847736)" gradientUnits="userSpaceOnUse"><stop id="stop4022" offset="0" stop-color="#FFF"/><stop id="stop4024" offset=".213" stop-color="#FFF" stop-opacity=".235"/><stop id="stop4026" offset=".742" stop-color="#FFF" stop-opacity=".157"/><stop id="stop4028" offset="1" stop-color="#FFF" stop-opacity=".392"/></linearGradient><linearGradient id="linearGradient4046" x1="88.09" x2="86.977" y1="82.382" y2="8.542" gradientTransform="matrix(0.99001085,0,0,0.99000516,-0.34280798,1.6707933)" gradientUnits="userSpaceOnUse"><stop id="stop4060" offset="0" stop-color="#2d75db"/><stop id="stop4062" offset="1" stop-color="#9bc5ff"/></linearGradient><linearGradient id="linearGradient4054" x1="45.176" x2="46.816" y1="4.968" y2="126.17" gradientTransform="matrix(0.99001085,0,0,0.99000516,-0.34280798,1.6702983)" gradientUnits="userSpaceOnUse"><stop id="stop3890" offset="0" stop-color="#ff8f6e"/><stop id="stop3896" offset="1" stop-color="#c10500"/></linearGradient><linearGradient id="linearGradient4062" x1="90.726" x2="89.038" y1="60.429" y2="127.88" gradientTransform="matrix(0.99001085,0,0,0.99000516,0.86499599,1.9955099)" gradientUnits="userSpaceOnUse"><stop id="stop3929" offset="0" stop-color="#6cf46c"/><stop id="stop3935" offset="1" stop-color="#158415"/></linearGradient><radialGradient id="radialGradient3095" cx="99.157" cy="186.17" r="62.769" gradientTransform="matrix(0.23512948,0,0,0.19684128,83.722486,71.892437)" gradientUnits="userSpaceOnUse" xlink:href="#linearGradient3820-7-2-8-6"/></defs><metadata id="metadata5162"/><path id="path3093" fill="url(#radialGradient3095)" d="m121.8,108.54a14.759,12.356,0,0,1,-29.518,0,14.759,12.356,0,1,1,29.518,0z" opacity=".317"/><path id="path3818-0-5-0" fill="url(#radialGradient3819)" d="m96.439,109.11a37.513,13.337,0,1,1,-75.027,0,37.513,13.337,0,1,1,75.027,0z"/><path id="path2555" fill="url(#linearGradient4046)" fill-rule="nonzero" d="m67.473,15.531,0,51.48,46.871,21.285c2.9579-6.4916,4.6098-13.693,4.6097-21.285,0-28.405-23.075-51.48-51.481-51.48z" color="#000" enable-background="accumulate"/><path id="path3828" fill="url(#linearGradient4054)" fill-rule="nonzero" d="m59.553,15.53c-28.405,0-51.481,23.075-51.481,51.48s23.075,51.48,51.481,51.48c11.896,0,22.834-4.0686,31.557-10.859l-31.557-40.621v-51.48z" color="#000" enable-background="accumulate"/><path id="path3852" fill="url(#linearGradient4062)" d="M74.638,76.594,106.19,117.21c6.5392-5.0906,11.84-11.711,15.314-19.336l-46.862-21.28z"/><path id="path3879" fill="none" stroke="#760300" stroke-width="1" d="m59.553,15.53c-28.405,0-51.481,23.075-51.481,51.48s23.075,51.48,51.481,51.48c11.896,0,22.834-4.0686,31.557-10.859l-31.557-40.621v-51.48z" color="#000" enable-background="accumulate" opacity=".4"/><path id="path3883" fill="none" stroke="#143b73" stroke-width="1" d="m67.473,15.531,0,51.48,46.871,21.285c2.9579-6.4916,4.6098-13.693,4.6097-21.285,0-28.405-23.075-51.48-51.481-51.48z" color="#000" enable-background="accumulate" opacity=".4"/><path id="path3885" fill="none" stroke="#0a410a" stroke-dasharray="none" stroke-linecap="butt" stroke-linejoin="miter" stroke-miterlimit="4.3" stroke-width="1" d="M74.638,76.594,106.19,117.21c6.5392-5.0906,11.84-11.711,15.314-19.336l-46.862-21.28z" opacity=".4"/><path id="path3887" fill="none" stroke="url(#linearGradient3911)" stroke-width="1" d="M9.1699,70.287c3.5071,41.603,49.309,60.273,80.547,37.193-10.366-13.386-31.164-40.142-31.164-40.142s-0.01791-33.818-0.01791-50.772c-28.879,0.697-51.108,24.8-49.365,53.721z" color="#000" enable-background="accumulate" opacity=".4"/><path id="path3923" fill="none" stroke="url(#linearGradient3962)" stroke-width="1" d="m68.494,66.331s30.315,13.787,45.372,20.655c14.368-33.838-10.346-69.667-45.372-70.434v49.779z" color="#000" enable-background="accumulate" opacity=".4"/><path id="path3974" fill="none" stroke="url(#linearGradient4004)" stroke-dasharray="none" stroke-miterlimit="4.3" stroke-width="1" d="m106.38,115.77c5.8787-4.865,10.669-11.08,13.804-17.399-14.18-6.354-28.13-12.82-42.31-19.193,9.956,12.724,19.954,25.712,28.51,36.592z" opacity=".4"/></svg>