<svg xmlns="http://www.w3.org/2000/svg" xmlns:svg="http://www.w3.org/2000/svg" xmlns:xlink="http://www.w3.org/1999/xlink" id="svg3049" width="128" height="128" version="1.1"><defs id="defs3051"><linearGradient id="linearGradient11256"><stop id="stop11258" offset="0" stop-color="#effffe" stop-opacity="1"/><stop id="stop11260" offset="1" stop-color="#ddfefc" stop-opacity="1"/></linearGradient><linearGradient id="linearGradient5228" x1="167.983" x2="167.983" y1="8.508" y2="54.78" gradientTransform="matrix(1.832495,0,0,1.8439152,-232.17581,-55.441403)" gradientUnits="userSpaceOnUse" xlink:href="#linearGradient5803"/><linearGradient id="linearGradient5803"><stop id="stop5805" offset="0" stop-color="#fff5ef" stop-opacity="1"/><stop id="stop5807" offset="1" stop-color="#fef8dd" stop-opacity="1"/></linearGradient><linearGradient id="linearGradient4136" x1="24" x2="24" y1="5" y2="43" gradientTransform="matrix(2.7297298,0,0,2.7297298,-1.5135175,-62.511681)" gradientUnits="userSpaceOnUse" xlink:href="#linearGradient3924"/><linearGradient id="linearGradient3924"><stop id="stop3926" offset="0" stop-color="#fff" stop-opacity="1"/><stop id="stop3928" offset=".063" stop-color="#fff" stop-opacity=".235"/><stop id="stop3930" offset=".951" stop-color="#fff" stop-opacity=".157"/><stop id="stop3932" offset="1" stop-color="#fff" stop-opacity=".392"/></linearGradient><radialGradient id="radialGradient5264-4" cx="6.73" cy="9.957" r="12.672" fx="6.2" fy="9.957" gradientTransform="matrix(0,25.083279,-30.794253,0,372.81656,-272.08999)" gradientUnits="userSpaceOnUse" xlink:href="#linearGradient2867-449-88-871-390-598-476-591-434-148-57-177-8-3-3-6-4-8-8-8"/><linearGradient id="linearGradient2867-449-88-871-390-598-476-591-434-148-57-177-8-3-3-6-4-8-8-8"><stop id="stop3750-1-0-7-6-6-1-3-9" offset="0" stop-color="#40e3d6" stop-opacity="1"/><stop id="stop3752-3-7-4-0-32-8-923-0" offset=".262" stop-color="#19afa3" stop-opacity="1"/><stop id="stop3754-1-8-5-2-7-6-7-1" offset=".705" stop-color="#01919a" stop-opacity="1"/><stop id="stop3756-1-6-2-6-6-1-96-6" offset="1" stop-color="#016f7a" stop-opacity="1"/></linearGradient><radialGradient id="radialGradient4093" cx="4.993" cy="43.5" r="2.5" fx="4.993" fy="43.5" gradientTransform="matrix(2.003784,0,0,1.4,27.98813,-17.4)" gradientUnits="userSpaceOnUse" xlink:href="#linearGradient3688-166-749-5"/><linearGradient id="linearGradient3688-166-749-5"><stop id="stop2883-0" offset="0" stop-color="#181818" stop-opacity="1"/><stop id="stop2885-5" offset="1" stop-color="#181818" stop-opacity="0"/></linearGradient><radialGradient id="radialGradient4095" cx="4.993" cy="43.5" r="2.5" fx="4.993" fy="43.5" gradientTransform="matrix(2.003784,0,0,1.4,-20.01187,-104.4)" gradientUnits="userSpaceOnUse" xlink:href="#linearGradient3688-464-309-8"/><linearGradient id="linearGradient3688-464-309-8"><stop id="stop2889-9" offset="0" stop-color="#181818" stop-opacity="1"/><stop id="stop2891-4" offset="1" stop-color="#181818" stop-opacity="0"/></linearGradient><linearGradient id="linearGradient4097" x1="25.058" x2="25.058" y1="47.028" y2="39.999" gradientUnits="userSpaceOnUse" xlink:href="#linearGradient3702-501-757-0"/><linearGradient id="linearGradient3702-501-757-0"><stop id="stop2895-0" offset="0" stop-color="#181818" stop-opacity="0"/><stop id="stop2897-2" offset=".5" stop-color="#181818" stop-opacity="1"/><stop id="stop2899-6" offset="1" stop-color="#181818" stop-opacity="0"/></linearGradient><linearGradient id="linearGradient3811"><stop id="stop3813" offset="0" stop-color="#000" stop-opacity="1"/><stop id="stop3815" offset="1" stop-color="#000" stop-opacity="0"/></linearGradient><radialGradient id="radialGradient6276" cx="-4.029" cy="93.468" r="35.338" fx="-4.029" fy="93.468" gradientTransform="matrix(1.5563924,0,0,0.16978827,70.270355,38.132099)" gradientUnits="userSpaceOnUse" xlink:href="#linearGradient3811"/><linearGradient id="linearGradient11271" x1="65" x2="65" y1="25.005" y2="108" gradientTransform="translate(0,-64)" gradientUnits="userSpaceOnUse" xlink:href="#linearGradient11256"/></defs><metadata id="metadata3054"/><g id="layer1" transform="translate(0,64)"><path id="path3041" fill="url(#radialGradient6276)" fill-opacity="1" fill-rule="nonzero" stroke="none" stroke-width="1" d="m 119,54.001809 a 55,6 0 0 1 -109.9999975,0 55,6 0 1 1 109.9999975,0 z" color="#000" display="inline" enable-background="accumulate" opacity=".2" overflow="visible" visibility="visible" style="marker:none"/><g id="g2036" display="inline" transform="matrix(2.6999989,0,0,0.55555607,-0.8000075,30.890689)"><g id="g3712" opacity=".4" transform="matrix(1.052632,0,0,1.285713,-1.263158,-13.42854)"><rect id="rect2801" width="5" height="7" x="38" y="40" fill="url(#radialGradient4093)" fill-opacity="1" stroke="none"/><rect id="rect3696" width="5" height="7" x="-10" y="-47" fill="url(#radialGradient4095)" fill-opacity="1" stroke="none" transform="scale(-1,-1)"/><rect id="rect3700" width="28" height="7" x="10" y="40" fill="url(#linearGradient4097)" fill-opacity="1" stroke="none"/></g></g><rect id="rect5505-21-3" width="103" height="103" x="12.5" y="-48.498" fill="url(#radialGradient5264-4)" fill-opacity="1" fill-rule="nonzero" stroke="none" stroke-width="1" color="#000" display="inline" enable-background="accumulate" overflow="visible" rx="6.055" ry="6.055" visibility="visible" style="marker:none"/><rect id="rect6741-7" width="101" height="101" x="13.5" y="-47.498" fill="none" stroke="url(#linearGradient4136)" stroke-dasharray="none" stroke-dashoffset="0" stroke-linecap="round" stroke-linejoin="round" stroke-miterlimit="4" stroke-opacity="1" stroke-width="1" opacity=".5" rx="5" ry="5"/><rect id="rect5505-21-3-1" width="103" height="103" x="12.5" y="-48.498" fill="none" stroke="#015a60" stroke-dasharray="none" stroke-dashoffset="0" stroke-linecap="round" stroke-linejoin="round" stroke-miterlimit="4" stroke-opacity="1" stroke-width="1" color="#000" display="inline" enable-background="accumulate" opacity=".4" overflow="visible" rx="6.055" ry="6.055" visibility="visible" style="marker:none"/><path id="path11275" fill="#000" fill-opacity="1" stroke="#000" stroke-dasharray="none" stroke-linecap="round" stroke-linejoin="round" stroke-miterlimit="4" stroke-opacity="1" stroke-width="2" d="m 48.927734,-38.105902 -13.855468,8 11.222656,19.439453 a 23,23 0 0 0 -3.828125,6.6660156 l -22.466797,0 0,16.0000004 22.451172,0 a 23,23 0 0 0 3.849609,6.658203 l -11.228515,19.447267 13.855468,8 11.232422,-19.455079 A 23,23 0 0 0 64,26.999567 23,23 0 0 0 67.853516,26.673395 l 11.21875,19.431642 13.855464,-8 -11.222652,-19.439454 a 23,23 0 0 0 3.828125,-6.666016 l 22.466797,0 0,-16.0000004 -22.451172,0 a 23,23 0 0 0 -3.849609,-6.6582026 l 11.228511,-19.447266 -13.855464,-8 -11.232422,19.455078 A 23,23 0 0 0 64,-19.000433 23,23 0 0 0 60.146484,-18.674261 L 48.927734,-38.105902 Z M 64,-11.000433 A 15,15 0 0 1 79,3.9995666 15,15 0 0 1 64,18.999567 15,15 0 0 1 49,3.9995666 15,15 0 0 1 64,-11.000433 Z" opacity=".05"/><path id="path11273" fill="#000" fill-opacity="1" stroke="none" stroke-dasharray="none" stroke-linecap="round" stroke-linejoin="round" stroke-miterlimit="4" stroke-opacity="1" stroke-width="2.022" d="m 48.927734,-38.105939 -13.855468,8 11.222656,19.439453 a 23,23 0 0 0 -3.828125,6.666016 l -22.466797,0 0,16 22.451172,0 a 23,23 0 0 0 3.849609,6.658203 L 35.072266,38.105 l 13.855468,8 11.232422,-19.455079 A 23,23 0 0 0 64,26.99953 23,23 0 0 0 67.853516,26.673358 L 79.072266,46.105 92.92773,38.105 81.705078,18.665546 a 23,23 0 0 0 3.828125,-6.666016 l 22.466797,0 0,-16 -22.451172,0 a 23,23 0 0 0 -3.849609,-6.658203 l 11.228511,-19.447266 -13.855464,-8 -11.232422,19.455078 A 23,23 0 0 0 64,-19.00047 23,23 0 0 0 60.146484,-18.674298 L 48.927734,-38.105939 Z M 64,-11.00047 a 15,15 0 0 1 15,15 15,15 0 0 1 -15,15 15,15 0 0 1 -15,-15 15,15 0 0 1 15,-15 z" opacity=".15"/><path id="path11245" fill="url(#linearGradient11271)" fill-opacity="1" stroke="none" stroke-dasharray="none" stroke-linecap="round" stroke-linejoin="round" stroke-miterlimit="4" stroke-opacity="1" stroke-width="2.022" d="m 48.927734,-39.105469 -13.855468,8 11.222656,19.439453 A 23,23 0 0 0 42.466797,-5 L 20,-5 l 0,16 22.451172,0 a 23,23 0 0 0 3.849609,6.658203 l -11.228515,19.447267 13.855468,8 11.232422,-19.455079 A 23,23 0 0 0 64,26 23,23 0 0 0 67.853516,25.673828 l 11.21875,19.431642 13.855464,-8 L 81.705078,17.666016 A 23,23 0 0 0 85.533203,11 L 108,11 108,-5 85.548828,-5 a 23,23 0 0 0 -3.849609,-6.658203 l 11.228511,-19.447266 -13.855464,-8 -11.232422,19.455078 A 23,23 0 0 0 64,-20 23,23 0 0 0 60.146484,-19.673828 L 48.927734,-39.105469 Z M 64,-12 A 15,15 0 0 1 79,3 15,15 0 0 1 64,18 15,15 0 0 1 49,3 15,15 0 0 1 64,-12 Z" opacity="1"/></g></svg>