<svg xmlns="http://www.w3.org/2000/svg" id="svg5157" width="128" height="128" version="1.1"><defs id="defs5159"><linearGradient id="linearGradient5879" x1="64.5" x2="64.338" y1="13.998" y2="117.92" gradientTransform="matrix(1.3901193,0,0,1.3898458,-25.166593,-25.718336)" gradientUnits="userSpaceOnUse"><stop id="stop5875" offset="0" stop-color="#b3f847"/><stop id="stop5877" offset="1" stop-color="#84c200"/></linearGradient><radialGradient id="radialGradient3049" cx="-4.029" cy="93.468" r="35.338" gradientTransform="matrix(1.5563924,0,0,0.16978827,70.270355,102.1321)" gradientUnits="userSpaceOnUse"><stop id="stop3813" offset="0" stop-color="#000"/><stop id="stop3815" offset="1" stop-color="#000" stop-opacity="0"/></radialGradient><linearGradient id="linearGradient3772" x1="51.156" x2="51.334" y1="93" y2="60.41" gradientUnits="userSpaceOnUse"><stop id="stop3768" offset="0" stop-color="#fffff5" stop-opacity=".588"/><stop id="stop3776" offset=".544" stop-color="#fffff7" stop-opacity=".235"/><stop id="stop3774" offset=".855" stop-color="#fffffa" stop-opacity=".157"/><stop id="stop3770" offset="1" stop-color="#FFF" stop-opacity=".392"/></linearGradient><linearGradient id="linearGradient3784" x1="65.057" x2="64.485" y1="123.76" y2="7.694" gradientUnits="userSpaceOnUse"><stop id="stop3780" offset="0" stop-color="#FFF" stop-opacity=".235"/><stop id="stop3788" offset=".25" stop-color="#FFF" stop-opacity=".157"/><stop id="stop3786" offset=".624" stop-color="#FFF" stop-opacity=".588"/><stop id="stop3782" offset="1" stop-color="#FFF" stop-opacity=".784"/></linearGradient></defs><metadata id="metadata5162"/><path id="path3041" fill="url(#radialGradient3049)" fill-rule="nonzero" d="m119,118a55,6,0,0,1,-110,0,55,6,0,1,1,110,0z" color="#000" enable-background="accumulate" opacity=".15"/><path id="path5865" fill="url(#linearGradient5879)" d="m55.46,11.547-1.3901,20.848-13.467,7.7744-18.767-9.2077-9.0358,15.636,17.376,11.64,0,15.549-17.376,11.64,9.0358,15.636,18.767-9.2077,13.467,7.7744,1.3901,20.848,18.072,0,1.3901-20.848,13.467-7.7744,18.767,9.2077,9.0358-15.636-17.376-11.64,0-15.549,17.376-11.64-9.0358-15.636-18.767,9.2077-13.467-7.7744-1.3901-20.848zm9.0358,35.702c9.9806,0,18.767,8.7842,18.767,18.763,0,9.9787-8.786,18.763-18.767,18.763-9.9806,0-18.767-8.7842-18.767-18.763,0-9.9787,8.786-18.763,18.767-18.763z"/><path id="path5897" fill="none" stroke="url(#linearGradient3784)" stroke-width="1" d="m54.938,32.812-14.281,8.4062-18.438-9.0938-8.1875,14.188,17.031,11.406,0,16.562-17.031,11.406,8.2188,14.219,18.375-9.0938,14.312,8.2812,1.3438,20.5,16.406,0,1.375-20.531,14.281-8.25,18.406,9.0938,8.2188-14.219-17.031-11.406,0-16.562,17-11.375-8.1875-14.188-18.375,9.0625-14.312-8.2812-1.3438-20.531-16.406,0z"/><path id="path2996" fill="none" stroke="url(#linearGradient3772)" stroke-dasharray="none" stroke-linecap="round" stroke-linejoin="round" stroke-miterlimit="4" stroke-width=".762" d="m66.444,76.705a15.053,15.053,0,1,1,-30.106,0,15.053,15.053,0,1,1,30.106,0z" transform="matrix(1.3121019,0,0,1.3121019,-2.930438,-34.645159)"/><path id="path6124" fill="none" stroke="#33480a" d="m55.46,11.547-1.3901,20.848-13.467,7.7744-18.767-9.2077-9.0358,15.636,17.376,11.64,0,15.549-17.376,11.64,9.0358,15.636,18.767-9.2077,13.467,7.7744,1.3901,20.848,18.072,0,1.3901-20.848,13.467-7.7744,18.767,9.2077,9.0358-15.636-17.376-11.64,0-15.549,17.376-11.64-9.0358-15.636-18.767,9.2077-13.467-7.7744-1.3901-20.848zm9.0358,35.702c9.9806,0,18.767,8.7842,18.767,18.763,0,9.9787-8.786,18.763-18.767,18.763-9.9806,0-18.767-8.7842-18.767-18.763,0-9.9787,8.786-18.763,18.767-18.763z" opacity=".4"/></svg>