<svg xmlns="http://www.w3.org/2000/svg" xmlns:svg="http://www.w3.org/2000/svg" xmlns:xlink="http://www.w3.org/1999/xlink" id="SVGRoot" width="128" height="128" version="1.1" viewBox="0 0 128 128"><defs id="defs8603"><radialGradient id="radialGradient4795" cx="62.625" cy="4.625" r="10.625" fx="62.625" fy="4.625" gradientTransform="matrix(5.7725491,0,0,2.0078406,-44.50589,21.793183)" gradientUnits="userSpaceOnUse" xlink:href="#linearGradient8838-561-565"/><linearGradient id="linearGradient8838-561-565"><stop id="stop4621" offset="0" stop-color="#0a0a0a" stop-opacity="1"/><stop id="stop4623" offset="1" stop-color="#0a0a0a" stop-opacity="0"/></linearGradient><linearGradient id="linearGradient4797" x1="-63.855" x2="-63.855" y1="9.025" y2="48.431" gradientTransform="matrix(3.0446555,0,0,3.0926446,512.4531,-100.36215)" gradientUnits="userSpaceOnUse" xlink:href="#linearGradient4135-0"/><linearGradient id="linearGradient4135-0"><stop id="stop4137-0" offset="0" stop-color="#08b8fb" stop-opacity="1"/><stop id="stop4139-1" offset="1" stop-color="#007cff" stop-opacity="1"/></linearGradient><linearGradient id="linearGradient5039" x1="385.196" x2="385.196" y1="-71.501" y2="34.742" gradientTransform="translate(-73.38497,9.854293)" gradientUnits="userSpaceOnUse" xlink:href="#linearGradient3924-1"/><linearGradient id="linearGradient3924-1"><stop id="stop3926-3" offset="0" stop-color="#fff" stop-opacity="1"/><stop id="stop3928-91" offset=".063" stop-color="#fff" stop-opacity=".235"/><stop id="stop3930-6" offset=".951" stop-color="#fff" stop-opacity=".157"/><stop id="stop3932-6" offset="1" stop-color="#fff" stop-opacity=".392"/></linearGradient></defs><metadata id="metadata8606"/><g id="layer1"><g id="g5075" display="inline" transform="translate(-252.99998,75.587207)"><path id="path4773" fill="url(#radialGradient4795)" fill-opacity="1" fill-rule="evenodd" stroke="none" stroke-width="1" d="m 378.33332,31.079463 c 0,11.78207 -27.45987,21.33333 -61.33334,21.33333 -33.87347,0 -61.33334,-9.55126 -61.33334,-21.33333 0,-11.78208 27.45987,-21.33334 61.33334,-21.33334 33.87347,0 61.33334,9.55126 61.33334,21.33334 l 0,0 z" display="inline" opacity=".2" overflow="visible" visibility="visible" style="marker:none"/><path id="path4777" fill="url(#linearGradient4797)" fill-opacity="1" stroke="none" stroke-dasharray="none" stroke-linecap="round" stroke-linejoin="round" stroke-miterlimit="4" stroke-opacity="1" stroke-width=".991" d="m 272.05859,-62.120875 c -3.9083,0 -7.05859,3.199966 -7.05859,7.169866 l 0,77.533572 c 0,3.9699 3.15029,7.16382 7.05859,7.16382 l 30.07194,0 15.19944,15.78336 14.93784,-15.78336 29.67358,0 c 3.90829,0 7.05861,-3.19392 7.05861,-7.16382 l 0,-77.533572 c 0,-3.9699 -3.15032,-7.169866 -7.05861,-7.169866 l -89.8828,0 z"/><path id="path4455" fill="#0b2228" fill-opacity="1" fill-rule="nonzero" stroke="#0b2228" stroke-dasharray="none" stroke-linecap="round" stroke-linejoin="round" stroke-miterlimit="4" stroke-opacity="1" stroke-width="2" d="m 303.26313,16.309333 c -8.57954,0 -16.56519,-2.515048 -23.2886,-6.825536 1.18851,0.140282 2.39786,0.212035 3.62416,0.212035 7.11772,0 13.66846,-2.428923 18.86794,-6.503583 -6.64808,-0.122621 -12.25862,-4.515009 -14.19187,-10.55102 0.92759,0.177445 1.87929,0.272465 2.85832,0.272465 1.3854,0 2.72766,-0.185598 4.00249,-0.532742 -6.95001,-1.395617 -12.18684,-7.53613 -12.18684,-14.897225 0,-0.0642 1.9e-4,-0.127578 10e-4,-0.190961 2.04847,1.137914 4.39102,1.821313 6.88135,1.900135 -4.07647,-2.724385 -6.75852,-7.374638 -6.75852,-12.645449 0,-2.784518 0.74899,-5.394055 2.05674,-7.637922 7.49325,9.191618 18.68766,15.240089 31.31404,15.873648 -0.25895,-1.111911 -0.39357,-2.271495 -0.39357,-3.462228 0,-8.390121 6.80242,-15.192416 15.1929,-15.192416 4.36954,0 8.31789,1.845149 11.08935,4.797876 3.46053,-0.681503 6.71195,-1.945913 9.64728,-3.687049 -1.13437,3.547823 -3.54315,6.525198 -6.67999,8.40556 3.07319,-0.367296 6.00121,-1.183961 8.7258,-2.392301 -2.03688,3.046717 -4.61277,5.722617 -7.58087,7.864638 0.0293,0.651436 0.0439,1.306664 0.0439,1.965414 0,20.076374 -15.28093,43.226661 -43.22526,43.226661" opacity=".15"/><path id="path4457" fill="#0b2228" fill-opacity="1" fill-rule="nonzero" stroke="none" d="m 303.26313,16.309333 c -8.57954,0 -16.56519,-2.515048 -23.2886,-6.825536 1.18851,0.140282 2.39786,0.212035 3.62416,0.212035 7.11772,0 13.66846,-2.428923 18.86794,-6.503583 -6.64808,-0.122621 -12.25862,-4.515009 -14.19187,-10.55102 0.92759,0.177445 1.87929,0.272465 2.85832,0.272465 1.3854,0 2.72766,-0.185598 4.00249,-0.532742 -6.95001,-1.395617 -12.18684,-7.53613 -12.18684,-14.897225 0,-0.0642 1.9e-4,-0.127578 10e-4,-0.190961 2.04847,1.137914 4.39102,1.821313 6.88135,1.900135 -4.07647,-2.724385 -6.75852,-7.374638 -6.75852,-12.645449 0,-2.784518 0.74899,-5.394055 2.05674,-7.637922 7.49325,9.191618 18.68766,15.240089 31.31404,15.873648 -0.25895,-1.111911 -0.39357,-2.271495 -0.39357,-3.462228 0,-8.390121 6.80242,-15.192416 15.1929,-15.192416 4.36954,0 8.31789,1.845149 11.08935,4.797876 3.46053,-0.681503 6.71195,-1.945913 9.64728,-3.687049 -1.13437,3.547823 -3.54315,6.525198 -6.67999,8.40556 3.07319,-0.367296 6.00121,-1.183961 8.7258,-2.392301 -2.03688,3.046717 -4.61277,5.722617 -7.58087,7.864638 0.0293,0.651436 0.0439,1.306664 0.0439,1.965414 0,20.076374 -15.28093,43.226661 -43.22526,43.226661" opacity=".3"/><path id="path5045" fill="#e9faff" fill-opacity="1" fill-rule="nonzero" stroke="none" d="m 303.26313,15.309333 c -8.57954,0 -16.56519,-2.515048 -23.2886,-6.825536 1.18851,0.140282 2.39786,0.212035 3.62416,0.212035 7.11772,0 13.66846,-2.428923 18.86794,-6.503583 -6.64808,-0.122621 -12.25862,-4.515009 -14.19187,-10.55102 0.92759,0.177445 1.87929,0.272465 2.85832,0.272465 1.3854,0 2.72766,-0.185598 4.00249,-0.532742 -6.95001,-1.395617 -12.18684,-7.53613 -12.18684,-14.897225 0,-0.0642 1.9e-4,-0.127578 10e-4,-0.190961 2.04847,1.137914 4.39102,1.821313 6.88135,1.900135 -4.07647,-2.724385 -6.75852,-7.374638 -6.75852,-12.645449 0,-2.784518 0.74899,-5.394055 2.05674,-7.637922 7.49325,9.191618 18.68766,15.240089 31.31404,15.873648 -0.25895,-1.111911 -0.39357,-2.271495 -0.39357,-3.462228 0,-8.390121 6.80242,-15.192416 15.1929,-15.192416 4.36954,0 8.31789,1.845149 11.08935,4.797876 3.46053,-0.681503 6.71195,-1.945913 9.64728,-3.687049 -1.13437,3.547823 -3.54315,6.525198 -6.67999,8.40556 3.07319,-0.367296 6.00121,-1.183961 8.7258,-2.392301 -2.03688,3.046717 -4.61277,5.722617 -7.58087,7.864638 0.0293,0.651436 0.0439,1.306664 0.0439,1.965414 0,20.076374 -15.28093,43.226661 -43.22526,43.226661"/><path id="path4791" fill="none" fill-opacity="1" stroke="#045" stroke-dasharray="none" stroke-linecap="round" stroke-linejoin="round" stroke-miterlimit="4" stroke-opacity="1" stroke-width="1" d="m 272.05859,-62.120875 c -3.9083,0 -7.05859,3.199966 -7.05859,7.169866 l 0,77.533572 c 0,3.9699 3.15029,7.16382 7.05859,7.16382 l 30.07194,0 15.19944,15.78336 14.93784,-15.78336 29.67358,0 c 3.90829,0 7.05861,-3.19392 7.05861,-7.16382 l 0,-77.533572 c 0,-3.9699 -3.15032,-7.169866 -7.05861,-7.169866 l -89.8828,0 z" opacity=".4"/><path id="path5024" fill="none" fill-opacity="1" stroke="url(#linearGradient5039)" stroke-dasharray="none" stroke-linecap="round" stroke-linejoin="round" stroke-miterlimit="4" stroke-opacity="1" stroke-width="1" d="m 272.05839,-61.120316 c -3.36246,0 -6.05859,2.729051 -6.05859,6.169921 l 0,77.533208 c 0,3.44087 2.6951,6.16406 6.05859,6.16406 l 30.07226,0 a 1.0001,1.0001 0 0 1 0.72071,0.30664 l 14.47265,15.02734 14.2168,-15.02148 a 1.0001,1.0001 0 0 1 0.72656,-0.3125 l 29.67383,0 c 3.36348,0 6.0586,-2.7232 6.0586,-6.16406 l 0,-77.533208 c 0,-3.440865 -2.69615,-6.169921 -6.0586,-6.169921 l -89.88281,0 z" opacity=".5"/></g></g></svg>