<svg xmlns="http://www.w3.org/2000/svg" xmlns:svg="http://www.w3.org/2000/svg" xmlns:xlink="http://www.w3.org/1999/xlink" id="svg4094" width="128" height="128" version="1.1"><defs id="defs4096"><linearGradient id="linearGradient2490-3-92"><stop id="stop2492-3-5" offset="0" stop-color="#365f0e" stop-opacity="1"/><stop id="stop2494-8-7" offset="1" stop-color="#84a718" stop-opacity="1"/></linearGradient><linearGradient id="linearGradient2490-3-7-8"><stop id="stop2492-3-7-0" offset="0" stop-color="#365f0e" stop-opacity="1"/><stop id="stop2494-8-5-9" offset="1" stop-color="#84a718" stop-opacity="1"/></linearGradient><radialGradient id="radialGradient2965-3" cx="7.496" cy="8.45" r="20" fx="7.496" fy="8.45" gradientTransform="matrix(0,6.0795881,-8.1296174,-2.5653448e-7,132.69367,-92.580261)" gradientUnits="userSpaceOnUse" xlink:href="#linearGradient3242-7-1"/><linearGradient id="linearGradient3242-7-1"><stop id="stop3244-5-1" offset="0" stop-color="#eef87e" stop-opacity="1"/><stop id="stop3246-9-0" offset=".262" stop-color="#cde34f" stop-opacity="1"/><stop id="stop3248-7-3" offset=".661" stop-color="#93b723" stop-opacity="1"/><stop id="stop3250-8-4" offset="1" stop-color="#5a7e0d" stop-opacity="1"/></linearGradient><linearGradient id="linearGradient2967-0" x1="24" x2="24" y1="44" y2="3.899" gradientTransform="matrix(2.6410253,0,0,2.643568,0.6153992,-60.445628)" gradientUnits="userSpaceOnUse" xlink:href="#linearGradient2490-3-3"/><linearGradient id="linearGradient2490-3-3"><stop id="stop2492-3-9" offset="0" stop-color="#365f0e" stop-opacity="1"/><stop id="stop2494-8-1" offset="1" stop-color="#84a718" stop-opacity="1"/></linearGradient><radialGradient id="radialGradient2455" cx="4.993" cy="43.5" r="2.5" fx="4.993" fy="43.5" gradientTransform="matrix(2.003784,0,0,1.4,27.98813,-17.4)" gradientUnits="userSpaceOnUse" xlink:href="#linearGradient3688-166-749"/><linearGradient id="linearGradient3688-166-749"><stop id="stop2883" offset="0" stop-color="#181818" stop-opacity="1"/><stop id="stop2885" offset="1" stop-color="#181818" stop-opacity="0"/></linearGradient><radialGradient id="radialGradient2457" cx="4.993" cy="43.5" r="2.5" fx="4.993" fy="43.5" gradientTransform="matrix(2.003784,0,0,1.4,-20.01187,-104.4)" gradientUnits="userSpaceOnUse" xlink:href="#linearGradient3688-464-309"/><linearGradient id="linearGradient3688-464-309"><stop id="stop2889" offset="0" stop-color="#181818" stop-opacity="1"/><stop id="stop2891" offset="1" stop-color="#181818" stop-opacity="0"/></linearGradient><linearGradient id="linearGradient2459" x1="25.058" x2="25.058" y1="47.028" y2="39.999" gradientUnits="userSpaceOnUse" xlink:href="#linearGradient3702-501-757"/><linearGradient id="linearGradient3702-501-757"><stop id="stop2895" offset="0" stop-color="#181818" stop-opacity="0"/><stop id="stop2897" offset=".5" stop-color="#181818" stop-opacity="1"/><stop id="stop2899" offset="1" stop-color="#181818" stop-opacity="0"/></linearGradient><linearGradient id="linearGradient3924"><stop id="stop3926" offset="0" stop-color="#fff" stop-opacity="1"/><stop id="stop3928" offset=".063" stop-color="#fff" stop-opacity=".235"/><stop id="stop3930" offset=".951" stop-color="#fff" stop-opacity=".157"/><stop id="stop3932" offset="1" stop-color="#fff" stop-opacity=".392"/></linearGradient><linearGradient id="linearGradient3234" x1="24" x2="24" y1="5" y2="43" gradientTransform="matrix(2.7297298,0,0,2.7297298,-1.513511,-62.513486)" gradientUnits="userSpaceOnUse" xlink:href="#linearGradient3924"/><radialGradient id="radialGradient4043" cx="7.496" cy="8.45" r="20" fx="7.496" fy="8.45" gradientTransform="matrix(2.739912e-8,3.2957551,-3.4865158,-6.0720387e-8,61.460401,-19.382408)" gradientUnits="userSpaceOnUse" xlink:href="#linearGradient3242-7"/><linearGradient id="linearGradient3242-7"><stop id="stop3244-5" offset="0" stop-color="#92e1f4" stop-opacity="1"/><stop id="stop3246-9" offset=".262" stop-color="#8cd9f0" stop-opacity="1"/><stop id="stop3248-7" offset=".661" stop-color="#38a4cd" stop-opacity="1"/><stop id="stop3250-8" offset="1" stop-color="#37a4cd" stop-opacity="1"/></linearGradient><linearGradient id="linearGradient4045" x1="24" x2="24" y1="44" y2="3.899" gradientTransform="matrix(1.4102564,0,0,1.4102564,-1.8461539,-1.846154)" gradientUnits="userSpaceOnUse" xlink:href="#linearGradient2490-3-9"/><linearGradient id="linearGradient2490-3-9"><stop id="stop2492-3-78" offset="0" stop-color="#136283" stop-opacity="1"/><stop id="stop2494-8-00" offset="1" stop-color="#46a9d2" stop-opacity="1"/></linearGradient><radialGradient id="radialGradient4006" cx="7.496" cy="8.45" r="20" fx="7.496" fy="8.45" gradientTransform="matrix(5.1311078e-8,6.1720508,-6.529293,-1.137127e-7,119.17128,-93.22526)" gradientUnits="userSpaceOnUse" xlink:href="#linearGradient3242-7"/><linearGradient id="linearGradient4008" x1="24" x2="24" y1="44" y2="3.899" gradientTransform="matrix(2.6410256,0,0,2.6410256,0.61538497,-60.38464)" gradientUnits="userSpaceOnUse" xlink:href="#linearGradient2490-3-9"/></defs><metadata id="metadata4099"/><g id="layer1" transform="translate(0,64)"><g id="g2036" display="inline" transform="matrix(2.9499988,0,0,1.2222234,-6.8000012,1.555537)"><g id="g3712" opacity=".4" transform="matrix(1.052632,0,0,1.285713,-1.263158,-13.42854)"><rect id="rect2801" width="5" height="7" x="38" y="40" fill="url(#radialGradient2455)" fill-opacity="1" stroke="none"/><rect id="rect3696" width="5" height="7" x="-10" y="-47" fill="url(#radialGradient2457)" fill-opacity="1" stroke="none" transform="scale(-1,-1)"/><rect id="rect3700" width="28" height="7" x="10" y="40" fill="url(#linearGradient2459)" fill-opacity="1" stroke="none"/></g></g><rect stroke-linejoin="round" style="marker:none" id="rect5505-21" width="103" height="103" x="12.5" y="-48.5" fill="url(#radialGradient4006)" fill-opacity="1" fill-rule="nonzero" stroke="url(#linearGradient4008)" stroke-dasharray="none" stroke-dashoffset="0" stroke-linecap="round" stroke-miterlimit="4" stroke-opacity="1" stroke-width="1" color="#000" display="inline" enable-background="accumulate" overflow="visible" rx="6" ry="6" visibility="visible"/><rect id="rect6741-7" width="101" height="101" x="13.5" y="-47.5" fill="none" stroke="url(#linearGradient3234)" stroke-dasharray="none" stroke-dashoffset="0" stroke-linecap="round" stroke-linejoin="round" stroke-miterlimit="4" stroke-opacity="1" stroke-width="1" opacity=".5" rx="5" ry="5"/><path id="path3908-9-9-5" fill="none" stroke="#000" stroke-dasharray="none" stroke-linejoin="round" stroke-miterlimit="4" stroke-opacity=".039" stroke-width="3" d="M 34,-5.947675 48,34.401164 62,-12 70,16.244186 80,-12 l 10,28.244186 14,0 0,-6.052325 -10,0 L 80,-28.139535 70,0.104651 62,-30.156977 48,16.244186 38,-12 l -14,0 0,6.052325 z" display="inline"/><path id="path3908-9-9" fill="none" stroke="#000" stroke-dasharray="none" stroke-linejoin="round" stroke-miterlimit="4" stroke-opacity=".039" stroke-width="2" d="M 34,-5.964283 48,34.273813 62,-12 70,16.166671 80,-12 l 10,28.166671 14,0 0,-6.035717 -10,0 L 80,-28.095235 70,0.07143132 62,-30.107144 48,16.166671 38,-12 l -14,0 0,6.035717 z" display="inline"/><path id="path3908-9" fill="none" stroke="#000" stroke-linejoin="round" stroke-opacity=".078" stroke-width="1" d="M 34,-5.9817115 48,34.14024 62,-12 70,16.08536 80,-12 l 10,28.08536 14,0 0,-6.01829 -10,0 L 80,-28.048783 70,0.0365812 62,-30.05488 48,16.08536 38,-12 l -14,0 0,6.0182885 z" display="inline"/><path id="path3908" fill="#fff" fill-opacity="1" stroke="none" d="m 24,-6 10,0 14,40 14,-46 8,28 10,-28 10,28 14,0 0,-6 L 94,10 80,-28 70,0 62,-30 48,16 38,-12 l -14,0 0,6" display="inline"/></g></svg>