<svg xmlns="http://www.w3.org/2000/svg" xmlns:svg="http://www.w3.org/2000/svg" xmlns:xlink="http://www.w3.org/1999/xlink" id="svg3167" width="128" height="128" version="1.1"><defs id="defs3169"><linearGradient id="linearGradient4801"><stop id="stop4803" offset="0" stop-color="silver" stop-opacity="1"/><stop id="stop4805" offset=".25" stop-color="#fff" stop-opacity="1"/><stop id="stop4807" offset=".499" stop-color="#d2d2d2" stop-opacity="1"/><stop id="stop4809" offset="1" stop-color="#c8c8c8" stop-opacity="1"/></linearGradient><linearGradient id="linearGradient4526"><stop id="stop4528" offset="0" stop-color="#fff" stop-opacity="1"/><stop id="stop4530" offset="1" stop-color="#fff" stop-opacity="0"/></linearGradient><linearGradient id="linearGradient4426"><stop id="stop4428" offset="0" stop-color="#cc4f00" stop-opacity="1"/><stop id="stop4436" offset=".25" stop-color="#ff8636" stop-opacity="1"/><stop id="stop4434" offset=".499" stop-color="#ef6000" stop-opacity="1"/><stop id="stop4430" offset="1" stop-color="#da5700" stop-opacity="1"/></linearGradient><linearGradient id="linearGradient4019"><stop id="stop4021" offset="0" stop-color="#cc5506" stop-opacity="1"/><stop id="stop4023" offset="1" stop-color="#f98b41" stop-opacity="1"/></linearGradient><linearGradient id="linearGradient4005"><stop id="stop4007" offset="0" stop-color="#fff" stop-opacity="1"/><stop id="stop4009" offset="1" stop-color="#fff" stop-opacity="0"/></linearGradient><linearGradient id="linearGradient5048"><stop id="stop5050" offset="0" stop-color="#000" stop-opacity="0"/><stop id="stop5056" offset=".5" stop-color="#000" stop-opacity="1"/><stop id="stop5052" offset="1" stop-color="#000" stop-opacity="0"/></linearGradient><linearGradient id="linearGradient5060"><stop id="stop5062" offset="0" stop-color="#000" stop-opacity="1"/><stop id="stop5064" offset="1" stop-color="#000" stop-opacity="0"/></linearGradient><linearGradient id="linearGradient4847" x1="302.857" x2="302.857" y1="366.648" y2="609.505" gradientTransform="matrix(2.774389,0,0,1.969706,-1892.179,-934.99198)" gradientUnits="userSpaceOnUse" xlink:href="#linearGradient5048"/><radialGradient id="radialGradient4849" cx="605.714" cy="486.648" r="117.143" fx="605.714" fy="486.648" gradientTransform="matrix(2.774389,0,0,1.969706,-1891.633,-934.99198)" gradientUnits="userSpaceOnUse" xlink:href="#linearGradient5060"/><radialGradient id="radialGradient4851" cx="605.714" cy="486.648" r="117.143" fx="605.714" fy="486.648" gradientTransform="matrix(-2.774389,0,0,1.969706,112.7623,-934.99198)" gradientUnits="userSpaceOnUse" xlink:href="#linearGradient5060"/><linearGradient id="linearGradient4853" x1="24.286" x2="24.286" y1="27.643" y2="44.643" gradientTransform="matrix(1,0,0,0.96484375,0,0.98939735)" gradientUnits="userSpaceOnUse" xlink:href="#linearGradient4019"/><linearGradient id="linearGradient4855" x1="24.286" x2="24.286" y1="47.332" y2="36.143" gradientUnits="userSpaceOnUse" xlink:href="#linearGradient4005"/><linearGradient id="linearGradient4857" x1="13.915" x2="33.148" y1="20.563" y2="23.063" gradientTransform="matrix(1,0,0,0.98581946,0,0.00738065)" gradientUnits="userSpaceOnUse" xlink:href="#linearGradient4426"/><linearGradient id="linearGradient4861" x1="13.915" x2="33.148" y1="20.563" y2="23.063" gradientTransform="matrix(1.0127073,0,0,1,-0.22801313,0)" gradientUnits="userSpaceOnUse" xlink:href="#linearGradient4801"/><linearGradient id="linearGradient4863" x1="13.915" x2="33.148" y1="20.563" y2="23.063" gradientTransform="matrix(1.0570931,0,0,1,-1.2986241,0)" gradientUnits="userSpaceOnUse" xlink:href="#linearGradient4801"/><linearGradient id="linearGradient10761" x1="24.406" x2="24.406" y1="44.438" y2="34.688" gradientTransform="translate(0,0.40019516)" gradientUnits="userSpaceOnUse" xlink:href="#linearGradient4526"/></defs><metadata id="metadata3172"/><g id="layer1" transform="translate(0,80)"><g id="g4833" transform="matrix(2.677786,0,0,2.677786,-1.0319439,-80.533729)"><g id="g8875" transform="matrix(0.02232353,0,0,0.01202587,44.141055,44.0596)"><rect id="rect8877" width="1339.633" height="478.357" x="-1559.252" y="-212.803" fill="url(#linearGradient4847)" fill-opacity="1" fill-rule="nonzero" stroke="none" stroke-width="1" display="inline" opacity=".402" overflow="visible" visibility="visible" style="marker:none"/><path id="path8879" fill="url(#radialGradient4849)" fill-opacity="1" fill-rule="nonzero" stroke="none" stroke-width="1" d="m -219.61876,-212.78696 c 0,0 0,478.33079 0,478.33079 142.874166,0.90045 345.40022,-107.16966 345.40014,-239.196176 0,-132.026534 -159.436816,-239.134594 -345.40014,-239.134614 z" display="inline" opacity=".402" overflow="visible" visibility="visible" style="marker:none"/><path id="path8881" fill="url(#radialGradient4851)" fill-opacity="1" fill-rule="nonzero" stroke="none" stroke-width="1" d="m -1559.2523,-212.78696 c 0,0 0,478.33079 0,478.33079 -142.8742,0.90045 -345.4002,-107.16966 -345.4002,-239.196176 0,-132.026534 159.4368,-239.134594 345.4002,-239.134614 z" display="inline" opacity=".402" overflow="visible" visibility="visible" style="marker:none"/></g><path id="rect3186-2" fill="#c85100" fill-opacity="1" stroke="#c85100" stroke-dashoffset=".45" stroke-linecap="square" stroke-linejoin="round" stroke-miterlimit="4" stroke-opacity="1" stroke-width=".373" d="m 9.571605,29.143 29.71393,0 c 0.633241,0 1.143035,0.533311 1.143035,1.195764 l 4,13.135258 c 0,0.662452 -0.509794,1.195764 -1.143035,1.195764 l -37.999644,0 c -0.633241,0 -1.143034,-0.533312 -1.143034,-1.195764 L 8.428571,30.338764 c 0,-0.662453 0.509793,-1.195764 1.143034,-1.195764 z" color="#000" display="inline" enable-background="accumulate" overflow="visible" visibility="visible" style="marker:none"/><path id="rect3186" fill="url(#linearGradient4853)" fill-opacity="1" stroke="#c85100" stroke-dashoffset=".45" stroke-linecap="square" stroke-linejoin="round" stroke-miterlimit="4" stroke-opacity="1" stroke-width=".373" d="m 9.571605,28.142858 29.71393,0 c 0.633241,0 1.143035,0.530244 1.143035,1.188888 l 4,13.059724 c 0,0.658644 -0.509794,1.188888 -1.143035,1.188888 l -37.999644,0 c -0.633241,0 -1.143034,-0.530244 -1.143034,-1.188888 L 8.428571,29.331746 c 0,-0.658644 0.509793,-1.188888 1.143034,-1.188888 z" color="#000" display="inline" enable-background="accumulate" overflow="visible" visibility="visible" style="marker:none"/><path id="path4015" fill="none" stroke="url(#linearGradient4855)" stroke-dasharray="none" stroke-dashoffset=".45" stroke-linecap="square" stroke-linejoin="round" stroke-miterlimit="4" stroke-opacity="1" stroke-width=".383" d="m 9.5625,28.46875 c -0.4568709,0 -0.8125,0.373679 -0.8125,0.90625 a 0.31251948,0.31251948 0 0 1 0,0.09375 L 4.5,42.9375 c 0.020181,0.509938 0.3474827,0.90625 0.78125,0.90625 l 38,0 c 0.437305,0 0.827725,-0.398641 0.84375,-0.90625 l -4,-13.46875 a 0.31251948,0.31251948 0 0 1 0,-0.09375 c 0,-0.523034 -0.386879,-0.90625 -0.84375,-0.90625 l -29.71875,0 z" color="#000" display="inline" enable-background="accumulate" overflow="visible" transform="matrix(1,0,0,0.95132743,0,1.4160675)" visibility="visible" style="marker:none"/><g id="g4819" transform="translate(-0.1205365,0)"><path id="path4421" fill="url(#linearGradient4857)" fill-opacity="1" stroke="#c85100" stroke-dasharray="none" stroke-miterlimit="4" stroke-opacity="1" stroke-width=".373" d="M 26.4375,0.93158641 C 25.049067,0.34827984 23.915257,0.40173516 22.625,0.9902128 22.291366,1.1423809 22.032645,1.4902464 21.9375,1.8402954 19.059874,12.427451 12.25,32.355328 12.25,32.355328 c -0.419963,0.549582 -0.65625,1.118843 -0.65625,1.729479 0,3.067933 5.734247,5.540193 12.8125,5.540193 7.078253,0 12.8125,-2.47226 12.8125,-5.540193 0,-0.554986 -0.212985,-1.077228 -0.5625,-1.582912 -0.01275,-0.01845 -0.01807,-0.04026 -0.03125,-0.05863 0,0 -6.640927,-20.604873 -9.40625,-30.7788518 C 27.12571,1.3221209 26.768191,1.0705158 26.4375,0.93158641 z" color="#000" display="inline" enable-background="accumulate" overflow="visible" visibility="visible" style="marker:none"/><path id="path10759" fill="none" stroke="url(#linearGradient10761)" stroke-dasharray="none" stroke-miterlimit="4" stroke-opacity="1" stroke-width=".366" d="M 26.21875,1.875 22.875,1.9375 22.40625,2.53125 12.75,33.375 a 0.5220611,0.5220611 0 0 1 -0.09375,0.15625 c -0.373134,0.495324 -0.53125,0.950832 -0.53125,1.4375 0,0.617708 0.261549,1.23906 0.84375,1.84375 0.582201,0.60469 1.479373,1.167284 2.59375,1.65625 2.228754,0.977932 5.366398,1.59375 8.84375,1.59375 3.477352,0 6.614996,-0.615818 8.84375,-1.59375 1.114377,-0.488966 2.011549,-1.05156 2.59375,-1.65625 0.582201,-0.60469 0.84375,-1.226042 0.84375,-1.84375 0,-0.43131 -0.155719,-0.853087 -0.46875,-1.3125 C 36.121578,33.513579 36.111003,33.516871 36.1875,33.625 A 0.5220611,0.5220611 0 0 1 36.125,33.46875 L 26.75,2.375 26.21875,1.875 z" color="#000" display="inline" enable-background="accumulate" overflow="visible" transform="matrix(1.0430028,0,0,1,-1.0495367,0)" visibility="visible" style="marker:none"/><path id="path4421-2-8" fill="url(#linearGradient4861)" fill-opacity="1" stroke="none" stroke-width=".858" d="m 15.691323,23.09375 c -1.3076,4.216103 -2.456033,7.155705 -2.755896,8.09375 1.710775,2.154974 6.389143,3.6875 11.657142,3.6875 5.05728,0 9.531068,-1.417835 11.383528,-3.4375 -0.138698,-0.458813 -1.403968,-4.240466 -2.601361,-8.28125 -2.220764,1.057009 -5.327564,1.71875 -8.782167,1.71875 -3.520396,0 -6.67588,-0.68375 -8.901246,-1.78125 z" color="#000" display="inline" enable-background="accumulate" overflow="visible" visibility="visible" style="marker:none"/><path id="path4421-2-8-4" fill="url(#linearGradient4863)" fill-opacity="1" stroke="none" stroke-width=".858" d="m 20.801552,6.5625 c -0.817495,2.9660386 -1.903366,6.150587 -2.849643,9.34375 1.8136,0.611275 4.293397,0.96875 6.653716,0.96875 2.387853,0 4.705851,-0.374202 6.534028,-1 -0.91423,-3.207851 -1.91971,-6.3784253 -2.713457,-9.3125 -1.187885,0.210286 -2.484554,0.3125 -3.820571,0.3125 -1.292269,0 -2.650121,-0.1155042 -3.804073,-0.3125 z" color="#000" display="inline" enable-background="accumulate" overflow="visible" visibility="visible" style="marker:none"/></g></g></g></svg>