<svg xmlns="http://www.w3.org/2000/svg" xmlns:xlink="http://www.w3.org/1999/xlink" width="128" height="128" version="1.1"><defs><linearGradient id="e" x1="24" x2="24" y1="5.564" y2="42.195" gradientTransform="matrix(2.4595 0 0 3.1081 4.973 -14.595)" gradientUnits="userSpaceOnUse"><stop offset="0" stop-color="#fff"/><stop offset=".006" stop-color="#fff" stop-opacity=".235"/><stop offset=".994" stop-color="#fff" stop-opacity=".157"/><stop offset="1" stop-color="#fff" stop-opacity=".392"/></linearGradient><linearGradient id="d" x1="25.132" x2="25.132" y1=".985" y2="47.013" gradientTransform="matrix(2.6571 0 0 2.5422 .22862 -4.9128)" gradientUnits="userSpaceOnUse"><stop offset="0" stop-color="#f4f4f4"/><stop offset="1" stop-color="#dbdbdb"/></linearGradient><linearGradient id="c" x1="25.058" x2="25.058" y1="47.028" y2="39.999" gradientTransform="matrix(3.1429 0 0 1.2857 -11.429 61.571)" gradientUnits="userSpaceOnUse"><stop offset="0" stop-color="#181818" stop-opacity="0"/><stop offset=".5" stop-color="#181818"/><stop offset="1" stop-color="#181818" stop-opacity="0"/></linearGradient><radialGradient id="b" cx="4.993" cy="43.5" r="2.5" gradientTransform="matrix(2.4045 0 0 1.8 -32.014 -195.8)" gradientUnits="userSpaceOnUse"><stop offset="0" stop-color="#181818"/><stop offset="1" stop-color="#181818" stop-opacity="0"/></radialGradient><radialGradient id="a" cx="4.993" cy="43.5" r="2.5" gradientTransform="matrix(2.4045 0 0 1.8 95.986 39.2)" gradientUnits="userSpaceOnUse"><stop offset="0" stop-color="#181818"/><stop offset="1" stop-color="#181818" stop-opacity="0"/></radialGradient></defs><rect width="6" height="9" x="108" y="113" fill="url(#a)" opacity=".4"/><rect width="6" height="9" x="-20" y="-122" fill="url(#b)" opacity=".4" transform="scale(-1)"/><rect width="88" height="9" x="20" y="113" fill="url(#c)" opacity=".4"/><path fill="url(#d)" d="m17.5 1.5004c21.311 0 93 0.007 93 0.007l0.00011 116.99h-93v-117z"/><path fill="none" stroke="url(#e)" stroke-linecap="round" stroke-linejoin="round" d="m109.5 117.5h-91v-115h91z"/><path fill="none" stroke="#000" stroke-linejoin="round" stroke-width="1" d="m17.5 1.5004c21.311 0 93 0.007 93 0.007l0.00011 116.99h-93v-117z" opacity=".3"/><path fill="#fff" fill-rule="evenodd" d="m54 35.027l-20 34.649 10 17.324h40l10-17.324-20-34.649h-20zm10 17.325l10 17.324h-20l10-17.324z" clip-rule="evenodd" image-rendering="optimizeQuality" opacity=".4" shape-rendering="geometricPrecision"/><g fill-rule="evenodd" clip-rule="evenodd" transform="matrix(6 0 0 6 -382.41 -300.69)"><polygon fill="#3777e3" points="110960 115340 22194 115340 44385 76894 133160 76894" class="fil0" image-rendering="optimizeQuality" shape-rendering="geometricPrecision" transform="matrix(0.0000751 0 0 0.0000751 69.402 55.787)"/><polygon fill="#ffcf63" points="44385 0 88772 76894 133160 76894 88772 0" class="fil1" image-rendering="optimizeQuality" shape-rendering="geometricPrecision" transform="matrix(0.0000751 0 0 0.0000751 69.402 55.787)"/><polygon fill="#11a861" points="44385 0 0 76894 22194 115340 66578 38447" class="fil2" image-rendering="optimizeQuality" shape-rendering="geometricPrecision" transform="matrix(0.0000751 0 0 0.0000751 69.402 55.787)"/></g></svg>