<svg xmlns="http://www.w3.org/2000/svg" xmlns:xlink="http://www.w3.org/1999/xlink" width="128" height="128" version="1.1"><defs><linearGradient id="f" x1="24" x2="24" y1="5.564" y2="42.586" gradientTransform="matrix(2.4595 0 0 3.1081 4.973 -78.595)" gradientUnits="userSpaceOnUse"><stop offset="0" stop-color="#fff"/><stop offset=".01" stop-color="#fff" stop-opacity=".235"/><stop offset=".982" stop-color="#fff" stop-opacity=".157"/><stop offset="1" stop-color="#fff" stop-opacity=".392"/></linearGradient><radialGradient id="b" cx="7.806" cy="9.957" r="12.672" fx="7.276" gradientTransform="matrix(-4.2959e-7 17.553 -21.502 -5.2689e-7 278.07 -223.53)" gradientUnits="userSpaceOnUse"><stop offset="0" stop-color="#4ad58e"/><stop offset=".262" stop-color="#2dc477"/><stop offset=".705" stop-color="#26a464"/><stop offset="1" stop-color="#1d7d4c"/></radialGradient><linearGradient id="d" x1="25" x2="25" y1="47.935" y2=".918" gradientTransform="matrix(2.6571 0 0 2.6587 .22872 -63.816)" gradientUnits="userSpaceOnUse"><stop offset="0" stop-color="#1a6f44"/><stop offset="1" stop-color="#1f8753"/></linearGradient><linearGradient id="e" x1="25.058" x2="25.058" y1="47.028" y2="39.999" gradientTransform="matrix(3.1429 0 0 1.2857 -11.429 -2.4286)" gradientUnits="userSpaceOnUse"><stop offset="0" stop-color="#181818" stop-opacity="0"/><stop offset=".5" stop-color="#181818"/><stop offset="1" stop-color="#181818" stop-opacity="0"/></linearGradient><radialGradient id="c" cx="4.993" cy="43.5" r="2.5" gradientTransform="matrix(2.4045 0 0 1.8 -32.014 -131.8)" gradientUnits="userSpaceOnUse"><stop offset="0" stop-color="#181818"/><stop offset="1" stop-color="#181818" stop-opacity="0"/></radialGradient><radialGradient id="a" cx="4.993" cy="43.5" r="2.5" gradientTransform="matrix(2.4045 0 0 1.8 95.986 -24.8)" gradientUnits="userSpaceOnUse"><stop offset="0" stop-color="#181818"/><stop offset="1" stop-color="#181818" stop-opacity="0"/></radialGradient></defs><g transform="translate(0,64)"><rect width="6" height="9" x="108" y="49" fill="url(#a)" opacity=".4"/><rect width="6" height="9" x="-20" y="-58" fill="url(#c)" opacity=".4" transform="scale(-1)"/><rect width="88" height="9" x="20" y="49" fill="url(#e)" opacity=".4"/><path fill="url(#b)" stroke="url(#d)" stroke-linejoin="round" d="m17.5-62.493h93v116.99h-93v-117z" color="#000"/><path fill="none" stroke="url(#f)" stroke-linecap="round" stroke-linejoin="round" d="m109.5 53.5h-91v-115h91z" opacity=".5"/><g fill="none" stroke="#fff" transform="matrix(2 0 0 2 5e-7 -59.846)"><path stroke-width="3" d="m18 24.5h28"/><path stroke-width="3" d="m18 31.5h28"/><path stroke-width="4" d="m32 39v-23"/><rect width="25" height="21" x="19.5" y="17.425" stroke-width="3"/></g></g></svg>