<svg xmlns="http://www.w3.org/2000/svg" xmlns:xlink="http://www.w3.org/1999/xlink" width="128" height="128" version="1.1"><defs><radialGradient id="a" cx="5" cy="41.5" r="5" gradientTransform="matrix(1.2036 0 0 3.8 -16.018 -266.7)" gradientUnits="userSpaceOnUse"><stop offset="0"/><stop offset="1" stop-opacity="0"/></radialGradient><linearGradient id="f" x1="17.554" x2="17.554" y1="46" y2="35" gradientTransform="matrix(4.7016 0 0 3.4545 -46.498 -30.909)" gradientUnits="userSpaceOnUse"><stop offset="0" stop-opacity="0"/><stop offset=".5"/><stop offset="1" stop-opacity="0"/></linearGradient><radialGradient id="b" cx="5" cy="41.5" r="5" gradientTransform="matrix(1.2036 0 0 3.8 112.06 -266.7)" gradientUnits="userSpaceOnUse"><stop offset="0"/><stop offset="1" stop-opacity="0"/></radialGradient><linearGradient id="e" x1="24.823" x2="24.997" y1="15.378" y2="37.277" gradientTransform="matrix(3.4711 0 0 4.1495 -17.402 -39.823)" gradientUnits="userSpaceOnUse"><stop offset="0" stop-color="#9b63fe"/><stop offset=".239" stop-color="#6c2ed3"/><stop offset=".276" stop-color="#9b63fe"/><stop offset="1" stop-color="#6c2ed3"/></linearGradient><linearGradient id="d" x1="15.464" x2="15.464" y1="7.976" y2="45.042" gradientTransform="matrix(2.7071 0 0 2.6646 -.96978 .92052)" gradientUnits="userSpaceOnUse"><stop offset="0" stop-color="#6c2ed3"/><stop offset=".239" stop-color="#5122a1"/><stop offset=".276" stop-color="#6c2ed3"/><stop offset="1" stop-color="#5122a1"/></linearGradient><linearGradient id="g" x1="24" x2="24" y1="5.564" y2="43" gradientTransform="matrix(2.9459 0 0 1.9189 -6.7027 36.946)" gradientUnits="userSpaceOnUse"><stop offset="0" stop-color="#fff"/><stop offset=".036" stop-color="#fff" stop-opacity=".235"/><stop offset=".951" stop-color="#fff" stop-opacity=".157"/><stop offset="1" stop-color="#fff" stop-opacity=".392"/></linearGradient><linearGradient id="c" x1="24" x2="24" y1="4.318" y2="43" gradientTransform="matrix(2.9459 0 0 .59459 -6.7027 21.23)" gradientUnits="userSpaceOnUse"><stop offset="0" stop-color="#fff"/><stop offset=".084" stop-color="#fff" stop-opacity=".235"/><stop offset=".951" stop-color="#fff" stop-opacity=".157"/><stop offset="1" stop-color="#fff" stop-opacity=".392"/></linearGradient></defs><rect width="6" height="38" x="-10" y="-128" fill="url(#a)" opacity=".3" transform="scale(-1)"/><rect width="108.14" height="38" x="9.921" y="90" fill="url(#f)" opacity=".3"/><rect width="6" height="38" x="118.08" y="-128" fill="url(#b)" opacity=".3" transform="scale(1,-1)"/><path fill="url(#e)" stroke="url(#d)" stroke-linecap="round" stroke-width=".994" d="m23.423 23.57h79.853c4.6615 0 6.7594-0.76354 8.0984 2.6646l8.1259 21.317v68.411c0 4.1389 0.27864 3.5066-4.3829 3.5066h-102.23c-4.6616 0-4.3829 0.63239-4.3829-3.5066v-68.411l8.1259-21.317c1.3016-3.3589 2.1352-2.6646 6.7967-2.6646z" color="#000" display="block"/><path fill="none" stroke="url(#g)" stroke-linecap="round" stroke-linejoin="round" d="m118.5 118.5h-109v-71h109z" opacity=".3"/><path fill="none" stroke="url(#c)" stroke-linecap="round" stroke-linejoin="round" d="m9.5 46.5 9.1591-22h90.682l9.1591 22" opacity=".2"/><g stroke="#000" stroke-linejoin="round" stroke-width="2" opacity=".05"><path d="m52.918 96h-4.4678v-9.5654q0-1.7725-0.55664-2.6514-0.54199-0.89356-1.6846-0.89356-0.86426 0-1.4502 0.35156t-0.9375 1.04q-0.35156 0.68848-0.49805 1.6992-0.14648 1.0107-0.14648 2.3145v7.7051h-4.4678v-22.793h4.4678v4.6436q0 0.61523-0.0293 1.3037-0.0293 0.67383-0.07324 1.2451-0.05859 0.67383-0.10254 1.3184h0.23438q0.71777-1.2744 1.8311-1.8311 1.1133-0.57129 2.5195-0.57129 1.2158 0 2.1973 0.35156 0.99609 0.33691 1.6992 1.0693 0.70312 0.73242 1.084 1.875 0.38086 1.1279 0.38086 2.71v10.679z" transform="translate(0 1)"/><path d="m62.337 96.293q-1.2598 0-2.2998-0.54199t-1.7871-1.5967q-0.74707-1.0693-1.1719-2.6514-0.41016-1.582-0.41016-3.6621 0-2.1094 0.41016-3.6914 0.4248-1.5967 1.1865-2.666 0.77637-1.084 1.8457-1.626 1.0693-0.54199 2.3584-0.54199 0.79102 0 1.4502 0.19043 0.65918 0.17578 1.1865 0.5127 0.52734 0.32226 0.9375 0.76172 0.4248 0.4248 0.74707 0.9375h0.14648q-0.08789-0.57129-0.16113-1.1572-0.07324-0.49805-0.13184-1.0547-0.04394-0.57129-0.04394-1.0547v-5.2441h4.4678v22.793h-3.4131l-0.86426-2.124h-0.19043q-0.30762 0.49805-0.70312 0.95215-0.39551 0.43945-0.92285 0.76172-0.5127 0.32226-1.1719 0.5127-0.64453 0.19043-1.4648 0.19043zm1.626-3.5596q0.79102 0 1.3477-0.26367 0.55664-0.27832 0.89356-0.82031 0.35156-0.55664 0.5127-1.377 0.17578-0.82031 0.19043-1.9189v-0.4834q0-1.1865-0.14648-2.1094-0.14648-0.92285-0.4834-1.5381-0.33691-0.62988-0.9082-0.95215t-1.4355-0.32227q-1.4062 0-2.0654 1.2744-0.65918 1.2598-0.65918 3.6768t0.65918 3.6328q0.67383 1.2012 2.0947 1.2012z" transform="translate(0 1)"/><path d="m80.56 96.293q-1.2598 0-2.2998-0.54199t-1.7871-1.5967q-0.74707-1.0693-1.1719-2.6514-0.41016-1.582-0.41016-3.6621 0-2.1094 0.41016-3.6914 0.4248-1.5967 1.1865-2.666 0.77637-1.084 1.8457-1.626 1.0693-0.54199 2.3584-0.54199 0.79102 0 1.4502 0.19043 0.65918 0.17578 1.1865 0.5127 0.52734 0.32226 0.9375 0.76172 0.4248 0.4248 0.74707 0.9375h0.14648q-0.08789-0.57129-0.16113-1.1572-0.07324-0.49805-0.13184-1.0547-0.04394-0.57129-0.04394-1.0547v-5.2441h4.4678v22.793h-3.4131l-0.86426-2.124h-0.19043q-0.30762 0.49805-0.70312 0.95215-0.39551 0.43945-0.92285 0.76172-0.5127 0.32226-1.1719 0.5127-0.64453 0.19043-1.4648 0.19043zm1.626-3.5596q0.79102 0 1.3477-0.26367 0.55664-0.27832 0.89356-0.82031 0.35156-0.55664 0.5127-1.377 0.17578-0.82031 0.19043-1.9189v-0.4834q0-1.1865-0.14648-2.1094-0.14648-0.92285-0.4834-1.5381-0.33691-0.62988-0.9082-0.95215t-1.4355-0.32227q-1.4062 0-2.0654 1.2744-0.65918 1.2598-0.65918 3.6768t0.65918 3.6328q0.67383 1.2012 2.0947 1.2012z" transform="translate(0 1)"/></g><g opacity=".15"><path d="m52.918 96h-4.4678v-9.5654q0-1.7725-0.55664-2.6514-0.54199-0.89356-1.6846-0.89356-0.86426 0-1.4502 0.35156t-0.9375 1.04q-0.35156 0.68848-0.49805 1.6992-0.14648 1.0107-0.14648 2.3145v7.7051h-4.4678v-22.793h4.4678v4.6436q0 0.61523-0.0293 1.3037-0.0293 0.67383-0.07324 1.2451-0.05859 0.67383-0.10254 1.3184h0.23438q0.71777-1.2744 1.8311-1.8311 1.1133-0.57129 2.5195-0.57129 1.2158 0 2.1973 0.35156 0.99609 0.33691 1.6992 1.0693 0.70312 0.73242 1.084 1.875 0.38086 1.1279 0.38086 2.71v10.679z" transform="translate(0 1)"/><path d="m62.337 96.293q-1.2598 0-2.2998-0.54199t-1.7871-1.5967q-0.74707-1.0693-1.1719-2.6514-0.41016-1.582-0.41016-3.6621 0-2.1094 0.41016-3.6914 0.4248-1.5967 1.1865-2.666 0.77637-1.084 1.8457-1.626 1.0693-0.54199 2.3584-0.54199 0.79102 0 1.4502 0.19043 0.65918 0.17578 1.1865 0.5127 0.52734 0.32226 0.9375 0.76172 0.4248 0.4248 0.74707 0.9375h0.14648q-0.08789-0.57129-0.16113-1.1572-0.07324-0.49805-0.13184-1.0547-0.04394-0.57129-0.04394-1.0547v-5.2441h4.4678v22.793h-3.4131l-0.86426-2.124h-0.19043q-0.30762 0.49805-0.70312 0.95215-0.39551 0.43945-0.92285 0.76172-0.5127 0.32226-1.1719 0.5127-0.64453 0.19043-1.4648 0.19043zm1.626-3.5596q0.79102 0 1.3477-0.26367 0.55664-0.27832 0.89356-0.82031 0.35156-0.55664 0.5127-1.377 0.17578-0.82031 0.19043-1.9189v-0.4834q0-1.1865-0.14648-2.1094-0.14648-0.92285-0.4834-1.5381-0.33691-0.62988-0.9082-0.95215t-1.4355-0.32227q-1.4062 0-2.0654 1.2744-0.65918 1.2598-0.65918 3.6768t0.65918 3.6328q0.67383 1.2012 2.0947 1.2012z" transform="translate(0 1)"/><path d="m80.56 96.293q-1.2598 0-2.2998-0.54199t-1.7871-1.5967q-0.74707-1.0693-1.1719-2.6514-0.41016-1.582-0.41016-3.6621 0-2.1094 0.41016-3.6914 0.4248-1.5967 1.1865-2.666 0.77637-1.084 1.8457-1.626 1.0693-0.54199 2.3584-0.54199 0.79102 0 1.4502 0.19043 0.65918 0.17578 1.1865 0.5127 0.52734 0.32226 0.9375 0.76172 0.4248 0.4248 0.74707 0.9375h0.14648q-0.08789-0.57129-0.16113-1.1572-0.07324-0.49805-0.13184-1.0547-0.04394-0.57129-0.04394-1.0547v-5.2441h4.4678v22.793h-3.4131l-0.86426-2.124h-0.19043q-0.30762 0.49805-0.70312 0.95215-0.39551 0.43945-0.92285 0.76172-0.5127 0.32226-1.1719 0.5127-0.64453 0.19043-1.4648 0.19043zm1.626-3.5596q0.79102 0 1.3477-0.26367 0.55664-0.27832 0.89356-0.82031 0.35156-0.55664 0.5127-1.377 0.17578-0.82031 0.19043-1.9189v-0.4834q0-1.1865-0.14648-2.1094-0.14648-0.92285-0.4834-1.5381-0.33691-0.62988-0.9082-0.95215t-1.4355-0.32227q-1.4062 0-2.0654 1.2744-0.65918 1.2598-0.65918 3.6768t0.65918 3.6328q0.67383 1.2012 2.0947 1.2012z" transform="translate(0 1)"/></g><g fill="#fff"><path d="m52.918 96h-4.4678v-9.5654q0-1.7725-0.55664-2.6514-0.54199-0.89356-1.6846-0.89356-0.86426 0-1.4502 0.35156t-0.9375 1.04q-0.35156 0.68848-0.49805 1.6992-0.14648 1.0107-0.14648 2.3145v7.7051h-4.4678v-22.793h4.4678v4.6436q0 0.61523-0.0293 1.3037-0.0293 0.67383-0.07324 1.2451-0.05859 0.67383-0.10254 1.3184h0.23438q0.71777-1.2744 1.8311-1.8311 1.1133-0.57129 2.5195-0.57129 1.2158 0 2.1973 0.35156 0.99609 0.33691 1.6992 1.0693 0.70312 0.73242 1.084 1.875 0.38086 1.1279 0.38086 2.71v10.679z"/><path d="m62.337 96.293q-1.2598 0-2.2998-0.54199t-1.7871-1.5967q-0.74707-1.0693-1.1719-2.6514-0.41016-1.582-0.41016-3.6621 0-2.1094 0.41016-3.6914 0.4248-1.5967 1.1865-2.666 0.77637-1.084 1.8457-1.626 1.0693-0.54199 2.3584-0.54199 0.79102 0 1.4502 0.19043 0.65918 0.17578 1.1865 0.5127 0.52734 0.32226 0.9375 0.76172 0.4248 0.4248 0.74707 0.9375h0.14648q-0.08789-0.57129-0.16113-1.1572-0.07324-0.49805-0.13184-1.0547-0.04394-0.57129-0.04394-1.0547v-5.2441h4.4678v22.793h-3.4131l-0.86426-2.124h-0.19043q-0.30762 0.49805-0.70312 0.95215-0.39551 0.43945-0.92285 0.76172-0.5127 0.32226-1.1719 0.5127-0.64453 0.19043-1.4648 0.19043zm1.626-3.5596q0.79102 0 1.3477-0.26367 0.55664-0.27832 0.89356-0.82031 0.35156-0.55664 0.5127-1.377 0.17578-0.82031 0.19043-1.9189v-0.4834q0-1.1865-0.14648-2.1094-0.14648-0.92285-0.4834-1.5381-0.33691-0.62988-0.9082-0.95215t-1.4355-0.32227q-1.4062 0-2.0654 1.2744-0.65918 1.2598-0.65918 3.6768t0.65918 3.6328q0.67383 1.2012 2.0947 1.2012z"/><path d="m80.56 96.293q-1.2598 0-2.2998-0.54199t-1.7871-1.5967q-0.74707-1.0693-1.1719-2.6514-0.41016-1.582-0.41016-3.6621 0-2.1094 0.41016-3.6914 0.4248-1.5967 1.1865-2.666 0.77637-1.084 1.8457-1.626 1.0693-0.54199 2.3584-0.54199 0.79102 0 1.4502 0.19043 0.65918 0.17578 1.1865 0.5127 0.52734 0.32226 0.9375 0.76172 0.4248 0.4248 0.74707 0.9375h0.14648q-0.08789-0.57129-0.16113-1.1572-0.07324-0.49805-0.13184-1.0547-0.04394-0.57129-0.04394-1.0547v-5.2441h4.4678v22.793h-3.4131l-0.86426-2.124h-0.19043q-0.30762 0.49805-0.70312 0.95215-0.39551 0.43945-0.92285 0.76172-0.5127 0.32226-1.1719 0.5127-0.64453 0.19043-1.4648 0.19043zm1.626-3.5596q0.79102 0 1.3477-0.26367 0.55664-0.27832 0.89356-0.82031 0.35156-0.55664 0.5127-1.377 0.17578-0.82031 0.19043-1.9189v-0.4834q0-1.1865-0.14648-2.1094-0.14648-0.92285-0.4834-1.5381-0.33691-0.62988-0.9082-0.95215t-1.4355-0.32227q-1.4062 0-2.0654 1.2744-0.65918 1.2598-0.65918 3.6768t0.65918 3.6328q0.67383 1.2012 2.0947 1.2012z"/></g></svg>